G04 #@! TF.GenerationSoftware,KiCad,Pcbnew,(5.1.5)-3*
G04 #@! TF.CreationDate,2021-02-26T20:31:08+11:00*
G04 #@! TF.ProjectId,US_Board2,55535f42-6f61-4726-9432-2e6b69636164,rev?*
G04 #@! TF.SameCoordinates,Original*
G04 #@! TF.FileFunction,Copper,L1,Top*
G04 #@! TF.FilePolarity,Positive*
%FSLAX46Y46*%
G04 Gerber Fmt 4.6, Leading zero omitted, Abs format (unit mm)*
G04 Created by KiCad (PCBNEW (5.1.5)-3) date 2021-02-26 20:31:08*
%MOMM*%
%LPD*%
G04 APERTURE LIST*
%ADD10C,0.100000*%
%ADD11O,1.950000X1.700000*%
%ADD12C,1.600000*%
%ADD13O,1.600000X1.600000*%
%ADD14O,1.700000X1.950000*%
%ADD15R,1.800000X1.800000*%
%ADD16C,1.800000*%
%ADD17C,0.300000*%
G04 APERTURE END LIST*
G04 #@! TA.AperFunction,ComponentPad*
D10*
G36*
X164579504Y-90591204D02*
G01*
X164603773Y-90594804D01*
X164627571Y-90600765D01*
X164650671Y-90609030D01*
X164672849Y-90619520D01*
X164693893Y-90632133D01*
X164713598Y-90646747D01*
X164731777Y-90663223D01*
X164748253Y-90681402D01*
X164762867Y-90701107D01*
X164775480Y-90722151D01*
X164785970Y-90744329D01*
X164794235Y-90767429D01*
X164800196Y-90791227D01*
X164803796Y-90815496D01*
X164805000Y-90840000D01*
X164805000Y-92040000D01*
X164803796Y-92064504D01*
X164800196Y-92088773D01*
X164794235Y-92112571D01*
X164785970Y-92135671D01*
X164775480Y-92157849D01*
X164762867Y-92178893D01*
X164748253Y-92198598D01*
X164731777Y-92216777D01*
X164713598Y-92233253D01*
X164693893Y-92247867D01*
X164672849Y-92260480D01*
X164650671Y-92270970D01*
X164627571Y-92279235D01*
X164603773Y-92285196D01*
X164579504Y-92288796D01*
X164555000Y-92290000D01*
X163105000Y-92290000D01*
X163080496Y-92288796D01*
X163056227Y-92285196D01*
X163032429Y-92279235D01*
X163009329Y-92270970D01*
X162987151Y-92260480D01*
X162966107Y-92247867D01*
X162946402Y-92233253D01*
X162928223Y-92216777D01*
X162911747Y-92198598D01*
X162897133Y-92178893D01*
X162884520Y-92157849D01*
X162874030Y-92135671D01*
X162865765Y-92112571D01*
X162859804Y-92088773D01*
X162856204Y-92064504D01*
X162855000Y-92040000D01*
X162855000Y-90840000D01*
X162856204Y-90815496D01*
X162859804Y-90791227D01*
X162865765Y-90767429D01*
X162874030Y-90744329D01*
X162884520Y-90722151D01*
X162897133Y-90701107D01*
X162911747Y-90681402D01*
X162928223Y-90663223D01*
X162946402Y-90646747D01*
X162966107Y-90632133D01*
X162987151Y-90619520D01*
X163009329Y-90609030D01*
X163032429Y-90600765D01*
X163056227Y-90594804D01*
X163080496Y-90591204D01*
X163105000Y-90590000D01*
X164555000Y-90590000D01*
X164579504Y-90591204D01*
G37*
G04 #@! TD.AperFunction*
D11*
X163830000Y-88940000D03*
X163830000Y-86440000D03*
X163830000Y-83940000D03*
D12*
X137160000Y-83820000D03*
D13*
X137160000Y-73660000D03*
X142240000Y-73660000D03*
D12*
X142240000Y-83820000D03*
X132080000Y-83820000D03*
D13*
X132080000Y-73660000D03*
D12*
X157480000Y-86360000D03*
X157480000Y-81360000D03*
X148590000Y-74930000D03*
X151090000Y-74930000D03*
G04 #@! TA.AperFunction,ComponentPad*
D10*
G36*
X150524504Y-91736204D02*
G01*
X150548773Y-91739804D01*
X150572571Y-91745765D01*
X150595671Y-91754030D01*
X150617849Y-91764520D01*
X150638893Y-91777133D01*
X150658598Y-91791747D01*
X150676777Y-91808223D01*
X150693253Y-91826402D01*
X150707867Y-91846107D01*
X150720480Y-91867151D01*
X150730970Y-91889329D01*
X150739235Y-91912429D01*
X150745196Y-91936227D01*
X150748796Y-91960496D01*
X150750000Y-91985000D01*
X150750000Y-93435000D01*
X150748796Y-93459504D01*
X150745196Y-93483773D01*
X150739235Y-93507571D01*
X150730970Y-93530671D01*
X150720480Y-93552849D01*
X150707867Y-93573893D01*
X150693253Y-93593598D01*
X150676777Y-93611777D01*
X150658598Y-93628253D01*
X150638893Y-93642867D01*
X150617849Y-93655480D01*
X150595671Y-93665970D01*
X150572571Y-93674235D01*
X150548773Y-93680196D01*
X150524504Y-93683796D01*
X150500000Y-93685000D01*
X149300000Y-93685000D01*
X149275496Y-93683796D01*
X149251227Y-93680196D01*
X149227429Y-93674235D01*
X149204329Y-93665970D01*
X149182151Y-93655480D01*
X149161107Y-93642867D01*
X149141402Y-93628253D01*
X149123223Y-93611777D01*
X149106747Y-93593598D01*
X149092133Y-93573893D01*
X149079520Y-93552849D01*
X149069030Y-93530671D01*
X149060765Y-93507571D01*
X149054804Y-93483773D01*
X149051204Y-93459504D01*
X149050000Y-93435000D01*
X149050000Y-91985000D01*
X149051204Y-91960496D01*
X149054804Y-91936227D01*
X149060765Y-91912429D01*
X149069030Y-91889329D01*
X149079520Y-91867151D01*
X149092133Y-91846107D01*
X149106747Y-91826402D01*
X149123223Y-91808223D01*
X149141402Y-91791747D01*
X149161107Y-91777133D01*
X149182151Y-91764520D01*
X149204329Y-91754030D01*
X149227429Y-91745765D01*
X149251227Y-91739804D01*
X149275496Y-91736204D01*
X149300000Y-91735000D01*
X150500000Y-91735000D01*
X150524504Y-91736204D01*
G37*
G04 #@! TD.AperFunction*
D14*
X152400000Y-92710000D03*
X154900000Y-92710000D03*
D15*
X135890000Y-91440000D03*
D16*
X135890000Y-88900000D03*
D15*
X129540000Y-91440000D03*
D16*
X129540000Y-88900000D03*
X142240000Y-88900000D03*
D15*
X142240000Y-91440000D03*
G04 #@! TA.AperFunction,SMDPad,CuDef*
D10*
G36*
X148224703Y-78440722D02*
G01*
X148239264Y-78442882D01*
X148253543Y-78446459D01*
X148267403Y-78451418D01*
X148280710Y-78457712D01*
X148293336Y-78465280D01*
X148305159Y-78474048D01*
X148316066Y-78483934D01*
X148325952Y-78494841D01*
X148334720Y-78506664D01*
X148342288Y-78519290D01*
X148348582Y-78532597D01*
X148353541Y-78546457D01*
X148357118Y-78560736D01*
X148359278Y-78575297D01*
X148360000Y-78590000D01*
X148360000Y-78890000D01*
X148359278Y-78904703D01*
X148357118Y-78919264D01*
X148353541Y-78933543D01*
X148348582Y-78947403D01*
X148342288Y-78960710D01*
X148334720Y-78973336D01*
X148325952Y-78985159D01*
X148316066Y-78996066D01*
X148305159Y-79005952D01*
X148293336Y-79014720D01*
X148280710Y-79022288D01*
X148267403Y-79028582D01*
X148253543Y-79033541D01*
X148239264Y-79037118D01*
X148224703Y-79039278D01*
X148210000Y-79040000D01*
X146560000Y-79040000D01*
X146545297Y-79039278D01*
X146530736Y-79037118D01*
X146516457Y-79033541D01*
X146502597Y-79028582D01*
X146489290Y-79022288D01*
X146476664Y-79014720D01*
X146464841Y-79005952D01*
X146453934Y-78996066D01*
X146444048Y-78985159D01*
X146435280Y-78973336D01*
X146427712Y-78960710D01*
X146421418Y-78947403D01*
X146416459Y-78933543D01*
X146412882Y-78919264D01*
X146410722Y-78904703D01*
X146410000Y-78890000D01*
X146410000Y-78590000D01*
X146410722Y-78575297D01*
X146412882Y-78560736D01*
X146416459Y-78546457D01*
X146421418Y-78532597D01*
X146427712Y-78519290D01*
X146435280Y-78506664D01*
X146444048Y-78494841D01*
X146453934Y-78483934D01*
X146464841Y-78474048D01*
X146476664Y-78465280D01*
X146489290Y-78457712D01*
X146502597Y-78451418D01*
X146516457Y-78446459D01*
X146530736Y-78442882D01*
X146545297Y-78440722D01*
X146560000Y-78440000D01*
X148210000Y-78440000D01*
X148224703Y-78440722D01*
G37*
G04 #@! TD.AperFunction*
G04 #@! TA.AperFunction,SMDPad,CuDef*
G36*
X148224703Y-79710722D02*
G01*
X148239264Y-79712882D01*
X148253543Y-79716459D01*
X148267403Y-79721418D01*
X148280710Y-79727712D01*
X148293336Y-79735280D01*
X148305159Y-79744048D01*
X148316066Y-79753934D01*
X148325952Y-79764841D01*
X148334720Y-79776664D01*
X148342288Y-79789290D01*
X148348582Y-79802597D01*
X148353541Y-79816457D01*
X148357118Y-79830736D01*
X148359278Y-79845297D01*
X148360000Y-79860000D01*
X148360000Y-80160000D01*
X148359278Y-80174703D01*
X148357118Y-80189264D01*
X148353541Y-80203543D01*
X148348582Y-80217403D01*
X148342288Y-80230710D01*
X148334720Y-80243336D01*
X148325952Y-80255159D01*
X148316066Y-80266066D01*
X148305159Y-80275952D01*
X148293336Y-80284720D01*
X148280710Y-80292288D01*
X148267403Y-80298582D01*
X148253543Y-80303541D01*
X148239264Y-80307118D01*
X148224703Y-80309278D01*
X148210000Y-80310000D01*
X146560000Y-80310000D01*
X146545297Y-80309278D01*
X146530736Y-80307118D01*
X146516457Y-80303541D01*
X146502597Y-80298582D01*
X146489290Y-80292288D01*
X146476664Y-80284720D01*
X146464841Y-80275952D01*
X146453934Y-80266066D01*
X146444048Y-80255159D01*
X146435280Y-80243336D01*
X146427712Y-80230710D01*
X146421418Y-80217403D01*
X146416459Y-80203543D01*
X146412882Y-80189264D01*
X146410722Y-80174703D01*
X146410000Y-80160000D01*
X146410000Y-79860000D01*
X146410722Y-79845297D01*
X146412882Y-79830736D01*
X146416459Y-79816457D01*
X146421418Y-79802597D01*
X146427712Y-79789290D01*
X146435280Y-79776664D01*
X146444048Y-79764841D01*
X146453934Y-79753934D01*
X146464841Y-79744048D01*
X146476664Y-79735280D01*
X146489290Y-79727712D01*
X146502597Y-79721418D01*
X146516457Y-79716459D01*
X146530736Y-79712882D01*
X146545297Y-79710722D01*
X146560000Y-79710000D01*
X148210000Y-79710000D01*
X148224703Y-79710722D01*
G37*
G04 #@! TD.AperFunction*
G04 #@! TA.AperFunction,SMDPad,CuDef*
G36*
X148224703Y-80980722D02*
G01*
X148239264Y-80982882D01*
X148253543Y-80986459D01*
X148267403Y-80991418D01*
X148280710Y-80997712D01*
X148293336Y-81005280D01*
X148305159Y-81014048D01*
X148316066Y-81023934D01*
X148325952Y-81034841D01*
X148334720Y-81046664D01*
X148342288Y-81059290D01*
X148348582Y-81072597D01*
X148353541Y-81086457D01*
X148357118Y-81100736D01*
X148359278Y-81115297D01*
X148360000Y-81130000D01*
X148360000Y-81430000D01*
X148359278Y-81444703D01*
X148357118Y-81459264D01*
X148353541Y-81473543D01*
X148348582Y-81487403D01*
X148342288Y-81500710D01*
X148334720Y-81513336D01*
X148325952Y-81525159D01*
X148316066Y-81536066D01*
X148305159Y-81545952D01*
X148293336Y-81554720D01*
X148280710Y-81562288D01*
X148267403Y-81568582D01*
X148253543Y-81573541D01*
X148239264Y-81577118D01*
X148224703Y-81579278D01*
X148210000Y-81580000D01*
X146560000Y-81580000D01*
X146545297Y-81579278D01*
X146530736Y-81577118D01*
X146516457Y-81573541D01*
X146502597Y-81568582D01*
X146489290Y-81562288D01*
X146476664Y-81554720D01*
X146464841Y-81545952D01*
X146453934Y-81536066D01*
X146444048Y-81525159D01*
X146435280Y-81513336D01*
X146427712Y-81500710D01*
X146421418Y-81487403D01*
X146416459Y-81473543D01*
X146412882Y-81459264D01*
X146410722Y-81444703D01*
X146410000Y-81430000D01*
X146410000Y-81130000D01*
X146410722Y-81115297D01*
X146412882Y-81100736D01*
X146416459Y-81086457D01*
X146421418Y-81072597D01*
X146427712Y-81059290D01*
X146435280Y-81046664D01*
X146444048Y-81034841D01*
X146453934Y-81023934D01*
X146464841Y-81014048D01*
X146476664Y-81005280D01*
X146489290Y-80997712D01*
X146502597Y-80991418D01*
X146516457Y-80986459D01*
X146530736Y-80982882D01*
X146545297Y-80980722D01*
X146560000Y-80980000D01*
X148210000Y-80980000D01*
X148224703Y-80980722D01*
G37*
G04 #@! TD.AperFunction*
G04 #@! TA.AperFunction,SMDPad,CuDef*
G36*
X148224703Y-82250722D02*
G01*
X148239264Y-82252882D01*
X148253543Y-82256459D01*
X148267403Y-82261418D01*
X148280710Y-82267712D01*
X148293336Y-82275280D01*
X148305159Y-82284048D01*
X148316066Y-82293934D01*
X148325952Y-82304841D01*
X148334720Y-82316664D01*
X148342288Y-82329290D01*
X148348582Y-82342597D01*
X148353541Y-82356457D01*
X148357118Y-82370736D01*
X148359278Y-82385297D01*
X148360000Y-82400000D01*
X148360000Y-82700000D01*
X148359278Y-82714703D01*
X148357118Y-82729264D01*
X148353541Y-82743543D01*
X148348582Y-82757403D01*
X148342288Y-82770710D01*
X148334720Y-82783336D01*
X148325952Y-82795159D01*
X148316066Y-82806066D01*
X148305159Y-82815952D01*
X148293336Y-82824720D01*
X148280710Y-82832288D01*
X148267403Y-82838582D01*
X148253543Y-82843541D01*
X148239264Y-82847118D01*
X148224703Y-82849278D01*
X148210000Y-82850000D01*
X146560000Y-82850000D01*
X146545297Y-82849278D01*
X146530736Y-82847118D01*
X146516457Y-82843541D01*
X146502597Y-82838582D01*
X146489290Y-82832288D01*
X146476664Y-82824720D01*
X146464841Y-82815952D01*
X146453934Y-82806066D01*
X146444048Y-82795159D01*
X146435280Y-82783336D01*
X146427712Y-82770710D01*
X146421418Y-82757403D01*
X146416459Y-82743543D01*
X146412882Y-82729264D01*
X146410722Y-82714703D01*
X146410000Y-82700000D01*
X146410000Y-82400000D01*
X146410722Y-82385297D01*
X146412882Y-82370736D01*
X146416459Y-82356457D01*
X146421418Y-82342597D01*
X146427712Y-82329290D01*
X146435280Y-82316664D01*
X146444048Y-82304841D01*
X146453934Y-82293934D01*
X146464841Y-82284048D01*
X146476664Y-82275280D01*
X146489290Y-82267712D01*
X146502597Y-82261418D01*
X146516457Y-82256459D01*
X146530736Y-82252882D01*
X146545297Y-82250722D01*
X146560000Y-82250000D01*
X148210000Y-82250000D01*
X148224703Y-82250722D01*
G37*
G04 #@! TD.AperFunction*
G04 #@! TA.AperFunction,SMDPad,CuDef*
G36*
X148224703Y-83520722D02*
G01*
X148239264Y-83522882D01*
X148253543Y-83526459D01*
X148267403Y-83531418D01*
X148280710Y-83537712D01*
X148293336Y-83545280D01*
X148305159Y-83554048D01*
X148316066Y-83563934D01*
X148325952Y-83574841D01*
X148334720Y-83586664D01*
X148342288Y-83599290D01*
X148348582Y-83612597D01*
X148353541Y-83626457D01*
X148357118Y-83640736D01*
X148359278Y-83655297D01*
X148360000Y-83670000D01*
X148360000Y-83970000D01*
X148359278Y-83984703D01*
X148357118Y-83999264D01*
X148353541Y-84013543D01*
X148348582Y-84027403D01*
X148342288Y-84040710D01*
X148334720Y-84053336D01*
X148325952Y-84065159D01*
X148316066Y-84076066D01*
X148305159Y-84085952D01*
X148293336Y-84094720D01*
X148280710Y-84102288D01*
X148267403Y-84108582D01*
X148253543Y-84113541D01*
X148239264Y-84117118D01*
X148224703Y-84119278D01*
X148210000Y-84120000D01*
X146560000Y-84120000D01*
X146545297Y-84119278D01*
X146530736Y-84117118D01*
X146516457Y-84113541D01*
X146502597Y-84108582D01*
X146489290Y-84102288D01*
X146476664Y-84094720D01*
X146464841Y-84085952D01*
X146453934Y-84076066D01*
X146444048Y-84065159D01*
X146435280Y-84053336D01*
X146427712Y-84040710D01*
X146421418Y-84027403D01*
X146416459Y-84013543D01*
X146412882Y-83999264D01*
X146410722Y-83984703D01*
X146410000Y-83970000D01*
X146410000Y-83670000D01*
X146410722Y-83655297D01*
X146412882Y-83640736D01*
X146416459Y-83626457D01*
X146421418Y-83612597D01*
X146427712Y-83599290D01*
X146435280Y-83586664D01*
X146444048Y-83574841D01*
X146453934Y-83563934D01*
X146464841Y-83554048D01*
X146476664Y-83545280D01*
X146489290Y-83537712D01*
X146502597Y-83531418D01*
X146516457Y-83526459D01*
X146530736Y-83522882D01*
X146545297Y-83520722D01*
X146560000Y-83520000D01*
X148210000Y-83520000D01*
X148224703Y-83520722D01*
G37*
G04 #@! TD.AperFunction*
G04 #@! TA.AperFunction,SMDPad,CuDef*
G36*
X148224703Y-84790722D02*
G01*
X148239264Y-84792882D01*
X148253543Y-84796459D01*
X148267403Y-84801418D01*
X148280710Y-84807712D01*
X148293336Y-84815280D01*
X148305159Y-84824048D01*
X148316066Y-84833934D01*
X148325952Y-84844841D01*
X148334720Y-84856664D01*
X148342288Y-84869290D01*
X148348582Y-84882597D01*
X148353541Y-84896457D01*
X148357118Y-84910736D01*
X148359278Y-84925297D01*
X148360000Y-84940000D01*
X148360000Y-85240000D01*
X148359278Y-85254703D01*
X148357118Y-85269264D01*
X148353541Y-85283543D01*
X148348582Y-85297403D01*
X148342288Y-85310710D01*
X148334720Y-85323336D01*
X148325952Y-85335159D01*
X148316066Y-85346066D01*
X148305159Y-85355952D01*
X148293336Y-85364720D01*
X148280710Y-85372288D01*
X148267403Y-85378582D01*
X148253543Y-85383541D01*
X148239264Y-85387118D01*
X148224703Y-85389278D01*
X148210000Y-85390000D01*
X146560000Y-85390000D01*
X146545297Y-85389278D01*
X146530736Y-85387118D01*
X146516457Y-85383541D01*
X146502597Y-85378582D01*
X146489290Y-85372288D01*
X146476664Y-85364720D01*
X146464841Y-85355952D01*
X146453934Y-85346066D01*
X146444048Y-85335159D01*
X146435280Y-85323336D01*
X146427712Y-85310710D01*
X146421418Y-85297403D01*
X146416459Y-85283543D01*
X146412882Y-85269264D01*
X146410722Y-85254703D01*
X146410000Y-85240000D01*
X146410000Y-84940000D01*
X146410722Y-84925297D01*
X146412882Y-84910736D01*
X146416459Y-84896457D01*
X146421418Y-84882597D01*
X146427712Y-84869290D01*
X146435280Y-84856664D01*
X146444048Y-84844841D01*
X146453934Y-84833934D01*
X146464841Y-84824048D01*
X146476664Y-84815280D01*
X146489290Y-84807712D01*
X146502597Y-84801418D01*
X146516457Y-84796459D01*
X146530736Y-84792882D01*
X146545297Y-84790722D01*
X146560000Y-84790000D01*
X148210000Y-84790000D01*
X148224703Y-84790722D01*
G37*
G04 #@! TD.AperFunction*
G04 #@! TA.AperFunction,SMDPad,CuDef*
G36*
X148224703Y-86060722D02*
G01*
X148239264Y-86062882D01*
X148253543Y-86066459D01*
X148267403Y-86071418D01*
X148280710Y-86077712D01*
X148293336Y-86085280D01*
X148305159Y-86094048D01*
X148316066Y-86103934D01*
X148325952Y-86114841D01*
X148334720Y-86126664D01*
X148342288Y-86139290D01*
X148348582Y-86152597D01*
X148353541Y-86166457D01*
X148357118Y-86180736D01*
X148359278Y-86195297D01*
X148360000Y-86210000D01*
X148360000Y-86510000D01*
X148359278Y-86524703D01*
X148357118Y-86539264D01*
X148353541Y-86553543D01*
X148348582Y-86567403D01*
X148342288Y-86580710D01*
X148334720Y-86593336D01*
X148325952Y-86605159D01*
X148316066Y-86616066D01*
X148305159Y-86625952D01*
X148293336Y-86634720D01*
X148280710Y-86642288D01*
X148267403Y-86648582D01*
X148253543Y-86653541D01*
X148239264Y-86657118D01*
X148224703Y-86659278D01*
X148210000Y-86660000D01*
X146560000Y-86660000D01*
X146545297Y-86659278D01*
X146530736Y-86657118D01*
X146516457Y-86653541D01*
X146502597Y-86648582D01*
X146489290Y-86642288D01*
X146476664Y-86634720D01*
X146464841Y-86625952D01*
X146453934Y-86616066D01*
X146444048Y-86605159D01*
X146435280Y-86593336D01*
X146427712Y-86580710D01*
X146421418Y-86567403D01*
X146416459Y-86553543D01*
X146412882Y-86539264D01*
X146410722Y-86524703D01*
X146410000Y-86510000D01*
X146410000Y-86210000D01*
X146410722Y-86195297D01*
X146412882Y-86180736D01*
X146416459Y-86166457D01*
X146421418Y-86152597D01*
X146427712Y-86139290D01*
X146435280Y-86126664D01*
X146444048Y-86114841D01*
X146453934Y-86103934D01*
X146464841Y-86094048D01*
X146476664Y-86085280D01*
X146489290Y-86077712D01*
X146502597Y-86071418D01*
X146516457Y-86066459D01*
X146530736Y-86062882D01*
X146545297Y-86060722D01*
X146560000Y-86060000D01*
X148210000Y-86060000D01*
X148224703Y-86060722D01*
G37*
G04 #@! TD.AperFunction*
G04 #@! TA.AperFunction,SMDPad,CuDef*
G36*
X153174703Y-86060722D02*
G01*
X153189264Y-86062882D01*
X153203543Y-86066459D01*
X153217403Y-86071418D01*
X153230710Y-86077712D01*
X153243336Y-86085280D01*
X153255159Y-86094048D01*
X153266066Y-86103934D01*
X153275952Y-86114841D01*
X153284720Y-86126664D01*
X153292288Y-86139290D01*
X153298582Y-86152597D01*
X153303541Y-86166457D01*
X153307118Y-86180736D01*
X153309278Y-86195297D01*
X153310000Y-86210000D01*
X153310000Y-86510000D01*
X153309278Y-86524703D01*
X153307118Y-86539264D01*
X153303541Y-86553543D01*
X153298582Y-86567403D01*
X153292288Y-86580710D01*
X153284720Y-86593336D01*
X153275952Y-86605159D01*
X153266066Y-86616066D01*
X153255159Y-86625952D01*
X153243336Y-86634720D01*
X153230710Y-86642288D01*
X153217403Y-86648582D01*
X153203543Y-86653541D01*
X153189264Y-86657118D01*
X153174703Y-86659278D01*
X153160000Y-86660000D01*
X151510000Y-86660000D01*
X151495297Y-86659278D01*
X151480736Y-86657118D01*
X151466457Y-86653541D01*
X151452597Y-86648582D01*
X151439290Y-86642288D01*
X151426664Y-86634720D01*
X151414841Y-86625952D01*
X151403934Y-86616066D01*
X151394048Y-86605159D01*
X151385280Y-86593336D01*
X151377712Y-86580710D01*
X151371418Y-86567403D01*
X151366459Y-86553543D01*
X151362882Y-86539264D01*
X151360722Y-86524703D01*
X151360000Y-86510000D01*
X151360000Y-86210000D01*
X151360722Y-86195297D01*
X151362882Y-86180736D01*
X151366459Y-86166457D01*
X151371418Y-86152597D01*
X151377712Y-86139290D01*
X151385280Y-86126664D01*
X151394048Y-86114841D01*
X151403934Y-86103934D01*
X151414841Y-86094048D01*
X151426664Y-86085280D01*
X151439290Y-86077712D01*
X151452597Y-86071418D01*
X151466457Y-86066459D01*
X151480736Y-86062882D01*
X151495297Y-86060722D01*
X151510000Y-86060000D01*
X153160000Y-86060000D01*
X153174703Y-86060722D01*
G37*
G04 #@! TD.AperFunction*
G04 #@! TA.AperFunction,SMDPad,CuDef*
G36*
X153174703Y-84790722D02*
G01*
X153189264Y-84792882D01*
X153203543Y-84796459D01*
X153217403Y-84801418D01*
X153230710Y-84807712D01*
X153243336Y-84815280D01*
X153255159Y-84824048D01*
X153266066Y-84833934D01*
X153275952Y-84844841D01*
X153284720Y-84856664D01*
X153292288Y-84869290D01*
X153298582Y-84882597D01*
X153303541Y-84896457D01*
X153307118Y-84910736D01*
X153309278Y-84925297D01*
X153310000Y-84940000D01*
X153310000Y-85240000D01*
X153309278Y-85254703D01*
X153307118Y-85269264D01*
X153303541Y-85283543D01*
X153298582Y-85297403D01*
X153292288Y-85310710D01*
X153284720Y-85323336D01*
X153275952Y-85335159D01*
X153266066Y-85346066D01*
X153255159Y-85355952D01*
X153243336Y-85364720D01*
X153230710Y-85372288D01*
X153217403Y-85378582D01*
X153203543Y-85383541D01*
X153189264Y-85387118D01*
X153174703Y-85389278D01*
X153160000Y-85390000D01*
X151510000Y-85390000D01*
X151495297Y-85389278D01*
X151480736Y-85387118D01*
X151466457Y-85383541D01*
X151452597Y-85378582D01*
X151439290Y-85372288D01*
X151426664Y-85364720D01*
X151414841Y-85355952D01*
X151403934Y-85346066D01*
X151394048Y-85335159D01*
X151385280Y-85323336D01*
X151377712Y-85310710D01*
X151371418Y-85297403D01*
X151366459Y-85283543D01*
X151362882Y-85269264D01*
X151360722Y-85254703D01*
X151360000Y-85240000D01*
X151360000Y-84940000D01*
X151360722Y-84925297D01*
X151362882Y-84910736D01*
X151366459Y-84896457D01*
X151371418Y-84882597D01*
X151377712Y-84869290D01*
X151385280Y-84856664D01*
X151394048Y-84844841D01*
X151403934Y-84833934D01*
X151414841Y-84824048D01*
X151426664Y-84815280D01*
X151439290Y-84807712D01*
X151452597Y-84801418D01*
X151466457Y-84796459D01*
X151480736Y-84792882D01*
X151495297Y-84790722D01*
X151510000Y-84790000D01*
X153160000Y-84790000D01*
X153174703Y-84790722D01*
G37*
G04 #@! TD.AperFunction*
G04 #@! TA.AperFunction,SMDPad,CuDef*
G36*
X153174703Y-83520722D02*
G01*
X153189264Y-83522882D01*
X153203543Y-83526459D01*
X153217403Y-83531418D01*
X153230710Y-83537712D01*
X153243336Y-83545280D01*
X153255159Y-83554048D01*
X153266066Y-83563934D01*
X153275952Y-83574841D01*
X153284720Y-83586664D01*
X153292288Y-83599290D01*
X153298582Y-83612597D01*
X153303541Y-83626457D01*
X153307118Y-83640736D01*
X153309278Y-83655297D01*
X153310000Y-83670000D01*
X153310000Y-83970000D01*
X153309278Y-83984703D01*
X153307118Y-83999264D01*
X153303541Y-84013543D01*
X153298582Y-84027403D01*
X153292288Y-84040710D01*
X153284720Y-84053336D01*
X153275952Y-84065159D01*
X153266066Y-84076066D01*
X153255159Y-84085952D01*
X153243336Y-84094720D01*
X153230710Y-84102288D01*
X153217403Y-84108582D01*
X153203543Y-84113541D01*
X153189264Y-84117118D01*
X153174703Y-84119278D01*
X153160000Y-84120000D01*
X151510000Y-84120000D01*
X151495297Y-84119278D01*
X151480736Y-84117118D01*
X151466457Y-84113541D01*
X151452597Y-84108582D01*
X151439290Y-84102288D01*
X151426664Y-84094720D01*
X151414841Y-84085952D01*
X151403934Y-84076066D01*
X151394048Y-84065159D01*
X151385280Y-84053336D01*
X151377712Y-84040710D01*
X151371418Y-84027403D01*
X151366459Y-84013543D01*
X151362882Y-83999264D01*
X151360722Y-83984703D01*
X151360000Y-83970000D01*
X151360000Y-83670000D01*
X151360722Y-83655297D01*
X151362882Y-83640736D01*
X151366459Y-83626457D01*
X151371418Y-83612597D01*
X151377712Y-83599290D01*
X151385280Y-83586664D01*
X151394048Y-83574841D01*
X151403934Y-83563934D01*
X151414841Y-83554048D01*
X151426664Y-83545280D01*
X151439290Y-83537712D01*
X151452597Y-83531418D01*
X151466457Y-83526459D01*
X151480736Y-83522882D01*
X151495297Y-83520722D01*
X151510000Y-83520000D01*
X153160000Y-83520000D01*
X153174703Y-83520722D01*
G37*
G04 #@! TD.AperFunction*
G04 #@! TA.AperFunction,SMDPad,CuDef*
G36*
X153174703Y-82250722D02*
G01*
X153189264Y-82252882D01*
X153203543Y-82256459D01*
X153217403Y-82261418D01*
X153230710Y-82267712D01*
X153243336Y-82275280D01*
X153255159Y-82284048D01*
X153266066Y-82293934D01*
X153275952Y-82304841D01*
X153284720Y-82316664D01*
X153292288Y-82329290D01*
X153298582Y-82342597D01*
X153303541Y-82356457D01*
X153307118Y-82370736D01*
X153309278Y-82385297D01*
X153310000Y-82400000D01*
X153310000Y-82700000D01*
X153309278Y-82714703D01*
X153307118Y-82729264D01*
X153303541Y-82743543D01*
X153298582Y-82757403D01*
X153292288Y-82770710D01*
X153284720Y-82783336D01*
X153275952Y-82795159D01*
X153266066Y-82806066D01*
X153255159Y-82815952D01*
X153243336Y-82824720D01*
X153230710Y-82832288D01*
X153217403Y-82838582D01*
X153203543Y-82843541D01*
X153189264Y-82847118D01*
X153174703Y-82849278D01*
X153160000Y-82850000D01*
X151510000Y-82850000D01*
X151495297Y-82849278D01*
X151480736Y-82847118D01*
X151466457Y-82843541D01*
X151452597Y-82838582D01*
X151439290Y-82832288D01*
X151426664Y-82824720D01*
X151414841Y-82815952D01*
X151403934Y-82806066D01*
X151394048Y-82795159D01*
X151385280Y-82783336D01*
X151377712Y-82770710D01*
X151371418Y-82757403D01*
X151366459Y-82743543D01*
X151362882Y-82729264D01*
X151360722Y-82714703D01*
X151360000Y-82700000D01*
X151360000Y-82400000D01*
X151360722Y-82385297D01*
X151362882Y-82370736D01*
X151366459Y-82356457D01*
X151371418Y-82342597D01*
X151377712Y-82329290D01*
X151385280Y-82316664D01*
X151394048Y-82304841D01*
X151403934Y-82293934D01*
X151414841Y-82284048D01*
X151426664Y-82275280D01*
X151439290Y-82267712D01*
X151452597Y-82261418D01*
X151466457Y-82256459D01*
X151480736Y-82252882D01*
X151495297Y-82250722D01*
X151510000Y-82250000D01*
X153160000Y-82250000D01*
X153174703Y-82250722D01*
G37*
G04 #@! TD.AperFunction*
G04 #@! TA.AperFunction,SMDPad,CuDef*
G36*
X153174703Y-80980722D02*
G01*
X153189264Y-80982882D01*
X153203543Y-80986459D01*
X153217403Y-80991418D01*
X153230710Y-80997712D01*
X153243336Y-81005280D01*
X153255159Y-81014048D01*
X153266066Y-81023934D01*
X153275952Y-81034841D01*
X153284720Y-81046664D01*
X153292288Y-81059290D01*
X153298582Y-81072597D01*
X153303541Y-81086457D01*
X153307118Y-81100736D01*
X153309278Y-81115297D01*
X153310000Y-81130000D01*
X153310000Y-81430000D01*
X153309278Y-81444703D01*
X153307118Y-81459264D01*
X153303541Y-81473543D01*
X153298582Y-81487403D01*
X153292288Y-81500710D01*
X153284720Y-81513336D01*
X153275952Y-81525159D01*
X153266066Y-81536066D01*
X153255159Y-81545952D01*
X153243336Y-81554720D01*
X153230710Y-81562288D01*
X153217403Y-81568582D01*
X153203543Y-81573541D01*
X153189264Y-81577118D01*
X153174703Y-81579278D01*
X153160000Y-81580000D01*
X151510000Y-81580000D01*
X151495297Y-81579278D01*
X151480736Y-81577118D01*
X151466457Y-81573541D01*
X151452597Y-81568582D01*
X151439290Y-81562288D01*
X151426664Y-81554720D01*
X151414841Y-81545952D01*
X151403934Y-81536066D01*
X151394048Y-81525159D01*
X151385280Y-81513336D01*
X151377712Y-81500710D01*
X151371418Y-81487403D01*
X151366459Y-81473543D01*
X151362882Y-81459264D01*
X151360722Y-81444703D01*
X151360000Y-81430000D01*
X151360000Y-81130000D01*
X151360722Y-81115297D01*
X151362882Y-81100736D01*
X151366459Y-81086457D01*
X151371418Y-81072597D01*
X151377712Y-81059290D01*
X151385280Y-81046664D01*
X151394048Y-81034841D01*
X151403934Y-81023934D01*
X151414841Y-81014048D01*
X151426664Y-81005280D01*
X151439290Y-80997712D01*
X151452597Y-80991418D01*
X151466457Y-80986459D01*
X151480736Y-80982882D01*
X151495297Y-80980722D01*
X151510000Y-80980000D01*
X153160000Y-80980000D01*
X153174703Y-80980722D01*
G37*
G04 #@! TD.AperFunction*
G04 #@! TA.AperFunction,SMDPad,CuDef*
G36*
X153174703Y-79710722D02*
G01*
X153189264Y-79712882D01*
X153203543Y-79716459D01*
X153217403Y-79721418D01*
X153230710Y-79727712D01*
X153243336Y-79735280D01*
X153255159Y-79744048D01*
X153266066Y-79753934D01*
X153275952Y-79764841D01*
X153284720Y-79776664D01*
X153292288Y-79789290D01*
X153298582Y-79802597D01*
X153303541Y-79816457D01*
X153307118Y-79830736D01*
X153309278Y-79845297D01*
X153310000Y-79860000D01*
X153310000Y-80160000D01*
X153309278Y-80174703D01*
X153307118Y-80189264D01*
X153303541Y-80203543D01*
X153298582Y-80217403D01*
X153292288Y-80230710D01*
X153284720Y-80243336D01*
X153275952Y-80255159D01*
X153266066Y-80266066D01*
X153255159Y-80275952D01*
X153243336Y-80284720D01*
X153230710Y-80292288D01*
X153217403Y-80298582D01*
X153203543Y-80303541D01*
X153189264Y-80307118D01*
X153174703Y-80309278D01*
X153160000Y-80310000D01*
X151510000Y-80310000D01*
X151495297Y-80309278D01*
X151480736Y-80307118D01*
X151466457Y-80303541D01*
X151452597Y-80298582D01*
X151439290Y-80292288D01*
X151426664Y-80284720D01*
X151414841Y-80275952D01*
X151403934Y-80266066D01*
X151394048Y-80255159D01*
X151385280Y-80243336D01*
X151377712Y-80230710D01*
X151371418Y-80217403D01*
X151366459Y-80203543D01*
X151362882Y-80189264D01*
X151360722Y-80174703D01*
X151360000Y-80160000D01*
X151360000Y-79860000D01*
X151360722Y-79845297D01*
X151362882Y-79830736D01*
X151366459Y-79816457D01*
X151371418Y-79802597D01*
X151377712Y-79789290D01*
X151385280Y-79776664D01*
X151394048Y-79764841D01*
X151403934Y-79753934D01*
X151414841Y-79744048D01*
X151426664Y-79735280D01*
X151439290Y-79727712D01*
X151452597Y-79721418D01*
X151466457Y-79716459D01*
X151480736Y-79712882D01*
X151495297Y-79710722D01*
X151510000Y-79710000D01*
X153160000Y-79710000D01*
X153174703Y-79710722D01*
G37*
G04 #@! TD.AperFunction*
G04 #@! TA.AperFunction,SMDPad,CuDef*
G36*
X153174703Y-78440722D02*
G01*
X153189264Y-78442882D01*
X153203543Y-78446459D01*
X153217403Y-78451418D01*
X153230710Y-78457712D01*
X153243336Y-78465280D01*
X153255159Y-78474048D01*
X153266066Y-78483934D01*
X153275952Y-78494841D01*
X153284720Y-78506664D01*
X153292288Y-78519290D01*
X153298582Y-78532597D01*
X153303541Y-78546457D01*
X153307118Y-78560736D01*
X153309278Y-78575297D01*
X153310000Y-78590000D01*
X153310000Y-78890000D01*
X153309278Y-78904703D01*
X153307118Y-78919264D01*
X153303541Y-78933543D01*
X153298582Y-78947403D01*
X153292288Y-78960710D01*
X153284720Y-78973336D01*
X153275952Y-78985159D01*
X153266066Y-78996066D01*
X153255159Y-79005952D01*
X153243336Y-79014720D01*
X153230710Y-79022288D01*
X153217403Y-79028582D01*
X153203543Y-79033541D01*
X153189264Y-79037118D01*
X153174703Y-79039278D01*
X153160000Y-79040000D01*
X151510000Y-79040000D01*
X151495297Y-79039278D01*
X151480736Y-79037118D01*
X151466457Y-79033541D01*
X151452597Y-79028582D01*
X151439290Y-79022288D01*
X151426664Y-79014720D01*
X151414841Y-79005952D01*
X151403934Y-78996066D01*
X151394048Y-78985159D01*
X151385280Y-78973336D01*
X151377712Y-78960710D01*
X151371418Y-78947403D01*
X151366459Y-78933543D01*
X151362882Y-78919264D01*
X151360722Y-78904703D01*
X151360000Y-78890000D01*
X151360000Y-78590000D01*
X151360722Y-78575297D01*
X151362882Y-78560736D01*
X151366459Y-78546457D01*
X151371418Y-78532597D01*
X151377712Y-78519290D01*
X151385280Y-78506664D01*
X151394048Y-78494841D01*
X151403934Y-78483934D01*
X151414841Y-78474048D01*
X151426664Y-78465280D01*
X151439290Y-78457712D01*
X151452597Y-78451418D01*
X151466457Y-78446459D01*
X151480736Y-78442882D01*
X151495297Y-78440722D01*
X151510000Y-78440000D01*
X153160000Y-78440000D01*
X153174703Y-78440722D01*
G37*
G04 #@! TD.AperFunction*
D11*
X124460000Y-75050000D03*
X124460000Y-77550000D03*
X124460000Y-80050000D03*
G04 #@! TA.AperFunction,ComponentPad*
D10*
G36*
X125209504Y-81701204D02*
G01*
X125233773Y-81704804D01*
X125257571Y-81710765D01*
X125280671Y-81719030D01*
X125302849Y-81729520D01*
X125323893Y-81742133D01*
X125343598Y-81756747D01*
X125361777Y-81773223D01*
X125378253Y-81791402D01*
X125392867Y-81811107D01*
X125405480Y-81832151D01*
X125415970Y-81854329D01*
X125424235Y-81877429D01*
X125430196Y-81901227D01*
X125433796Y-81925496D01*
X125435000Y-81950000D01*
X125435000Y-83150000D01*
X125433796Y-83174504D01*
X125430196Y-83198773D01*
X125424235Y-83222571D01*
X125415970Y-83245671D01*
X125405480Y-83267849D01*
X125392867Y-83288893D01*
X125378253Y-83308598D01*
X125361777Y-83326777D01*
X125343598Y-83343253D01*
X125323893Y-83357867D01*
X125302849Y-83370480D01*
X125280671Y-83380970D01*
X125257571Y-83389235D01*
X125233773Y-83395196D01*
X125209504Y-83398796D01*
X125185000Y-83400000D01*
X123735000Y-83400000D01*
X123710496Y-83398796D01*
X123686227Y-83395196D01*
X123662429Y-83389235D01*
X123639329Y-83380970D01*
X123617151Y-83370480D01*
X123596107Y-83357867D01*
X123576402Y-83343253D01*
X123558223Y-83326777D01*
X123541747Y-83308598D01*
X123527133Y-83288893D01*
X123514520Y-83267849D01*
X123504030Y-83245671D01*
X123495765Y-83222571D01*
X123489804Y-83198773D01*
X123486204Y-83174504D01*
X123485000Y-83150000D01*
X123485000Y-81950000D01*
X123486204Y-81925496D01*
X123489804Y-81901227D01*
X123495765Y-81877429D01*
X123504030Y-81854329D01*
X123514520Y-81832151D01*
X123527133Y-81811107D01*
X123541747Y-81791402D01*
X123558223Y-81773223D01*
X123576402Y-81756747D01*
X123596107Y-81742133D01*
X123617151Y-81729520D01*
X123639329Y-81719030D01*
X123662429Y-81710765D01*
X123686227Y-81704804D01*
X123710496Y-81701204D01*
X123735000Y-81700000D01*
X125185000Y-81700000D01*
X125209504Y-81701204D01*
G37*
G04 #@! TD.AperFunction*
D17*
X135890000Y-85090000D02*
X137160000Y-83820000D01*
X135890000Y-88900000D02*
X135890000Y-85090000D01*
X142240000Y-78740000D02*
X137160000Y-73660000D01*
X147385000Y-82550000D02*
X146050000Y-82550000D01*
X146050000Y-82550000D02*
X142240000Y-78740000D01*
X143510000Y-74930000D02*
X142240000Y-73660000D01*
X147385000Y-81280000D02*
X146050000Y-81280000D01*
X146050000Y-81280000D02*
X144780000Y-80010000D01*
X144780000Y-80010000D02*
X143510000Y-78740000D01*
X143510000Y-78740000D02*
X143510000Y-74930000D01*
X142240000Y-88900000D02*
X142240000Y-83820000D01*
X152335000Y-86360000D02*
X157415000Y-91440000D01*
X157415000Y-91440000D02*
X163830000Y-91440000D01*
X157520000Y-88940000D02*
X163830000Y-88940000D01*
X152335000Y-85090000D02*
X153670000Y-85090000D01*
X153670000Y-85090000D02*
X157520000Y-88940000D01*
X151090000Y-77495000D02*
X152335000Y-78740000D01*
X151090000Y-74930000D02*
X151090000Y-77495000D01*
X124460000Y-73900000D02*
X127240000Y-71120000D01*
X124460000Y-75050000D02*
X124460000Y-73900000D01*
X127240000Y-71120000D02*
X142240000Y-71120000D01*
X142240000Y-71120000D02*
X144780000Y-73660000D01*
X144780000Y-73660000D02*
X144780000Y-77470000D01*
X144780000Y-77470000D02*
X146050000Y-78740000D01*
X146050000Y-78740000D02*
X147385000Y-78740000D01*
X147385000Y-76135000D02*
X148590000Y-74930000D01*
X147385000Y-78740000D02*
X147385000Y-76135000D01*
X154940000Y-83820000D02*
X157480000Y-86360000D01*
X148590000Y-74930000D02*
X148590000Y-73660000D01*
X149860000Y-72390000D02*
X152400000Y-72390000D01*
X152400000Y-72390000D02*
X154940000Y-74930000D01*
X148590000Y-73660000D02*
X149860000Y-72390000D01*
X154940000Y-74930000D02*
X154940000Y-83820000D01*
X163750000Y-86360000D02*
X163830000Y-86440000D01*
X157480000Y-86360000D02*
X163750000Y-86360000D01*
X165105000Y-86440000D02*
X163830000Y-86440000D01*
X167640000Y-88975000D02*
X165105000Y-86440000D01*
X149900000Y-93685000D02*
X151465000Y-95250000D01*
X149900000Y-92710000D02*
X149900000Y-93685000D01*
X151465000Y-95250000D02*
X166370000Y-95250000D01*
X166370000Y-95250000D02*
X167640000Y-93980000D01*
X167640000Y-93980000D02*
X167640000Y-88975000D01*
X147385000Y-85090000D02*
X146050000Y-85090000D01*
X146050000Y-85090000D02*
X140970000Y-80010000D01*
X140930000Y-80050000D02*
X124460000Y-80050000D01*
X140970000Y-80010000D02*
X140930000Y-80050000D01*
X129540000Y-86360000D02*
X132080000Y-83820000D01*
X129540000Y-88900000D02*
X129540000Y-86360000D01*
X147385000Y-83820000D02*
X146050000Y-83820000D01*
X146050000Y-83820000D02*
X138430000Y-76200000D01*
X138430000Y-76200000D02*
X134620000Y-76200000D01*
X134620000Y-76200000D02*
X132080000Y-73660000D01*
X147385000Y-86360000D02*
X144845000Y-88900000D01*
X144845000Y-88900000D02*
X144845000Y-92645000D01*
X144845000Y-92645000D02*
X143510000Y-93980000D01*
X143510000Y-93980000D02*
X128270000Y-93980000D01*
X128270000Y-93980000D02*
X121920000Y-87630000D01*
X121920000Y-87630000D02*
X121920000Y-78740000D01*
X123110000Y-77550000D02*
X124460000Y-77550000D01*
X121920000Y-78740000D02*
X123110000Y-77550000D01*
X152400000Y-92710000D02*
X152400000Y-91440000D01*
X151130000Y-83820000D02*
X152335000Y-83820000D01*
X149987000Y-88773000D02*
X149860000Y-88900000D01*
X149987000Y-84963000D02*
X149987000Y-88773000D01*
X149987000Y-84963000D02*
X151130000Y-83820000D01*
X152400000Y-91440000D02*
X149860000Y-88900000D01*
M02*
