G04 #@! TF.GenerationSoftware,KiCad,Pcbnew,(5.1.5)-3*
G04 #@! TF.CreationDate,2021-02-26T20:31:09+11:00*
G04 #@! TF.ProjectId,US_Board2,55535f42-6f61-4726-9432-2e6b69636164,rev?*
G04 #@! TF.SameCoordinates,Original*
G04 #@! TF.FileFunction,Soldermask,Bot*
G04 #@! TF.FilePolarity,Negative*
%FSLAX46Y46*%
G04 Gerber Fmt 4.6, Leading zero omitted, Abs format (unit mm)*
G04 Created by KiCad (PCBNEW (5.1.5)-3) date 2021-02-26 20:31:09*
%MOMM*%
%LPD*%
G04 APERTURE LIST*
%ADD10C,0.100000*%
G04 APERTURE END LIST*
D10*
G36*
X130375256Y-98391298D02*
G01*
X130481579Y-98412447D01*
X130782042Y-98536903D01*
X131052451Y-98717585D01*
X131282415Y-98947549D01*
X131463097Y-99217958D01*
X131587553Y-99518421D01*
X131651000Y-99837391D01*
X131651000Y-100162609D01*
X131587553Y-100481579D01*
X131463097Y-100782042D01*
X131282415Y-101052451D01*
X131052451Y-101282415D01*
X130782042Y-101463097D01*
X130481579Y-101587553D01*
X130375256Y-101608702D01*
X130162611Y-101651000D01*
X129837389Y-101651000D01*
X129624744Y-101608702D01*
X129518421Y-101587553D01*
X129217958Y-101463097D01*
X128947549Y-101282415D01*
X128717585Y-101052451D01*
X128536903Y-100782042D01*
X128412447Y-100481579D01*
X128349000Y-100162609D01*
X128349000Y-99837391D01*
X128412447Y-99518421D01*
X128536903Y-99217958D01*
X128717585Y-98947549D01*
X128947549Y-98717585D01*
X129217958Y-98536903D01*
X129518421Y-98412447D01*
X129624744Y-98391298D01*
X129837389Y-98349000D01*
X130162611Y-98349000D01*
X130375256Y-98391298D01*
G37*
G36*
X148489890Y-94084017D02*
G01*
X148608364Y-94133091D01*
X148714988Y-94204335D01*
X148805665Y-94295012D01*
X148876909Y-94401636D01*
X148925983Y-94520110D01*
X148951000Y-94645882D01*
X148951000Y-94774118D01*
X148925983Y-94899890D01*
X148876909Y-95018364D01*
X148805665Y-95124988D01*
X148714988Y-95215665D01*
X148608364Y-95286909D01*
X148608363Y-95286910D01*
X148608362Y-95286910D01*
X148489890Y-95335983D01*
X148364119Y-95361000D01*
X148235881Y-95361000D01*
X148110110Y-95335983D01*
X147991638Y-95286910D01*
X147991637Y-95286910D01*
X147991636Y-95286909D01*
X147885012Y-95215665D01*
X147794335Y-95124988D01*
X147723091Y-95018364D01*
X147674017Y-94899890D01*
X147649000Y-94774118D01*
X147649000Y-94645882D01*
X147674017Y-94520110D01*
X147723091Y-94401636D01*
X147794335Y-94295012D01*
X147885012Y-94204335D01*
X147991636Y-94133091D01*
X148110110Y-94084017D01*
X148235881Y-94059000D01*
X148364119Y-94059000D01*
X148489890Y-94084017D01*
G37*
G36*
X155076626Y-91697037D02*
G01*
X155246465Y-91748557D01*
X155246467Y-91748558D01*
X155402989Y-91832221D01*
X155540186Y-91944814D01*
X155623448Y-92046271D01*
X155652778Y-92082009D01*
X155652779Y-92082011D01*
X155732765Y-92231652D01*
X155736443Y-92238534D01*
X155787963Y-92408373D01*
X155801000Y-92540742D01*
X155801000Y-92879257D01*
X155787963Y-93011626D01*
X155736443Y-93181466D01*
X155652778Y-93337991D01*
X155644265Y-93348364D01*
X155540186Y-93475186D01*
X155445250Y-93553097D01*
X155402991Y-93587778D01*
X155246466Y-93671443D01*
X155076627Y-93722963D01*
X154900000Y-93740359D01*
X154723374Y-93722963D01*
X154553535Y-93671443D01*
X154397010Y-93587778D01*
X154259815Y-93475185D01*
X154147222Y-93337991D01*
X154063557Y-93181466D01*
X154012037Y-93011627D01*
X153999000Y-92879258D01*
X153999000Y-92540743D01*
X154012037Y-92408374D01*
X154063557Y-92238535D01*
X154084903Y-92198600D01*
X154147221Y-92082011D01*
X154259814Y-91944814D01*
X154361271Y-91861552D01*
X154397009Y-91832222D01*
X154553534Y-91748557D01*
X154723373Y-91697037D01*
X154900000Y-91679641D01*
X155076626Y-91697037D01*
G37*
G36*
X152576626Y-91697037D02*
G01*
X152746465Y-91748557D01*
X152746467Y-91748558D01*
X152902989Y-91832221D01*
X153040186Y-91944814D01*
X153123448Y-92046271D01*
X153152778Y-92082009D01*
X153152779Y-92082011D01*
X153232765Y-92231652D01*
X153236443Y-92238534D01*
X153287963Y-92408373D01*
X153301000Y-92540742D01*
X153301000Y-92879257D01*
X153287963Y-93011626D01*
X153236443Y-93181466D01*
X153152778Y-93337991D01*
X153144265Y-93348364D01*
X153040186Y-93475186D01*
X152945250Y-93553097D01*
X152902991Y-93587778D01*
X152746466Y-93671443D01*
X152576627Y-93722963D01*
X152400000Y-93740359D01*
X152223374Y-93722963D01*
X152053535Y-93671443D01*
X151897010Y-93587778D01*
X151759815Y-93475185D01*
X151647222Y-93337991D01*
X151563557Y-93181466D01*
X151512037Y-93011627D01*
X151499000Y-92879258D01*
X151499000Y-92540743D01*
X151512037Y-92408374D01*
X151563557Y-92238535D01*
X151584903Y-92198600D01*
X151647221Y-92082011D01*
X151759814Y-91944814D01*
X151861271Y-91861552D01*
X151897009Y-91832222D01*
X152053534Y-91748557D01*
X152223373Y-91697037D01*
X152400000Y-91679641D01*
X152576626Y-91697037D01*
G37*
G36*
X150658600Y-91687989D02*
G01*
X150691652Y-91698015D01*
X150722103Y-91714292D01*
X150748799Y-91736201D01*
X150770708Y-91762897D01*
X150786985Y-91793348D01*
X150797011Y-91826400D01*
X150801000Y-91866903D01*
X150801000Y-93553097D01*
X150797011Y-93593600D01*
X150786985Y-93626652D01*
X150770708Y-93657103D01*
X150748799Y-93683799D01*
X150722103Y-93705708D01*
X150691652Y-93721985D01*
X150658600Y-93732011D01*
X150618097Y-93736000D01*
X149181903Y-93736000D01*
X149141400Y-93732011D01*
X149108348Y-93721985D01*
X149077897Y-93705708D01*
X149051201Y-93683799D01*
X149029292Y-93657103D01*
X149013015Y-93626652D01*
X149002989Y-93593600D01*
X148999000Y-93553097D01*
X148999000Y-91866903D01*
X149002989Y-91826400D01*
X149013015Y-91793348D01*
X149029292Y-91762897D01*
X149051201Y-91736201D01*
X149077897Y-91714292D01*
X149108348Y-91698015D01*
X149141400Y-91687989D01*
X149181903Y-91684000D01*
X150618097Y-91684000D01*
X150658600Y-91687989D01*
G37*
G36*
X165991515Y-92408373D02*
G01*
X166019890Y-92414017D01*
X166138364Y-92463091D01*
X166244988Y-92534335D01*
X166335665Y-92625012D01*
X166406909Y-92731636D01*
X166455983Y-92850110D01*
X166481000Y-92975882D01*
X166481000Y-93104118D01*
X166455983Y-93229890D01*
X166406909Y-93348364D01*
X166335665Y-93454988D01*
X166244988Y-93545665D01*
X166138364Y-93616909D01*
X166138363Y-93616910D01*
X166138362Y-93616910D01*
X166019890Y-93665983D01*
X165894119Y-93691000D01*
X165765881Y-93691000D01*
X165640110Y-93665983D01*
X165521638Y-93616910D01*
X165521637Y-93616910D01*
X165521636Y-93616909D01*
X165415012Y-93545665D01*
X165324335Y-93454988D01*
X165253091Y-93348364D01*
X165204017Y-93229890D01*
X165179000Y-93104118D01*
X165179000Y-92975882D01*
X165204017Y-92850110D01*
X165253091Y-92731636D01*
X165324335Y-92625012D01*
X165415012Y-92534335D01*
X165521636Y-92463091D01*
X165640110Y-92414017D01*
X165668485Y-92408373D01*
X165765881Y-92389000D01*
X165894119Y-92389000D01*
X165991515Y-92408373D01*
G37*
G36*
X143191000Y-92391000D02*
G01*
X141289000Y-92391000D01*
X141289000Y-90489000D01*
X143191000Y-90489000D01*
X143191000Y-92391000D01*
G37*
G36*
X136841000Y-92391000D02*
G01*
X134939000Y-92391000D01*
X134939000Y-90489000D01*
X136841000Y-90489000D01*
X136841000Y-92391000D01*
G37*
G36*
X130491000Y-92391000D02*
G01*
X128589000Y-92391000D01*
X128589000Y-90489000D01*
X130491000Y-90489000D01*
X130491000Y-92391000D01*
G37*
G36*
X164713600Y-90542989D02*
G01*
X164746652Y-90553015D01*
X164777103Y-90569292D01*
X164803799Y-90591201D01*
X164825708Y-90617897D01*
X164841985Y-90648348D01*
X164852011Y-90681400D01*
X164856000Y-90721903D01*
X164856000Y-92158097D01*
X164852011Y-92198600D01*
X164841985Y-92231652D01*
X164825708Y-92262103D01*
X164803799Y-92288799D01*
X164777103Y-92310708D01*
X164746652Y-92326985D01*
X164713600Y-92337011D01*
X164673097Y-92341000D01*
X162986903Y-92341000D01*
X162946400Y-92337011D01*
X162913348Y-92326985D01*
X162882897Y-92310708D01*
X162856201Y-92288799D01*
X162834292Y-92262103D01*
X162818015Y-92231652D01*
X162807989Y-92198600D01*
X162804000Y-92158097D01*
X162804000Y-90721903D01*
X162807989Y-90681400D01*
X162818015Y-90648348D01*
X162834292Y-90617897D01*
X162856201Y-90591201D01*
X162882897Y-90569292D01*
X162913348Y-90553015D01*
X162946400Y-90542989D01*
X162986903Y-90539000D01*
X164673097Y-90539000D01*
X164713600Y-90542989D01*
G37*
G36*
X142517395Y-87985546D02*
G01*
X142690466Y-88057234D01*
X142690467Y-88057235D01*
X142846227Y-88161310D01*
X142978690Y-88293773D01*
X142978691Y-88293775D01*
X143082766Y-88449534D01*
X143154454Y-88622605D01*
X143191000Y-88806333D01*
X143191000Y-88993667D01*
X143154454Y-89177395D01*
X143082766Y-89350466D01*
X143082765Y-89350467D01*
X142978690Y-89506227D01*
X142846227Y-89638690D01*
X142767818Y-89691081D01*
X142690466Y-89742766D01*
X142517395Y-89814454D01*
X142333667Y-89851000D01*
X142146333Y-89851000D01*
X141962605Y-89814454D01*
X141789534Y-89742766D01*
X141712182Y-89691081D01*
X141633773Y-89638690D01*
X141501310Y-89506227D01*
X141397235Y-89350467D01*
X141397234Y-89350466D01*
X141325546Y-89177395D01*
X141289000Y-88993667D01*
X141289000Y-88806333D01*
X141325546Y-88622605D01*
X141397234Y-88449534D01*
X141501309Y-88293775D01*
X141501310Y-88293773D01*
X141633773Y-88161310D01*
X141789533Y-88057235D01*
X141789534Y-88057234D01*
X141962605Y-87985546D01*
X142146333Y-87949000D01*
X142333667Y-87949000D01*
X142517395Y-87985546D01*
G37*
G36*
X129817395Y-87985546D02*
G01*
X129990466Y-88057234D01*
X129990467Y-88057235D01*
X130146227Y-88161310D01*
X130278690Y-88293773D01*
X130278691Y-88293775D01*
X130382766Y-88449534D01*
X130454454Y-88622605D01*
X130491000Y-88806333D01*
X130491000Y-88993667D01*
X130454454Y-89177395D01*
X130382766Y-89350466D01*
X130382765Y-89350467D01*
X130278690Y-89506227D01*
X130146227Y-89638690D01*
X130067818Y-89691081D01*
X129990466Y-89742766D01*
X129817395Y-89814454D01*
X129633667Y-89851000D01*
X129446333Y-89851000D01*
X129262605Y-89814454D01*
X129089534Y-89742766D01*
X129012182Y-89691081D01*
X128933773Y-89638690D01*
X128801310Y-89506227D01*
X128697235Y-89350467D01*
X128697234Y-89350466D01*
X128625546Y-89177395D01*
X128589000Y-88993667D01*
X128589000Y-88806333D01*
X128625546Y-88622605D01*
X128697234Y-88449534D01*
X128801309Y-88293775D01*
X128801310Y-88293773D01*
X128933773Y-88161310D01*
X129089533Y-88057235D01*
X129089534Y-88057234D01*
X129262605Y-87985546D01*
X129446333Y-87949000D01*
X129633667Y-87949000D01*
X129817395Y-87985546D01*
G37*
G36*
X136167395Y-87985546D02*
G01*
X136340466Y-88057234D01*
X136340467Y-88057235D01*
X136496227Y-88161310D01*
X136628690Y-88293773D01*
X136628691Y-88293775D01*
X136732766Y-88449534D01*
X136804454Y-88622605D01*
X136841000Y-88806333D01*
X136841000Y-88993667D01*
X136804454Y-89177395D01*
X136732766Y-89350466D01*
X136732765Y-89350467D01*
X136628690Y-89506227D01*
X136496227Y-89638690D01*
X136417818Y-89691081D01*
X136340466Y-89742766D01*
X136167395Y-89814454D01*
X135983667Y-89851000D01*
X135796333Y-89851000D01*
X135612605Y-89814454D01*
X135439534Y-89742766D01*
X135362182Y-89691081D01*
X135283773Y-89638690D01*
X135151310Y-89506227D01*
X135047235Y-89350467D01*
X135047234Y-89350466D01*
X134975546Y-89177395D01*
X134939000Y-88993667D01*
X134939000Y-88806333D01*
X134975546Y-88622605D01*
X135047234Y-88449534D01*
X135151309Y-88293775D01*
X135151310Y-88293773D01*
X135283773Y-88161310D01*
X135439533Y-88057235D01*
X135439534Y-88057234D01*
X135612605Y-87985546D01*
X135796333Y-87949000D01*
X135983667Y-87949000D01*
X136167395Y-87985546D01*
G37*
G36*
X164065443Y-88045519D02*
G01*
X164131627Y-88052037D01*
X164301466Y-88103557D01*
X164457991Y-88187222D01*
X164493729Y-88216552D01*
X164595186Y-88299814D01*
X164678448Y-88401271D01*
X164707778Y-88437009D01*
X164791443Y-88593534D01*
X164842963Y-88763373D01*
X164860359Y-88940000D01*
X164842963Y-89116627D01*
X164791443Y-89286466D01*
X164791442Y-89286468D01*
X164749611Y-89364728D01*
X164707778Y-89442991D01*
X164678448Y-89478729D01*
X164595186Y-89580186D01*
X164523896Y-89638691D01*
X164457991Y-89692778D01*
X164301466Y-89776443D01*
X164131627Y-89827963D01*
X164065443Y-89834481D01*
X163999260Y-89841000D01*
X163660740Y-89841000D01*
X163594557Y-89834481D01*
X163528373Y-89827963D01*
X163358534Y-89776443D01*
X163202009Y-89692778D01*
X163136104Y-89638691D01*
X163064814Y-89580186D01*
X162981552Y-89478729D01*
X162952222Y-89442991D01*
X162910389Y-89364728D01*
X162868558Y-89286468D01*
X162868557Y-89286466D01*
X162817037Y-89116627D01*
X162799641Y-88940000D01*
X162817037Y-88763373D01*
X162868557Y-88593534D01*
X162952222Y-88437009D01*
X162981552Y-88401271D01*
X163064814Y-88299814D01*
X163166271Y-88216552D01*
X163202009Y-88187222D01*
X163358534Y-88103557D01*
X163528373Y-88052037D01*
X163594557Y-88045519D01*
X163660740Y-88039000D01*
X163999260Y-88039000D01*
X164065443Y-88045519D01*
G37*
G36*
X164065443Y-85545519D02*
G01*
X164131627Y-85552037D01*
X164301466Y-85603557D01*
X164301468Y-85603558D01*
X164379729Y-85645390D01*
X164457991Y-85687222D01*
X164472324Y-85698985D01*
X164595186Y-85799814D01*
X164678448Y-85901271D01*
X164707778Y-85937009D01*
X164791443Y-86093534D01*
X164842963Y-86263373D01*
X164860359Y-86440000D01*
X164842963Y-86616627D01*
X164791443Y-86786466D01*
X164707778Y-86942991D01*
X164678448Y-86978729D01*
X164595186Y-87080186D01*
X164493729Y-87163448D01*
X164457991Y-87192778D01*
X164301466Y-87276443D01*
X164131627Y-87327963D01*
X164065442Y-87334482D01*
X163999260Y-87341000D01*
X163660740Y-87341000D01*
X163594558Y-87334482D01*
X163528373Y-87327963D01*
X163358534Y-87276443D01*
X163202009Y-87192778D01*
X163166271Y-87163448D01*
X163064814Y-87080186D01*
X162981552Y-86978729D01*
X162952222Y-86942991D01*
X162868557Y-86786466D01*
X162817037Y-86616627D01*
X162799641Y-86440000D01*
X162817037Y-86263373D01*
X162868557Y-86093534D01*
X162952222Y-85937009D01*
X162981552Y-85901271D01*
X163064814Y-85799814D01*
X163187676Y-85698985D01*
X163202009Y-85687222D01*
X163280271Y-85645390D01*
X163358532Y-85603558D01*
X163358534Y-85603557D01*
X163528373Y-85552037D01*
X163594557Y-85545519D01*
X163660740Y-85539000D01*
X163999260Y-85539000D01*
X164065443Y-85545519D01*
G37*
G36*
X157728228Y-85541703D02*
G01*
X157883100Y-85605853D01*
X158022481Y-85698985D01*
X158141015Y-85817519D01*
X158234147Y-85956900D01*
X158298297Y-86111772D01*
X158331000Y-86276184D01*
X158331000Y-86443816D01*
X158298297Y-86608228D01*
X158234147Y-86763100D01*
X158141015Y-86902481D01*
X158022481Y-87021015D01*
X157883100Y-87114147D01*
X157728228Y-87178297D01*
X157563816Y-87211000D01*
X157396184Y-87211000D01*
X157231772Y-87178297D01*
X157076900Y-87114147D01*
X156937519Y-87021015D01*
X156818985Y-86902481D01*
X156725853Y-86763100D01*
X156661703Y-86608228D01*
X156629000Y-86443816D01*
X156629000Y-86276184D01*
X156661703Y-86111772D01*
X156725853Y-85956900D01*
X156818985Y-85817519D01*
X156937519Y-85698985D01*
X157076900Y-85605853D01*
X157231772Y-85541703D01*
X157396184Y-85509000D01*
X157563816Y-85509000D01*
X157728228Y-85541703D01*
G37*
G36*
X164065443Y-83045519D02*
G01*
X164131627Y-83052037D01*
X164301466Y-83103557D01*
X164457991Y-83187222D01*
X164493729Y-83216552D01*
X164595186Y-83299814D01*
X164676420Y-83398799D01*
X164707778Y-83437009D01*
X164791443Y-83593534D01*
X164842963Y-83763373D01*
X164860359Y-83940000D01*
X164842963Y-84116627D01*
X164791443Y-84286466D01*
X164707778Y-84442991D01*
X164678448Y-84478729D01*
X164595186Y-84580186D01*
X164524376Y-84638297D01*
X164457991Y-84692778D01*
X164301466Y-84776443D01*
X164131627Y-84827963D01*
X164065442Y-84834482D01*
X163999260Y-84841000D01*
X163660740Y-84841000D01*
X163594558Y-84834482D01*
X163528373Y-84827963D01*
X163358534Y-84776443D01*
X163202009Y-84692778D01*
X163135624Y-84638297D01*
X163064814Y-84580186D01*
X162981552Y-84478729D01*
X162952222Y-84442991D01*
X162868557Y-84286466D01*
X162817037Y-84116627D01*
X162799641Y-83940000D01*
X162817037Y-83763373D01*
X162868557Y-83593534D01*
X162952222Y-83437009D01*
X162983580Y-83398799D01*
X163064814Y-83299814D01*
X163166271Y-83216552D01*
X163202009Y-83187222D01*
X163358534Y-83103557D01*
X163528373Y-83052037D01*
X163594557Y-83045519D01*
X163660740Y-83039000D01*
X163999260Y-83039000D01*
X164065443Y-83045519D01*
G37*
G36*
X126649890Y-83524017D02*
G01*
X126765178Y-83571771D01*
X126768364Y-83573091D01*
X126874988Y-83644335D01*
X126965665Y-83735012D01*
X126984617Y-83763375D01*
X127036910Y-83841638D01*
X127085983Y-83960110D01*
X127111000Y-84085881D01*
X127111000Y-84214119D01*
X127096609Y-84286468D01*
X127085983Y-84339890D01*
X127036909Y-84458364D01*
X126965665Y-84564988D01*
X126874988Y-84655665D01*
X126768364Y-84726909D01*
X126768363Y-84726910D01*
X126768362Y-84726910D01*
X126649890Y-84775983D01*
X126524119Y-84801000D01*
X126395881Y-84801000D01*
X126270110Y-84775983D01*
X126151638Y-84726910D01*
X126151637Y-84726910D01*
X126151636Y-84726909D01*
X126045012Y-84655665D01*
X125954335Y-84564988D01*
X125883091Y-84458364D01*
X125834017Y-84339890D01*
X125823391Y-84286468D01*
X125809000Y-84214119D01*
X125809000Y-84085881D01*
X125834017Y-83960110D01*
X125883090Y-83841638D01*
X125935384Y-83763375D01*
X125954335Y-83735012D01*
X126045012Y-83644335D01*
X126151636Y-83573091D01*
X126154823Y-83571771D01*
X126270110Y-83524017D01*
X126395881Y-83499000D01*
X126524119Y-83499000D01*
X126649890Y-83524017D01*
G37*
G36*
X137408228Y-83001703D02*
G01*
X137563100Y-83065853D01*
X137702481Y-83158985D01*
X137821015Y-83277519D01*
X137914147Y-83416900D01*
X137978297Y-83571772D01*
X138011000Y-83736184D01*
X138011000Y-83903816D01*
X137978297Y-84068228D01*
X137914147Y-84223100D01*
X137821015Y-84362481D01*
X137702481Y-84481015D01*
X137563100Y-84574147D01*
X137408228Y-84638297D01*
X137243816Y-84671000D01*
X137076184Y-84671000D01*
X136911772Y-84638297D01*
X136756900Y-84574147D01*
X136617519Y-84481015D01*
X136498985Y-84362481D01*
X136405853Y-84223100D01*
X136341703Y-84068228D01*
X136309000Y-83903816D01*
X136309000Y-83736184D01*
X136341703Y-83571772D01*
X136405853Y-83416900D01*
X136498985Y-83277519D01*
X136617519Y-83158985D01*
X136756900Y-83065853D01*
X136911772Y-83001703D01*
X137076184Y-82969000D01*
X137243816Y-82969000D01*
X137408228Y-83001703D01*
G37*
G36*
X132328228Y-83001703D02*
G01*
X132483100Y-83065853D01*
X132622481Y-83158985D01*
X132741015Y-83277519D01*
X132834147Y-83416900D01*
X132898297Y-83571772D01*
X132931000Y-83736184D01*
X132931000Y-83903816D01*
X132898297Y-84068228D01*
X132834147Y-84223100D01*
X132741015Y-84362481D01*
X132622481Y-84481015D01*
X132483100Y-84574147D01*
X132328228Y-84638297D01*
X132163816Y-84671000D01*
X131996184Y-84671000D01*
X131831772Y-84638297D01*
X131676900Y-84574147D01*
X131537519Y-84481015D01*
X131418985Y-84362481D01*
X131325853Y-84223100D01*
X131261703Y-84068228D01*
X131229000Y-83903816D01*
X131229000Y-83736184D01*
X131261703Y-83571772D01*
X131325853Y-83416900D01*
X131418985Y-83277519D01*
X131537519Y-83158985D01*
X131676900Y-83065853D01*
X131831772Y-83001703D01*
X131996184Y-82969000D01*
X132163816Y-82969000D01*
X132328228Y-83001703D01*
G37*
G36*
X142488228Y-83001703D02*
G01*
X142643100Y-83065853D01*
X142782481Y-83158985D01*
X142901015Y-83277519D01*
X142994147Y-83416900D01*
X143058297Y-83571772D01*
X143091000Y-83736184D01*
X143091000Y-83903816D01*
X143058297Y-84068228D01*
X142994147Y-84223100D01*
X142901015Y-84362481D01*
X142782481Y-84481015D01*
X142643100Y-84574147D01*
X142488228Y-84638297D01*
X142323816Y-84671000D01*
X142156184Y-84671000D01*
X141991772Y-84638297D01*
X141836900Y-84574147D01*
X141697519Y-84481015D01*
X141578985Y-84362481D01*
X141485853Y-84223100D01*
X141421703Y-84068228D01*
X141389000Y-83903816D01*
X141389000Y-83736184D01*
X141421703Y-83571772D01*
X141485853Y-83416900D01*
X141578985Y-83277519D01*
X141697519Y-83158985D01*
X141836900Y-83065853D01*
X141991772Y-83001703D01*
X142156184Y-82969000D01*
X142323816Y-82969000D01*
X142488228Y-83001703D01*
G37*
G36*
X125343600Y-81652989D02*
G01*
X125376652Y-81663015D01*
X125407103Y-81679292D01*
X125433799Y-81701201D01*
X125455708Y-81727897D01*
X125471985Y-81758348D01*
X125482011Y-81791400D01*
X125486000Y-81831903D01*
X125486000Y-83268097D01*
X125482011Y-83308600D01*
X125471985Y-83341652D01*
X125455708Y-83372103D01*
X125433799Y-83398799D01*
X125407103Y-83420708D01*
X125376652Y-83436985D01*
X125343600Y-83447011D01*
X125303097Y-83451000D01*
X123616903Y-83451000D01*
X123576400Y-83447011D01*
X123543348Y-83436985D01*
X123512897Y-83420708D01*
X123486201Y-83398799D01*
X123464292Y-83372103D01*
X123448015Y-83341652D01*
X123437989Y-83308600D01*
X123434000Y-83268097D01*
X123434000Y-81831903D01*
X123437989Y-81791400D01*
X123448015Y-81758348D01*
X123464292Y-81727897D01*
X123486201Y-81701201D01*
X123512897Y-81679292D01*
X123543348Y-81663015D01*
X123576400Y-81652989D01*
X123616903Y-81649000D01*
X125303097Y-81649000D01*
X125343600Y-81652989D01*
G37*
G36*
X157728228Y-80541703D02*
G01*
X157883100Y-80605853D01*
X158022481Y-80698985D01*
X158141015Y-80817519D01*
X158234147Y-80956900D01*
X158298297Y-81111772D01*
X158331000Y-81276184D01*
X158331000Y-81443816D01*
X158298297Y-81608228D01*
X158234147Y-81763100D01*
X158141015Y-81902481D01*
X158022481Y-82021015D01*
X157883100Y-82114147D01*
X157728228Y-82178297D01*
X157563816Y-82211000D01*
X157396184Y-82211000D01*
X157231772Y-82178297D01*
X157076900Y-82114147D01*
X156937519Y-82021015D01*
X156818985Y-81902481D01*
X156725853Y-81763100D01*
X156661703Y-81608228D01*
X156629000Y-81443816D01*
X156629000Y-81276184D01*
X156661703Y-81111772D01*
X156725853Y-80956900D01*
X156818985Y-80817519D01*
X156937519Y-80698985D01*
X157076900Y-80605853D01*
X157231772Y-80541703D01*
X157396184Y-80509000D01*
X157563816Y-80509000D01*
X157728228Y-80541703D01*
G37*
G36*
X124695442Y-79155518D02*
G01*
X124761627Y-79162037D01*
X124931466Y-79213557D01*
X125087991Y-79297222D01*
X125123729Y-79326552D01*
X125225186Y-79409814D01*
X125308448Y-79511271D01*
X125337778Y-79547009D01*
X125421443Y-79703534D01*
X125472963Y-79873373D01*
X125490359Y-80050000D01*
X125472963Y-80226627D01*
X125421443Y-80396466D01*
X125337778Y-80552991D01*
X125308448Y-80588729D01*
X125225186Y-80690186D01*
X125123729Y-80773448D01*
X125087991Y-80802778D01*
X124931466Y-80886443D01*
X124761627Y-80937963D01*
X124695442Y-80944482D01*
X124629260Y-80951000D01*
X124290740Y-80951000D01*
X124224558Y-80944482D01*
X124158373Y-80937963D01*
X123988534Y-80886443D01*
X123832009Y-80802778D01*
X123796271Y-80773448D01*
X123694814Y-80690186D01*
X123611552Y-80588729D01*
X123582222Y-80552991D01*
X123498557Y-80396466D01*
X123447037Y-80226627D01*
X123429641Y-80050000D01*
X123447037Y-79873373D01*
X123498557Y-79703534D01*
X123582222Y-79547009D01*
X123611552Y-79511271D01*
X123694814Y-79409814D01*
X123796271Y-79326552D01*
X123832009Y-79297222D01*
X123988534Y-79213557D01*
X124158373Y-79162037D01*
X124224558Y-79155518D01*
X124290740Y-79149000D01*
X124629260Y-79149000D01*
X124695442Y-79155518D01*
G37*
G36*
X124695443Y-76655519D02*
G01*
X124761627Y-76662037D01*
X124931466Y-76713557D01*
X125087991Y-76797222D01*
X125123729Y-76826552D01*
X125225186Y-76909814D01*
X125308448Y-77011271D01*
X125337778Y-77047009D01*
X125421443Y-77203534D01*
X125472963Y-77373373D01*
X125490359Y-77550000D01*
X125472963Y-77726627D01*
X125421443Y-77896466D01*
X125337778Y-78052991D01*
X125308448Y-78088729D01*
X125225186Y-78190186D01*
X125123729Y-78273448D01*
X125087991Y-78302778D01*
X124931466Y-78386443D01*
X124761627Y-78437963D01*
X124695443Y-78444481D01*
X124629260Y-78451000D01*
X124290740Y-78451000D01*
X124224557Y-78444481D01*
X124158373Y-78437963D01*
X123988534Y-78386443D01*
X123832009Y-78302778D01*
X123796271Y-78273448D01*
X123694814Y-78190186D01*
X123611552Y-78088729D01*
X123582222Y-78052991D01*
X123498557Y-77896466D01*
X123447037Y-77726627D01*
X123429641Y-77550000D01*
X123447037Y-77373373D01*
X123498557Y-77203534D01*
X123582222Y-77047009D01*
X123611552Y-77011271D01*
X123694814Y-76909814D01*
X123796271Y-76826552D01*
X123832009Y-76797222D01*
X123988534Y-76713557D01*
X124158373Y-76662037D01*
X124224557Y-76655519D01*
X124290740Y-76649000D01*
X124629260Y-76649000D01*
X124695443Y-76655519D01*
G37*
G36*
X160375256Y-73391298D02*
G01*
X160481579Y-73412447D01*
X160782042Y-73536903D01*
X161052451Y-73717585D01*
X161282415Y-73947549D01*
X161463097Y-74217958D01*
X161587553Y-74518421D01*
X161589240Y-74526903D01*
X161651000Y-74837389D01*
X161651000Y-75162611D01*
X161587553Y-75481578D01*
X161477076Y-75748295D01*
X161463097Y-75782042D01*
X161282415Y-76052451D01*
X161052451Y-76282415D01*
X160782042Y-76463097D01*
X160481579Y-76587553D01*
X160375256Y-76608702D01*
X160162611Y-76651000D01*
X159837389Y-76651000D01*
X159624744Y-76608702D01*
X159518421Y-76587553D01*
X159217958Y-76463097D01*
X158947549Y-76282415D01*
X158717585Y-76052451D01*
X158536903Y-75782042D01*
X158522925Y-75748295D01*
X158412447Y-75481578D01*
X158349000Y-75162611D01*
X158349000Y-74837389D01*
X158410760Y-74526903D01*
X158412447Y-74518421D01*
X158536903Y-74217958D01*
X158717585Y-73947549D01*
X158947549Y-73717585D01*
X159217958Y-73536903D01*
X159518421Y-73412447D01*
X159624744Y-73391298D01*
X159837389Y-73349000D01*
X160162611Y-73349000D01*
X160375256Y-73391298D01*
G37*
G36*
X124695442Y-74155518D02*
G01*
X124761627Y-74162037D01*
X124931466Y-74213557D01*
X125087991Y-74297222D01*
X125116983Y-74321015D01*
X125225186Y-74409814D01*
X125308226Y-74511000D01*
X125337778Y-74547009D01*
X125421443Y-74703534D01*
X125472963Y-74873373D01*
X125490359Y-75050000D01*
X125472963Y-75226627D01*
X125421443Y-75396466D01*
X125337778Y-75552991D01*
X125308448Y-75588729D01*
X125225186Y-75690186D01*
X125154376Y-75748297D01*
X125087991Y-75802778D01*
X124931466Y-75886443D01*
X124761627Y-75937963D01*
X124695442Y-75944482D01*
X124629260Y-75951000D01*
X124290740Y-75951000D01*
X124224558Y-75944482D01*
X124158373Y-75937963D01*
X123988534Y-75886443D01*
X123832009Y-75802778D01*
X123765624Y-75748297D01*
X123694814Y-75690186D01*
X123611552Y-75588729D01*
X123582222Y-75552991D01*
X123498557Y-75396466D01*
X123447037Y-75226627D01*
X123429641Y-75050000D01*
X123447037Y-74873373D01*
X123498557Y-74703534D01*
X123582222Y-74547009D01*
X123611774Y-74511000D01*
X123694814Y-74409814D01*
X123803017Y-74321015D01*
X123832009Y-74297222D01*
X123988534Y-74213557D01*
X124158373Y-74162037D01*
X124224558Y-74155518D01*
X124290740Y-74149000D01*
X124629260Y-74149000D01*
X124695442Y-74155518D01*
G37*
G36*
X148838228Y-74111703D02*
G01*
X148993100Y-74175853D01*
X149132481Y-74268985D01*
X149251015Y-74387519D01*
X149344147Y-74526900D01*
X149408297Y-74681772D01*
X149441000Y-74846184D01*
X149441000Y-75013816D01*
X149408297Y-75178228D01*
X149344147Y-75333100D01*
X149251015Y-75472481D01*
X149132481Y-75591015D01*
X148993100Y-75684147D01*
X148838228Y-75748297D01*
X148673816Y-75781000D01*
X148506184Y-75781000D01*
X148341772Y-75748297D01*
X148186900Y-75684147D01*
X148047519Y-75591015D01*
X147928985Y-75472481D01*
X147835853Y-75333100D01*
X147771703Y-75178228D01*
X147739000Y-75013816D01*
X147739000Y-74846184D01*
X147771703Y-74681772D01*
X147835853Y-74526900D01*
X147928985Y-74387519D01*
X148047519Y-74268985D01*
X148186900Y-74175853D01*
X148341772Y-74111703D01*
X148506184Y-74079000D01*
X148673816Y-74079000D01*
X148838228Y-74111703D01*
G37*
G36*
X151338228Y-74111703D02*
G01*
X151493100Y-74175853D01*
X151632481Y-74268985D01*
X151751015Y-74387519D01*
X151844147Y-74526900D01*
X151908297Y-74681772D01*
X151941000Y-74846184D01*
X151941000Y-75013816D01*
X151908297Y-75178228D01*
X151844147Y-75333100D01*
X151751015Y-75472481D01*
X151632481Y-75591015D01*
X151493100Y-75684147D01*
X151338228Y-75748297D01*
X151173816Y-75781000D01*
X151006184Y-75781000D01*
X150841772Y-75748297D01*
X150686900Y-75684147D01*
X150547519Y-75591015D01*
X150428985Y-75472481D01*
X150335853Y-75333100D01*
X150271703Y-75178228D01*
X150239000Y-75013816D01*
X150239000Y-74846184D01*
X150271703Y-74681772D01*
X150335853Y-74526900D01*
X150428985Y-74387519D01*
X150547519Y-74268985D01*
X150686900Y-74175853D01*
X150841772Y-74111703D01*
X151006184Y-74079000D01*
X151173816Y-74079000D01*
X151338228Y-74111703D01*
G37*
G36*
X142488228Y-72841703D02*
G01*
X142643100Y-72905853D01*
X142782481Y-72998985D01*
X142901015Y-73117519D01*
X142994147Y-73256900D01*
X143058297Y-73411772D01*
X143091000Y-73576184D01*
X143091000Y-73743816D01*
X143058297Y-73908228D01*
X142994147Y-74063100D01*
X142901015Y-74202481D01*
X142782481Y-74321015D01*
X142643100Y-74414147D01*
X142488228Y-74478297D01*
X142323816Y-74511000D01*
X142156184Y-74511000D01*
X141991772Y-74478297D01*
X141836900Y-74414147D01*
X141697519Y-74321015D01*
X141578985Y-74202481D01*
X141485853Y-74063100D01*
X141421703Y-73908228D01*
X141389000Y-73743816D01*
X141389000Y-73576184D01*
X141421703Y-73411772D01*
X141485853Y-73256900D01*
X141578985Y-73117519D01*
X141697519Y-72998985D01*
X141836900Y-72905853D01*
X141991772Y-72841703D01*
X142156184Y-72809000D01*
X142323816Y-72809000D01*
X142488228Y-72841703D01*
G37*
G36*
X137408228Y-72841703D02*
G01*
X137563100Y-72905853D01*
X137702481Y-72998985D01*
X137821015Y-73117519D01*
X137914147Y-73256900D01*
X137978297Y-73411772D01*
X138011000Y-73576184D01*
X138011000Y-73743816D01*
X137978297Y-73908228D01*
X137914147Y-74063100D01*
X137821015Y-74202481D01*
X137702481Y-74321015D01*
X137563100Y-74414147D01*
X137408228Y-74478297D01*
X137243816Y-74511000D01*
X137076184Y-74511000D01*
X136911772Y-74478297D01*
X136756900Y-74414147D01*
X136617519Y-74321015D01*
X136498985Y-74202481D01*
X136405853Y-74063100D01*
X136341703Y-73908228D01*
X136309000Y-73743816D01*
X136309000Y-73576184D01*
X136341703Y-73411772D01*
X136405853Y-73256900D01*
X136498985Y-73117519D01*
X136617519Y-72998985D01*
X136756900Y-72905853D01*
X136911772Y-72841703D01*
X137076184Y-72809000D01*
X137243816Y-72809000D01*
X137408228Y-72841703D01*
G37*
G36*
X132328228Y-72841703D02*
G01*
X132483100Y-72905853D01*
X132622481Y-72998985D01*
X132741015Y-73117519D01*
X132834147Y-73256900D01*
X132898297Y-73411772D01*
X132931000Y-73576184D01*
X132931000Y-73743816D01*
X132898297Y-73908228D01*
X132834147Y-74063100D01*
X132741015Y-74202481D01*
X132622481Y-74321015D01*
X132483100Y-74414147D01*
X132328228Y-74478297D01*
X132163816Y-74511000D01*
X131996184Y-74511000D01*
X131831772Y-74478297D01*
X131676900Y-74414147D01*
X131537519Y-74321015D01*
X131418985Y-74202481D01*
X131325853Y-74063100D01*
X131261703Y-73908228D01*
X131229000Y-73743816D01*
X131229000Y-73576184D01*
X131261703Y-73411772D01*
X131325853Y-73256900D01*
X131418985Y-73117519D01*
X131537519Y-72998985D01*
X131676900Y-72905853D01*
X131831772Y-72841703D01*
X131996184Y-72809000D01*
X132163816Y-72809000D01*
X132328228Y-72841703D01*
G37*
M02*
