M48
; DRILL file {KiCad (5.1.5)-3} date 26/02/2021 8:30:56 PM
; FORMAT={-:-/ absolute / metric / decimal}
; #@! TF.CreationDate,2021-02-26T20:30:56+11:00
; #@! TF.GenerationSoftware,Kicad,Pcbnew,(5.1.5)-3
; #@! TF.FileFunction,Plated,1,2,PTH
FMAT,2
METRIC
T1C0.800
T2C0.900
T3C0.950
%
G90
G05
T1
X148.59Y-74.93
X151.09Y-74.93
X157.48Y-81.36
X157.48Y-86.36
X142.24Y-73.66
X142.24Y-83.82
X132.08Y-73.66
X132.08Y-83.82
X137.16Y-73.66
X137.16Y-83.82
T2
X142.24Y-88.9
X142.24Y-91.44
X129.54Y-88.9
X129.54Y-91.44
X135.89Y-88.9
X135.89Y-91.44
T3
X124.46Y-75.05
X124.46Y-77.55
X124.46Y-80.05
X124.46Y-82.55
X149.9Y-92.71
X152.4Y-92.71
X154.9Y-92.71
X163.83Y-83.94
X163.83Y-86.44
X163.83Y-88.94
X163.83Y-91.44
T0
M30
