G04 #@! TF.GenerationSoftware,KiCad,Pcbnew,(5.1.5)-3*
G04 #@! TF.CreationDate,2021-02-26T20:31:09+11:00*
G04 #@! TF.ProjectId,US_Board2,55535f42-6f61-4726-9432-2e6b69636164,rev?*
G04 #@! TF.SameCoordinates,Original*
G04 #@! TF.FileFunction,Legend,Top*
G04 #@! TF.FilePolarity,Positive*
%FSLAX46Y46*%
G04 Gerber Fmt 4.6, Leading zero omitted, Abs format (unit mm)*
G04 Created by KiCad (PCBNEW (5.1.5)-3) date 2021-02-26 20:31:09*
%MOMM*%
%LPD*%
G04 APERTURE LIST*
%ADD10C,0.150000*%
%ADD11C,0.250000*%
%ADD12C,0.120000*%
%ADD13C,0.010000*%
G04 APERTURE END LIST*
D10*
X128817714Y-79938571D02*
X129151047Y-79938571D01*
X129293904Y-80462380D02*
X128817714Y-80462380D01*
X128817714Y-79462380D01*
X129293904Y-79462380D01*
X128746285Y-76922380D02*
X129317714Y-76922380D01*
X129032000Y-77922380D02*
X129032000Y-76922380D01*
X129270095Y-74382380D02*
X128793904Y-74382380D01*
X128746285Y-74858571D01*
X128793904Y-74810952D01*
X128889142Y-74763333D01*
X129127238Y-74763333D01*
X129222476Y-74810952D01*
X129270095Y-74858571D01*
X129317714Y-74953809D01*
X129317714Y-75191904D01*
X129270095Y-75287142D01*
X129222476Y-75334761D01*
X129127238Y-75382380D01*
X128889142Y-75382380D01*
X128793904Y-75334761D01*
X128746285Y-75287142D01*
X129293904Y-82050000D02*
X129198666Y-82002380D01*
X129055809Y-82002380D01*
X128912952Y-82050000D01*
X128817714Y-82145238D01*
X128770095Y-82240476D01*
X128722476Y-82430952D01*
X128722476Y-82573809D01*
X128770095Y-82764285D01*
X128817714Y-82859523D01*
X128912952Y-82954761D01*
X129055809Y-83002380D01*
X129151047Y-83002380D01*
X129293904Y-82954761D01*
X129341523Y-82907142D01*
X129341523Y-82573809D01*
X129151047Y-82573809D01*
X168140095Y-91892380D02*
X168140095Y-90892380D01*
X168378190Y-90892380D01*
X168521047Y-90940000D01*
X168616285Y-91035238D01*
X168663904Y-91130476D01*
X168711523Y-91320952D01*
X168711523Y-91463809D01*
X168663904Y-91654285D01*
X168616285Y-91749523D01*
X168521047Y-91844761D01*
X168378190Y-91892380D01*
X168140095Y-91892380D01*
X168711523Y-89257142D02*
X168663904Y-89304761D01*
X168521047Y-89352380D01*
X168425809Y-89352380D01*
X168282952Y-89304761D01*
X168187714Y-89209523D01*
X168140095Y-89114285D01*
X168092476Y-88923809D01*
X168092476Y-88780952D01*
X168140095Y-88590476D01*
X168187714Y-88495238D01*
X168282952Y-88400000D01*
X168425809Y-88352380D01*
X168521047Y-88352380D01*
X168663904Y-88400000D01*
X168711523Y-88447619D01*
X168640095Y-85812380D02*
X168163904Y-85812380D01*
X168116285Y-86288571D01*
X168163904Y-86240952D01*
X168259142Y-86193333D01*
X168497238Y-86193333D01*
X168592476Y-86240952D01*
X168640095Y-86288571D01*
X168687714Y-86383809D01*
X168687714Y-86621904D01*
X168640095Y-86717142D01*
X168592476Y-86764761D01*
X168497238Y-86812380D01*
X168259142Y-86812380D01*
X168163904Y-86764761D01*
X168116285Y-86717142D01*
X168663904Y-83320000D02*
X168568666Y-83272380D01*
X168425809Y-83272380D01*
X168282952Y-83320000D01*
X168187714Y-83415238D01*
X168140095Y-83510476D01*
X168092476Y-83700952D01*
X168092476Y-83843809D01*
X168140095Y-84034285D01*
X168187714Y-84129523D01*
X168282952Y-84224761D01*
X168425809Y-84272380D01*
X168521047Y-84272380D01*
X168663904Y-84224761D01*
X168711523Y-84177142D01*
X168711523Y-83843809D01*
X168521047Y-83843809D01*
D11*
X122243571Y-101130952D02*
X122243571Y-101464285D01*
X122767380Y-101464285D02*
X121767380Y-101464285D01*
X121767380Y-100988095D01*
X122767380Y-100035714D02*
X122291190Y-100369047D01*
X122767380Y-100607142D02*
X121767380Y-100607142D01*
X121767380Y-100226190D01*
X121815000Y-100130952D01*
X121862619Y-100083333D01*
X121957857Y-100035714D01*
X122100714Y-100035714D01*
X122195952Y-100083333D01*
X122243571Y-100130952D01*
X122291190Y-100226190D01*
X122291190Y-100607142D01*
X122672142Y-99035714D02*
X122719761Y-99083333D01*
X122767380Y-99226190D01*
X122767380Y-99321428D01*
X122719761Y-99464285D01*
X122624523Y-99559523D01*
X122529285Y-99607142D01*
X122338809Y-99654761D01*
X122195952Y-99654761D01*
X122005476Y-99607142D01*
X121910238Y-99559523D01*
X121815000Y-99464285D01*
X121767380Y-99321428D01*
X121767380Y-99226190D01*
X121815000Y-99083333D01*
X121862619Y-99035714D01*
X121767380Y-98130952D02*
X121767380Y-98607142D01*
X122243571Y-98654761D01*
X122195952Y-98607142D01*
X122148333Y-98511904D01*
X122148333Y-98273809D01*
X122195952Y-98178571D01*
X122243571Y-98130952D01*
X122338809Y-98083333D01*
X122576904Y-98083333D01*
X122672142Y-98130952D01*
X122719761Y-98178571D01*
X122767380Y-98273809D01*
X122767380Y-98511904D01*
X122719761Y-98607142D01*
X122672142Y-98654761D01*
X122767380Y-97607142D02*
X122767380Y-97416666D01*
X122719761Y-97321428D01*
X122672142Y-97273809D01*
X122529285Y-97178571D01*
X122338809Y-97130952D01*
X121957857Y-97130952D01*
X121862619Y-97178571D01*
X121815000Y-97226190D01*
X121767380Y-97321428D01*
X121767380Y-97511904D01*
X121815000Y-97607142D01*
X121862619Y-97654761D01*
X121957857Y-97702380D01*
X122195952Y-97702380D01*
X122291190Y-97654761D01*
X122338809Y-97607142D01*
X122386428Y-97511904D01*
X122386428Y-97321428D01*
X122338809Y-97226190D01*
X122291190Y-97178571D01*
X122195952Y-97130952D01*
X122195952Y-96559523D02*
X122148333Y-96654761D01*
X122100714Y-96702380D01*
X122005476Y-96750000D01*
X121957857Y-96750000D01*
X121862619Y-96702380D01*
X121815000Y-96654761D01*
X121767380Y-96559523D01*
X121767380Y-96369047D01*
X121815000Y-96273809D01*
X121862619Y-96226190D01*
X121957857Y-96178571D01*
X122005476Y-96178571D01*
X122100714Y-96226190D01*
X122148333Y-96273809D01*
X122195952Y-96369047D01*
X122195952Y-96559523D01*
X122243571Y-96654761D01*
X122291190Y-96702380D01*
X122386428Y-96750000D01*
X122576904Y-96750000D01*
X122672142Y-96702380D01*
X122719761Y-96654761D01*
X122767380Y-96559523D01*
X122767380Y-96369047D01*
X122719761Y-96273809D01*
X122672142Y-96226190D01*
X122576904Y-96178571D01*
X122386428Y-96178571D01*
X122291190Y-96226190D01*
X122243571Y-96273809D01*
X122195952Y-96369047D01*
X121767380Y-95273809D02*
X121767380Y-95750000D01*
X122243571Y-95797619D01*
X122195952Y-95750000D01*
X122148333Y-95654761D01*
X122148333Y-95416666D01*
X122195952Y-95321428D01*
X122243571Y-95273809D01*
X122338809Y-95226190D01*
X122576904Y-95226190D01*
X122672142Y-95273809D01*
X122719761Y-95321428D01*
X122767380Y-95416666D01*
X122767380Y-95654761D01*
X122719761Y-95750000D01*
X122672142Y-95797619D01*
X121767380Y-94178571D02*
X122767380Y-93845238D01*
X121767380Y-93511904D01*
X122719761Y-92797619D02*
X122767380Y-92892857D01*
X122767380Y-93083333D01*
X122719761Y-93178571D01*
X122624523Y-93226190D01*
X122243571Y-93226190D01*
X122148333Y-93178571D01*
X122100714Y-93083333D01*
X122100714Y-92892857D01*
X122148333Y-92797619D01*
X122243571Y-92750000D01*
X122338809Y-92750000D01*
X122434047Y-93226190D01*
X122767380Y-92321428D02*
X122100714Y-92321428D01*
X122291190Y-92321428D02*
X122195952Y-92273809D01*
X122148333Y-92226190D01*
X122100714Y-92130952D01*
X122100714Y-92035714D01*
X121862619Y-90988095D02*
X121815000Y-90940476D01*
X121767380Y-90845238D01*
X121767380Y-90607142D01*
X121815000Y-90511904D01*
X121862619Y-90464285D01*
X121957857Y-90416666D01*
X122053095Y-90416666D01*
X122195952Y-90464285D01*
X122767380Y-91035714D01*
X122767380Y-90416666D01*
X122672142Y-89988095D02*
X122719761Y-89940476D01*
X122767380Y-89988095D01*
X122719761Y-90035714D01*
X122672142Y-89988095D01*
X122767380Y-89988095D01*
X121767380Y-89321428D02*
X121767380Y-89226190D01*
X121815000Y-89130952D01*
X121862619Y-89083333D01*
X121957857Y-89035714D01*
X122148333Y-88988095D01*
X122386428Y-88988095D01*
X122576904Y-89035714D01*
X122672142Y-89083333D01*
X122719761Y-89130952D01*
X122767380Y-89226190D01*
X122767380Y-89321428D01*
X122719761Y-89416666D01*
X122672142Y-89464285D01*
X122576904Y-89511904D01*
X122386428Y-89559523D01*
X122148333Y-89559523D01*
X121957857Y-89511904D01*
X121862619Y-89464285D01*
X121815000Y-89416666D01*
X121767380Y-89321428D01*
X124517380Y-101535714D02*
X123517380Y-101535714D01*
X123612619Y-101107142D02*
X123565000Y-101059523D01*
X123517380Y-100964285D01*
X123517380Y-100726190D01*
X123565000Y-100630952D01*
X123612619Y-100583333D01*
X123707857Y-100535714D01*
X123803095Y-100535714D01*
X123945952Y-100583333D01*
X124517380Y-101154761D01*
X124517380Y-100535714D01*
X124422142Y-99535714D02*
X124469761Y-99583333D01*
X124517380Y-99726190D01*
X124517380Y-99821428D01*
X124469761Y-99964285D01*
X124374523Y-100059523D01*
X124279285Y-100107142D01*
X124088809Y-100154761D01*
X123945952Y-100154761D01*
X123755476Y-100107142D01*
X123660238Y-100059523D01*
X123565000Y-99964285D01*
X123517380Y-99821428D01*
X123517380Y-99726190D01*
X123565000Y-99583333D01*
X123612619Y-99535714D01*
X123850714Y-98488095D02*
X123850714Y-98107142D01*
X123517380Y-98345238D02*
X124374523Y-98345238D01*
X124469761Y-98297619D01*
X124517380Y-98202380D01*
X124517380Y-98107142D01*
X124517380Y-97630952D02*
X124469761Y-97726190D01*
X124422142Y-97773809D01*
X124326904Y-97821428D01*
X124041190Y-97821428D01*
X123945952Y-97773809D01*
X123898333Y-97726190D01*
X123850714Y-97630952D01*
X123850714Y-97488095D01*
X123898333Y-97392857D01*
X123945952Y-97345238D01*
X124041190Y-97297619D01*
X124326904Y-97297619D01*
X124422142Y-97345238D01*
X124469761Y-97392857D01*
X124517380Y-97488095D01*
X124517380Y-97630952D01*
X123517380Y-96107142D02*
X124326904Y-96107142D01*
X124422142Y-96059523D01*
X124469761Y-96011904D01*
X124517380Y-95916666D01*
X124517380Y-95726190D01*
X124469761Y-95630952D01*
X124422142Y-95583333D01*
X124326904Y-95535714D01*
X123517380Y-95535714D01*
X124517380Y-94916666D02*
X124469761Y-95011904D01*
X124374523Y-95059523D01*
X123517380Y-95059523D01*
X123850714Y-94678571D02*
X123850714Y-94297619D01*
X123517380Y-94535714D02*
X124374523Y-94535714D01*
X124469761Y-94488095D01*
X124517380Y-94392857D01*
X124517380Y-94297619D01*
X124517380Y-93964285D02*
X123850714Y-93964285D01*
X124041190Y-93964285D02*
X123945952Y-93916666D01*
X123898333Y-93869047D01*
X123850714Y-93773809D01*
X123850714Y-93678571D01*
X124517380Y-92916666D02*
X123993571Y-92916666D01*
X123898333Y-92964285D01*
X123850714Y-93059523D01*
X123850714Y-93250000D01*
X123898333Y-93345238D01*
X124469761Y-92916666D02*
X124517380Y-93011904D01*
X124517380Y-93250000D01*
X124469761Y-93345238D01*
X124374523Y-93392857D01*
X124279285Y-93392857D01*
X124184047Y-93345238D01*
X124136428Y-93250000D01*
X124136428Y-93011904D01*
X124088809Y-92916666D01*
X124469761Y-92488095D02*
X124517380Y-92392857D01*
X124517380Y-92202380D01*
X124469761Y-92107142D01*
X124374523Y-92059523D01*
X124326904Y-92059523D01*
X124231666Y-92107142D01*
X124184047Y-92202380D01*
X124184047Y-92345238D01*
X124136428Y-92440476D01*
X124041190Y-92488095D01*
X123993571Y-92488095D01*
X123898333Y-92440476D01*
X123850714Y-92345238D01*
X123850714Y-92202380D01*
X123898333Y-92107142D01*
X124517380Y-91488095D02*
X124469761Y-91583333D01*
X124422142Y-91630952D01*
X124326904Y-91678571D01*
X124041190Y-91678571D01*
X123945952Y-91630952D01*
X123898333Y-91583333D01*
X123850714Y-91488095D01*
X123850714Y-91345238D01*
X123898333Y-91250000D01*
X123945952Y-91202380D01*
X124041190Y-91154761D01*
X124326904Y-91154761D01*
X124422142Y-91202380D01*
X124469761Y-91250000D01*
X124517380Y-91345238D01*
X124517380Y-91488095D01*
X123850714Y-90726190D02*
X124517380Y-90726190D01*
X123945952Y-90726190D02*
X123898333Y-90678571D01*
X123850714Y-90583333D01*
X123850714Y-90440476D01*
X123898333Y-90345238D01*
X123993571Y-90297619D01*
X124517380Y-90297619D01*
X124517380Y-89821428D02*
X123850714Y-89821428D01*
X123517380Y-89821428D02*
X123565000Y-89869047D01*
X123612619Y-89821428D01*
X123565000Y-89773809D01*
X123517380Y-89821428D01*
X123612619Y-89821428D01*
X124469761Y-88916666D02*
X124517380Y-89011904D01*
X124517380Y-89202380D01*
X124469761Y-89297619D01*
X124422142Y-89345238D01*
X124326904Y-89392857D01*
X124041190Y-89392857D01*
X123945952Y-89345238D01*
X123898333Y-89297619D01*
X123850714Y-89202380D01*
X123850714Y-89011904D01*
X123898333Y-88916666D01*
D12*
X161370000Y-94000000D02*
X167340000Y-94000000D01*
X167340000Y-94000000D02*
X167340000Y-81380000D01*
X167340000Y-81380000D02*
X161370000Y-81380000D01*
X161370000Y-81380000D02*
X161370000Y-94000000D01*
X161380000Y-90690000D02*
X162130000Y-90690000D01*
X162130000Y-90690000D02*
X162130000Y-84690000D01*
X162130000Y-84690000D02*
X161380000Y-84690000D01*
X161380000Y-84690000D02*
X161380000Y-90690000D01*
X161380000Y-93990000D02*
X162130000Y-93990000D01*
X162130000Y-93990000D02*
X162130000Y-92190000D01*
X162130000Y-92190000D02*
X161380000Y-92190000D01*
X161380000Y-92190000D02*
X161380000Y-93990000D01*
X161380000Y-83190000D02*
X162130000Y-83190000D01*
X162130000Y-83190000D02*
X162130000Y-81390000D01*
X162130000Y-81390000D02*
X161380000Y-81390000D01*
X161380000Y-81390000D02*
X161380000Y-83190000D01*
X163630000Y-93990000D02*
X163630000Y-93240000D01*
X163630000Y-93240000D02*
X164970000Y-93240000D01*
X166580000Y-87690000D02*
X166580000Y-92180000D01*
X163630000Y-81390000D02*
X163630000Y-82140000D01*
X163630000Y-82140000D02*
X166580000Y-82140000D01*
X166580000Y-82140000D02*
X166580000Y-87690000D01*
X161080000Y-93040000D02*
X161080000Y-94290000D01*
X161080000Y-94290000D02*
X162330000Y-94290000D01*
D13*
G36*
X141788391Y-96444383D02*
G01*
X141810062Y-96469709D01*
X141873663Y-96614734D01*
X141861292Y-96685625D01*
X141729320Y-96768001D01*
X141571984Y-96737729D01*
X141515312Y-96681209D01*
X141518324Y-96604667D01*
X141562667Y-96604667D01*
X141623434Y-96686910D01*
X141642337Y-96689334D01*
X141757004Y-96627789D01*
X141774334Y-96604667D01*
X141755140Y-96532184D01*
X141694664Y-96520000D01*
X141578821Y-96564205D01*
X141562667Y-96604667D01*
X141518324Y-96604667D01*
X141520311Y-96554181D01*
X141581088Y-96465293D01*
X141693234Y-96385666D01*
X141788391Y-96444383D01*
G37*
X141788391Y-96444383D02*
X141810062Y-96469709D01*
X141873663Y-96614734D01*
X141861292Y-96685625D01*
X141729320Y-96768001D01*
X141571984Y-96737729D01*
X141515312Y-96681209D01*
X141518324Y-96604667D01*
X141562667Y-96604667D01*
X141623434Y-96686910D01*
X141642337Y-96689334D01*
X141757004Y-96627789D01*
X141774334Y-96604667D01*
X141755140Y-96532184D01*
X141694664Y-96520000D01*
X141578821Y-96564205D01*
X141562667Y-96604667D01*
X141518324Y-96604667D01*
X141520311Y-96554181D01*
X141581088Y-96465293D01*
X141693234Y-96385666D01*
X141788391Y-96444383D01*
G36*
X140430260Y-97068909D02*
G01*
X140446722Y-97211868D01*
X140371238Y-97391379D01*
X140226197Y-97418282D01*
X140132163Y-97373835D01*
X140054045Y-97252519D01*
X140058331Y-97239667D01*
X140208000Y-97239667D01*
X140250334Y-97282000D01*
X140292667Y-97239667D01*
X140250334Y-97197334D01*
X140208000Y-97239667D01*
X140058331Y-97239667D01*
X140098670Y-97118718D01*
X140236696Y-97034406D01*
X140295898Y-97028000D01*
X140430260Y-97068909D01*
G37*
X140430260Y-97068909D02*
X140446722Y-97211868D01*
X140371238Y-97391379D01*
X140226197Y-97418282D01*
X140132163Y-97373835D01*
X140054045Y-97252519D01*
X140058331Y-97239667D01*
X140208000Y-97239667D01*
X140250334Y-97282000D01*
X140292667Y-97239667D01*
X140250334Y-97197334D01*
X140208000Y-97239667D01*
X140058331Y-97239667D01*
X140098670Y-97118718D01*
X140236696Y-97034406D01*
X140295898Y-97028000D01*
X140430260Y-97068909D01*
G36*
X141599015Y-95812483D02*
G01*
X141580757Y-95921150D01*
X141491081Y-95993529D01*
X141406765Y-95969018D01*
X141406414Y-95890279D01*
X141473205Y-95770995D01*
X141520334Y-95753528D01*
X141599015Y-95812483D01*
G37*
X141599015Y-95812483D02*
X141580757Y-95921150D01*
X141491081Y-95993529D01*
X141406765Y-95969018D01*
X141406414Y-95890279D01*
X141473205Y-95770995D01*
X141520334Y-95753528D01*
X141599015Y-95812483D01*
G36*
X142183379Y-95691698D02*
G01*
X142240000Y-95839984D01*
X142279624Y-95944445D01*
X142425334Y-95952566D01*
X142459033Y-95946648D01*
X142615861Y-95936368D01*
X142657656Y-96018597D01*
X142649533Y-96106555D01*
X142575412Y-96263432D01*
X142445116Y-96342728D01*
X142315316Y-96333279D01*
X142242685Y-96223924D01*
X142240000Y-96187222D01*
X142220967Y-96139000D01*
X142409334Y-96139000D01*
X142451667Y-96181334D01*
X142494000Y-96139000D01*
X142451667Y-96096667D01*
X142409334Y-96139000D01*
X142220967Y-96139000D01*
X142182267Y-96040956D01*
X142075664Y-96012000D01*
X141896486Y-95960562D01*
X141847709Y-95842667D01*
X141986000Y-95842667D01*
X142050429Y-95924873D01*
X142070667Y-95927334D01*
X142152873Y-95862904D01*
X142155334Y-95842667D01*
X142090904Y-95760460D01*
X142070667Y-95758000D01*
X141988460Y-95822429D01*
X141986000Y-95842667D01*
X141847709Y-95842667D01*
X141844035Y-95833789D01*
X141900235Y-95716991D01*
X142046331Y-95638616D01*
X142183379Y-95691698D01*
G37*
X142183379Y-95691698D02*
X142240000Y-95839984D01*
X142279624Y-95944445D01*
X142425334Y-95952566D01*
X142459033Y-95946648D01*
X142615861Y-95936368D01*
X142657656Y-96018597D01*
X142649533Y-96106555D01*
X142575412Y-96263432D01*
X142445116Y-96342728D01*
X142315316Y-96333279D01*
X142242685Y-96223924D01*
X142240000Y-96187222D01*
X142220967Y-96139000D01*
X142409334Y-96139000D01*
X142451667Y-96181334D01*
X142494000Y-96139000D01*
X142451667Y-96096667D01*
X142409334Y-96139000D01*
X142220967Y-96139000D01*
X142182267Y-96040956D01*
X142075664Y-96012000D01*
X141896486Y-95960562D01*
X141847709Y-95842667D01*
X141986000Y-95842667D01*
X142050429Y-95924873D01*
X142070667Y-95927334D01*
X142152873Y-95862904D01*
X142155334Y-95842667D01*
X142090904Y-95760460D01*
X142070667Y-95758000D01*
X141988460Y-95822429D01*
X141986000Y-95842667D01*
X141847709Y-95842667D01*
X141844035Y-95833789D01*
X141900235Y-95716991D01*
X142046331Y-95638616D01*
X142183379Y-95691698D01*
G36*
X139650152Y-98253824D02*
G01*
X139657667Y-98298000D01*
X139590901Y-98425129D01*
X139551834Y-98446167D01*
X139466858Y-98406871D01*
X139446000Y-98298000D01*
X139485012Y-98163713D01*
X139551834Y-98149834D01*
X139650152Y-98253824D01*
G37*
X139650152Y-98253824D02*
X139657667Y-98298000D01*
X139590901Y-98425129D01*
X139551834Y-98446167D01*
X139466858Y-98406871D01*
X139446000Y-98298000D01*
X139485012Y-98163713D01*
X139551834Y-98149834D01*
X139650152Y-98253824D01*
G36*
X139285747Y-97263414D02*
G01*
X139310652Y-97411207D01*
X139256086Y-97565038D01*
X139234041Y-97590721D01*
X139143201Y-97794571D01*
X139143233Y-98007764D01*
X139147576Y-98216434D01*
X139084719Y-98295210D01*
X139058616Y-98298000D01*
X138950082Y-98344340D01*
X138938000Y-98380010D01*
X138874961Y-98424079D01*
X138797111Y-98407955D01*
X138691526Y-98384738D01*
X138698786Y-98427683D01*
X138791165Y-98508541D01*
X138940937Y-98599064D01*
X139020850Y-98635914D01*
X139191412Y-98716810D01*
X139258742Y-98803861D01*
X139227960Y-98941819D01*
X139104183Y-99175437D01*
X139086167Y-99207046D01*
X138895667Y-99540709D01*
X138343799Y-99356334D01*
X138768667Y-99356334D01*
X138811000Y-99398667D01*
X138853334Y-99356334D01*
X138811000Y-99314000D01*
X138768667Y-99356334D01*
X138343799Y-99356334D01*
X138281834Y-99335632D01*
X137990028Y-99230757D01*
X137773410Y-99138832D01*
X137671244Y-99076879D01*
X137668000Y-99069521D01*
X137689837Y-99017667D01*
X137837334Y-99017667D01*
X137879667Y-99060000D01*
X137922000Y-99017667D01*
X137879667Y-98975334D01*
X137837334Y-99017667D01*
X137689837Y-99017667D01*
X137710027Y-98969728D01*
X137778170Y-98848334D01*
X139107334Y-98848334D01*
X139149667Y-98890667D01*
X139192000Y-98848334D01*
X139149667Y-98806000D01*
X139107334Y-98848334D01*
X137778170Y-98848334D01*
X137818374Y-98776714D01*
X137922018Y-98607940D01*
X138045343Y-98425000D01*
X138176000Y-98425000D01*
X138218334Y-98467334D01*
X138260667Y-98425000D01*
X138218334Y-98382667D01*
X138176000Y-98425000D01*
X138045343Y-98425000D01*
X138074346Y-98381978D01*
X138180923Y-98277822D01*
X138278459Y-98269377D01*
X138352603Y-98301891D01*
X138500482Y-98348753D01*
X138596530Y-98331943D01*
X138593406Y-98269065D01*
X138546212Y-98229897D01*
X138487857Y-98113022D01*
X138482653Y-98051056D01*
X138684000Y-98051056D01*
X138728608Y-98175188D01*
X138823020Y-98178382D01*
X138908118Y-98069354D01*
X138923042Y-98015817D01*
X138886570Y-97894981D01*
X138817208Y-97874667D01*
X138707291Y-97945887D01*
X138684000Y-98051056D01*
X138482653Y-98051056D01*
X138472477Y-97929903D01*
X138505209Y-97779350D01*
X138521681Y-97758226D01*
X138655211Y-97688789D01*
X138814689Y-97659073D01*
X138924692Y-97678790D01*
X138938000Y-97704625D01*
X138989624Y-97760292D01*
X139023316Y-97747265D01*
X139045095Y-97654654D01*
X138980983Y-97566888D01*
X138877182Y-97433889D01*
X138862698Y-97394889D01*
X139050889Y-97394889D01*
X139062511Y-97445223D01*
X139107334Y-97451334D01*
X139177024Y-97420355D01*
X139163778Y-97394889D01*
X139063298Y-97384756D01*
X139050889Y-97394889D01*
X138862698Y-97394889D01*
X138853334Y-97369678D01*
X138922956Y-97286052D01*
X139076644Y-97215824D01*
X139189866Y-97197334D01*
X139285747Y-97263414D01*
G37*
X139285747Y-97263414D02*
X139310652Y-97411207D01*
X139256086Y-97565038D01*
X139234041Y-97590721D01*
X139143201Y-97794571D01*
X139143233Y-98007764D01*
X139147576Y-98216434D01*
X139084719Y-98295210D01*
X139058616Y-98298000D01*
X138950082Y-98344340D01*
X138938000Y-98380010D01*
X138874961Y-98424079D01*
X138797111Y-98407955D01*
X138691526Y-98384738D01*
X138698786Y-98427683D01*
X138791165Y-98508541D01*
X138940937Y-98599064D01*
X139020850Y-98635914D01*
X139191412Y-98716810D01*
X139258742Y-98803861D01*
X139227960Y-98941819D01*
X139104183Y-99175437D01*
X139086167Y-99207046D01*
X138895667Y-99540709D01*
X138343799Y-99356334D01*
X138768667Y-99356334D01*
X138811000Y-99398667D01*
X138853334Y-99356334D01*
X138811000Y-99314000D01*
X138768667Y-99356334D01*
X138343799Y-99356334D01*
X138281834Y-99335632D01*
X137990028Y-99230757D01*
X137773410Y-99138832D01*
X137671244Y-99076879D01*
X137668000Y-99069521D01*
X137689837Y-99017667D01*
X137837334Y-99017667D01*
X137879667Y-99060000D01*
X137922000Y-99017667D01*
X137879667Y-98975334D01*
X137837334Y-99017667D01*
X137689837Y-99017667D01*
X137710027Y-98969728D01*
X137778170Y-98848334D01*
X139107334Y-98848334D01*
X139149667Y-98890667D01*
X139192000Y-98848334D01*
X139149667Y-98806000D01*
X139107334Y-98848334D01*
X137778170Y-98848334D01*
X137818374Y-98776714D01*
X137922018Y-98607940D01*
X138045343Y-98425000D01*
X138176000Y-98425000D01*
X138218334Y-98467334D01*
X138260667Y-98425000D01*
X138218334Y-98382667D01*
X138176000Y-98425000D01*
X138045343Y-98425000D01*
X138074346Y-98381978D01*
X138180923Y-98277822D01*
X138278459Y-98269377D01*
X138352603Y-98301891D01*
X138500482Y-98348753D01*
X138596530Y-98331943D01*
X138593406Y-98269065D01*
X138546212Y-98229897D01*
X138487857Y-98113022D01*
X138482653Y-98051056D01*
X138684000Y-98051056D01*
X138728608Y-98175188D01*
X138823020Y-98178382D01*
X138908118Y-98069354D01*
X138923042Y-98015817D01*
X138886570Y-97894981D01*
X138817208Y-97874667D01*
X138707291Y-97945887D01*
X138684000Y-98051056D01*
X138482653Y-98051056D01*
X138472477Y-97929903D01*
X138505209Y-97779350D01*
X138521681Y-97758226D01*
X138655211Y-97688789D01*
X138814689Y-97659073D01*
X138924692Y-97678790D01*
X138938000Y-97704625D01*
X138989624Y-97760292D01*
X139023316Y-97747265D01*
X139045095Y-97654654D01*
X138980983Y-97566888D01*
X138877182Y-97433889D01*
X138862698Y-97394889D01*
X139050889Y-97394889D01*
X139062511Y-97445223D01*
X139107334Y-97451334D01*
X139177024Y-97420355D01*
X139163778Y-97394889D01*
X139063298Y-97384756D01*
X139050889Y-97394889D01*
X138862698Y-97394889D01*
X138853334Y-97369678D01*
X138922956Y-97286052D01*
X139076644Y-97215824D01*
X139189866Y-97197334D01*
X139285747Y-97263414D01*
G36*
X146213691Y-98866658D02*
G01*
X146290592Y-98925640D01*
X146372278Y-99045339D01*
X146320444Y-99166357D01*
X146298003Y-99194226D01*
X146197346Y-99350578D01*
X146170005Y-99431309D01*
X146140343Y-99623362D01*
X146085711Y-99698331D01*
X146011310Y-99709111D01*
X145876852Y-99640522D01*
X145837369Y-99577289D01*
X145846502Y-99483334D01*
X145965334Y-99483334D01*
X145996312Y-99553024D01*
X146021778Y-99539778D01*
X146031911Y-99439298D01*
X146021778Y-99426889D01*
X145971444Y-99438511D01*
X145965334Y-99483334D01*
X145846502Y-99483334D01*
X145852537Y-99421264D01*
X145906648Y-99357821D01*
X145983988Y-99212642D01*
X145958913Y-99087436D01*
X145957666Y-99027203D01*
X146079104Y-99027203D01*
X146092334Y-99060000D01*
X146168416Y-99140771D01*
X146181997Y-99144667D01*
X146218363Y-99079161D01*
X146219334Y-99060000D01*
X146154246Y-98978587D01*
X146129670Y-98975334D01*
X146079104Y-99027203D01*
X145957666Y-99027203D01*
X145955461Y-98920823D01*
X146058006Y-98838635D01*
X146213691Y-98866658D01*
G37*
X146213691Y-98866658D02*
X146290592Y-98925640D01*
X146372278Y-99045339D01*
X146320444Y-99166357D01*
X146298003Y-99194226D01*
X146197346Y-99350578D01*
X146170005Y-99431309D01*
X146140343Y-99623362D01*
X146085711Y-99698331D01*
X146011310Y-99709111D01*
X145876852Y-99640522D01*
X145837369Y-99577289D01*
X145846502Y-99483334D01*
X145965334Y-99483334D01*
X145996312Y-99553024D01*
X146021778Y-99539778D01*
X146031911Y-99439298D01*
X146021778Y-99426889D01*
X145971444Y-99438511D01*
X145965334Y-99483334D01*
X145846502Y-99483334D01*
X145852537Y-99421264D01*
X145906648Y-99357821D01*
X145983988Y-99212642D01*
X145958913Y-99087436D01*
X145957666Y-99027203D01*
X146079104Y-99027203D01*
X146092334Y-99060000D01*
X146168416Y-99140771D01*
X146181997Y-99144667D01*
X146218363Y-99079161D01*
X146219334Y-99060000D01*
X146154246Y-98978587D01*
X146129670Y-98975334D01*
X146079104Y-99027203D01*
X145957666Y-99027203D01*
X145955461Y-98920823D01*
X146058006Y-98838635D01*
X146213691Y-98866658D01*
G36*
X146106941Y-99875215D02*
G01*
X146118439Y-99900317D01*
X146077569Y-99977519D01*
X146007667Y-99991334D01*
X145902293Y-99948374D01*
X145896895Y-99900317D01*
X145984303Y-99812842D01*
X146007667Y-99809300D01*
X146106941Y-99875215D01*
G37*
X146106941Y-99875215D02*
X146118439Y-99900317D01*
X146077569Y-99977519D01*
X146007667Y-99991334D01*
X145902293Y-99948374D01*
X145896895Y-99900317D01*
X145984303Y-99812842D01*
X146007667Y-99809300D01*
X146106941Y-99875215D01*
G36*
X144653700Y-97559464D02*
G01*
X144609081Y-97703803D01*
X144497455Y-97860380D01*
X144184246Y-98304799D01*
X143994634Y-98837435D01*
X143943297Y-99416851D01*
X143943585Y-99424029D01*
X143951506Y-99711522D01*
X143935636Y-99869928D01*
X143882219Y-99939196D01*
X143777500Y-99959273D01*
X143758902Y-99960380D01*
X143500838Y-99952391D01*
X143350907Y-99931893D01*
X143230208Y-99892859D01*
X143179947Y-99807134D01*
X143180381Y-99779667D01*
X143256000Y-99779667D01*
X143298334Y-99822000D01*
X143340667Y-99779667D01*
X143298334Y-99737334D01*
X143256000Y-99779667D01*
X143180381Y-99779667D01*
X143182815Y-99625776D01*
X143197158Y-99497180D01*
X143255448Y-99169137D01*
X143339717Y-98879123D01*
X143435896Y-98659322D01*
X143529916Y-98541916D01*
X143607413Y-98558654D01*
X143661124Y-98616754D01*
X143648014Y-98526609D01*
X143642462Y-98506211D01*
X143670779Y-98359028D01*
X143791726Y-98162996D01*
X143967910Y-97957179D01*
X144161940Y-97780642D01*
X144336422Y-97672447D01*
X144446518Y-97666204D01*
X144512875Y-97683759D01*
X144495367Y-97639599D01*
X144492510Y-97524008D01*
X144518769Y-97498136D01*
X144624467Y-97476118D01*
X144653700Y-97559464D01*
G37*
X144653700Y-97559464D02*
X144609081Y-97703803D01*
X144497455Y-97860380D01*
X144184246Y-98304799D01*
X143994634Y-98837435D01*
X143943297Y-99416851D01*
X143943585Y-99424029D01*
X143951506Y-99711522D01*
X143935636Y-99869928D01*
X143882219Y-99939196D01*
X143777500Y-99959273D01*
X143758902Y-99960380D01*
X143500838Y-99952391D01*
X143350907Y-99931893D01*
X143230208Y-99892859D01*
X143179947Y-99807134D01*
X143180381Y-99779667D01*
X143256000Y-99779667D01*
X143298334Y-99822000D01*
X143340667Y-99779667D01*
X143298334Y-99737334D01*
X143256000Y-99779667D01*
X143180381Y-99779667D01*
X143182815Y-99625776D01*
X143197158Y-99497180D01*
X143255448Y-99169137D01*
X143339717Y-98879123D01*
X143435896Y-98659322D01*
X143529916Y-98541916D01*
X143607413Y-98558654D01*
X143661124Y-98616754D01*
X143648014Y-98526609D01*
X143642462Y-98506211D01*
X143670779Y-98359028D01*
X143791726Y-98162996D01*
X143967910Y-97957179D01*
X144161940Y-97780642D01*
X144336422Y-97672447D01*
X144446518Y-97666204D01*
X144512875Y-97683759D01*
X144495367Y-97639599D01*
X144492510Y-97524008D01*
X144518769Y-97498136D01*
X144624467Y-97476118D01*
X144653700Y-97559464D01*
G36*
X163052457Y-98361500D02*
G01*
X163003428Y-98529042D01*
X162871930Y-98603109D01*
X162750500Y-98620865D01*
X162475334Y-98647396D01*
X162475334Y-100160667D01*
X161882667Y-100160667D01*
X161882667Y-98647914D01*
X161649834Y-98621124D01*
X161468492Y-98560484D01*
X161395533Y-98400324D01*
X161390210Y-98361500D01*
X161363419Y-98128667D01*
X163079248Y-98128667D01*
X163052457Y-98361500D01*
G37*
X163052457Y-98361500D02*
X163003428Y-98529042D01*
X162871930Y-98603109D01*
X162750500Y-98620865D01*
X162475334Y-98647396D01*
X162475334Y-100160667D01*
X161882667Y-100160667D01*
X161882667Y-98647914D01*
X161649834Y-98621124D01*
X161468492Y-98560484D01*
X161395533Y-98400324D01*
X161390210Y-98361500D01*
X161363419Y-98128667D01*
X163079248Y-98128667D01*
X163052457Y-98361500D01*
G36*
X160894909Y-98145062D02*
G01*
X161127004Y-98207002D01*
X161254758Y-98333618D01*
X161309632Y-98544041D01*
X161315378Y-98608083D01*
X161302246Y-98784751D01*
X161194749Y-98858892D01*
X161090830Y-98875961D01*
X160854394Y-98844952D01*
X160726196Y-98727794D01*
X160544467Y-98579193D01*
X160339899Y-98571339D01*
X160194793Y-98672422D01*
X160139438Y-98826784D01*
X160117545Y-99075714D01*
X160120926Y-99192342D01*
X160153503Y-99451761D01*
X160223219Y-99593241D01*
X160339492Y-99662595D01*
X160531221Y-99679804D01*
X160699325Y-99566009D01*
X160917406Y-99438163D01*
X161131250Y-99398667D01*
X161308833Y-99411193D01*
X161366259Y-99483300D01*
X161343158Y-99666785D01*
X161341776Y-99673834D01*
X161262420Y-99909326D01*
X161115238Y-100057585D01*
X160868728Y-100135623D01*
X160491386Y-100160453D01*
X160440273Y-100160667D01*
X160114428Y-100150906D01*
X159907662Y-100113503D01*
X159770432Y-100036274D01*
X159715622Y-99982489D01*
X159630092Y-99853512D01*
X159580270Y-99672119D01*
X159557965Y-99394930D01*
X159554334Y-99128524D01*
X159572393Y-98701695D01*
X159643961Y-98415154D01*
X159795116Y-98242090D01*
X160051941Y-98155694D01*
X160440517Y-98129156D01*
X160527013Y-98128667D01*
X160894909Y-98145062D01*
G37*
X160894909Y-98145062D02*
X161127004Y-98207002D01*
X161254758Y-98333618D01*
X161309632Y-98544041D01*
X161315378Y-98608083D01*
X161302246Y-98784751D01*
X161194749Y-98858892D01*
X161090830Y-98875961D01*
X160854394Y-98844952D01*
X160726196Y-98727794D01*
X160544467Y-98579193D01*
X160339899Y-98571339D01*
X160194793Y-98672422D01*
X160139438Y-98826784D01*
X160117545Y-99075714D01*
X160120926Y-99192342D01*
X160153503Y-99451761D01*
X160223219Y-99593241D01*
X160339492Y-99662595D01*
X160531221Y-99679804D01*
X160699325Y-99566009D01*
X160917406Y-99438163D01*
X161131250Y-99398667D01*
X161308833Y-99411193D01*
X161366259Y-99483300D01*
X161343158Y-99666785D01*
X161341776Y-99673834D01*
X161262420Y-99909326D01*
X161115238Y-100057585D01*
X160868728Y-100135623D01*
X160491386Y-100160453D01*
X160440273Y-100160667D01*
X160114428Y-100150906D01*
X159907662Y-100113503D01*
X159770432Y-100036274D01*
X159715622Y-99982489D01*
X159630092Y-99853512D01*
X159580270Y-99672119D01*
X159557965Y-99394930D01*
X159554334Y-99128524D01*
X159572393Y-98701695D01*
X159643961Y-98415154D01*
X159795116Y-98242090D01*
X160051941Y-98155694D01*
X160440517Y-98129156D01*
X160527013Y-98128667D01*
X160894909Y-98145062D01*
G36*
X158941384Y-98130352D02*
G01*
X159165353Y-98141443D01*
X159285161Y-98170990D01*
X159333391Y-98228045D01*
X159342630Y-98321660D01*
X159342667Y-98340334D01*
X159330579Y-98461559D01*
X159266690Y-98524681D01*
X159109563Y-98548532D01*
X158877000Y-98552000D01*
X158607892Y-98559350D01*
X158467702Y-98591128D01*
X158416300Y-98661927D01*
X158411334Y-98721334D01*
X158433622Y-98822900D01*
X158528224Y-98873556D01*
X158736750Y-98889942D01*
X158834667Y-98890667D01*
X159085911Y-98897529D01*
X159211251Y-98932552D01*
X159253990Y-99017387D01*
X159258000Y-99102334D01*
X159244275Y-99227956D01*
X159174230Y-99290625D01*
X159004560Y-99311995D01*
X158834667Y-99314000D01*
X158582962Y-99321366D01*
X158457376Y-99356945D01*
X158414880Y-99440960D01*
X158411334Y-99512963D01*
X158425460Y-99628735D01*
X158495932Y-99686622D01*
X158664886Y-99704683D01*
X158855834Y-99703463D01*
X159115510Y-99704465D01*
X159251237Y-99734642D01*
X159308227Y-99815518D01*
X159327124Y-99927834D01*
X159353914Y-100160667D01*
X157818667Y-100160667D01*
X157818667Y-98128667D01*
X158580667Y-98128667D01*
X158941384Y-98130352D01*
G37*
X158941384Y-98130352D02*
X159165353Y-98141443D01*
X159285161Y-98170990D01*
X159333391Y-98228045D01*
X159342630Y-98321660D01*
X159342667Y-98340334D01*
X159330579Y-98461559D01*
X159266690Y-98524681D01*
X159109563Y-98548532D01*
X158877000Y-98552000D01*
X158607892Y-98559350D01*
X158467702Y-98591128D01*
X158416300Y-98661927D01*
X158411334Y-98721334D01*
X158433622Y-98822900D01*
X158528224Y-98873556D01*
X158736750Y-98889942D01*
X158834667Y-98890667D01*
X159085911Y-98897529D01*
X159211251Y-98932552D01*
X159253990Y-99017387D01*
X159258000Y-99102334D01*
X159244275Y-99227956D01*
X159174230Y-99290625D01*
X159004560Y-99311995D01*
X158834667Y-99314000D01*
X158582962Y-99321366D01*
X158457376Y-99356945D01*
X158414880Y-99440960D01*
X158411334Y-99512963D01*
X158425460Y-99628735D01*
X158495932Y-99686622D01*
X158664886Y-99704683D01*
X158855834Y-99703463D01*
X159115510Y-99704465D01*
X159251237Y-99734642D01*
X159308227Y-99815518D01*
X159327124Y-99927834D01*
X159353914Y-100160667D01*
X157818667Y-100160667D01*
X157818667Y-98128667D01*
X158580667Y-98128667D01*
X158941384Y-98130352D01*
G36*
X157564667Y-99011619D02*
G01*
X157557437Y-99472950D01*
X157524783Y-99791398D01*
X157450259Y-99993175D01*
X157317421Y-100104494D01*
X157109821Y-100151567D01*
X156843753Y-100160667D01*
X156557094Y-100147316D01*
X156383501Y-100095507D01*
X156267994Y-99987602D01*
X156257134Y-99972495D01*
X156155036Y-99739862D01*
X156125334Y-99549161D01*
X156144532Y-99389708D01*
X156236264Y-99325182D01*
X156415778Y-99314000D01*
X156625526Y-99338009D01*
X156718305Y-99427341D01*
X156733278Y-99486687D01*
X156791054Y-99634911D01*
X156845000Y-99677187D01*
X156887493Y-99606286D01*
X156923105Y-99392169D01*
X156948120Y-99060921D01*
X156954011Y-98911834D01*
X156978355Y-98128667D01*
X157564667Y-98128667D01*
X157564667Y-99011619D01*
G37*
X157564667Y-99011619D02*
X157557437Y-99472950D01*
X157524783Y-99791398D01*
X157450259Y-99993175D01*
X157317421Y-100104494D01*
X157109821Y-100151567D01*
X156843753Y-100160667D01*
X156557094Y-100147316D01*
X156383501Y-100095507D01*
X156267994Y-99987602D01*
X156257134Y-99972495D01*
X156155036Y-99739862D01*
X156125334Y-99549161D01*
X156144532Y-99389708D01*
X156236264Y-99325182D01*
X156415778Y-99314000D01*
X156625526Y-99338009D01*
X156718305Y-99427341D01*
X156733278Y-99486687D01*
X156791054Y-99634911D01*
X156845000Y-99677187D01*
X156887493Y-99606286D01*
X156923105Y-99392169D01*
X156948120Y-99060921D01*
X156954011Y-98911834D01*
X156978355Y-98128667D01*
X157564667Y-98128667D01*
X157564667Y-99011619D01*
G36*
X155329839Y-98145440D02*
G01*
X155646394Y-98248286D01*
X155732915Y-98304145D01*
X155848154Y-98409070D01*
X155915069Y-98529016D01*
X155946606Y-98710877D01*
X155955709Y-99001545D01*
X155956000Y-99112327D01*
X155949507Y-99450687D01*
X155921856Y-99669526D01*
X155860789Y-99818423D01*
X155754047Y-99946957D01*
X155748182Y-99952849D01*
X155497996Y-100099669D01*
X155158893Y-100169463D01*
X154793471Y-100160818D01*
X154464327Y-100072318D01*
X154316418Y-99985188D01*
X154203659Y-99883346D01*
X154136982Y-99767669D01*
X154104417Y-99593055D01*
X154093991Y-99314400D01*
X154093343Y-99146790D01*
X154686000Y-99146790D01*
X154713502Y-99492433D01*
X154802005Y-99685733D01*
X154960501Y-99735498D01*
X155197984Y-99650533D01*
X155199566Y-99649688D01*
X155300013Y-99558807D01*
X155349849Y-99394432D01*
X155363333Y-99109431D01*
X155363334Y-99108413D01*
X155339474Y-98793993D01*
X155254539Y-98622450D01*
X155088499Y-98572378D01*
X154890939Y-98603588D01*
X154775085Y-98648265D01*
X154713602Y-98737533D01*
X154689590Y-98916189D01*
X154686000Y-99146790D01*
X154093343Y-99146790D01*
X154093334Y-99144667D01*
X154097743Y-98805050D01*
X154118953Y-98589594D01*
X154168933Y-98453197D01*
X154259656Y-98350755D01*
X154316418Y-98304145D01*
X154595855Y-98173370D01*
X154956660Y-98120468D01*
X155329839Y-98145440D01*
G37*
X155329839Y-98145440D02*
X155646394Y-98248286D01*
X155732915Y-98304145D01*
X155848154Y-98409070D01*
X155915069Y-98529016D01*
X155946606Y-98710877D01*
X155955709Y-99001545D01*
X155956000Y-99112327D01*
X155949507Y-99450687D01*
X155921856Y-99669526D01*
X155860789Y-99818423D01*
X155754047Y-99946957D01*
X155748182Y-99952849D01*
X155497996Y-100099669D01*
X155158893Y-100169463D01*
X154793471Y-100160818D01*
X154464327Y-100072318D01*
X154316418Y-99985188D01*
X154203659Y-99883346D01*
X154136982Y-99767669D01*
X154104417Y-99593055D01*
X154093991Y-99314400D01*
X154093343Y-99146790D01*
X154686000Y-99146790D01*
X154713502Y-99492433D01*
X154802005Y-99685733D01*
X154960501Y-99735498D01*
X155197984Y-99650533D01*
X155199566Y-99649688D01*
X155300013Y-99558807D01*
X155349849Y-99394432D01*
X155363333Y-99109431D01*
X155363334Y-99108413D01*
X155339474Y-98793993D01*
X155254539Y-98622450D01*
X155088499Y-98572378D01*
X154890939Y-98603588D01*
X154775085Y-98648265D01*
X154713602Y-98737533D01*
X154689590Y-98916189D01*
X154686000Y-99146790D01*
X154093343Y-99146790D01*
X154093334Y-99144667D01*
X154097743Y-98805050D01*
X154118953Y-98589594D01*
X154168933Y-98453197D01*
X154259656Y-98350755D01*
X154316418Y-98304145D01*
X154595855Y-98173370D01*
X154956660Y-98120468D01*
X155329839Y-98145440D01*
G36*
X153220895Y-98134967D02*
G01*
X153456290Y-98159220D01*
X153605069Y-98209456D01*
X153708444Y-98293704D01*
X153709239Y-98294581D01*
X153811901Y-98496953D01*
X153854522Y-98766386D01*
X153836609Y-99035647D01*
X153757671Y-99237506D01*
X153716445Y-99279130D01*
X153627641Y-99370530D01*
X153684347Y-99459503D01*
X153711395Y-99482554D01*
X153799304Y-99635662D01*
X153839127Y-99863309D01*
X153839334Y-99880065D01*
X153827031Y-100074937D01*
X153757355Y-100147976D01*
X153581155Y-100146480D01*
X153564167Y-100144865D01*
X153366662Y-100100647D01*
X153281191Y-99988350D01*
X153262210Y-99885500D01*
X153221061Y-99726288D01*
X153111083Y-99662530D01*
X152944710Y-99652667D01*
X152748093Y-99667539D01*
X152668444Y-99742288D01*
X152654000Y-99906667D01*
X152632545Y-100086963D01*
X152534571Y-100153327D01*
X152414111Y-100160667D01*
X152228489Y-100149640D01*
X152138945Y-100125718D01*
X152127192Y-100032280D01*
X152121682Y-99804482D01*
X152122724Y-99477188D01*
X152129959Y-99109718D01*
X152135829Y-98890667D01*
X152654000Y-98890667D01*
X152665996Y-99062322D01*
X152735192Y-99130772D01*
X152911401Y-99133346D01*
X152971500Y-99128611D01*
X153182215Y-99095578D01*
X153271909Y-99019956D01*
X153289000Y-98890667D01*
X153265610Y-98748254D01*
X153163313Y-98679992D01*
X152971500Y-98652723D01*
X152764039Y-98645535D01*
X152674906Y-98695743D01*
X152654288Y-98840676D01*
X152654000Y-98890667D01*
X152135829Y-98890667D01*
X152156252Y-98128667D01*
X152857670Y-98128667D01*
X153220895Y-98134967D01*
G37*
X153220895Y-98134967D02*
X153456290Y-98159220D01*
X153605069Y-98209456D01*
X153708444Y-98293704D01*
X153709239Y-98294581D01*
X153811901Y-98496953D01*
X153854522Y-98766386D01*
X153836609Y-99035647D01*
X153757671Y-99237506D01*
X153716445Y-99279130D01*
X153627641Y-99370530D01*
X153684347Y-99459503D01*
X153711395Y-99482554D01*
X153799304Y-99635662D01*
X153839127Y-99863309D01*
X153839334Y-99880065D01*
X153827031Y-100074937D01*
X153757355Y-100147976D01*
X153581155Y-100146480D01*
X153564167Y-100144865D01*
X153366662Y-100100647D01*
X153281191Y-99988350D01*
X153262210Y-99885500D01*
X153221061Y-99726288D01*
X153111083Y-99662530D01*
X152944710Y-99652667D01*
X152748093Y-99667539D01*
X152668444Y-99742288D01*
X152654000Y-99906667D01*
X152632545Y-100086963D01*
X152534571Y-100153327D01*
X152414111Y-100160667D01*
X152228489Y-100149640D01*
X152138945Y-100125718D01*
X152127192Y-100032280D01*
X152121682Y-99804482D01*
X152122724Y-99477188D01*
X152129959Y-99109718D01*
X152135829Y-98890667D01*
X152654000Y-98890667D01*
X152665996Y-99062322D01*
X152735192Y-99130772D01*
X152911401Y-99133346D01*
X152971500Y-99128611D01*
X153182215Y-99095578D01*
X153271909Y-99019956D01*
X153289000Y-98890667D01*
X153265610Y-98748254D01*
X153163313Y-98679992D01*
X152971500Y-98652723D01*
X152764039Y-98645535D01*
X152674906Y-98695743D01*
X152654288Y-98840676D01*
X152654000Y-98890667D01*
X152135829Y-98890667D01*
X152156252Y-98128667D01*
X152857670Y-98128667D01*
X153220895Y-98134967D01*
G36*
X151309256Y-98146025D02*
G01*
X151601485Y-98211737D01*
X151778679Y-98346256D01*
X151866830Y-98570036D01*
X151891931Y-98903533D01*
X151892000Y-98928199D01*
X151856523Y-99275612D01*
X151734332Y-99497527D01*
X151501794Y-99615873D01*
X151135271Y-99652581D01*
X151111161Y-99652667D01*
X150867728Y-99658943D01*
X150748942Y-99696466D01*
X150710145Y-99793277D01*
X150706667Y-99906667D01*
X150685688Y-100086575D01*
X150586727Y-100152885D01*
X150452667Y-100160667D01*
X150198667Y-100160667D01*
X150198667Y-99051480D01*
X150716861Y-99051480D01*
X150779227Y-99127954D01*
X150956059Y-99144526D01*
X151003000Y-99144667D01*
X151205042Y-99133969D01*
X151284355Y-99071473D01*
X151287431Y-98911578D01*
X151283531Y-98869500D01*
X151245350Y-98678810D01*
X151146532Y-98604818D01*
X151003000Y-98594334D01*
X150824911Y-98615778D01*
X150747034Y-98715102D01*
X150722469Y-98869500D01*
X150716861Y-99051480D01*
X150198667Y-99051480D01*
X150198667Y-98128667D01*
X150876000Y-98128667D01*
X151309256Y-98146025D01*
G37*
X151309256Y-98146025D02*
X151601485Y-98211737D01*
X151778679Y-98346256D01*
X151866830Y-98570036D01*
X151891931Y-98903533D01*
X151892000Y-98928199D01*
X151856523Y-99275612D01*
X151734332Y-99497527D01*
X151501794Y-99615873D01*
X151135271Y-99652581D01*
X151111161Y-99652667D01*
X150867728Y-99658943D01*
X150748942Y-99696466D01*
X150710145Y-99793277D01*
X150706667Y-99906667D01*
X150685688Y-100086575D01*
X150586727Y-100152885D01*
X150452667Y-100160667D01*
X150198667Y-100160667D01*
X150198667Y-99051480D01*
X150716861Y-99051480D01*
X150779227Y-99127954D01*
X150956059Y-99144526D01*
X151003000Y-99144667D01*
X151205042Y-99133969D01*
X151284355Y-99071473D01*
X151287431Y-98911578D01*
X151283531Y-98869500D01*
X151245350Y-98678810D01*
X151146532Y-98604818D01*
X151003000Y-98594334D01*
X150824911Y-98615778D01*
X150747034Y-98715102D01*
X150722469Y-98869500D01*
X150716861Y-99051480D01*
X150198667Y-99051480D01*
X150198667Y-98128667D01*
X150876000Y-98128667D01*
X151309256Y-98146025D01*
G36*
X144847407Y-97695887D02*
G01*
X144818152Y-97811861D01*
X144709622Y-97999630D01*
X144647766Y-98085670D01*
X144510450Y-98275879D01*
X144468991Y-98391096D01*
X144514065Y-98489038D01*
X144571812Y-98555844D01*
X144720362Y-98666155D01*
X144811866Y-98638667D01*
X144938992Y-98552708D01*
X144990673Y-98581207D01*
X144927036Y-98699057D01*
X144920122Y-98706834D01*
X144800649Y-98861798D01*
X144813141Y-98946896D01*
X144947621Y-98999418D01*
X145047231Y-99008299D01*
X145095241Y-98941387D01*
X145107702Y-98760931D01*
X145105870Y-98627269D01*
X145102327Y-98552000D01*
X145288000Y-98552000D01*
X145318978Y-98621690D01*
X145344445Y-98608445D01*
X145350137Y-98552000D01*
X145542000Y-98552000D01*
X145606429Y-98634207D01*
X145626667Y-98636667D01*
X145708873Y-98572238D01*
X145711334Y-98552000D01*
X145646904Y-98469794D01*
X145626667Y-98467334D01*
X145544460Y-98531763D01*
X145542000Y-98552000D01*
X145350137Y-98552000D01*
X145354578Y-98507965D01*
X145344445Y-98495556D01*
X145294110Y-98507178D01*
X145288000Y-98552000D01*
X145102327Y-98552000D01*
X145094664Y-98389213D01*
X145068386Y-98295962D01*
X145016514Y-98323051D01*
X144989744Y-98357281D01*
X144883210Y-98454120D01*
X144766557Y-98406373D01*
X144751861Y-98394447D01*
X144656127Y-98244121D01*
X144656992Y-98241556D01*
X144808222Y-98241556D01*
X144819845Y-98291890D01*
X144864667Y-98298000D01*
X144934357Y-98267022D01*
X144921111Y-98241556D01*
X144820632Y-98231423D01*
X144808222Y-98241556D01*
X144656992Y-98241556D01*
X144698530Y-98118421D01*
X144850407Y-98071160D01*
X144918475Y-98081648D01*
X145075663Y-98089759D01*
X145118667Y-98003280D01*
X145163885Y-97889577D01*
X145203334Y-97874667D01*
X145265998Y-97947394D01*
X145288000Y-98095512D01*
X145309446Y-98251939D01*
X145408278Y-98281983D01*
X145499667Y-98263232D01*
X145660203Y-98251312D01*
X145711334Y-98296387D01*
X145780272Y-98371983D01*
X145844039Y-98382667D01*
X145934380Y-98424921D01*
X145917294Y-98573167D01*
X145832498Y-98749522D01*
X145763422Y-98825870D01*
X145602979Y-98885467D01*
X145482082Y-98860223D01*
X145457334Y-98806000D01*
X145392904Y-98723794D01*
X145372667Y-98721334D01*
X145308468Y-98793634D01*
X145288000Y-98928003D01*
X145319218Y-99107276D01*
X145372667Y-99187000D01*
X145425954Y-99172889D01*
X145570222Y-99172889D01*
X145581845Y-99223223D01*
X145626667Y-99229334D01*
X145696357Y-99198355D01*
X145683111Y-99172889D01*
X145582632Y-99162756D01*
X145570222Y-99172889D01*
X145425954Y-99172889D01*
X145445150Y-99167806D01*
X145457334Y-99107330D01*
X145523772Y-99008457D01*
X145667343Y-98975025D01*
X145804424Y-99019250D01*
X145833611Y-99052360D01*
X145854236Y-99211170D01*
X145762645Y-99339871D01*
X145608271Y-99369321D01*
X145607198Y-99369043D01*
X145495088Y-99349136D01*
X145514814Y-99404085D01*
X145576540Y-99474722D01*
X145680989Y-99673750D01*
X145711334Y-99849834D01*
X145752565Y-100030879D01*
X145852445Y-100076000D01*
X145946098Y-100100944D01*
X145939304Y-100130252D01*
X145833272Y-100158629D01*
X145606089Y-100181752D01*
X145305940Y-100194801D01*
X145291465Y-100195075D01*
X144933840Y-100189288D01*
X144696443Y-100150683D01*
X144531899Y-100070560D01*
X144506105Y-100050850D01*
X144314334Y-99896053D01*
X144504834Y-99949399D01*
X144653319Y-99960262D01*
X144671427Y-99918035D01*
X144780000Y-99918035D01*
X144806109Y-100013396D01*
X144911414Y-100060901D01*
X145136381Y-100075651D01*
X145203334Y-100076000D01*
X145444821Y-100060771D01*
X145598098Y-100021832D01*
X145626667Y-99991334D01*
X145577515Y-99906007D01*
X145563167Y-99902980D01*
X145447053Y-99885816D01*
X145231578Y-99847157D01*
X145139834Y-99829681D01*
X144914602Y-99794503D01*
X144809470Y-99812199D01*
X144780515Y-99893552D01*
X144780000Y-99918035D01*
X144671427Y-99918035D01*
X144695331Y-99862293D01*
X144695334Y-99860981D01*
X144653389Y-99762572D01*
X144547167Y-99780214D01*
X144308295Y-99869324D01*
X144177436Y-99867915D01*
X144116411Y-99750318D01*
X144087038Y-99490864D01*
X144085413Y-99469771D01*
X144084152Y-99394159D01*
X144223092Y-99394159D01*
X144243567Y-99553082D01*
X144327152Y-99694813D01*
X144417052Y-99699789D01*
X144575217Y-99656777D01*
X144617592Y-99652667D01*
X144671720Y-99578938D01*
X144695299Y-99400757D01*
X144695334Y-99392961D01*
X144687611Y-99302915D01*
X144789469Y-99302915D01*
X144795543Y-99375256D01*
X144847066Y-99539000D01*
X144985411Y-99644482D01*
X145161000Y-99707416D01*
X145427849Y-99783934D01*
X145562258Y-99806271D01*
X145593046Y-99771914D01*
X145549031Y-99678353D01*
X145546407Y-99673834D01*
X145330906Y-99375139D01*
X145108558Y-99191152D01*
X144951305Y-99144667D01*
X144820713Y-99176160D01*
X144789469Y-99302915D01*
X144687611Y-99302915D01*
X144680189Y-99216381D01*
X144609754Y-99168400D01*
X144504834Y-99190811D01*
X144296135Y-99277464D01*
X144223092Y-99394159D01*
X144084152Y-99394159D01*
X144080193Y-99156876D01*
X144086818Y-99083414D01*
X144210752Y-99083414D01*
X144263815Y-99125449D01*
X144374525Y-99099573D01*
X144559694Y-99024024D01*
X144646766Y-98967818D01*
X144656602Y-98855590D01*
X144568334Y-98721334D01*
X144433261Y-98611657D01*
X144336513Y-98645145D01*
X144258986Y-98833182D01*
X144237289Y-98918589D01*
X144210752Y-99083414D01*
X144086818Y-99083414D01*
X144105956Y-98871212D01*
X144129801Y-98763667D01*
X144210318Y-98573479D01*
X144338586Y-98338881D01*
X144490093Y-98096347D01*
X144640327Y-97882348D01*
X144764777Y-97733357D01*
X144838931Y-97685847D01*
X144847407Y-97695887D01*
G37*
X144847407Y-97695887D02*
X144818152Y-97811861D01*
X144709622Y-97999630D01*
X144647766Y-98085670D01*
X144510450Y-98275879D01*
X144468991Y-98391096D01*
X144514065Y-98489038D01*
X144571812Y-98555844D01*
X144720362Y-98666155D01*
X144811866Y-98638667D01*
X144938992Y-98552708D01*
X144990673Y-98581207D01*
X144927036Y-98699057D01*
X144920122Y-98706834D01*
X144800649Y-98861798D01*
X144813141Y-98946896D01*
X144947621Y-98999418D01*
X145047231Y-99008299D01*
X145095241Y-98941387D01*
X145107702Y-98760931D01*
X145105870Y-98627269D01*
X145102327Y-98552000D01*
X145288000Y-98552000D01*
X145318978Y-98621690D01*
X145344445Y-98608445D01*
X145350137Y-98552000D01*
X145542000Y-98552000D01*
X145606429Y-98634207D01*
X145626667Y-98636667D01*
X145708873Y-98572238D01*
X145711334Y-98552000D01*
X145646904Y-98469794D01*
X145626667Y-98467334D01*
X145544460Y-98531763D01*
X145542000Y-98552000D01*
X145350137Y-98552000D01*
X145354578Y-98507965D01*
X145344445Y-98495556D01*
X145294110Y-98507178D01*
X145288000Y-98552000D01*
X145102327Y-98552000D01*
X145094664Y-98389213D01*
X145068386Y-98295962D01*
X145016514Y-98323051D01*
X144989744Y-98357281D01*
X144883210Y-98454120D01*
X144766557Y-98406373D01*
X144751861Y-98394447D01*
X144656127Y-98244121D01*
X144656992Y-98241556D01*
X144808222Y-98241556D01*
X144819845Y-98291890D01*
X144864667Y-98298000D01*
X144934357Y-98267022D01*
X144921111Y-98241556D01*
X144820632Y-98231423D01*
X144808222Y-98241556D01*
X144656992Y-98241556D01*
X144698530Y-98118421D01*
X144850407Y-98071160D01*
X144918475Y-98081648D01*
X145075663Y-98089759D01*
X145118667Y-98003280D01*
X145163885Y-97889577D01*
X145203334Y-97874667D01*
X145265998Y-97947394D01*
X145288000Y-98095512D01*
X145309446Y-98251939D01*
X145408278Y-98281983D01*
X145499667Y-98263232D01*
X145660203Y-98251312D01*
X145711334Y-98296387D01*
X145780272Y-98371983D01*
X145844039Y-98382667D01*
X145934380Y-98424921D01*
X145917294Y-98573167D01*
X145832498Y-98749522D01*
X145763422Y-98825870D01*
X145602979Y-98885467D01*
X145482082Y-98860223D01*
X145457334Y-98806000D01*
X145392904Y-98723794D01*
X145372667Y-98721334D01*
X145308468Y-98793634D01*
X145288000Y-98928003D01*
X145319218Y-99107276D01*
X145372667Y-99187000D01*
X145425954Y-99172889D01*
X145570222Y-99172889D01*
X145581845Y-99223223D01*
X145626667Y-99229334D01*
X145696357Y-99198355D01*
X145683111Y-99172889D01*
X145582632Y-99162756D01*
X145570222Y-99172889D01*
X145425954Y-99172889D01*
X145445150Y-99167806D01*
X145457334Y-99107330D01*
X145523772Y-99008457D01*
X145667343Y-98975025D01*
X145804424Y-99019250D01*
X145833611Y-99052360D01*
X145854236Y-99211170D01*
X145762645Y-99339871D01*
X145608271Y-99369321D01*
X145607198Y-99369043D01*
X145495088Y-99349136D01*
X145514814Y-99404085D01*
X145576540Y-99474722D01*
X145680989Y-99673750D01*
X145711334Y-99849834D01*
X145752565Y-100030879D01*
X145852445Y-100076000D01*
X145946098Y-100100944D01*
X145939304Y-100130252D01*
X145833272Y-100158629D01*
X145606089Y-100181752D01*
X145305940Y-100194801D01*
X145291465Y-100195075D01*
X144933840Y-100189288D01*
X144696443Y-100150683D01*
X144531899Y-100070560D01*
X144506105Y-100050850D01*
X144314334Y-99896053D01*
X144504834Y-99949399D01*
X144653319Y-99960262D01*
X144671427Y-99918035D01*
X144780000Y-99918035D01*
X144806109Y-100013396D01*
X144911414Y-100060901D01*
X145136381Y-100075651D01*
X145203334Y-100076000D01*
X145444821Y-100060771D01*
X145598098Y-100021832D01*
X145626667Y-99991334D01*
X145577515Y-99906007D01*
X145563167Y-99902980D01*
X145447053Y-99885816D01*
X145231578Y-99847157D01*
X145139834Y-99829681D01*
X144914602Y-99794503D01*
X144809470Y-99812199D01*
X144780515Y-99893552D01*
X144780000Y-99918035D01*
X144671427Y-99918035D01*
X144695331Y-99862293D01*
X144695334Y-99860981D01*
X144653389Y-99762572D01*
X144547167Y-99780214D01*
X144308295Y-99869324D01*
X144177436Y-99867915D01*
X144116411Y-99750318D01*
X144087038Y-99490864D01*
X144085413Y-99469771D01*
X144084152Y-99394159D01*
X144223092Y-99394159D01*
X144243567Y-99553082D01*
X144327152Y-99694813D01*
X144417052Y-99699789D01*
X144575217Y-99656777D01*
X144617592Y-99652667D01*
X144671720Y-99578938D01*
X144695299Y-99400757D01*
X144695334Y-99392961D01*
X144687611Y-99302915D01*
X144789469Y-99302915D01*
X144795543Y-99375256D01*
X144847066Y-99539000D01*
X144985411Y-99644482D01*
X145161000Y-99707416D01*
X145427849Y-99783934D01*
X145562258Y-99806271D01*
X145593046Y-99771914D01*
X145549031Y-99678353D01*
X145546407Y-99673834D01*
X145330906Y-99375139D01*
X145108558Y-99191152D01*
X144951305Y-99144667D01*
X144820713Y-99176160D01*
X144789469Y-99302915D01*
X144687611Y-99302915D01*
X144680189Y-99216381D01*
X144609754Y-99168400D01*
X144504834Y-99190811D01*
X144296135Y-99277464D01*
X144223092Y-99394159D01*
X144084152Y-99394159D01*
X144080193Y-99156876D01*
X144086818Y-99083414D01*
X144210752Y-99083414D01*
X144263815Y-99125449D01*
X144374525Y-99099573D01*
X144559694Y-99024024D01*
X144646766Y-98967818D01*
X144656602Y-98855590D01*
X144568334Y-98721334D01*
X144433261Y-98611657D01*
X144336513Y-98645145D01*
X144258986Y-98833182D01*
X144237289Y-98918589D01*
X144210752Y-99083414D01*
X144086818Y-99083414D01*
X144105956Y-98871212D01*
X144129801Y-98763667D01*
X144210318Y-98573479D01*
X144338586Y-98338881D01*
X144490093Y-98096347D01*
X144640327Y-97882348D01*
X144764777Y-97733357D01*
X144838931Y-97685847D01*
X144847407Y-97695887D01*
G36*
X138217269Y-99454111D02*
G01*
X138515033Y-99563829D01*
X138738186Y-99664347D01*
X138848080Y-99737689D01*
X138853334Y-99749981D01*
X138799457Y-99789916D01*
X138755585Y-99771582D01*
X138697786Y-99761434D01*
X138719525Y-99810984D01*
X138746904Y-99959820D01*
X138725880Y-100162733D01*
X138688497Y-100288939D01*
X138622959Y-100366617D01*
X138499078Y-100400107D01*
X138286665Y-100393750D01*
X137955535Y-100351889D01*
X137689167Y-100311820D01*
X137566654Y-100287667D01*
X138514667Y-100287667D01*
X138557000Y-100330000D01*
X138599334Y-100287667D01*
X138557000Y-100245334D01*
X138514667Y-100287667D01*
X137566654Y-100287667D01*
X137415796Y-100257926D01*
X137224656Y-100197495D01*
X137160000Y-100148278D01*
X137212178Y-100104344D01*
X137243697Y-100117734D01*
X137292732Y-100104441D01*
X137280122Y-100046273D01*
X137287507Y-99900571D01*
X137361696Y-99678592D01*
X137407027Y-99581668D01*
X137500387Y-99398667D01*
X137583334Y-99398667D01*
X137614312Y-99468357D01*
X137639778Y-99455111D01*
X137649911Y-99354632D01*
X137639778Y-99342222D01*
X137589444Y-99353845D01*
X137583334Y-99398667D01*
X137500387Y-99398667D01*
X137581205Y-99240253D01*
X138217269Y-99454111D01*
G37*
X138217269Y-99454111D02*
X138515033Y-99563829D01*
X138738186Y-99664347D01*
X138848080Y-99737689D01*
X138853334Y-99749981D01*
X138799457Y-99789916D01*
X138755585Y-99771582D01*
X138697786Y-99761434D01*
X138719525Y-99810984D01*
X138746904Y-99959820D01*
X138725880Y-100162733D01*
X138688497Y-100288939D01*
X138622959Y-100366617D01*
X138499078Y-100400107D01*
X138286665Y-100393750D01*
X137955535Y-100351889D01*
X137689167Y-100311820D01*
X137566654Y-100287667D01*
X138514667Y-100287667D01*
X138557000Y-100330000D01*
X138599334Y-100287667D01*
X138557000Y-100245334D01*
X138514667Y-100287667D01*
X137566654Y-100287667D01*
X137415796Y-100257926D01*
X137224656Y-100197495D01*
X137160000Y-100148278D01*
X137212178Y-100104344D01*
X137243697Y-100117734D01*
X137292732Y-100104441D01*
X137280122Y-100046273D01*
X137287507Y-99900571D01*
X137361696Y-99678592D01*
X137407027Y-99581668D01*
X137500387Y-99398667D01*
X137583334Y-99398667D01*
X137614312Y-99468357D01*
X137639778Y-99455111D01*
X137649911Y-99354632D01*
X137639778Y-99342222D01*
X137589444Y-99353845D01*
X137583334Y-99398667D01*
X137500387Y-99398667D01*
X137581205Y-99240253D01*
X138217269Y-99454111D01*
G36*
X140148203Y-100208014D02*
G01*
X140242730Y-100319043D01*
X140237001Y-100400507D01*
X140215218Y-100492441D01*
X140266853Y-100435471D01*
X140281154Y-100415375D01*
X140387994Y-100343907D01*
X140484967Y-100433496D01*
X140564393Y-100675878D01*
X140575687Y-100732167D01*
X140597154Y-100919809D01*
X140547610Y-100993104D01*
X140438717Y-101001967D01*
X140201427Y-100964674D01*
X140064437Y-100921732D01*
X139944836Y-100847399D01*
X139926081Y-100781556D01*
X140151556Y-100781556D01*
X140163178Y-100831890D01*
X140208000Y-100838000D01*
X140277690Y-100807022D01*
X140264445Y-100781556D01*
X140163965Y-100771423D01*
X140151556Y-100781556D01*
X139926081Y-100781556D01*
X139908592Y-100720160D01*
X139928255Y-100524932D01*
X139966483Y-100293239D01*
X140003397Y-100190511D01*
X140065423Y-100178669D01*
X140148203Y-100208014D01*
G37*
X140148203Y-100208014D02*
X140242730Y-100319043D01*
X140237001Y-100400507D01*
X140215218Y-100492441D01*
X140266853Y-100435471D01*
X140281154Y-100415375D01*
X140387994Y-100343907D01*
X140484967Y-100433496D01*
X140564393Y-100675878D01*
X140575687Y-100732167D01*
X140597154Y-100919809D01*
X140547610Y-100993104D01*
X140438717Y-101001967D01*
X140201427Y-100964674D01*
X140064437Y-100921732D01*
X139944836Y-100847399D01*
X139926081Y-100781556D01*
X140151556Y-100781556D01*
X140163178Y-100831890D01*
X140208000Y-100838000D01*
X140277690Y-100807022D01*
X140264445Y-100781556D01*
X140163965Y-100771423D01*
X140151556Y-100781556D01*
X139926081Y-100781556D01*
X139908592Y-100720160D01*
X139928255Y-100524932D01*
X139966483Y-100293239D01*
X140003397Y-100190511D01*
X140065423Y-100178669D01*
X140148203Y-100208014D01*
G36*
X139132698Y-100189552D02*
G01*
X139163245Y-100200471D01*
X139416099Y-100289682D01*
X139625646Y-100360916D01*
X139655294Y-100370529D01*
X139765674Y-100423742D01*
X139721573Y-100486846D01*
X139697627Y-100502592D01*
X139629812Y-100568401D01*
X139678834Y-100582704D01*
X139758366Y-100656077D01*
X139784667Y-100795667D01*
X139760894Y-100921069D01*
X139670339Y-100986523D01*
X139484150Y-100997216D01*
X139173475Y-100958338D01*
X139022667Y-100932688D01*
X138856543Y-100880334D01*
X139615334Y-100880334D01*
X139657667Y-100922667D01*
X139700000Y-100880334D01*
X139657667Y-100838000D01*
X139615334Y-100880334D01*
X138856543Y-100880334D01*
X138829612Y-100871847D01*
X138736457Y-100789582D01*
X138734800Y-100774500D01*
X138746122Y-100611373D01*
X138755967Y-100452003D01*
X138792093Y-100309969D01*
X138852364Y-100287067D01*
X138900895Y-100273606D01*
X138887108Y-100211228D01*
X138874999Y-100137155D01*
X138945141Y-100130386D01*
X139132698Y-100189552D01*
G37*
X139132698Y-100189552D02*
X139163245Y-100200471D01*
X139416099Y-100289682D01*
X139625646Y-100360916D01*
X139655294Y-100370529D01*
X139765674Y-100423742D01*
X139721573Y-100486846D01*
X139697627Y-100502592D01*
X139629812Y-100568401D01*
X139678834Y-100582704D01*
X139758366Y-100656077D01*
X139784667Y-100795667D01*
X139760894Y-100921069D01*
X139670339Y-100986523D01*
X139484150Y-100997216D01*
X139173475Y-100958338D01*
X139022667Y-100932688D01*
X138856543Y-100880334D01*
X139615334Y-100880334D01*
X139657667Y-100922667D01*
X139700000Y-100880334D01*
X139657667Y-100838000D01*
X139615334Y-100880334D01*
X138856543Y-100880334D01*
X138829612Y-100871847D01*
X138736457Y-100789582D01*
X138734800Y-100774500D01*
X138746122Y-100611373D01*
X138755967Y-100452003D01*
X138792093Y-100309969D01*
X138852364Y-100287067D01*
X138900895Y-100273606D01*
X138887108Y-100211228D01*
X138874999Y-100137155D01*
X138945141Y-100130386D01*
X139132698Y-100189552D01*
G36*
X141077343Y-100800181D02*
G01*
X141206616Y-100911814D01*
X141224000Y-100974059D01*
X141160967Y-101073300D01*
X140985183Y-101063490D01*
X140906500Y-101035927D01*
X140821010Y-100945113D01*
X140818071Y-100922667D01*
X140970000Y-100922667D01*
X141000978Y-100992357D01*
X141026445Y-100979111D01*
X141036578Y-100878632D01*
X141026445Y-100866222D01*
X140976110Y-100877845D01*
X140970000Y-100922667D01*
X140818071Y-100922667D01*
X140805055Y-100823282D01*
X140866953Y-100754131D01*
X140878409Y-100753334D01*
X141077343Y-100800181D01*
G37*
X141077343Y-100800181D02*
X141206616Y-100911814D01*
X141224000Y-100974059D01*
X141160967Y-101073300D01*
X140985183Y-101063490D01*
X140906500Y-101035927D01*
X140821010Y-100945113D01*
X140818071Y-100922667D01*
X140970000Y-100922667D01*
X141000978Y-100992357D01*
X141026445Y-100979111D01*
X141036578Y-100878632D01*
X141026445Y-100866222D01*
X140976110Y-100877845D01*
X140970000Y-100922667D01*
X140818071Y-100922667D01*
X140805055Y-100823282D01*
X140866953Y-100754131D01*
X140878409Y-100753334D01*
X141077343Y-100800181D01*
G36*
X141176766Y-101235935D02*
G01*
X141335396Y-101423400D01*
X141385941Y-101538223D01*
X141433923Y-101700113D01*
X141379823Y-101760582D01*
X141219809Y-101769334D01*
X141011177Y-101728658D01*
X140894119Y-101579249D01*
X140883238Y-101552155D01*
X140871720Y-101515334D01*
X141054667Y-101515334D01*
X141085645Y-101585024D01*
X141111111Y-101571778D01*
X141121244Y-101471298D01*
X141111111Y-101458889D01*
X141060777Y-101470511D01*
X141054667Y-101515334D01*
X140871720Y-101515334D01*
X140811718Y-101323530D01*
X140827189Y-101209997D01*
X140935532Y-101178002D01*
X140948834Y-101177963D01*
X141176766Y-101235935D01*
G37*
X141176766Y-101235935D02*
X141335396Y-101423400D01*
X141385941Y-101538223D01*
X141433923Y-101700113D01*
X141379823Y-101760582D01*
X141219809Y-101769334D01*
X141011177Y-101728658D01*
X140894119Y-101579249D01*
X140883238Y-101552155D01*
X140871720Y-101515334D01*
X141054667Y-101515334D01*
X141085645Y-101585024D01*
X141111111Y-101571778D01*
X141121244Y-101471298D01*
X141111111Y-101458889D01*
X141060777Y-101470511D01*
X141054667Y-101515334D01*
X140871720Y-101515334D01*
X140811718Y-101323530D01*
X140827189Y-101209997D01*
X140935532Y-101178002D01*
X140948834Y-101177963D01*
X141176766Y-101235935D01*
G36*
X141221540Y-101918429D02*
G01*
X141224000Y-101938667D01*
X141159571Y-102020873D01*
X141139334Y-102023334D01*
X141057127Y-101958904D01*
X141054667Y-101938667D01*
X141119096Y-101856460D01*
X141139334Y-101854000D01*
X141221540Y-101918429D01*
G37*
X141221540Y-101918429D02*
X141224000Y-101938667D01*
X141159571Y-102020873D01*
X141139334Y-102023334D01*
X141057127Y-101958904D01*
X141054667Y-101938667D01*
X141119096Y-101856460D01*
X141139334Y-101854000D01*
X141221540Y-101918429D01*
G36*
X139140451Y-101055165D02*
G01*
X139459148Y-101096321D01*
X139647256Y-101146150D01*
X139742363Y-101233054D01*
X139782062Y-101385434D01*
X139797432Y-101551551D01*
X139828220Y-101938667D01*
X139390035Y-101938667D01*
X139113429Y-101947584D01*
X138895959Y-101970313D01*
X138826489Y-101986772D01*
X138690681Y-101987900D01*
X138652775Y-101956640D01*
X138634501Y-101833508D01*
X138635098Y-101811667D01*
X138768667Y-101811667D01*
X138811000Y-101854000D01*
X138853334Y-101811667D01*
X139615334Y-101811667D01*
X139657667Y-101854000D01*
X139700000Y-101811667D01*
X139657667Y-101769334D01*
X139615334Y-101811667D01*
X138853334Y-101811667D01*
X138811000Y-101769334D01*
X138768667Y-101811667D01*
X138635098Y-101811667D01*
X138640772Y-101604403D01*
X138656162Y-101441537D01*
X138672490Y-101303667D01*
X139615334Y-101303667D01*
X139657667Y-101346000D01*
X139700000Y-101303667D01*
X139657667Y-101261334D01*
X139615334Y-101303667D01*
X138672490Y-101303667D01*
X138692545Y-101134334D01*
X138768667Y-101134334D01*
X138811000Y-101176667D01*
X138853334Y-101134334D01*
X138811000Y-101092000D01*
X138768667Y-101134334D01*
X138692545Y-101134334D01*
X138707902Y-101004672D01*
X139140451Y-101055165D01*
G37*
X139140451Y-101055165D02*
X139459148Y-101096321D01*
X139647256Y-101146150D01*
X139742363Y-101233054D01*
X139782062Y-101385434D01*
X139797432Y-101551551D01*
X139828220Y-101938667D01*
X139390035Y-101938667D01*
X139113429Y-101947584D01*
X138895959Y-101970313D01*
X138826489Y-101986772D01*
X138690681Y-101987900D01*
X138652775Y-101956640D01*
X138634501Y-101833508D01*
X138635098Y-101811667D01*
X138768667Y-101811667D01*
X138811000Y-101854000D01*
X138853334Y-101811667D01*
X139615334Y-101811667D01*
X139657667Y-101854000D01*
X139700000Y-101811667D01*
X139657667Y-101769334D01*
X139615334Y-101811667D01*
X138853334Y-101811667D01*
X138811000Y-101769334D01*
X138768667Y-101811667D01*
X138635098Y-101811667D01*
X138640772Y-101604403D01*
X138656162Y-101441537D01*
X138672490Y-101303667D01*
X139615334Y-101303667D01*
X139657667Y-101346000D01*
X139700000Y-101303667D01*
X139657667Y-101261334D01*
X139615334Y-101303667D01*
X138672490Y-101303667D01*
X138692545Y-101134334D01*
X138768667Y-101134334D01*
X138811000Y-101176667D01*
X138853334Y-101134334D01*
X138811000Y-101092000D01*
X138768667Y-101134334D01*
X138692545Y-101134334D01*
X138707902Y-101004672D01*
X139140451Y-101055165D01*
G36*
X140010954Y-101070515D02*
G01*
X140007553Y-101113167D01*
X140004165Y-101172636D01*
X140017265Y-101155500D01*
X140126576Y-101103569D01*
X140312536Y-101099132D01*
X140489368Y-101141805D01*
X140518952Y-101157746D01*
X140597636Y-101265858D01*
X140702147Y-101479127D01*
X140808143Y-101740982D01*
X140891281Y-101994850D01*
X140908739Y-102063657D01*
X140850555Y-102135767D01*
X140631261Y-102157711D01*
X140281177Y-102132992D01*
X140067994Y-102088579D01*
X140044696Y-102065667D01*
X140716000Y-102065667D01*
X140758334Y-102108000D01*
X140800667Y-102065667D01*
X140758334Y-102023334D01*
X140716000Y-102065667D01*
X140044696Y-102065667D01*
X139964159Y-101986465D01*
X139962574Y-101981000D01*
X140038667Y-101981000D01*
X140081000Y-102023334D01*
X140123334Y-101981000D01*
X140081000Y-101938667D01*
X140038667Y-101981000D01*
X139962574Y-101981000D01*
X139921343Y-101838883D01*
X139879828Y-101542001D01*
X139873215Y-101303667D01*
X140462000Y-101303667D01*
X140504334Y-101346000D01*
X140546667Y-101303667D01*
X140504334Y-101261334D01*
X140462000Y-101303667D01*
X139873215Y-101303667D01*
X139872376Y-101273442D01*
X139897310Y-101079727D01*
X139951343Y-101007334D01*
X140010954Y-101070515D01*
G37*
X140010954Y-101070515D02*
X140007553Y-101113167D01*
X140004165Y-101172636D01*
X140017265Y-101155500D01*
X140126576Y-101103569D01*
X140312536Y-101099132D01*
X140489368Y-101141805D01*
X140518952Y-101157746D01*
X140597636Y-101265858D01*
X140702147Y-101479127D01*
X140808143Y-101740982D01*
X140891281Y-101994850D01*
X140908739Y-102063657D01*
X140850555Y-102135767D01*
X140631261Y-102157711D01*
X140281177Y-102132992D01*
X140067994Y-102088579D01*
X140044696Y-102065667D01*
X140716000Y-102065667D01*
X140758334Y-102108000D01*
X140800667Y-102065667D01*
X140758334Y-102023334D01*
X140716000Y-102065667D01*
X140044696Y-102065667D01*
X139964159Y-101986465D01*
X139962574Y-101981000D01*
X140038667Y-101981000D01*
X140081000Y-102023334D01*
X140123334Y-101981000D01*
X140081000Y-101938667D01*
X140038667Y-101981000D01*
X139962574Y-101981000D01*
X139921343Y-101838883D01*
X139879828Y-101542001D01*
X139873215Y-101303667D01*
X140462000Y-101303667D01*
X140504334Y-101346000D01*
X140546667Y-101303667D01*
X140504334Y-101261334D01*
X140462000Y-101303667D01*
X139873215Y-101303667D01*
X139872376Y-101273442D01*
X139897310Y-101079727D01*
X139951343Y-101007334D01*
X140010954Y-101070515D01*
G36*
X141550088Y-101998784D02*
G01*
X141694051Y-102144706D01*
X141828797Y-102324787D01*
X141915246Y-102487383D01*
X141918839Y-102576791D01*
X141918312Y-102605183D01*
X141958983Y-102585860D01*
X142081279Y-102584272D01*
X142112147Y-102614619D01*
X142075164Y-102671745D01*
X141893426Y-102699215D01*
X141820419Y-102700667D01*
X141578653Y-102680049D01*
X141426976Y-102590933D01*
X141404347Y-102559556D01*
X141506222Y-102559556D01*
X141517845Y-102609890D01*
X141562667Y-102616000D01*
X141632357Y-102585022D01*
X141619111Y-102559556D01*
X141518632Y-102549423D01*
X141506222Y-102559556D01*
X141404347Y-102559556D01*
X141310900Y-102429985D01*
X141216591Y-102190778D01*
X141239867Y-102065667D01*
X141478000Y-102065667D01*
X141520334Y-102108000D01*
X141562667Y-102065667D01*
X141520334Y-102023334D01*
X141478000Y-102065667D01*
X141239867Y-102065667D01*
X141248717Y-102018104D01*
X141400042Y-101940391D01*
X141435985Y-101938667D01*
X141550088Y-101998784D01*
G37*
X141550088Y-101998784D02*
X141694051Y-102144706D01*
X141828797Y-102324787D01*
X141915246Y-102487383D01*
X141918839Y-102576791D01*
X141918312Y-102605183D01*
X141958983Y-102585860D01*
X142081279Y-102584272D01*
X142112147Y-102614619D01*
X142075164Y-102671745D01*
X141893426Y-102699215D01*
X141820419Y-102700667D01*
X141578653Y-102680049D01*
X141426976Y-102590933D01*
X141404347Y-102559556D01*
X141506222Y-102559556D01*
X141517845Y-102609890D01*
X141562667Y-102616000D01*
X141632357Y-102585022D01*
X141619111Y-102559556D01*
X141518632Y-102549423D01*
X141506222Y-102559556D01*
X141404347Y-102559556D01*
X141310900Y-102429985D01*
X141216591Y-102190778D01*
X141239867Y-102065667D01*
X141478000Y-102065667D01*
X141520334Y-102108000D01*
X141562667Y-102065667D01*
X141520334Y-102023334D01*
X141478000Y-102065667D01*
X141239867Y-102065667D01*
X141248717Y-102018104D01*
X141400042Y-101940391D01*
X141435985Y-101938667D01*
X141550088Y-101998784D01*
G36*
X162472306Y-101030244D02*
G01*
X162691123Y-101108432D01*
X162795571Y-101256087D01*
X162814000Y-101405267D01*
X162782771Y-101545375D01*
X162656311Y-101596205D01*
X162560000Y-101600000D01*
X162381617Y-101578324D01*
X162306018Y-101526102D01*
X162306000Y-101525208D01*
X162234881Y-101444159D01*
X162074969Y-101397484D01*
X161906430Y-101408312D01*
X161903834Y-101409169D01*
X161806686Y-101505964D01*
X161829850Y-101637904D01*
X161931925Y-101717942D01*
X162108406Y-101754072D01*
X162346443Y-101769331D01*
X162349211Y-101769334D01*
X162586346Y-101807758D01*
X162763585Y-101900379D01*
X162765619Y-101902381D01*
X162862575Y-102091568D01*
X162895947Y-102351726D01*
X162865657Y-102607916D01*
X162771628Y-102785198D01*
X162766534Y-102789593D01*
X162572348Y-102874109D01*
X162279948Y-102922136D01*
X161957188Y-102930296D01*
X161671918Y-102895211D01*
X161544000Y-102850451D01*
X161356371Y-102665991D01*
X161305543Y-102508205D01*
X161307167Y-102344678D01*
X161397557Y-102284420D01*
X161529318Y-102277334D01*
X161738718Y-102320587D01*
X161830794Y-102410004D01*
X161942072Y-102502121D01*
X162121379Y-102515755D01*
X162291306Y-102459152D01*
X162372781Y-102352272D01*
X162349706Y-102264367D01*
X162219421Y-102203822D01*
X161952289Y-102156329D01*
X161616144Y-102095101D01*
X161415988Y-102001251D01*
X161318488Y-101844278D01*
X161290310Y-101593680D01*
X161290000Y-101550279D01*
X161315027Y-101296838D01*
X161409025Y-101134856D01*
X161600371Y-101045639D01*
X161917444Y-101010492D01*
X162114167Y-101007334D01*
X162472306Y-101030244D01*
G37*
X162472306Y-101030244D02*
X162691123Y-101108432D01*
X162795571Y-101256087D01*
X162814000Y-101405267D01*
X162782771Y-101545375D01*
X162656311Y-101596205D01*
X162560000Y-101600000D01*
X162381617Y-101578324D01*
X162306018Y-101526102D01*
X162306000Y-101525208D01*
X162234881Y-101444159D01*
X162074969Y-101397484D01*
X161906430Y-101408312D01*
X161903834Y-101409169D01*
X161806686Y-101505964D01*
X161829850Y-101637904D01*
X161931925Y-101717942D01*
X162108406Y-101754072D01*
X162346443Y-101769331D01*
X162349211Y-101769334D01*
X162586346Y-101807758D01*
X162763585Y-101900379D01*
X162765619Y-101902381D01*
X162862575Y-102091568D01*
X162895947Y-102351726D01*
X162865657Y-102607916D01*
X162771628Y-102785198D01*
X162766534Y-102789593D01*
X162572348Y-102874109D01*
X162279948Y-102922136D01*
X161957188Y-102930296D01*
X161671918Y-102895211D01*
X161544000Y-102850451D01*
X161356371Y-102665991D01*
X161305543Y-102508205D01*
X161307167Y-102344678D01*
X161397557Y-102284420D01*
X161529318Y-102277334D01*
X161738718Y-102320587D01*
X161830794Y-102410004D01*
X161942072Y-102502121D01*
X162121379Y-102515755D01*
X162291306Y-102459152D01*
X162372781Y-102352272D01*
X162349706Y-102264367D01*
X162219421Y-102203822D01*
X161952289Y-102156329D01*
X161616144Y-102095101D01*
X161415988Y-102001251D01*
X161318488Y-101844278D01*
X161290310Y-101593680D01*
X161290000Y-101550279D01*
X161315027Y-101296838D01*
X161409025Y-101134856D01*
X161600371Y-101045639D01*
X161917444Y-101010492D01*
X162114167Y-101007334D01*
X162472306Y-101030244D01*
G36*
X159851963Y-101621167D02*
G01*
X159863099Y-102011328D01*
X159903059Y-102259632D01*
X159984655Y-102392799D01*
X160120696Y-102437545D01*
X160240854Y-102432280D01*
X160485667Y-102404334D01*
X160510258Y-101705834D01*
X160534848Y-101007334D01*
X161036000Y-101007334D01*
X161036000Y-101798545D01*
X161031310Y-102182791D01*
X161012678Y-102436187D01*
X160973258Y-102597068D01*
X160906209Y-102703767D01*
X160867525Y-102742224D01*
X160659530Y-102848489D01*
X160357016Y-102914174D01*
X160031661Y-102931131D01*
X159755144Y-102891213D01*
X159708035Y-102874012D01*
X159542469Y-102767368D01*
X159433165Y-102595824D01*
X159370478Y-102329247D01*
X159344763Y-101937507D01*
X159342667Y-101732566D01*
X159342667Y-101007334D01*
X159850667Y-101007334D01*
X159851963Y-101621167D01*
G37*
X159851963Y-101621167D02*
X159863099Y-102011328D01*
X159903059Y-102259632D01*
X159984655Y-102392799D01*
X160120696Y-102437545D01*
X160240854Y-102432280D01*
X160485667Y-102404334D01*
X160510258Y-101705834D01*
X160534848Y-101007334D01*
X161036000Y-101007334D01*
X161036000Y-101798545D01*
X161031310Y-102182791D01*
X161012678Y-102436187D01*
X160973258Y-102597068D01*
X160906209Y-102703767D01*
X160867525Y-102742224D01*
X160659530Y-102848489D01*
X160357016Y-102914174D01*
X160031661Y-102931131D01*
X159755144Y-102891213D01*
X159708035Y-102874012D01*
X159542469Y-102767368D01*
X159433165Y-102595824D01*
X159370478Y-102329247D01*
X159344763Y-101937507D01*
X159342667Y-101732566D01*
X159342667Y-101007334D01*
X159850667Y-101007334D01*
X159851963Y-101621167D01*
G36*
X158411334Y-102446667D02*
G01*
X158792334Y-102446667D01*
X159026616Y-102454030D01*
X159137580Y-102496543D01*
X159171180Y-102604843D01*
X159173334Y-102700667D01*
X159173334Y-102954667D01*
X157903334Y-102954667D01*
X157903334Y-101007334D01*
X158411334Y-101007334D01*
X158411334Y-102446667D01*
G37*
X158411334Y-102446667D02*
X158792334Y-102446667D01*
X159026616Y-102454030D01*
X159137580Y-102496543D01*
X159171180Y-102604843D01*
X159173334Y-102700667D01*
X159173334Y-102954667D01*
X157903334Y-102954667D01*
X157903334Y-101007334D01*
X158411334Y-101007334D01*
X158411334Y-102446667D01*
G36*
X157466364Y-101917977D02*
G01*
X157573683Y-102288453D01*
X157660486Y-102598235D01*
X157717023Y-102811842D01*
X157734000Y-102891644D01*
X157669753Y-102955261D01*
X157519643Y-102952826D01*
X157347615Y-102897223D01*
X157217617Y-102801335D01*
X157206351Y-102785334D01*
X157051223Y-102655501D01*
X156785279Y-102616000D01*
X156531765Y-102650415D01*
X156390292Y-102766265D01*
X156379334Y-102785334D01*
X156254124Y-102905754D01*
X156085824Y-102955080D01*
X155937290Y-102929055D01*
X155871379Y-102823422D01*
X155871334Y-102819734D01*
X155895469Y-102685494D01*
X155960562Y-102431081D01*
X156055637Y-102097499D01*
X156064517Y-102068223D01*
X156611891Y-102068223D01*
X156624148Y-102165300D01*
X156715055Y-102191640D01*
X156778824Y-102192667D01*
X156915922Y-102175682D01*
X156954411Y-102091240D01*
X156927474Y-101917500D01*
X156858918Y-101668908D01*
X156791159Y-101588712D01*
X156720510Y-101676035D01*
X156662470Y-101854441D01*
X156611891Y-102068223D01*
X156064517Y-102068223D01*
X156131908Y-101846067D01*
X156392483Y-101007334D01*
X157198729Y-101007334D01*
X157466364Y-101917977D01*
G37*
X157466364Y-101917977D02*
X157573683Y-102288453D01*
X157660486Y-102598235D01*
X157717023Y-102811842D01*
X157734000Y-102891644D01*
X157669753Y-102955261D01*
X157519643Y-102952826D01*
X157347615Y-102897223D01*
X157217617Y-102801335D01*
X157206351Y-102785334D01*
X157051223Y-102655501D01*
X156785279Y-102616000D01*
X156531765Y-102650415D01*
X156390292Y-102766265D01*
X156379334Y-102785334D01*
X156254124Y-102905754D01*
X156085824Y-102955080D01*
X155937290Y-102929055D01*
X155871379Y-102823422D01*
X155871334Y-102819734D01*
X155895469Y-102685494D01*
X155960562Y-102431081D01*
X156055637Y-102097499D01*
X156064517Y-102068223D01*
X156611891Y-102068223D01*
X156624148Y-102165300D01*
X156715055Y-102191640D01*
X156778824Y-102192667D01*
X156915922Y-102175682D01*
X156954411Y-102091240D01*
X156927474Y-101917500D01*
X156858918Y-101668908D01*
X156791159Y-101588712D01*
X156720510Y-101676035D01*
X156662470Y-101854441D01*
X156611891Y-102068223D01*
X156064517Y-102068223D01*
X156131908Y-101846067D01*
X156392483Y-101007334D01*
X157198729Y-101007334D01*
X157466364Y-101917977D01*
G36*
X154425534Y-101020707D02*
G01*
X154497935Y-101093180D01*
X154516266Y-101273278D01*
X154516667Y-101346000D01*
X154516667Y-101684667D01*
X155194000Y-101684667D01*
X155194000Y-101346000D01*
X155203951Y-101128880D01*
X155258346Y-101032362D01*
X155394003Y-101007889D01*
X155450773Y-101007334D01*
X155707546Y-101007334D01*
X155683606Y-101959834D01*
X155659667Y-102912334D01*
X155426834Y-102939124D01*
X155284531Y-102944429D01*
X155216530Y-102888767D01*
X155195477Y-102729869D01*
X155194000Y-102579291D01*
X155194000Y-102192667D01*
X154516667Y-102192667D01*
X154516667Y-102573667D01*
X154507272Y-102809382D01*
X154463555Y-102921053D01*
X154362221Y-102953609D01*
X154319111Y-102954667D01*
X154141302Y-102932781D01*
X154065111Y-102898222D01*
X154042125Y-102795263D01*
X154023650Y-102560302D01*
X154011849Y-102230656D01*
X154008667Y-101924556D01*
X154008667Y-101007334D01*
X154262667Y-101007334D01*
X154425534Y-101020707D01*
G37*
X154425534Y-101020707D02*
X154497935Y-101093180D01*
X154516266Y-101273278D01*
X154516667Y-101346000D01*
X154516667Y-101684667D01*
X155194000Y-101684667D01*
X155194000Y-101346000D01*
X155203951Y-101128880D01*
X155258346Y-101032362D01*
X155394003Y-101007889D01*
X155450773Y-101007334D01*
X155707546Y-101007334D01*
X155683606Y-101959834D01*
X155659667Y-102912334D01*
X155426834Y-102939124D01*
X155284531Y-102944429D01*
X155216530Y-102888767D01*
X155195477Y-102729869D01*
X155194000Y-102579291D01*
X155194000Y-102192667D01*
X154516667Y-102192667D01*
X154516667Y-102573667D01*
X154507272Y-102809382D01*
X154463555Y-102921053D01*
X154362221Y-102953609D01*
X154319111Y-102954667D01*
X154141302Y-102932781D01*
X154065111Y-102898222D01*
X154042125Y-102795263D01*
X154023650Y-102560302D01*
X154011849Y-102230656D01*
X154008667Y-101924556D01*
X154008667Y-101007334D01*
X154262667Y-101007334D01*
X154425534Y-101020707D01*
G36*
X153281897Y-101031117D02*
G01*
X153571796Y-101099279D01*
X153745334Y-101245694D01*
X153825834Y-101486568D01*
X153839334Y-101710818D01*
X153804475Y-102050839D01*
X153681481Y-102264902D01*
X153442722Y-102383003D01*
X153180841Y-102425724D01*
X152923384Y-102459166D01*
X152789788Y-102512622D01*
X152734691Y-102612209D01*
X152722127Y-102689828D01*
X152659090Y-102864755D01*
X152491801Y-102935412D01*
X152463500Y-102939124D01*
X152293215Y-102936973D01*
X152224910Y-102896791D01*
X152222159Y-102788016D01*
X152219258Y-102548608D01*
X152216606Y-102217267D01*
X152215053Y-101938667D01*
X152213881Y-101684667D01*
X152738667Y-101684667D01*
X152759646Y-101864575D01*
X152858607Y-101930885D01*
X152992667Y-101938667D01*
X153172575Y-101917688D01*
X153238885Y-101818727D01*
X153246667Y-101684667D01*
X153225688Y-101504759D01*
X153126727Y-101438448D01*
X152992667Y-101430667D01*
X152812759Y-101451646D01*
X152746448Y-101550607D01*
X152738667Y-101684667D01*
X152213881Y-101684667D01*
X152210951Y-101049667D01*
X152852310Y-101025002D01*
X153281897Y-101031117D01*
G37*
X153281897Y-101031117D02*
X153571796Y-101099279D01*
X153745334Y-101245694D01*
X153825834Y-101486568D01*
X153839334Y-101710818D01*
X153804475Y-102050839D01*
X153681481Y-102264902D01*
X153442722Y-102383003D01*
X153180841Y-102425724D01*
X152923384Y-102459166D01*
X152789788Y-102512622D01*
X152734691Y-102612209D01*
X152722127Y-102689828D01*
X152659090Y-102864755D01*
X152491801Y-102935412D01*
X152463500Y-102939124D01*
X152293215Y-102936973D01*
X152224910Y-102896791D01*
X152222159Y-102788016D01*
X152219258Y-102548608D01*
X152216606Y-102217267D01*
X152215053Y-101938667D01*
X152213881Y-101684667D01*
X152738667Y-101684667D01*
X152759646Y-101864575D01*
X152858607Y-101930885D01*
X152992667Y-101938667D01*
X153172575Y-101917688D01*
X153238885Y-101818727D01*
X153246667Y-101684667D01*
X153225688Y-101504759D01*
X153126727Y-101438448D01*
X152992667Y-101430667D01*
X152812759Y-101451646D01*
X152746448Y-101550607D01*
X152738667Y-101684667D01*
X152213881Y-101684667D01*
X152210951Y-101049667D01*
X152852310Y-101025002D01*
X153281897Y-101031117D01*
G36*
X151605496Y-101009277D02*
G01*
X151818186Y-101021681D01*
X151928593Y-101054406D01*
X151970245Y-101117312D01*
X151976667Y-101219000D01*
X151964579Y-101340226D01*
X151900690Y-101403347D01*
X151743563Y-101427199D01*
X151511000Y-101430667D01*
X151241892Y-101438017D01*
X151101702Y-101469795D01*
X151050300Y-101540593D01*
X151045334Y-101600000D01*
X151067622Y-101701567D01*
X151162224Y-101752222D01*
X151370750Y-101768609D01*
X151468667Y-101769334D01*
X151722584Y-101778249D01*
X151849222Y-101816090D01*
X151890189Y-101899500D01*
X151892000Y-101938667D01*
X151869712Y-102040234D01*
X151775109Y-102090889D01*
X151566583Y-102107276D01*
X151468667Y-102108000D01*
X151214188Y-102117216D01*
X151087310Y-102155570D01*
X151046810Y-102239121D01*
X151045334Y-102272909D01*
X151071088Y-102372261D01*
X151174869Y-102428061D01*
X151396451Y-102457356D01*
X151489834Y-102463409D01*
X151749329Y-102485291D01*
X151881690Y-102527128D01*
X151929097Y-102611434D01*
X151934334Y-102700667D01*
X151925532Y-102808439D01*
X151875454Y-102873468D01*
X151748587Y-102908878D01*
X151509418Y-102927793D01*
X151295527Y-102936749D01*
X150980938Y-102941087D01*
X150735018Y-102930174D01*
X150604205Y-102906356D01*
X150597027Y-102901471D01*
X150572709Y-102797119D01*
X150553166Y-102560937D01*
X150540689Y-102230408D01*
X150537334Y-101924556D01*
X150537334Y-101007334D01*
X151257000Y-101007334D01*
X151605496Y-101009277D01*
G37*
X151605496Y-101009277D02*
X151818186Y-101021681D01*
X151928593Y-101054406D01*
X151970245Y-101117312D01*
X151976667Y-101219000D01*
X151964579Y-101340226D01*
X151900690Y-101403347D01*
X151743563Y-101427199D01*
X151511000Y-101430667D01*
X151241892Y-101438017D01*
X151101702Y-101469795D01*
X151050300Y-101540593D01*
X151045334Y-101600000D01*
X151067622Y-101701567D01*
X151162224Y-101752222D01*
X151370750Y-101768609D01*
X151468667Y-101769334D01*
X151722584Y-101778249D01*
X151849222Y-101816090D01*
X151890189Y-101899500D01*
X151892000Y-101938667D01*
X151869712Y-102040234D01*
X151775109Y-102090889D01*
X151566583Y-102107276D01*
X151468667Y-102108000D01*
X151214188Y-102117216D01*
X151087310Y-102155570D01*
X151046810Y-102239121D01*
X151045334Y-102272909D01*
X151071088Y-102372261D01*
X151174869Y-102428061D01*
X151396451Y-102457356D01*
X151489834Y-102463409D01*
X151749329Y-102485291D01*
X151881690Y-102527128D01*
X151929097Y-102611434D01*
X151934334Y-102700667D01*
X151925532Y-102808439D01*
X151875454Y-102873468D01*
X151748587Y-102908878D01*
X151509418Y-102927793D01*
X151295527Y-102936749D01*
X150980938Y-102941087D01*
X150735018Y-102930174D01*
X150604205Y-102906356D01*
X150597027Y-102901471D01*
X150572709Y-102797119D01*
X150553166Y-102560937D01*
X150540689Y-102230408D01*
X150537334Y-101924556D01*
X150537334Y-101007334D01*
X151257000Y-101007334D01*
X151605496Y-101009277D01*
G36*
X149883794Y-101017499D02*
G01*
X150068774Y-101053231D01*
X150184933Y-101131347D01*
X150236199Y-101195506D01*
X150359958Y-101438475D01*
X150343888Y-101604091D01*
X150190647Y-101680733D01*
X150124367Y-101684667D01*
X149909501Y-101642908D01*
X149775334Y-101557667D01*
X149585986Y-101442210D01*
X149373308Y-101468379D01*
X149284267Y-101532267D01*
X149212471Y-101693516D01*
X149183810Y-101942111D01*
X149203277Y-102200414D01*
X149234059Y-102312742D01*
X149348967Y-102412344D01*
X149539544Y-102445632D01*
X149727045Y-102411690D01*
X149829382Y-102319667D01*
X149944206Y-102224901D01*
X150123059Y-102192667D01*
X150301695Y-102218805D01*
X150363687Y-102322212D01*
X150366704Y-102383167D01*
X150293271Y-102661294D01*
X150077884Y-102847788D01*
X149721299Y-102942161D01*
X149480718Y-102954667D01*
X149186768Y-102928043D01*
X148977480Y-102829391D01*
X148873491Y-102737854D01*
X148761847Y-102611890D01*
X148700149Y-102481323D01*
X148677480Y-102296373D01*
X148682922Y-102007262D01*
X148688357Y-101893723D01*
X148725154Y-101497359D01*
X148807276Y-101240200D01*
X148964392Y-101092841D01*
X149226171Y-101025879D01*
X149580033Y-101010026D01*
X149883794Y-101017499D01*
G37*
X149883794Y-101017499D02*
X150068774Y-101053231D01*
X150184933Y-101131347D01*
X150236199Y-101195506D01*
X150359958Y-101438475D01*
X150343888Y-101604091D01*
X150190647Y-101680733D01*
X150124367Y-101684667D01*
X149909501Y-101642908D01*
X149775334Y-101557667D01*
X149585986Y-101442210D01*
X149373308Y-101468379D01*
X149284267Y-101532267D01*
X149212471Y-101693516D01*
X149183810Y-101942111D01*
X149203277Y-102200414D01*
X149234059Y-102312742D01*
X149348967Y-102412344D01*
X149539544Y-102445632D01*
X149727045Y-102411690D01*
X149829382Y-102319667D01*
X149944206Y-102224901D01*
X150123059Y-102192667D01*
X150301695Y-102218805D01*
X150363687Y-102322212D01*
X150366704Y-102383167D01*
X150293271Y-102661294D01*
X150077884Y-102847788D01*
X149721299Y-102942161D01*
X149480718Y-102954667D01*
X149186768Y-102928043D01*
X148977480Y-102829391D01*
X148873491Y-102737854D01*
X148761847Y-102611890D01*
X148700149Y-102481323D01*
X148677480Y-102296373D01*
X148682922Y-102007262D01*
X148688357Y-101893723D01*
X148725154Y-101497359D01*
X148807276Y-101240200D01*
X148964392Y-101092841D01*
X149226171Y-101025879D01*
X149580033Y-101010026D01*
X149883794Y-101017499D01*
G36*
X147320000Y-102457396D02*
G01*
X147870334Y-102404334D01*
X147894924Y-101705834D01*
X147919515Y-101007334D01*
X148420667Y-101007334D01*
X148420667Y-101795485D01*
X148408104Y-102237168D01*
X148372109Y-102555394D01*
X148315219Y-102727788D01*
X148314834Y-102728319D01*
X148162160Y-102824397D01*
X147901101Y-102892516D01*
X147591422Y-102924692D01*
X147292889Y-102912942D01*
X147151344Y-102883746D01*
X146960057Y-102776050D01*
X146831263Y-102573462D01*
X146756983Y-102253752D01*
X146729237Y-101794688D01*
X146728582Y-101705834D01*
X146727334Y-101007334D01*
X147320000Y-101007334D01*
X147320000Y-102457396D01*
G37*
X147320000Y-102457396D02*
X147870334Y-102404334D01*
X147894924Y-101705834D01*
X147919515Y-101007334D01*
X148420667Y-101007334D01*
X148420667Y-101795485D01*
X148408104Y-102237168D01*
X148372109Y-102555394D01*
X148315219Y-102727788D01*
X148314834Y-102728319D01*
X148162160Y-102824397D01*
X147901101Y-102892516D01*
X147591422Y-102924692D01*
X147292889Y-102912942D01*
X147151344Y-102883746D01*
X146960057Y-102776050D01*
X146831263Y-102573462D01*
X146756983Y-102253752D01*
X146729237Y-101794688D01*
X146728582Y-101705834D01*
X146727334Y-101007334D01*
X147320000Y-101007334D01*
X147320000Y-102457396D01*
G36*
X145934720Y-101010636D02*
G01*
X146158598Y-101027500D01*
X146294857Y-101068360D01*
X146384342Y-101143649D01*
X146444385Y-101227545D01*
X146537279Y-101418726D01*
X146524723Y-101606199D01*
X146489369Y-101710845D01*
X146436078Y-101952323D01*
X146474033Y-102057899D01*
X146545245Y-102226548D01*
X146550833Y-102464602D01*
X146496299Y-102687794D01*
X146426292Y-102789241D01*
X146286374Y-102843632D01*
X146037220Y-102890648D01*
X145729603Y-102926299D01*
X145414296Y-102946592D01*
X145142071Y-102947538D01*
X144963700Y-102925144D01*
X144928167Y-102907008D01*
X144902282Y-102800280D01*
X144881486Y-102562013D01*
X144870112Y-102277334D01*
X145457334Y-102277334D01*
X145483900Y-102399698D01*
X145595917Y-102437884D01*
X145732500Y-102430865D01*
X145943168Y-102374210D01*
X146007667Y-102277334D01*
X145928925Y-102172510D01*
X145732500Y-102123802D01*
X145541591Y-102122780D01*
X145466731Y-102188863D01*
X145457334Y-102277334D01*
X144870112Y-102277334D01*
X144868219Y-102229979D01*
X144864667Y-101924556D01*
X144864667Y-101600000D01*
X145457334Y-101600000D01*
X145497249Y-101723947D01*
X145645766Y-101767587D01*
X145711334Y-101769334D01*
X145897254Y-101742723D01*
X145962713Y-101643712D01*
X145965334Y-101600000D01*
X145925418Y-101476053D01*
X145776901Y-101432414D01*
X145711334Y-101430667D01*
X145525413Y-101457277D01*
X145459954Y-101556289D01*
X145457334Y-101600000D01*
X144864667Y-101600000D01*
X144864667Y-101007334D01*
X145582382Y-101007334D01*
X145934720Y-101010636D01*
G37*
X145934720Y-101010636D02*
X146158598Y-101027500D01*
X146294857Y-101068360D01*
X146384342Y-101143649D01*
X146444385Y-101227545D01*
X146537279Y-101418726D01*
X146524723Y-101606199D01*
X146489369Y-101710845D01*
X146436078Y-101952323D01*
X146474033Y-102057899D01*
X146545245Y-102226548D01*
X146550833Y-102464602D01*
X146496299Y-102687794D01*
X146426292Y-102789241D01*
X146286374Y-102843632D01*
X146037220Y-102890648D01*
X145729603Y-102926299D01*
X145414296Y-102946592D01*
X145142071Y-102947538D01*
X144963700Y-102925144D01*
X144928167Y-102907008D01*
X144902282Y-102800280D01*
X144881486Y-102562013D01*
X144870112Y-102277334D01*
X145457334Y-102277334D01*
X145483900Y-102399698D01*
X145595917Y-102437884D01*
X145732500Y-102430865D01*
X145943168Y-102374210D01*
X146007667Y-102277334D01*
X145928925Y-102172510D01*
X145732500Y-102123802D01*
X145541591Y-102122780D01*
X145466731Y-102188863D01*
X145457334Y-102277334D01*
X144870112Y-102277334D01*
X144868219Y-102229979D01*
X144864667Y-101924556D01*
X144864667Y-101600000D01*
X145457334Y-101600000D01*
X145497249Y-101723947D01*
X145645766Y-101767587D01*
X145711334Y-101769334D01*
X145897254Y-101742723D01*
X145962713Y-101643712D01*
X145965334Y-101600000D01*
X145925418Y-101476053D01*
X145776901Y-101432414D01*
X145711334Y-101430667D01*
X145525413Y-101457277D01*
X145459954Y-101556289D01*
X145457334Y-101600000D01*
X144864667Y-101600000D01*
X144864667Y-101007334D01*
X145582382Y-101007334D01*
X145934720Y-101010636D01*
G36*
X140766348Y-102285058D02*
G01*
X140947970Y-102310133D01*
X141059200Y-102375950D01*
X141149455Y-102499947D01*
X141168301Y-102531507D01*
X141255640Y-102723854D01*
X141271332Y-102859294D01*
X141266825Y-102869204D01*
X141279281Y-102924721D01*
X141325436Y-102918609D01*
X141438913Y-102958337D01*
X141608934Y-103097257D01*
X141720654Y-103215912D01*
X142005641Y-103547334D01*
X140553805Y-103547334D01*
X140472847Y-103406222D01*
X140659556Y-103406222D01*
X140671178Y-103456557D01*
X140716000Y-103462667D01*
X140785690Y-103431689D01*
X140772445Y-103406222D01*
X141675556Y-103406222D01*
X141687178Y-103456557D01*
X141732000Y-103462667D01*
X141801690Y-103431689D01*
X141788445Y-103406222D01*
X141687965Y-103396089D01*
X141675556Y-103406222D01*
X140772445Y-103406222D01*
X140671965Y-103396089D01*
X140659556Y-103406222D01*
X140472847Y-103406222D01*
X140347361Y-103187500D01*
X140203916Y-102912334D01*
X140292667Y-102912334D01*
X140335000Y-102954667D01*
X140377334Y-102912334D01*
X140335000Y-102870000D01*
X140292667Y-102912334D01*
X140203916Y-102912334D01*
X140154798Y-102818114D01*
X140071719Y-102572672D01*
X140098618Y-102452942D01*
X140138795Y-102440716D01*
X140164053Y-102410666D01*
X140153247Y-102404334D01*
X140885334Y-102404334D01*
X140927667Y-102446667D01*
X140970000Y-102404334D01*
X140927667Y-102362000D01*
X140885334Y-102404334D01*
X140153247Y-102404334D01*
X140081000Y-102362000D01*
X140040306Y-102321081D01*
X140152121Y-102295548D01*
X140424210Y-102283809D01*
X140464912Y-102283284D01*
X140766348Y-102285058D01*
G37*
X140766348Y-102285058D02*
X140947970Y-102310133D01*
X141059200Y-102375950D01*
X141149455Y-102499947D01*
X141168301Y-102531507D01*
X141255640Y-102723854D01*
X141271332Y-102859294D01*
X141266825Y-102869204D01*
X141279281Y-102924721D01*
X141325436Y-102918609D01*
X141438913Y-102958337D01*
X141608934Y-103097257D01*
X141720654Y-103215912D01*
X142005641Y-103547334D01*
X140553805Y-103547334D01*
X140472847Y-103406222D01*
X140659556Y-103406222D01*
X140671178Y-103456557D01*
X140716000Y-103462667D01*
X140785690Y-103431689D01*
X140772445Y-103406222D01*
X141675556Y-103406222D01*
X141687178Y-103456557D01*
X141732000Y-103462667D01*
X141801690Y-103431689D01*
X141788445Y-103406222D01*
X141687965Y-103396089D01*
X141675556Y-103406222D01*
X140772445Y-103406222D01*
X140671965Y-103396089D01*
X140659556Y-103406222D01*
X140472847Y-103406222D01*
X140347361Y-103187500D01*
X140203916Y-102912334D01*
X140292667Y-102912334D01*
X140335000Y-102954667D01*
X140377334Y-102912334D01*
X140335000Y-102870000D01*
X140292667Y-102912334D01*
X140203916Y-102912334D01*
X140154798Y-102818114D01*
X140071719Y-102572672D01*
X140098618Y-102452942D01*
X140138795Y-102440716D01*
X140164053Y-102410666D01*
X140153247Y-102404334D01*
X140885334Y-102404334D01*
X140927667Y-102446667D01*
X140970000Y-102404334D01*
X140927667Y-102362000D01*
X140885334Y-102404334D01*
X140153247Y-102404334D01*
X140081000Y-102362000D01*
X140040306Y-102321081D01*
X140152121Y-102295548D01*
X140424210Y-102283809D01*
X140464912Y-102283284D01*
X140766348Y-102285058D01*
G36*
X139280621Y-102289232D02*
G01*
X139292296Y-102308268D01*
X139429865Y-102408363D01*
X139568244Y-102397962D01*
X139754769Y-102400366D01*
X139843294Y-102494061D01*
X139799477Y-102640054D01*
X139790912Y-102650809D01*
X139749875Y-102774471D01*
X139825956Y-102869134D01*
X139942277Y-103013078D01*
X139895765Y-103128442D01*
X139741714Y-103208903D01*
X139592481Y-103301718D01*
X139551214Y-103392279D01*
X139515532Y-103494543D01*
X139400384Y-103522680D01*
X139281133Y-103471128D01*
X139243985Y-103414954D01*
X139174548Y-103322610D01*
X139067707Y-103375754D01*
X138912916Y-103436391D01*
X138811104Y-103359777D01*
X138800936Y-103177387D01*
X138804628Y-103161577D01*
X138796357Y-102965749D01*
X138725831Y-102896350D01*
X139076524Y-102896350D01*
X139077656Y-102999450D01*
X139191184Y-103104655D01*
X139356097Y-103111109D01*
X139487533Y-103020614D01*
X139502568Y-102990435D01*
X139490856Y-102827991D01*
X139427340Y-102730387D01*
X139313740Y-102648760D01*
X139208513Y-102698116D01*
X139165360Y-102739403D01*
X139076524Y-102896350D01*
X138725831Y-102896350D01*
X138714935Y-102885629D01*
X138626680Y-102777681D01*
X138674680Y-102671601D01*
X138832666Y-102616787D01*
X138858330Y-102616000D01*
X138996956Y-102553074D01*
X139022667Y-102451664D01*
X139067794Y-102281999D01*
X139170245Y-102219098D01*
X139280621Y-102289232D01*
G37*
X139280621Y-102289232D02*
X139292296Y-102308268D01*
X139429865Y-102408363D01*
X139568244Y-102397962D01*
X139754769Y-102400366D01*
X139843294Y-102494061D01*
X139799477Y-102640054D01*
X139790912Y-102650809D01*
X139749875Y-102774471D01*
X139825956Y-102869134D01*
X139942277Y-103013078D01*
X139895765Y-103128442D01*
X139741714Y-103208903D01*
X139592481Y-103301718D01*
X139551214Y-103392279D01*
X139515532Y-103494543D01*
X139400384Y-103522680D01*
X139281133Y-103471128D01*
X139243985Y-103414954D01*
X139174548Y-103322610D01*
X139067707Y-103375754D01*
X138912916Y-103436391D01*
X138811104Y-103359777D01*
X138800936Y-103177387D01*
X138804628Y-103161577D01*
X138796357Y-102965749D01*
X138725831Y-102896350D01*
X139076524Y-102896350D01*
X139077656Y-102999450D01*
X139191184Y-103104655D01*
X139356097Y-103111109D01*
X139487533Y-103020614D01*
X139502568Y-102990435D01*
X139490856Y-102827991D01*
X139427340Y-102730387D01*
X139313740Y-102648760D01*
X139208513Y-102698116D01*
X139165360Y-102739403D01*
X139076524Y-102896350D01*
X138725831Y-102896350D01*
X138714935Y-102885629D01*
X138626680Y-102777681D01*
X138674680Y-102671601D01*
X138832666Y-102616787D01*
X138858330Y-102616000D01*
X138996956Y-102553074D01*
X139022667Y-102451664D01*
X139067794Y-102281999D01*
X139170245Y-102219098D01*
X139280621Y-102289232D01*
G36*
X137379762Y-100379438D02*
G01*
X137635228Y-100421616D01*
X137958833Y-100467761D01*
X138109845Y-100487091D01*
X138557000Y-100541667D01*
X138557000Y-101473000D01*
X138218334Y-101515334D01*
X137960327Y-101580531D01*
X137857177Y-101694454D01*
X137856255Y-101699449D01*
X137886879Y-101859725D01*
X138010711Y-101908606D01*
X138140964Y-101847944D01*
X138284247Y-101795977D01*
X138391653Y-101849351D01*
X138411689Y-101963317D01*
X138362267Y-102040267D01*
X138268703Y-102183413D01*
X138330192Y-102292300D01*
X138472334Y-102362000D01*
X138619205Y-102450028D01*
X138689240Y-102548988D01*
X138655373Y-102612245D01*
X138620500Y-102617297D01*
X138500559Y-102658965D01*
X138435444Y-102695510D01*
X138358043Y-102780470D01*
X138416923Y-102896478D01*
X138424645Y-102905881D01*
X138476406Y-103052896D01*
X138430715Y-103185310D01*
X138324547Y-103247969D01*
X138220477Y-103210445D01*
X138093251Y-103168873D01*
X138018384Y-103276704D01*
X138006667Y-103392111D01*
X137940471Y-103522985D01*
X137837334Y-103547334D01*
X137699429Y-103494394D01*
X137668000Y-103420334D01*
X137616416Y-103308992D01*
X137497281Y-103316428D01*
X137381001Y-103418754D01*
X137248152Y-103496217D01*
X137174665Y-103473239D01*
X137092998Y-103340018D01*
X137089998Y-103241985D01*
X137070881Y-103119942D01*
X136935290Y-103100396D01*
X136761615Y-103059065D01*
X136693250Y-102931165D01*
X136753342Y-102778192D01*
X136798696Y-102737478D01*
X136899894Y-102644800D01*
X136867795Y-102573667D01*
X137244667Y-102573667D01*
X137315730Y-102809042D01*
X137507041Y-102939179D01*
X137625667Y-102954667D01*
X137819962Y-102908816D01*
X137905067Y-102853067D01*
X138008967Y-102650718D01*
X137981966Y-102435719D01*
X137847854Y-102264301D01*
X137630421Y-102192695D01*
X137625667Y-102192667D01*
X137390292Y-102263730D01*
X137260155Y-102455041D01*
X137244667Y-102573667D01*
X136867795Y-102573667D01*
X136865372Y-102568298D01*
X136788517Y-102508019D01*
X136675854Y-102358777D01*
X136698241Y-102221531D01*
X136842904Y-102151884D01*
X136870603Y-102150693D01*
X137005204Y-102089061D01*
X137033000Y-101967484D01*
X137069814Y-101764555D01*
X137171706Y-101707241D01*
X137281245Y-101764557D01*
X137442203Y-101823844D01*
X137558671Y-101745550D01*
X137583334Y-101637337D01*
X137527363Y-101555737D01*
X137342607Y-101519223D01*
X137202334Y-101515334D01*
X136975032Y-101506170D01*
X136838753Y-101482987D01*
X136821334Y-101469234D01*
X136836887Y-101388334D01*
X136990667Y-101388334D01*
X137033000Y-101430667D01*
X137075334Y-101388334D01*
X138345334Y-101388334D01*
X138387667Y-101430667D01*
X138430000Y-101388334D01*
X138387667Y-101346000D01*
X138345334Y-101388334D01*
X137075334Y-101388334D01*
X137033000Y-101346000D01*
X136990667Y-101388334D01*
X136836887Y-101388334D01*
X136840500Y-101369547D01*
X136890684Y-101153175D01*
X136959084Y-100874747D01*
X137000215Y-100711000D01*
X138430000Y-100711000D01*
X138472334Y-100753334D01*
X138514667Y-100711000D01*
X138472334Y-100668667D01*
X138430000Y-100711000D01*
X137000215Y-100711000D01*
X137053384Y-100499334D01*
X137160000Y-100499334D01*
X137190978Y-100569024D01*
X137216445Y-100555778D01*
X137226578Y-100455298D01*
X137216445Y-100442889D01*
X137166110Y-100454511D01*
X137160000Y-100499334D01*
X137053384Y-100499334D01*
X137096834Y-100326361D01*
X137379762Y-100379438D01*
G37*
X137379762Y-100379438D02*
X137635228Y-100421616D01*
X137958833Y-100467761D01*
X138109845Y-100487091D01*
X138557000Y-100541667D01*
X138557000Y-101473000D01*
X138218334Y-101515334D01*
X137960327Y-101580531D01*
X137857177Y-101694454D01*
X137856255Y-101699449D01*
X137886879Y-101859725D01*
X138010711Y-101908606D01*
X138140964Y-101847944D01*
X138284247Y-101795977D01*
X138391653Y-101849351D01*
X138411689Y-101963317D01*
X138362267Y-102040267D01*
X138268703Y-102183413D01*
X138330192Y-102292300D01*
X138472334Y-102362000D01*
X138619205Y-102450028D01*
X138689240Y-102548988D01*
X138655373Y-102612245D01*
X138620500Y-102617297D01*
X138500559Y-102658965D01*
X138435444Y-102695510D01*
X138358043Y-102780470D01*
X138416923Y-102896478D01*
X138424645Y-102905881D01*
X138476406Y-103052896D01*
X138430715Y-103185310D01*
X138324547Y-103247969D01*
X138220477Y-103210445D01*
X138093251Y-103168873D01*
X138018384Y-103276704D01*
X138006667Y-103392111D01*
X137940471Y-103522985D01*
X137837334Y-103547334D01*
X137699429Y-103494394D01*
X137668000Y-103420334D01*
X137616416Y-103308992D01*
X137497281Y-103316428D01*
X137381001Y-103418754D01*
X137248152Y-103496217D01*
X137174665Y-103473239D01*
X137092998Y-103340018D01*
X137089998Y-103241985D01*
X137070881Y-103119942D01*
X136935290Y-103100396D01*
X136761615Y-103059065D01*
X136693250Y-102931165D01*
X136753342Y-102778192D01*
X136798696Y-102737478D01*
X136899894Y-102644800D01*
X136867795Y-102573667D01*
X137244667Y-102573667D01*
X137315730Y-102809042D01*
X137507041Y-102939179D01*
X137625667Y-102954667D01*
X137819962Y-102908816D01*
X137905067Y-102853067D01*
X138008967Y-102650718D01*
X137981966Y-102435719D01*
X137847854Y-102264301D01*
X137630421Y-102192695D01*
X137625667Y-102192667D01*
X137390292Y-102263730D01*
X137260155Y-102455041D01*
X137244667Y-102573667D01*
X136867795Y-102573667D01*
X136865372Y-102568298D01*
X136788517Y-102508019D01*
X136675854Y-102358777D01*
X136698241Y-102221531D01*
X136842904Y-102151884D01*
X136870603Y-102150693D01*
X137005204Y-102089061D01*
X137033000Y-101967484D01*
X137069814Y-101764555D01*
X137171706Y-101707241D01*
X137281245Y-101764557D01*
X137442203Y-101823844D01*
X137558671Y-101745550D01*
X137583334Y-101637337D01*
X137527363Y-101555737D01*
X137342607Y-101519223D01*
X137202334Y-101515334D01*
X136975032Y-101506170D01*
X136838753Y-101482987D01*
X136821334Y-101469234D01*
X136836887Y-101388334D01*
X136990667Y-101388334D01*
X137033000Y-101430667D01*
X137075334Y-101388334D01*
X138345334Y-101388334D01*
X138387667Y-101430667D01*
X138430000Y-101388334D01*
X138387667Y-101346000D01*
X138345334Y-101388334D01*
X137075334Y-101388334D01*
X137033000Y-101346000D01*
X136990667Y-101388334D01*
X136836887Y-101388334D01*
X136840500Y-101369547D01*
X136890684Y-101153175D01*
X136959084Y-100874747D01*
X137000215Y-100711000D01*
X138430000Y-100711000D01*
X138472334Y-100753334D01*
X138514667Y-100711000D01*
X138472334Y-100668667D01*
X138430000Y-100711000D01*
X137000215Y-100711000D01*
X137053384Y-100499334D01*
X137160000Y-100499334D01*
X137190978Y-100569024D01*
X137216445Y-100555778D01*
X137226578Y-100455298D01*
X137216445Y-100442889D01*
X137166110Y-100454511D01*
X137160000Y-100499334D01*
X137053384Y-100499334D01*
X137096834Y-100326361D01*
X137379762Y-100379438D01*
G36*
X140673667Y-94951260D02*
G01*
X140889349Y-95151298D01*
X140988353Y-95260585D01*
X140982017Y-95299209D01*
X140881682Y-95287257D01*
X140860755Y-95282686D01*
X140602873Y-95290030D01*
X140458589Y-95380088D01*
X140320961Y-95539629D01*
X140304297Y-95645699D01*
X140377334Y-95673334D01*
X140450992Y-95604158D01*
X140462000Y-95537275D01*
X140514640Y-95440867D01*
X140583530Y-95447852D01*
X140712326Y-95435623D01*
X140746418Y-95393411D01*
X140806428Y-95345750D01*
X140872435Y-95413889D01*
X140966442Y-95490919D01*
X141086446Y-95428093D01*
X141210632Y-95366160D01*
X141380908Y-95385129D01*
X141516232Y-95429379D01*
X141710789Y-95524524D01*
X141812407Y-95622613D01*
X141816667Y-95641519D01*
X141772960Y-95692872D01*
X141625096Y-95647953D01*
X141555507Y-95614738D01*
X141348887Y-95536261D01*
X141221847Y-95560655D01*
X141196381Y-95582419D01*
X141149276Y-95686428D01*
X141224708Y-95761526D01*
X141308285Y-95839585D01*
X141240113Y-95915304D01*
X141224000Y-95926037D01*
X141145299Y-95993532D01*
X141206394Y-96028536D01*
X141301611Y-96043750D01*
X141431969Y-96107886D01*
X141442722Y-96117833D01*
X141569819Y-96178946D01*
X141643233Y-96098294D01*
X141647334Y-96054334D01*
X141693051Y-95941662D01*
X141732000Y-95927334D01*
X141806191Y-95996295D01*
X141816667Y-96060039D01*
X141862107Y-96151517D01*
X141994358Y-96136347D01*
X142121746Y-96116782D01*
X142130747Y-96205776D01*
X142115653Y-96257642D01*
X142104583Y-96399441D01*
X142191961Y-96435334D01*
X142309891Y-96479896D01*
X142296224Y-96581323D01*
X142186794Y-96673410D01*
X142103959Y-96757934D01*
X142144461Y-96809614D01*
X142238371Y-96917895D01*
X142194693Y-96992225D01*
X142070667Y-96985667D01*
X141940025Y-96977511D01*
X141901683Y-97095698D01*
X141901333Y-97120084D01*
X141891060Y-97248733D01*
X141831468Y-97240674D01*
X141740406Y-97162607D01*
X141591605Y-97074226D01*
X141523742Y-97107151D01*
X141418145Y-97194685D01*
X141345584Y-97133436D01*
X141339241Y-97049167D01*
X141294475Y-96933870D01*
X141202834Y-96925878D01*
X141075927Y-96901187D01*
X141069416Y-96814328D01*
X141160500Y-96749306D01*
X141223875Y-96692770D01*
X141164761Y-96604667D01*
X141308667Y-96604667D01*
X141376566Y-96743527D01*
X141528918Y-96871957D01*
X141688707Y-96928529D01*
X141712035Y-96926396D01*
X141861850Y-96838181D01*
X141934159Y-96752834D01*
X141970949Y-96559633D01*
X141881690Y-96378891D01*
X141712035Y-96282938D01*
X141558986Y-96320307D01*
X141399684Y-96440454D01*
X141311146Y-96581950D01*
X141308667Y-96604667D01*
X141164761Y-96604667D01*
X141160500Y-96598317D01*
X141062072Y-96445975D01*
X141106853Y-96361831D01*
X141181667Y-96350667D01*
X141294339Y-96304949D01*
X141308667Y-96266000D01*
X141246381Y-96192526D01*
X141111511Y-96188857D01*
X140982034Y-96247311D01*
X140941758Y-96302143D01*
X140958908Y-96451909D01*
X141014230Y-96521574D01*
X141084755Y-96614503D01*
X141052278Y-96736787D01*
X140992735Y-96834363D01*
X140903103Y-96991830D01*
X140916696Y-97084233D01*
X141007877Y-97162211D01*
X141168232Y-97265587D01*
X141248148Y-97304160D01*
X141298909Y-97381920D01*
X141249977Y-97505115D01*
X141140531Y-97622284D01*
X141009746Y-97681965D01*
X140962835Y-97678928D01*
X140786579Y-97698087D01*
X140691238Y-97860559D01*
X140676818Y-97991491D01*
X140603132Y-98141339D01*
X140480420Y-98222714D01*
X140326084Y-98248411D01*
X140234573Y-98149625D01*
X140207349Y-98084621D01*
X140084472Y-97908681D01*
X139923425Y-97891850D01*
X139803601Y-97974266D01*
X139695460Y-98020820D01*
X139553135Y-97936922D01*
X139531982Y-97918190D01*
X139417905Y-97792356D01*
X139429736Y-97693088D01*
X139487648Y-97621424D01*
X139602650Y-97442019D01*
X139560244Y-97308513D01*
X139437516Y-97232593D01*
X139877083Y-97232593D01*
X139920182Y-97391883D01*
X140002381Y-97487619D01*
X140165132Y-97603911D01*
X140337431Y-97593175D01*
X140467566Y-97533021D01*
X140597702Y-97380320D01*
X140624872Y-97166620D01*
X140540433Y-96971552D01*
X140529734Y-96960267D01*
X140339115Y-96867395D01*
X140124087Y-96886760D01*
X139964283Y-97009717D01*
X139956979Y-97022434D01*
X139877083Y-97232593D01*
X139437516Y-97232593D01*
X139410325Y-97215773D01*
X139256984Y-97084967D01*
X139242962Y-96934058D01*
X139353839Y-96813922D01*
X139535545Y-96774000D01*
X139762925Y-96733190D01*
X139843176Y-96614030D01*
X139794068Y-96457171D01*
X139740782Y-96399951D01*
X139661831Y-96410830D01*
X139532351Y-96505856D01*
X139327477Y-96701075D01*
X139171991Y-96858667D01*
X138344521Y-97814722D01*
X137676135Y-98827087D01*
X137165080Y-99899096D01*
X136809607Y-101034083D01*
X136699742Y-101567373D01*
X136577038Y-102270360D01*
X135937186Y-102910212D01*
X135678452Y-103161396D01*
X135469886Y-103349505D01*
X135335450Y-103453868D01*
X135297334Y-103462173D01*
X135340931Y-103289213D01*
X135457472Y-103016159D01*
X135625583Y-102683548D01*
X135823888Y-102331919D01*
X136031013Y-102001812D01*
X136173733Y-101800047D01*
X136362056Y-101538800D01*
X136501280Y-101321598D01*
X136565675Y-101189139D01*
X136567334Y-101177495D01*
X136509655Y-101184594D01*
X136354532Y-101287491D01*
X136128830Y-101467005D01*
X135971047Y-101603209D01*
X135698641Y-101840568D01*
X135532952Y-101971600D01*
X135457313Y-102005953D01*
X135455055Y-101953276D01*
X135480607Y-101887095D01*
X135738886Y-101399557D01*
X136093448Y-100882648D01*
X136499517Y-100400682D01*
X136557931Y-100339654D01*
X136764048Y-100117556D01*
X136906455Y-99943628D01*
X136958965Y-99850349D01*
X136956964Y-99844742D01*
X136873282Y-99869993D01*
X136688232Y-99974344D01*
X136437332Y-100137218D01*
X136360119Y-100190506D01*
X136103891Y-100361757D01*
X135910321Y-100476154D01*
X135811627Y-100515188D01*
X135805334Y-100509201D01*
X135864444Y-100359738D01*
X136023095Y-100129484D01*
X136253268Y-99849013D01*
X136526944Y-99548898D01*
X136816103Y-99259712D01*
X137092725Y-99012030D01*
X137328793Y-98836425D01*
X137350500Y-98823167D01*
X137511956Y-98706958D01*
X137583163Y-98615575D01*
X137583334Y-98612707D01*
X137517546Y-98575989D01*
X137318120Y-98629212D01*
X136981965Y-98773415D01*
X136705145Y-98908155D01*
X136207956Y-99157559D01*
X136384169Y-98910091D01*
X136612328Y-98657367D01*
X136948963Y-98368323D01*
X137348774Y-98077531D01*
X137766458Y-97819563D01*
X137922000Y-97736541D01*
X138167821Y-97596108D01*
X138260205Y-97507565D01*
X138208133Y-97474905D01*
X138020586Y-97502118D01*
X137706545Y-97593195D01*
X137645733Y-97613763D01*
X137391900Y-97690428D01*
X137216114Y-97723133D01*
X137160000Y-97709006D01*
X137234592Y-97593605D01*
X137439349Y-97434842D01*
X137745738Y-97248429D01*
X138125228Y-97050078D01*
X138549289Y-96855500D01*
X138989389Y-96680407D01*
X139098285Y-96641621D01*
X139182874Y-96585842D01*
X139179431Y-96563876D01*
X139084206Y-96562147D01*
X138873596Y-96594674D01*
X138638845Y-96644178D01*
X138369595Y-96701256D01*
X138175500Y-96732042D01*
X138105307Y-96731529D01*
X138146321Y-96670960D01*
X138307794Y-96563891D01*
X138553758Y-96428662D01*
X138848247Y-96283611D01*
X139155291Y-96147079D01*
X139438923Y-96037405D01*
X139517863Y-96011291D01*
X139871604Y-95915430D01*
X140084078Y-95892247D01*
X140151376Y-95940993D01*
X140069593Y-96060920D01*
X140019320Y-96107264D01*
X139827000Y-96274950D01*
X140017917Y-96222304D01*
X140187739Y-96221155D01*
X140265742Y-96323662D01*
X140384617Y-96511982D01*
X140546391Y-96538073D01*
X140644924Y-96491864D01*
X140769682Y-96382215D01*
X140793514Y-96298618D01*
X140709976Y-96284839D01*
X140673667Y-96296618D01*
X140564439Y-96283609D01*
X140546667Y-96221010D01*
X140478152Y-96113180D01*
X140410608Y-96096667D01*
X140314339Y-96044283D01*
X140322344Y-95972117D01*
X140313943Y-95836459D01*
X140631334Y-95836459D01*
X140687116Y-95981209D01*
X140806875Y-96012000D01*
X140941812Y-95966380D01*
X140954069Y-95864806D01*
X140875364Y-95727771D01*
X140753329Y-95686231D01*
X140653434Y-95745937D01*
X140631334Y-95836459D01*
X140313943Y-95836459D01*
X140312272Y-95809492D01*
X140267903Y-95739284D01*
X140206782Y-95566474D01*
X140199184Y-95236154D01*
X140208000Y-95099039D01*
X140213954Y-95024222D01*
X140405556Y-95024222D01*
X140417178Y-95074557D01*
X140462000Y-95080667D01*
X140531690Y-95049689D01*
X140518445Y-95024222D01*
X140417965Y-95014089D01*
X140405556Y-95024222D01*
X140213954Y-95024222D01*
X140250334Y-94567078D01*
X140673667Y-94951260D01*
G37*
X140673667Y-94951260D02*
X140889349Y-95151298D01*
X140988353Y-95260585D01*
X140982017Y-95299209D01*
X140881682Y-95287257D01*
X140860755Y-95282686D01*
X140602873Y-95290030D01*
X140458589Y-95380088D01*
X140320961Y-95539629D01*
X140304297Y-95645699D01*
X140377334Y-95673334D01*
X140450992Y-95604158D01*
X140462000Y-95537275D01*
X140514640Y-95440867D01*
X140583530Y-95447852D01*
X140712326Y-95435623D01*
X140746418Y-95393411D01*
X140806428Y-95345750D01*
X140872435Y-95413889D01*
X140966442Y-95490919D01*
X141086446Y-95428093D01*
X141210632Y-95366160D01*
X141380908Y-95385129D01*
X141516232Y-95429379D01*
X141710789Y-95524524D01*
X141812407Y-95622613D01*
X141816667Y-95641519D01*
X141772960Y-95692872D01*
X141625096Y-95647953D01*
X141555507Y-95614738D01*
X141348887Y-95536261D01*
X141221847Y-95560655D01*
X141196381Y-95582419D01*
X141149276Y-95686428D01*
X141224708Y-95761526D01*
X141308285Y-95839585D01*
X141240113Y-95915304D01*
X141224000Y-95926037D01*
X141145299Y-95993532D01*
X141206394Y-96028536D01*
X141301611Y-96043750D01*
X141431969Y-96107886D01*
X141442722Y-96117833D01*
X141569819Y-96178946D01*
X141643233Y-96098294D01*
X141647334Y-96054334D01*
X141693051Y-95941662D01*
X141732000Y-95927334D01*
X141806191Y-95996295D01*
X141816667Y-96060039D01*
X141862107Y-96151517D01*
X141994358Y-96136347D01*
X142121746Y-96116782D01*
X142130747Y-96205776D01*
X142115653Y-96257642D01*
X142104583Y-96399441D01*
X142191961Y-96435334D01*
X142309891Y-96479896D01*
X142296224Y-96581323D01*
X142186794Y-96673410D01*
X142103959Y-96757934D01*
X142144461Y-96809614D01*
X142238371Y-96917895D01*
X142194693Y-96992225D01*
X142070667Y-96985667D01*
X141940025Y-96977511D01*
X141901683Y-97095698D01*
X141901333Y-97120084D01*
X141891060Y-97248733D01*
X141831468Y-97240674D01*
X141740406Y-97162607D01*
X141591605Y-97074226D01*
X141523742Y-97107151D01*
X141418145Y-97194685D01*
X141345584Y-97133436D01*
X141339241Y-97049167D01*
X141294475Y-96933870D01*
X141202834Y-96925878D01*
X141075927Y-96901187D01*
X141069416Y-96814328D01*
X141160500Y-96749306D01*
X141223875Y-96692770D01*
X141164761Y-96604667D01*
X141308667Y-96604667D01*
X141376566Y-96743527D01*
X141528918Y-96871957D01*
X141688707Y-96928529D01*
X141712035Y-96926396D01*
X141861850Y-96838181D01*
X141934159Y-96752834D01*
X141970949Y-96559633D01*
X141881690Y-96378891D01*
X141712035Y-96282938D01*
X141558986Y-96320307D01*
X141399684Y-96440454D01*
X141311146Y-96581950D01*
X141308667Y-96604667D01*
X141164761Y-96604667D01*
X141160500Y-96598317D01*
X141062072Y-96445975D01*
X141106853Y-96361831D01*
X141181667Y-96350667D01*
X141294339Y-96304949D01*
X141308667Y-96266000D01*
X141246381Y-96192526D01*
X141111511Y-96188857D01*
X140982034Y-96247311D01*
X140941758Y-96302143D01*
X140958908Y-96451909D01*
X141014230Y-96521574D01*
X141084755Y-96614503D01*
X141052278Y-96736787D01*
X140992735Y-96834363D01*
X140903103Y-96991830D01*
X140916696Y-97084233D01*
X141007877Y-97162211D01*
X141168232Y-97265587D01*
X141248148Y-97304160D01*
X141298909Y-97381920D01*
X141249977Y-97505115D01*
X141140531Y-97622284D01*
X141009746Y-97681965D01*
X140962835Y-97678928D01*
X140786579Y-97698087D01*
X140691238Y-97860559D01*
X140676818Y-97991491D01*
X140603132Y-98141339D01*
X140480420Y-98222714D01*
X140326084Y-98248411D01*
X140234573Y-98149625D01*
X140207349Y-98084621D01*
X140084472Y-97908681D01*
X139923425Y-97891850D01*
X139803601Y-97974266D01*
X139695460Y-98020820D01*
X139553135Y-97936922D01*
X139531982Y-97918190D01*
X139417905Y-97792356D01*
X139429736Y-97693088D01*
X139487648Y-97621424D01*
X139602650Y-97442019D01*
X139560244Y-97308513D01*
X139437516Y-97232593D01*
X139877083Y-97232593D01*
X139920182Y-97391883D01*
X140002381Y-97487619D01*
X140165132Y-97603911D01*
X140337431Y-97593175D01*
X140467566Y-97533021D01*
X140597702Y-97380320D01*
X140624872Y-97166620D01*
X140540433Y-96971552D01*
X140529734Y-96960267D01*
X140339115Y-96867395D01*
X140124087Y-96886760D01*
X139964283Y-97009717D01*
X139956979Y-97022434D01*
X139877083Y-97232593D01*
X139437516Y-97232593D01*
X139410325Y-97215773D01*
X139256984Y-97084967D01*
X139242962Y-96934058D01*
X139353839Y-96813922D01*
X139535545Y-96774000D01*
X139762925Y-96733190D01*
X139843176Y-96614030D01*
X139794068Y-96457171D01*
X139740782Y-96399951D01*
X139661831Y-96410830D01*
X139532351Y-96505856D01*
X139327477Y-96701075D01*
X139171991Y-96858667D01*
X138344521Y-97814722D01*
X137676135Y-98827087D01*
X137165080Y-99899096D01*
X136809607Y-101034083D01*
X136699742Y-101567373D01*
X136577038Y-102270360D01*
X135937186Y-102910212D01*
X135678452Y-103161396D01*
X135469886Y-103349505D01*
X135335450Y-103453868D01*
X135297334Y-103462173D01*
X135340931Y-103289213D01*
X135457472Y-103016159D01*
X135625583Y-102683548D01*
X135823888Y-102331919D01*
X136031013Y-102001812D01*
X136173733Y-101800047D01*
X136362056Y-101538800D01*
X136501280Y-101321598D01*
X136565675Y-101189139D01*
X136567334Y-101177495D01*
X136509655Y-101184594D01*
X136354532Y-101287491D01*
X136128830Y-101467005D01*
X135971047Y-101603209D01*
X135698641Y-101840568D01*
X135532952Y-101971600D01*
X135457313Y-102005953D01*
X135455055Y-101953276D01*
X135480607Y-101887095D01*
X135738886Y-101399557D01*
X136093448Y-100882648D01*
X136499517Y-100400682D01*
X136557931Y-100339654D01*
X136764048Y-100117556D01*
X136906455Y-99943628D01*
X136958965Y-99850349D01*
X136956964Y-99844742D01*
X136873282Y-99869993D01*
X136688232Y-99974344D01*
X136437332Y-100137218D01*
X136360119Y-100190506D01*
X136103891Y-100361757D01*
X135910321Y-100476154D01*
X135811627Y-100515188D01*
X135805334Y-100509201D01*
X135864444Y-100359738D01*
X136023095Y-100129484D01*
X136253268Y-99849013D01*
X136526944Y-99548898D01*
X136816103Y-99259712D01*
X137092725Y-99012030D01*
X137328793Y-98836425D01*
X137350500Y-98823167D01*
X137511956Y-98706958D01*
X137583163Y-98615575D01*
X137583334Y-98612707D01*
X137517546Y-98575989D01*
X137318120Y-98629212D01*
X136981965Y-98773415D01*
X136705145Y-98908155D01*
X136207956Y-99157559D01*
X136384169Y-98910091D01*
X136612328Y-98657367D01*
X136948963Y-98368323D01*
X137348774Y-98077531D01*
X137766458Y-97819563D01*
X137922000Y-97736541D01*
X138167821Y-97596108D01*
X138260205Y-97507565D01*
X138208133Y-97474905D01*
X138020586Y-97502118D01*
X137706545Y-97593195D01*
X137645733Y-97613763D01*
X137391900Y-97690428D01*
X137216114Y-97723133D01*
X137160000Y-97709006D01*
X137234592Y-97593605D01*
X137439349Y-97434842D01*
X137745738Y-97248429D01*
X138125228Y-97050078D01*
X138549289Y-96855500D01*
X138989389Y-96680407D01*
X139098285Y-96641621D01*
X139182874Y-96585842D01*
X139179431Y-96563876D01*
X139084206Y-96562147D01*
X138873596Y-96594674D01*
X138638845Y-96644178D01*
X138369595Y-96701256D01*
X138175500Y-96732042D01*
X138105307Y-96731529D01*
X138146321Y-96670960D01*
X138307794Y-96563891D01*
X138553758Y-96428662D01*
X138848247Y-96283611D01*
X139155291Y-96147079D01*
X139438923Y-96037405D01*
X139517863Y-96011291D01*
X139871604Y-95915430D01*
X140084078Y-95892247D01*
X140151376Y-95940993D01*
X140069593Y-96060920D01*
X140019320Y-96107264D01*
X139827000Y-96274950D01*
X140017917Y-96222304D01*
X140187739Y-96221155D01*
X140265742Y-96323662D01*
X140384617Y-96511982D01*
X140546391Y-96538073D01*
X140644924Y-96491864D01*
X140769682Y-96382215D01*
X140793514Y-96298618D01*
X140709976Y-96284839D01*
X140673667Y-96296618D01*
X140564439Y-96283609D01*
X140546667Y-96221010D01*
X140478152Y-96113180D01*
X140410608Y-96096667D01*
X140314339Y-96044283D01*
X140322344Y-95972117D01*
X140313943Y-95836459D01*
X140631334Y-95836459D01*
X140687116Y-95981209D01*
X140806875Y-96012000D01*
X140941812Y-95966380D01*
X140954069Y-95864806D01*
X140875364Y-95727771D01*
X140753329Y-95686231D01*
X140653434Y-95745937D01*
X140631334Y-95836459D01*
X140313943Y-95836459D01*
X140312272Y-95809492D01*
X140267903Y-95739284D01*
X140206782Y-95566474D01*
X140199184Y-95236154D01*
X140208000Y-95099039D01*
X140213954Y-95024222D01*
X140405556Y-95024222D01*
X140417178Y-95074557D01*
X140462000Y-95080667D01*
X140531690Y-95049689D01*
X140518445Y-95024222D01*
X140417965Y-95014089D01*
X140405556Y-95024222D01*
X140213954Y-95024222D01*
X140250334Y-94567078D01*
X140673667Y-94951260D01*
G36*
X143041871Y-96348623D02*
G01*
X143161225Y-96394335D01*
X143200290Y-96378154D01*
X143247771Y-96394826D01*
X143256000Y-96456500D01*
X143313817Y-96599331D01*
X143361834Y-96633499D01*
X143419914Y-96690012D01*
X143350986Y-96758088D01*
X143280634Y-96876559D01*
X143295326Y-96938468D01*
X143384817Y-96985950D01*
X143547095Y-96912159D01*
X143557195Y-96905601D01*
X143746316Y-96795416D01*
X143833428Y-96787570D01*
X143848667Y-96840412D01*
X143782873Y-96923069D01*
X143620969Y-97040715D01*
X143585250Y-97062428D01*
X143420633Y-97181034D01*
X143403724Y-97262232D01*
X143431803Y-97285998D01*
X143580652Y-97286880D01*
X143750479Y-97189796D01*
X143919659Y-97083846D01*
X144007361Y-97078387D01*
X143987038Y-97167523D01*
X143939828Y-97231841D01*
X143895808Y-97319375D01*
X143976379Y-97364290D01*
X144105080Y-97382054D01*
X144372633Y-97409000D01*
X144033936Y-97662690D01*
X143635826Y-98056219D01*
X143341840Y-98567385D01*
X143144604Y-99209139D01*
X143139462Y-99233645D01*
X143060454Y-99581579D01*
X142993754Y-99811026D01*
X142944950Y-99907837D01*
X142919634Y-99857864D01*
X142917334Y-99795874D01*
X142889368Y-99705121D01*
X142775530Y-99712941D01*
X142700155Y-99739429D01*
X142508841Y-99805961D01*
X142437704Y-99785812D01*
X142448026Y-99650830D01*
X142464367Y-99568000D01*
X142474592Y-99447515D01*
X142635581Y-99447515D01*
X142699307Y-99554581D01*
X142753605Y-99568000D01*
X142906369Y-99499953D01*
X142950608Y-99434075D01*
X143006399Y-99195737D01*
X142965027Y-99054209D01*
X142841153Y-99033249D01*
X142716553Y-99125472D01*
X142644680Y-99284020D01*
X142635581Y-99447515D01*
X142474592Y-99447515D01*
X142480061Y-99383072D01*
X142417026Y-99316491D01*
X142386642Y-99314000D01*
X142261132Y-99367187D01*
X142187338Y-99540026D01*
X142158375Y-99852431D01*
X142157403Y-99977092D01*
X142238271Y-100719671D01*
X142474972Y-101401886D01*
X142870834Y-102031506D01*
X143192426Y-102393609D01*
X143449527Y-102661772D01*
X143599790Y-102838327D01*
X143640880Y-102916285D01*
X143570459Y-102888660D01*
X143386189Y-102748465D01*
X143281790Y-102660766D01*
X143082358Y-102506953D01*
X142934737Y-102424028D01*
X142886158Y-102421398D01*
X142838108Y-102405362D01*
X142830784Y-102354945D01*
X142786842Y-102206702D01*
X142686291Y-102049967D01*
X142570025Y-101933223D01*
X142478938Y-101904954D01*
X142463507Y-101919509D01*
X142433640Y-102031526D01*
X142490685Y-102161288D01*
X142651354Y-102328241D01*
X142932358Y-102551828D01*
X143131863Y-102697129D01*
X143421941Y-102914047D01*
X143628895Y-103086591D01*
X143743475Y-103202375D01*
X143756433Y-103249009D01*
X143658520Y-103214106D01*
X143440486Y-103085278D01*
X143404167Y-103061851D01*
X143171186Y-102903992D01*
X142986955Y-102767930D01*
X142931898Y-102721428D01*
X142756050Y-102583505D01*
X142597198Y-102503165D01*
X142502962Y-102501645D01*
X142494000Y-102526130D01*
X142560921Y-102606819D01*
X142739873Y-102750142D01*
X142998140Y-102930856D01*
X143128835Y-103015942D01*
X143411380Y-103203115D01*
X143629283Y-103361154D01*
X143749946Y-103465782D01*
X143763835Y-103488830D01*
X143709775Y-103517318D01*
X143669867Y-103499150D01*
X143550151Y-103493353D01*
X143521701Y-103519135D01*
X143404688Y-103568296D01*
X143298334Y-103562521D01*
X143128539Y-103489908D01*
X143066797Y-103431706D01*
X143012835Y-103385903D01*
X143003297Y-103441500D01*
X142925234Y-103517218D01*
X142718099Y-103547266D01*
X142705667Y-103547334D01*
X142493319Y-103519785D01*
X142408279Y-103445940D01*
X142408037Y-103441500D01*
X142390064Y-103378935D01*
X142339933Y-103440865D01*
X142258765Y-103464798D01*
X142108740Y-103366261D01*
X141943046Y-103208032D01*
X141780692Y-103026470D01*
X141699558Y-102903770D01*
X141707762Y-102870000D01*
X141822611Y-102936564D01*
X141845260Y-102975834D01*
X141883514Y-103038225D01*
X141894649Y-102975834D01*
X141972560Y-102896814D01*
X142117997Y-102870000D01*
X142270099Y-102898517D01*
X142273441Y-102969055D01*
X142269329Y-103032562D01*
X142353890Y-103013747D01*
X142516914Y-103026582D01*
X142767139Y-103136837D01*
X142892355Y-103211025D01*
X143136453Y-103351257D01*
X143338465Y-103441935D01*
X143420743Y-103461164D01*
X143414195Y-103419452D01*
X143287451Y-103308811D01*
X143064646Y-103148867D01*
X142917334Y-103051762D01*
X142369065Y-102649146D01*
X141967947Y-102230835D01*
X141882265Y-102087252D01*
X142062362Y-102087252D01*
X142141274Y-102247003D01*
X142284470Y-102405606D01*
X142380936Y-102436918D01*
X142409334Y-102359021D01*
X142366390Y-102230472D01*
X142269286Y-102057636D01*
X142152405Y-101921469D01*
X142072398Y-101937033D01*
X142064727Y-101948278D01*
X142062362Y-102087252D01*
X141882265Y-102087252D01*
X141692247Y-101768827D01*
X141677413Y-101723434D01*
X141768137Y-101723434D01*
X141845363Y-101840465D01*
X141950772Y-101893117D01*
X142002121Y-101871746D01*
X142039251Y-101739010D01*
X142022051Y-101656491D01*
X141923878Y-101527660D01*
X141809406Y-101555806D01*
X141772041Y-101603709D01*
X141768137Y-101723434D01*
X141677413Y-101723434D01*
X141525455Y-101258465D01*
X141459241Y-100951832D01*
X141411835Y-100702698D01*
X141393339Y-100564225D01*
X141393334Y-100563121D01*
X141335643Y-100487561D01*
X141147170Y-100478302D01*
X141089221Y-100484172D01*
X140755639Y-100457861D01*
X140621473Y-100387726D01*
X140999253Y-100387726D01*
X141014661Y-100412092D01*
X141143678Y-100369299D01*
X141177022Y-100349579D01*
X141455848Y-100349579D01*
X141481525Y-100521130D01*
X141503160Y-100581996D01*
X141584675Y-100740630D01*
X141655796Y-100790096D01*
X141658899Y-100788519D01*
X141687499Y-100835203D01*
X141680300Y-100999624D01*
X141671730Y-101059132D01*
X141651486Y-101261513D01*
X141686571Y-101333116D01*
X141740245Y-101325613D01*
X141831542Y-101225889D01*
X141832381Y-101170893D01*
X141810963Y-101036495D01*
X141778969Y-100784617D01*
X141742817Y-100466256D01*
X141737810Y-100419476D01*
X141724031Y-100303495D01*
X141919563Y-100303495D01*
X141921161Y-100492270D01*
X141931657Y-100562834D01*
X141967463Y-100829994D01*
X141984802Y-101058169D01*
X141985068Y-101075830D01*
X142016901Y-101212489D01*
X142085055Y-101210108D01*
X142148541Y-101205993D01*
X142129661Y-101290781D01*
X142118973Y-101448178D01*
X142166875Y-101626742D01*
X142247665Y-101765596D01*
X142335639Y-101803861D01*
X142344423Y-101799457D01*
X142392042Y-101688214D01*
X142381518Y-101611611D01*
X142328525Y-101457390D01*
X142238232Y-101210452D01*
X142170141Y-101029500D01*
X142083358Y-100751969D01*
X142041810Y-100515622D01*
X142045873Y-100415666D01*
X142041664Y-100275289D01*
X141984797Y-100245334D01*
X141919563Y-100303495D01*
X141724031Y-100303495D01*
X141705081Y-100144005D01*
X141677933Y-99975307D01*
X141660994Y-99940244D01*
X141658595Y-99959800D01*
X141596446Y-100153342D01*
X141528913Y-100238213D01*
X141455848Y-100349579D01*
X141177022Y-100349579D01*
X141289828Y-100282866D01*
X141429911Y-100152658D01*
X141478000Y-100055017D01*
X141437249Y-100030490D01*
X141372167Y-100091625D01*
X141208645Y-100243229D01*
X141097000Y-100316899D01*
X140999253Y-100387726D01*
X140621473Y-100387726D01*
X140560055Y-100355620D01*
X140350751Y-100220229D01*
X140175892Y-100132241D01*
X140075411Y-100062931D01*
X140045642Y-99924894D01*
X140060643Y-99754652D01*
X140216667Y-99754652D01*
X140225333Y-100033667D01*
X140462000Y-100033667D01*
X140504334Y-100076000D01*
X140546667Y-100033667D01*
X140525581Y-100012581D01*
X140644380Y-100012581D01*
X140660990Y-100055488D01*
X140783243Y-100105082D01*
X140949238Y-100081512D01*
X141119665Y-99999594D01*
X141162131Y-99864334D01*
X141478000Y-99864334D01*
X141520334Y-99906667D01*
X141562667Y-99864334D01*
X141520334Y-99822000D01*
X141478000Y-99864334D01*
X141162131Y-99864334D01*
X141167156Y-99848332D01*
X141164796Y-99785807D01*
X141164834Y-99630040D01*
X141218013Y-99615405D01*
X141291796Y-99667032D01*
X141388746Y-99737098D01*
X141364809Y-99689989D01*
X141323643Y-99636533D01*
X141165702Y-99544809D01*
X140980019Y-99569130D01*
X140823749Y-99679527D01*
X140754047Y-99846027D01*
X140765493Y-99929223D01*
X140781662Y-100044909D01*
X140711989Y-100031188D01*
X140644380Y-100012581D01*
X140525581Y-100012581D01*
X140504334Y-99991334D01*
X140462000Y-100033667D01*
X140225333Y-100033667D01*
X140275935Y-99822000D01*
X140377334Y-99822000D01*
X140408312Y-99891690D01*
X140433778Y-99878445D01*
X140443911Y-99777965D01*
X140433778Y-99765556D01*
X140383444Y-99777178D01*
X140377334Y-99822000D01*
X140275935Y-99822000D01*
X140287823Y-99772276D01*
X140342796Y-99585917D01*
X140462000Y-99585917D01*
X140509417Y-99602779D01*
X140624567Y-99509934D01*
X140634632Y-99499298D01*
X140788073Y-99366046D01*
X140902743Y-99314000D01*
X140957536Y-99280182D01*
X140951948Y-99271667D01*
X141393334Y-99271667D01*
X141435667Y-99314000D01*
X141478000Y-99271667D01*
X141435667Y-99229334D01*
X141393334Y-99271667D01*
X140951948Y-99271667D01*
X140944420Y-99260198D01*
X140843126Y-99261084D01*
X140687336Y-99341707D01*
X140539846Y-99459671D01*
X140463449Y-99572578D01*
X140462000Y-99585917D01*
X140342796Y-99585917D01*
X140352552Y-99552848D01*
X140416320Y-99404082D01*
X140535439Y-99298384D01*
X140734254Y-99187738D01*
X140735922Y-99187000D01*
X141224000Y-99187000D01*
X141266334Y-99229334D01*
X141284194Y-99211473D01*
X141712324Y-99211473D01*
X141754841Y-99393614D01*
X141782760Y-99480257D01*
X141843974Y-99728009D01*
X141853420Y-99929803D01*
X141845062Y-99967090D01*
X141825618Y-100065216D01*
X141891753Y-100026553D01*
X141962326Y-99893908D01*
X142030379Y-99658574D01*
X142058965Y-99509646D01*
X142091502Y-99249945D01*
X142066005Y-99138430D01*
X142243375Y-99138430D01*
X142304343Y-99216963D01*
X142388167Y-99213510D01*
X142516141Y-99116885D01*
X142563389Y-98995635D01*
X142533242Y-98845531D01*
X142429354Y-98805057D01*
X142317343Y-98887653D01*
X142291392Y-98939925D01*
X142243375Y-99138430D01*
X142066005Y-99138430D01*
X142062586Y-99123481D01*
X141942413Y-99097142D01*
X141720737Y-99133861D01*
X141712324Y-99211473D01*
X141284194Y-99211473D01*
X141308667Y-99187000D01*
X141266334Y-99144667D01*
X141224000Y-99187000D01*
X140735922Y-99187000D01*
X140747331Y-99181953D01*
X140909100Y-99105422D01*
X140923619Y-99071806D01*
X140817985Y-99063314D01*
X140575563Y-99135225D01*
X140367607Y-99325543D01*
X140238178Y-99583612D01*
X140216667Y-99754652D01*
X140060643Y-99754652D01*
X140062884Y-99729221D01*
X140183022Y-99344155D01*
X140433965Y-99060756D01*
X140673667Y-98922555D01*
X140865052Y-98836424D01*
X141013849Y-98836424D01*
X141267091Y-98946291D01*
X141513811Y-99010912D01*
X141730422Y-99009216D01*
X141924887Y-98967475D01*
X142026755Y-98947637D01*
X142172121Y-98848223D01*
X142187795Y-98803070D01*
X142748000Y-98803070D01*
X142790976Y-98917276D01*
X142917334Y-98915199D01*
X143054520Y-98851121D01*
X143086667Y-98803050D01*
X143114189Y-98670329D01*
X143135553Y-98607788D01*
X143128293Y-98506275D01*
X143072053Y-98497411D01*
X142846379Y-98591208D01*
X142749732Y-98770738D01*
X142748000Y-98803070D01*
X142187795Y-98803070D01*
X142238423Y-98657235D01*
X142238704Y-98646756D01*
X142197399Y-98574791D01*
X142048060Y-98568363D01*
X141922500Y-98587625D01*
X141693491Y-98632716D01*
X141536106Y-98669774D01*
X141520334Y-98674668D01*
X141379493Y-98720952D01*
X141224758Y-98770177D01*
X141013849Y-98836424D01*
X140865052Y-98836424D01*
X140927667Y-98808245D01*
X140597896Y-98825254D01*
X140349260Y-98867099D01*
X140187343Y-98989369D01*
X140111379Y-99099298D01*
X140002231Y-99340125D01*
X139954404Y-99568046D01*
X139954317Y-99575056D01*
X139928676Y-99787574D01*
X139834323Y-99855313D01*
X139643855Y-99793872D01*
X139604599Y-99774116D01*
X139440541Y-99709959D01*
X139362397Y-99720077D01*
X139361334Y-99726877D01*
X139432560Y-99806121D01*
X139605008Y-99890316D01*
X139615334Y-99893980D01*
X139807543Y-100008380D01*
X139874013Y-100152973D01*
X139822669Y-100263776D01*
X139732149Y-100256982D01*
X139539824Y-100206816D01*
X139301608Y-100131542D01*
X139264906Y-100118334D01*
X139700000Y-100118334D01*
X139742334Y-100160667D01*
X139784667Y-100118334D01*
X139742334Y-100076000D01*
X139700000Y-100118334D01*
X139264906Y-100118334D01*
X139073413Y-100049423D01*
X138911153Y-99978725D01*
X138872131Y-99953278D01*
X138877983Y-99864334D01*
X139022667Y-99864334D01*
X139065000Y-99906667D01*
X139107334Y-99864334D01*
X139065000Y-99822000D01*
X139022667Y-99864334D01*
X138877983Y-99864334D01*
X138878751Y-99852666D01*
X138960815Y-99652152D01*
X139065727Y-99448744D01*
X139699472Y-99448744D01*
X139740159Y-99483334D01*
X139802023Y-99416453D01*
X139899073Y-99253440D01*
X139909493Y-99233538D01*
X140008598Y-99005963D01*
X140030277Y-98874014D01*
X139977768Y-98858049D01*
X139866517Y-98963547D01*
X139763393Y-99132896D01*
X139702929Y-99314300D01*
X139699472Y-99448744D01*
X139065727Y-99448744D01*
X139095984Y-99390081D01*
X139160143Y-99279775D01*
X139373874Y-99279775D01*
X139435998Y-99313993D01*
X139437637Y-99314000D01*
X139525197Y-99247713D01*
X139648810Y-99082761D01*
X139684777Y-99024454D01*
X139843999Y-98825860D01*
X140019798Y-98703921D01*
X140036985Y-98698708D01*
X140250334Y-98698708D01*
X140737167Y-98710021D01*
X141020888Y-98707423D01*
X141171089Y-98677064D01*
X141222498Y-98610335D01*
X141224000Y-98589337D01*
X141181544Y-98503505D01*
X141118167Y-98523640D01*
X140973504Y-98575579D01*
X140734979Y-98627732D01*
X140631334Y-98644325D01*
X140250334Y-98698708D01*
X140036985Y-98698708D01*
X140052973Y-98693859D01*
X140121603Y-98670119D01*
X140029718Y-98663614D01*
X139960262Y-98665904D01*
X139720423Y-98717493D01*
X139556487Y-98877271D01*
X139521950Y-98933000D01*
X139400597Y-99161491D01*
X139373874Y-99279775D01*
X139160143Y-99279775D01*
X139261919Y-99104797D01*
X139436281Y-98834648D01*
X139596732Y-98617976D01*
X139718516Y-98495556D01*
X141336889Y-98495556D01*
X141348511Y-98545890D01*
X141393334Y-98552000D01*
X141463024Y-98521022D01*
X141449778Y-98495556D01*
X141590889Y-98495556D01*
X141602511Y-98545890D01*
X141647334Y-98552000D01*
X141717024Y-98521022D01*
X141707516Y-98502742D01*
X142442608Y-98502742D01*
X142450307Y-98616400D01*
X142522820Y-98636667D01*
X142631544Y-98565963D01*
X142771116Y-98382794D01*
X142814156Y-98306767D01*
X142961691Y-98306767D01*
X143012591Y-98343954D01*
X143100894Y-98340845D01*
X143286121Y-98263370D01*
X143413801Y-98135323D01*
X143493437Y-97999083D01*
X143457610Y-97960818D01*
X143344797Y-97972568D01*
X143144349Y-98064137D01*
X143031889Y-98178090D01*
X142961691Y-98306767D01*
X142814156Y-98306767D01*
X142867051Y-98213334D01*
X142982395Y-97961896D01*
X143011847Y-97828861D01*
X143004484Y-97823236D01*
X143277323Y-97823236D01*
X143279945Y-97868332D01*
X143385352Y-97874246D01*
X143559804Y-97822955D01*
X143771398Y-97697495D01*
X143804452Y-97672105D01*
X144056571Y-97470385D01*
X143812859Y-97497138D01*
X143567192Y-97578530D01*
X143393759Y-97699279D01*
X143277323Y-97823236D01*
X143004484Y-97823236D01*
X142960974Y-97790000D01*
X142821703Y-97847456D01*
X142704747Y-97979907D01*
X142647634Y-98127479D01*
X142685805Y-98229013D01*
X142727825Y-98283156D01*
X142642167Y-98296704D01*
X142516246Y-98314611D01*
X142494000Y-98333409D01*
X142467661Y-98432933D01*
X142442608Y-98502742D01*
X141707516Y-98502742D01*
X141703778Y-98495556D01*
X141603298Y-98485423D01*
X141590889Y-98495556D01*
X141449778Y-98495556D01*
X141349298Y-98485423D01*
X141336889Y-98495556D01*
X139718516Y-98495556D01*
X139720932Y-98493128D01*
X139723924Y-98491164D01*
X139818855Y-98365516D01*
X139827000Y-98319167D01*
X139880013Y-98224155D01*
X139911667Y-98218291D01*
X139980192Y-98290513D01*
X139984041Y-98348492D01*
X140005299Y-98415749D01*
X140109072Y-98443429D01*
X140329252Y-98436406D01*
X140365708Y-98433081D01*
X142029322Y-98433081D01*
X142089173Y-98463451D01*
X142227554Y-98384550D01*
X142331722Y-98290945D01*
X142443003Y-98152694D01*
X142462374Y-98068818D01*
X142344367Y-98052478D01*
X142192556Y-98143078D01*
X142073226Y-98293218D01*
X142029322Y-98433081D01*
X140365708Y-98433081D01*
X140492041Y-98421559D01*
X140843439Y-98383211D01*
X141059322Y-98340620D01*
X141102973Y-98314609D01*
X141393334Y-98314609D01*
X141462894Y-98366416D01*
X141620117Y-98378979D01*
X141787814Y-98351760D01*
X141859000Y-98317870D01*
X141949556Y-98224264D01*
X142108259Y-98037872D01*
X142187030Y-97941026D01*
X142372810Y-97941026D01*
X142433652Y-97959334D01*
X142566595Y-97890416D01*
X142696151Y-97723480D01*
X142701814Y-97712783D01*
X142758734Y-97632179D01*
X142971153Y-97632179D01*
X143007826Y-97673312D01*
X143081820Y-97681689D01*
X143256823Y-97631900D01*
X143388296Y-97530149D01*
X143485909Y-97410709D01*
X143460963Y-97370620D01*
X143366911Y-97366667D01*
X143177930Y-97426647D01*
X143060436Y-97518207D01*
X142971153Y-97632179D01*
X142758734Y-97632179D01*
X142855459Y-97495211D01*
X143068372Y-97279117D01*
X143106155Y-97248056D01*
X143250758Y-97116341D01*
X143293111Y-97038161D01*
X143273472Y-97028939D01*
X143179573Y-97057827D01*
X143045133Y-97158708D01*
X142848631Y-97350827D01*
X142568548Y-97653431D01*
X142540825Y-97684167D01*
X142398578Y-97857430D01*
X142372810Y-97941026D01*
X142187030Y-97941026D01*
X142301011Y-97800892D01*
X142493720Y-97555523D01*
X142652288Y-97343963D01*
X142695961Y-97282000D01*
X142693176Y-97258540D01*
X142592091Y-97335497D01*
X142486284Y-97430167D01*
X142286786Y-97593514D01*
X142121247Y-97692123D01*
X142070667Y-97705334D01*
X141947375Y-97760371D01*
X141767529Y-97895148D01*
X141581715Y-98064163D01*
X141440517Y-98221912D01*
X141393334Y-98314609D01*
X141102973Y-98314609D01*
X141172700Y-98273061D01*
X141216587Y-98159805D01*
X141222766Y-98009926D01*
X141358887Y-98009926D01*
X141388138Y-98044000D01*
X141486416Y-97987652D01*
X141605000Y-97874667D01*
X141706574Y-97752061D01*
X141687345Y-97709946D01*
X141585664Y-97705334D01*
X141420920Y-97778680D01*
X141368801Y-97874667D01*
X141358887Y-98009926D01*
X141222766Y-98009926D01*
X141223995Y-97980126D01*
X141224000Y-97961991D01*
X141232259Y-97744094D01*
X141287606Y-97646840D01*
X141435896Y-97621545D01*
X141545484Y-97620667D01*
X141775549Y-97593755D01*
X141822871Y-97568449D01*
X142070667Y-97568449D01*
X142123671Y-97565782D01*
X142259212Y-97465347D01*
X142365732Y-97367896D01*
X142528432Y-97194919D01*
X142615224Y-97071837D01*
X142618849Y-97039960D01*
X142538900Y-97063998D01*
X142397726Y-97174023D01*
X142241736Y-97325294D01*
X142117335Y-97473073D01*
X142070667Y-97568449D01*
X141822871Y-97568449D01*
X141969449Y-97490066D01*
X142168370Y-97303167D01*
X142393249Y-97040146D01*
X142517091Y-96837548D01*
X142530418Y-96714737D01*
X142470176Y-96686641D01*
X142447669Y-96644192D01*
X142531349Y-96559641D01*
X142626926Y-96465567D01*
X142616016Y-96429967D01*
X142621467Y-96400724D01*
X142737748Y-96343991D01*
X142957436Y-96310231D01*
X143041871Y-96348623D01*
G37*
X143041871Y-96348623D02*
X143161225Y-96394335D01*
X143200290Y-96378154D01*
X143247771Y-96394826D01*
X143256000Y-96456500D01*
X143313817Y-96599331D01*
X143361834Y-96633499D01*
X143419914Y-96690012D01*
X143350986Y-96758088D01*
X143280634Y-96876559D01*
X143295326Y-96938468D01*
X143384817Y-96985950D01*
X143547095Y-96912159D01*
X143557195Y-96905601D01*
X143746316Y-96795416D01*
X143833428Y-96787570D01*
X143848667Y-96840412D01*
X143782873Y-96923069D01*
X143620969Y-97040715D01*
X143585250Y-97062428D01*
X143420633Y-97181034D01*
X143403724Y-97262232D01*
X143431803Y-97285998D01*
X143580652Y-97286880D01*
X143750479Y-97189796D01*
X143919659Y-97083846D01*
X144007361Y-97078387D01*
X143987038Y-97167523D01*
X143939828Y-97231841D01*
X143895808Y-97319375D01*
X143976379Y-97364290D01*
X144105080Y-97382054D01*
X144372633Y-97409000D01*
X144033936Y-97662690D01*
X143635826Y-98056219D01*
X143341840Y-98567385D01*
X143144604Y-99209139D01*
X143139462Y-99233645D01*
X143060454Y-99581579D01*
X142993754Y-99811026D01*
X142944950Y-99907837D01*
X142919634Y-99857864D01*
X142917334Y-99795874D01*
X142889368Y-99705121D01*
X142775530Y-99712941D01*
X142700155Y-99739429D01*
X142508841Y-99805961D01*
X142437704Y-99785812D01*
X142448026Y-99650830D01*
X142464367Y-99568000D01*
X142474592Y-99447515D01*
X142635581Y-99447515D01*
X142699307Y-99554581D01*
X142753605Y-99568000D01*
X142906369Y-99499953D01*
X142950608Y-99434075D01*
X143006399Y-99195737D01*
X142965027Y-99054209D01*
X142841153Y-99033249D01*
X142716553Y-99125472D01*
X142644680Y-99284020D01*
X142635581Y-99447515D01*
X142474592Y-99447515D01*
X142480061Y-99383072D01*
X142417026Y-99316491D01*
X142386642Y-99314000D01*
X142261132Y-99367187D01*
X142187338Y-99540026D01*
X142158375Y-99852431D01*
X142157403Y-99977092D01*
X142238271Y-100719671D01*
X142474972Y-101401886D01*
X142870834Y-102031506D01*
X143192426Y-102393609D01*
X143449527Y-102661772D01*
X143599790Y-102838327D01*
X143640880Y-102916285D01*
X143570459Y-102888660D01*
X143386189Y-102748465D01*
X143281790Y-102660766D01*
X143082358Y-102506953D01*
X142934737Y-102424028D01*
X142886158Y-102421398D01*
X142838108Y-102405362D01*
X142830784Y-102354945D01*
X142786842Y-102206702D01*
X142686291Y-102049967D01*
X142570025Y-101933223D01*
X142478938Y-101904954D01*
X142463507Y-101919509D01*
X142433640Y-102031526D01*
X142490685Y-102161288D01*
X142651354Y-102328241D01*
X142932358Y-102551828D01*
X143131863Y-102697129D01*
X143421941Y-102914047D01*
X143628895Y-103086591D01*
X143743475Y-103202375D01*
X143756433Y-103249009D01*
X143658520Y-103214106D01*
X143440486Y-103085278D01*
X143404167Y-103061851D01*
X143171186Y-102903992D01*
X142986955Y-102767930D01*
X142931898Y-102721428D01*
X142756050Y-102583505D01*
X142597198Y-102503165D01*
X142502962Y-102501645D01*
X142494000Y-102526130D01*
X142560921Y-102606819D01*
X142739873Y-102750142D01*
X142998140Y-102930856D01*
X143128835Y-103015942D01*
X143411380Y-103203115D01*
X143629283Y-103361154D01*
X143749946Y-103465782D01*
X143763835Y-103488830D01*
X143709775Y-103517318D01*
X143669867Y-103499150D01*
X143550151Y-103493353D01*
X143521701Y-103519135D01*
X143404688Y-103568296D01*
X143298334Y-103562521D01*
X143128539Y-103489908D01*
X143066797Y-103431706D01*
X143012835Y-103385903D01*
X143003297Y-103441500D01*
X142925234Y-103517218D01*
X142718099Y-103547266D01*
X142705667Y-103547334D01*
X142493319Y-103519785D01*
X142408279Y-103445940D01*
X142408037Y-103441500D01*
X142390064Y-103378935D01*
X142339933Y-103440865D01*
X142258765Y-103464798D01*
X142108740Y-103366261D01*
X141943046Y-103208032D01*
X141780692Y-103026470D01*
X141699558Y-102903770D01*
X141707762Y-102870000D01*
X141822611Y-102936564D01*
X141845260Y-102975834D01*
X141883514Y-103038225D01*
X141894649Y-102975834D01*
X141972560Y-102896814D01*
X142117997Y-102870000D01*
X142270099Y-102898517D01*
X142273441Y-102969055D01*
X142269329Y-103032562D01*
X142353890Y-103013747D01*
X142516914Y-103026582D01*
X142767139Y-103136837D01*
X142892355Y-103211025D01*
X143136453Y-103351257D01*
X143338465Y-103441935D01*
X143420743Y-103461164D01*
X143414195Y-103419452D01*
X143287451Y-103308811D01*
X143064646Y-103148867D01*
X142917334Y-103051762D01*
X142369065Y-102649146D01*
X141967947Y-102230835D01*
X141882265Y-102087252D01*
X142062362Y-102087252D01*
X142141274Y-102247003D01*
X142284470Y-102405606D01*
X142380936Y-102436918D01*
X142409334Y-102359021D01*
X142366390Y-102230472D01*
X142269286Y-102057636D01*
X142152405Y-101921469D01*
X142072398Y-101937033D01*
X142064727Y-101948278D01*
X142062362Y-102087252D01*
X141882265Y-102087252D01*
X141692247Y-101768827D01*
X141677413Y-101723434D01*
X141768137Y-101723434D01*
X141845363Y-101840465D01*
X141950772Y-101893117D01*
X142002121Y-101871746D01*
X142039251Y-101739010D01*
X142022051Y-101656491D01*
X141923878Y-101527660D01*
X141809406Y-101555806D01*
X141772041Y-101603709D01*
X141768137Y-101723434D01*
X141677413Y-101723434D01*
X141525455Y-101258465D01*
X141459241Y-100951832D01*
X141411835Y-100702698D01*
X141393339Y-100564225D01*
X141393334Y-100563121D01*
X141335643Y-100487561D01*
X141147170Y-100478302D01*
X141089221Y-100484172D01*
X140755639Y-100457861D01*
X140621473Y-100387726D01*
X140999253Y-100387726D01*
X141014661Y-100412092D01*
X141143678Y-100369299D01*
X141177022Y-100349579D01*
X141455848Y-100349579D01*
X141481525Y-100521130D01*
X141503160Y-100581996D01*
X141584675Y-100740630D01*
X141655796Y-100790096D01*
X141658899Y-100788519D01*
X141687499Y-100835203D01*
X141680300Y-100999624D01*
X141671730Y-101059132D01*
X141651486Y-101261513D01*
X141686571Y-101333116D01*
X141740245Y-101325613D01*
X141831542Y-101225889D01*
X141832381Y-101170893D01*
X141810963Y-101036495D01*
X141778969Y-100784617D01*
X141742817Y-100466256D01*
X141737810Y-100419476D01*
X141724031Y-100303495D01*
X141919563Y-100303495D01*
X141921161Y-100492270D01*
X141931657Y-100562834D01*
X141967463Y-100829994D01*
X141984802Y-101058169D01*
X141985068Y-101075830D01*
X142016901Y-101212489D01*
X142085055Y-101210108D01*
X142148541Y-101205993D01*
X142129661Y-101290781D01*
X142118973Y-101448178D01*
X142166875Y-101626742D01*
X142247665Y-101765596D01*
X142335639Y-101803861D01*
X142344423Y-101799457D01*
X142392042Y-101688214D01*
X142381518Y-101611611D01*
X142328525Y-101457390D01*
X142238232Y-101210452D01*
X142170141Y-101029500D01*
X142083358Y-100751969D01*
X142041810Y-100515622D01*
X142045873Y-100415666D01*
X142041664Y-100275289D01*
X141984797Y-100245334D01*
X141919563Y-100303495D01*
X141724031Y-100303495D01*
X141705081Y-100144005D01*
X141677933Y-99975307D01*
X141660994Y-99940244D01*
X141658595Y-99959800D01*
X141596446Y-100153342D01*
X141528913Y-100238213D01*
X141455848Y-100349579D01*
X141177022Y-100349579D01*
X141289828Y-100282866D01*
X141429911Y-100152658D01*
X141478000Y-100055017D01*
X141437249Y-100030490D01*
X141372167Y-100091625D01*
X141208645Y-100243229D01*
X141097000Y-100316899D01*
X140999253Y-100387726D01*
X140621473Y-100387726D01*
X140560055Y-100355620D01*
X140350751Y-100220229D01*
X140175892Y-100132241D01*
X140075411Y-100062931D01*
X140045642Y-99924894D01*
X140060643Y-99754652D01*
X140216667Y-99754652D01*
X140225333Y-100033667D01*
X140462000Y-100033667D01*
X140504334Y-100076000D01*
X140546667Y-100033667D01*
X140525581Y-100012581D01*
X140644380Y-100012581D01*
X140660990Y-100055488D01*
X140783243Y-100105082D01*
X140949238Y-100081512D01*
X141119665Y-99999594D01*
X141162131Y-99864334D01*
X141478000Y-99864334D01*
X141520334Y-99906667D01*
X141562667Y-99864334D01*
X141520334Y-99822000D01*
X141478000Y-99864334D01*
X141162131Y-99864334D01*
X141167156Y-99848332D01*
X141164796Y-99785807D01*
X141164834Y-99630040D01*
X141218013Y-99615405D01*
X141291796Y-99667032D01*
X141388746Y-99737098D01*
X141364809Y-99689989D01*
X141323643Y-99636533D01*
X141165702Y-99544809D01*
X140980019Y-99569130D01*
X140823749Y-99679527D01*
X140754047Y-99846027D01*
X140765493Y-99929223D01*
X140781662Y-100044909D01*
X140711989Y-100031188D01*
X140644380Y-100012581D01*
X140525581Y-100012581D01*
X140504334Y-99991334D01*
X140462000Y-100033667D01*
X140225333Y-100033667D01*
X140275935Y-99822000D01*
X140377334Y-99822000D01*
X140408312Y-99891690D01*
X140433778Y-99878445D01*
X140443911Y-99777965D01*
X140433778Y-99765556D01*
X140383444Y-99777178D01*
X140377334Y-99822000D01*
X140275935Y-99822000D01*
X140287823Y-99772276D01*
X140342796Y-99585917D01*
X140462000Y-99585917D01*
X140509417Y-99602779D01*
X140624567Y-99509934D01*
X140634632Y-99499298D01*
X140788073Y-99366046D01*
X140902743Y-99314000D01*
X140957536Y-99280182D01*
X140951948Y-99271667D01*
X141393334Y-99271667D01*
X141435667Y-99314000D01*
X141478000Y-99271667D01*
X141435667Y-99229334D01*
X141393334Y-99271667D01*
X140951948Y-99271667D01*
X140944420Y-99260198D01*
X140843126Y-99261084D01*
X140687336Y-99341707D01*
X140539846Y-99459671D01*
X140463449Y-99572578D01*
X140462000Y-99585917D01*
X140342796Y-99585917D01*
X140352552Y-99552848D01*
X140416320Y-99404082D01*
X140535439Y-99298384D01*
X140734254Y-99187738D01*
X140735922Y-99187000D01*
X141224000Y-99187000D01*
X141266334Y-99229334D01*
X141284194Y-99211473D01*
X141712324Y-99211473D01*
X141754841Y-99393614D01*
X141782760Y-99480257D01*
X141843974Y-99728009D01*
X141853420Y-99929803D01*
X141845062Y-99967090D01*
X141825618Y-100065216D01*
X141891753Y-100026553D01*
X141962326Y-99893908D01*
X142030379Y-99658574D01*
X142058965Y-99509646D01*
X142091502Y-99249945D01*
X142066005Y-99138430D01*
X142243375Y-99138430D01*
X142304343Y-99216963D01*
X142388167Y-99213510D01*
X142516141Y-99116885D01*
X142563389Y-98995635D01*
X142533242Y-98845531D01*
X142429354Y-98805057D01*
X142317343Y-98887653D01*
X142291392Y-98939925D01*
X142243375Y-99138430D01*
X142066005Y-99138430D01*
X142062586Y-99123481D01*
X141942413Y-99097142D01*
X141720737Y-99133861D01*
X141712324Y-99211473D01*
X141284194Y-99211473D01*
X141308667Y-99187000D01*
X141266334Y-99144667D01*
X141224000Y-99187000D01*
X140735922Y-99187000D01*
X140747331Y-99181953D01*
X140909100Y-99105422D01*
X140923619Y-99071806D01*
X140817985Y-99063314D01*
X140575563Y-99135225D01*
X140367607Y-99325543D01*
X140238178Y-99583612D01*
X140216667Y-99754652D01*
X140060643Y-99754652D01*
X140062884Y-99729221D01*
X140183022Y-99344155D01*
X140433965Y-99060756D01*
X140673667Y-98922555D01*
X140865052Y-98836424D01*
X141013849Y-98836424D01*
X141267091Y-98946291D01*
X141513811Y-99010912D01*
X141730422Y-99009216D01*
X141924887Y-98967475D01*
X142026755Y-98947637D01*
X142172121Y-98848223D01*
X142187795Y-98803070D01*
X142748000Y-98803070D01*
X142790976Y-98917276D01*
X142917334Y-98915199D01*
X143054520Y-98851121D01*
X143086667Y-98803050D01*
X143114189Y-98670329D01*
X143135553Y-98607788D01*
X143128293Y-98506275D01*
X143072053Y-98497411D01*
X142846379Y-98591208D01*
X142749732Y-98770738D01*
X142748000Y-98803070D01*
X142187795Y-98803070D01*
X142238423Y-98657235D01*
X142238704Y-98646756D01*
X142197399Y-98574791D01*
X142048060Y-98568363D01*
X141922500Y-98587625D01*
X141693491Y-98632716D01*
X141536106Y-98669774D01*
X141520334Y-98674668D01*
X141379493Y-98720952D01*
X141224758Y-98770177D01*
X141013849Y-98836424D01*
X140865052Y-98836424D01*
X140927667Y-98808245D01*
X140597896Y-98825254D01*
X140349260Y-98867099D01*
X140187343Y-98989369D01*
X140111379Y-99099298D01*
X140002231Y-99340125D01*
X139954404Y-99568046D01*
X139954317Y-99575056D01*
X139928676Y-99787574D01*
X139834323Y-99855313D01*
X139643855Y-99793872D01*
X139604599Y-99774116D01*
X139440541Y-99709959D01*
X139362397Y-99720077D01*
X139361334Y-99726877D01*
X139432560Y-99806121D01*
X139605008Y-99890316D01*
X139615334Y-99893980D01*
X139807543Y-100008380D01*
X139874013Y-100152973D01*
X139822669Y-100263776D01*
X139732149Y-100256982D01*
X139539824Y-100206816D01*
X139301608Y-100131542D01*
X139264906Y-100118334D01*
X139700000Y-100118334D01*
X139742334Y-100160667D01*
X139784667Y-100118334D01*
X139742334Y-100076000D01*
X139700000Y-100118334D01*
X139264906Y-100118334D01*
X139073413Y-100049423D01*
X138911153Y-99978725D01*
X138872131Y-99953278D01*
X138877983Y-99864334D01*
X139022667Y-99864334D01*
X139065000Y-99906667D01*
X139107334Y-99864334D01*
X139065000Y-99822000D01*
X139022667Y-99864334D01*
X138877983Y-99864334D01*
X138878751Y-99852666D01*
X138960815Y-99652152D01*
X139065727Y-99448744D01*
X139699472Y-99448744D01*
X139740159Y-99483334D01*
X139802023Y-99416453D01*
X139899073Y-99253440D01*
X139909493Y-99233538D01*
X140008598Y-99005963D01*
X140030277Y-98874014D01*
X139977768Y-98858049D01*
X139866517Y-98963547D01*
X139763393Y-99132896D01*
X139702929Y-99314300D01*
X139699472Y-99448744D01*
X139065727Y-99448744D01*
X139095984Y-99390081D01*
X139160143Y-99279775D01*
X139373874Y-99279775D01*
X139435998Y-99313993D01*
X139437637Y-99314000D01*
X139525197Y-99247713D01*
X139648810Y-99082761D01*
X139684777Y-99024454D01*
X139843999Y-98825860D01*
X140019798Y-98703921D01*
X140036985Y-98698708D01*
X140250334Y-98698708D01*
X140737167Y-98710021D01*
X141020888Y-98707423D01*
X141171089Y-98677064D01*
X141222498Y-98610335D01*
X141224000Y-98589337D01*
X141181544Y-98503505D01*
X141118167Y-98523640D01*
X140973504Y-98575579D01*
X140734979Y-98627732D01*
X140631334Y-98644325D01*
X140250334Y-98698708D01*
X140036985Y-98698708D01*
X140052973Y-98693859D01*
X140121603Y-98670119D01*
X140029718Y-98663614D01*
X139960262Y-98665904D01*
X139720423Y-98717493D01*
X139556487Y-98877271D01*
X139521950Y-98933000D01*
X139400597Y-99161491D01*
X139373874Y-99279775D01*
X139160143Y-99279775D01*
X139261919Y-99104797D01*
X139436281Y-98834648D01*
X139596732Y-98617976D01*
X139718516Y-98495556D01*
X141336889Y-98495556D01*
X141348511Y-98545890D01*
X141393334Y-98552000D01*
X141463024Y-98521022D01*
X141449778Y-98495556D01*
X141590889Y-98495556D01*
X141602511Y-98545890D01*
X141647334Y-98552000D01*
X141717024Y-98521022D01*
X141707516Y-98502742D01*
X142442608Y-98502742D01*
X142450307Y-98616400D01*
X142522820Y-98636667D01*
X142631544Y-98565963D01*
X142771116Y-98382794D01*
X142814156Y-98306767D01*
X142961691Y-98306767D01*
X143012591Y-98343954D01*
X143100894Y-98340845D01*
X143286121Y-98263370D01*
X143413801Y-98135323D01*
X143493437Y-97999083D01*
X143457610Y-97960818D01*
X143344797Y-97972568D01*
X143144349Y-98064137D01*
X143031889Y-98178090D01*
X142961691Y-98306767D01*
X142814156Y-98306767D01*
X142867051Y-98213334D01*
X142982395Y-97961896D01*
X143011847Y-97828861D01*
X143004484Y-97823236D01*
X143277323Y-97823236D01*
X143279945Y-97868332D01*
X143385352Y-97874246D01*
X143559804Y-97822955D01*
X143771398Y-97697495D01*
X143804452Y-97672105D01*
X144056571Y-97470385D01*
X143812859Y-97497138D01*
X143567192Y-97578530D01*
X143393759Y-97699279D01*
X143277323Y-97823236D01*
X143004484Y-97823236D01*
X142960974Y-97790000D01*
X142821703Y-97847456D01*
X142704747Y-97979907D01*
X142647634Y-98127479D01*
X142685805Y-98229013D01*
X142727825Y-98283156D01*
X142642167Y-98296704D01*
X142516246Y-98314611D01*
X142494000Y-98333409D01*
X142467661Y-98432933D01*
X142442608Y-98502742D01*
X141707516Y-98502742D01*
X141703778Y-98495556D01*
X141603298Y-98485423D01*
X141590889Y-98495556D01*
X141449778Y-98495556D01*
X141349298Y-98485423D01*
X141336889Y-98495556D01*
X139718516Y-98495556D01*
X139720932Y-98493128D01*
X139723924Y-98491164D01*
X139818855Y-98365516D01*
X139827000Y-98319167D01*
X139880013Y-98224155D01*
X139911667Y-98218291D01*
X139980192Y-98290513D01*
X139984041Y-98348492D01*
X140005299Y-98415749D01*
X140109072Y-98443429D01*
X140329252Y-98436406D01*
X140365708Y-98433081D01*
X142029322Y-98433081D01*
X142089173Y-98463451D01*
X142227554Y-98384550D01*
X142331722Y-98290945D01*
X142443003Y-98152694D01*
X142462374Y-98068818D01*
X142344367Y-98052478D01*
X142192556Y-98143078D01*
X142073226Y-98293218D01*
X142029322Y-98433081D01*
X140365708Y-98433081D01*
X140492041Y-98421559D01*
X140843439Y-98383211D01*
X141059322Y-98340620D01*
X141102973Y-98314609D01*
X141393334Y-98314609D01*
X141462894Y-98366416D01*
X141620117Y-98378979D01*
X141787814Y-98351760D01*
X141859000Y-98317870D01*
X141949556Y-98224264D01*
X142108259Y-98037872D01*
X142187030Y-97941026D01*
X142372810Y-97941026D01*
X142433652Y-97959334D01*
X142566595Y-97890416D01*
X142696151Y-97723480D01*
X142701814Y-97712783D01*
X142758734Y-97632179D01*
X142971153Y-97632179D01*
X143007826Y-97673312D01*
X143081820Y-97681689D01*
X143256823Y-97631900D01*
X143388296Y-97530149D01*
X143485909Y-97410709D01*
X143460963Y-97370620D01*
X143366911Y-97366667D01*
X143177930Y-97426647D01*
X143060436Y-97518207D01*
X142971153Y-97632179D01*
X142758734Y-97632179D01*
X142855459Y-97495211D01*
X143068372Y-97279117D01*
X143106155Y-97248056D01*
X143250758Y-97116341D01*
X143293111Y-97038161D01*
X143273472Y-97028939D01*
X143179573Y-97057827D01*
X143045133Y-97158708D01*
X142848631Y-97350827D01*
X142568548Y-97653431D01*
X142540825Y-97684167D01*
X142398578Y-97857430D01*
X142372810Y-97941026D01*
X142187030Y-97941026D01*
X142301011Y-97800892D01*
X142493720Y-97555523D01*
X142652288Y-97343963D01*
X142695961Y-97282000D01*
X142693176Y-97258540D01*
X142592091Y-97335497D01*
X142486284Y-97430167D01*
X142286786Y-97593514D01*
X142121247Y-97692123D01*
X142070667Y-97705334D01*
X141947375Y-97760371D01*
X141767529Y-97895148D01*
X141581715Y-98064163D01*
X141440517Y-98221912D01*
X141393334Y-98314609D01*
X141102973Y-98314609D01*
X141172700Y-98273061D01*
X141216587Y-98159805D01*
X141222766Y-98009926D01*
X141358887Y-98009926D01*
X141388138Y-98044000D01*
X141486416Y-97987652D01*
X141605000Y-97874667D01*
X141706574Y-97752061D01*
X141687345Y-97709946D01*
X141585664Y-97705334D01*
X141420920Y-97778680D01*
X141368801Y-97874667D01*
X141358887Y-98009926D01*
X141222766Y-98009926D01*
X141223995Y-97980126D01*
X141224000Y-97961991D01*
X141232259Y-97744094D01*
X141287606Y-97646840D01*
X141435896Y-97621545D01*
X141545484Y-97620667D01*
X141775549Y-97593755D01*
X141822871Y-97568449D01*
X142070667Y-97568449D01*
X142123671Y-97565782D01*
X142259212Y-97465347D01*
X142365732Y-97367896D01*
X142528432Y-97194919D01*
X142615224Y-97071837D01*
X142618849Y-97039960D01*
X142538900Y-97063998D01*
X142397726Y-97174023D01*
X142241736Y-97325294D01*
X142117335Y-97473073D01*
X142070667Y-97568449D01*
X141822871Y-97568449D01*
X141969449Y-97490066D01*
X142168370Y-97303167D01*
X142393249Y-97040146D01*
X142517091Y-96837548D01*
X142530418Y-96714737D01*
X142470176Y-96686641D01*
X142447669Y-96644192D01*
X142531349Y-96559641D01*
X142626926Y-96465567D01*
X142616016Y-96429967D01*
X142621467Y-96400724D01*
X142737748Y-96343991D01*
X142957436Y-96310231D01*
X143041871Y-96348623D01*
D12*
X135790000Y-82010000D02*
X138530000Y-82010000D01*
X138530000Y-82010000D02*
X138530000Y-75470000D01*
X138530000Y-75470000D02*
X135790000Y-75470000D01*
X135790000Y-75470000D02*
X135790000Y-82010000D01*
X137160000Y-82780000D02*
X137160000Y-82010000D01*
X137160000Y-74700000D02*
X137160000Y-75470000D01*
X142240000Y-74700000D02*
X142240000Y-75470000D01*
X142240000Y-82780000D02*
X142240000Y-82010000D01*
X140870000Y-75470000D02*
X140870000Y-82010000D01*
X143610000Y-75470000D02*
X140870000Y-75470000D01*
X143610000Y-82010000D02*
X143610000Y-75470000D01*
X140870000Y-82010000D02*
X143610000Y-82010000D01*
X130710000Y-82010000D02*
X133450000Y-82010000D01*
X133450000Y-82010000D02*
X133450000Y-75470000D01*
X133450000Y-75470000D02*
X130710000Y-75470000D01*
X130710000Y-75470000D02*
X130710000Y-82010000D01*
X132080000Y-82780000D02*
X132080000Y-82010000D01*
X132080000Y-74700000D02*
X132080000Y-75470000D01*
X155759000Y-86530000D02*
X155759000Y-81190000D01*
X159201000Y-86530000D02*
X159201000Y-81190000D01*
X155759000Y-86530000D02*
X156425000Y-86530000D01*
X158535000Y-86530000D02*
X159201000Y-86530000D01*
X155759000Y-81190000D02*
X156425000Y-81190000D01*
X158535000Y-81190000D02*
X159201000Y-81190000D01*
X147220000Y-73560000D02*
X152460000Y-73560000D01*
X147220000Y-76300000D02*
X152460000Y-76300000D01*
X147220000Y-73560000D02*
X147220000Y-76300000D01*
X152460000Y-73560000D02*
X152460000Y-76300000D01*
X147340000Y-90250000D02*
X147340000Y-96220000D01*
X147340000Y-96220000D02*
X157460000Y-96220000D01*
X157460000Y-96220000D02*
X157460000Y-90250000D01*
X157460000Y-90250000D02*
X147340000Y-90250000D01*
X150650000Y-90260000D02*
X150650000Y-91010000D01*
X150650000Y-91010000D02*
X154150000Y-91010000D01*
X154150000Y-91010000D02*
X154150000Y-90260000D01*
X154150000Y-90260000D02*
X150650000Y-90260000D01*
X147350000Y-90260000D02*
X147350000Y-91010000D01*
X147350000Y-91010000D02*
X149150000Y-91010000D01*
X149150000Y-91010000D02*
X149150000Y-90260000D01*
X149150000Y-90260000D02*
X147350000Y-90260000D01*
X155650000Y-90260000D02*
X155650000Y-91010000D01*
X155650000Y-91010000D02*
X157450000Y-91010000D01*
X157450000Y-91010000D02*
X157450000Y-90260000D01*
X157450000Y-90260000D02*
X155650000Y-90260000D01*
X147350000Y-92510000D02*
X148100000Y-92510000D01*
X148100000Y-92510000D02*
X148100000Y-93850000D01*
X152400000Y-95460000D02*
X149160000Y-95460000D01*
X157450000Y-92510000D02*
X156700000Y-92510000D01*
X156700000Y-92510000D02*
X156700000Y-95460000D01*
X156700000Y-95460000D02*
X152400000Y-95460000D01*
X148300000Y-89960000D02*
X147050000Y-89960000D01*
X147050000Y-89960000D02*
X147050000Y-91210000D01*
X134811392Y-88497665D02*
G75*
G03X134654484Y-91730000I1078608J-1672335D01*
G01*
X136968608Y-88497665D02*
G75*
G02X137125516Y-91730000I-1078608J-1672335D01*
G01*
X134810163Y-89128870D02*
G75*
G03X134810000Y-91210961I1079837J-1041130D01*
G01*
X136969837Y-89128870D02*
G75*
G02X136970000Y-91210961I-1079837J-1041130D01*
G01*
X134654000Y-91730000D02*
X134810000Y-91730000D01*
X136970000Y-91730000D02*
X137126000Y-91730000D01*
X128461392Y-88497665D02*
G75*
G03X128304484Y-91730000I1078608J-1672335D01*
G01*
X130618608Y-88497665D02*
G75*
G02X130775516Y-91730000I-1078608J-1672335D01*
G01*
X128460163Y-89128870D02*
G75*
G03X128460000Y-91210961I1079837J-1041130D01*
G01*
X130619837Y-89128870D02*
G75*
G02X130620000Y-91210961I-1079837J-1041130D01*
G01*
X128304000Y-91730000D02*
X128460000Y-91730000D01*
X130620000Y-91730000D02*
X130776000Y-91730000D01*
X143320000Y-91730000D02*
X143476000Y-91730000D01*
X141004000Y-91730000D02*
X141160000Y-91730000D01*
X143319837Y-89128870D02*
G75*
G02X143320000Y-91210961I-1079837J-1041130D01*
G01*
X141160163Y-89128870D02*
G75*
G03X141160000Y-91210961I1079837J-1041130D01*
G01*
X143318608Y-88497665D02*
G75*
G02X143475516Y-91730000I-1078608J-1672335D01*
G01*
X141161392Y-88497665D02*
G75*
G03X141004484Y-91730000I1078608J-1672335D01*
G01*
X149860000Y-86985000D02*
X151810000Y-86985000D01*
X149860000Y-86985000D02*
X147910000Y-86985000D01*
X149860000Y-78115000D02*
X151810000Y-78115000D01*
X149860000Y-78115000D02*
X146410000Y-78115000D01*
X121710000Y-85400000D02*
X122960000Y-85400000D01*
X121710000Y-84150000D02*
X121710000Y-85400000D01*
X127210000Y-73250000D02*
X127210000Y-78800000D01*
X124260000Y-73250000D02*
X127210000Y-73250000D01*
X124260000Y-72500000D02*
X124260000Y-73250000D01*
X127210000Y-78800000D02*
X127210000Y-83290000D01*
X124260000Y-84350000D02*
X125600000Y-84350000D01*
X124260000Y-85100000D02*
X124260000Y-84350000D01*
X122010000Y-72500000D02*
X122010000Y-74300000D01*
X122760000Y-72500000D02*
X122010000Y-72500000D01*
X122760000Y-74300000D02*
X122760000Y-72500000D01*
X122010000Y-74300000D02*
X122760000Y-74300000D01*
X122010000Y-83300000D02*
X122010000Y-85100000D01*
X122760000Y-83300000D02*
X122010000Y-83300000D01*
X122760000Y-85100000D02*
X122760000Y-83300000D01*
X122010000Y-85100000D02*
X122760000Y-85100000D01*
X122010000Y-75800000D02*
X122010000Y-81800000D01*
X122760000Y-75800000D02*
X122010000Y-75800000D01*
X122760000Y-81800000D02*
X122760000Y-75800000D01*
X122010000Y-81800000D02*
X122760000Y-81800000D01*
X122000000Y-72490000D02*
X122000000Y-85110000D01*
X127970000Y-72490000D02*
X122000000Y-72490000D01*
X127970000Y-85110000D02*
X127970000Y-72490000D01*
X122000000Y-85110000D02*
X127970000Y-85110000D01*
D10*
X160732380Y-90404285D02*
X159732380Y-90404285D01*
X159827619Y-89975714D02*
X159780000Y-89928095D01*
X159732380Y-89832857D01*
X159732380Y-89594761D01*
X159780000Y-89499523D01*
X159827619Y-89451904D01*
X159922857Y-89404285D01*
X160018095Y-89404285D01*
X160160952Y-89451904D01*
X160732380Y-90023333D01*
X160732380Y-89404285D01*
X160637142Y-88404285D02*
X160684761Y-88451904D01*
X160732380Y-88594761D01*
X160732380Y-88690000D01*
X160684761Y-88832857D01*
X160589523Y-88928095D01*
X160494285Y-88975714D01*
X160303809Y-89023333D01*
X160160952Y-89023333D01*
X159970476Y-88975714D01*
X159875238Y-88928095D01*
X159780000Y-88832857D01*
X159732380Y-88690000D01*
X159732380Y-88594761D01*
X159780000Y-88451904D01*
X159827619Y-88404285D01*
X160827619Y-88213809D02*
X160827619Y-87451904D01*
X160208571Y-86880476D02*
X160256190Y-86737619D01*
X160303809Y-86690000D01*
X160399047Y-86642380D01*
X160541904Y-86642380D01*
X160637142Y-86690000D01*
X160684761Y-86737619D01*
X160732380Y-86832857D01*
X160732380Y-87213809D01*
X159732380Y-87213809D01*
X159732380Y-86880476D01*
X159780000Y-86785238D01*
X159827619Y-86737619D01*
X159922857Y-86690000D01*
X160018095Y-86690000D01*
X160113333Y-86737619D01*
X160160952Y-86785238D01*
X160208571Y-86880476D01*
X160208571Y-87213809D01*
X160065714Y-85785238D02*
X160732380Y-85785238D01*
X160065714Y-86213809D02*
X160589523Y-86213809D01*
X160684761Y-86166190D01*
X160732380Y-86070952D01*
X160732380Y-85928095D01*
X160684761Y-85832857D01*
X160637142Y-85785238D01*
X160684761Y-85356666D02*
X160732380Y-85261428D01*
X160732380Y-85070952D01*
X160684761Y-84975714D01*
X160589523Y-84928095D01*
X160541904Y-84928095D01*
X160446666Y-84975714D01*
X160399047Y-85070952D01*
X160399047Y-85213809D01*
X160351428Y-85309047D01*
X160256190Y-85356666D01*
X160208571Y-85356666D01*
X160113333Y-85309047D01*
X160065714Y-85213809D01*
X160065714Y-85070952D01*
X160113333Y-84975714D01*
X148090476Y-89612380D02*
X148090476Y-88612380D01*
X148471428Y-88612380D01*
X148566666Y-88660000D01*
X148614285Y-88707619D01*
X148661904Y-88802857D01*
X148661904Y-88945714D01*
X148614285Y-89040952D01*
X148566666Y-89088571D01*
X148471428Y-89136190D01*
X148090476Y-89136190D01*
X149090476Y-89612380D02*
X149090476Y-88945714D01*
X149090476Y-89136190D02*
X149138095Y-89040952D01*
X149185714Y-88993333D01*
X149280952Y-88945714D01*
X149376190Y-88945714D01*
X149852380Y-89612380D02*
X149757142Y-89564761D01*
X149709523Y-89517142D01*
X149661904Y-89421904D01*
X149661904Y-89136190D01*
X149709523Y-89040952D01*
X149757142Y-88993333D01*
X149852380Y-88945714D01*
X149995238Y-88945714D01*
X150090476Y-88993333D01*
X150138095Y-89040952D01*
X150185714Y-89136190D01*
X150185714Y-89421904D01*
X150138095Y-89517142D01*
X150090476Y-89564761D01*
X149995238Y-89612380D01*
X149852380Y-89612380D01*
X151042857Y-88945714D02*
X151042857Y-89755238D01*
X150995238Y-89850476D01*
X150947619Y-89898095D01*
X150852380Y-89945714D01*
X150709523Y-89945714D01*
X150614285Y-89898095D01*
X151042857Y-89564761D02*
X150947619Y-89612380D01*
X150757142Y-89612380D01*
X150661904Y-89564761D01*
X150614285Y-89517142D01*
X150566666Y-89421904D01*
X150566666Y-89136190D01*
X150614285Y-89040952D01*
X150661904Y-88993333D01*
X150757142Y-88945714D01*
X150947619Y-88945714D01*
X151042857Y-88993333D01*
X151519047Y-89612380D02*
X151519047Y-88945714D01*
X151519047Y-89136190D02*
X151566666Y-89040952D01*
X151614285Y-88993333D01*
X151709523Y-88945714D01*
X151804761Y-88945714D01*
X152566666Y-89612380D02*
X152566666Y-89088571D01*
X152519047Y-88993333D01*
X152423809Y-88945714D01*
X152233333Y-88945714D01*
X152138095Y-88993333D01*
X152566666Y-89564761D02*
X152471428Y-89612380D01*
X152233333Y-89612380D01*
X152138095Y-89564761D01*
X152090476Y-89469523D01*
X152090476Y-89374285D01*
X152138095Y-89279047D01*
X152233333Y-89231428D01*
X152471428Y-89231428D01*
X152566666Y-89183809D01*
X153042857Y-89612380D02*
X153042857Y-88945714D01*
X153042857Y-89040952D02*
X153090476Y-88993333D01*
X153185714Y-88945714D01*
X153328571Y-88945714D01*
X153423809Y-88993333D01*
X153471428Y-89088571D01*
X153471428Y-89612380D01*
X153471428Y-89088571D02*
X153519047Y-88993333D01*
X153614285Y-88945714D01*
X153757142Y-88945714D01*
X153852380Y-88993333D01*
X153900000Y-89088571D01*
X153900000Y-89612380D01*
X154376190Y-89612380D02*
X154376190Y-88945714D01*
X154376190Y-89040952D02*
X154423809Y-88993333D01*
X154519047Y-88945714D01*
X154661904Y-88945714D01*
X154757142Y-88993333D01*
X154804761Y-89088571D01*
X154804761Y-89612380D01*
X154804761Y-89088571D02*
X154852380Y-88993333D01*
X154947619Y-88945714D01*
X155090476Y-88945714D01*
X155185714Y-88993333D01*
X155233333Y-89088571D01*
X155233333Y-89612380D01*
X156090476Y-89564761D02*
X155995238Y-89612380D01*
X155804761Y-89612380D01*
X155709523Y-89564761D01*
X155661904Y-89469523D01*
X155661904Y-89088571D01*
X155709523Y-88993333D01*
X155804761Y-88945714D01*
X155995238Y-88945714D01*
X156090476Y-88993333D01*
X156138095Y-89088571D01*
X156138095Y-89183809D01*
X155661904Y-89279047D01*
X156566666Y-89612380D02*
X156566666Y-88945714D01*
X156566666Y-89136190D02*
X156614285Y-89040952D01*
X156661904Y-88993333D01*
X156757142Y-88945714D01*
X156852380Y-88945714D01*
X133382380Y-90955714D02*
X133382380Y-91431904D01*
X132382380Y-91431904D01*
X133382380Y-90622380D02*
X132715714Y-90622380D01*
X132382380Y-90622380D02*
X132430000Y-90670000D01*
X132477619Y-90622380D01*
X132430000Y-90574761D01*
X132382380Y-90622380D01*
X132477619Y-90622380D01*
X132715714Y-90146190D02*
X133382380Y-90146190D01*
X132810952Y-90146190D02*
X132763333Y-90098571D01*
X132715714Y-90003333D01*
X132715714Y-89860476D01*
X132763333Y-89765238D01*
X132858571Y-89717619D01*
X133382380Y-89717619D01*
X133382380Y-89241428D02*
X132382380Y-89241428D01*
X133001428Y-89146190D02*
X133382380Y-88860476D01*
X132715714Y-88860476D02*
X133096666Y-89241428D01*
X127032380Y-92979523D02*
X126032380Y-92979523D01*
X126746666Y-92646190D01*
X126032380Y-92312857D01*
X127032380Y-92312857D01*
X126984761Y-91455714D02*
X127032380Y-91550952D01*
X127032380Y-91741428D01*
X126984761Y-91836666D01*
X126889523Y-91884285D01*
X126508571Y-91884285D01*
X126413333Y-91836666D01*
X126365714Y-91741428D01*
X126365714Y-91550952D01*
X126413333Y-91455714D01*
X126508571Y-91408095D01*
X126603809Y-91408095D01*
X126699047Y-91884285D01*
X127032380Y-90550952D02*
X126508571Y-90550952D01*
X126413333Y-90598571D01*
X126365714Y-90693809D01*
X126365714Y-90884285D01*
X126413333Y-90979523D01*
X126984761Y-90550952D02*
X127032380Y-90646190D01*
X127032380Y-90884285D01*
X126984761Y-90979523D01*
X126889523Y-91027142D01*
X126794285Y-91027142D01*
X126699047Y-90979523D01*
X126651428Y-90884285D01*
X126651428Y-90646190D01*
X126603809Y-90550952D01*
X126984761Y-90122380D02*
X127032380Y-90027142D01*
X127032380Y-89836666D01*
X126984761Y-89741428D01*
X126889523Y-89693809D01*
X126841904Y-89693809D01*
X126746666Y-89741428D01*
X126699047Y-89836666D01*
X126699047Y-89979523D01*
X126651428Y-90074761D01*
X126556190Y-90122380D01*
X126508571Y-90122380D01*
X126413333Y-90074761D01*
X126365714Y-89979523D01*
X126365714Y-89836666D01*
X126413333Y-89741428D01*
X126365714Y-88836666D02*
X127032380Y-88836666D01*
X126365714Y-89265238D02*
X126889523Y-89265238D01*
X126984761Y-89217619D01*
X127032380Y-89122380D01*
X127032380Y-88979523D01*
X126984761Y-88884285D01*
X126937142Y-88836666D01*
X127032380Y-88360476D02*
X126365714Y-88360476D01*
X126556190Y-88360476D02*
X126460952Y-88312857D01*
X126413333Y-88265238D01*
X126365714Y-88170000D01*
X126365714Y-88074761D01*
X126984761Y-87360476D02*
X127032380Y-87455714D01*
X127032380Y-87646190D01*
X126984761Y-87741428D01*
X126889523Y-87789047D01*
X126508571Y-87789047D01*
X126413333Y-87741428D01*
X126365714Y-87646190D01*
X126365714Y-87455714D01*
X126413333Y-87360476D01*
X126508571Y-87312857D01*
X126603809Y-87312857D01*
X126699047Y-87789047D01*
X139732380Y-92146190D02*
X138732380Y-92146190D01*
X138732380Y-91765238D01*
X138780000Y-91670000D01*
X138827619Y-91622380D01*
X138922857Y-91574761D01*
X139065714Y-91574761D01*
X139160952Y-91622380D01*
X139208571Y-91670000D01*
X139256190Y-91765238D01*
X139256190Y-92146190D01*
X139732380Y-91003333D02*
X139684761Y-91098571D01*
X139637142Y-91146190D01*
X139541904Y-91193809D01*
X139256190Y-91193809D01*
X139160952Y-91146190D01*
X139113333Y-91098571D01*
X139065714Y-91003333D01*
X139065714Y-90860476D01*
X139113333Y-90765238D01*
X139160952Y-90717619D01*
X139256190Y-90670000D01*
X139541904Y-90670000D01*
X139637142Y-90717619D01*
X139684761Y-90765238D01*
X139732380Y-90860476D01*
X139732380Y-91003333D01*
X139065714Y-90336666D02*
X139732380Y-90146190D01*
X139256190Y-89955714D01*
X139732380Y-89765238D01*
X139065714Y-89574761D01*
X139684761Y-88812857D02*
X139732380Y-88908095D01*
X139732380Y-89098571D01*
X139684761Y-89193809D01*
X139589523Y-89241428D01*
X139208571Y-89241428D01*
X139113333Y-89193809D01*
X139065714Y-89098571D01*
X139065714Y-88908095D01*
X139113333Y-88812857D01*
X139208571Y-88765238D01*
X139303809Y-88765238D01*
X139399047Y-89241428D01*
X139732380Y-88336666D02*
X139065714Y-88336666D01*
X139256190Y-88336666D02*
X139160952Y-88289047D01*
X139113333Y-88241428D01*
X139065714Y-88146190D01*
X139065714Y-88050952D01*
X120362380Y-82466666D02*
X121171904Y-82466666D01*
X121267142Y-82419047D01*
X121314761Y-82371428D01*
X121362380Y-82276190D01*
X121362380Y-82085714D01*
X121314761Y-81990476D01*
X121267142Y-81942857D01*
X121171904Y-81895238D01*
X120362380Y-81895238D01*
X121314761Y-81466666D02*
X121362380Y-81323809D01*
X121362380Y-81085714D01*
X121314761Y-80990476D01*
X121267142Y-80942857D01*
X121171904Y-80895238D01*
X121076666Y-80895238D01*
X120981428Y-80942857D01*
X120933809Y-80990476D01*
X120886190Y-81085714D01*
X120838571Y-81276190D01*
X120790952Y-81371428D01*
X120743333Y-81419047D01*
X120648095Y-81466666D01*
X120552857Y-81466666D01*
X120457619Y-81419047D01*
X120410000Y-81371428D01*
X120362380Y-81276190D01*
X120362380Y-81038095D01*
X120410000Y-80895238D01*
X121457619Y-80704761D02*
X121457619Y-79942857D01*
X121314761Y-79752380D02*
X121362380Y-79609523D01*
X121362380Y-79371428D01*
X121314761Y-79276190D01*
X121267142Y-79228571D01*
X121171904Y-79180952D01*
X121076666Y-79180952D01*
X120981428Y-79228571D01*
X120933809Y-79276190D01*
X120886190Y-79371428D01*
X120838571Y-79561904D01*
X120790952Y-79657142D01*
X120743333Y-79704761D01*
X120648095Y-79752380D01*
X120552857Y-79752380D01*
X120457619Y-79704761D01*
X120410000Y-79657142D01*
X120362380Y-79561904D01*
X120362380Y-79323809D01*
X120410000Y-79180952D01*
X121314761Y-78371428D02*
X121362380Y-78466666D01*
X121362380Y-78657142D01*
X121314761Y-78752380D01*
X121219523Y-78800000D01*
X120838571Y-78800000D01*
X120743333Y-78752380D01*
X120695714Y-78657142D01*
X120695714Y-78466666D01*
X120743333Y-78371428D01*
X120838571Y-78323809D01*
X120933809Y-78323809D01*
X121029047Y-78800000D01*
X120695714Y-77895238D02*
X121362380Y-77895238D01*
X120790952Y-77895238D02*
X120743333Y-77847619D01*
X120695714Y-77752380D01*
X120695714Y-77609523D01*
X120743333Y-77514285D01*
X120838571Y-77466666D01*
X121362380Y-77466666D01*
X121314761Y-77038095D02*
X121362380Y-76942857D01*
X121362380Y-76752380D01*
X121314761Y-76657142D01*
X121219523Y-76609523D01*
X121171904Y-76609523D01*
X121076666Y-76657142D01*
X121029047Y-76752380D01*
X121029047Y-76895238D01*
X120981428Y-76990476D01*
X120886190Y-77038095D01*
X120838571Y-77038095D01*
X120743333Y-76990476D01*
X120695714Y-76895238D01*
X120695714Y-76752380D01*
X120743333Y-76657142D01*
X121362380Y-76038095D02*
X121314761Y-76133333D01*
X121267142Y-76180952D01*
X121171904Y-76228571D01*
X120886190Y-76228571D01*
X120790952Y-76180952D01*
X120743333Y-76133333D01*
X120695714Y-76038095D01*
X120695714Y-75895238D01*
X120743333Y-75800000D01*
X120790952Y-75752380D01*
X120886190Y-75704761D01*
X121171904Y-75704761D01*
X121267142Y-75752380D01*
X121314761Y-75800000D01*
X121362380Y-75895238D01*
X121362380Y-76038095D01*
X121362380Y-75276190D02*
X120695714Y-75276190D01*
X120886190Y-75276190D02*
X120790952Y-75228571D01*
X120743333Y-75180952D01*
X120695714Y-75085714D01*
X120695714Y-74990476D01*
M02*
