M48
; DRILL file {KiCad (5.1.5)-3} date 26/02/2021 8:57:03 PM
; FORMAT={-:-/ absolute / metric / decimal}
; #@! TF.CreationDate,2021-02-26T20:57:03+11:00
; #@! TF.GenerationSoftware,Kicad,Pcbnew,(5.1.5)-3
; #@! TF.FileFunction,Plated,1,2,PTH
FMAT,2
METRIC
T1C0.400
T2C0.750
T3C0.800
T4C0.900
T5C0.950
T6C1.000
%
G90
G05
T1
X164.338Y-109.22
X169.164Y-94.488
X169.672Y-104.648
X169.672Y-107.95
X172.466Y-94.488
X176.276Y-104.648
X176.276Y-108.204
T2
X166.37Y-104.41
X166.37Y-105.68
X166.37Y-106.95
X173.99Y-104.41
X173.99Y-105.68
X173.99Y-106.95
T3
X157.48Y-89.424
X157.48Y-99.584
X168.91Y-85.598
X173.91Y-85.598
X172.72Y-89.424
X172.72Y-99.584
X168.91Y-89.424
X168.91Y-99.584
X161.29Y-89.424
X161.29Y-99.584
X165.1Y-89.424
X165.1Y-99.584
X160.02Y-85.598
X165.02Y-85.598
X176.53Y-89.424
X176.53Y-99.584
T4
X181.61Y-87.9
X184.15Y-87.9
X149.86Y-87.9
X152.4Y-87.9
T5
X190.0Y-104.53
X190.0Y-107.03
X190.0Y-109.53
X190.0Y-112.03
X181.61Y-104.53
X181.61Y-107.03
X181.61Y-109.53
X181.61Y-112.03
X157.48Y-104.53
X157.48Y-107.03
X157.48Y-109.53
X157.48Y-112.03
T6
X181.61Y-94.29
X181.61Y-96.79
X151.13Y-94.29
X151.13Y-96.79
T0
M30
