G04 #@! TF.GenerationSoftware,KiCad,Pcbnew,(5.1.5)-3*
G04 #@! TF.CreationDate,2021-02-26T20:57:10+11:00*
G04 #@! TF.ProjectId,I2C_Interface,4932435f-496e-4746-9572-666163652e6b,rev?*
G04 #@! TF.SameCoordinates,Original*
G04 #@! TF.FileFunction,Soldermask,Bot*
G04 #@! TF.FilePolarity,Negative*
%FSLAX46Y46*%
G04 Gerber Fmt 4.6, Leading zero omitted, Abs format (unit mm)*
G04 Created by KiCad (PCBNEW (5.1.5)-3) date 2021-02-26 20:57:10*
%MOMM*%
%LPD*%
G04 APERTURE LIST*
%ADD10C,0.100000*%
G04 APERTURE END LIST*
D10*
G36*
X159669890Y-113004017D02*
G01*
X159788364Y-113053091D01*
X159894988Y-113124335D01*
X159985665Y-113215012D01*
X160056909Y-113321636D01*
X160105983Y-113440110D01*
X160131000Y-113565882D01*
X160131000Y-113694118D01*
X160105983Y-113819890D01*
X160056909Y-113938364D01*
X159985665Y-114044988D01*
X159894988Y-114135665D01*
X159788364Y-114206909D01*
X159788363Y-114206910D01*
X159788362Y-114206910D01*
X159669890Y-114255983D01*
X159544119Y-114281000D01*
X159415881Y-114281000D01*
X159290110Y-114255983D01*
X159171638Y-114206910D01*
X159171637Y-114206910D01*
X159171636Y-114206909D01*
X159065012Y-114135665D01*
X158974335Y-114044988D01*
X158903091Y-113938364D01*
X158854017Y-113819890D01*
X158829000Y-113694118D01*
X158829000Y-113565882D01*
X158854017Y-113440110D01*
X158903091Y-113321636D01*
X158974335Y-113215012D01*
X159065012Y-113124335D01*
X159171636Y-113053091D01*
X159290110Y-113004017D01*
X159415881Y-112979000D01*
X159544119Y-112979000D01*
X159669890Y-113004017D01*
G37*
G36*
X192189890Y-113004017D02*
G01*
X192308364Y-113053091D01*
X192414988Y-113124335D01*
X192505665Y-113215012D01*
X192576909Y-113321636D01*
X192625983Y-113440110D01*
X192651000Y-113565882D01*
X192651000Y-113694118D01*
X192625983Y-113819890D01*
X192576909Y-113938364D01*
X192505665Y-114044988D01*
X192414988Y-114135665D01*
X192308364Y-114206909D01*
X192308363Y-114206910D01*
X192308362Y-114206910D01*
X192189890Y-114255983D01*
X192064119Y-114281000D01*
X191935881Y-114281000D01*
X191810110Y-114255983D01*
X191691638Y-114206910D01*
X191691637Y-114206910D01*
X191691636Y-114206909D01*
X191585012Y-114135665D01*
X191494335Y-114044988D01*
X191423091Y-113938364D01*
X191374017Y-113819890D01*
X191349000Y-113694118D01*
X191349000Y-113565882D01*
X191374017Y-113440110D01*
X191423091Y-113321636D01*
X191494335Y-113215012D01*
X191585012Y-113124335D01*
X191691636Y-113053091D01*
X191810110Y-113004017D01*
X191935881Y-112979000D01*
X192064119Y-112979000D01*
X192189890Y-113004017D01*
G37*
G36*
X183799890Y-113004017D02*
G01*
X183918364Y-113053091D01*
X184024988Y-113124335D01*
X184115665Y-113215012D01*
X184186909Y-113321636D01*
X184235983Y-113440110D01*
X184261000Y-113565882D01*
X184261000Y-113694118D01*
X184235983Y-113819890D01*
X184186909Y-113938364D01*
X184115665Y-114044988D01*
X184024988Y-114135665D01*
X183918364Y-114206909D01*
X183918363Y-114206910D01*
X183918362Y-114206910D01*
X183799890Y-114255983D01*
X183674119Y-114281000D01*
X183545881Y-114281000D01*
X183420110Y-114255983D01*
X183301638Y-114206910D01*
X183301637Y-114206910D01*
X183301636Y-114206909D01*
X183195012Y-114135665D01*
X183104335Y-114044988D01*
X183033091Y-113938364D01*
X182984017Y-113819890D01*
X182959000Y-113694118D01*
X182959000Y-113565882D01*
X182984017Y-113440110D01*
X183033091Y-113321636D01*
X183104335Y-113215012D01*
X183195012Y-113124335D01*
X183301636Y-113053091D01*
X183420110Y-113004017D01*
X183545881Y-112979000D01*
X183674119Y-112979000D01*
X183799890Y-113004017D01*
G37*
G36*
X190883600Y-111132989D02*
G01*
X190916652Y-111143015D01*
X190947103Y-111159292D01*
X190973799Y-111181201D01*
X190995708Y-111207897D01*
X191011985Y-111238348D01*
X191022011Y-111271400D01*
X191026000Y-111311903D01*
X191026000Y-112748097D01*
X191022011Y-112788600D01*
X191011985Y-112821652D01*
X190995708Y-112852103D01*
X190973799Y-112878799D01*
X190947103Y-112900708D01*
X190916652Y-112916985D01*
X190883600Y-112927011D01*
X190843097Y-112931000D01*
X189156903Y-112931000D01*
X189116400Y-112927011D01*
X189083348Y-112916985D01*
X189052897Y-112900708D01*
X189026201Y-112878799D01*
X189004292Y-112852103D01*
X188988015Y-112821652D01*
X188977989Y-112788600D01*
X188974000Y-112748097D01*
X188974000Y-111311903D01*
X188977989Y-111271400D01*
X188988015Y-111238348D01*
X189004292Y-111207897D01*
X189026201Y-111181201D01*
X189052897Y-111159292D01*
X189083348Y-111143015D01*
X189116400Y-111132989D01*
X189156903Y-111129000D01*
X190843097Y-111129000D01*
X190883600Y-111132989D01*
G37*
G36*
X182493600Y-111132989D02*
G01*
X182526652Y-111143015D01*
X182557103Y-111159292D01*
X182583799Y-111181201D01*
X182605708Y-111207897D01*
X182621985Y-111238348D01*
X182632011Y-111271400D01*
X182636000Y-111311903D01*
X182636000Y-112748097D01*
X182632011Y-112788600D01*
X182621985Y-112821652D01*
X182605708Y-112852103D01*
X182583799Y-112878799D01*
X182557103Y-112900708D01*
X182526652Y-112916985D01*
X182493600Y-112927011D01*
X182453097Y-112931000D01*
X180766903Y-112931000D01*
X180726400Y-112927011D01*
X180693348Y-112916985D01*
X180662897Y-112900708D01*
X180636201Y-112878799D01*
X180614292Y-112852103D01*
X180598015Y-112821652D01*
X180587989Y-112788600D01*
X180584000Y-112748097D01*
X180584000Y-111311903D01*
X180587989Y-111271400D01*
X180598015Y-111238348D01*
X180614292Y-111207897D01*
X180636201Y-111181201D01*
X180662897Y-111159292D01*
X180693348Y-111143015D01*
X180726400Y-111132989D01*
X180766903Y-111129000D01*
X182453097Y-111129000D01*
X182493600Y-111132989D01*
G37*
G36*
X158363600Y-111132989D02*
G01*
X158396652Y-111143015D01*
X158427103Y-111159292D01*
X158453799Y-111181201D01*
X158475708Y-111207897D01*
X158491985Y-111238348D01*
X158502011Y-111271400D01*
X158506000Y-111311903D01*
X158506000Y-112748097D01*
X158502011Y-112788600D01*
X158491985Y-112821652D01*
X158475708Y-112852103D01*
X158453799Y-112878799D01*
X158427103Y-112900708D01*
X158396652Y-112916985D01*
X158363600Y-112927011D01*
X158323097Y-112931000D01*
X156636903Y-112931000D01*
X156596400Y-112927011D01*
X156563348Y-112916985D01*
X156532897Y-112900708D01*
X156506201Y-112878799D01*
X156484292Y-112852103D01*
X156468015Y-112821652D01*
X156457989Y-112788600D01*
X156454000Y-112748097D01*
X156454000Y-111311903D01*
X156457989Y-111271400D01*
X156468015Y-111238348D01*
X156484292Y-111207897D01*
X156506201Y-111181201D01*
X156532897Y-111159292D01*
X156563348Y-111143015D01*
X156596400Y-111132989D01*
X156636903Y-111129000D01*
X158323097Y-111129000D01*
X158363600Y-111132989D01*
G37*
G36*
X190235443Y-108635519D02*
G01*
X190301627Y-108642037D01*
X190471466Y-108693557D01*
X190627991Y-108777222D01*
X190663729Y-108806552D01*
X190765186Y-108889814D01*
X190848448Y-108991271D01*
X190877778Y-109027009D01*
X190961443Y-109183534D01*
X191012963Y-109353373D01*
X191030359Y-109530000D01*
X191012963Y-109706627D01*
X190961443Y-109876466D01*
X190877778Y-110032991D01*
X190848448Y-110068729D01*
X190765186Y-110170186D01*
X190663729Y-110253448D01*
X190627991Y-110282778D01*
X190471466Y-110366443D01*
X190301627Y-110417963D01*
X190235443Y-110424481D01*
X190169260Y-110431000D01*
X189830740Y-110431000D01*
X189764557Y-110424481D01*
X189698373Y-110417963D01*
X189528534Y-110366443D01*
X189372009Y-110282778D01*
X189336271Y-110253448D01*
X189234814Y-110170186D01*
X189151552Y-110068729D01*
X189122222Y-110032991D01*
X189038557Y-109876466D01*
X188987037Y-109706627D01*
X188969641Y-109530000D01*
X188987037Y-109353373D01*
X189038557Y-109183534D01*
X189122222Y-109027009D01*
X189151552Y-108991271D01*
X189234814Y-108889814D01*
X189336271Y-108806552D01*
X189372009Y-108777222D01*
X189528534Y-108693557D01*
X189698373Y-108642037D01*
X189764557Y-108635519D01*
X189830740Y-108629000D01*
X190169260Y-108629000D01*
X190235443Y-108635519D01*
G37*
G36*
X181845443Y-108635519D02*
G01*
X181911627Y-108642037D01*
X182081466Y-108693557D01*
X182237991Y-108777222D01*
X182273729Y-108806552D01*
X182375186Y-108889814D01*
X182458448Y-108991271D01*
X182487778Y-109027009D01*
X182571443Y-109183534D01*
X182622963Y-109353373D01*
X182640359Y-109530000D01*
X182622963Y-109706627D01*
X182571443Y-109876466D01*
X182487778Y-110032991D01*
X182458448Y-110068729D01*
X182375186Y-110170186D01*
X182273729Y-110253448D01*
X182237991Y-110282778D01*
X182081466Y-110366443D01*
X181911627Y-110417963D01*
X181845443Y-110424481D01*
X181779260Y-110431000D01*
X181440740Y-110431000D01*
X181374557Y-110424481D01*
X181308373Y-110417963D01*
X181138534Y-110366443D01*
X180982009Y-110282778D01*
X180946271Y-110253448D01*
X180844814Y-110170186D01*
X180761552Y-110068729D01*
X180732222Y-110032991D01*
X180648557Y-109876466D01*
X180597037Y-109706627D01*
X180579641Y-109530000D01*
X180597037Y-109353373D01*
X180648557Y-109183534D01*
X180732222Y-109027009D01*
X180761552Y-108991271D01*
X180844814Y-108889814D01*
X180946271Y-108806552D01*
X180982009Y-108777222D01*
X181138534Y-108693557D01*
X181308373Y-108642037D01*
X181374557Y-108635519D01*
X181440740Y-108629000D01*
X181779260Y-108629000D01*
X181845443Y-108635519D01*
G37*
G36*
X157715443Y-108635519D02*
G01*
X157781627Y-108642037D01*
X157951466Y-108693557D01*
X158107991Y-108777222D01*
X158143729Y-108806552D01*
X158245186Y-108889814D01*
X158328448Y-108991271D01*
X158357778Y-109027009D01*
X158441443Y-109183534D01*
X158492963Y-109353373D01*
X158510359Y-109530000D01*
X158492963Y-109706627D01*
X158441443Y-109876466D01*
X158357778Y-110032991D01*
X158328448Y-110068729D01*
X158245186Y-110170186D01*
X158143729Y-110253448D01*
X158107991Y-110282778D01*
X157951466Y-110366443D01*
X157781627Y-110417963D01*
X157715443Y-110424481D01*
X157649260Y-110431000D01*
X157310740Y-110431000D01*
X157244557Y-110424481D01*
X157178373Y-110417963D01*
X157008534Y-110366443D01*
X156852009Y-110282778D01*
X156816271Y-110253448D01*
X156714814Y-110170186D01*
X156631552Y-110068729D01*
X156602222Y-110032991D01*
X156518557Y-109876466D01*
X156467037Y-109706627D01*
X156449641Y-109530000D01*
X156467037Y-109353373D01*
X156518557Y-109183534D01*
X156602222Y-109027009D01*
X156631552Y-108991271D01*
X156714814Y-108889814D01*
X156816271Y-108806552D01*
X156852009Y-108777222D01*
X157008534Y-108693557D01*
X157178373Y-108642037D01*
X157244557Y-108635519D01*
X157310740Y-108629000D01*
X157649260Y-108629000D01*
X157715443Y-108635519D01*
G37*
G36*
X151287911Y-106373924D02*
G01*
X151481579Y-106412447D01*
X151782042Y-106536903D01*
X152052451Y-106717585D01*
X152282415Y-106947549D01*
X152455526Y-107206627D01*
X152463098Y-107217960D01*
X152499550Y-107305963D01*
X152587553Y-107518421D01*
X152651000Y-107837391D01*
X152651000Y-108162609D01*
X152587553Y-108481579D01*
X152463097Y-108782042D01*
X152282415Y-109052451D01*
X152052451Y-109282415D01*
X151782042Y-109463097D01*
X151481579Y-109587553D01*
X151375256Y-109608702D01*
X151162611Y-109651000D01*
X150837389Y-109651000D01*
X150624744Y-109608702D01*
X150518421Y-109587553D01*
X150217958Y-109463097D01*
X149947549Y-109282415D01*
X149717585Y-109052451D01*
X149536903Y-108782042D01*
X149412447Y-108481579D01*
X149349000Y-108162609D01*
X149349000Y-107837391D01*
X149412447Y-107518421D01*
X149500450Y-107305963D01*
X149536902Y-107217960D01*
X149544474Y-107206627D01*
X149717585Y-106947549D01*
X149947549Y-106717585D01*
X150217958Y-106536903D01*
X150518421Y-106412447D01*
X150712089Y-106373924D01*
X150837389Y-106349000D01*
X151162611Y-106349000D01*
X151287911Y-106373924D01*
G37*
G36*
X190235442Y-106135518D02*
G01*
X190301627Y-106142037D01*
X190471466Y-106193557D01*
X190627991Y-106277222D01*
X190659094Y-106302748D01*
X190765186Y-106389814D01*
X190829971Y-106468756D01*
X190877778Y-106527009D01*
X190961443Y-106683534D01*
X191012963Y-106853373D01*
X191030359Y-107030000D01*
X191012963Y-107206627D01*
X190961443Y-107376466D01*
X190877778Y-107532991D01*
X190848448Y-107568729D01*
X190765186Y-107670186D01*
X190663729Y-107753448D01*
X190627991Y-107782778D01*
X190471466Y-107866443D01*
X190301627Y-107917963D01*
X190235443Y-107924481D01*
X190169260Y-107931000D01*
X189830740Y-107931000D01*
X189764557Y-107924481D01*
X189698373Y-107917963D01*
X189528534Y-107866443D01*
X189372009Y-107782778D01*
X189336271Y-107753448D01*
X189234814Y-107670186D01*
X189151552Y-107568729D01*
X189122222Y-107532991D01*
X189038557Y-107376466D01*
X188987037Y-107206627D01*
X188969641Y-107030000D01*
X188987037Y-106853373D01*
X189038557Y-106683534D01*
X189122222Y-106527009D01*
X189170029Y-106468756D01*
X189234814Y-106389814D01*
X189340906Y-106302748D01*
X189372009Y-106277222D01*
X189528534Y-106193557D01*
X189698373Y-106142037D01*
X189764558Y-106135518D01*
X189830740Y-106129000D01*
X190169260Y-106129000D01*
X190235442Y-106135518D01*
G37*
G36*
X181845442Y-106135518D02*
G01*
X181911627Y-106142037D01*
X182081466Y-106193557D01*
X182237991Y-106277222D01*
X182269094Y-106302748D01*
X182375186Y-106389814D01*
X182439971Y-106468756D01*
X182487778Y-106527009D01*
X182571443Y-106683534D01*
X182622963Y-106853373D01*
X182640359Y-107030000D01*
X182622963Y-107206627D01*
X182571443Y-107376466D01*
X182487778Y-107532991D01*
X182458448Y-107568729D01*
X182375186Y-107670186D01*
X182273729Y-107753448D01*
X182237991Y-107782778D01*
X182081466Y-107866443D01*
X181911627Y-107917963D01*
X181845443Y-107924481D01*
X181779260Y-107931000D01*
X181440740Y-107931000D01*
X181374557Y-107924481D01*
X181308373Y-107917963D01*
X181138534Y-107866443D01*
X180982009Y-107782778D01*
X180946271Y-107753448D01*
X180844814Y-107670186D01*
X180761552Y-107568729D01*
X180732222Y-107532991D01*
X180648557Y-107376466D01*
X180597037Y-107206627D01*
X180579641Y-107030000D01*
X180597037Y-106853373D01*
X180648557Y-106683534D01*
X180732222Y-106527009D01*
X180780029Y-106468756D01*
X180844814Y-106389814D01*
X180950906Y-106302748D01*
X180982009Y-106277222D01*
X181138534Y-106193557D01*
X181308373Y-106142037D01*
X181374558Y-106135518D01*
X181440740Y-106129000D01*
X181779260Y-106129000D01*
X181845442Y-106135518D01*
G37*
G36*
X157715442Y-106135518D02*
G01*
X157781627Y-106142037D01*
X157951466Y-106193557D01*
X158107991Y-106277222D01*
X158139094Y-106302748D01*
X158245186Y-106389814D01*
X158309971Y-106468756D01*
X158357778Y-106527009D01*
X158441443Y-106683534D01*
X158492963Y-106853373D01*
X158510359Y-107030000D01*
X158492963Y-107206627D01*
X158441443Y-107376466D01*
X158357778Y-107532991D01*
X158328448Y-107568729D01*
X158245186Y-107670186D01*
X158143729Y-107753448D01*
X158107991Y-107782778D01*
X157951466Y-107866443D01*
X157781627Y-107917963D01*
X157715443Y-107924481D01*
X157649260Y-107931000D01*
X157310740Y-107931000D01*
X157244557Y-107924481D01*
X157178373Y-107917963D01*
X157008534Y-107866443D01*
X156852009Y-107782778D01*
X156816271Y-107753448D01*
X156714814Y-107670186D01*
X156631552Y-107568729D01*
X156602222Y-107532991D01*
X156518557Y-107376466D01*
X156467037Y-107206627D01*
X156449641Y-107030000D01*
X156467037Y-106853373D01*
X156518557Y-106683534D01*
X156602222Y-106527009D01*
X156650029Y-106468756D01*
X156714814Y-106389814D01*
X156820906Y-106302748D01*
X156852009Y-106277222D01*
X157008534Y-106193557D01*
X157178373Y-106142037D01*
X157244558Y-106135518D01*
X157310740Y-106129000D01*
X157649260Y-106129000D01*
X157715442Y-106135518D01*
G37*
G36*
X174791000Y-104986000D02*
G01*
X174626660Y-104986000D01*
X174602274Y-104988402D01*
X174578825Y-104995515D01*
X174557214Y-105007066D01*
X174538272Y-105022611D01*
X174522727Y-105041553D01*
X174511176Y-105063164D01*
X174504063Y-105086613D01*
X174501661Y-105110999D01*
X174504063Y-105135385D01*
X174511176Y-105158834D01*
X174522727Y-105180445D01*
X174538272Y-105199387D01*
X174547345Y-105207609D01*
X174624264Y-105270736D01*
X174696244Y-105358443D01*
X174728058Y-105417963D01*
X174749728Y-105458505D01*
X174749729Y-105458508D01*
X174782666Y-105567084D01*
X174793787Y-105680000D01*
X174782666Y-105792916D01*
X174749729Y-105901492D01*
X174749728Y-105901495D01*
X174730429Y-105937601D01*
X174696244Y-106001557D01*
X174624264Y-106089264D01*
X174536557Y-106161244D01*
X174455141Y-106204761D01*
X174434766Y-106218375D01*
X174417439Y-106235702D01*
X174403826Y-106256076D01*
X174394448Y-106278715D01*
X174389668Y-106302748D01*
X174389668Y-106327252D01*
X174394448Y-106351285D01*
X174403826Y-106373924D01*
X174417440Y-106394299D01*
X174434767Y-106411626D01*
X174455141Y-106425239D01*
X174536557Y-106468756D01*
X174624264Y-106540736D01*
X174696244Y-106628443D01*
X174725689Y-106683532D01*
X174749728Y-106728505D01*
X174749729Y-106728508D01*
X174782666Y-106837084D01*
X174793787Y-106950000D01*
X174782666Y-107062916D01*
X174749729Y-107171492D01*
X174749728Y-107171495D01*
X174730950Y-107206625D01*
X174696244Y-107271557D01*
X174624264Y-107359264D01*
X174536557Y-107431244D01*
X174472601Y-107465429D01*
X174436495Y-107484728D01*
X174436492Y-107484729D01*
X174327916Y-107517666D01*
X174243298Y-107526000D01*
X173736702Y-107526000D01*
X173652084Y-107517666D01*
X173543508Y-107484729D01*
X173543505Y-107484728D01*
X173507399Y-107465429D01*
X173443443Y-107431244D01*
X173355736Y-107359264D01*
X173283756Y-107271557D01*
X173249050Y-107206625D01*
X173230272Y-107171495D01*
X173230271Y-107171492D01*
X173197334Y-107062916D01*
X173186213Y-106950000D01*
X173197334Y-106837084D01*
X173230271Y-106728508D01*
X173230272Y-106728505D01*
X173254311Y-106683532D01*
X173283756Y-106628443D01*
X173355736Y-106540736D01*
X173443443Y-106468756D01*
X173524859Y-106425239D01*
X173545234Y-106411625D01*
X173562561Y-106394298D01*
X173576174Y-106373924D01*
X173585552Y-106351285D01*
X173590332Y-106327252D01*
X173590332Y-106302748D01*
X173585552Y-106278715D01*
X173576174Y-106256076D01*
X173562560Y-106235701D01*
X173545233Y-106218374D01*
X173524859Y-106204761D01*
X173443443Y-106161244D01*
X173355736Y-106089264D01*
X173283756Y-106001557D01*
X173249571Y-105937601D01*
X173230272Y-105901495D01*
X173230271Y-105901492D01*
X173197334Y-105792916D01*
X173186213Y-105680000D01*
X173197334Y-105567084D01*
X173230271Y-105458508D01*
X173230272Y-105458505D01*
X173251942Y-105417963D01*
X173283756Y-105358443D01*
X173355736Y-105270736D01*
X173432646Y-105207617D01*
X173449965Y-105190298D01*
X173463579Y-105169923D01*
X173472957Y-105147284D01*
X173477737Y-105123251D01*
X173477737Y-105098747D01*
X173472957Y-105074714D01*
X173463579Y-105052075D01*
X173449966Y-105031701D01*
X173432639Y-105014374D01*
X173412264Y-105000760D01*
X173389625Y-104991382D01*
X173365592Y-104986602D01*
X173353340Y-104986000D01*
X173189000Y-104986000D01*
X173189000Y-103834000D01*
X174791000Y-103834000D01*
X174791000Y-104986000D01*
G37*
G36*
X167171000Y-104986000D02*
G01*
X167006660Y-104986000D01*
X166982274Y-104988402D01*
X166958825Y-104995515D01*
X166937214Y-105007066D01*
X166918272Y-105022611D01*
X166902727Y-105041553D01*
X166891176Y-105063164D01*
X166884063Y-105086613D01*
X166881661Y-105110999D01*
X166884063Y-105135385D01*
X166891176Y-105158834D01*
X166902727Y-105180445D01*
X166918272Y-105199387D01*
X166927345Y-105207609D01*
X167004264Y-105270736D01*
X167076244Y-105358443D01*
X167108058Y-105417963D01*
X167129728Y-105458505D01*
X167129729Y-105458508D01*
X167162666Y-105567084D01*
X167173787Y-105680000D01*
X167162666Y-105792916D01*
X167129729Y-105901492D01*
X167129728Y-105901495D01*
X167110429Y-105937601D01*
X167076244Y-106001557D01*
X167004264Y-106089264D01*
X166916557Y-106161244D01*
X166835141Y-106204761D01*
X166814766Y-106218375D01*
X166797439Y-106235702D01*
X166783826Y-106256076D01*
X166774448Y-106278715D01*
X166769668Y-106302748D01*
X166769668Y-106327252D01*
X166774448Y-106351285D01*
X166783826Y-106373924D01*
X166797440Y-106394299D01*
X166814767Y-106411626D01*
X166835141Y-106425239D01*
X166916557Y-106468756D01*
X167004264Y-106540736D01*
X167076244Y-106628443D01*
X167105689Y-106683532D01*
X167129728Y-106728505D01*
X167129729Y-106728508D01*
X167162666Y-106837084D01*
X167173787Y-106950000D01*
X167162666Y-107062916D01*
X167129729Y-107171492D01*
X167129728Y-107171495D01*
X167110950Y-107206625D01*
X167076244Y-107271557D01*
X167004264Y-107359264D01*
X166916557Y-107431244D01*
X166852601Y-107465429D01*
X166816495Y-107484728D01*
X166816492Y-107484729D01*
X166707916Y-107517666D01*
X166623298Y-107526000D01*
X166116702Y-107526000D01*
X166032084Y-107517666D01*
X165923508Y-107484729D01*
X165923505Y-107484728D01*
X165887399Y-107465429D01*
X165823443Y-107431244D01*
X165735736Y-107359264D01*
X165663756Y-107271557D01*
X165629050Y-107206625D01*
X165610272Y-107171495D01*
X165610271Y-107171492D01*
X165577334Y-107062916D01*
X165566213Y-106950000D01*
X165577334Y-106837084D01*
X165610271Y-106728508D01*
X165610272Y-106728505D01*
X165634311Y-106683532D01*
X165663756Y-106628443D01*
X165735736Y-106540736D01*
X165823443Y-106468756D01*
X165904859Y-106425239D01*
X165925234Y-106411625D01*
X165942561Y-106394298D01*
X165956174Y-106373924D01*
X165965552Y-106351285D01*
X165970332Y-106327252D01*
X165970332Y-106302748D01*
X165965552Y-106278715D01*
X165956174Y-106256076D01*
X165942560Y-106235701D01*
X165925233Y-106218374D01*
X165904859Y-106204761D01*
X165823443Y-106161244D01*
X165735736Y-106089264D01*
X165663756Y-106001557D01*
X165629571Y-105937601D01*
X165610272Y-105901495D01*
X165610271Y-105901492D01*
X165577334Y-105792916D01*
X165566213Y-105680000D01*
X165577334Y-105567084D01*
X165610271Y-105458508D01*
X165610272Y-105458505D01*
X165631942Y-105417963D01*
X165663756Y-105358443D01*
X165735736Y-105270736D01*
X165812646Y-105207617D01*
X165829965Y-105190298D01*
X165843579Y-105169923D01*
X165852957Y-105147284D01*
X165857737Y-105123251D01*
X165857737Y-105098747D01*
X165852957Y-105074714D01*
X165843579Y-105052075D01*
X165829966Y-105031701D01*
X165812639Y-105014374D01*
X165792264Y-105000760D01*
X165769625Y-104991382D01*
X165745592Y-104986602D01*
X165733340Y-104986000D01*
X165569000Y-104986000D01*
X165569000Y-103834000D01*
X167171000Y-103834000D01*
X167171000Y-104986000D01*
G37*
G36*
X190235442Y-103635518D02*
G01*
X190301627Y-103642037D01*
X190471466Y-103693557D01*
X190627991Y-103777222D01*
X190663729Y-103806552D01*
X190765186Y-103889814D01*
X190848448Y-103991271D01*
X190877778Y-104027009D01*
X190961443Y-104183534D01*
X191012963Y-104353373D01*
X191030359Y-104530000D01*
X191012963Y-104706627D01*
X190961443Y-104876466D01*
X190877778Y-105032991D01*
X190870751Y-105041553D01*
X190765186Y-105170186D01*
X190663729Y-105253448D01*
X190627991Y-105282778D01*
X190471466Y-105366443D01*
X190301627Y-105417963D01*
X190235443Y-105424481D01*
X190169260Y-105431000D01*
X189830740Y-105431000D01*
X189764557Y-105424481D01*
X189698373Y-105417963D01*
X189528534Y-105366443D01*
X189372009Y-105282778D01*
X189336271Y-105253448D01*
X189234814Y-105170186D01*
X189129249Y-105041553D01*
X189122222Y-105032991D01*
X189038557Y-104876466D01*
X188987037Y-104706627D01*
X188969641Y-104530000D01*
X188987037Y-104353373D01*
X189038557Y-104183534D01*
X189122222Y-104027009D01*
X189151552Y-103991271D01*
X189234814Y-103889814D01*
X189336271Y-103806552D01*
X189372009Y-103777222D01*
X189528534Y-103693557D01*
X189698373Y-103642037D01*
X189764557Y-103635519D01*
X189830740Y-103629000D01*
X190169260Y-103629000D01*
X190235442Y-103635518D01*
G37*
G36*
X181845442Y-103635518D02*
G01*
X181911627Y-103642037D01*
X182081466Y-103693557D01*
X182237991Y-103777222D01*
X182273729Y-103806552D01*
X182375186Y-103889814D01*
X182458448Y-103991271D01*
X182487778Y-104027009D01*
X182571443Y-104183534D01*
X182622963Y-104353373D01*
X182640359Y-104530000D01*
X182622963Y-104706627D01*
X182571443Y-104876466D01*
X182487778Y-105032991D01*
X182480751Y-105041553D01*
X182375186Y-105170186D01*
X182273729Y-105253448D01*
X182237991Y-105282778D01*
X182081466Y-105366443D01*
X181911627Y-105417963D01*
X181845443Y-105424481D01*
X181779260Y-105431000D01*
X181440740Y-105431000D01*
X181374557Y-105424481D01*
X181308373Y-105417963D01*
X181138534Y-105366443D01*
X180982009Y-105282778D01*
X180946271Y-105253448D01*
X180844814Y-105170186D01*
X180739249Y-105041553D01*
X180732222Y-105032991D01*
X180648557Y-104876466D01*
X180597037Y-104706627D01*
X180579641Y-104530000D01*
X180597037Y-104353373D01*
X180648557Y-104183534D01*
X180732222Y-104027009D01*
X180761552Y-103991271D01*
X180844814Y-103889814D01*
X180946271Y-103806552D01*
X180982009Y-103777222D01*
X181138534Y-103693557D01*
X181308373Y-103642037D01*
X181374557Y-103635519D01*
X181440740Y-103629000D01*
X181779260Y-103629000D01*
X181845442Y-103635518D01*
G37*
G36*
X157715442Y-103635518D02*
G01*
X157781627Y-103642037D01*
X157951466Y-103693557D01*
X158107991Y-103777222D01*
X158143729Y-103806552D01*
X158245186Y-103889814D01*
X158328448Y-103991271D01*
X158357778Y-104027009D01*
X158441443Y-104183534D01*
X158492963Y-104353373D01*
X158510359Y-104530000D01*
X158492963Y-104706627D01*
X158441443Y-104876466D01*
X158357778Y-105032991D01*
X158350751Y-105041553D01*
X158245186Y-105170186D01*
X158143729Y-105253448D01*
X158107991Y-105282778D01*
X157951466Y-105366443D01*
X157781627Y-105417963D01*
X157715443Y-105424481D01*
X157649260Y-105431000D01*
X157310740Y-105431000D01*
X157244557Y-105424481D01*
X157178373Y-105417963D01*
X157008534Y-105366443D01*
X156852009Y-105282778D01*
X156816271Y-105253448D01*
X156714814Y-105170186D01*
X156609249Y-105041553D01*
X156602222Y-105032991D01*
X156518557Y-104876466D01*
X156467037Y-104706627D01*
X156449641Y-104530000D01*
X156467037Y-104353373D01*
X156518557Y-104183534D01*
X156602222Y-104027009D01*
X156631552Y-103991271D01*
X156714814Y-103889814D01*
X156816271Y-103806552D01*
X156852009Y-103777222D01*
X157008534Y-103693557D01*
X157178373Y-103642037D01*
X157244557Y-103635519D01*
X157310740Y-103629000D01*
X157649260Y-103629000D01*
X157715442Y-103635518D01*
G37*
G36*
X161538228Y-98765703D02*
G01*
X161693100Y-98829853D01*
X161832481Y-98922985D01*
X161951015Y-99041519D01*
X162044147Y-99180900D01*
X162108297Y-99335772D01*
X162141000Y-99500184D01*
X162141000Y-99667816D01*
X162108297Y-99832228D01*
X162044147Y-99987100D01*
X161951015Y-100126481D01*
X161832481Y-100245015D01*
X161693100Y-100338147D01*
X161538228Y-100402297D01*
X161373816Y-100435000D01*
X161206184Y-100435000D01*
X161041772Y-100402297D01*
X160886900Y-100338147D01*
X160747519Y-100245015D01*
X160628985Y-100126481D01*
X160535853Y-99987100D01*
X160471703Y-99832228D01*
X160439000Y-99667816D01*
X160439000Y-99500184D01*
X160471703Y-99335772D01*
X160535853Y-99180900D01*
X160628985Y-99041519D01*
X160747519Y-98922985D01*
X160886900Y-98829853D01*
X161041772Y-98765703D01*
X161206184Y-98733000D01*
X161373816Y-98733000D01*
X161538228Y-98765703D01*
G37*
G36*
X169158228Y-98765703D02*
G01*
X169313100Y-98829853D01*
X169452481Y-98922985D01*
X169571015Y-99041519D01*
X169664147Y-99180900D01*
X169728297Y-99335772D01*
X169761000Y-99500184D01*
X169761000Y-99667816D01*
X169728297Y-99832228D01*
X169664147Y-99987100D01*
X169571015Y-100126481D01*
X169452481Y-100245015D01*
X169313100Y-100338147D01*
X169158228Y-100402297D01*
X168993816Y-100435000D01*
X168826184Y-100435000D01*
X168661772Y-100402297D01*
X168506900Y-100338147D01*
X168367519Y-100245015D01*
X168248985Y-100126481D01*
X168155853Y-99987100D01*
X168091703Y-99832228D01*
X168059000Y-99667816D01*
X168059000Y-99500184D01*
X168091703Y-99335772D01*
X168155853Y-99180900D01*
X168248985Y-99041519D01*
X168367519Y-98922985D01*
X168506900Y-98829853D01*
X168661772Y-98765703D01*
X168826184Y-98733000D01*
X168993816Y-98733000D01*
X169158228Y-98765703D01*
G37*
G36*
X172968228Y-98765703D02*
G01*
X173123100Y-98829853D01*
X173262481Y-98922985D01*
X173381015Y-99041519D01*
X173474147Y-99180900D01*
X173538297Y-99335772D01*
X173571000Y-99500184D01*
X173571000Y-99667816D01*
X173538297Y-99832228D01*
X173474147Y-99987100D01*
X173381015Y-100126481D01*
X173262481Y-100245015D01*
X173123100Y-100338147D01*
X172968228Y-100402297D01*
X172803816Y-100435000D01*
X172636184Y-100435000D01*
X172471772Y-100402297D01*
X172316900Y-100338147D01*
X172177519Y-100245015D01*
X172058985Y-100126481D01*
X171965853Y-99987100D01*
X171901703Y-99832228D01*
X171869000Y-99667816D01*
X171869000Y-99500184D01*
X171901703Y-99335772D01*
X171965853Y-99180900D01*
X172058985Y-99041519D01*
X172177519Y-98922985D01*
X172316900Y-98829853D01*
X172471772Y-98765703D01*
X172636184Y-98733000D01*
X172803816Y-98733000D01*
X172968228Y-98765703D01*
G37*
G36*
X165348228Y-98765703D02*
G01*
X165503100Y-98829853D01*
X165642481Y-98922985D01*
X165761015Y-99041519D01*
X165854147Y-99180900D01*
X165918297Y-99335772D01*
X165951000Y-99500184D01*
X165951000Y-99667816D01*
X165918297Y-99832228D01*
X165854147Y-99987100D01*
X165761015Y-100126481D01*
X165642481Y-100245015D01*
X165503100Y-100338147D01*
X165348228Y-100402297D01*
X165183816Y-100435000D01*
X165016184Y-100435000D01*
X164851772Y-100402297D01*
X164696900Y-100338147D01*
X164557519Y-100245015D01*
X164438985Y-100126481D01*
X164345853Y-99987100D01*
X164281703Y-99832228D01*
X164249000Y-99667816D01*
X164249000Y-99500184D01*
X164281703Y-99335772D01*
X164345853Y-99180900D01*
X164438985Y-99041519D01*
X164557519Y-98922985D01*
X164696900Y-98829853D01*
X164851772Y-98765703D01*
X165016184Y-98733000D01*
X165183816Y-98733000D01*
X165348228Y-98765703D01*
G37*
G36*
X157728228Y-98765703D02*
G01*
X157883100Y-98829853D01*
X158022481Y-98922985D01*
X158141015Y-99041519D01*
X158234147Y-99180900D01*
X158298297Y-99335772D01*
X158331000Y-99500184D01*
X158331000Y-99667816D01*
X158298297Y-99832228D01*
X158234147Y-99987100D01*
X158141015Y-100126481D01*
X158022481Y-100245015D01*
X157883100Y-100338147D01*
X157728228Y-100402297D01*
X157563816Y-100435000D01*
X157396184Y-100435000D01*
X157231772Y-100402297D01*
X157076900Y-100338147D01*
X156937519Y-100245015D01*
X156818985Y-100126481D01*
X156725853Y-99987100D01*
X156661703Y-99832228D01*
X156629000Y-99667816D01*
X156629000Y-99500184D01*
X156661703Y-99335772D01*
X156725853Y-99180900D01*
X156818985Y-99041519D01*
X156937519Y-98922985D01*
X157076900Y-98829853D01*
X157231772Y-98765703D01*
X157396184Y-98733000D01*
X157563816Y-98733000D01*
X157728228Y-98765703D01*
G37*
G36*
X176778228Y-98765703D02*
G01*
X176933100Y-98829853D01*
X177072481Y-98922985D01*
X177191015Y-99041519D01*
X177284147Y-99180900D01*
X177348297Y-99335772D01*
X177381000Y-99500184D01*
X177381000Y-99667816D01*
X177348297Y-99832228D01*
X177284147Y-99987100D01*
X177191015Y-100126481D01*
X177072481Y-100245015D01*
X176933100Y-100338147D01*
X176778228Y-100402297D01*
X176613816Y-100435000D01*
X176446184Y-100435000D01*
X176281772Y-100402297D01*
X176126900Y-100338147D01*
X175987519Y-100245015D01*
X175868985Y-100126481D01*
X175775853Y-99987100D01*
X175711703Y-99832228D01*
X175679000Y-99667816D01*
X175679000Y-99500184D01*
X175711703Y-99335772D01*
X175775853Y-99180900D01*
X175868985Y-99041519D01*
X175987519Y-98922985D01*
X176126900Y-98829853D01*
X176281772Y-98765703D01*
X176446184Y-98733000D01*
X176613816Y-98733000D01*
X176778228Y-98765703D01*
G37*
G36*
X183799890Y-97764017D02*
G01*
X183918364Y-97813091D01*
X184024988Y-97884335D01*
X184115665Y-97975012D01*
X184186909Y-98081636D01*
X184235983Y-98200110D01*
X184261000Y-98325882D01*
X184261000Y-98454118D01*
X184235983Y-98579890D01*
X184186909Y-98698364D01*
X184115665Y-98804988D01*
X184024988Y-98895665D01*
X183918364Y-98966909D01*
X183918363Y-98966910D01*
X183918362Y-98966910D01*
X183799890Y-99015983D01*
X183674119Y-99041000D01*
X183545881Y-99041000D01*
X183420110Y-99015983D01*
X183301638Y-98966910D01*
X183301637Y-98966910D01*
X183301636Y-98966909D01*
X183195012Y-98895665D01*
X183104335Y-98804988D01*
X183033091Y-98698364D01*
X182984017Y-98579890D01*
X182959000Y-98454118D01*
X182959000Y-98325882D01*
X182984017Y-98200110D01*
X183033091Y-98081636D01*
X183104335Y-97975012D01*
X183195012Y-97884335D01*
X183301636Y-97813091D01*
X183420110Y-97764017D01*
X183545881Y-97739000D01*
X183674119Y-97739000D01*
X183799890Y-97764017D01*
G37*
G36*
X153319890Y-97764017D02*
G01*
X153438364Y-97813091D01*
X153544988Y-97884335D01*
X153635665Y-97975012D01*
X153706909Y-98081636D01*
X153755983Y-98200110D01*
X153781000Y-98325882D01*
X153781000Y-98454118D01*
X153755983Y-98579890D01*
X153706909Y-98698364D01*
X153635665Y-98804988D01*
X153544988Y-98895665D01*
X153438364Y-98966909D01*
X153438363Y-98966910D01*
X153438362Y-98966910D01*
X153319890Y-99015983D01*
X153194119Y-99041000D01*
X153065881Y-99041000D01*
X152940110Y-99015983D01*
X152821638Y-98966910D01*
X152821637Y-98966910D01*
X152821636Y-98966909D01*
X152715012Y-98895665D01*
X152624335Y-98804988D01*
X152553091Y-98698364D01*
X152504017Y-98579890D01*
X152479000Y-98454118D01*
X152479000Y-98325882D01*
X152504017Y-98200110D01*
X152553091Y-98081636D01*
X152624335Y-97975012D01*
X152715012Y-97884335D01*
X152821636Y-97813091D01*
X152940110Y-97764017D01*
X153065881Y-97739000D01*
X153194119Y-97739000D01*
X153319890Y-97764017D01*
G37*
G36*
X152038600Y-95892989D02*
G01*
X152071652Y-95903015D01*
X152102103Y-95919292D01*
X152128799Y-95941201D01*
X152150708Y-95967897D01*
X152166985Y-95998348D01*
X152177011Y-96031400D01*
X152181000Y-96071903D01*
X152181000Y-97508097D01*
X152177011Y-97548600D01*
X152166985Y-97581652D01*
X152150708Y-97612103D01*
X152128799Y-97638799D01*
X152102103Y-97660708D01*
X152071652Y-97676985D01*
X152038600Y-97687011D01*
X151998097Y-97691000D01*
X150261903Y-97691000D01*
X150221400Y-97687011D01*
X150188348Y-97676985D01*
X150157897Y-97660708D01*
X150131201Y-97638799D01*
X150109292Y-97612103D01*
X150093015Y-97581652D01*
X150082989Y-97548600D01*
X150079000Y-97508097D01*
X150079000Y-96071903D01*
X150082989Y-96031400D01*
X150093015Y-95998348D01*
X150109292Y-95967897D01*
X150131201Y-95941201D01*
X150157897Y-95919292D01*
X150188348Y-95903015D01*
X150221400Y-95892989D01*
X150261903Y-95889000D01*
X151998097Y-95889000D01*
X152038600Y-95892989D01*
G37*
G36*
X182518600Y-95892989D02*
G01*
X182551652Y-95903015D01*
X182582103Y-95919292D01*
X182608799Y-95941201D01*
X182630708Y-95967897D01*
X182646985Y-95998348D01*
X182657011Y-96031400D01*
X182661000Y-96071903D01*
X182661000Y-97508097D01*
X182657011Y-97548600D01*
X182646985Y-97581652D01*
X182630708Y-97612103D01*
X182608799Y-97638799D01*
X182582103Y-97660708D01*
X182551652Y-97676985D01*
X182518600Y-97687011D01*
X182478097Y-97691000D01*
X180741903Y-97691000D01*
X180701400Y-97687011D01*
X180668348Y-97676985D01*
X180637897Y-97660708D01*
X180611201Y-97638799D01*
X180589292Y-97612103D01*
X180573015Y-97581652D01*
X180562989Y-97548600D01*
X180559000Y-97508097D01*
X180559000Y-96071903D01*
X180562989Y-96031400D01*
X180573015Y-95998348D01*
X180589292Y-95967897D01*
X180611201Y-95941201D01*
X180637897Y-95919292D01*
X180668348Y-95903015D01*
X180701400Y-95892989D01*
X180741903Y-95889000D01*
X182478097Y-95889000D01*
X182518600Y-95892989D01*
G37*
G36*
X151390443Y-93395519D02*
G01*
X151456627Y-93402037D01*
X151626466Y-93453557D01*
X151782991Y-93537222D01*
X151818729Y-93566552D01*
X151920186Y-93649814D01*
X152003448Y-93751271D01*
X152032778Y-93787009D01*
X152116443Y-93943534D01*
X152167963Y-94113373D01*
X152185359Y-94290000D01*
X152167963Y-94466627D01*
X152116443Y-94636466D01*
X152032778Y-94792991D01*
X152003448Y-94828729D01*
X151920186Y-94930186D01*
X151818729Y-95013448D01*
X151782991Y-95042778D01*
X151626466Y-95126443D01*
X151456627Y-95177963D01*
X151390443Y-95184481D01*
X151324260Y-95191000D01*
X150935740Y-95191000D01*
X150869557Y-95184481D01*
X150803373Y-95177963D01*
X150633534Y-95126443D01*
X150477009Y-95042778D01*
X150441271Y-95013448D01*
X150339814Y-94930186D01*
X150256552Y-94828729D01*
X150227222Y-94792991D01*
X150143557Y-94636466D01*
X150092037Y-94466627D01*
X150074641Y-94290000D01*
X150092037Y-94113373D01*
X150143557Y-93943534D01*
X150227222Y-93787009D01*
X150256552Y-93751271D01*
X150339814Y-93649814D01*
X150441271Y-93566552D01*
X150477009Y-93537222D01*
X150633534Y-93453557D01*
X150803373Y-93402037D01*
X150869557Y-93395519D01*
X150935740Y-93389000D01*
X151324260Y-93389000D01*
X151390443Y-93395519D01*
G37*
G36*
X181870443Y-93395519D02*
G01*
X181936627Y-93402037D01*
X182106466Y-93453557D01*
X182262991Y-93537222D01*
X182298729Y-93566552D01*
X182400186Y-93649814D01*
X182483448Y-93751271D01*
X182512778Y-93787009D01*
X182596443Y-93943534D01*
X182647963Y-94113373D01*
X182665359Y-94290000D01*
X182647963Y-94466627D01*
X182596443Y-94636466D01*
X182512778Y-94792991D01*
X182483448Y-94828729D01*
X182400186Y-94930186D01*
X182298729Y-95013448D01*
X182262991Y-95042778D01*
X182106466Y-95126443D01*
X181936627Y-95177963D01*
X181870443Y-95184481D01*
X181804260Y-95191000D01*
X181415740Y-95191000D01*
X181349557Y-95184481D01*
X181283373Y-95177963D01*
X181113534Y-95126443D01*
X180957009Y-95042778D01*
X180921271Y-95013448D01*
X180819814Y-94930186D01*
X180736552Y-94828729D01*
X180707222Y-94792991D01*
X180623557Y-94636466D01*
X180572037Y-94466627D01*
X180554641Y-94290000D01*
X180572037Y-94113373D01*
X180623557Y-93943534D01*
X180707222Y-93787009D01*
X180736552Y-93751271D01*
X180819814Y-93649814D01*
X180921271Y-93566552D01*
X180957009Y-93537222D01*
X181113534Y-93453557D01*
X181283373Y-93402037D01*
X181349557Y-93395519D01*
X181415740Y-93389000D01*
X181804260Y-93389000D01*
X181870443Y-93395519D01*
G37*
G36*
X191375256Y-91391298D02*
G01*
X191481579Y-91412447D01*
X191782042Y-91536903D01*
X192052451Y-91717585D01*
X192282415Y-91947549D01*
X192463097Y-92217958D01*
X192587553Y-92518421D01*
X192651000Y-92837391D01*
X192651000Y-93162609D01*
X192587553Y-93481579D01*
X192463097Y-93782042D01*
X192282415Y-94052451D01*
X192052451Y-94282415D01*
X191782042Y-94463097D01*
X191481579Y-94587553D01*
X191375256Y-94608702D01*
X191162611Y-94651000D01*
X190837389Y-94651000D01*
X190624744Y-94608702D01*
X190518421Y-94587553D01*
X190217958Y-94463097D01*
X189947549Y-94282415D01*
X189717585Y-94052451D01*
X189536903Y-93782042D01*
X189412447Y-93481579D01*
X189349000Y-93162609D01*
X189349000Y-92837391D01*
X189412447Y-92518421D01*
X189536903Y-92217958D01*
X189717585Y-91947549D01*
X189947549Y-91717585D01*
X190217958Y-91536903D01*
X190518421Y-91412447D01*
X190624744Y-91391298D01*
X190837389Y-91349000D01*
X191162611Y-91349000D01*
X191375256Y-91391298D01*
G37*
G36*
X172968228Y-88605703D02*
G01*
X173123100Y-88669853D01*
X173262481Y-88762985D01*
X173381015Y-88881519D01*
X173474147Y-89020900D01*
X173538297Y-89175772D01*
X173571000Y-89340184D01*
X173571000Y-89507816D01*
X173538297Y-89672228D01*
X173474147Y-89827100D01*
X173381015Y-89966481D01*
X173262481Y-90085015D01*
X173123100Y-90178147D01*
X172968228Y-90242297D01*
X172803816Y-90275000D01*
X172636184Y-90275000D01*
X172471772Y-90242297D01*
X172316900Y-90178147D01*
X172177519Y-90085015D01*
X172058985Y-89966481D01*
X171965853Y-89827100D01*
X171901703Y-89672228D01*
X171869000Y-89507816D01*
X171869000Y-89340184D01*
X171901703Y-89175772D01*
X171965853Y-89020900D01*
X172058985Y-88881519D01*
X172177519Y-88762985D01*
X172316900Y-88669853D01*
X172471772Y-88605703D01*
X172636184Y-88573000D01*
X172803816Y-88573000D01*
X172968228Y-88605703D01*
G37*
G36*
X165348228Y-88605703D02*
G01*
X165503100Y-88669853D01*
X165642481Y-88762985D01*
X165761015Y-88881519D01*
X165854147Y-89020900D01*
X165918297Y-89175772D01*
X165951000Y-89340184D01*
X165951000Y-89507816D01*
X165918297Y-89672228D01*
X165854147Y-89827100D01*
X165761015Y-89966481D01*
X165642481Y-90085015D01*
X165503100Y-90178147D01*
X165348228Y-90242297D01*
X165183816Y-90275000D01*
X165016184Y-90275000D01*
X164851772Y-90242297D01*
X164696900Y-90178147D01*
X164557519Y-90085015D01*
X164438985Y-89966481D01*
X164345853Y-89827100D01*
X164281703Y-89672228D01*
X164249000Y-89507816D01*
X164249000Y-89340184D01*
X164281703Y-89175772D01*
X164345853Y-89020900D01*
X164438985Y-88881519D01*
X164557519Y-88762985D01*
X164696900Y-88669853D01*
X164851772Y-88605703D01*
X165016184Y-88573000D01*
X165183816Y-88573000D01*
X165348228Y-88605703D01*
G37*
G36*
X157728228Y-88605703D02*
G01*
X157883100Y-88669853D01*
X158022481Y-88762985D01*
X158141015Y-88881519D01*
X158234147Y-89020900D01*
X158298297Y-89175772D01*
X158331000Y-89340184D01*
X158331000Y-89507816D01*
X158298297Y-89672228D01*
X158234147Y-89827100D01*
X158141015Y-89966481D01*
X158022481Y-90085015D01*
X157883100Y-90178147D01*
X157728228Y-90242297D01*
X157563816Y-90275000D01*
X157396184Y-90275000D01*
X157231772Y-90242297D01*
X157076900Y-90178147D01*
X156937519Y-90085015D01*
X156818985Y-89966481D01*
X156725853Y-89827100D01*
X156661703Y-89672228D01*
X156629000Y-89507816D01*
X156629000Y-89340184D01*
X156661703Y-89175772D01*
X156725853Y-89020900D01*
X156818985Y-88881519D01*
X156937519Y-88762985D01*
X157076900Y-88669853D01*
X157231772Y-88605703D01*
X157396184Y-88573000D01*
X157563816Y-88573000D01*
X157728228Y-88605703D01*
G37*
G36*
X176778228Y-88605703D02*
G01*
X176933100Y-88669853D01*
X177072481Y-88762985D01*
X177191015Y-88881519D01*
X177284147Y-89020900D01*
X177348297Y-89175772D01*
X177381000Y-89340184D01*
X177381000Y-89507816D01*
X177348297Y-89672228D01*
X177284147Y-89827100D01*
X177191015Y-89966481D01*
X177072481Y-90085015D01*
X176933100Y-90178147D01*
X176778228Y-90242297D01*
X176613816Y-90275000D01*
X176446184Y-90275000D01*
X176281772Y-90242297D01*
X176126900Y-90178147D01*
X175987519Y-90085015D01*
X175868985Y-89966481D01*
X175775853Y-89827100D01*
X175711703Y-89672228D01*
X175679000Y-89507816D01*
X175679000Y-89340184D01*
X175711703Y-89175772D01*
X175775853Y-89020900D01*
X175868985Y-88881519D01*
X175987519Y-88762985D01*
X176126900Y-88669853D01*
X176281772Y-88605703D01*
X176446184Y-88573000D01*
X176613816Y-88573000D01*
X176778228Y-88605703D01*
G37*
G36*
X169158228Y-88605703D02*
G01*
X169313100Y-88669853D01*
X169452481Y-88762985D01*
X169571015Y-88881519D01*
X169664147Y-89020900D01*
X169728297Y-89175772D01*
X169761000Y-89340184D01*
X169761000Y-89507816D01*
X169728297Y-89672228D01*
X169664147Y-89827100D01*
X169571015Y-89966481D01*
X169452481Y-90085015D01*
X169313100Y-90178147D01*
X169158228Y-90242297D01*
X168993816Y-90275000D01*
X168826184Y-90275000D01*
X168661772Y-90242297D01*
X168506900Y-90178147D01*
X168367519Y-90085015D01*
X168248985Y-89966481D01*
X168155853Y-89827100D01*
X168091703Y-89672228D01*
X168059000Y-89507816D01*
X168059000Y-89340184D01*
X168091703Y-89175772D01*
X168155853Y-89020900D01*
X168248985Y-88881519D01*
X168367519Y-88762985D01*
X168506900Y-88669853D01*
X168661772Y-88605703D01*
X168826184Y-88573000D01*
X168993816Y-88573000D01*
X169158228Y-88605703D01*
G37*
G36*
X161538228Y-88605703D02*
G01*
X161693100Y-88669853D01*
X161832481Y-88762985D01*
X161951015Y-88881519D01*
X162044147Y-89020900D01*
X162108297Y-89175772D01*
X162141000Y-89340184D01*
X162141000Y-89507816D01*
X162108297Y-89672228D01*
X162044147Y-89827100D01*
X161951015Y-89966481D01*
X161832481Y-90085015D01*
X161693100Y-90178147D01*
X161538228Y-90242297D01*
X161373816Y-90275000D01*
X161206184Y-90275000D01*
X161041772Y-90242297D01*
X160886900Y-90178147D01*
X160747519Y-90085015D01*
X160628985Y-89966481D01*
X160535853Y-89827100D01*
X160471703Y-89672228D01*
X160439000Y-89507816D01*
X160439000Y-89340184D01*
X160471703Y-89175772D01*
X160535853Y-89020900D01*
X160628985Y-88881519D01*
X160747519Y-88762985D01*
X160886900Y-88669853D01*
X161041772Y-88605703D01*
X161206184Y-88573000D01*
X161373816Y-88573000D01*
X161538228Y-88605703D01*
G37*
G36*
X152677395Y-86985546D02*
G01*
X152850466Y-87057234D01*
X152850467Y-87057235D01*
X153006227Y-87161310D01*
X153138690Y-87293773D01*
X153138691Y-87293775D01*
X153242766Y-87449534D01*
X153314454Y-87622605D01*
X153351000Y-87806333D01*
X153351000Y-87993667D01*
X153314454Y-88177395D01*
X153242766Y-88350466D01*
X153242765Y-88350467D01*
X153138690Y-88506227D01*
X153006227Y-88638690D01*
X152959588Y-88669853D01*
X152850466Y-88742766D01*
X152677395Y-88814454D01*
X152493667Y-88851000D01*
X152306333Y-88851000D01*
X152122605Y-88814454D01*
X151949534Y-88742766D01*
X151840412Y-88669853D01*
X151793773Y-88638690D01*
X151661310Y-88506227D01*
X151557235Y-88350467D01*
X151557234Y-88350466D01*
X151485546Y-88177395D01*
X151449000Y-87993667D01*
X151449000Y-87806333D01*
X151485546Y-87622605D01*
X151557234Y-87449534D01*
X151661309Y-87293775D01*
X151661310Y-87293773D01*
X151793773Y-87161310D01*
X151949533Y-87057235D01*
X151949534Y-87057234D01*
X152122605Y-86985546D01*
X152306333Y-86949000D01*
X152493667Y-86949000D01*
X152677395Y-86985546D01*
G37*
G36*
X182561000Y-88851000D02*
G01*
X180659000Y-88851000D01*
X180659000Y-86949000D01*
X182561000Y-86949000D01*
X182561000Y-88851000D01*
G37*
G36*
X184427395Y-86985546D02*
G01*
X184600466Y-87057234D01*
X184600467Y-87057235D01*
X184756227Y-87161310D01*
X184888690Y-87293773D01*
X184888691Y-87293775D01*
X184992766Y-87449534D01*
X185064454Y-87622605D01*
X185101000Y-87806333D01*
X185101000Y-87993667D01*
X185064454Y-88177395D01*
X184992766Y-88350466D01*
X184992765Y-88350467D01*
X184888690Y-88506227D01*
X184756227Y-88638690D01*
X184709588Y-88669853D01*
X184600466Y-88742766D01*
X184427395Y-88814454D01*
X184243667Y-88851000D01*
X184056333Y-88851000D01*
X183872605Y-88814454D01*
X183699534Y-88742766D01*
X183590412Y-88669853D01*
X183543773Y-88638690D01*
X183411310Y-88506227D01*
X183307235Y-88350467D01*
X183307234Y-88350466D01*
X183235546Y-88177395D01*
X183199000Y-87993667D01*
X183199000Y-87806333D01*
X183235546Y-87622605D01*
X183307234Y-87449534D01*
X183411309Y-87293775D01*
X183411310Y-87293773D01*
X183543773Y-87161310D01*
X183699533Y-87057235D01*
X183699534Y-87057234D01*
X183872605Y-86985546D01*
X184056333Y-86949000D01*
X184243667Y-86949000D01*
X184427395Y-86985546D01*
G37*
G36*
X150811000Y-88851000D02*
G01*
X148909000Y-88851000D01*
X148909000Y-86949000D01*
X150811000Y-86949000D01*
X150811000Y-88851000D01*
G37*
G36*
X169158228Y-84779703D02*
G01*
X169313100Y-84843853D01*
X169452481Y-84936985D01*
X169571015Y-85055519D01*
X169664147Y-85194900D01*
X169728297Y-85349772D01*
X169761000Y-85514184D01*
X169761000Y-85681816D01*
X169728297Y-85846228D01*
X169664147Y-86001100D01*
X169571015Y-86140481D01*
X169452481Y-86259015D01*
X169313100Y-86352147D01*
X169158228Y-86416297D01*
X168993816Y-86449000D01*
X168826184Y-86449000D01*
X168661772Y-86416297D01*
X168506900Y-86352147D01*
X168367519Y-86259015D01*
X168248985Y-86140481D01*
X168155853Y-86001100D01*
X168091703Y-85846228D01*
X168059000Y-85681816D01*
X168059000Y-85514184D01*
X168091703Y-85349772D01*
X168155853Y-85194900D01*
X168248985Y-85055519D01*
X168367519Y-84936985D01*
X168506900Y-84843853D01*
X168661772Y-84779703D01*
X168826184Y-84747000D01*
X168993816Y-84747000D01*
X169158228Y-84779703D01*
G37*
G36*
X160268228Y-84779703D02*
G01*
X160423100Y-84843853D01*
X160562481Y-84936985D01*
X160681015Y-85055519D01*
X160774147Y-85194900D01*
X160838297Y-85349772D01*
X160871000Y-85514184D01*
X160871000Y-85681816D01*
X160838297Y-85846228D01*
X160774147Y-86001100D01*
X160681015Y-86140481D01*
X160562481Y-86259015D01*
X160423100Y-86352147D01*
X160268228Y-86416297D01*
X160103816Y-86449000D01*
X159936184Y-86449000D01*
X159771772Y-86416297D01*
X159616900Y-86352147D01*
X159477519Y-86259015D01*
X159358985Y-86140481D01*
X159265853Y-86001100D01*
X159201703Y-85846228D01*
X159169000Y-85681816D01*
X159169000Y-85514184D01*
X159201703Y-85349772D01*
X159265853Y-85194900D01*
X159358985Y-85055519D01*
X159477519Y-84936985D01*
X159616900Y-84843853D01*
X159771772Y-84779703D01*
X159936184Y-84747000D01*
X160103816Y-84747000D01*
X160268228Y-84779703D01*
G37*
G36*
X165268228Y-84779703D02*
G01*
X165423100Y-84843853D01*
X165562481Y-84936985D01*
X165681015Y-85055519D01*
X165774147Y-85194900D01*
X165838297Y-85349772D01*
X165871000Y-85514184D01*
X165871000Y-85681816D01*
X165838297Y-85846228D01*
X165774147Y-86001100D01*
X165681015Y-86140481D01*
X165562481Y-86259015D01*
X165423100Y-86352147D01*
X165268228Y-86416297D01*
X165103816Y-86449000D01*
X164936184Y-86449000D01*
X164771772Y-86416297D01*
X164616900Y-86352147D01*
X164477519Y-86259015D01*
X164358985Y-86140481D01*
X164265853Y-86001100D01*
X164201703Y-85846228D01*
X164169000Y-85681816D01*
X164169000Y-85514184D01*
X164201703Y-85349772D01*
X164265853Y-85194900D01*
X164358985Y-85055519D01*
X164477519Y-84936985D01*
X164616900Y-84843853D01*
X164771772Y-84779703D01*
X164936184Y-84747000D01*
X165103816Y-84747000D01*
X165268228Y-84779703D01*
G37*
G36*
X174158228Y-84779703D02*
G01*
X174313100Y-84843853D01*
X174452481Y-84936985D01*
X174571015Y-85055519D01*
X174664147Y-85194900D01*
X174728297Y-85349772D01*
X174761000Y-85514184D01*
X174761000Y-85681816D01*
X174728297Y-85846228D01*
X174664147Y-86001100D01*
X174571015Y-86140481D01*
X174452481Y-86259015D01*
X174313100Y-86352147D01*
X174158228Y-86416297D01*
X173993816Y-86449000D01*
X173826184Y-86449000D01*
X173661772Y-86416297D01*
X173506900Y-86352147D01*
X173367519Y-86259015D01*
X173248985Y-86140481D01*
X173155853Y-86001100D01*
X173091703Y-85846228D01*
X173059000Y-85681816D01*
X173059000Y-85514184D01*
X173091703Y-85349772D01*
X173155853Y-85194900D01*
X173248985Y-85055519D01*
X173367519Y-84936985D01*
X173506900Y-84843853D01*
X173661772Y-84779703D01*
X173826184Y-84747000D01*
X173993816Y-84747000D01*
X174158228Y-84779703D01*
G37*
M02*
