G04 #@! TF.GenerationSoftware,KiCad,Pcbnew,(5.1.5)-3*
G04 #@! TF.CreationDate,2021-02-26T20:57:10+11:00*
G04 #@! TF.ProjectId,I2C_Interface,4932435f-496e-4746-9572-666163652e6b,rev?*
G04 #@! TF.SameCoordinates,Original*
G04 #@! TF.FileFunction,Legend,Top*
G04 #@! TF.FilePolarity,Positive*
%FSLAX46Y46*%
G04 Gerber Fmt 4.6, Leading zero omitted, Abs format (unit mm)*
G04 Created by KiCad (PCBNEW (5.1.5)-3) date 2021-02-26 20:57:10*
%MOMM*%
%LPD*%
G04 APERTURE LIST*
%ADD10C,0.075000*%
%ADD11C,0.125000*%
%ADD12C,0.120000*%
%ADD13C,0.010000*%
%ADD14C,0.150000*%
G04 APERTURE END LIST*
D10*
X161417047Y-104398000D02*
X161369428Y-104374190D01*
X161298000Y-104374190D01*
X161226571Y-104398000D01*
X161178952Y-104445619D01*
X161155142Y-104493238D01*
X161131333Y-104588476D01*
X161131333Y-104659904D01*
X161155142Y-104755142D01*
X161178952Y-104802761D01*
X161226571Y-104850380D01*
X161298000Y-104874190D01*
X161345619Y-104874190D01*
X161417047Y-104850380D01*
X161440857Y-104826571D01*
X161440857Y-104659904D01*
X161345619Y-104659904D01*
X161655142Y-104874190D02*
X161655142Y-104374190D01*
X161940857Y-104874190D01*
X161940857Y-104374190D01*
X162178952Y-104874190D02*
X162178952Y-104374190D01*
X162298000Y-104374190D01*
X162369428Y-104398000D01*
X162417047Y-104445619D01*
X162440857Y-104493238D01*
X162464666Y-104588476D01*
X162464666Y-104659904D01*
X162440857Y-104755142D01*
X162417047Y-104802761D01*
X162369428Y-104850380D01*
X162298000Y-104874190D01*
X162178952Y-104874190D01*
X161202761Y-109676380D02*
X161274190Y-109700190D01*
X161393238Y-109700190D01*
X161440857Y-109676380D01*
X161464666Y-109652571D01*
X161488476Y-109604952D01*
X161488476Y-109557333D01*
X161464666Y-109509714D01*
X161440857Y-109485904D01*
X161393238Y-109462095D01*
X161298000Y-109438285D01*
X161250380Y-109414476D01*
X161226571Y-109390666D01*
X161202761Y-109343047D01*
X161202761Y-109295428D01*
X161226571Y-109247809D01*
X161250380Y-109224000D01*
X161298000Y-109200190D01*
X161417047Y-109200190D01*
X161488476Y-109224000D01*
X161988476Y-109652571D02*
X161964666Y-109676380D01*
X161893238Y-109700190D01*
X161845619Y-109700190D01*
X161774190Y-109676380D01*
X161726571Y-109628761D01*
X161702761Y-109581142D01*
X161678952Y-109485904D01*
X161678952Y-109414476D01*
X161702761Y-109319238D01*
X161726571Y-109271619D01*
X161774190Y-109224000D01*
X161845619Y-109200190D01*
X161893238Y-109200190D01*
X161964666Y-109224000D01*
X161988476Y-109247809D01*
X162440857Y-109700190D02*
X162202761Y-109700190D01*
X162202761Y-109200190D01*
X161190857Y-112216380D02*
X161262285Y-112240190D01*
X161381333Y-112240190D01*
X161428952Y-112216380D01*
X161452761Y-112192571D01*
X161476571Y-112144952D01*
X161476571Y-112097333D01*
X161452761Y-112049714D01*
X161428952Y-112025904D01*
X161381333Y-112002095D01*
X161286095Y-111978285D01*
X161238476Y-111954476D01*
X161214666Y-111930666D01*
X161190857Y-111883047D01*
X161190857Y-111835428D01*
X161214666Y-111787809D01*
X161238476Y-111764000D01*
X161286095Y-111740190D01*
X161405142Y-111740190D01*
X161476571Y-111764000D01*
X161690857Y-112240190D02*
X161690857Y-111740190D01*
X161809904Y-111740190D01*
X161881333Y-111764000D01*
X161928952Y-111811619D01*
X161952761Y-111859238D01*
X161976571Y-111954476D01*
X161976571Y-112025904D01*
X161952761Y-112121142D01*
X161928952Y-112168761D01*
X161881333Y-112216380D01*
X161809904Y-112240190D01*
X161690857Y-112240190D01*
X162167047Y-112097333D02*
X162405142Y-112097333D01*
X162119428Y-112240190D02*
X162286095Y-111740190D01*
X162452761Y-112240190D01*
X161702761Y-106914190D02*
X161464666Y-106914190D01*
X161440857Y-107152285D01*
X161464666Y-107128476D01*
X161512285Y-107104666D01*
X161631333Y-107104666D01*
X161678952Y-107128476D01*
X161702761Y-107152285D01*
X161726571Y-107199904D01*
X161726571Y-107318952D01*
X161702761Y-107366571D01*
X161678952Y-107390380D01*
X161631333Y-107414190D01*
X161512285Y-107414190D01*
X161464666Y-107390380D01*
X161440857Y-107366571D01*
X161869428Y-106914190D02*
X162036095Y-107414190D01*
X162202761Y-106914190D01*
X194210857Y-112216380D02*
X194282285Y-112240190D01*
X194401333Y-112240190D01*
X194448952Y-112216380D01*
X194472761Y-112192571D01*
X194496571Y-112144952D01*
X194496571Y-112097333D01*
X194472761Y-112049714D01*
X194448952Y-112025904D01*
X194401333Y-112002095D01*
X194306095Y-111978285D01*
X194258476Y-111954476D01*
X194234666Y-111930666D01*
X194210857Y-111883047D01*
X194210857Y-111835428D01*
X194234666Y-111787809D01*
X194258476Y-111764000D01*
X194306095Y-111740190D01*
X194425142Y-111740190D01*
X194496571Y-111764000D01*
X194710857Y-112240190D02*
X194710857Y-111740190D01*
X194829904Y-111740190D01*
X194901333Y-111764000D01*
X194948952Y-111811619D01*
X194972761Y-111859238D01*
X194996571Y-111954476D01*
X194996571Y-112025904D01*
X194972761Y-112121142D01*
X194948952Y-112168761D01*
X194901333Y-112216380D01*
X194829904Y-112240190D01*
X194710857Y-112240190D01*
X195187047Y-112097333D02*
X195425142Y-112097333D01*
X195139428Y-112240190D02*
X195306095Y-111740190D01*
X195472761Y-112240190D01*
X194222761Y-109676380D02*
X194294190Y-109700190D01*
X194413238Y-109700190D01*
X194460857Y-109676380D01*
X194484666Y-109652571D01*
X194508476Y-109604952D01*
X194508476Y-109557333D01*
X194484666Y-109509714D01*
X194460857Y-109485904D01*
X194413238Y-109462095D01*
X194318000Y-109438285D01*
X194270380Y-109414476D01*
X194246571Y-109390666D01*
X194222761Y-109343047D01*
X194222761Y-109295428D01*
X194246571Y-109247809D01*
X194270380Y-109224000D01*
X194318000Y-109200190D01*
X194437047Y-109200190D01*
X194508476Y-109224000D01*
X195008476Y-109652571D02*
X194984666Y-109676380D01*
X194913238Y-109700190D01*
X194865619Y-109700190D01*
X194794190Y-109676380D01*
X194746571Y-109628761D01*
X194722761Y-109581142D01*
X194698952Y-109485904D01*
X194698952Y-109414476D01*
X194722761Y-109319238D01*
X194746571Y-109271619D01*
X194794190Y-109224000D01*
X194865619Y-109200190D01*
X194913238Y-109200190D01*
X194984666Y-109224000D01*
X195008476Y-109247809D01*
X195460857Y-109700190D02*
X195222761Y-109700190D01*
X195222761Y-109200190D01*
X194294190Y-106914190D02*
X194603714Y-106914190D01*
X194437047Y-107104666D01*
X194508476Y-107104666D01*
X194556095Y-107128476D01*
X194579904Y-107152285D01*
X194603714Y-107199904D01*
X194603714Y-107318952D01*
X194579904Y-107366571D01*
X194556095Y-107390380D01*
X194508476Y-107414190D01*
X194365619Y-107414190D01*
X194318000Y-107390380D01*
X194294190Y-107366571D01*
X194818000Y-107366571D02*
X194841809Y-107390380D01*
X194818000Y-107414190D01*
X194794190Y-107390380D01*
X194818000Y-107366571D01*
X194818000Y-107414190D01*
X195008476Y-106914190D02*
X195318000Y-106914190D01*
X195151333Y-107104666D01*
X195222761Y-107104666D01*
X195270380Y-107128476D01*
X195294190Y-107152285D01*
X195318000Y-107199904D01*
X195318000Y-107318952D01*
X195294190Y-107366571D01*
X195270380Y-107390380D01*
X195222761Y-107414190D01*
X195079904Y-107414190D01*
X195032285Y-107390380D01*
X195008476Y-107366571D01*
X194437047Y-104398000D02*
X194389428Y-104374190D01*
X194318000Y-104374190D01*
X194246571Y-104398000D01*
X194198952Y-104445619D01*
X194175142Y-104493238D01*
X194151333Y-104588476D01*
X194151333Y-104659904D01*
X194175142Y-104755142D01*
X194198952Y-104802761D01*
X194246571Y-104850380D01*
X194318000Y-104874190D01*
X194365619Y-104874190D01*
X194437047Y-104850380D01*
X194460857Y-104826571D01*
X194460857Y-104659904D01*
X194365619Y-104659904D01*
X194675142Y-104874190D02*
X194675142Y-104374190D01*
X194960857Y-104874190D01*
X194960857Y-104374190D01*
X195198952Y-104874190D02*
X195198952Y-104374190D01*
X195318000Y-104374190D01*
X195389428Y-104398000D01*
X195437047Y-104445619D01*
X195460857Y-104493238D01*
X195484666Y-104588476D01*
X195484666Y-104659904D01*
X195460857Y-104755142D01*
X195437047Y-104802761D01*
X195389428Y-104850380D01*
X195318000Y-104874190D01*
X195198952Y-104874190D01*
D11*
X154060952Y-117292380D02*
X154060952Y-116292380D01*
X154489523Y-116387619D02*
X154537142Y-116340000D01*
X154632380Y-116292380D01*
X154870476Y-116292380D01*
X154965714Y-116340000D01*
X155013333Y-116387619D01*
X155060952Y-116482857D01*
X155060952Y-116578095D01*
X155013333Y-116720952D01*
X154441904Y-117292380D01*
X155060952Y-117292380D01*
X156060952Y-117197142D02*
X156013333Y-117244761D01*
X155870476Y-117292380D01*
X155775238Y-117292380D01*
X155632380Y-117244761D01*
X155537142Y-117149523D01*
X155489523Y-117054285D01*
X155441904Y-116863809D01*
X155441904Y-116720952D01*
X155489523Y-116530476D01*
X155537142Y-116435238D01*
X155632380Y-116340000D01*
X155775238Y-116292380D01*
X155870476Y-116292380D01*
X156013333Y-116340000D01*
X156060952Y-116387619D01*
X157156190Y-116292380D02*
X157775238Y-116292380D01*
X157441904Y-116673333D01*
X157584761Y-116673333D01*
X157680000Y-116720952D01*
X157727619Y-116768571D01*
X157775238Y-116863809D01*
X157775238Y-117101904D01*
X157727619Y-117197142D01*
X157680000Y-117244761D01*
X157584761Y-117292380D01*
X157299047Y-117292380D01*
X157203809Y-117244761D01*
X157156190Y-117197142D01*
X158203809Y-117197142D02*
X158251428Y-117244761D01*
X158203809Y-117292380D01*
X158156190Y-117244761D01*
X158203809Y-117197142D01*
X158203809Y-117292380D01*
X158584761Y-116292380D02*
X159203809Y-116292380D01*
X158870476Y-116673333D01*
X159013333Y-116673333D01*
X159108571Y-116720952D01*
X159156190Y-116768571D01*
X159203809Y-116863809D01*
X159203809Y-117101904D01*
X159156190Y-117197142D01*
X159108571Y-117244761D01*
X159013333Y-117292380D01*
X158727619Y-117292380D01*
X158632380Y-117244761D01*
X158584761Y-117197142D01*
X159489523Y-116292380D02*
X159822857Y-117292380D01*
X160156190Y-116292380D01*
X161108571Y-116625714D02*
X161489523Y-116625714D01*
X161251428Y-116292380D02*
X161251428Y-117149523D01*
X161299047Y-117244761D01*
X161394285Y-117292380D01*
X161489523Y-117292380D01*
X161965714Y-117292380D02*
X161870476Y-117244761D01*
X161822857Y-117197142D01*
X161775238Y-117101904D01*
X161775238Y-116816190D01*
X161822857Y-116720952D01*
X161870476Y-116673333D01*
X161965714Y-116625714D01*
X162108571Y-116625714D01*
X162203809Y-116673333D01*
X162251428Y-116720952D01*
X162299047Y-116816190D01*
X162299047Y-117101904D01*
X162251428Y-117197142D01*
X162203809Y-117244761D01*
X162108571Y-117292380D01*
X161965714Y-117292380D01*
X163965714Y-116292380D02*
X163489523Y-116292380D01*
X163441904Y-116768571D01*
X163489523Y-116720952D01*
X163584761Y-116673333D01*
X163822857Y-116673333D01*
X163918095Y-116720952D01*
X163965714Y-116768571D01*
X164013333Y-116863809D01*
X164013333Y-117101904D01*
X163965714Y-117197142D01*
X163918095Y-117244761D01*
X163822857Y-117292380D01*
X163584761Y-117292380D01*
X163489523Y-117244761D01*
X163441904Y-117197142D01*
X164299047Y-116292380D02*
X164632380Y-117292380D01*
X164965714Y-116292380D01*
X166060952Y-117292380D02*
X166060952Y-116292380D01*
X166537142Y-116625714D02*
X166537142Y-117292380D01*
X166537142Y-116720952D02*
X166584761Y-116673333D01*
X166680000Y-116625714D01*
X166822857Y-116625714D01*
X166918095Y-116673333D01*
X166965714Y-116768571D01*
X166965714Y-117292380D01*
X167299047Y-116625714D02*
X167680000Y-116625714D01*
X167441904Y-116292380D02*
X167441904Y-117149523D01*
X167489523Y-117244761D01*
X167584761Y-117292380D01*
X167680000Y-117292380D01*
X168394285Y-117244761D02*
X168299047Y-117292380D01*
X168108571Y-117292380D01*
X168013333Y-117244761D01*
X167965714Y-117149523D01*
X167965714Y-116768571D01*
X168013333Y-116673333D01*
X168108571Y-116625714D01*
X168299047Y-116625714D01*
X168394285Y-116673333D01*
X168441904Y-116768571D01*
X168441904Y-116863809D01*
X167965714Y-116959047D01*
X168870476Y-117292380D02*
X168870476Y-116625714D01*
X168870476Y-116816190D02*
X168918095Y-116720952D01*
X168965714Y-116673333D01*
X169060952Y-116625714D01*
X169156190Y-116625714D01*
X169346666Y-116625714D02*
X169727619Y-116625714D01*
X169489523Y-117292380D02*
X169489523Y-116435238D01*
X169537142Y-116340000D01*
X169632380Y-116292380D01*
X169727619Y-116292380D01*
X170489523Y-117292380D02*
X170489523Y-116768571D01*
X170441904Y-116673333D01*
X170346666Y-116625714D01*
X170156190Y-116625714D01*
X170060952Y-116673333D01*
X170489523Y-117244761D02*
X170394285Y-117292380D01*
X170156190Y-117292380D01*
X170060952Y-117244761D01*
X170013333Y-117149523D01*
X170013333Y-117054285D01*
X170060952Y-116959047D01*
X170156190Y-116911428D01*
X170394285Y-116911428D01*
X170489523Y-116863809D01*
X171394285Y-117244761D02*
X171299047Y-117292380D01*
X171108571Y-117292380D01*
X171013333Y-117244761D01*
X170965714Y-117197142D01*
X170918095Y-117101904D01*
X170918095Y-116816190D01*
X170965714Y-116720952D01*
X171013333Y-116673333D01*
X171108571Y-116625714D01*
X171299047Y-116625714D01*
X171394285Y-116673333D01*
X172203809Y-117244761D02*
X172108571Y-117292380D01*
X171918095Y-117292380D01*
X171822857Y-117244761D01*
X171775238Y-117149523D01*
X171775238Y-116768571D01*
X171822857Y-116673333D01*
X171918095Y-116625714D01*
X172108571Y-116625714D01*
X172203809Y-116673333D01*
X172251428Y-116768571D01*
X172251428Y-116863809D01*
X171775238Y-116959047D01*
X174156190Y-116244761D02*
X173299047Y-117530476D01*
X175584761Y-116768571D02*
X175727619Y-116816190D01*
X175775238Y-116863809D01*
X175822857Y-116959047D01*
X175822857Y-117101904D01*
X175775238Y-117197142D01*
X175727619Y-117244761D01*
X175632380Y-117292380D01*
X175251428Y-117292380D01*
X175251428Y-116292380D01*
X175584761Y-116292380D01*
X175680000Y-116340000D01*
X175727619Y-116387619D01*
X175775238Y-116482857D01*
X175775238Y-116578095D01*
X175727619Y-116673333D01*
X175680000Y-116720952D01*
X175584761Y-116768571D01*
X175251428Y-116768571D01*
X176680000Y-116625714D02*
X176680000Y-117292380D01*
X176251428Y-116625714D02*
X176251428Y-117149523D01*
X176299047Y-117244761D01*
X176394285Y-117292380D01*
X176537142Y-117292380D01*
X176632380Y-117244761D01*
X176680000Y-117197142D01*
X177013333Y-116625714D02*
X177394285Y-116625714D01*
X177156190Y-117292380D02*
X177156190Y-116435238D01*
X177203809Y-116340000D01*
X177299047Y-116292380D01*
X177394285Y-116292380D01*
X177584761Y-116625714D02*
X177965714Y-116625714D01*
X177727619Y-117292380D02*
X177727619Y-116435238D01*
X177775238Y-116340000D01*
X177870476Y-116292380D01*
X177965714Y-116292380D01*
X178680000Y-117244761D02*
X178584761Y-117292380D01*
X178394285Y-117292380D01*
X178299047Y-117244761D01*
X178251428Y-117149523D01*
X178251428Y-116768571D01*
X178299047Y-116673333D01*
X178394285Y-116625714D01*
X178584761Y-116625714D01*
X178680000Y-116673333D01*
X178727619Y-116768571D01*
X178727619Y-116863809D01*
X178251428Y-116959047D01*
X179156190Y-117292380D02*
X179156190Y-116625714D01*
X179156190Y-116816190D02*
X179203809Y-116720952D01*
X179251428Y-116673333D01*
X179346666Y-116625714D01*
X179441904Y-116625714D01*
X179775238Y-117197142D02*
X179822857Y-117244761D01*
X179775238Y-117292380D01*
X179727619Y-117244761D01*
X179775238Y-117197142D01*
X179775238Y-117292380D01*
X181584761Y-117292380D02*
X181251428Y-116816190D01*
X181013333Y-117292380D02*
X181013333Y-116292380D01*
X181394285Y-116292380D01*
X181489523Y-116340000D01*
X181537142Y-116387619D01*
X181584761Y-116482857D01*
X181584761Y-116625714D01*
X181537142Y-116720952D01*
X181489523Y-116768571D01*
X181394285Y-116816190D01*
X181013333Y-116816190D01*
X182394285Y-117244761D02*
X182299047Y-117292380D01*
X182108571Y-117292380D01*
X182013333Y-117244761D01*
X181965714Y-117149523D01*
X181965714Y-116768571D01*
X182013333Y-116673333D01*
X182108571Y-116625714D01*
X182299047Y-116625714D01*
X182394285Y-116673333D01*
X182441904Y-116768571D01*
X182441904Y-116863809D01*
X181965714Y-116959047D01*
X182775238Y-116625714D02*
X183013333Y-117292380D01*
X183251428Y-116625714D01*
X184918095Y-117292380D02*
X184346666Y-117292380D01*
X184632380Y-117292380D02*
X184632380Y-116292380D01*
X184537142Y-116435238D01*
X184441904Y-116530476D01*
X184346666Y-116578095D01*
X185346666Y-117197142D02*
X185394285Y-117244761D01*
X185346666Y-117292380D01*
X185299047Y-117244761D01*
X185346666Y-117197142D01*
X185346666Y-117292380D01*
X186013333Y-116292380D02*
X186108571Y-116292380D01*
X186203809Y-116340000D01*
X186251428Y-116387619D01*
X186299047Y-116482857D01*
X186346666Y-116673333D01*
X186346666Y-116911428D01*
X186299047Y-117101904D01*
X186251428Y-117197142D01*
X186203809Y-117244761D01*
X186108571Y-117292380D01*
X186013333Y-117292380D01*
X185918095Y-117244761D01*
X185870476Y-117197142D01*
X185822857Y-117101904D01*
X185775238Y-116911428D01*
X185775238Y-116673333D01*
X185822857Y-116482857D01*
X185870476Y-116387619D01*
X185918095Y-116340000D01*
X186013333Y-116292380D01*
D12*
X163730000Y-97774000D02*
X166470000Y-97774000D01*
X166470000Y-97774000D02*
X166470000Y-91234000D01*
X166470000Y-91234000D02*
X163730000Y-91234000D01*
X163730000Y-91234000D02*
X163730000Y-97774000D01*
X165100000Y-98544000D02*
X165100000Y-97774000D01*
X165100000Y-90464000D02*
X165100000Y-91234000D01*
X157480000Y-90464000D02*
X157480000Y-91234000D01*
X157480000Y-98544000D02*
X157480000Y-97774000D01*
X156110000Y-91234000D02*
X156110000Y-97774000D01*
X158850000Y-91234000D02*
X156110000Y-91234000D01*
X158850000Y-97774000D02*
X158850000Y-91234000D01*
X156110000Y-97774000D02*
X158850000Y-97774000D01*
X172140000Y-103880000D02*
X172140000Y-107480000D01*
X172151522Y-103841522D02*
G75*
G02X176590000Y-105680000I1838478J-1838478D01*
G01*
X172151522Y-107518478D02*
G75*
G03X176590000Y-105680000I1838478J1838478D01*
G01*
X148670000Y-99350000D02*
X154640000Y-99350000D01*
X154640000Y-99350000D02*
X154640000Y-91730000D01*
X154640000Y-91730000D02*
X148670000Y-91730000D01*
X148670000Y-91730000D02*
X148670000Y-99350000D01*
X148680000Y-96040000D02*
X149430000Y-96040000D01*
X149430000Y-96040000D02*
X149430000Y-95040000D01*
X149430000Y-95040000D02*
X148680000Y-95040000D01*
X148680000Y-95040000D02*
X148680000Y-96040000D01*
X148680000Y-99340000D02*
X149430000Y-99340000D01*
X149430000Y-99340000D02*
X149430000Y-97540000D01*
X149430000Y-97540000D02*
X148680000Y-97540000D01*
X148680000Y-97540000D02*
X148680000Y-99340000D01*
X148680000Y-93540000D02*
X149430000Y-93540000D01*
X149430000Y-93540000D02*
X149430000Y-91740000D01*
X149430000Y-91740000D02*
X148680000Y-91740000D01*
X148680000Y-91740000D02*
X148680000Y-93540000D01*
X150930000Y-99340000D02*
X150930000Y-98590000D01*
X150930000Y-98590000D02*
X152270000Y-98590000D01*
X153880000Y-95540000D02*
X153880000Y-97530000D01*
X150930000Y-91740000D02*
X150930000Y-92490000D01*
X150930000Y-92490000D02*
X153880000Y-92490000D01*
X153880000Y-92490000D02*
X153880000Y-95540000D01*
X148380000Y-98390000D02*
X148380000Y-99640000D01*
X148380000Y-99640000D02*
X149630000Y-99640000D01*
D13*
G36*
X166779195Y-110452191D02*
G01*
X166790031Y-110464854D01*
X166821831Y-110537367D01*
X166815646Y-110572812D01*
X166749660Y-110614000D01*
X166670992Y-110598864D01*
X166642656Y-110570604D01*
X166644161Y-110532333D01*
X166666333Y-110532333D01*
X166696717Y-110573455D01*
X166706168Y-110574667D01*
X166763502Y-110543894D01*
X166772167Y-110532333D01*
X166762570Y-110496092D01*
X166732332Y-110490000D01*
X166674410Y-110512102D01*
X166666333Y-110532333D01*
X166644161Y-110532333D01*
X166645155Y-110507090D01*
X166675544Y-110462646D01*
X166731617Y-110422833D01*
X166779195Y-110452191D01*
G37*
X166779195Y-110452191D02*
X166790031Y-110464854D01*
X166821831Y-110537367D01*
X166815646Y-110572812D01*
X166749660Y-110614000D01*
X166670992Y-110598864D01*
X166642656Y-110570604D01*
X166644161Y-110532333D01*
X166666333Y-110532333D01*
X166696717Y-110573455D01*
X166706168Y-110574667D01*
X166763502Y-110543894D01*
X166772167Y-110532333D01*
X166762570Y-110496092D01*
X166732332Y-110490000D01*
X166674410Y-110512102D01*
X166666333Y-110532333D01*
X166644161Y-110532333D01*
X166645155Y-110507090D01*
X166675544Y-110462646D01*
X166731617Y-110422833D01*
X166779195Y-110452191D01*
G36*
X166100130Y-110764454D02*
G01*
X166108361Y-110835934D01*
X166070619Y-110925689D01*
X165998098Y-110939141D01*
X165951081Y-110916917D01*
X165912022Y-110856259D01*
X165914165Y-110849833D01*
X165989000Y-110849833D01*
X166010167Y-110871000D01*
X166031333Y-110849833D01*
X166010167Y-110828667D01*
X165989000Y-110849833D01*
X165914165Y-110849833D01*
X165934335Y-110789359D01*
X166003348Y-110747203D01*
X166032949Y-110744000D01*
X166100130Y-110764454D01*
G37*
X166100130Y-110764454D02*
X166108361Y-110835934D01*
X166070619Y-110925689D01*
X165998098Y-110939141D01*
X165951081Y-110916917D01*
X165912022Y-110856259D01*
X165914165Y-110849833D01*
X165989000Y-110849833D01*
X166010167Y-110871000D01*
X166031333Y-110849833D01*
X166010167Y-110828667D01*
X165989000Y-110849833D01*
X165914165Y-110849833D01*
X165934335Y-110789359D01*
X166003348Y-110747203D01*
X166032949Y-110744000D01*
X166100130Y-110764454D01*
G36*
X166684507Y-110136241D02*
G01*
X166675378Y-110190575D01*
X166630540Y-110226764D01*
X166588382Y-110214509D01*
X166588207Y-110175139D01*
X166621602Y-110115497D01*
X166645167Y-110106764D01*
X166684507Y-110136241D01*
G37*
X166684507Y-110136241D02*
X166675378Y-110190575D01*
X166630540Y-110226764D01*
X166588382Y-110214509D01*
X166588207Y-110175139D01*
X166621602Y-110115497D01*
X166645167Y-110106764D01*
X166684507Y-110136241D01*
G36*
X166976689Y-110075849D02*
G01*
X167005000Y-110149992D01*
X167024812Y-110202222D01*
X167097667Y-110206283D01*
X167114516Y-110203324D01*
X167192930Y-110198184D01*
X167213828Y-110239298D01*
X167209766Y-110283277D01*
X167172706Y-110361716D01*
X167107558Y-110401364D01*
X167042658Y-110396639D01*
X167006342Y-110341962D01*
X167005000Y-110323611D01*
X166995483Y-110299500D01*
X167089667Y-110299500D01*
X167110833Y-110320667D01*
X167132000Y-110299500D01*
X167110833Y-110278333D01*
X167089667Y-110299500D01*
X166995483Y-110299500D01*
X166976133Y-110250478D01*
X166922832Y-110236000D01*
X166833243Y-110210281D01*
X166808854Y-110151333D01*
X166878000Y-110151333D01*
X166910214Y-110192436D01*
X166920333Y-110193667D01*
X166961436Y-110161452D01*
X166962667Y-110151333D01*
X166930452Y-110110230D01*
X166920333Y-110109000D01*
X166879230Y-110141214D01*
X166878000Y-110151333D01*
X166808854Y-110151333D01*
X166807017Y-110146894D01*
X166835117Y-110088495D01*
X166908165Y-110049308D01*
X166976689Y-110075849D01*
G37*
X166976689Y-110075849D02*
X167005000Y-110149992D01*
X167024812Y-110202222D01*
X167097667Y-110206283D01*
X167114516Y-110203324D01*
X167192930Y-110198184D01*
X167213828Y-110239298D01*
X167209766Y-110283277D01*
X167172706Y-110361716D01*
X167107558Y-110401364D01*
X167042658Y-110396639D01*
X167006342Y-110341962D01*
X167005000Y-110323611D01*
X166995483Y-110299500D01*
X167089667Y-110299500D01*
X167110833Y-110320667D01*
X167132000Y-110299500D01*
X167110833Y-110278333D01*
X167089667Y-110299500D01*
X166995483Y-110299500D01*
X166976133Y-110250478D01*
X166922832Y-110236000D01*
X166833243Y-110210281D01*
X166808854Y-110151333D01*
X166878000Y-110151333D01*
X166910214Y-110192436D01*
X166920333Y-110193667D01*
X166961436Y-110161452D01*
X166962667Y-110151333D01*
X166930452Y-110110230D01*
X166920333Y-110109000D01*
X166879230Y-110141214D01*
X166878000Y-110151333D01*
X166808854Y-110151333D01*
X166807017Y-110146894D01*
X166835117Y-110088495D01*
X166908165Y-110049308D01*
X166976689Y-110075849D01*
G36*
X165710076Y-111356912D02*
G01*
X165713833Y-111379000D01*
X165680450Y-111442564D01*
X165660917Y-111453083D01*
X165618429Y-111433435D01*
X165608000Y-111379000D01*
X165627506Y-111311856D01*
X165660917Y-111304917D01*
X165710076Y-111356912D01*
G37*
X165710076Y-111356912D02*
X165713833Y-111379000D01*
X165680450Y-111442564D01*
X165660917Y-111453083D01*
X165618429Y-111433435D01*
X165608000Y-111379000D01*
X165627506Y-111311856D01*
X165660917Y-111304917D01*
X165710076Y-111356912D01*
G36*
X165527873Y-110861707D02*
G01*
X165540326Y-110935603D01*
X165513043Y-111012519D01*
X165502020Y-111025360D01*
X165456600Y-111127285D01*
X165456616Y-111233882D01*
X165458788Y-111338217D01*
X165427359Y-111377605D01*
X165414308Y-111379000D01*
X165360041Y-111402170D01*
X165354000Y-111420005D01*
X165322480Y-111442039D01*
X165283555Y-111433977D01*
X165230763Y-111422369D01*
X165234393Y-111443841D01*
X165280582Y-111484270D01*
X165355468Y-111529532D01*
X165395425Y-111547957D01*
X165480706Y-111588405D01*
X165514371Y-111631930D01*
X165498980Y-111700909D01*
X165437091Y-111817718D01*
X165428083Y-111833523D01*
X165332833Y-112000354D01*
X165056900Y-111908167D01*
X165269333Y-111908167D01*
X165290500Y-111929333D01*
X165311667Y-111908167D01*
X165290500Y-111887000D01*
X165269333Y-111908167D01*
X165056900Y-111908167D01*
X165025917Y-111897816D01*
X164880014Y-111845378D01*
X164771705Y-111799416D01*
X164720622Y-111768439D01*
X164719000Y-111764760D01*
X164729918Y-111738833D01*
X164803667Y-111738833D01*
X164824833Y-111760000D01*
X164846000Y-111738833D01*
X164824833Y-111717667D01*
X164803667Y-111738833D01*
X164729918Y-111738833D01*
X164740013Y-111714864D01*
X164774085Y-111654167D01*
X165438667Y-111654167D01*
X165459833Y-111675333D01*
X165481000Y-111654167D01*
X165459833Y-111633000D01*
X165438667Y-111654167D01*
X164774085Y-111654167D01*
X164794187Y-111618357D01*
X164846009Y-111533970D01*
X164907671Y-111442500D01*
X164973000Y-111442500D01*
X164994167Y-111463667D01*
X165015333Y-111442500D01*
X164994167Y-111421333D01*
X164973000Y-111442500D01*
X164907671Y-111442500D01*
X164922173Y-111420989D01*
X164975461Y-111368911D01*
X165024229Y-111364688D01*
X165061301Y-111380945D01*
X165135241Y-111404376D01*
X165183265Y-111395971D01*
X165181703Y-111364532D01*
X165158106Y-111344948D01*
X165128928Y-111286511D01*
X165126326Y-111255528D01*
X165227000Y-111255528D01*
X165249304Y-111317594D01*
X165296510Y-111319191D01*
X165339059Y-111264677D01*
X165346521Y-111237908D01*
X165328285Y-111177490D01*
X165293604Y-111167333D01*
X165238645Y-111202943D01*
X165227000Y-111255528D01*
X165126326Y-111255528D01*
X165121238Y-111194951D01*
X165137604Y-111119675D01*
X165145840Y-111109113D01*
X165212605Y-111074394D01*
X165292344Y-111059536D01*
X165347346Y-111069395D01*
X165354000Y-111082312D01*
X165379812Y-111110146D01*
X165396658Y-111103632D01*
X165407547Y-111057327D01*
X165375491Y-111013444D01*
X165323591Y-110946944D01*
X165316349Y-110927444D01*
X165410444Y-110927444D01*
X165416255Y-110952611D01*
X165438667Y-110955667D01*
X165473512Y-110940177D01*
X165466889Y-110927444D01*
X165416649Y-110922378D01*
X165410444Y-110927444D01*
X165316349Y-110927444D01*
X165311667Y-110914839D01*
X165346478Y-110873026D01*
X165423322Y-110837912D01*
X165479933Y-110828667D01*
X165527873Y-110861707D01*
G37*
X165527873Y-110861707D02*
X165540326Y-110935603D01*
X165513043Y-111012519D01*
X165502020Y-111025360D01*
X165456600Y-111127285D01*
X165456616Y-111233882D01*
X165458788Y-111338217D01*
X165427359Y-111377605D01*
X165414308Y-111379000D01*
X165360041Y-111402170D01*
X165354000Y-111420005D01*
X165322480Y-111442039D01*
X165283555Y-111433977D01*
X165230763Y-111422369D01*
X165234393Y-111443841D01*
X165280582Y-111484270D01*
X165355468Y-111529532D01*
X165395425Y-111547957D01*
X165480706Y-111588405D01*
X165514371Y-111631930D01*
X165498980Y-111700909D01*
X165437091Y-111817718D01*
X165428083Y-111833523D01*
X165332833Y-112000354D01*
X165056900Y-111908167D01*
X165269333Y-111908167D01*
X165290500Y-111929333D01*
X165311667Y-111908167D01*
X165290500Y-111887000D01*
X165269333Y-111908167D01*
X165056900Y-111908167D01*
X165025917Y-111897816D01*
X164880014Y-111845378D01*
X164771705Y-111799416D01*
X164720622Y-111768439D01*
X164719000Y-111764760D01*
X164729918Y-111738833D01*
X164803667Y-111738833D01*
X164824833Y-111760000D01*
X164846000Y-111738833D01*
X164824833Y-111717667D01*
X164803667Y-111738833D01*
X164729918Y-111738833D01*
X164740013Y-111714864D01*
X164774085Y-111654167D01*
X165438667Y-111654167D01*
X165459833Y-111675333D01*
X165481000Y-111654167D01*
X165459833Y-111633000D01*
X165438667Y-111654167D01*
X164774085Y-111654167D01*
X164794187Y-111618357D01*
X164846009Y-111533970D01*
X164907671Y-111442500D01*
X164973000Y-111442500D01*
X164994167Y-111463667D01*
X165015333Y-111442500D01*
X164994167Y-111421333D01*
X164973000Y-111442500D01*
X164907671Y-111442500D01*
X164922173Y-111420989D01*
X164975461Y-111368911D01*
X165024229Y-111364688D01*
X165061301Y-111380945D01*
X165135241Y-111404376D01*
X165183265Y-111395971D01*
X165181703Y-111364532D01*
X165158106Y-111344948D01*
X165128928Y-111286511D01*
X165126326Y-111255528D01*
X165227000Y-111255528D01*
X165249304Y-111317594D01*
X165296510Y-111319191D01*
X165339059Y-111264677D01*
X165346521Y-111237908D01*
X165328285Y-111177490D01*
X165293604Y-111167333D01*
X165238645Y-111202943D01*
X165227000Y-111255528D01*
X165126326Y-111255528D01*
X165121238Y-111194951D01*
X165137604Y-111119675D01*
X165145840Y-111109113D01*
X165212605Y-111074394D01*
X165292344Y-111059536D01*
X165347346Y-111069395D01*
X165354000Y-111082312D01*
X165379812Y-111110146D01*
X165396658Y-111103632D01*
X165407547Y-111057327D01*
X165375491Y-111013444D01*
X165323591Y-110946944D01*
X165316349Y-110927444D01*
X165410444Y-110927444D01*
X165416255Y-110952611D01*
X165438667Y-110955667D01*
X165473512Y-110940177D01*
X165466889Y-110927444D01*
X165416649Y-110922378D01*
X165410444Y-110927444D01*
X165316349Y-110927444D01*
X165311667Y-110914839D01*
X165346478Y-110873026D01*
X165423322Y-110837912D01*
X165479933Y-110828667D01*
X165527873Y-110861707D01*
G36*
X168991845Y-111663329D02*
G01*
X169030296Y-111692820D01*
X169071139Y-111752669D01*
X169045222Y-111813178D01*
X169034001Y-111827113D01*
X168983673Y-111905289D01*
X168970002Y-111945654D01*
X168955171Y-112041681D01*
X168927855Y-112079165D01*
X168890655Y-112084555D01*
X168823426Y-112050261D01*
X168803684Y-112018644D01*
X168808250Y-111971667D01*
X168867667Y-111971667D01*
X168883156Y-112006512D01*
X168895889Y-111999889D01*
X168900955Y-111949649D01*
X168895889Y-111943444D01*
X168870722Y-111949255D01*
X168867667Y-111971667D01*
X168808250Y-111971667D01*
X168811268Y-111940632D01*
X168838324Y-111908910D01*
X168876994Y-111836321D01*
X168864456Y-111773718D01*
X168863833Y-111743601D01*
X168924552Y-111743601D01*
X168931167Y-111760000D01*
X168969208Y-111800385D01*
X168975998Y-111802333D01*
X168994181Y-111769580D01*
X168994667Y-111760000D01*
X168962123Y-111719293D01*
X168949835Y-111717667D01*
X168924552Y-111743601D01*
X168863833Y-111743601D01*
X168862730Y-111690411D01*
X168914003Y-111649317D01*
X168991845Y-111663329D01*
G37*
X168991845Y-111663329D02*
X169030296Y-111692820D01*
X169071139Y-111752669D01*
X169045222Y-111813178D01*
X169034001Y-111827113D01*
X168983673Y-111905289D01*
X168970002Y-111945654D01*
X168955171Y-112041681D01*
X168927855Y-112079165D01*
X168890655Y-112084555D01*
X168823426Y-112050261D01*
X168803684Y-112018644D01*
X168808250Y-111971667D01*
X168867667Y-111971667D01*
X168883156Y-112006512D01*
X168895889Y-111999889D01*
X168900955Y-111949649D01*
X168895889Y-111943444D01*
X168870722Y-111949255D01*
X168867667Y-111971667D01*
X168808250Y-111971667D01*
X168811268Y-111940632D01*
X168838324Y-111908910D01*
X168876994Y-111836321D01*
X168864456Y-111773718D01*
X168863833Y-111743601D01*
X168924552Y-111743601D01*
X168931167Y-111760000D01*
X168969208Y-111800385D01*
X168975998Y-111802333D01*
X168994181Y-111769580D01*
X168994667Y-111760000D01*
X168962123Y-111719293D01*
X168949835Y-111717667D01*
X168924552Y-111743601D01*
X168863833Y-111743601D01*
X168862730Y-111690411D01*
X168914003Y-111649317D01*
X168991845Y-111663329D01*
G36*
X168938470Y-112167607D02*
G01*
X168944219Y-112180158D01*
X168923784Y-112218759D01*
X168888833Y-112225667D01*
X168836146Y-112204187D01*
X168833447Y-112180158D01*
X168877151Y-112136421D01*
X168888833Y-112134650D01*
X168938470Y-112167607D01*
G37*
X168938470Y-112167607D02*
X168944219Y-112180158D01*
X168923784Y-112218759D01*
X168888833Y-112225667D01*
X168836146Y-112204187D01*
X168833447Y-112180158D01*
X168877151Y-112136421D01*
X168888833Y-112134650D01*
X168938470Y-112167607D01*
G36*
X168211850Y-111009732D02*
G01*
X168189540Y-111081901D01*
X168133727Y-111160190D01*
X167977123Y-111382399D01*
X167882317Y-111648717D01*
X167856648Y-111938425D01*
X167856792Y-111942014D01*
X167860753Y-112085761D01*
X167852818Y-112164964D01*
X167826109Y-112199598D01*
X167773750Y-112209636D01*
X167764451Y-112210190D01*
X167635419Y-112206195D01*
X167560453Y-112195946D01*
X167500104Y-112176429D01*
X167474973Y-112133567D01*
X167475190Y-112119833D01*
X167513000Y-112119833D01*
X167534167Y-112141000D01*
X167555333Y-112119833D01*
X167534167Y-112098667D01*
X167513000Y-112119833D01*
X167475190Y-112119833D01*
X167476407Y-112042888D01*
X167483579Y-111978590D01*
X167512724Y-111814568D01*
X167554858Y-111669561D01*
X167602948Y-111559661D01*
X167649958Y-111500958D01*
X167688706Y-111509327D01*
X167715562Y-111538377D01*
X167709007Y-111493304D01*
X167706231Y-111483105D01*
X167720389Y-111409514D01*
X167780863Y-111311498D01*
X167868955Y-111208589D01*
X167965970Y-111120321D01*
X168053211Y-111066223D01*
X168108259Y-111063102D01*
X168141437Y-111071879D01*
X168132683Y-111049799D01*
X168131255Y-110992004D01*
X168144384Y-110979068D01*
X168197233Y-110968059D01*
X168211850Y-111009732D01*
G37*
X168211850Y-111009732D02*
X168189540Y-111081901D01*
X168133727Y-111160190D01*
X167977123Y-111382399D01*
X167882317Y-111648717D01*
X167856648Y-111938425D01*
X167856792Y-111942014D01*
X167860753Y-112085761D01*
X167852818Y-112164964D01*
X167826109Y-112199598D01*
X167773750Y-112209636D01*
X167764451Y-112210190D01*
X167635419Y-112206195D01*
X167560453Y-112195946D01*
X167500104Y-112176429D01*
X167474973Y-112133567D01*
X167475190Y-112119833D01*
X167513000Y-112119833D01*
X167534167Y-112141000D01*
X167555333Y-112119833D01*
X167534167Y-112098667D01*
X167513000Y-112119833D01*
X167475190Y-112119833D01*
X167476407Y-112042888D01*
X167483579Y-111978590D01*
X167512724Y-111814568D01*
X167554858Y-111669561D01*
X167602948Y-111559661D01*
X167649958Y-111500958D01*
X167688706Y-111509327D01*
X167715562Y-111538377D01*
X167709007Y-111493304D01*
X167706231Y-111483105D01*
X167720389Y-111409514D01*
X167780863Y-111311498D01*
X167868955Y-111208589D01*
X167965970Y-111120321D01*
X168053211Y-111066223D01*
X168108259Y-111063102D01*
X168141437Y-111071879D01*
X168132683Y-111049799D01*
X168131255Y-110992004D01*
X168144384Y-110979068D01*
X168197233Y-110968059D01*
X168211850Y-111009732D01*
G36*
X177411228Y-111410750D02*
G01*
X177386714Y-111494521D01*
X177320965Y-111531554D01*
X177260250Y-111540432D01*
X177122667Y-111553698D01*
X177122667Y-112310333D01*
X176826333Y-112310333D01*
X176826333Y-111553957D01*
X176709917Y-111540562D01*
X176619246Y-111510242D01*
X176582766Y-111430162D01*
X176580105Y-111410750D01*
X176566709Y-111294333D01*
X177424624Y-111294333D01*
X177411228Y-111410750D01*
G37*
X177411228Y-111410750D02*
X177386714Y-111494521D01*
X177320965Y-111531554D01*
X177260250Y-111540432D01*
X177122667Y-111553698D01*
X177122667Y-112310333D01*
X176826333Y-112310333D01*
X176826333Y-111553957D01*
X176709917Y-111540562D01*
X176619246Y-111510242D01*
X176582766Y-111430162D01*
X176580105Y-111410750D01*
X176566709Y-111294333D01*
X177424624Y-111294333D01*
X177411228Y-111410750D01*
G36*
X176332454Y-111302531D02*
G01*
X176448502Y-111333501D01*
X176512379Y-111396809D01*
X176539816Y-111502020D01*
X176542689Y-111534041D01*
X176536123Y-111622375D01*
X176482374Y-111659446D01*
X176430415Y-111667980D01*
X176312197Y-111652476D01*
X176248098Y-111593897D01*
X176157233Y-111519596D01*
X176054949Y-111515669D01*
X175982396Y-111566211D01*
X175954719Y-111643392D01*
X175943772Y-111767857D01*
X175945463Y-111826171D01*
X175961751Y-111955880D01*
X175996609Y-112026620D01*
X176054746Y-112061297D01*
X176150610Y-112069902D01*
X176234662Y-112013004D01*
X176343703Y-111949081D01*
X176450625Y-111929333D01*
X176539416Y-111935596D01*
X176568129Y-111971650D01*
X176556579Y-112063392D01*
X176555888Y-112066917D01*
X176516210Y-112184663D01*
X176442619Y-112258792D01*
X176319364Y-112297811D01*
X176130693Y-112310226D01*
X176105136Y-112310333D01*
X175942214Y-112305453D01*
X175838831Y-112286751D01*
X175770216Y-112248137D01*
X175742811Y-112221244D01*
X175700046Y-112156756D01*
X175675135Y-112066059D01*
X175663982Y-111927465D01*
X175662167Y-111794262D01*
X175671196Y-111580847D01*
X175706980Y-111437577D01*
X175782558Y-111351045D01*
X175910970Y-111307847D01*
X176105258Y-111294578D01*
X176148506Y-111294333D01*
X176332454Y-111302531D01*
G37*
X176332454Y-111302531D02*
X176448502Y-111333501D01*
X176512379Y-111396809D01*
X176539816Y-111502020D01*
X176542689Y-111534041D01*
X176536123Y-111622375D01*
X176482374Y-111659446D01*
X176430415Y-111667980D01*
X176312197Y-111652476D01*
X176248098Y-111593897D01*
X176157233Y-111519596D01*
X176054949Y-111515669D01*
X175982396Y-111566211D01*
X175954719Y-111643392D01*
X175943772Y-111767857D01*
X175945463Y-111826171D01*
X175961751Y-111955880D01*
X175996609Y-112026620D01*
X176054746Y-112061297D01*
X176150610Y-112069902D01*
X176234662Y-112013004D01*
X176343703Y-111949081D01*
X176450625Y-111929333D01*
X176539416Y-111935596D01*
X176568129Y-111971650D01*
X176556579Y-112063392D01*
X176555888Y-112066917D01*
X176516210Y-112184663D01*
X176442619Y-112258792D01*
X176319364Y-112297811D01*
X176130693Y-112310226D01*
X176105136Y-112310333D01*
X175942214Y-112305453D01*
X175838831Y-112286751D01*
X175770216Y-112248137D01*
X175742811Y-112221244D01*
X175700046Y-112156756D01*
X175675135Y-112066059D01*
X175663982Y-111927465D01*
X175662167Y-111794262D01*
X175671196Y-111580847D01*
X175706980Y-111437577D01*
X175782558Y-111351045D01*
X175910970Y-111307847D01*
X176105258Y-111294578D01*
X176148506Y-111294333D01*
X176332454Y-111302531D01*
G36*
X175355692Y-111295176D02*
G01*
X175467676Y-111300721D01*
X175527580Y-111315495D01*
X175551695Y-111344022D01*
X175556315Y-111390830D01*
X175556333Y-111400167D01*
X175550289Y-111460779D01*
X175518345Y-111492340D01*
X175439781Y-111504266D01*
X175323500Y-111506000D01*
X175188946Y-111509675D01*
X175118851Y-111525564D01*
X175093150Y-111560963D01*
X175090667Y-111590667D01*
X175101811Y-111641450D01*
X175149112Y-111666778D01*
X175253375Y-111674971D01*
X175302333Y-111675333D01*
X175427955Y-111678764D01*
X175490625Y-111696276D01*
X175511995Y-111738693D01*
X175514000Y-111781167D01*
X175507137Y-111843978D01*
X175472115Y-111875312D01*
X175387280Y-111885997D01*
X175302333Y-111887000D01*
X175176481Y-111890683D01*
X175113688Y-111908472D01*
X175092440Y-111950480D01*
X175090667Y-111986481D01*
X175097730Y-112044367D01*
X175132966Y-112073311D01*
X175217443Y-112082341D01*
X175312917Y-112081731D01*
X175442755Y-112082232D01*
X175510618Y-112097321D01*
X175539113Y-112137759D01*
X175548562Y-112193917D01*
X175561957Y-112310333D01*
X174794333Y-112310333D01*
X174794333Y-111294333D01*
X175175333Y-111294333D01*
X175355692Y-111295176D01*
G37*
X175355692Y-111295176D02*
X175467676Y-111300721D01*
X175527580Y-111315495D01*
X175551695Y-111344022D01*
X175556315Y-111390830D01*
X175556333Y-111400167D01*
X175550289Y-111460779D01*
X175518345Y-111492340D01*
X175439781Y-111504266D01*
X175323500Y-111506000D01*
X175188946Y-111509675D01*
X175118851Y-111525564D01*
X175093150Y-111560963D01*
X175090667Y-111590667D01*
X175101811Y-111641450D01*
X175149112Y-111666778D01*
X175253375Y-111674971D01*
X175302333Y-111675333D01*
X175427955Y-111678764D01*
X175490625Y-111696276D01*
X175511995Y-111738693D01*
X175514000Y-111781167D01*
X175507137Y-111843978D01*
X175472115Y-111875312D01*
X175387280Y-111885997D01*
X175302333Y-111887000D01*
X175176481Y-111890683D01*
X175113688Y-111908472D01*
X175092440Y-111950480D01*
X175090667Y-111986481D01*
X175097730Y-112044367D01*
X175132966Y-112073311D01*
X175217443Y-112082341D01*
X175312917Y-112081731D01*
X175442755Y-112082232D01*
X175510618Y-112097321D01*
X175539113Y-112137759D01*
X175548562Y-112193917D01*
X175561957Y-112310333D01*
X174794333Y-112310333D01*
X174794333Y-111294333D01*
X175175333Y-111294333D01*
X175355692Y-111295176D01*
G36*
X174667333Y-111735809D02*
G01*
X174663718Y-111966475D01*
X174647391Y-112125699D01*
X174610129Y-112226587D01*
X174543710Y-112282247D01*
X174439910Y-112305783D01*
X174306876Y-112310333D01*
X174163547Y-112303658D01*
X174076750Y-112277753D01*
X174018997Y-112223801D01*
X174013567Y-112216247D01*
X173962518Y-112099931D01*
X173947667Y-112004580D01*
X173957266Y-111924854D01*
X174003132Y-111892591D01*
X174092889Y-111887000D01*
X174197763Y-111899004D01*
X174244152Y-111943670D01*
X174251639Y-111973343D01*
X174280527Y-112047455D01*
X174307500Y-112068593D01*
X174328746Y-112033143D01*
X174346552Y-111926084D01*
X174359060Y-111760460D01*
X174362005Y-111685917D01*
X174374177Y-111294333D01*
X174667333Y-111294333D01*
X174667333Y-111735809D01*
G37*
X174667333Y-111735809D02*
X174663718Y-111966475D01*
X174647391Y-112125699D01*
X174610129Y-112226587D01*
X174543710Y-112282247D01*
X174439910Y-112305783D01*
X174306876Y-112310333D01*
X174163547Y-112303658D01*
X174076750Y-112277753D01*
X174018997Y-112223801D01*
X174013567Y-112216247D01*
X173962518Y-112099931D01*
X173947667Y-112004580D01*
X173957266Y-111924854D01*
X174003132Y-111892591D01*
X174092889Y-111887000D01*
X174197763Y-111899004D01*
X174244152Y-111943670D01*
X174251639Y-111973343D01*
X174280527Y-112047455D01*
X174307500Y-112068593D01*
X174328746Y-112033143D01*
X174346552Y-111926084D01*
X174359060Y-111760460D01*
X174362005Y-111685917D01*
X174374177Y-111294333D01*
X174667333Y-111294333D01*
X174667333Y-111735809D01*
G36*
X173549919Y-111302720D02*
G01*
X173708197Y-111354143D01*
X173751457Y-111382072D01*
X173809077Y-111434535D01*
X173842534Y-111494508D01*
X173858303Y-111585438D01*
X173862854Y-111730772D01*
X173863000Y-111786163D01*
X173859753Y-111955343D01*
X173845928Y-112064763D01*
X173815394Y-112139211D01*
X173762023Y-112203478D01*
X173759091Y-112206424D01*
X173633998Y-112279834D01*
X173464446Y-112314731D01*
X173281735Y-112310409D01*
X173117163Y-112266159D01*
X173043209Y-112222594D01*
X172986829Y-112171673D01*
X172953491Y-112113834D01*
X172937208Y-112026527D01*
X172931995Y-111887200D01*
X172931672Y-111803395D01*
X173228000Y-111803395D01*
X173241751Y-111976216D01*
X173286002Y-112072866D01*
X173365250Y-112097749D01*
X173483992Y-112055266D01*
X173484783Y-112054844D01*
X173535006Y-112009403D01*
X173559924Y-111927216D01*
X173566666Y-111784715D01*
X173566667Y-111784206D01*
X173554737Y-111626996D01*
X173512269Y-111541225D01*
X173429249Y-111516189D01*
X173330469Y-111531794D01*
X173272542Y-111554132D01*
X173241801Y-111598766D01*
X173229795Y-111688094D01*
X173228000Y-111803395D01*
X172931672Y-111803395D01*
X172931667Y-111802333D01*
X172933871Y-111632525D01*
X172944476Y-111524797D01*
X172969466Y-111456598D01*
X173014828Y-111405377D01*
X173043209Y-111382072D01*
X173182927Y-111316685D01*
X173363330Y-111290234D01*
X173549919Y-111302720D01*
G37*
X173549919Y-111302720D02*
X173708197Y-111354143D01*
X173751457Y-111382072D01*
X173809077Y-111434535D01*
X173842534Y-111494508D01*
X173858303Y-111585438D01*
X173862854Y-111730772D01*
X173863000Y-111786163D01*
X173859753Y-111955343D01*
X173845928Y-112064763D01*
X173815394Y-112139211D01*
X173762023Y-112203478D01*
X173759091Y-112206424D01*
X173633998Y-112279834D01*
X173464446Y-112314731D01*
X173281735Y-112310409D01*
X173117163Y-112266159D01*
X173043209Y-112222594D01*
X172986829Y-112171673D01*
X172953491Y-112113834D01*
X172937208Y-112026527D01*
X172931995Y-111887200D01*
X172931672Y-111803395D01*
X173228000Y-111803395D01*
X173241751Y-111976216D01*
X173286002Y-112072866D01*
X173365250Y-112097749D01*
X173483992Y-112055266D01*
X173484783Y-112054844D01*
X173535006Y-112009403D01*
X173559924Y-111927216D01*
X173566666Y-111784715D01*
X173566667Y-111784206D01*
X173554737Y-111626996D01*
X173512269Y-111541225D01*
X173429249Y-111516189D01*
X173330469Y-111531794D01*
X173272542Y-111554132D01*
X173241801Y-111598766D01*
X173229795Y-111688094D01*
X173228000Y-111803395D01*
X172931672Y-111803395D01*
X172931667Y-111802333D01*
X172933871Y-111632525D01*
X172944476Y-111524797D01*
X172969466Y-111456598D01*
X173014828Y-111405377D01*
X173043209Y-111382072D01*
X173182927Y-111316685D01*
X173363330Y-111290234D01*
X173549919Y-111302720D01*
G36*
X172495447Y-111297483D02*
G01*
X172613145Y-111309610D01*
X172687534Y-111334728D01*
X172739222Y-111376852D01*
X172739619Y-111377290D01*
X172790950Y-111478476D01*
X172812261Y-111613193D01*
X172803304Y-111747823D01*
X172763835Y-111848753D01*
X172743222Y-111869565D01*
X172698820Y-111915265D01*
X172727173Y-111959751D01*
X172740697Y-111971277D01*
X172784652Y-112047831D01*
X172804563Y-112161654D01*
X172804667Y-112170032D01*
X172798515Y-112267468D01*
X172763677Y-112303988D01*
X172675577Y-112303240D01*
X172667083Y-112302432D01*
X172568331Y-112280323D01*
X172525595Y-112224175D01*
X172516105Y-112172750D01*
X172495530Y-112093144D01*
X172440541Y-112061265D01*
X172357355Y-112056333D01*
X172259046Y-112063769D01*
X172219222Y-112101144D01*
X172212000Y-112183333D01*
X172201272Y-112273481D01*
X172152285Y-112306663D01*
X172092055Y-112310333D01*
X171999244Y-112304820D01*
X171954472Y-112292859D01*
X171948596Y-112246140D01*
X171945841Y-112132241D01*
X171946362Y-111968594D01*
X171949979Y-111784859D01*
X171952914Y-111675333D01*
X172212000Y-111675333D01*
X172217998Y-111761161D01*
X172252596Y-111795386D01*
X172340700Y-111796673D01*
X172370750Y-111794305D01*
X172476107Y-111777789D01*
X172520954Y-111739978D01*
X172529500Y-111675333D01*
X172517805Y-111604127D01*
X172466656Y-111569996D01*
X172370750Y-111556361D01*
X172267019Y-111552767D01*
X172222453Y-111577871D01*
X172212144Y-111650338D01*
X172212000Y-111675333D01*
X171952914Y-111675333D01*
X171963126Y-111294333D01*
X172313835Y-111294333D01*
X172495447Y-111297483D01*
G37*
X172495447Y-111297483D02*
X172613145Y-111309610D01*
X172687534Y-111334728D01*
X172739222Y-111376852D01*
X172739619Y-111377290D01*
X172790950Y-111478476D01*
X172812261Y-111613193D01*
X172803304Y-111747823D01*
X172763835Y-111848753D01*
X172743222Y-111869565D01*
X172698820Y-111915265D01*
X172727173Y-111959751D01*
X172740697Y-111971277D01*
X172784652Y-112047831D01*
X172804563Y-112161654D01*
X172804667Y-112170032D01*
X172798515Y-112267468D01*
X172763677Y-112303988D01*
X172675577Y-112303240D01*
X172667083Y-112302432D01*
X172568331Y-112280323D01*
X172525595Y-112224175D01*
X172516105Y-112172750D01*
X172495530Y-112093144D01*
X172440541Y-112061265D01*
X172357355Y-112056333D01*
X172259046Y-112063769D01*
X172219222Y-112101144D01*
X172212000Y-112183333D01*
X172201272Y-112273481D01*
X172152285Y-112306663D01*
X172092055Y-112310333D01*
X171999244Y-112304820D01*
X171954472Y-112292859D01*
X171948596Y-112246140D01*
X171945841Y-112132241D01*
X171946362Y-111968594D01*
X171949979Y-111784859D01*
X171952914Y-111675333D01*
X172212000Y-111675333D01*
X172217998Y-111761161D01*
X172252596Y-111795386D01*
X172340700Y-111796673D01*
X172370750Y-111794305D01*
X172476107Y-111777789D01*
X172520954Y-111739978D01*
X172529500Y-111675333D01*
X172517805Y-111604127D01*
X172466656Y-111569996D01*
X172370750Y-111556361D01*
X172267019Y-111552767D01*
X172222453Y-111577871D01*
X172212144Y-111650338D01*
X172212000Y-111675333D01*
X171952914Y-111675333D01*
X171963126Y-111294333D01*
X172313835Y-111294333D01*
X172495447Y-111297483D01*
G36*
X171539628Y-111303012D02*
G01*
X171685742Y-111335868D01*
X171774339Y-111403128D01*
X171818415Y-111515018D01*
X171830965Y-111681766D01*
X171831000Y-111694099D01*
X171813261Y-111867806D01*
X171752166Y-111978763D01*
X171635897Y-112037936D01*
X171452635Y-112056290D01*
X171440580Y-112056333D01*
X171318864Y-112059471D01*
X171259471Y-112078233D01*
X171240072Y-112126638D01*
X171238333Y-112183333D01*
X171227844Y-112273287D01*
X171178363Y-112306442D01*
X171111333Y-112310333D01*
X170984333Y-112310333D01*
X170984333Y-111755740D01*
X171243430Y-111755740D01*
X171274613Y-111793977D01*
X171363029Y-111802263D01*
X171386500Y-111802333D01*
X171487521Y-111796984D01*
X171527177Y-111765736D01*
X171528715Y-111685789D01*
X171526765Y-111664750D01*
X171507675Y-111569405D01*
X171458266Y-111532409D01*
X171386500Y-111527167D01*
X171297455Y-111537889D01*
X171258517Y-111587551D01*
X171246234Y-111664750D01*
X171243430Y-111755740D01*
X170984333Y-111755740D01*
X170984333Y-111294333D01*
X171323000Y-111294333D01*
X171539628Y-111303012D01*
G37*
X171539628Y-111303012D02*
X171685742Y-111335868D01*
X171774339Y-111403128D01*
X171818415Y-111515018D01*
X171830965Y-111681766D01*
X171831000Y-111694099D01*
X171813261Y-111867806D01*
X171752166Y-111978763D01*
X171635897Y-112037936D01*
X171452635Y-112056290D01*
X171440580Y-112056333D01*
X171318864Y-112059471D01*
X171259471Y-112078233D01*
X171240072Y-112126638D01*
X171238333Y-112183333D01*
X171227844Y-112273287D01*
X171178363Y-112306442D01*
X171111333Y-112310333D01*
X170984333Y-112310333D01*
X170984333Y-111755740D01*
X171243430Y-111755740D01*
X171274613Y-111793977D01*
X171363029Y-111802263D01*
X171386500Y-111802333D01*
X171487521Y-111796984D01*
X171527177Y-111765736D01*
X171528715Y-111685789D01*
X171526765Y-111664750D01*
X171507675Y-111569405D01*
X171458266Y-111532409D01*
X171386500Y-111527167D01*
X171297455Y-111537889D01*
X171258517Y-111587551D01*
X171246234Y-111664750D01*
X171243430Y-111755740D01*
X170984333Y-111755740D01*
X170984333Y-111294333D01*
X171323000Y-111294333D01*
X171539628Y-111303012D01*
G36*
X168308703Y-111077943D02*
G01*
X168294076Y-111135930D01*
X168239811Y-111229815D01*
X168208883Y-111272835D01*
X168140225Y-111367939D01*
X168119495Y-111425548D01*
X168142032Y-111474519D01*
X168170906Y-111507922D01*
X168245181Y-111563077D01*
X168290933Y-111549333D01*
X168354496Y-111506354D01*
X168380336Y-111520603D01*
X168348518Y-111579528D01*
X168345061Y-111583417D01*
X168285324Y-111660899D01*
X168291570Y-111703448D01*
X168358810Y-111729709D01*
X168408615Y-111734149D01*
X168432620Y-111700693D01*
X168438851Y-111610465D01*
X168437935Y-111543634D01*
X168436164Y-111506000D01*
X168529000Y-111506000D01*
X168544489Y-111540845D01*
X168557222Y-111534222D01*
X168560068Y-111506000D01*
X168656000Y-111506000D01*
X168688214Y-111547103D01*
X168698333Y-111548333D01*
X168739436Y-111516119D01*
X168740667Y-111506000D01*
X168708452Y-111464897D01*
X168698333Y-111463667D01*
X168657230Y-111495881D01*
X168656000Y-111506000D01*
X168560068Y-111506000D01*
X168562289Y-111483982D01*
X168557222Y-111477778D01*
X168532055Y-111483589D01*
X168529000Y-111506000D01*
X168436164Y-111506000D01*
X168432332Y-111424606D01*
X168419193Y-111377981D01*
X168393257Y-111391525D01*
X168379872Y-111408640D01*
X168326605Y-111457060D01*
X168268278Y-111433186D01*
X168260930Y-111427223D01*
X168213063Y-111352060D01*
X168213495Y-111350778D01*
X168289111Y-111350778D01*
X168294922Y-111375945D01*
X168317333Y-111379000D01*
X168352178Y-111363511D01*
X168345555Y-111350778D01*
X168295316Y-111345711D01*
X168289111Y-111350778D01*
X168213495Y-111350778D01*
X168234265Y-111289210D01*
X168310203Y-111265580D01*
X168344237Y-111270824D01*
X168422831Y-111274879D01*
X168444333Y-111231640D01*
X168466942Y-111174788D01*
X168486667Y-111167333D01*
X168517999Y-111203697D01*
X168529000Y-111277756D01*
X168539723Y-111355969D01*
X168589139Y-111370991D01*
X168634833Y-111361616D01*
X168715101Y-111355656D01*
X168740667Y-111378193D01*
X168775136Y-111415991D01*
X168807019Y-111421333D01*
X168852190Y-111442460D01*
X168843647Y-111516583D01*
X168801249Y-111604761D01*
X168766711Y-111642935D01*
X168686489Y-111672733D01*
X168626041Y-111660111D01*
X168613667Y-111633000D01*
X168581452Y-111591897D01*
X168571333Y-111590667D01*
X168539234Y-111626817D01*
X168529000Y-111694001D01*
X168544609Y-111783638D01*
X168571333Y-111823500D01*
X168597979Y-111816444D01*
X168670111Y-111816444D01*
X168675922Y-111841611D01*
X168698333Y-111844667D01*
X168733178Y-111829177D01*
X168726555Y-111816444D01*
X168676316Y-111811378D01*
X168670111Y-111816444D01*
X168597979Y-111816444D01*
X168607575Y-111813903D01*
X168613667Y-111783665D01*
X168646886Y-111734228D01*
X168718671Y-111717512D01*
X168787212Y-111739625D01*
X168801805Y-111756180D01*
X168812118Y-111835585D01*
X168766322Y-111899935D01*
X168689135Y-111914660D01*
X168688599Y-111914521D01*
X168632544Y-111904568D01*
X168642407Y-111932042D01*
X168673270Y-111967361D01*
X168725494Y-112066875D01*
X168740667Y-112154917D01*
X168761282Y-112245439D01*
X168811222Y-112268000D01*
X168858049Y-112280472D01*
X168854652Y-112295126D01*
X168801636Y-112309314D01*
X168688044Y-112320876D01*
X168537970Y-112327400D01*
X168530732Y-112327537D01*
X168351920Y-112324644D01*
X168233221Y-112305341D01*
X168150949Y-112265280D01*
X168138052Y-112255425D01*
X168042167Y-112178026D01*
X168137417Y-112204699D01*
X168211659Y-112210131D01*
X168220713Y-112189017D01*
X168275000Y-112189017D01*
X168288054Y-112236698D01*
X168340707Y-112260450D01*
X168453190Y-112267825D01*
X168486667Y-112268000D01*
X168607410Y-112260385D01*
X168684049Y-112240916D01*
X168698333Y-112225667D01*
X168673757Y-112183003D01*
X168666583Y-112181490D01*
X168608526Y-112172908D01*
X168500789Y-112153578D01*
X168454917Y-112144840D01*
X168342301Y-112127251D01*
X168289735Y-112136099D01*
X168275257Y-112176776D01*
X168275000Y-112189017D01*
X168220713Y-112189017D01*
X168232665Y-112161146D01*
X168232667Y-112160490D01*
X168211694Y-112111286D01*
X168158583Y-112120107D01*
X168039147Y-112164662D01*
X167973718Y-112163957D01*
X167943205Y-112105159D01*
X167928519Y-111975432D01*
X167927706Y-111964885D01*
X167927076Y-111927079D01*
X167996546Y-111927079D01*
X168006783Y-112006541D01*
X168048576Y-112077406D01*
X168093526Y-112079894D01*
X168172608Y-112058388D01*
X168193796Y-112056333D01*
X168220860Y-112019469D01*
X168232649Y-111930378D01*
X168232667Y-111926480D01*
X168228806Y-111881457D01*
X168279734Y-111881457D01*
X168282771Y-111917628D01*
X168308533Y-111999500D01*
X168377705Y-112052241D01*
X168465500Y-112083708D01*
X168598924Y-112121967D01*
X168666129Y-112133135D01*
X168681523Y-112115957D01*
X168659515Y-112069176D01*
X168658203Y-112066917D01*
X168550453Y-111917569D01*
X168439279Y-111825576D01*
X168360652Y-111802333D01*
X168295356Y-111818080D01*
X168279734Y-111881457D01*
X168228806Y-111881457D01*
X168225094Y-111838190D01*
X168189877Y-111814200D01*
X168137417Y-111825405D01*
X168033067Y-111868732D01*
X167996546Y-111927079D01*
X167927076Y-111927079D01*
X167925096Y-111808438D01*
X167928408Y-111771707D01*
X167990376Y-111771707D01*
X168016907Y-111792724D01*
X168072262Y-111779786D01*
X168164847Y-111742012D01*
X168208383Y-111713909D01*
X168213301Y-111657795D01*
X168169167Y-111590667D01*
X168101630Y-111535828D01*
X168053256Y-111552572D01*
X168014493Y-111646591D01*
X168003644Y-111689294D01*
X167990376Y-111771707D01*
X167928408Y-111771707D01*
X167937978Y-111665606D01*
X167949900Y-111611833D01*
X167990159Y-111516739D01*
X168054293Y-111399440D01*
X168130046Y-111278173D01*
X168205163Y-111171174D01*
X168267388Y-111096678D01*
X168304465Y-111072923D01*
X168308703Y-111077943D01*
G37*
X168308703Y-111077943D02*
X168294076Y-111135930D01*
X168239811Y-111229815D01*
X168208883Y-111272835D01*
X168140225Y-111367939D01*
X168119495Y-111425548D01*
X168142032Y-111474519D01*
X168170906Y-111507922D01*
X168245181Y-111563077D01*
X168290933Y-111549333D01*
X168354496Y-111506354D01*
X168380336Y-111520603D01*
X168348518Y-111579528D01*
X168345061Y-111583417D01*
X168285324Y-111660899D01*
X168291570Y-111703448D01*
X168358810Y-111729709D01*
X168408615Y-111734149D01*
X168432620Y-111700693D01*
X168438851Y-111610465D01*
X168437935Y-111543634D01*
X168436164Y-111506000D01*
X168529000Y-111506000D01*
X168544489Y-111540845D01*
X168557222Y-111534222D01*
X168560068Y-111506000D01*
X168656000Y-111506000D01*
X168688214Y-111547103D01*
X168698333Y-111548333D01*
X168739436Y-111516119D01*
X168740667Y-111506000D01*
X168708452Y-111464897D01*
X168698333Y-111463667D01*
X168657230Y-111495881D01*
X168656000Y-111506000D01*
X168560068Y-111506000D01*
X168562289Y-111483982D01*
X168557222Y-111477778D01*
X168532055Y-111483589D01*
X168529000Y-111506000D01*
X168436164Y-111506000D01*
X168432332Y-111424606D01*
X168419193Y-111377981D01*
X168393257Y-111391525D01*
X168379872Y-111408640D01*
X168326605Y-111457060D01*
X168268278Y-111433186D01*
X168260930Y-111427223D01*
X168213063Y-111352060D01*
X168213495Y-111350778D01*
X168289111Y-111350778D01*
X168294922Y-111375945D01*
X168317333Y-111379000D01*
X168352178Y-111363511D01*
X168345555Y-111350778D01*
X168295316Y-111345711D01*
X168289111Y-111350778D01*
X168213495Y-111350778D01*
X168234265Y-111289210D01*
X168310203Y-111265580D01*
X168344237Y-111270824D01*
X168422831Y-111274879D01*
X168444333Y-111231640D01*
X168466942Y-111174788D01*
X168486667Y-111167333D01*
X168517999Y-111203697D01*
X168529000Y-111277756D01*
X168539723Y-111355969D01*
X168589139Y-111370991D01*
X168634833Y-111361616D01*
X168715101Y-111355656D01*
X168740667Y-111378193D01*
X168775136Y-111415991D01*
X168807019Y-111421333D01*
X168852190Y-111442460D01*
X168843647Y-111516583D01*
X168801249Y-111604761D01*
X168766711Y-111642935D01*
X168686489Y-111672733D01*
X168626041Y-111660111D01*
X168613667Y-111633000D01*
X168581452Y-111591897D01*
X168571333Y-111590667D01*
X168539234Y-111626817D01*
X168529000Y-111694001D01*
X168544609Y-111783638D01*
X168571333Y-111823500D01*
X168597979Y-111816444D01*
X168670111Y-111816444D01*
X168675922Y-111841611D01*
X168698333Y-111844667D01*
X168733178Y-111829177D01*
X168726555Y-111816444D01*
X168676316Y-111811378D01*
X168670111Y-111816444D01*
X168597979Y-111816444D01*
X168607575Y-111813903D01*
X168613667Y-111783665D01*
X168646886Y-111734228D01*
X168718671Y-111717512D01*
X168787212Y-111739625D01*
X168801805Y-111756180D01*
X168812118Y-111835585D01*
X168766322Y-111899935D01*
X168689135Y-111914660D01*
X168688599Y-111914521D01*
X168632544Y-111904568D01*
X168642407Y-111932042D01*
X168673270Y-111967361D01*
X168725494Y-112066875D01*
X168740667Y-112154917D01*
X168761282Y-112245439D01*
X168811222Y-112268000D01*
X168858049Y-112280472D01*
X168854652Y-112295126D01*
X168801636Y-112309314D01*
X168688044Y-112320876D01*
X168537970Y-112327400D01*
X168530732Y-112327537D01*
X168351920Y-112324644D01*
X168233221Y-112305341D01*
X168150949Y-112265280D01*
X168138052Y-112255425D01*
X168042167Y-112178026D01*
X168137417Y-112204699D01*
X168211659Y-112210131D01*
X168220713Y-112189017D01*
X168275000Y-112189017D01*
X168288054Y-112236698D01*
X168340707Y-112260450D01*
X168453190Y-112267825D01*
X168486667Y-112268000D01*
X168607410Y-112260385D01*
X168684049Y-112240916D01*
X168698333Y-112225667D01*
X168673757Y-112183003D01*
X168666583Y-112181490D01*
X168608526Y-112172908D01*
X168500789Y-112153578D01*
X168454917Y-112144840D01*
X168342301Y-112127251D01*
X168289735Y-112136099D01*
X168275257Y-112176776D01*
X168275000Y-112189017D01*
X168220713Y-112189017D01*
X168232665Y-112161146D01*
X168232667Y-112160490D01*
X168211694Y-112111286D01*
X168158583Y-112120107D01*
X168039147Y-112164662D01*
X167973718Y-112163957D01*
X167943205Y-112105159D01*
X167928519Y-111975432D01*
X167927706Y-111964885D01*
X167927076Y-111927079D01*
X167996546Y-111927079D01*
X168006783Y-112006541D01*
X168048576Y-112077406D01*
X168093526Y-112079894D01*
X168172608Y-112058388D01*
X168193796Y-112056333D01*
X168220860Y-112019469D01*
X168232649Y-111930378D01*
X168232667Y-111926480D01*
X168228806Y-111881457D01*
X168279734Y-111881457D01*
X168282771Y-111917628D01*
X168308533Y-111999500D01*
X168377705Y-112052241D01*
X168465500Y-112083708D01*
X168598924Y-112121967D01*
X168666129Y-112133135D01*
X168681523Y-112115957D01*
X168659515Y-112069176D01*
X168658203Y-112066917D01*
X168550453Y-111917569D01*
X168439279Y-111825576D01*
X168360652Y-111802333D01*
X168295356Y-111818080D01*
X168279734Y-111881457D01*
X168228806Y-111881457D01*
X168225094Y-111838190D01*
X168189877Y-111814200D01*
X168137417Y-111825405D01*
X168033067Y-111868732D01*
X167996546Y-111927079D01*
X167927076Y-111927079D01*
X167925096Y-111808438D01*
X167928408Y-111771707D01*
X167990376Y-111771707D01*
X168016907Y-111792724D01*
X168072262Y-111779786D01*
X168164847Y-111742012D01*
X168208383Y-111713909D01*
X168213301Y-111657795D01*
X168169167Y-111590667D01*
X168101630Y-111535828D01*
X168053256Y-111552572D01*
X168014493Y-111646591D01*
X168003644Y-111689294D01*
X167990376Y-111771707D01*
X167928408Y-111771707D01*
X167937978Y-111665606D01*
X167949900Y-111611833D01*
X167990159Y-111516739D01*
X168054293Y-111399440D01*
X168130046Y-111278173D01*
X168205163Y-111171174D01*
X168267388Y-111096678D01*
X168304465Y-111072923D01*
X168308703Y-111077943D01*
G36*
X164993634Y-111957055D02*
G01*
X165142516Y-112011914D01*
X165254093Y-112062173D01*
X165309040Y-112098844D01*
X165311667Y-112104990D01*
X165284728Y-112124958D01*
X165262792Y-112115791D01*
X165233893Y-112110717D01*
X165244762Y-112135492D01*
X165258452Y-112209910D01*
X165247940Y-112311366D01*
X165229248Y-112374469D01*
X165196479Y-112413308D01*
X165134539Y-112430053D01*
X165028332Y-112426875D01*
X164862767Y-112405944D01*
X164729583Y-112385910D01*
X164668325Y-112373833D01*
X165142333Y-112373833D01*
X165163500Y-112395000D01*
X165184667Y-112373833D01*
X165163500Y-112352667D01*
X165142333Y-112373833D01*
X164668325Y-112373833D01*
X164592898Y-112358963D01*
X164497328Y-112328747D01*
X164465000Y-112304139D01*
X164491089Y-112282172D01*
X164506848Y-112288867D01*
X164531366Y-112282220D01*
X164525061Y-112253136D01*
X164528753Y-112180285D01*
X164565848Y-112069296D01*
X164588513Y-112020834D01*
X164635193Y-111929333D01*
X164676667Y-111929333D01*
X164692156Y-111964178D01*
X164704889Y-111957555D01*
X164709955Y-111907316D01*
X164704889Y-111901111D01*
X164679722Y-111906922D01*
X164676667Y-111929333D01*
X164635193Y-111929333D01*
X164675602Y-111850126D01*
X164993634Y-111957055D01*
G37*
X164993634Y-111957055D02*
X165142516Y-112011914D01*
X165254093Y-112062173D01*
X165309040Y-112098844D01*
X165311667Y-112104990D01*
X165284728Y-112124958D01*
X165262792Y-112115791D01*
X165233893Y-112110717D01*
X165244762Y-112135492D01*
X165258452Y-112209910D01*
X165247940Y-112311366D01*
X165229248Y-112374469D01*
X165196479Y-112413308D01*
X165134539Y-112430053D01*
X165028332Y-112426875D01*
X164862767Y-112405944D01*
X164729583Y-112385910D01*
X164668325Y-112373833D01*
X165142333Y-112373833D01*
X165163500Y-112395000D01*
X165184667Y-112373833D01*
X165163500Y-112352667D01*
X165142333Y-112373833D01*
X164668325Y-112373833D01*
X164592898Y-112358963D01*
X164497328Y-112328747D01*
X164465000Y-112304139D01*
X164491089Y-112282172D01*
X164506848Y-112288867D01*
X164531366Y-112282220D01*
X164525061Y-112253136D01*
X164528753Y-112180285D01*
X164565848Y-112069296D01*
X164588513Y-112020834D01*
X164635193Y-111929333D01*
X164676667Y-111929333D01*
X164692156Y-111964178D01*
X164704889Y-111957555D01*
X164709955Y-111907316D01*
X164704889Y-111901111D01*
X164679722Y-111906922D01*
X164676667Y-111929333D01*
X164635193Y-111929333D01*
X164675602Y-111850126D01*
X164993634Y-111957055D01*
G36*
X165959101Y-112334007D02*
G01*
X166006365Y-112389521D01*
X166003500Y-112430253D01*
X165992609Y-112476220D01*
X166018426Y-112447735D01*
X166025577Y-112437687D01*
X166078997Y-112401953D01*
X166127483Y-112446748D01*
X166167196Y-112567939D01*
X166172843Y-112596083D01*
X166183577Y-112689904D01*
X166158805Y-112726552D01*
X166104358Y-112730983D01*
X165985713Y-112712337D01*
X165917218Y-112690866D01*
X165857418Y-112653699D01*
X165848041Y-112620778D01*
X165960778Y-112620778D01*
X165966589Y-112645945D01*
X165989000Y-112649000D01*
X166023845Y-112633511D01*
X166017222Y-112620778D01*
X165966982Y-112615711D01*
X165960778Y-112620778D01*
X165848041Y-112620778D01*
X165839296Y-112590080D01*
X165849127Y-112492466D01*
X165868241Y-112376619D01*
X165886698Y-112325255D01*
X165917711Y-112319334D01*
X165959101Y-112334007D01*
G37*
X165959101Y-112334007D02*
X166006365Y-112389521D01*
X166003500Y-112430253D01*
X165992609Y-112476220D01*
X166018426Y-112447735D01*
X166025577Y-112437687D01*
X166078997Y-112401953D01*
X166127483Y-112446748D01*
X166167196Y-112567939D01*
X166172843Y-112596083D01*
X166183577Y-112689904D01*
X166158805Y-112726552D01*
X166104358Y-112730983D01*
X165985713Y-112712337D01*
X165917218Y-112690866D01*
X165857418Y-112653699D01*
X165848041Y-112620778D01*
X165960778Y-112620778D01*
X165966589Y-112645945D01*
X165989000Y-112649000D01*
X166023845Y-112633511D01*
X166017222Y-112620778D01*
X165966982Y-112615711D01*
X165960778Y-112620778D01*
X165848041Y-112620778D01*
X165839296Y-112590080D01*
X165849127Y-112492466D01*
X165868241Y-112376619D01*
X165886698Y-112325255D01*
X165917711Y-112319334D01*
X165959101Y-112334007D01*
G36*
X165451349Y-112324776D02*
G01*
X165466622Y-112330235D01*
X165593049Y-112374841D01*
X165697823Y-112410458D01*
X165712647Y-112415264D01*
X165767837Y-112441871D01*
X165745786Y-112473423D01*
X165733813Y-112481296D01*
X165699906Y-112514200D01*
X165724417Y-112521352D01*
X165764183Y-112558038D01*
X165777333Y-112627833D01*
X165765447Y-112690534D01*
X165720169Y-112723261D01*
X165627075Y-112728608D01*
X165471737Y-112709169D01*
X165396333Y-112696344D01*
X165313273Y-112670167D01*
X165692667Y-112670167D01*
X165713833Y-112691333D01*
X165735000Y-112670167D01*
X165713833Y-112649000D01*
X165692667Y-112670167D01*
X165313273Y-112670167D01*
X165299806Y-112665923D01*
X165253228Y-112624791D01*
X165252400Y-112617250D01*
X165258061Y-112535686D01*
X165262983Y-112456001D01*
X165281046Y-112384984D01*
X165311182Y-112373533D01*
X165335447Y-112366803D01*
X165328554Y-112335614D01*
X165322499Y-112298577D01*
X165357570Y-112295193D01*
X165451349Y-112324776D01*
G37*
X165451349Y-112324776D02*
X165466622Y-112330235D01*
X165593049Y-112374841D01*
X165697823Y-112410458D01*
X165712647Y-112415264D01*
X165767837Y-112441871D01*
X165745786Y-112473423D01*
X165733813Y-112481296D01*
X165699906Y-112514200D01*
X165724417Y-112521352D01*
X165764183Y-112558038D01*
X165777333Y-112627833D01*
X165765447Y-112690534D01*
X165720169Y-112723261D01*
X165627075Y-112728608D01*
X165471737Y-112709169D01*
X165396333Y-112696344D01*
X165313273Y-112670167D01*
X165692667Y-112670167D01*
X165713833Y-112691333D01*
X165735000Y-112670167D01*
X165713833Y-112649000D01*
X165692667Y-112670167D01*
X165313273Y-112670167D01*
X165299806Y-112665923D01*
X165253228Y-112624791D01*
X165252400Y-112617250D01*
X165258061Y-112535686D01*
X165262983Y-112456001D01*
X165281046Y-112384984D01*
X165311182Y-112373533D01*
X165335447Y-112366803D01*
X165328554Y-112335614D01*
X165322499Y-112298577D01*
X165357570Y-112295193D01*
X165451349Y-112324776D01*
G36*
X166423671Y-112630090D02*
G01*
X166488308Y-112685907D01*
X166497000Y-112717029D01*
X166465483Y-112766650D01*
X166377591Y-112761745D01*
X166338250Y-112747963D01*
X166295505Y-112702556D01*
X166294036Y-112691333D01*
X166370000Y-112691333D01*
X166385489Y-112726178D01*
X166398222Y-112719555D01*
X166403289Y-112669316D01*
X166398222Y-112663111D01*
X166373055Y-112668922D01*
X166370000Y-112691333D01*
X166294036Y-112691333D01*
X166287527Y-112641641D01*
X166318476Y-112607065D01*
X166324204Y-112606667D01*
X166423671Y-112630090D01*
G37*
X166423671Y-112630090D02*
X166488308Y-112685907D01*
X166497000Y-112717029D01*
X166465483Y-112766650D01*
X166377591Y-112761745D01*
X166338250Y-112747963D01*
X166295505Y-112702556D01*
X166294036Y-112691333D01*
X166370000Y-112691333D01*
X166385489Y-112726178D01*
X166398222Y-112719555D01*
X166403289Y-112669316D01*
X166398222Y-112663111D01*
X166373055Y-112668922D01*
X166370000Y-112691333D01*
X166294036Y-112691333D01*
X166287527Y-112641641D01*
X166318476Y-112607065D01*
X166324204Y-112606667D01*
X166423671Y-112630090D01*
G36*
X166473383Y-112847967D02*
G01*
X166552698Y-112941700D01*
X166577970Y-112999111D01*
X166601961Y-113080056D01*
X166574911Y-113110291D01*
X166494904Y-113114667D01*
X166390588Y-113094329D01*
X166332059Y-113019624D01*
X166326619Y-113006077D01*
X166320860Y-112987667D01*
X166412333Y-112987667D01*
X166427822Y-113022512D01*
X166440555Y-113015889D01*
X166445622Y-112965649D01*
X166440555Y-112959444D01*
X166415388Y-112965255D01*
X166412333Y-112987667D01*
X166320860Y-112987667D01*
X166290859Y-112891765D01*
X166298594Y-112834998D01*
X166352766Y-112819001D01*
X166359417Y-112818981D01*
X166473383Y-112847967D01*
G37*
X166473383Y-112847967D02*
X166552698Y-112941700D01*
X166577970Y-112999111D01*
X166601961Y-113080056D01*
X166574911Y-113110291D01*
X166494904Y-113114667D01*
X166390588Y-113094329D01*
X166332059Y-113019624D01*
X166326619Y-113006077D01*
X166320860Y-112987667D01*
X166412333Y-112987667D01*
X166427822Y-113022512D01*
X166440555Y-113015889D01*
X166445622Y-112965649D01*
X166440555Y-112959444D01*
X166415388Y-112965255D01*
X166412333Y-112987667D01*
X166320860Y-112987667D01*
X166290859Y-112891765D01*
X166298594Y-112834998D01*
X166352766Y-112819001D01*
X166359417Y-112818981D01*
X166473383Y-112847967D01*
G36*
X166495770Y-113189214D02*
G01*
X166497000Y-113199333D01*
X166464785Y-113240436D01*
X166454667Y-113241667D01*
X166413563Y-113209452D01*
X166412333Y-113199333D01*
X166444548Y-113158230D01*
X166454667Y-113157000D01*
X166495770Y-113189214D01*
G37*
X166495770Y-113189214D02*
X166497000Y-113199333D01*
X166464785Y-113240436D01*
X166454667Y-113241667D01*
X166413563Y-113209452D01*
X166412333Y-113199333D01*
X166444548Y-113158230D01*
X166454667Y-113157000D01*
X166495770Y-113189214D01*
G36*
X165455225Y-112757582D02*
G01*
X165614574Y-112778160D01*
X165708628Y-112803075D01*
X165756181Y-112846527D01*
X165776031Y-112922717D01*
X165783716Y-113005775D01*
X165799110Y-113199333D01*
X165580017Y-113199333D01*
X165441714Y-113203792D01*
X165332979Y-113215156D01*
X165298244Y-113223386D01*
X165230340Y-113223950D01*
X165211387Y-113208320D01*
X165202250Y-113146754D01*
X165202548Y-113135833D01*
X165269333Y-113135833D01*
X165290500Y-113157000D01*
X165311667Y-113135833D01*
X165692667Y-113135833D01*
X165713833Y-113157000D01*
X165735000Y-113135833D01*
X165713833Y-113114667D01*
X165692667Y-113135833D01*
X165311667Y-113135833D01*
X165290500Y-113114667D01*
X165269333Y-113135833D01*
X165202548Y-113135833D01*
X165205386Y-113032201D01*
X165213081Y-112950768D01*
X165221244Y-112881833D01*
X165692667Y-112881833D01*
X165713833Y-112903000D01*
X165735000Y-112881833D01*
X165713833Y-112860667D01*
X165692667Y-112881833D01*
X165221244Y-112881833D01*
X165231272Y-112797167D01*
X165269333Y-112797167D01*
X165290500Y-112818333D01*
X165311667Y-112797167D01*
X165290500Y-112776000D01*
X165269333Y-112797167D01*
X165231272Y-112797167D01*
X165238951Y-112732336D01*
X165455225Y-112757582D01*
G37*
X165455225Y-112757582D02*
X165614574Y-112778160D01*
X165708628Y-112803075D01*
X165756181Y-112846527D01*
X165776031Y-112922717D01*
X165783716Y-113005775D01*
X165799110Y-113199333D01*
X165580017Y-113199333D01*
X165441714Y-113203792D01*
X165332979Y-113215156D01*
X165298244Y-113223386D01*
X165230340Y-113223950D01*
X165211387Y-113208320D01*
X165202250Y-113146754D01*
X165202548Y-113135833D01*
X165269333Y-113135833D01*
X165290500Y-113157000D01*
X165311667Y-113135833D01*
X165692667Y-113135833D01*
X165713833Y-113157000D01*
X165735000Y-113135833D01*
X165713833Y-113114667D01*
X165692667Y-113135833D01*
X165311667Y-113135833D01*
X165290500Y-113114667D01*
X165269333Y-113135833D01*
X165202548Y-113135833D01*
X165205386Y-113032201D01*
X165213081Y-112950768D01*
X165221244Y-112881833D01*
X165692667Y-112881833D01*
X165713833Y-112903000D01*
X165735000Y-112881833D01*
X165713833Y-112860667D01*
X165692667Y-112881833D01*
X165221244Y-112881833D01*
X165231272Y-112797167D01*
X165269333Y-112797167D01*
X165290500Y-112818333D01*
X165311667Y-112797167D01*
X165290500Y-112776000D01*
X165269333Y-112797167D01*
X165231272Y-112797167D01*
X165238951Y-112732336D01*
X165455225Y-112757582D01*
G36*
X165890477Y-112765257D02*
G01*
X165888776Y-112786583D01*
X165887082Y-112816318D01*
X165893632Y-112807750D01*
X165948288Y-112781784D01*
X166041268Y-112779566D01*
X166129684Y-112800902D01*
X166144476Y-112808873D01*
X166183818Y-112862929D01*
X166236073Y-112969563D01*
X166289071Y-113100491D01*
X166330640Y-113227425D01*
X166339369Y-113261828D01*
X166310277Y-113297883D01*
X166200630Y-113308855D01*
X166025588Y-113296496D01*
X165918997Y-113274289D01*
X165907348Y-113262833D01*
X166243000Y-113262833D01*
X166264167Y-113284000D01*
X166285333Y-113262833D01*
X166264167Y-113241667D01*
X166243000Y-113262833D01*
X165907348Y-113262833D01*
X165867079Y-113223232D01*
X165866287Y-113220500D01*
X165904333Y-113220500D01*
X165925500Y-113241667D01*
X165946667Y-113220500D01*
X165925500Y-113199333D01*
X165904333Y-113220500D01*
X165866287Y-113220500D01*
X165845671Y-113149441D01*
X165824914Y-113001000D01*
X165821608Y-112881833D01*
X166116000Y-112881833D01*
X166137167Y-112903000D01*
X166158333Y-112881833D01*
X166137167Y-112860667D01*
X166116000Y-112881833D01*
X165821608Y-112881833D01*
X165821188Y-112866721D01*
X165833655Y-112769863D01*
X165860671Y-112733667D01*
X165890477Y-112765257D01*
G37*
X165890477Y-112765257D02*
X165888776Y-112786583D01*
X165887082Y-112816318D01*
X165893632Y-112807750D01*
X165948288Y-112781784D01*
X166041268Y-112779566D01*
X166129684Y-112800902D01*
X166144476Y-112808873D01*
X166183818Y-112862929D01*
X166236073Y-112969563D01*
X166289071Y-113100491D01*
X166330640Y-113227425D01*
X166339369Y-113261828D01*
X166310277Y-113297883D01*
X166200630Y-113308855D01*
X166025588Y-113296496D01*
X165918997Y-113274289D01*
X165907348Y-113262833D01*
X166243000Y-113262833D01*
X166264167Y-113284000D01*
X166285333Y-113262833D01*
X166264167Y-113241667D01*
X166243000Y-113262833D01*
X165907348Y-113262833D01*
X165867079Y-113223232D01*
X165866287Y-113220500D01*
X165904333Y-113220500D01*
X165925500Y-113241667D01*
X165946667Y-113220500D01*
X165925500Y-113199333D01*
X165904333Y-113220500D01*
X165866287Y-113220500D01*
X165845671Y-113149441D01*
X165824914Y-113001000D01*
X165821608Y-112881833D01*
X166116000Y-112881833D01*
X166137167Y-112903000D01*
X166158333Y-112881833D01*
X166137167Y-112860667D01*
X166116000Y-112881833D01*
X165821608Y-112881833D01*
X165821188Y-112866721D01*
X165833655Y-112769863D01*
X165860671Y-112733667D01*
X165890477Y-112765257D01*
G36*
X166660044Y-113229392D02*
G01*
X166732025Y-113302353D01*
X166799398Y-113392393D01*
X166842623Y-113473691D01*
X166844419Y-113518395D01*
X166844156Y-113532591D01*
X166864491Y-113522930D01*
X166925639Y-113522136D01*
X166941073Y-113537309D01*
X166922582Y-113565872D01*
X166831713Y-113579607D01*
X166795209Y-113580333D01*
X166674326Y-113570024D01*
X166598488Y-113525466D01*
X166587174Y-113509778D01*
X166638111Y-113509778D01*
X166643922Y-113534945D01*
X166666333Y-113538000D01*
X166701178Y-113522511D01*
X166694555Y-113509778D01*
X166644316Y-113504711D01*
X166638111Y-113509778D01*
X166587174Y-113509778D01*
X166540450Y-113444992D01*
X166493295Y-113325389D01*
X166504933Y-113262833D01*
X166624000Y-113262833D01*
X166645167Y-113284000D01*
X166666333Y-113262833D01*
X166645167Y-113241667D01*
X166624000Y-113262833D01*
X166504933Y-113262833D01*
X166509358Y-113239052D01*
X166585021Y-113200195D01*
X166602992Y-113199333D01*
X166660044Y-113229392D01*
G37*
X166660044Y-113229392D02*
X166732025Y-113302353D01*
X166799398Y-113392393D01*
X166842623Y-113473691D01*
X166844419Y-113518395D01*
X166844156Y-113532591D01*
X166864491Y-113522930D01*
X166925639Y-113522136D01*
X166941073Y-113537309D01*
X166922582Y-113565872D01*
X166831713Y-113579607D01*
X166795209Y-113580333D01*
X166674326Y-113570024D01*
X166598488Y-113525466D01*
X166587174Y-113509778D01*
X166638111Y-113509778D01*
X166643922Y-113534945D01*
X166666333Y-113538000D01*
X166701178Y-113522511D01*
X166694555Y-113509778D01*
X166644316Y-113504711D01*
X166638111Y-113509778D01*
X166587174Y-113509778D01*
X166540450Y-113444992D01*
X166493295Y-113325389D01*
X166504933Y-113262833D01*
X166624000Y-113262833D01*
X166645167Y-113284000D01*
X166666333Y-113262833D01*
X166645167Y-113241667D01*
X166624000Y-113262833D01*
X166504933Y-113262833D01*
X166509358Y-113239052D01*
X166585021Y-113200195D01*
X166602992Y-113199333D01*
X166660044Y-113229392D01*
G36*
X177121153Y-112745122D02*
G01*
X177230561Y-112784216D01*
X177282785Y-112858043D01*
X177292000Y-112932633D01*
X177276385Y-113002687D01*
X177213155Y-113028102D01*
X177165000Y-113030000D01*
X177075808Y-113019162D01*
X177038009Y-112993051D01*
X177038000Y-112992604D01*
X177002440Y-112952079D01*
X176922484Y-112928742D01*
X176838215Y-112934156D01*
X176836917Y-112934584D01*
X176788343Y-112982982D01*
X176799925Y-113048952D01*
X176850962Y-113088971D01*
X176939203Y-113107036D01*
X177058221Y-113114665D01*
X177059605Y-113114667D01*
X177178173Y-113133879D01*
X177266792Y-113180189D01*
X177267809Y-113181190D01*
X177316287Y-113275784D01*
X177332973Y-113405863D01*
X177317828Y-113533958D01*
X177270814Y-113622599D01*
X177268267Y-113624796D01*
X177171174Y-113667054D01*
X177024974Y-113691068D01*
X176863594Y-113695148D01*
X176720959Y-113677605D01*
X176657000Y-113655225D01*
X176563185Y-113562995D01*
X176537771Y-113484102D01*
X176538583Y-113402339D01*
X176583778Y-113372210D01*
X176649659Y-113368667D01*
X176754359Y-113390293D01*
X176800397Y-113435002D01*
X176856036Y-113481060D01*
X176945689Y-113487877D01*
X177030653Y-113459576D01*
X177071390Y-113406136D01*
X177059853Y-113362183D01*
X176994710Y-113331911D01*
X176861144Y-113308164D01*
X176693072Y-113277550D01*
X176592994Y-113230625D01*
X176544244Y-113152139D01*
X176530155Y-113026840D01*
X176530000Y-113005139D01*
X176542513Y-112878419D01*
X176589512Y-112797428D01*
X176685185Y-112752819D01*
X176843722Y-112735246D01*
X176942083Y-112733667D01*
X177121153Y-112745122D01*
G37*
X177121153Y-112745122D02*
X177230561Y-112784216D01*
X177282785Y-112858043D01*
X177292000Y-112932633D01*
X177276385Y-113002687D01*
X177213155Y-113028102D01*
X177165000Y-113030000D01*
X177075808Y-113019162D01*
X177038009Y-112993051D01*
X177038000Y-112992604D01*
X177002440Y-112952079D01*
X176922484Y-112928742D01*
X176838215Y-112934156D01*
X176836917Y-112934584D01*
X176788343Y-112982982D01*
X176799925Y-113048952D01*
X176850962Y-113088971D01*
X176939203Y-113107036D01*
X177058221Y-113114665D01*
X177059605Y-113114667D01*
X177178173Y-113133879D01*
X177266792Y-113180189D01*
X177267809Y-113181190D01*
X177316287Y-113275784D01*
X177332973Y-113405863D01*
X177317828Y-113533958D01*
X177270814Y-113622599D01*
X177268267Y-113624796D01*
X177171174Y-113667054D01*
X177024974Y-113691068D01*
X176863594Y-113695148D01*
X176720959Y-113677605D01*
X176657000Y-113655225D01*
X176563185Y-113562995D01*
X176537771Y-113484102D01*
X176538583Y-113402339D01*
X176583778Y-113372210D01*
X176649659Y-113368667D01*
X176754359Y-113390293D01*
X176800397Y-113435002D01*
X176856036Y-113481060D01*
X176945689Y-113487877D01*
X177030653Y-113459576D01*
X177071390Y-113406136D01*
X177059853Y-113362183D01*
X176994710Y-113331911D01*
X176861144Y-113308164D01*
X176693072Y-113277550D01*
X176592994Y-113230625D01*
X176544244Y-113152139D01*
X176530155Y-113026840D01*
X176530000Y-113005139D01*
X176542513Y-112878419D01*
X176589512Y-112797428D01*
X176685185Y-112752819D01*
X176843722Y-112735246D01*
X176942083Y-112733667D01*
X177121153Y-112745122D01*
G36*
X175810981Y-113040583D02*
G01*
X175816549Y-113235664D01*
X175836529Y-113359816D01*
X175877327Y-113426399D01*
X175945348Y-113448772D01*
X176005427Y-113446140D01*
X176127833Y-113432167D01*
X176140129Y-113082917D01*
X176152424Y-112733667D01*
X176403000Y-112733667D01*
X176403000Y-113129272D01*
X176400655Y-113321395D01*
X176391339Y-113448093D01*
X176371629Y-113528534D01*
X176338104Y-113581883D01*
X176318762Y-113601112D01*
X176214765Y-113654244D01*
X176063508Y-113687087D01*
X175900830Y-113695565D01*
X175762572Y-113675606D01*
X175739017Y-113667006D01*
X175656234Y-113613684D01*
X175601582Y-113527912D01*
X175570239Y-113394623D01*
X175557381Y-113198753D01*
X175556333Y-113096283D01*
X175556333Y-112733667D01*
X175810333Y-112733667D01*
X175810981Y-113040583D01*
G37*
X175810981Y-113040583D02*
X175816549Y-113235664D01*
X175836529Y-113359816D01*
X175877327Y-113426399D01*
X175945348Y-113448772D01*
X176005427Y-113446140D01*
X176127833Y-113432167D01*
X176140129Y-113082917D01*
X176152424Y-112733667D01*
X176403000Y-112733667D01*
X176403000Y-113129272D01*
X176400655Y-113321395D01*
X176391339Y-113448093D01*
X176371629Y-113528534D01*
X176338104Y-113581883D01*
X176318762Y-113601112D01*
X176214765Y-113654244D01*
X176063508Y-113687087D01*
X175900830Y-113695565D01*
X175762572Y-113675606D01*
X175739017Y-113667006D01*
X175656234Y-113613684D01*
X175601582Y-113527912D01*
X175570239Y-113394623D01*
X175557381Y-113198753D01*
X175556333Y-113096283D01*
X175556333Y-112733667D01*
X175810333Y-112733667D01*
X175810981Y-113040583D01*
G36*
X175090667Y-113453333D02*
G01*
X175281167Y-113453333D01*
X175398308Y-113457015D01*
X175453790Y-113478271D01*
X175470590Y-113532421D01*
X175471667Y-113580333D01*
X175471667Y-113707333D01*
X174836667Y-113707333D01*
X174836667Y-112733667D01*
X175090667Y-112733667D01*
X175090667Y-113453333D01*
G37*
X175090667Y-113453333D02*
X175281167Y-113453333D01*
X175398308Y-113457015D01*
X175453790Y-113478271D01*
X175470590Y-113532421D01*
X175471667Y-113580333D01*
X175471667Y-113707333D01*
X174836667Y-113707333D01*
X174836667Y-112733667D01*
X175090667Y-112733667D01*
X175090667Y-113453333D01*
G36*
X174618182Y-113188988D02*
G01*
X174671841Y-113374226D01*
X174715243Y-113529117D01*
X174743511Y-113635921D01*
X174752000Y-113675822D01*
X174719876Y-113707630D01*
X174644821Y-113706413D01*
X174558807Y-113678611D01*
X174493808Y-113630667D01*
X174488175Y-113622667D01*
X174410611Y-113557750D01*
X174277639Y-113538000D01*
X174150882Y-113555207D01*
X174080146Y-113613132D01*
X174074667Y-113622667D01*
X174012062Y-113682877D01*
X173927912Y-113707540D01*
X173853645Y-113694527D01*
X173820689Y-113641711D01*
X173820667Y-113639867D01*
X173832734Y-113572747D01*
X173865281Y-113445540D01*
X173912818Y-113278749D01*
X173917258Y-113264111D01*
X174190945Y-113264111D01*
X174197074Y-113312650D01*
X174242527Y-113325820D01*
X174274412Y-113326333D01*
X174342961Y-113317841D01*
X174362205Y-113275620D01*
X174348737Y-113188750D01*
X174314459Y-113064454D01*
X174280579Y-113024356D01*
X174245255Y-113068017D01*
X174216235Y-113157220D01*
X174190945Y-113264111D01*
X173917258Y-113264111D01*
X173950954Y-113153033D01*
X174081241Y-112733667D01*
X174484364Y-112733667D01*
X174618182Y-113188988D01*
G37*
X174618182Y-113188988D02*
X174671841Y-113374226D01*
X174715243Y-113529117D01*
X174743511Y-113635921D01*
X174752000Y-113675822D01*
X174719876Y-113707630D01*
X174644821Y-113706413D01*
X174558807Y-113678611D01*
X174493808Y-113630667D01*
X174488175Y-113622667D01*
X174410611Y-113557750D01*
X174277639Y-113538000D01*
X174150882Y-113555207D01*
X174080146Y-113613132D01*
X174074667Y-113622667D01*
X174012062Y-113682877D01*
X173927912Y-113707540D01*
X173853645Y-113694527D01*
X173820689Y-113641711D01*
X173820667Y-113639867D01*
X173832734Y-113572747D01*
X173865281Y-113445540D01*
X173912818Y-113278749D01*
X173917258Y-113264111D01*
X174190945Y-113264111D01*
X174197074Y-113312650D01*
X174242527Y-113325820D01*
X174274412Y-113326333D01*
X174342961Y-113317841D01*
X174362205Y-113275620D01*
X174348737Y-113188750D01*
X174314459Y-113064454D01*
X174280579Y-113024356D01*
X174245255Y-113068017D01*
X174216235Y-113157220D01*
X174190945Y-113264111D01*
X173917258Y-113264111D01*
X173950954Y-113153033D01*
X174081241Y-112733667D01*
X174484364Y-112733667D01*
X174618182Y-113188988D01*
G36*
X173097767Y-112740353D02*
G01*
X173133967Y-112776590D01*
X173143133Y-112866639D01*
X173143333Y-112903000D01*
X173143333Y-113072333D01*
X173482000Y-113072333D01*
X173482000Y-112903000D01*
X173486975Y-112794440D01*
X173514173Y-112746181D01*
X173582001Y-112733944D01*
X173610386Y-112733667D01*
X173738773Y-112733667D01*
X173714833Y-113686167D01*
X173598417Y-113699562D01*
X173527265Y-113702214D01*
X173493265Y-113674383D01*
X173482738Y-113594934D01*
X173482000Y-113519645D01*
X173482000Y-113326333D01*
X173143333Y-113326333D01*
X173143333Y-113516833D01*
X173138636Y-113634691D01*
X173116777Y-113690526D01*
X173066110Y-113706804D01*
X173044555Y-113707333D01*
X172955651Y-113696390D01*
X172917555Y-113679111D01*
X172906062Y-113627631D01*
X172896825Y-113510151D01*
X172890924Y-113345328D01*
X172889333Y-113192278D01*
X172889333Y-112733667D01*
X173016333Y-112733667D01*
X173097767Y-112740353D01*
G37*
X173097767Y-112740353D02*
X173133967Y-112776590D01*
X173143133Y-112866639D01*
X173143333Y-112903000D01*
X173143333Y-113072333D01*
X173482000Y-113072333D01*
X173482000Y-112903000D01*
X173486975Y-112794440D01*
X173514173Y-112746181D01*
X173582001Y-112733944D01*
X173610386Y-112733667D01*
X173738773Y-112733667D01*
X173714833Y-113686167D01*
X173598417Y-113699562D01*
X173527265Y-113702214D01*
X173493265Y-113674383D01*
X173482738Y-113594934D01*
X173482000Y-113519645D01*
X173482000Y-113326333D01*
X173143333Y-113326333D01*
X173143333Y-113516833D01*
X173138636Y-113634691D01*
X173116777Y-113690526D01*
X173066110Y-113706804D01*
X173044555Y-113707333D01*
X172955651Y-113696390D01*
X172917555Y-113679111D01*
X172906062Y-113627631D01*
X172896825Y-113510151D01*
X172890924Y-113345328D01*
X172889333Y-113192278D01*
X172889333Y-112733667D01*
X173016333Y-112733667D01*
X173097767Y-112740353D01*
G36*
X172525948Y-112745558D02*
G01*
X172670898Y-112779639D01*
X172757667Y-112852847D01*
X172797917Y-112973284D01*
X172804667Y-113085409D01*
X172787237Y-113255419D01*
X172725740Y-113362451D01*
X172606361Y-113421501D01*
X172475420Y-113442862D01*
X172346692Y-113459583D01*
X172279894Y-113486311D01*
X172252345Y-113536104D01*
X172246063Y-113574914D01*
X172214545Y-113662377D01*
X172130900Y-113697706D01*
X172116750Y-113699562D01*
X172031607Y-113698486D01*
X171997455Y-113678395D01*
X171996079Y-113624008D01*
X171994629Y-113504304D01*
X171993303Y-113338633D01*
X171992526Y-113199333D01*
X171991940Y-113072333D01*
X172254333Y-113072333D01*
X172264823Y-113162287D01*
X172314303Y-113195442D01*
X172381333Y-113199333D01*
X172471287Y-113188844D01*
X172504442Y-113139363D01*
X172508333Y-113072333D01*
X172497844Y-112982379D01*
X172448363Y-112949224D01*
X172381333Y-112945333D01*
X172291379Y-112955823D01*
X172258224Y-113005303D01*
X172254333Y-113072333D01*
X171991940Y-113072333D01*
X171990475Y-112754833D01*
X172311155Y-112742501D01*
X172525948Y-112745558D01*
G37*
X172525948Y-112745558D02*
X172670898Y-112779639D01*
X172757667Y-112852847D01*
X172797917Y-112973284D01*
X172804667Y-113085409D01*
X172787237Y-113255419D01*
X172725740Y-113362451D01*
X172606361Y-113421501D01*
X172475420Y-113442862D01*
X172346692Y-113459583D01*
X172279894Y-113486311D01*
X172252345Y-113536104D01*
X172246063Y-113574914D01*
X172214545Y-113662377D01*
X172130900Y-113697706D01*
X172116750Y-113699562D01*
X172031607Y-113698486D01*
X171997455Y-113678395D01*
X171996079Y-113624008D01*
X171994629Y-113504304D01*
X171993303Y-113338633D01*
X171992526Y-113199333D01*
X171991940Y-113072333D01*
X172254333Y-113072333D01*
X172264823Y-113162287D01*
X172314303Y-113195442D01*
X172381333Y-113199333D01*
X172471287Y-113188844D01*
X172504442Y-113139363D01*
X172508333Y-113072333D01*
X172497844Y-112982379D01*
X172448363Y-112949224D01*
X172381333Y-112945333D01*
X172291379Y-112955823D01*
X172258224Y-113005303D01*
X172254333Y-113072333D01*
X171991940Y-113072333D01*
X171990475Y-112754833D01*
X172311155Y-112742501D01*
X172525948Y-112745558D01*
G36*
X171687748Y-112734638D02*
G01*
X171794093Y-112740840D01*
X171849296Y-112757203D01*
X171870122Y-112788656D01*
X171873333Y-112839500D01*
X171867289Y-112900113D01*
X171835345Y-112931673D01*
X171756781Y-112943599D01*
X171640500Y-112945333D01*
X171505946Y-112949008D01*
X171435851Y-112964897D01*
X171410150Y-113000296D01*
X171407667Y-113030000D01*
X171418811Y-113080783D01*
X171466112Y-113106111D01*
X171570375Y-113114304D01*
X171619333Y-113114667D01*
X171746292Y-113119124D01*
X171809611Y-113138045D01*
X171830094Y-113179750D01*
X171831000Y-113199333D01*
X171819856Y-113250117D01*
X171772554Y-113275444D01*
X171668291Y-113283638D01*
X171619333Y-113284000D01*
X171492094Y-113288608D01*
X171428655Y-113307785D01*
X171408405Y-113349560D01*
X171407667Y-113366454D01*
X171420544Y-113416130D01*
X171472434Y-113444030D01*
X171583225Y-113458678D01*
X171629917Y-113461704D01*
X171759664Y-113472645D01*
X171825845Y-113493564D01*
X171849548Y-113535717D01*
X171852167Y-113580333D01*
X171847766Y-113634219D01*
X171822727Y-113666734D01*
X171759293Y-113684439D01*
X171639709Y-113693896D01*
X171532763Y-113698374D01*
X171375469Y-113700543D01*
X171252509Y-113695087D01*
X171187102Y-113683178D01*
X171183513Y-113680735D01*
X171171354Y-113628559D01*
X171161583Y-113510468D01*
X171155344Y-113345204D01*
X171153667Y-113192278D01*
X171153667Y-112733667D01*
X171513500Y-112733667D01*
X171687748Y-112734638D01*
G37*
X171687748Y-112734638D02*
X171794093Y-112740840D01*
X171849296Y-112757203D01*
X171870122Y-112788656D01*
X171873333Y-112839500D01*
X171867289Y-112900113D01*
X171835345Y-112931673D01*
X171756781Y-112943599D01*
X171640500Y-112945333D01*
X171505946Y-112949008D01*
X171435851Y-112964897D01*
X171410150Y-113000296D01*
X171407667Y-113030000D01*
X171418811Y-113080783D01*
X171466112Y-113106111D01*
X171570375Y-113114304D01*
X171619333Y-113114667D01*
X171746292Y-113119124D01*
X171809611Y-113138045D01*
X171830094Y-113179750D01*
X171831000Y-113199333D01*
X171819856Y-113250117D01*
X171772554Y-113275444D01*
X171668291Y-113283638D01*
X171619333Y-113284000D01*
X171492094Y-113288608D01*
X171428655Y-113307785D01*
X171408405Y-113349560D01*
X171407667Y-113366454D01*
X171420544Y-113416130D01*
X171472434Y-113444030D01*
X171583225Y-113458678D01*
X171629917Y-113461704D01*
X171759664Y-113472645D01*
X171825845Y-113493564D01*
X171849548Y-113535717D01*
X171852167Y-113580333D01*
X171847766Y-113634219D01*
X171822727Y-113666734D01*
X171759293Y-113684439D01*
X171639709Y-113693896D01*
X171532763Y-113698374D01*
X171375469Y-113700543D01*
X171252509Y-113695087D01*
X171187102Y-113683178D01*
X171183513Y-113680735D01*
X171171354Y-113628559D01*
X171161583Y-113510468D01*
X171155344Y-113345204D01*
X171153667Y-113192278D01*
X171153667Y-112733667D01*
X171513500Y-112733667D01*
X171687748Y-112734638D01*
G36*
X170826897Y-112738749D02*
G01*
X170919387Y-112756615D01*
X170977466Y-112795673D01*
X171003099Y-112827753D01*
X171064979Y-112949237D01*
X171056944Y-113032045D01*
X170980323Y-113070366D01*
X170947183Y-113072333D01*
X170839750Y-113051454D01*
X170772667Y-113008833D01*
X170677993Y-112951105D01*
X170571654Y-112964189D01*
X170527133Y-112996133D01*
X170491235Y-113076758D01*
X170476905Y-113201055D01*
X170486638Y-113330207D01*
X170502029Y-113386371D01*
X170559483Y-113436172D01*
X170654772Y-113452816D01*
X170748522Y-113435845D01*
X170799691Y-113389833D01*
X170857103Y-113342450D01*
X170946529Y-113326333D01*
X171035847Y-113339402D01*
X171066843Y-113391106D01*
X171068352Y-113421583D01*
X171031635Y-113560647D01*
X170923942Y-113653894D01*
X170745649Y-113701080D01*
X170625359Y-113707333D01*
X170478384Y-113694021D01*
X170373740Y-113644695D01*
X170321745Y-113598927D01*
X170265923Y-113535945D01*
X170235074Y-113470661D01*
X170223740Y-113378186D01*
X170226461Y-113233631D01*
X170229178Y-113176861D01*
X170247577Y-112978679D01*
X170288638Y-112850100D01*
X170367196Y-112776420D01*
X170498085Y-112742939D01*
X170675016Y-112735013D01*
X170826897Y-112738749D01*
G37*
X170826897Y-112738749D02*
X170919387Y-112756615D01*
X170977466Y-112795673D01*
X171003099Y-112827753D01*
X171064979Y-112949237D01*
X171056944Y-113032045D01*
X170980323Y-113070366D01*
X170947183Y-113072333D01*
X170839750Y-113051454D01*
X170772667Y-113008833D01*
X170677993Y-112951105D01*
X170571654Y-112964189D01*
X170527133Y-112996133D01*
X170491235Y-113076758D01*
X170476905Y-113201055D01*
X170486638Y-113330207D01*
X170502029Y-113386371D01*
X170559483Y-113436172D01*
X170654772Y-113452816D01*
X170748522Y-113435845D01*
X170799691Y-113389833D01*
X170857103Y-113342450D01*
X170946529Y-113326333D01*
X171035847Y-113339402D01*
X171066843Y-113391106D01*
X171068352Y-113421583D01*
X171031635Y-113560647D01*
X170923942Y-113653894D01*
X170745649Y-113701080D01*
X170625359Y-113707333D01*
X170478384Y-113694021D01*
X170373740Y-113644695D01*
X170321745Y-113598927D01*
X170265923Y-113535945D01*
X170235074Y-113470661D01*
X170223740Y-113378186D01*
X170226461Y-113233631D01*
X170229178Y-113176861D01*
X170247577Y-112978679D01*
X170288638Y-112850100D01*
X170367196Y-112776420D01*
X170498085Y-112742939D01*
X170675016Y-112735013D01*
X170826897Y-112738749D01*
G36*
X169545000Y-113458698D02*
G01*
X169682583Y-113445432D01*
X169820167Y-113432167D01*
X169844757Y-112733667D01*
X170095333Y-112733667D01*
X170095333Y-113127742D01*
X170089052Y-113348584D01*
X170071054Y-113507697D01*
X170042609Y-113593894D01*
X170042417Y-113594159D01*
X169966080Y-113642198D01*
X169835550Y-113676258D01*
X169680711Y-113692346D01*
X169531444Y-113686471D01*
X169460672Y-113671873D01*
X169365028Y-113618025D01*
X169300631Y-113516731D01*
X169263491Y-113356876D01*
X169249618Y-113127344D01*
X169249291Y-113082917D01*
X169248667Y-112733667D01*
X169545000Y-112733667D01*
X169545000Y-113458698D01*
G37*
X169545000Y-113458698D02*
X169682583Y-113445432D01*
X169820167Y-113432167D01*
X169844757Y-112733667D01*
X170095333Y-112733667D01*
X170095333Y-113127742D01*
X170089052Y-113348584D01*
X170071054Y-113507697D01*
X170042609Y-113593894D01*
X170042417Y-113594159D01*
X169966080Y-113642198D01*
X169835550Y-113676258D01*
X169680711Y-113692346D01*
X169531444Y-113686471D01*
X169460672Y-113671873D01*
X169365028Y-113618025D01*
X169300631Y-113516731D01*
X169263491Y-113356876D01*
X169249618Y-113127344D01*
X169249291Y-113082917D01*
X169248667Y-112733667D01*
X169545000Y-112733667D01*
X169545000Y-113458698D01*
G36*
X168852360Y-112735318D02*
G01*
X168964299Y-112743750D01*
X169032428Y-112764180D01*
X169077171Y-112801824D01*
X169107192Y-112843772D01*
X169153639Y-112939363D01*
X169147361Y-113033099D01*
X169129684Y-113085422D01*
X169103039Y-113206161D01*
X169122016Y-113258949D01*
X169157622Y-113343274D01*
X169160416Y-113462301D01*
X169133149Y-113573897D01*
X169098146Y-113624620D01*
X169028187Y-113651816D01*
X168903610Y-113675324D01*
X168749801Y-113693149D01*
X168592148Y-113703296D01*
X168456035Y-113703769D01*
X168366850Y-113692572D01*
X168349083Y-113683504D01*
X168336141Y-113630140D01*
X168325743Y-113511006D01*
X168320056Y-113368667D01*
X168613667Y-113368667D01*
X168626950Y-113429849D01*
X168682958Y-113448942D01*
X168751250Y-113445432D01*
X168856584Y-113417105D01*
X168888833Y-113368667D01*
X168849462Y-113316255D01*
X168751250Y-113291901D01*
X168655795Y-113291390D01*
X168618365Y-113324431D01*
X168613667Y-113368667D01*
X168320056Y-113368667D01*
X168319109Y-113344989D01*
X168317333Y-113192278D01*
X168317333Y-113030000D01*
X168613667Y-113030000D01*
X168633624Y-113091973D01*
X168707883Y-113113793D01*
X168740667Y-113114667D01*
X168833627Y-113101361D01*
X168866356Y-113051856D01*
X168867667Y-113030000D01*
X168847709Y-112968026D01*
X168773450Y-112946207D01*
X168740667Y-112945333D01*
X168647706Y-112958638D01*
X168614977Y-113008144D01*
X168613667Y-113030000D01*
X168317333Y-113030000D01*
X168317333Y-112733667D01*
X168676191Y-112733667D01*
X168852360Y-112735318D01*
G37*
X168852360Y-112735318D02*
X168964299Y-112743750D01*
X169032428Y-112764180D01*
X169077171Y-112801824D01*
X169107192Y-112843772D01*
X169153639Y-112939363D01*
X169147361Y-113033099D01*
X169129684Y-113085422D01*
X169103039Y-113206161D01*
X169122016Y-113258949D01*
X169157622Y-113343274D01*
X169160416Y-113462301D01*
X169133149Y-113573897D01*
X169098146Y-113624620D01*
X169028187Y-113651816D01*
X168903610Y-113675324D01*
X168749801Y-113693149D01*
X168592148Y-113703296D01*
X168456035Y-113703769D01*
X168366850Y-113692572D01*
X168349083Y-113683504D01*
X168336141Y-113630140D01*
X168325743Y-113511006D01*
X168320056Y-113368667D01*
X168613667Y-113368667D01*
X168626950Y-113429849D01*
X168682958Y-113448942D01*
X168751250Y-113445432D01*
X168856584Y-113417105D01*
X168888833Y-113368667D01*
X168849462Y-113316255D01*
X168751250Y-113291901D01*
X168655795Y-113291390D01*
X168618365Y-113324431D01*
X168613667Y-113368667D01*
X168320056Y-113368667D01*
X168319109Y-113344989D01*
X168317333Y-113192278D01*
X168317333Y-113030000D01*
X168613667Y-113030000D01*
X168633624Y-113091973D01*
X168707883Y-113113793D01*
X168740667Y-113114667D01*
X168833627Y-113101361D01*
X168866356Y-113051856D01*
X168867667Y-113030000D01*
X168847709Y-112968026D01*
X168773450Y-112946207D01*
X168740667Y-112945333D01*
X168647706Y-112958638D01*
X168614977Y-113008144D01*
X168613667Y-113030000D01*
X168317333Y-113030000D01*
X168317333Y-112733667D01*
X168676191Y-112733667D01*
X168852360Y-112735318D01*
G36*
X166268174Y-113372529D02*
G01*
X166358985Y-113385066D01*
X166414600Y-113417975D01*
X166459727Y-113479973D01*
X166469150Y-113495753D01*
X166512820Y-113591927D01*
X166520666Y-113659647D01*
X166518412Y-113664602D01*
X166524640Y-113692360D01*
X166547718Y-113689304D01*
X166604456Y-113709168D01*
X166689467Y-113778628D01*
X166745327Y-113837956D01*
X166887820Y-114003667D01*
X166161902Y-114003667D01*
X166121423Y-113933111D01*
X166214778Y-113933111D01*
X166220589Y-113958278D01*
X166243000Y-113961333D01*
X166277845Y-113945844D01*
X166271222Y-113933111D01*
X166722778Y-113933111D01*
X166728589Y-113958278D01*
X166751000Y-113961333D01*
X166785845Y-113945844D01*
X166779222Y-113933111D01*
X166728982Y-113928044D01*
X166722778Y-113933111D01*
X166271222Y-113933111D01*
X166220982Y-113928044D01*
X166214778Y-113933111D01*
X166121423Y-113933111D01*
X166058680Y-113823750D01*
X165986958Y-113686167D01*
X166031333Y-113686167D01*
X166052500Y-113707333D01*
X166073667Y-113686167D01*
X166052500Y-113665000D01*
X166031333Y-113686167D01*
X165986958Y-113686167D01*
X165962399Y-113639057D01*
X165920859Y-113516336D01*
X165934309Y-113456471D01*
X165954397Y-113450358D01*
X165967026Y-113435333D01*
X165961623Y-113432167D01*
X166327667Y-113432167D01*
X166348833Y-113453333D01*
X166370000Y-113432167D01*
X166348833Y-113411000D01*
X166327667Y-113432167D01*
X165961623Y-113432167D01*
X165925500Y-113411000D01*
X165905153Y-113390540D01*
X165961060Y-113377774D01*
X166097105Y-113371904D01*
X166117456Y-113371642D01*
X166268174Y-113372529D01*
G37*
X166268174Y-113372529D02*
X166358985Y-113385066D01*
X166414600Y-113417975D01*
X166459727Y-113479973D01*
X166469150Y-113495753D01*
X166512820Y-113591927D01*
X166520666Y-113659647D01*
X166518412Y-113664602D01*
X166524640Y-113692360D01*
X166547718Y-113689304D01*
X166604456Y-113709168D01*
X166689467Y-113778628D01*
X166745327Y-113837956D01*
X166887820Y-114003667D01*
X166161902Y-114003667D01*
X166121423Y-113933111D01*
X166214778Y-113933111D01*
X166220589Y-113958278D01*
X166243000Y-113961333D01*
X166277845Y-113945844D01*
X166271222Y-113933111D01*
X166722778Y-113933111D01*
X166728589Y-113958278D01*
X166751000Y-113961333D01*
X166785845Y-113945844D01*
X166779222Y-113933111D01*
X166728982Y-113928044D01*
X166722778Y-113933111D01*
X166271222Y-113933111D01*
X166220982Y-113928044D01*
X166214778Y-113933111D01*
X166121423Y-113933111D01*
X166058680Y-113823750D01*
X165986958Y-113686167D01*
X166031333Y-113686167D01*
X166052500Y-113707333D01*
X166073667Y-113686167D01*
X166052500Y-113665000D01*
X166031333Y-113686167D01*
X165986958Y-113686167D01*
X165962399Y-113639057D01*
X165920859Y-113516336D01*
X165934309Y-113456471D01*
X165954397Y-113450358D01*
X165967026Y-113435333D01*
X165961623Y-113432167D01*
X166327667Y-113432167D01*
X166348833Y-113453333D01*
X166370000Y-113432167D01*
X166348833Y-113411000D01*
X166327667Y-113432167D01*
X165961623Y-113432167D01*
X165925500Y-113411000D01*
X165905153Y-113390540D01*
X165961060Y-113377774D01*
X166097105Y-113371904D01*
X166117456Y-113371642D01*
X166268174Y-113372529D01*
G36*
X165525310Y-113374616D02*
G01*
X165531148Y-113384134D01*
X165599932Y-113434181D01*
X165669122Y-113428981D01*
X165762384Y-113430183D01*
X165806647Y-113477030D01*
X165784738Y-113550027D01*
X165780456Y-113555404D01*
X165759937Y-113617235D01*
X165797978Y-113664567D01*
X165856138Y-113736539D01*
X165832882Y-113794221D01*
X165755857Y-113834451D01*
X165681240Y-113880859D01*
X165660607Y-113926139D01*
X165642766Y-113977271D01*
X165585192Y-113991340D01*
X165525566Y-113965564D01*
X165506992Y-113937477D01*
X165472274Y-113891305D01*
X165418853Y-113917877D01*
X165341458Y-113948195D01*
X165290552Y-113909888D01*
X165285468Y-113818693D01*
X165287314Y-113810788D01*
X165283178Y-113712874D01*
X165247916Y-113678175D01*
X165423262Y-113678175D01*
X165423828Y-113729725D01*
X165480592Y-113782327D01*
X165563048Y-113785554D01*
X165628766Y-113740307D01*
X165636284Y-113725217D01*
X165630428Y-113643995D01*
X165598670Y-113595193D01*
X165541870Y-113554380D01*
X165489256Y-113579058D01*
X165467680Y-113599701D01*
X165423262Y-113678175D01*
X165247916Y-113678175D01*
X165242467Y-113672814D01*
X165198340Y-113618840D01*
X165222340Y-113565800D01*
X165301333Y-113538393D01*
X165314165Y-113538000D01*
X165383478Y-113506537D01*
X165396333Y-113455832D01*
X165418897Y-113370999D01*
X165470122Y-113339549D01*
X165525310Y-113374616D01*
G37*
X165525310Y-113374616D02*
X165531148Y-113384134D01*
X165599932Y-113434181D01*
X165669122Y-113428981D01*
X165762384Y-113430183D01*
X165806647Y-113477030D01*
X165784738Y-113550027D01*
X165780456Y-113555404D01*
X165759937Y-113617235D01*
X165797978Y-113664567D01*
X165856138Y-113736539D01*
X165832882Y-113794221D01*
X165755857Y-113834451D01*
X165681240Y-113880859D01*
X165660607Y-113926139D01*
X165642766Y-113977271D01*
X165585192Y-113991340D01*
X165525566Y-113965564D01*
X165506992Y-113937477D01*
X165472274Y-113891305D01*
X165418853Y-113917877D01*
X165341458Y-113948195D01*
X165290552Y-113909888D01*
X165285468Y-113818693D01*
X165287314Y-113810788D01*
X165283178Y-113712874D01*
X165247916Y-113678175D01*
X165423262Y-113678175D01*
X165423828Y-113729725D01*
X165480592Y-113782327D01*
X165563048Y-113785554D01*
X165628766Y-113740307D01*
X165636284Y-113725217D01*
X165630428Y-113643995D01*
X165598670Y-113595193D01*
X165541870Y-113554380D01*
X165489256Y-113579058D01*
X165467680Y-113599701D01*
X165423262Y-113678175D01*
X165247916Y-113678175D01*
X165242467Y-113672814D01*
X165198340Y-113618840D01*
X165222340Y-113565800D01*
X165301333Y-113538393D01*
X165314165Y-113538000D01*
X165383478Y-113506537D01*
X165396333Y-113455832D01*
X165418897Y-113370999D01*
X165470122Y-113339549D01*
X165525310Y-113374616D01*
G36*
X164574881Y-112419719D02*
G01*
X164702614Y-112440808D01*
X164864416Y-112463880D01*
X164939922Y-112473545D01*
X165163500Y-112500833D01*
X165163500Y-112966500D01*
X164994167Y-112987667D01*
X164865163Y-113020265D01*
X164813588Y-113077227D01*
X164813127Y-113079724D01*
X164828439Y-113159862D01*
X164890355Y-113184303D01*
X164955482Y-113153972D01*
X165027123Y-113127988D01*
X165080826Y-113154675D01*
X165090844Y-113211658D01*
X165066133Y-113250133D01*
X165019351Y-113321706D01*
X165050096Y-113376150D01*
X165121167Y-113411000D01*
X165194602Y-113455014D01*
X165229620Y-113504494D01*
X165212686Y-113536122D01*
X165195250Y-113538648D01*
X165135279Y-113559482D01*
X165102722Y-113577755D01*
X165064021Y-113620235D01*
X165093461Y-113678239D01*
X165097322Y-113682940D01*
X165123203Y-113756448D01*
X165100357Y-113822655D01*
X165047273Y-113853984D01*
X164995238Y-113835222D01*
X164931625Y-113814436D01*
X164894192Y-113868352D01*
X164888333Y-113926055D01*
X164855235Y-113991492D01*
X164803667Y-114003667D01*
X164734714Y-113977197D01*
X164719000Y-113940167D01*
X164693208Y-113884496D01*
X164633640Y-113888214D01*
X164575500Y-113939377D01*
X164509076Y-113978108D01*
X164472332Y-113966619D01*
X164431499Y-113900009D01*
X164429999Y-113850992D01*
X164420440Y-113789971D01*
X164352645Y-113780198D01*
X164265807Y-113759532D01*
X164231625Y-113695582D01*
X164261671Y-113619096D01*
X164284348Y-113598739D01*
X164334947Y-113552400D01*
X164318898Y-113516833D01*
X164507333Y-113516833D01*
X164542865Y-113634521D01*
X164638520Y-113699589D01*
X164697833Y-113707333D01*
X164794981Y-113684408D01*
X164837533Y-113656533D01*
X164889483Y-113555359D01*
X164875983Y-113447859D01*
X164808927Y-113362150D01*
X164700210Y-113326347D01*
X164697833Y-113326333D01*
X164580146Y-113361865D01*
X164515077Y-113457520D01*
X164507333Y-113516833D01*
X164318898Y-113516833D01*
X164317686Y-113514149D01*
X164279258Y-113484009D01*
X164222927Y-113409388D01*
X164234120Y-113340765D01*
X164306452Y-113305942D01*
X164320301Y-113305346D01*
X164387602Y-113274530D01*
X164401500Y-113213742D01*
X164419907Y-113112277D01*
X164470853Y-113083620D01*
X164525622Y-113112278D01*
X164606101Y-113141922D01*
X164664335Y-113102775D01*
X164676667Y-113048668D01*
X164648681Y-113007868D01*
X164556303Y-112989611D01*
X164486167Y-112987667D01*
X164372516Y-112983085D01*
X164304376Y-112971493D01*
X164295667Y-112964617D01*
X164303443Y-112924167D01*
X164380333Y-112924167D01*
X164401500Y-112945333D01*
X164422667Y-112924167D01*
X165057667Y-112924167D01*
X165078833Y-112945333D01*
X165100000Y-112924167D01*
X165078833Y-112903000D01*
X165057667Y-112924167D01*
X164422667Y-112924167D01*
X164401500Y-112903000D01*
X164380333Y-112924167D01*
X164303443Y-112924167D01*
X164305250Y-112914773D01*
X164330342Y-112806587D01*
X164364542Y-112667373D01*
X164385107Y-112585500D01*
X165100000Y-112585500D01*
X165121167Y-112606667D01*
X165142333Y-112585500D01*
X165121167Y-112564333D01*
X165100000Y-112585500D01*
X164385107Y-112585500D01*
X164411692Y-112479667D01*
X164465000Y-112479667D01*
X164480489Y-112514512D01*
X164493222Y-112507889D01*
X164498289Y-112457649D01*
X164493222Y-112451444D01*
X164468055Y-112457255D01*
X164465000Y-112479667D01*
X164411692Y-112479667D01*
X164433417Y-112393180D01*
X164574881Y-112419719D01*
G37*
X164574881Y-112419719D02*
X164702614Y-112440808D01*
X164864416Y-112463880D01*
X164939922Y-112473545D01*
X165163500Y-112500833D01*
X165163500Y-112966500D01*
X164994167Y-112987667D01*
X164865163Y-113020265D01*
X164813588Y-113077227D01*
X164813127Y-113079724D01*
X164828439Y-113159862D01*
X164890355Y-113184303D01*
X164955482Y-113153972D01*
X165027123Y-113127988D01*
X165080826Y-113154675D01*
X165090844Y-113211658D01*
X165066133Y-113250133D01*
X165019351Y-113321706D01*
X165050096Y-113376150D01*
X165121167Y-113411000D01*
X165194602Y-113455014D01*
X165229620Y-113504494D01*
X165212686Y-113536122D01*
X165195250Y-113538648D01*
X165135279Y-113559482D01*
X165102722Y-113577755D01*
X165064021Y-113620235D01*
X165093461Y-113678239D01*
X165097322Y-113682940D01*
X165123203Y-113756448D01*
X165100357Y-113822655D01*
X165047273Y-113853984D01*
X164995238Y-113835222D01*
X164931625Y-113814436D01*
X164894192Y-113868352D01*
X164888333Y-113926055D01*
X164855235Y-113991492D01*
X164803667Y-114003667D01*
X164734714Y-113977197D01*
X164719000Y-113940167D01*
X164693208Y-113884496D01*
X164633640Y-113888214D01*
X164575500Y-113939377D01*
X164509076Y-113978108D01*
X164472332Y-113966619D01*
X164431499Y-113900009D01*
X164429999Y-113850992D01*
X164420440Y-113789971D01*
X164352645Y-113780198D01*
X164265807Y-113759532D01*
X164231625Y-113695582D01*
X164261671Y-113619096D01*
X164284348Y-113598739D01*
X164334947Y-113552400D01*
X164318898Y-113516833D01*
X164507333Y-113516833D01*
X164542865Y-113634521D01*
X164638520Y-113699589D01*
X164697833Y-113707333D01*
X164794981Y-113684408D01*
X164837533Y-113656533D01*
X164889483Y-113555359D01*
X164875983Y-113447859D01*
X164808927Y-113362150D01*
X164700210Y-113326347D01*
X164697833Y-113326333D01*
X164580146Y-113361865D01*
X164515077Y-113457520D01*
X164507333Y-113516833D01*
X164318898Y-113516833D01*
X164317686Y-113514149D01*
X164279258Y-113484009D01*
X164222927Y-113409388D01*
X164234120Y-113340765D01*
X164306452Y-113305942D01*
X164320301Y-113305346D01*
X164387602Y-113274530D01*
X164401500Y-113213742D01*
X164419907Y-113112277D01*
X164470853Y-113083620D01*
X164525622Y-113112278D01*
X164606101Y-113141922D01*
X164664335Y-113102775D01*
X164676667Y-113048668D01*
X164648681Y-113007868D01*
X164556303Y-112989611D01*
X164486167Y-112987667D01*
X164372516Y-112983085D01*
X164304376Y-112971493D01*
X164295667Y-112964617D01*
X164303443Y-112924167D01*
X164380333Y-112924167D01*
X164401500Y-112945333D01*
X164422667Y-112924167D01*
X165057667Y-112924167D01*
X165078833Y-112945333D01*
X165100000Y-112924167D01*
X165078833Y-112903000D01*
X165057667Y-112924167D01*
X164422667Y-112924167D01*
X164401500Y-112903000D01*
X164380333Y-112924167D01*
X164303443Y-112924167D01*
X164305250Y-112914773D01*
X164330342Y-112806587D01*
X164364542Y-112667373D01*
X164385107Y-112585500D01*
X165100000Y-112585500D01*
X165121167Y-112606667D01*
X165142333Y-112585500D01*
X165121167Y-112564333D01*
X165100000Y-112585500D01*
X164385107Y-112585500D01*
X164411692Y-112479667D01*
X164465000Y-112479667D01*
X164480489Y-112514512D01*
X164493222Y-112507889D01*
X164498289Y-112457649D01*
X164493222Y-112451444D01*
X164468055Y-112457255D01*
X164465000Y-112479667D01*
X164411692Y-112479667D01*
X164433417Y-112393180D01*
X164574881Y-112419719D01*
G36*
X166221833Y-109705630D02*
G01*
X166329674Y-109805649D01*
X166379176Y-109860292D01*
X166376008Y-109879604D01*
X166325841Y-109873628D01*
X166315377Y-109871343D01*
X166186436Y-109875015D01*
X166114294Y-109920044D01*
X166045480Y-109999814D01*
X166037148Y-110052849D01*
X166073667Y-110066667D01*
X166110496Y-110032079D01*
X166116000Y-109998637D01*
X166142320Y-109950433D01*
X166176765Y-109953926D01*
X166241163Y-109947811D01*
X166258209Y-109926705D01*
X166288214Y-109902875D01*
X166321217Y-109936944D01*
X166368221Y-109975459D01*
X166428223Y-109944046D01*
X166490316Y-109913080D01*
X166575454Y-109922564D01*
X166643116Y-109944689D01*
X166740394Y-109992262D01*
X166791203Y-110041306D01*
X166793333Y-110050759D01*
X166771480Y-110076436D01*
X166697548Y-110053976D01*
X166662753Y-110037369D01*
X166559443Y-109998130D01*
X166495923Y-110010327D01*
X166483190Y-110021209D01*
X166459638Y-110073214D01*
X166497354Y-110110763D01*
X166539142Y-110149792D01*
X166505056Y-110187652D01*
X166497000Y-110193018D01*
X166457649Y-110226766D01*
X166488197Y-110244268D01*
X166535805Y-110251875D01*
X166600984Y-110283943D01*
X166606361Y-110288916D01*
X166669909Y-110319473D01*
X166706616Y-110279147D01*
X166708667Y-110257167D01*
X166731525Y-110200831D01*
X166751000Y-110193667D01*
X166788095Y-110228147D01*
X166793333Y-110260019D01*
X166816053Y-110305758D01*
X166882179Y-110298173D01*
X166945873Y-110288391D01*
X166950373Y-110332888D01*
X166942826Y-110358821D01*
X166937291Y-110429720D01*
X166980980Y-110447667D01*
X167039945Y-110469948D01*
X167033112Y-110520661D01*
X166978397Y-110566705D01*
X166936979Y-110608967D01*
X166957230Y-110634807D01*
X167004185Y-110688947D01*
X166982346Y-110726112D01*
X166920333Y-110722833D01*
X166855012Y-110718755D01*
X166835841Y-110777849D01*
X166835666Y-110790042D01*
X166830530Y-110854366D01*
X166800734Y-110850337D01*
X166755203Y-110811303D01*
X166680802Y-110767113D01*
X166646871Y-110783575D01*
X166594072Y-110827342D01*
X166557792Y-110796718D01*
X166554620Y-110754583D01*
X166532237Y-110696935D01*
X166486417Y-110692939D01*
X166422963Y-110680593D01*
X166419708Y-110637164D01*
X166465250Y-110604653D01*
X166496937Y-110576385D01*
X166467381Y-110532333D01*
X166539333Y-110532333D01*
X166573283Y-110601763D01*
X166649459Y-110665978D01*
X166729353Y-110694264D01*
X166741017Y-110693198D01*
X166815925Y-110649090D01*
X166852079Y-110606417D01*
X166870474Y-110509816D01*
X166825845Y-110419445D01*
X166741017Y-110371469D01*
X166664493Y-110390153D01*
X166584842Y-110450227D01*
X166540573Y-110520975D01*
X166539333Y-110532333D01*
X166467381Y-110532333D01*
X166465250Y-110529158D01*
X166416036Y-110452987D01*
X166438426Y-110410915D01*
X166475833Y-110405333D01*
X166532169Y-110382474D01*
X166539333Y-110363000D01*
X166508190Y-110326263D01*
X166440755Y-110324428D01*
X166376017Y-110353655D01*
X166355879Y-110381071D01*
X166364454Y-110455954D01*
X166392115Y-110490787D01*
X166427377Y-110537251D01*
X166411139Y-110598393D01*
X166381367Y-110647181D01*
X166336551Y-110725915D01*
X166343348Y-110772116D01*
X166388938Y-110811105D01*
X166469116Y-110862793D01*
X166509074Y-110882080D01*
X166534454Y-110920960D01*
X166509988Y-110982557D01*
X166455265Y-111041142D01*
X166389873Y-111070982D01*
X166366417Y-111069464D01*
X166278289Y-111079043D01*
X166230619Y-111160279D01*
X166223409Y-111225745D01*
X166186566Y-111300669D01*
X166125210Y-111341357D01*
X166048042Y-111354205D01*
X166002286Y-111304812D01*
X165988674Y-111272310D01*
X165927236Y-111184340D01*
X165846712Y-111175925D01*
X165786800Y-111217133D01*
X165732730Y-111240410D01*
X165661567Y-111198461D01*
X165650991Y-111189095D01*
X165593952Y-111126178D01*
X165599868Y-111076544D01*
X165628824Y-111040712D01*
X165686325Y-110951009D01*
X165665122Y-110884256D01*
X165603758Y-110846296D01*
X165823541Y-110846296D01*
X165845091Y-110925941D01*
X165886190Y-110973809D01*
X165967566Y-111031955D01*
X166053715Y-111026587D01*
X166118783Y-110996510D01*
X166183851Y-110920160D01*
X166197436Y-110813310D01*
X166155216Y-110715776D01*
X166149867Y-110710133D01*
X166054557Y-110663697D01*
X165947043Y-110673380D01*
X165867141Y-110734858D01*
X165863489Y-110741217D01*
X165823541Y-110846296D01*
X165603758Y-110846296D01*
X165590162Y-110837886D01*
X165513492Y-110772483D01*
X165506481Y-110697029D01*
X165561919Y-110636961D01*
X165652772Y-110617000D01*
X165766462Y-110596595D01*
X165806588Y-110537015D01*
X165782034Y-110458585D01*
X165755391Y-110429975D01*
X165715915Y-110435415D01*
X165651175Y-110482928D01*
X165548738Y-110580537D01*
X165470995Y-110659333D01*
X165057260Y-111137361D01*
X164723067Y-111643543D01*
X164467540Y-112179548D01*
X164289803Y-112747041D01*
X164234871Y-113013686D01*
X164173519Y-113365180D01*
X163853593Y-113685106D01*
X163724226Y-113810698D01*
X163619943Y-113904752D01*
X163552725Y-113956934D01*
X163533667Y-113961086D01*
X163555465Y-113874606D01*
X163613736Y-113738079D01*
X163697791Y-113571774D01*
X163796944Y-113395959D01*
X163900506Y-113230906D01*
X163971866Y-113130023D01*
X164066028Y-112999400D01*
X164135640Y-112890799D01*
X164167837Y-112824569D01*
X164168667Y-112818747D01*
X164139827Y-112822297D01*
X164062266Y-112873745D01*
X163949415Y-112963502D01*
X163870523Y-113031604D01*
X163734320Y-113150284D01*
X163651476Y-113215800D01*
X163613656Y-113232976D01*
X163612527Y-113206638D01*
X163625303Y-113173547D01*
X163754443Y-112929778D01*
X163931724Y-112671324D01*
X164134758Y-112430341D01*
X164163965Y-112399827D01*
X164267024Y-112288778D01*
X164338227Y-112201814D01*
X164364482Y-112155174D01*
X164363482Y-112152371D01*
X164321641Y-112164996D01*
X164229116Y-112217172D01*
X164103666Y-112298609D01*
X164065059Y-112325253D01*
X163936945Y-112410878D01*
X163840160Y-112468077D01*
X163790813Y-112487594D01*
X163787667Y-112484600D01*
X163817222Y-112409869D01*
X163896547Y-112294742D01*
X164011634Y-112154506D01*
X164148472Y-112004449D01*
X164293051Y-111859856D01*
X164431362Y-111736015D01*
X164549396Y-111648212D01*
X164560250Y-111641583D01*
X164640978Y-111583479D01*
X164676581Y-111537787D01*
X164676667Y-111536353D01*
X164643773Y-111517994D01*
X164544060Y-111544606D01*
X164375982Y-111616707D01*
X164237572Y-111684077D01*
X163988978Y-111808779D01*
X164077084Y-111685045D01*
X164191164Y-111558683D01*
X164359481Y-111414161D01*
X164559387Y-111268765D01*
X164768229Y-111139781D01*
X164846000Y-111098270D01*
X164968910Y-111028054D01*
X165015102Y-110983782D01*
X164989066Y-110967452D01*
X164895293Y-110981059D01*
X164738272Y-111026597D01*
X164707866Y-111036881D01*
X164580950Y-111075214D01*
X164493057Y-111091566D01*
X164465000Y-111084503D01*
X164502296Y-111026802D01*
X164604674Y-110947421D01*
X164757869Y-110854214D01*
X164947614Y-110755039D01*
X165159644Y-110657750D01*
X165379694Y-110570203D01*
X165434142Y-110550810D01*
X165476437Y-110522921D01*
X165474715Y-110511938D01*
X165427103Y-110511073D01*
X165321798Y-110527337D01*
X165204422Y-110552089D01*
X165069797Y-110580628D01*
X164972750Y-110596021D01*
X164937653Y-110595764D01*
X164958160Y-110565480D01*
X165038897Y-110511945D01*
X165161879Y-110444331D01*
X165309123Y-110371805D01*
X165462645Y-110303539D01*
X165604461Y-110248702D01*
X165643931Y-110235645D01*
X165820802Y-110187715D01*
X165927039Y-110176123D01*
X165960688Y-110200496D01*
X165919796Y-110260460D01*
X165894660Y-110283632D01*
X165798500Y-110367475D01*
X165893958Y-110341152D01*
X165978869Y-110340577D01*
X166017871Y-110391831D01*
X166077308Y-110485991D01*
X166158195Y-110499036D01*
X166207462Y-110475932D01*
X166269841Y-110421107D01*
X166281757Y-110379309D01*
X166239988Y-110372419D01*
X166221833Y-110378309D01*
X166167219Y-110371804D01*
X166158333Y-110340505D01*
X166124076Y-110286590D01*
X166090304Y-110278333D01*
X166042169Y-110252141D01*
X166046172Y-110216058D01*
X166041972Y-110148229D01*
X166200667Y-110148229D01*
X166228558Y-110220604D01*
X166288437Y-110236000D01*
X166355906Y-110213190D01*
X166362034Y-110162403D01*
X166322682Y-110093885D01*
X166261664Y-110073115D01*
X166211717Y-110102968D01*
X166200667Y-110148229D01*
X166041972Y-110148229D01*
X166041136Y-110134746D01*
X166018951Y-110099642D01*
X165988391Y-110013237D01*
X165984592Y-109848077D01*
X165989000Y-109779519D01*
X165991976Y-109742111D01*
X166087778Y-109742111D01*
X166093589Y-109767278D01*
X166116000Y-109770333D01*
X166150845Y-109754844D01*
X166144222Y-109742111D01*
X166093982Y-109737044D01*
X166087778Y-109742111D01*
X165991976Y-109742111D01*
X166010167Y-109513539D01*
X166221833Y-109705630D01*
G37*
X166221833Y-109705630D02*
X166329674Y-109805649D01*
X166379176Y-109860292D01*
X166376008Y-109879604D01*
X166325841Y-109873628D01*
X166315377Y-109871343D01*
X166186436Y-109875015D01*
X166114294Y-109920044D01*
X166045480Y-109999814D01*
X166037148Y-110052849D01*
X166073667Y-110066667D01*
X166110496Y-110032079D01*
X166116000Y-109998637D01*
X166142320Y-109950433D01*
X166176765Y-109953926D01*
X166241163Y-109947811D01*
X166258209Y-109926705D01*
X166288214Y-109902875D01*
X166321217Y-109936944D01*
X166368221Y-109975459D01*
X166428223Y-109944046D01*
X166490316Y-109913080D01*
X166575454Y-109922564D01*
X166643116Y-109944689D01*
X166740394Y-109992262D01*
X166791203Y-110041306D01*
X166793333Y-110050759D01*
X166771480Y-110076436D01*
X166697548Y-110053976D01*
X166662753Y-110037369D01*
X166559443Y-109998130D01*
X166495923Y-110010327D01*
X166483190Y-110021209D01*
X166459638Y-110073214D01*
X166497354Y-110110763D01*
X166539142Y-110149792D01*
X166505056Y-110187652D01*
X166497000Y-110193018D01*
X166457649Y-110226766D01*
X166488197Y-110244268D01*
X166535805Y-110251875D01*
X166600984Y-110283943D01*
X166606361Y-110288916D01*
X166669909Y-110319473D01*
X166706616Y-110279147D01*
X166708667Y-110257167D01*
X166731525Y-110200831D01*
X166751000Y-110193667D01*
X166788095Y-110228147D01*
X166793333Y-110260019D01*
X166816053Y-110305758D01*
X166882179Y-110298173D01*
X166945873Y-110288391D01*
X166950373Y-110332888D01*
X166942826Y-110358821D01*
X166937291Y-110429720D01*
X166980980Y-110447667D01*
X167039945Y-110469948D01*
X167033112Y-110520661D01*
X166978397Y-110566705D01*
X166936979Y-110608967D01*
X166957230Y-110634807D01*
X167004185Y-110688947D01*
X166982346Y-110726112D01*
X166920333Y-110722833D01*
X166855012Y-110718755D01*
X166835841Y-110777849D01*
X166835666Y-110790042D01*
X166830530Y-110854366D01*
X166800734Y-110850337D01*
X166755203Y-110811303D01*
X166680802Y-110767113D01*
X166646871Y-110783575D01*
X166594072Y-110827342D01*
X166557792Y-110796718D01*
X166554620Y-110754583D01*
X166532237Y-110696935D01*
X166486417Y-110692939D01*
X166422963Y-110680593D01*
X166419708Y-110637164D01*
X166465250Y-110604653D01*
X166496937Y-110576385D01*
X166467381Y-110532333D01*
X166539333Y-110532333D01*
X166573283Y-110601763D01*
X166649459Y-110665978D01*
X166729353Y-110694264D01*
X166741017Y-110693198D01*
X166815925Y-110649090D01*
X166852079Y-110606417D01*
X166870474Y-110509816D01*
X166825845Y-110419445D01*
X166741017Y-110371469D01*
X166664493Y-110390153D01*
X166584842Y-110450227D01*
X166540573Y-110520975D01*
X166539333Y-110532333D01*
X166467381Y-110532333D01*
X166465250Y-110529158D01*
X166416036Y-110452987D01*
X166438426Y-110410915D01*
X166475833Y-110405333D01*
X166532169Y-110382474D01*
X166539333Y-110363000D01*
X166508190Y-110326263D01*
X166440755Y-110324428D01*
X166376017Y-110353655D01*
X166355879Y-110381071D01*
X166364454Y-110455954D01*
X166392115Y-110490787D01*
X166427377Y-110537251D01*
X166411139Y-110598393D01*
X166381367Y-110647181D01*
X166336551Y-110725915D01*
X166343348Y-110772116D01*
X166388938Y-110811105D01*
X166469116Y-110862793D01*
X166509074Y-110882080D01*
X166534454Y-110920960D01*
X166509988Y-110982557D01*
X166455265Y-111041142D01*
X166389873Y-111070982D01*
X166366417Y-111069464D01*
X166278289Y-111079043D01*
X166230619Y-111160279D01*
X166223409Y-111225745D01*
X166186566Y-111300669D01*
X166125210Y-111341357D01*
X166048042Y-111354205D01*
X166002286Y-111304812D01*
X165988674Y-111272310D01*
X165927236Y-111184340D01*
X165846712Y-111175925D01*
X165786800Y-111217133D01*
X165732730Y-111240410D01*
X165661567Y-111198461D01*
X165650991Y-111189095D01*
X165593952Y-111126178D01*
X165599868Y-111076544D01*
X165628824Y-111040712D01*
X165686325Y-110951009D01*
X165665122Y-110884256D01*
X165603758Y-110846296D01*
X165823541Y-110846296D01*
X165845091Y-110925941D01*
X165886190Y-110973809D01*
X165967566Y-111031955D01*
X166053715Y-111026587D01*
X166118783Y-110996510D01*
X166183851Y-110920160D01*
X166197436Y-110813310D01*
X166155216Y-110715776D01*
X166149867Y-110710133D01*
X166054557Y-110663697D01*
X165947043Y-110673380D01*
X165867141Y-110734858D01*
X165863489Y-110741217D01*
X165823541Y-110846296D01*
X165603758Y-110846296D01*
X165590162Y-110837886D01*
X165513492Y-110772483D01*
X165506481Y-110697029D01*
X165561919Y-110636961D01*
X165652772Y-110617000D01*
X165766462Y-110596595D01*
X165806588Y-110537015D01*
X165782034Y-110458585D01*
X165755391Y-110429975D01*
X165715915Y-110435415D01*
X165651175Y-110482928D01*
X165548738Y-110580537D01*
X165470995Y-110659333D01*
X165057260Y-111137361D01*
X164723067Y-111643543D01*
X164467540Y-112179548D01*
X164289803Y-112747041D01*
X164234871Y-113013686D01*
X164173519Y-113365180D01*
X163853593Y-113685106D01*
X163724226Y-113810698D01*
X163619943Y-113904752D01*
X163552725Y-113956934D01*
X163533667Y-113961086D01*
X163555465Y-113874606D01*
X163613736Y-113738079D01*
X163697791Y-113571774D01*
X163796944Y-113395959D01*
X163900506Y-113230906D01*
X163971866Y-113130023D01*
X164066028Y-112999400D01*
X164135640Y-112890799D01*
X164167837Y-112824569D01*
X164168667Y-112818747D01*
X164139827Y-112822297D01*
X164062266Y-112873745D01*
X163949415Y-112963502D01*
X163870523Y-113031604D01*
X163734320Y-113150284D01*
X163651476Y-113215800D01*
X163613656Y-113232976D01*
X163612527Y-113206638D01*
X163625303Y-113173547D01*
X163754443Y-112929778D01*
X163931724Y-112671324D01*
X164134758Y-112430341D01*
X164163965Y-112399827D01*
X164267024Y-112288778D01*
X164338227Y-112201814D01*
X164364482Y-112155174D01*
X164363482Y-112152371D01*
X164321641Y-112164996D01*
X164229116Y-112217172D01*
X164103666Y-112298609D01*
X164065059Y-112325253D01*
X163936945Y-112410878D01*
X163840160Y-112468077D01*
X163790813Y-112487594D01*
X163787667Y-112484600D01*
X163817222Y-112409869D01*
X163896547Y-112294742D01*
X164011634Y-112154506D01*
X164148472Y-112004449D01*
X164293051Y-111859856D01*
X164431362Y-111736015D01*
X164549396Y-111648212D01*
X164560250Y-111641583D01*
X164640978Y-111583479D01*
X164676581Y-111537787D01*
X164676667Y-111536353D01*
X164643773Y-111517994D01*
X164544060Y-111544606D01*
X164375982Y-111616707D01*
X164237572Y-111684077D01*
X163988978Y-111808779D01*
X164077084Y-111685045D01*
X164191164Y-111558683D01*
X164359481Y-111414161D01*
X164559387Y-111268765D01*
X164768229Y-111139781D01*
X164846000Y-111098270D01*
X164968910Y-111028054D01*
X165015102Y-110983782D01*
X164989066Y-110967452D01*
X164895293Y-110981059D01*
X164738272Y-111026597D01*
X164707866Y-111036881D01*
X164580950Y-111075214D01*
X164493057Y-111091566D01*
X164465000Y-111084503D01*
X164502296Y-111026802D01*
X164604674Y-110947421D01*
X164757869Y-110854214D01*
X164947614Y-110755039D01*
X165159644Y-110657750D01*
X165379694Y-110570203D01*
X165434142Y-110550810D01*
X165476437Y-110522921D01*
X165474715Y-110511938D01*
X165427103Y-110511073D01*
X165321798Y-110527337D01*
X165204422Y-110552089D01*
X165069797Y-110580628D01*
X164972750Y-110596021D01*
X164937653Y-110595764D01*
X164958160Y-110565480D01*
X165038897Y-110511945D01*
X165161879Y-110444331D01*
X165309123Y-110371805D01*
X165462645Y-110303539D01*
X165604461Y-110248702D01*
X165643931Y-110235645D01*
X165820802Y-110187715D01*
X165927039Y-110176123D01*
X165960688Y-110200496D01*
X165919796Y-110260460D01*
X165894660Y-110283632D01*
X165798500Y-110367475D01*
X165893958Y-110341152D01*
X165978869Y-110340577D01*
X166017871Y-110391831D01*
X166077308Y-110485991D01*
X166158195Y-110499036D01*
X166207462Y-110475932D01*
X166269841Y-110421107D01*
X166281757Y-110379309D01*
X166239988Y-110372419D01*
X166221833Y-110378309D01*
X166167219Y-110371804D01*
X166158333Y-110340505D01*
X166124076Y-110286590D01*
X166090304Y-110278333D01*
X166042169Y-110252141D01*
X166046172Y-110216058D01*
X166041972Y-110148229D01*
X166200667Y-110148229D01*
X166228558Y-110220604D01*
X166288437Y-110236000D01*
X166355906Y-110213190D01*
X166362034Y-110162403D01*
X166322682Y-110093885D01*
X166261664Y-110073115D01*
X166211717Y-110102968D01*
X166200667Y-110148229D01*
X166041972Y-110148229D01*
X166041136Y-110134746D01*
X166018951Y-110099642D01*
X165988391Y-110013237D01*
X165984592Y-109848077D01*
X165989000Y-109779519D01*
X165991976Y-109742111D01*
X166087778Y-109742111D01*
X166093589Y-109767278D01*
X166116000Y-109770333D01*
X166150845Y-109754844D01*
X166144222Y-109742111D01*
X166093982Y-109737044D01*
X166087778Y-109742111D01*
X165991976Y-109742111D01*
X166010167Y-109513539D01*
X166221833Y-109705630D01*
G36*
X167405935Y-110404311D02*
G01*
X167465612Y-110427167D01*
X167485145Y-110419077D01*
X167508885Y-110427413D01*
X167513000Y-110458250D01*
X167541908Y-110529665D01*
X167565917Y-110546749D01*
X167594957Y-110575006D01*
X167560493Y-110609044D01*
X167525317Y-110668279D01*
X167532663Y-110699234D01*
X167577408Y-110722975D01*
X167658547Y-110686079D01*
X167663597Y-110682800D01*
X167758158Y-110627708D01*
X167801714Y-110623785D01*
X167809333Y-110650206D01*
X167776436Y-110691534D01*
X167695484Y-110750357D01*
X167677625Y-110761214D01*
X167595316Y-110820517D01*
X167586862Y-110861116D01*
X167600901Y-110872999D01*
X167675326Y-110873440D01*
X167760239Y-110824898D01*
X167844829Y-110771923D01*
X167888680Y-110769193D01*
X167878519Y-110813761D01*
X167854914Y-110845920D01*
X167832904Y-110889687D01*
X167873189Y-110912145D01*
X167937540Y-110921027D01*
X168071316Y-110934500D01*
X167901968Y-111061345D01*
X167702913Y-111258109D01*
X167555920Y-111513692D01*
X167457302Y-111834569D01*
X167454731Y-111846822D01*
X167415227Y-112020789D01*
X167381877Y-112135513D01*
X167357475Y-112183918D01*
X167344817Y-112158932D01*
X167343667Y-112127937D01*
X167329684Y-112082560D01*
X167272765Y-112086470D01*
X167235077Y-112099714D01*
X167139420Y-112132980D01*
X167103852Y-112122906D01*
X167109013Y-112055415D01*
X167117183Y-112014000D01*
X167122295Y-111953757D01*
X167202790Y-111953757D01*
X167234653Y-112007290D01*
X167261802Y-112014000D01*
X167338184Y-111979976D01*
X167360304Y-111947037D01*
X167388199Y-111827868D01*
X167367513Y-111757104D01*
X167305576Y-111746624D01*
X167243276Y-111792736D01*
X167207340Y-111872010D01*
X167202790Y-111953757D01*
X167122295Y-111953757D01*
X167125030Y-111921536D01*
X167093513Y-111888245D01*
X167078321Y-111887000D01*
X167015566Y-111913593D01*
X166978669Y-112000013D01*
X166964187Y-112156215D01*
X166963701Y-112218546D01*
X167004135Y-112589835D01*
X167122486Y-112930943D01*
X167320417Y-113245753D01*
X167481213Y-113426804D01*
X167609763Y-113560886D01*
X167684895Y-113649163D01*
X167705440Y-113688142D01*
X167670229Y-113674330D01*
X167578094Y-113604232D01*
X167525895Y-113560383D01*
X167426179Y-113483476D01*
X167352368Y-113442014D01*
X167328079Y-113440699D01*
X167304054Y-113432681D01*
X167300392Y-113407472D01*
X167278421Y-113333351D01*
X167228145Y-113254983D01*
X167170012Y-113196611D01*
X167124469Y-113182477D01*
X167116753Y-113189754D01*
X167101820Y-113245763D01*
X167130342Y-113310644D01*
X167210677Y-113394120D01*
X167351179Y-113505914D01*
X167450931Y-113578564D01*
X167595970Y-113687023D01*
X167699447Y-113773295D01*
X167756737Y-113831187D01*
X167763216Y-113854504D01*
X167714260Y-113837053D01*
X167605243Y-113772639D01*
X167587083Y-113760925D01*
X167470593Y-113681996D01*
X167378477Y-113613965D01*
X167350949Y-113590714D01*
X167263025Y-113521752D01*
X167183599Y-113481582D01*
X167136481Y-113480822D01*
X167132000Y-113493065D01*
X167165460Y-113533409D01*
X167254936Y-113605071D01*
X167384070Y-113695428D01*
X167449417Y-113737971D01*
X167590690Y-113831557D01*
X167699641Y-113910577D01*
X167759973Y-113962891D01*
X167766917Y-113974415D01*
X167739887Y-113988659D01*
X167719933Y-113979575D01*
X167660075Y-113976676D01*
X167645850Y-113989567D01*
X167587344Y-114014148D01*
X167534167Y-114011260D01*
X167449269Y-113974954D01*
X167418398Y-113945853D01*
X167391417Y-113922951D01*
X167386648Y-113950750D01*
X167347617Y-113988609D01*
X167244049Y-114003633D01*
X167237833Y-114003667D01*
X167131659Y-113989892D01*
X167089139Y-113952970D01*
X167089018Y-113950750D01*
X167080032Y-113919467D01*
X167054966Y-113950432D01*
X167014382Y-113962399D01*
X166939370Y-113913130D01*
X166856523Y-113834016D01*
X166775346Y-113743235D01*
X166734779Y-113681885D01*
X166738881Y-113665000D01*
X166796305Y-113698282D01*
X166807630Y-113717917D01*
X166826757Y-113749112D01*
X166832324Y-113717917D01*
X166871280Y-113678407D01*
X166943998Y-113665000D01*
X167020049Y-113679258D01*
X167021720Y-113714527D01*
X167019664Y-113746281D01*
X167061945Y-113736873D01*
X167143457Y-113743291D01*
X167268569Y-113798418D01*
X167331177Y-113835512D01*
X167453226Y-113905628D01*
X167554232Y-113950967D01*
X167595371Y-113960582D01*
X167592097Y-113939726D01*
X167528725Y-113884405D01*
X167417323Y-113804433D01*
X167343667Y-113755881D01*
X167069532Y-113554573D01*
X166868973Y-113345417D01*
X166826133Y-113273626D01*
X166916181Y-113273626D01*
X166955637Y-113353501D01*
X167027235Y-113432803D01*
X167075468Y-113448459D01*
X167089667Y-113409510D01*
X167068195Y-113345236D01*
X167019643Y-113258818D01*
X166961202Y-113190734D01*
X166921199Y-113198516D01*
X166917363Y-113204139D01*
X166916181Y-113273626D01*
X166826133Y-113273626D01*
X166731123Y-113114413D01*
X166723706Y-113091717D01*
X166769068Y-113091717D01*
X166807681Y-113150232D01*
X166860386Y-113176558D01*
X166886060Y-113165873D01*
X166904625Y-113099505D01*
X166896025Y-113058245D01*
X166846939Y-112993830D01*
X166789703Y-113007903D01*
X166771020Y-113031854D01*
X166769068Y-113091717D01*
X166723706Y-113091717D01*
X166647727Y-112859232D01*
X166614620Y-112705916D01*
X166590917Y-112581349D01*
X166581669Y-112512112D01*
X166581667Y-112511560D01*
X166552821Y-112473780D01*
X166458585Y-112469151D01*
X166429610Y-112472086D01*
X166262819Y-112458930D01*
X166195737Y-112423863D01*
X166384626Y-112423863D01*
X166392330Y-112436046D01*
X166456839Y-112414649D01*
X166473511Y-112404789D01*
X166612924Y-112404789D01*
X166625762Y-112490565D01*
X166636580Y-112520998D01*
X166677337Y-112600315D01*
X166712898Y-112625048D01*
X166714449Y-112624259D01*
X166728749Y-112647601D01*
X166725150Y-112729812D01*
X166720865Y-112759566D01*
X166710743Y-112860756D01*
X166728285Y-112896558D01*
X166755122Y-112892806D01*
X166800771Y-112842944D01*
X166801190Y-112815446D01*
X166790481Y-112748247D01*
X166774484Y-112622308D01*
X166756408Y-112463128D01*
X166753905Y-112439738D01*
X166747015Y-112381747D01*
X166844781Y-112381747D01*
X166845580Y-112476135D01*
X166850828Y-112511417D01*
X166868731Y-112644997D01*
X166877401Y-112759084D01*
X166877534Y-112767915D01*
X166893450Y-112836244D01*
X166927527Y-112835054D01*
X166959270Y-112832996D01*
X166949830Y-112875390D01*
X166944486Y-112954089D01*
X166968437Y-113043371D01*
X167008832Y-113112798D01*
X167052819Y-113131930D01*
X167057211Y-113129728D01*
X167081021Y-113074107D01*
X167075759Y-113035805D01*
X167049262Y-112958695D01*
X167004116Y-112835226D01*
X166970070Y-112744750D01*
X166926679Y-112605984D01*
X166905905Y-112487811D01*
X166907936Y-112437833D01*
X166905832Y-112367644D01*
X166877398Y-112352667D01*
X166844781Y-112381747D01*
X166747015Y-112381747D01*
X166737540Y-112302002D01*
X166723966Y-112217653D01*
X166715497Y-112200122D01*
X166714297Y-112209900D01*
X166683223Y-112306671D01*
X166649456Y-112349106D01*
X166612924Y-112404789D01*
X166473511Y-112404789D01*
X166529914Y-112371433D01*
X166599955Y-112306329D01*
X166624000Y-112257508D01*
X166603624Y-112245245D01*
X166571083Y-112275812D01*
X166489322Y-112351614D01*
X166433500Y-112388449D01*
X166384626Y-112423863D01*
X166195737Y-112423863D01*
X166165027Y-112407810D01*
X166060375Y-112340114D01*
X165972946Y-112296120D01*
X165922705Y-112261465D01*
X165907821Y-112192447D01*
X165915321Y-112107326D01*
X165993333Y-112107326D01*
X165997666Y-112246833D01*
X166116000Y-112246833D01*
X166137167Y-112268000D01*
X166158333Y-112246833D01*
X166147790Y-112236290D01*
X166207190Y-112236290D01*
X166215495Y-112257744D01*
X166276621Y-112282541D01*
X166359619Y-112270756D01*
X166444832Y-112229797D01*
X166466065Y-112162167D01*
X166624000Y-112162167D01*
X166645167Y-112183333D01*
X166666333Y-112162167D01*
X166645167Y-112141000D01*
X166624000Y-112162167D01*
X166466065Y-112162167D01*
X166468578Y-112154166D01*
X166467398Y-112122903D01*
X166467417Y-112045020D01*
X166494006Y-112037702D01*
X166530898Y-112063516D01*
X166579373Y-112098549D01*
X166567404Y-112074994D01*
X166546821Y-112048266D01*
X166467851Y-112002404D01*
X166375009Y-112014565D01*
X166296874Y-112069763D01*
X166262023Y-112153013D01*
X166267746Y-112194611D01*
X166275831Y-112252454D01*
X166240994Y-112245594D01*
X166207190Y-112236290D01*
X166147790Y-112236290D01*
X166137167Y-112225667D01*
X166116000Y-112246833D01*
X165997666Y-112246833D01*
X166022967Y-112141000D01*
X166073667Y-112141000D01*
X166089156Y-112175845D01*
X166101889Y-112169222D01*
X166106955Y-112118982D01*
X166101889Y-112112778D01*
X166076722Y-112118589D01*
X166073667Y-112141000D01*
X166022967Y-112141000D01*
X166028911Y-112116138D01*
X166056398Y-112022958D01*
X166116000Y-112022958D01*
X166139708Y-112031389D01*
X166197283Y-111984967D01*
X166202316Y-111979649D01*
X166279036Y-111913023D01*
X166336371Y-111887000D01*
X166363768Y-111870091D01*
X166360974Y-111865833D01*
X166581667Y-111865833D01*
X166602833Y-111887000D01*
X166624000Y-111865833D01*
X166602833Y-111844667D01*
X166581667Y-111865833D01*
X166360974Y-111865833D01*
X166357210Y-111860099D01*
X166306563Y-111860542D01*
X166228668Y-111900853D01*
X166154923Y-111959835D01*
X166116724Y-112016289D01*
X166116000Y-112022958D01*
X166056398Y-112022958D01*
X166061276Y-112006424D01*
X166093160Y-111932041D01*
X166152719Y-111879192D01*
X166252127Y-111823869D01*
X166252960Y-111823500D01*
X166497000Y-111823500D01*
X166518167Y-111844667D01*
X166527097Y-111835736D01*
X166741162Y-111835736D01*
X166762420Y-111926807D01*
X166776380Y-111970128D01*
X166806987Y-112094004D01*
X166811710Y-112194901D01*
X166807531Y-112213545D01*
X166797809Y-112262608D01*
X166830876Y-112243276D01*
X166866163Y-112176954D01*
X166900189Y-112059287D01*
X166914482Y-111984823D01*
X166930751Y-111854972D01*
X166918003Y-111799215D01*
X167006687Y-111799215D01*
X167037171Y-111838481D01*
X167079083Y-111836755D01*
X167143070Y-111788442D01*
X167166694Y-111727817D01*
X167151621Y-111652765D01*
X167099677Y-111632528D01*
X167043671Y-111673826D01*
X167030696Y-111699962D01*
X167006687Y-111799215D01*
X166918003Y-111799215D01*
X166916293Y-111791740D01*
X166856206Y-111778571D01*
X166745368Y-111796930D01*
X166741162Y-111835736D01*
X166527097Y-111835736D01*
X166539333Y-111823500D01*
X166518167Y-111802333D01*
X166497000Y-111823500D01*
X166252960Y-111823500D01*
X166258665Y-111820976D01*
X166339550Y-111782711D01*
X166346809Y-111765903D01*
X166293992Y-111761657D01*
X166172781Y-111797612D01*
X166068803Y-111892771D01*
X166004089Y-112021806D01*
X165993333Y-112107326D01*
X165915321Y-112107326D01*
X165916442Y-112094610D01*
X165976511Y-111902077D01*
X166101982Y-111760378D01*
X166221833Y-111691277D01*
X166317524Y-111648212D01*
X166391924Y-111648212D01*
X166518545Y-111703145D01*
X166641905Y-111735456D01*
X166750211Y-111734608D01*
X166847443Y-111713737D01*
X166898377Y-111703818D01*
X166971060Y-111654111D01*
X166978897Y-111631535D01*
X167259000Y-111631535D01*
X167280488Y-111688638D01*
X167343667Y-111687599D01*
X167412260Y-111655560D01*
X167428333Y-111631525D01*
X167442094Y-111565164D01*
X167452776Y-111533894D01*
X167449146Y-111483137D01*
X167421026Y-111478705D01*
X167308189Y-111525604D01*
X167259866Y-111615369D01*
X167259000Y-111631535D01*
X166978897Y-111631535D01*
X167004211Y-111558617D01*
X167004352Y-111553378D01*
X166983699Y-111517395D01*
X166909030Y-111514181D01*
X166846250Y-111523812D01*
X166731745Y-111546358D01*
X166653053Y-111564887D01*
X166645167Y-111567334D01*
X166574746Y-111590476D01*
X166497379Y-111615088D01*
X166391924Y-111648212D01*
X166317524Y-111648212D01*
X166348833Y-111634122D01*
X166183948Y-111642627D01*
X166059630Y-111663549D01*
X165978671Y-111724684D01*
X165940689Y-111779649D01*
X165886115Y-111900062D01*
X165862202Y-112014023D01*
X165862158Y-112017528D01*
X165849338Y-112123787D01*
X165802161Y-112157656D01*
X165706927Y-112126936D01*
X165687299Y-112117058D01*
X165605270Y-112084979D01*
X165566198Y-112090038D01*
X165565667Y-112093438D01*
X165601280Y-112133060D01*
X165687504Y-112175158D01*
X165692667Y-112176990D01*
X165788771Y-112234190D01*
X165822006Y-112306486D01*
X165796334Y-112361888D01*
X165751074Y-112358491D01*
X165654912Y-112333408D01*
X165535804Y-112295771D01*
X165517453Y-112289167D01*
X165735000Y-112289167D01*
X165756167Y-112310333D01*
X165777333Y-112289167D01*
X165756167Y-112268000D01*
X165735000Y-112289167D01*
X165517453Y-112289167D01*
X165421706Y-112254711D01*
X165340576Y-112219362D01*
X165321065Y-112206639D01*
X165323991Y-112162167D01*
X165396333Y-112162167D01*
X165417500Y-112183333D01*
X165438667Y-112162167D01*
X165417500Y-112141000D01*
X165396333Y-112162167D01*
X165323991Y-112162167D01*
X165324375Y-112156333D01*
X165365407Y-112056076D01*
X165417863Y-111954372D01*
X165734736Y-111954372D01*
X165755079Y-111971667D01*
X165786011Y-111938226D01*
X165834536Y-111856720D01*
X165839746Y-111846769D01*
X165889299Y-111732981D01*
X165900138Y-111667007D01*
X165873884Y-111659024D01*
X165818258Y-111711773D01*
X165766696Y-111796448D01*
X165736464Y-111887150D01*
X165734736Y-111954372D01*
X165417863Y-111954372D01*
X165432992Y-111925040D01*
X165465071Y-111869887D01*
X165571937Y-111869887D01*
X165602999Y-111886996D01*
X165603818Y-111887000D01*
X165647598Y-111853856D01*
X165709405Y-111771380D01*
X165727388Y-111742227D01*
X165806999Y-111642930D01*
X165894899Y-111581960D01*
X165903490Y-111579354D01*
X166010167Y-111579354D01*
X166253583Y-111585010D01*
X166395444Y-111583711D01*
X166470544Y-111568532D01*
X166496249Y-111535167D01*
X166497000Y-111524668D01*
X166475772Y-111481752D01*
X166444083Y-111491820D01*
X166371752Y-111517789D01*
X166252489Y-111543866D01*
X166200667Y-111552162D01*
X166010167Y-111579354D01*
X165903490Y-111579354D01*
X165911486Y-111576929D01*
X165945801Y-111565059D01*
X165899859Y-111561807D01*
X165865131Y-111562952D01*
X165745211Y-111588746D01*
X165663243Y-111668635D01*
X165645975Y-111696500D01*
X165585298Y-111810745D01*
X165571937Y-111869887D01*
X165465071Y-111869887D01*
X165515959Y-111782398D01*
X165603140Y-111647324D01*
X165683366Y-111538988D01*
X165744258Y-111477778D01*
X166553444Y-111477778D01*
X166559255Y-111502945D01*
X166581667Y-111506000D01*
X166616512Y-111490511D01*
X166609889Y-111477778D01*
X166680444Y-111477778D01*
X166686255Y-111502945D01*
X166708667Y-111506000D01*
X166743512Y-111490511D01*
X166738758Y-111481371D01*
X167106304Y-111481371D01*
X167110153Y-111538200D01*
X167146410Y-111548333D01*
X167200772Y-111512981D01*
X167270558Y-111421397D01*
X167292078Y-111383383D01*
X167365845Y-111383383D01*
X167391295Y-111401977D01*
X167435447Y-111400422D01*
X167528060Y-111361685D01*
X167591900Y-111297661D01*
X167631718Y-111229541D01*
X167613805Y-111210409D01*
X167557398Y-111216284D01*
X167457174Y-111262068D01*
X167400944Y-111319045D01*
X167365845Y-111383383D01*
X167292078Y-111383383D01*
X167318525Y-111336667D01*
X167376197Y-111210948D01*
X167390923Y-111144430D01*
X167387242Y-111141618D01*
X167523661Y-111141618D01*
X167524972Y-111164166D01*
X167577676Y-111167123D01*
X167664902Y-111141477D01*
X167770699Y-111078747D01*
X167787226Y-111066052D01*
X167913285Y-110965192D01*
X167791429Y-110978569D01*
X167668596Y-111019265D01*
X167581879Y-111079639D01*
X167523661Y-111141618D01*
X167387242Y-111141618D01*
X167365487Y-111125000D01*
X167295851Y-111153728D01*
X167237373Y-111219953D01*
X167208817Y-111293739D01*
X167227902Y-111344506D01*
X167248912Y-111371578D01*
X167206083Y-111378352D01*
X167143123Y-111387305D01*
X167132000Y-111396704D01*
X167118830Y-111446466D01*
X167106304Y-111481371D01*
X166738758Y-111481371D01*
X166736889Y-111477778D01*
X166686649Y-111472711D01*
X166680444Y-111477778D01*
X166609889Y-111477778D01*
X166559649Y-111472711D01*
X166553444Y-111477778D01*
X165744258Y-111477778D01*
X165745466Y-111476564D01*
X165746962Y-111475582D01*
X165794427Y-111412758D01*
X165798500Y-111389583D01*
X165825006Y-111342077D01*
X165840833Y-111339145D01*
X165875096Y-111375256D01*
X165877020Y-111404246D01*
X165887649Y-111437874D01*
X165939536Y-111451714D01*
X166049626Y-111448203D01*
X166067858Y-111446540D01*
X166899661Y-111446540D01*
X166929586Y-111461725D01*
X166998777Y-111422275D01*
X167050861Y-111375472D01*
X167106501Y-111306347D01*
X167116187Y-111264409D01*
X167057183Y-111256239D01*
X166981278Y-111301539D01*
X166921613Y-111376609D01*
X166899661Y-111446540D01*
X166067858Y-111446540D01*
X166131020Y-111440779D01*
X166306719Y-111421605D01*
X166414661Y-111400310D01*
X166436487Y-111387304D01*
X166581667Y-111387304D01*
X166616447Y-111413208D01*
X166695058Y-111419489D01*
X166778907Y-111405880D01*
X166814500Y-111388935D01*
X166859778Y-111342132D01*
X166939129Y-111248936D01*
X166978514Y-111200513D01*
X167071405Y-111200513D01*
X167101826Y-111209667D01*
X167168297Y-111175208D01*
X167233075Y-111091740D01*
X167235907Y-111086391D01*
X167264367Y-111046089D01*
X167370576Y-111046089D01*
X167388913Y-111066656D01*
X167425910Y-111070844D01*
X167513411Y-111045950D01*
X167579148Y-110995074D01*
X167627954Y-110935354D01*
X167615481Y-110915310D01*
X167568455Y-110913333D01*
X167473965Y-110943323D01*
X167415218Y-110989103D01*
X167370576Y-111046089D01*
X167264367Y-111046089D01*
X167312729Y-110977605D01*
X167419186Y-110869558D01*
X167438077Y-110854028D01*
X167510379Y-110788170D01*
X167531555Y-110749080D01*
X167521736Y-110744469D01*
X167474786Y-110758913D01*
X167407566Y-110809354D01*
X167309315Y-110905413D01*
X167169274Y-111056715D01*
X167155412Y-111072083D01*
X167084289Y-111158715D01*
X167071405Y-111200513D01*
X166978514Y-111200513D01*
X167035505Y-111130446D01*
X167131860Y-111007761D01*
X167211144Y-110901981D01*
X167232980Y-110871000D01*
X167231588Y-110859270D01*
X167181045Y-110897748D01*
X167128142Y-110945083D01*
X167028393Y-111026757D01*
X166945623Y-111076061D01*
X166920333Y-111082667D01*
X166858687Y-111110185D01*
X166768764Y-111177574D01*
X166675857Y-111262081D01*
X166605258Y-111340956D01*
X166581667Y-111387304D01*
X166436487Y-111387304D01*
X166471350Y-111366530D01*
X166493293Y-111309902D01*
X166496382Y-111234963D01*
X166564443Y-111234963D01*
X166579069Y-111252000D01*
X166628208Y-111223826D01*
X166687500Y-111167333D01*
X166738287Y-111106030D01*
X166728672Y-111084973D01*
X166677832Y-111082667D01*
X166595460Y-111119340D01*
X166569400Y-111167333D01*
X166564443Y-111234963D01*
X166496382Y-111234963D01*
X166496997Y-111220063D01*
X166497000Y-111210995D01*
X166501129Y-111102047D01*
X166528803Y-111053420D01*
X166602948Y-111040772D01*
X166657742Y-111040333D01*
X166772774Y-111026877D01*
X166796435Y-111014224D01*
X166920333Y-111014224D01*
X166946835Y-111012891D01*
X167014606Y-110962673D01*
X167067866Y-110913948D01*
X167149216Y-110827459D01*
X167192612Y-110765918D01*
X167194424Y-110749980D01*
X167154450Y-110761999D01*
X167083863Y-110817011D01*
X167005868Y-110892647D01*
X166943667Y-110966536D01*
X166920333Y-111014224D01*
X166796435Y-111014224D01*
X166869724Y-110975033D01*
X166969185Y-110881583D01*
X167081624Y-110750073D01*
X167143545Y-110648774D01*
X167150209Y-110587368D01*
X167120088Y-110573320D01*
X167108834Y-110552096D01*
X167150674Y-110509820D01*
X167198463Y-110462783D01*
X167193008Y-110444983D01*
X167195733Y-110430362D01*
X167253874Y-110401995D01*
X167363718Y-110385115D01*
X167405935Y-110404311D01*
G37*
X167405935Y-110404311D02*
X167465612Y-110427167D01*
X167485145Y-110419077D01*
X167508885Y-110427413D01*
X167513000Y-110458250D01*
X167541908Y-110529665D01*
X167565917Y-110546749D01*
X167594957Y-110575006D01*
X167560493Y-110609044D01*
X167525317Y-110668279D01*
X167532663Y-110699234D01*
X167577408Y-110722975D01*
X167658547Y-110686079D01*
X167663597Y-110682800D01*
X167758158Y-110627708D01*
X167801714Y-110623785D01*
X167809333Y-110650206D01*
X167776436Y-110691534D01*
X167695484Y-110750357D01*
X167677625Y-110761214D01*
X167595316Y-110820517D01*
X167586862Y-110861116D01*
X167600901Y-110872999D01*
X167675326Y-110873440D01*
X167760239Y-110824898D01*
X167844829Y-110771923D01*
X167888680Y-110769193D01*
X167878519Y-110813761D01*
X167854914Y-110845920D01*
X167832904Y-110889687D01*
X167873189Y-110912145D01*
X167937540Y-110921027D01*
X168071316Y-110934500D01*
X167901968Y-111061345D01*
X167702913Y-111258109D01*
X167555920Y-111513692D01*
X167457302Y-111834569D01*
X167454731Y-111846822D01*
X167415227Y-112020789D01*
X167381877Y-112135513D01*
X167357475Y-112183918D01*
X167344817Y-112158932D01*
X167343667Y-112127937D01*
X167329684Y-112082560D01*
X167272765Y-112086470D01*
X167235077Y-112099714D01*
X167139420Y-112132980D01*
X167103852Y-112122906D01*
X167109013Y-112055415D01*
X167117183Y-112014000D01*
X167122295Y-111953757D01*
X167202790Y-111953757D01*
X167234653Y-112007290D01*
X167261802Y-112014000D01*
X167338184Y-111979976D01*
X167360304Y-111947037D01*
X167388199Y-111827868D01*
X167367513Y-111757104D01*
X167305576Y-111746624D01*
X167243276Y-111792736D01*
X167207340Y-111872010D01*
X167202790Y-111953757D01*
X167122295Y-111953757D01*
X167125030Y-111921536D01*
X167093513Y-111888245D01*
X167078321Y-111887000D01*
X167015566Y-111913593D01*
X166978669Y-112000013D01*
X166964187Y-112156215D01*
X166963701Y-112218546D01*
X167004135Y-112589835D01*
X167122486Y-112930943D01*
X167320417Y-113245753D01*
X167481213Y-113426804D01*
X167609763Y-113560886D01*
X167684895Y-113649163D01*
X167705440Y-113688142D01*
X167670229Y-113674330D01*
X167578094Y-113604232D01*
X167525895Y-113560383D01*
X167426179Y-113483476D01*
X167352368Y-113442014D01*
X167328079Y-113440699D01*
X167304054Y-113432681D01*
X167300392Y-113407472D01*
X167278421Y-113333351D01*
X167228145Y-113254983D01*
X167170012Y-113196611D01*
X167124469Y-113182477D01*
X167116753Y-113189754D01*
X167101820Y-113245763D01*
X167130342Y-113310644D01*
X167210677Y-113394120D01*
X167351179Y-113505914D01*
X167450931Y-113578564D01*
X167595970Y-113687023D01*
X167699447Y-113773295D01*
X167756737Y-113831187D01*
X167763216Y-113854504D01*
X167714260Y-113837053D01*
X167605243Y-113772639D01*
X167587083Y-113760925D01*
X167470593Y-113681996D01*
X167378477Y-113613965D01*
X167350949Y-113590714D01*
X167263025Y-113521752D01*
X167183599Y-113481582D01*
X167136481Y-113480822D01*
X167132000Y-113493065D01*
X167165460Y-113533409D01*
X167254936Y-113605071D01*
X167384070Y-113695428D01*
X167449417Y-113737971D01*
X167590690Y-113831557D01*
X167699641Y-113910577D01*
X167759973Y-113962891D01*
X167766917Y-113974415D01*
X167739887Y-113988659D01*
X167719933Y-113979575D01*
X167660075Y-113976676D01*
X167645850Y-113989567D01*
X167587344Y-114014148D01*
X167534167Y-114011260D01*
X167449269Y-113974954D01*
X167418398Y-113945853D01*
X167391417Y-113922951D01*
X167386648Y-113950750D01*
X167347617Y-113988609D01*
X167244049Y-114003633D01*
X167237833Y-114003667D01*
X167131659Y-113989892D01*
X167089139Y-113952970D01*
X167089018Y-113950750D01*
X167080032Y-113919467D01*
X167054966Y-113950432D01*
X167014382Y-113962399D01*
X166939370Y-113913130D01*
X166856523Y-113834016D01*
X166775346Y-113743235D01*
X166734779Y-113681885D01*
X166738881Y-113665000D01*
X166796305Y-113698282D01*
X166807630Y-113717917D01*
X166826757Y-113749112D01*
X166832324Y-113717917D01*
X166871280Y-113678407D01*
X166943998Y-113665000D01*
X167020049Y-113679258D01*
X167021720Y-113714527D01*
X167019664Y-113746281D01*
X167061945Y-113736873D01*
X167143457Y-113743291D01*
X167268569Y-113798418D01*
X167331177Y-113835512D01*
X167453226Y-113905628D01*
X167554232Y-113950967D01*
X167595371Y-113960582D01*
X167592097Y-113939726D01*
X167528725Y-113884405D01*
X167417323Y-113804433D01*
X167343667Y-113755881D01*
X167069532Y-113554573D01*
X166868973Y-113345417D01*
X166826133Y-113273626D01*
X166916181Y-113273626D01*
X166955637Y-113353501D01*
X167027235Y-113432803D01*
X167075468Y-113448459D01*
X167089667Y-113409510D01*
X167068195Y-113345236D01*
X167019643Y-113258818D01*
X166961202Y-113190734D01*
X166921199Y-113198516D01*
X166917363Y-113204139D01*
X166916181Y-113273626D01*
X166826133Y-113273626D01*
X166731123Y-113114413D01*
X166723706Y-113091717D01*
X166769068Y-113091717D01*
X166807681Y-113150232D01*
X166860386Y-113176558D01*
X166886060Y-113165873D01*
X166904625Y-113099505D01*
X166896025Y-113058245D01*
X166846939Y-112993830D01*
X166789703Y-113007903D01*
X166771020Y-113031854D01*
X166769068Y-113091717D01*
X166723706Y-113091717D01*
X166647727Y-112859232D01*
X166614620Y-112705916D01*
X166590917Y-112581349D01*
X166581669Y-112512112D01*
X166581667Y-112511560D01*
X166552821Y-112473780D01*
X166458585Y-112469151D01*
X166429610Y-112472086D01*
X166262819Y-112458930D01*
X166195737Y-112423863D01*
X166384626Y-112423863D01*
X166392330Y-112436046D01*
X166456839Y-112414649D01*
X166473511Y-112404789D01*
X166612924Y-112404789D01*
X166625762Y-112490565D01*
X166636580Y-112520998D01*
X166677337Y-112600315D01*
X166712898Y-112625048D01*
X166714449Y-112624259D01*
X166728749Y-112647601D01*
X166725150Y-112729812D01*
X166720865Y-112759566D01*
X166710743Y-112860756D01*
X166728285Y-112896558D01*
X166755122Y-112892806D01*
X166800771Y-112842944D01*
X166801190Y-112815446D01*
X166790481Y-112748247D01*
X166774484Y-112622308D01*
X166756408Y-112463128D01*
X166753905Y-112439738D01*
X166747015Y-112381747D01*
X166844781Y-112381747D01*
X166845580Y-112476135D01*
X166850828Y-112511417D01*
X166868731Y-112644997D01*
X166877401Y-112759084D01*
X166877534Y-112767915D01*
X166893450Y-112836244D01*
X166927527Y-112835054D01*
X166959270Y-112832996D01*
X166949830Y-112875390D01*
X166944486Y-112954089D01*
X166968437Y-113043371D01*
X167008832Y-113112798D01*
X167052819Y-113131930D01*
X167057211Y-113129728D01*
X167081021Y-113074107D01*
X167075759Y-113035805D01*
X167049262Y-112958695D01*
X167004116Y-112835226D01*
X166970070Y-112744750D01*
X166926679Y-112605984D01*
X166905905Y-112487811D01*
X166907936Y-112437833D01*
X166905832Y-112367644D01*
X166877398Y-112352667D01*
X166844781Y-112381747D01*
X166747015Y-112381747D01*
X166737540Y-112302002D01*
X166723966Y-112217653D01*
X166715497Y-112200122D01*
X166714297Y-112209900D01*
X166683223Y-112306671D01*
X166649456Y-112349106D01*
X166612924Y-112404789D01*
X166473511Y-112404789D01*
X166529914Y-112371433D01*
X166599955Y-112306329D01*
X166624000Y-112257508D01*
X166603624Y-112245245D01*
X166571083Y-112275812D01*
X166489322Y-112351614D01*
X166433500Y-112388449D01*
X166384626Y-112423863D01*
X166195737Y-112423863D01*
X166165027Y-112407810D01*
X166060375Y-112340114D01*
X165972946Y-112296120D01*
X165922705Y-112261465D01*
X165907821Y-112192447D01*
X165915321Y-112107326D01*
X165993333Y-112107326D01*
X165997666Y-112246833D01*
X166116000Y-112246833D01*
X166137167Y-112268000D01*
X166158333Y-112246833D01*
X166147790Y-112236290D01*
X166207190Y-112236290D01*
X166215495Y-112257744D01*
X166276621Y-112282541D01*
X166359619Y-112270756D01*
X166444832Y-112229797D01*
X166466065Y-112162167D01*
X166624000Y-112162167D01*
X166645167Y-112183333D01*
X166666333Y-112162167D01*
X166645167Y-112141000D01*
X166624000Y-112162167D01*
X166466065Y-112162167D01*
X166468578Y-112154166D01*
X166467398Y-112122903D01*
X166467417Y-112045020D01*
X166494006Y-112037702D01*
X166530898Y-112063516D01*
X166579373Y-112098549D01*
X166567404Y-112074994D01*
X166546821Y-112048266D01*
X166467851Y-112002404D01*
X166375009Y-112014565D01*
X166296874Y-112069763D01*
X166262023Y-112153013D01*
X166267746Y-112194611D01*
X166275831Y-112252454D01*
X166240994Y-112245594D01*
X166207190Y-112236290D01*
X166147790Y-112236290D01*
X166137167Y-112225667D01*
X166116000Y-112246833D01*
X165997666Y-112246833D01*
X166022967Y-112141000D01*
X166073667Y-112141000D01*
X166089156Y-112175845D01*
X166101889Y-112169222D01*
X166106955Y-112118982D01*
X166101889Y-112112778D01*
X166076722Y-112118589D01*
X166073667Y-112141000D01*
X166022967Y-112141000D01*
X166028911Y-112116138D01*
X166056398Y-112022958D01*
X166116000Y-112022958D01*
X166139708Y-112031389D01*
X166197283Y-111984967D01*
X166202316Y-111979649D01*
X166279036Y-111913023D01*
X166336371Y-111887000D01*
X166363768Y-111870091D01*
X166360974Y-111865833D01*
X166581667Y-111865833D01*
X166602833Y-111887000D01*
X166624000Y-111865833D01*
X166602833Y-111844667D01*
X166581667Y-111865833D01*
X166360974Y-111865833D01*
X166357210Y-111860099D01*
X166306563Y-111860542D01*
X166228668Y-111900853D01*
X166154923Y-111959835D01*
X166116724Y-112016289D01*
X166116000Y-112022958D01*
X166056398Y-112022958D01*
X166061276Y-112006424D01*
X166093160Y-111932041D01*
X166152719Y-111879192D01*
X166252127Y-111823869D01*
X166252960Y-111823500D01*
X166497000Y-111823500D01*
X166518167Y-111844667D01*
X166527097Y-111835736D01*
X166741162Y-111835736D01*
X166762420Y-111926807D01*
X166776380Y-111970128D01*
X166806987Y-112094004D01*
X166811710Y-112194901D01*
X166807531Y-112213545D01*
X166797809Y-112262608D01*
X166830876Y-112243276D01*
X166866163Y-112176954D01*
X166900189Y-112059287D01*
X166914482Y-111984823D01*
X166930751Y-111854972D01*
X166918003Y-111799215D01*
X167006687Y-111799215D01*
X167037171Y-111838481D01*
X167079083Y-111836755D01*
X167143070Y-111788442D01*
X167166694Y-111727817D01*
X167151621Y-111652765D01*
X167099677Y-111632528D01*
X167043671Y-111673826D01*
X167030696Y-111699962D01*
X167006687Y-111799215D01*
X166918003Y-111799215D01*
X166916293Y-111791740D01*
X166856206Y-111778571D01*
X166745368Y-111796930D01*
X166741162Y-111835736D01*
X166527097Y-111835736D01*
X166539333Y-111823500D01*
X166518167Y-111802333D01*
X166497000Y-111823500D01*
X166252960Y-111823500D01*
X166258665Y-111820976D01*
X166339550Y-111782711D01*
X166346809Y-111765903D01*
X166293992Y-111761657D01*
X166172781Y-111797612D01*
X166068803Y-111892771D01*
X166004089Y-112021806D01*
X165993333Y-112107326D01*
X165915321Y-112107326D01*
X165916442Y-112094610D01*
X165976511Y-111902077D01*
X166101982Y-111760378D01*
X166221833Y-111691277D01*
X166317524Y-111648212D01*
X166391924Y-111648212D01*
X166518545Y-111703145D01*
X166641905Y-111735456D01*
X166750211Y-111734608D01*
X166847443Y-111713737D01*
X166898377Y-111703818D01*
X166971060Y-111654111D01*
X166978897Y-111631535D01*
X167259000Y-111631535D01*
X167280488Y-111688638D01*
X167343667Y-111687599D01*
X167412260Y-111655560D01*
X167428333Y-111631525D01*
X167442094Y-111565164D01*
X167452776Y-111533894D01*
X167449146Y-111483137D01*
X167421026Y-111478705D01*
X167308189Y-111525604D01*
X167259866Y-111615369D01*
X167259000Y-111631535D01*
X166978897Y-111631535D01*
X167004211Y-111558617D01*
X167004352Y-111553378D01*
X166983699Y-111517395D01*
X166909030Y-111514181D01*
X166846250Y-111523812D01*
X166731745Y-111546358D01*
X166653053Y-111564887D01*
X166645167Y-111567334D01*
X166574746Y-111590476D01*
X166497379Y-111615088D01*
X166391924Y-111648212D01*
X166317524Y-111648212D01*
X166348833Y-111634122D01*
X166183948Y-111642627D01*
X166059630Y-111663549D01*
X165978671Y-111724684D01*
X165940689Y-111779649D01*
X165886115Y-111900062D01*
X165862202Y-112014023D01*
X165862158Y-112017528D01*
X165849338Y-112123787D01*
X165802161Y-112157656D01*
X165706927Y-112126936D01*
X165687299Y-112117058D01*
X165605270Y-112084979D01*
X165566198Y-112090038D01*
X165565667Y-112093438D01*
X165601280Y-112133060D01*
X165687504Y-112175158D01*
X165692667Y-112176990D01*
X165788771Y-112234190D01*
X165822006Y-112306486D01*
X165796334Y-112361888D01*
X165751074Y-112358491D01*
X165654912Y-112333408D01*
X165535804Y-112295771D01*
X165517453Y-112289167D01*
X165735000Y-112289167D01*
X165756167Y-112310333D01*
X165777333Y-112289167D01*
X165756167Y-112268000D01*
X165735000Y-112289167D01*
X165517453Y-112289167D01*
X165421706Y-112254711D01*
X165340576Y-112219362D01*
X165321065Y-112206639D01*
X165323991Y-112162167D01*
X165396333Y-112162167D01*
X165417500Y-112183333D01*
X165438667Y-112162167D01*
X165417500Y-112141000D01*
X165396333Y-112162167D01*
X165323991Y-112162167D01*
X165324375Y-112156333D01*
X165365407Y-112056076D01*
X165417863Y-111954372D01*
X165734736Y-111954372D01*
X165755079Y-111971667D01*
X165786011Y-111938226D01*
X165834536Y-111856720D01*
X165839746Y-111846769D01*
X165889299Y-111732981D01*
X165900138Y-111667007D01*
X165873884Y-111659024D01*
X165818258Y-111711773D01*
X165766696Y-111796448D01*
X165736464Y-111887150D01*
X165734736Y-111954372D01*
X165417863Y-111954372D01*
X165432992Y-111925040D01*
X165465071Y-111869887D01*
X165571937Y-111869887D01*
X165602999Y-111886996D01*
X165603818Y-111887000D01*
X165647598Y-111853856D01*
X165709405Y-111771380D01*
X165727388Y-111742227D01*
X165806999Y-111642930D01*
X165894899Y-111581960D01*
X165903490Y-111579354D01*
X166010167Y-111579354D01*
X166253583Y-111585010D01*
X166395444Y-111583711D01*
X166470544Y-111568532D01*
X166496249Y-111535167D01*
X166497000Y-111524668D01*
X166475772Y-111481752D01*
X166444083Y-111491820D01*
X166371752Y-111517789D01*
X166252489Y-111543866D01*
X166200667Y-111552162D01*
X166010167Y-111579354D01*
X165903490Y-111579354D01*
X165911486Y-111576929D01*
X165945801Y-111565059D01*
X165899859Y-111561807D01*
X165865131Y-111562952D01*
X165745211Y-111588746D01*
X165663243Y-111668635D01*
X165645975Y-111696500D01*
X165585298Y-111810745D01*
X165571937Y-111869887D01*
X165465071Y-111869887D01*
X165515959Y-111782398D01*
X165603140Y-111647324D01*
X165683366Y-111538988D01*
X165744258Y-111477778D01*
X166553444Y-111477778D01*
X166559255Y-111502945D01*
X166581667Y-111506000D01*
X166616512Y-111490511D01*
X166609889Y-111477778D01*
X166680444Y-111477778D01*
X166686255Y-111502945D01*
X166708667Y-111506000D01*
X166743512Y-111490511D01*
X166738758Y-111481371D01*
X167106304Y-111481371D01*
X167110153Y-111538200D01*
X167146410Y-111548333D01*
X167200772Y-111512981D01*
X167270558Y-111421397D01*
X167292078Y-111383383D01*
X167365845Y-111383383D01*
X167391295Y-111401977D01*
X167435447Y-111400422D01*
X167528060Y-111361685D01*
X167591900Y-111297661D01*
X167631718Y-111229541D01*
X167613805Y-111210409D01*
X167557398Y-111216284D01*
X167457174Y-111262068D01*
X167400944Y-111319045D01*
X167365845Y-111383383D01*
X167292078Y-111383383D01*
X167318525Y-111336667D01*
X167376197Y-111210948D01*
X167390923Y-111144430D01*
X167387242Y-111141618D01*
X167523661Y-111141618D01*
X167524972Y-111164166D01*
X167577676Y-111167123D01*
X167664902Y-111141477D01*
X167770699Y-111078747D01*
X167787226Y-111066052D01*
X167913285Y-110965192D01*
X167791429Y-110978569D01*
X167668596Y-111019265D01*
X167581879Y-111079639D01*
X167523661Y-111141618D01*
X167387242Y-111141618D01*
X167365487Y-111125000D01*
X167295851Y-111153728D01*
X167237373Y-111219953D01*
X167208817Y-111293739D01*
X167227902Y-111344506D01*
X167248912Y-111371578D01*
X167206083Y-111378352D01*
X167143123Y-111387305D01*
X167132000Y-111396704D01*
X167118830Y-111446466D01*
X167106304Y-111481371D01*
X166738758Y-111481371D01*
X166736889Y-111477778D01*
X166686649Y-111472711D01*
X166680444Y-111477778D01*
X166609889Y-111477778D01*
X166559649Y-111472711D01*
X166553444Y-111477778D01*
X165744258Y-111477778D01*
X165745466Y-111476564D01*
X165746962Y-111475582D01*
X165794427Y-111412758D01*
X165798500Y-111389583D01*
X165825006Y-111342077D01*
X165840833Y-111339145D01*
X165875096Y-111375256D01*
X165877020Y-111404246D01*
X165887649Y-111437874D01*
X165939536Y-111451714D01*
X166049626Y-111448203D01*
X166067858Y-111446540D01*
X166899661Y-111446540D01*
X166929586Y-111461725D01*
X166998777Y-111422275D01*
X167050861Y-111375472D01*
X167106501Y-111306347D01*
X167116187Y-111264409D01*
X167057183Y-111256239D01*
X166981278Y-111301539D01*
X166921613Y-111376609D01*
X166899661Y-111446540D01*
X166067858Y-111446540D01*
X166131020Y-111440779D01*
X166306719Y-111421605D01*
X166414661Y-111400310D01*
X166436487Y-111387304D01*
X166581667Y-111387304D01*
X166616447Y-111413208D01*
X166695058Y-111419489D01*
X166778907Y-111405880D01*
X166814500Y-111388935D01*
X166859778Y-111342132D01*
X166939129Y-111248936D01*
X166978514Y-111200513D01*
X167071405Y-111200513D01*
X167101826Y-111209667D01*
X167168297Y-111175208D01*
X167233075Y-111091740D01*
X167235907Y-111086391D01*
X167264367Y-111046089D01*
X167370576Y-111046089D01*
X167388913Y-111066656D01*
X167425910Y-111070844D01*
X167513411Y-111045950D01*
X167579148Y-110995074D01*
X167627954Y-110935354D01*
X167615481Y-110915310D01*
X167568455Y-110913333D01*
X167473965Y-110943323D01*
X167415218Y-110989103D01*
X167370576Y-111046089D01*
X167264367Y-111046089D01*
X167312729Y-110977605D01*
X167419186Y-110869558D01*
X167438077Y-110854028D01*
X167510379Y-110788170D01*
X167531555Y-110749080D01*
X167521736Y-110744469D01*
X167474786Y-110758913D01*
X167407566Y-110809354D01*
X167309315Y-110905413D01*
X167169274Y-111056715D01*
X167155412Y-111072083D01*
X167084289Y-111158715D01*
X167071405Y-111200513D01*
X166978514Y-111200513D01*
X167035505Y-111130446D01*
X167131860Y-111007761D01*
X167211144Y-110901981D01*
X167232980Y-110871000D01*
X167231588Y-110859270D01*
X167181045Y-110897748D01*
X167128142Y-110945083D01*
X167028393Y-111026757D01*
X166945623Y-111076061D01*
X166920333Y-111082667D01*
X166858687Y-111110185D01*
X166768764Y-111177574D01*
X166675857Y-111262081D01*
X166605258Y-111340956D01*
X166581667Y-111387304D01*
X166436487Y-111387304D01*
X166471350Y-111366530D01*
X166493293Y-111309902D01*
X166496382Y-111234963D01*
X166564443Y-111234963D01*
X166579069Y-111252000D01*
X166628208Y-111223826D01*
X166687500Y-111167333D01*
X166738287Y-111106030D01*
X166728672Y-111084973D01*
X166677832Y-111082667D01*
X166595460Y-111119340D01*
X166569400Y-111167333D01*
X166564443Y-111234963D01*
X166496382Y-111234963D01*
X166496997Y-111220063D01*
X166497000Y-111210995D01*
X166501129Y-111102047D01*
X166528803Y-111053420D01*
X166602948Y-111040772D01*
X166657742Y-111040333D01*
X166772774Y-111026877D01*
X166796435Y-111014224D01*
X166920333Y-111014224D01*
X166946835Y-111012891D01*
X167014606Y-110962673D01*
X167067866Y-110913948D01*
X167149216Y-110827459D01*
X167192612Y-110765918D01*
X167194424Y-110749980D01*
X167154450Y-110761999D01*
X167083863Y-110817011D01*
X167005868Y-110892647D01*
X166943667Y-110966536D01*
X166920333Y-111014224D01*
X166796435Y-111014224D01*
X166869724Y-110975033D01*
X166969185Y-110881583D01*
X167081624Y-110750073D01*
X167143545Y-110648774D01*
X167150209Y-110587368D01*
X167120088Y-110573320D01*
X167108834Y-110552096D01*
X167150674Y-110509820D01*
X167198463Y-110462783D01*
X167193008Y-110444983D01*
X167195733Y-110430362D01*
X167253874Y-110401995D01*
X167363718Y-110385115D01*
X167405935Y-110404311D01*
D12*
X164531522Y-107518478D02*
G75*
G03X168970000Y-105680000I1838478J1838478D01*
G01*
X164531522Y-103841522D02*
G75*
G02X168970000Y-105680000I1838478J-1838478D01*
G01*
X164520000Y-103880000D02*
X164520000Y-107480000D01*
X178860000Y-114880000D02*
X180110000Y-114880000D01*
X178860000Y-113630000D02*
X178860000Y-114880000D01*
X184360000Y-102730000D02*
X184360000Y-108280000D01*
X181410000Y-102730000D02*
X184360000Y-102730000D01*
X181410000Y-101980000D02*
X181410000Y-102730000D01*
X184360000Y-108280000D02*
X184360000Y-112770000D01*
X181410000Y-113830000D02*
X182750000Y-113830000D01*
X181410000Y-114580000D02*
X181410000Y-113830000D01*
X179160000Y-101980000D02*
X179160000Y-103780000D01*
X179910000Y-101980000D02*
X179160000Y-101980000D01*
X179910000Y-103780000D02*
X179910000Y-101980000D01*
X179160000Y-103780000D02*
X179910000Y-103780000D01*
X179160000Y-112780000D02*
X179160000Y-114580000D01*
X179910000Y-112780000D02*
X179160000Y-112780000D01*
X179910000Y-114580000D02*
X179910000Y-112780000D01*
X179160000Y-114580000D02*
X179910000Y-114580000D01*
X179160000Y-105280000D02*
X179160000Y-111280000D01*
X179910000Y-105280000D02*
X179160000Y-105280000D01*
X179910000Y-111280000D02*
X179910000Y-105280000D01*
X179160000Y-111280000D02*
X179910000Y-111280000D01*
X179150000Y-101970000D02*
X179150000Y-114590000D01*
X185120000Y-101970000D02*
X179150000Y-101970000D01*
X185120000Y-114590000D02*
X185120000Y-101970000D01*
X179150000Y-114590000D02*
X185120000Y-114590000D01*
X178860000Y-99640000D02*
X180110000Y-99640000D01*
X178860000Y-98390000D02*
X178860000Y-99640000D01*
X184360000Y-92490000D02*
X184360000Y-95540000D01*
X181410000Y-92490000D02*
X184360000Y-92490000D01*
X181410000Y-91740000D02*
X181410000Y-92490000D01*
X184360000Y-95540000D02*
X184360000Y-97530000D01*
X181410000Y-98590000D02*
X182750000Y-98590000D01*
X181410000Y-99340000D02*
X181410000Y-98590000D01*
X179160000Y-91740000D02*
X179160000Y-93540000D01*
X179910000Y-91740000D02*
X179160000Y-91740000D01*
X179910000Y-93540000D02*
X179910000Y-91740000D01*
X179160000Y-93540000D02*
X179910000Y-93540000D01*
X179160000Y-97540000D02*
X179160000Y-99340000D01*
X179910000Y-97540000D02*
X179160000Y-97540000D01*
X179910000Y-99340000D02*
X179910000Y-97540000D01*
X179160000Y-99340000D02*
X179910000Y-99340000D01*
X179160000Y-95040000D02*
X179160000Y-96040000D01*
X179910000Y-95040000D02*
X179160000Y-95040000D01*
X179910000Y-96040000D02*
X179910000Y-95040000D01*
X179160000Y-96040000D02*
X179910000Y-96040000D01*
X179150000Y-91730000D02*
X179150000Y-99350000D01*
X185120000Y-91730000D02*
X179150000Y-91730000D01*
X185120000Y-99350000D02*
X185120000Y-91730000D01*
X179150000Y-99350000D02*
X185120000Y-99350000D01*
X187540000Y-114590000D02*
X193510000Y-114590000D01*
X193510000Y-114590000D02*
X193510000Y-101970000D01*
X193510000Y-101970000D02*
X187540000Y-101970000D01*
X187540000Y-101970000D02*
X187540000Y-114590000D01*
X187550000Y-111280000D02*
X188300000Y-111280000D01*
X188300000Y-111280000D02*
X188300000Y-105280000D01*
X188300000Y-105280000D02*
X187550000Y-105280000D01*
X187550000Y-105280000D02*
X187550000Y-111280000D01*
X187550000Y-114580000D02*
X188300000Y-114580000D01*
X188300000Y-114580000D02*
X188300000Y-112780000D01*
X188300000Y-112780000D02*
X187550000Y-112780000D01*
X187550000Y-112780000D02*
X187550000Y-114580000D01*
X187550000Y-103780000D02*
X188300000Y-103780000D01*
X188300000Y-103780000D02*
X188300000Y-101980000D01*
X188300000Y-101980000D02*
X187550000Y-101980000D01*
X187550000Y-101980000D02*
X187550000Y-103780000D01*
X189800000Y-114580000D02*
X189800000Y-113830000D01*
X189800000Y-113830000D02*
X191140000Y-113830000D01*
X192750000Y-108280000D02*
X192750000Y-112770000D01*
X189800000Y-101980000D02*
X189800000Y-102730000D01*
X189800000Y-102730000D02*
X192750000Y-102730000D01*
X192750000Y-102730000D02*
X192750000Y-108280000D01*
X187250000Y-113630000D02*
X187250000Y-114880000D01*
X187250000Y-114880000D02*
X188500000Y-114880000D01*
X155020000Y-114590000D02*
X160990000Y-114590000D01*
X160990000Y-114590000D02*
X160990000Y-101970000D01*
X160990000Y-101970000D02*
X155020000Y-101970000D01*
X155020000Y-101970000D02*
X155020000Y-114590000D01*
X155030000Y-111280000D02*
X155780000Y-111280000D01*
X155780000Y-111280000D02*
X155780000Y-105280000D01*
X155780000Y-105280000D02*
X155030000Y-105280000D01*
X155030000Y-105280000D02*
X155030000Y-111280000D01*
X155030000Y-114580000D02*
X155780000Y-114580000D01*
X155780000Y-114580000D02*
X155780000Y-112780000D01*
X155780000Y-112780000D02*
X155030000Y-112780000D01*
X155030000Y-112780000D02*
X155030000Y-114580000D01*
X155030000Y-103780000D02*
X155780000Y-103780000D01*
X155780000Y-103780000D02*
X155780000Y-101980000D01*
X155780000Y-101980000D02*
X155030000Y-101980000D01*
X155030000Y-101980000D02*
X155030000Y-103780000D01*
X157280000Y-114580000D02*
X157280000Y-113830000D01*
X157280000Y-113830000D02*
X158620000Y-113830000D01*
X160230000Y-108280000D02*
X160230000Y-112770000D01*
X157280000Y-101980000D02*
X157280000Y-102730000D01*
X157280000Y-102730000D02*
X160230000Y-102730000D01*
X160230000Y-102730000D02*
X160230000Y-108280000D01*
X154730000Y-113630000D02*
X154730000Y-114880000D01*
X154730000Y-114880000D02*
X155980000Y-114880000D01*
X161290000Y-90464000D02*
X161290000Y-91234000D01*
X161290000Y-98544000D02*
X161290000Y-97774000D01*
X159920000Y-91234000D02*
X159920000Y-97774000D01*
X162660000Y-91234000D02*
X159920000Y-91234000D01*
X162660000Y-97774000D02*
X162660000Y-91234000D01*
X159920000Y-97774000D02*
X162660000Y-97774000D01*
X168910000Y-90464000D02*
X168910000Y-91234000D01*
X168910000Y-98544000D02*
X168910000Y-97774000D01*
X167540000Y-91234000D02*
X167540000Y-97774000D01*
X170280000Y-91234000D02*
X167540000Y-91234000D01*
X170280000Y-97774000D02*
X170280000Y-91234000D01*
X167540000Y-97774000D02*
X170280000Y-97774000D01*
X171350000Y-97774000D02*
X174090000Y-97774000D01*
X174090000Y-97774000D02*
X174090000Y-91234000D01*
X174090000Y-91234000D02*
X171350000Y-91234000D01*
X171350000Y-91234000D02*
X171350000Y-97774000D01*
X172720000Y-98544000D02*
X172720000Y-97774000D01*
X172720000Y-90464000D02*
X172720000Y-91234000D01*
X181320000Y-88980000D02*
X181320000Y-89136000D01*
X181320000Y-86664000D02*
X181320000Y-86820000D01*
X183921130Y-88979837D02*
G75*
G02X181839039Y-88980000I-1041130J1079837D01*
G01*
X183921130Y-86820163D02*
G75*
G03X181839039Y-86820000I-1041130J-1079837D01*
G01*
X184552335Y-88978608D02*
G75*
G02X181320000Y-89135516I-1672335J1078608D01*
G01*
X184552335Y-86821392D02*
G75*
G03X181320000Y-86664484I-1672335J-1078608D01*
G01*
X152802335Y-86821392D02*
G75*
G03X149570000Y-86664484I-1672335J-1078608D01*
G01*
X152802335Y-88978608D02*
G75*
G02X149570000Y-89135516I-1672335J1078608D01*
G01*
X152171130Y-86820163D02*
G75*
G03X150089039Y-86820000I-1041130J-1079837D01*
G01*
X152171130Y-88979837D02*
G75*
G02X150089039Y-88980000I-1041130J1079837D01*
G01*
X149570000Y-86664000D02*
X149570000Y-86820000D01*
X149570000Y-88980000D02*
X149570000Y-89136000D01*
X175160000Y-97774000D02*
X177900000Y-97774000D01*
X177900000Y-97774000D02*
X177900000Y-91234000D01*
X177900000Y-91234000D02*
X175160000Y-91234000D01*
X175160000Y-91234000D02*
X175160000Y-97774000D01*
X176530000Y-98544000D02*
X176530000Y-97774000D01*
X176530000Y-90464000D02*
X176530000Y-91234000D01*
X159850000Y-83877000D02*
X165190000Y-83877000D01*
X159850000Y-87319000D02*
X165190000Y-87319000D01*
X159850000Y-83877000D02*
X159850000Y-84543000D01*
X159850000Y-86653000D02*
X159850000Y-87319000D01*
X165190000Y-83877000D02*
X165190000Y-84543000D01*
X165190000Y-86653000D02*
X165190000Y-87319000D01*
X174080000Y-86653000D02*
X174080000Y-87319000D01*
X174080000Y-83877000D02*
X174080000Y-84543000D01*
X168740000Y-86653000D02*
X168740000Y-87319000D01*
X168740000Y-83877000D02*
X168740000Y-84543000D01*
X168740000Y-87319000D02*
X174080000Y-87319000D01*
X168740000Y-83877000D02*
X174080000Y-83877000D01*
D14*
X165552380Y-94670666D02*
X165076190Y-95004000D01*
X165552380Y-95242095D02*
X164552380Y-95242095D01*
X164552380Y-94861142D01*
X164600000Y-94765904D01*
X164647619Y-94718285D01*
X164742857Y-94670666D01*
X164885714Y-94670666D01*
X164980952Y-94718285D01*
X165028571Y-94765904D01*
X165076190Y-94861142D01*
X165076190Y-95242095D01*
X164647619Y-94289714D02*
X164600000Y-94242095D01*
X164552380Y-94146857D01*
X164552380Y-93908761D01*
X164600000Y-93813523D01*
X164647619Y-93765904D01*
X164742857Y-93718285D01*
X164838095Y-93718285D01*
X164980952Y-93765904D01*
X165552380Y-94337333D01*
X165552380Y-93718285D01*
X157932380Y-94670666D02*
X157456190Y-95004000D01*
X157932380Y-95242095D02*
X156932380Y-95242095D01*
X156932380Y-94861142D01*
X156980000Y-94765904D01*
X157027619Y-94718285D01*
X157122857Y-94670666D01*
X157265714Y-94670666D01*
X157360952Y-94718285D01*
X157408571Y-94765904D01*
X157456190Y-94861142D01*
X157456190Y-95242095D01*
X156932380Y-93765904D02*
X156932380Y-94242095D01*
X157408571Y-94289714D01*
X157360952Y-94242095D01*
X157313333Y-94146857D01*
X157313333Y-93908761D01*
X157360952Y-93813523D01*
X157408571Y-93765904D01*
X157503809Y-93718285D01*
X157741904Y-93718285D01*
X157837142Y-93765904D01*
X157884761Y-93813523D01*
X157932380Y-93908761D01*
X157932380Y-94146857D01*
X157884761Y-94242095D01*
X157837142Y-94289714D01*
X178097619Y-105775238D02*
X178050000Y-105870476D01*
X177954761Y-105965714D01*
X177811904Y-106108571D01*
X177764285Y-106203809D01*
X177764285Y-106299047D01*
X178002380Y-106251428D02*
X177954761Y-106346666D01*
X177859523Y-106441904D01*
X177669047Y-106489523D01*
X177335714Y-106489523D01*
X177145238Y-106441904D01*
X177050000Y-106346666D01*
X177002380Y-106251428D01*
X177002380Y-106060952D01*
X177050000Y-105965714D01*
X177145238Y-105870476D01*
X177335714Y-105822857D01*
X177669047Y-105822857D01*
X177859523Y-105870476D01*
X177954761Y-105965714D01*
X178002380Y-106060952D01*
X178002380Y-106251428D01*
X177097619Y-105441904D02*
X177050000Y-105394285D01*
X177002380Y-105299047D01*
X177002380Y-105060952D01*
X177050000Y-104965714D01*
X177097619Y-104918095D01*
X177192857Y-104870476D01*
X177288095Y-104870476D01*
X177430952Y-104918095D01*
X178002380Y-105489523D01*
X178002380Y-104870476D01*
X146772380Y-98325714D02*
X146772380Y-98801904D01*
X147248571Y-98849523D01*
X147200952Y-98801904D01*
X147153333Y-98706666D01*
X147153333Y-98468571D01*
X147200952Y-98373333D01*
X147248571Y-98325714D01*
X147343809Y-98278095D01*
X147581904Y-98278095D01*
X147677142Y-98325714D01*
X147724761Y-98373333D01*
X147772380Y-98468571D01*
X147772380Y-98706666D01*
X147724761Y-98801904D01*
X147677142Y-98849523D01*
X146772380Y-97992380D02*
X147772380Y-97659047D01*
X146772380Y-97325714D01*
X147772380Y-96230476D02*
X146772380Y-96230476D01*
X146772380Y-95849523D01*
X146820000Y-95754285D01*
X146867619Y-95706666D01*
X146962857Y-95659047D01*
X147105714Y-95659047D01*
X147200952Y-95706666D01*
X147248571Y-95754285D01*
X147296190Y-95849523D01*
X147296190Y-96230476D01*
X147772380Y-95087619D02*
X147724761Y-95182857D01*
X147677142Y-95230476D01*
X147581904Y-95278095D01*
X147296190Y-95278095D01*
X147200952Y-95230476D01*
X147153333Y-95182857D01*
X147105714Y-95087619D01*
X147105714Y-94944761D01*
X147153333Y-94849523D01*
X147200952Y-94801904D01*
X147296190Y-94754285D01*
X147581904Y-94754285D01*
X147677142Y-94801904D01*
X147724761Y-94849523D01*
X147772380Y-94944761D01*
X147772380Y-95087619D01*
X147105714Y-94420952D02*
X147772380Y-94230476D01*
X147296190Y-94040000D01*
X147772380Y-93849523D01*
X147105714Y-93659047D01*
X147724761Y-92897142D02*
X147772380Y-92992380D01*
X147772380Y-93182857D01*
X147724761Y-93278095D01*
X147629523Y-93325714D01*
X147248571Y-93325714D01*
X147153333Y-93278095D01*
X147105714Y-93182857D01*
X147105714Y-92992380D01*
X147153333Y-92897142D01*
X147248571Y-92849523D01*
X147343809Y-92849523D01*
X147439047Y-93325714D01*
X147772380Y-92420952D02*
X147105714Y-92420952D01*
X147296190Y-92420952D02*
X147200952Y-92373333D01*
X147153333Y-92325714D01*
X147105714Y-92230476D01*
X147105714Y-92135238D01*
X170477619Y-105775238D02*
X170430000Y-105870476D01*
X170334761Y-105965714D01*
X170191904Y-106108571D01*
X170144285Y-106203809D01*
X170144285Y-106299047D01*
X170382380Y-106251428D02*
X170334761Y-106346666D01*
X170239523Y-106441904D01*
X170049047Y-106489523D01*
X169715714Y-106489523D01*
X169525238Y-106441904D01*
X169430000Y-106346666D01*
X169382380Y-106251428D01*
X169382380Y-106060952D01*
X169430000Y-105965714D01*
X169525238Y-105870476D01*
X169715714Y-105822857D01*
X170049047Y-105822857D01*
X170239523Y-105870476D01*
X170334761Y-105965714D01*
X170382380Y-106060952D01*
X170382380Y-106251428D01*
X170382380Y-104870476D02*
X170382380Y-105441904D01*
X170382380Y-105156190D02*
X169382380Y-105156190D01*
X169525238Y-105251428D01*
X169620476Y-105346666D01*
X169668095Y-105441904D01*
X185662380Y-113089523D02*
X185662380Y-112470476D01*
X186043333Y-112803809D01*
X186043333Y-112660952D01*
X186090952Y-112565714D01*
X186138571Y-112518095D01*
X186233809Y-112470476D01*
X186471904Y-112470476D01*
X186567142Y-112518095D01*
X186614761Y-112565714D01*
X186662380Y-112660952D01*
X186662380Y-112946666D01*
X186614761Y-113041904D01*
X186567142Y-113089523D01*
X186567142Y-112041904D02*
X186614761Y-111994285D01*
X186662380Y-112041904D01*
X186614761Y-112089523D01*
X186567142Y-112041904D01*
X186662380Y-112041904D01*
X185662380Y-111660952D02*
X185662380Y-111041904D01*
X186043333Y-111375238D01*
X186043333Y-111232380D01*
X186090952Y-111137142D01*
X186138571Y-111089523D01*
X186233809Y-111041904D01*
X186471904Y-111041904D01*
X186567142Y-111089523D01*
X186614761Y-111137142D01*
X186662380Y-111232380D01*
X186662380Y-111518095D01*
X186614761Y-111613333D01*
X186567142Y-111660952D01*
X185662380Y-110756190D02*
X186662380Y-110422857D01*
X185662380Y-110089523D01*
X186662380Y-108994285D02*
X185662380Y-108994285D01*
X185757619Y-108565714D02*
X185710000Y-108518095D01*
X185662380Y-108422857D01*
X185662380Y-108184761D01*
X185710000Y-108089523D01*
X185757619Y-108041904D01*
X185852857Y-107994285D01*
X185948095Y-107994285D01*
X186090952Y-108041904D01*
X186662380Y-108613333D01*
X186662380Y-107994285D01*
X186567142Y-106994285D02*
X186614761Y-107041904D01*
X186662380Y-107184761D01*
X186662380Y-107280000D01*
X186614761Y-107422857D01*
X186519523Y-107518095D01*
X186424285Y-107565714D01*
X186233809Y-107613333D01*
X186090952Y-107613333D01*
X185900476Y-107565714D01*
X185805238Y-107518095D01*
X185710000Y-107422857D01*
X185662380Y-107280000D01*
X185662380Y-107184761D01*
X185710000Y-107041904D01*
X185757619Y-106994285D01*
X186138571Y-105470476D02*
X186186190Y-105327619D01*
X186233809Y-105280000D01*
X186329047Y-105232380D01*
X186471904Y-105232380D01*
X186567142Y-105280000D01*
X186614761Y-105327619D01*
X186662380Y-105422857D01*
X186662380Y-105803809D01*
X185662380Y-105803809D01*
X185662380Y-105470476D01*
X185710000Y-105375238D01*
X185757619Y-105327619D01*
X185852857Y-105280000D01*
X185948095Y-105280000D01*
X186043333Y-105327619D01*
X186090952Y-105375238D01*
X186138571Y-105470476D01*
X186138571Y-105803809D01*
X185995714Y-104375238D02*
X186662380Y-104375238D01*
X185995714Y-104803809D02*
X186519523Y-104803809D01*
X186614761Y-104756190D01*
X186662380Y-104660952D01*
X186662380Y-104518095D01*
X186614761Y-104422857D01*
X186567142Y-104375238D01*
X186614761Y-103946666D02*
X186662380Y-103851428D01*
X186662380Y-103660952D01*
X186614761Y-103565714D01*
X186519523Y-103518095D01*
X186471904Y-103518095D01*
X186376666Y-103565714D01*
X186329047Y-103660952D01*
X186329047Y-103803809D01*
X186281428Y-103899047D01*
X186186190Y-103946666D01*
X186138571Y-103946666D01*
X186043333Y-103899047D01*
X185995714Y-103803809D01*
X185995714Y-103660952D01*
X186043333Y-103565714D01*
X185662380Y-98325714D02*
X185662380Y-98801904D01*
X186138571Y-98849523D01*
X186090952Y-98801904D01*
X186043333Y-98706666D01*
X186043333Y-98468571D01*
X186090952Y-98373333D01*
X186138571Y-98325714D01*
X186233809Y-98278095D01*
X186471904Y-98278095D01*
X186567142Y-98325714D01*
X186614761Y-98373333D01*
X186662380Y-98468571D01*
X186662380Y-98706666D01*
X186614761Y-98801904D01*
X186567142Y-98849523D01*
X185662380Y-97992380D02*
X186662380Y-97659047D01*
X185662380Y-97325714D01*
X186662380Y-96230476D02*
X185662380Y-96230476D01*
X185662380Y-95849523D01*
X185710000Y-95754285D01*
X185757619Y-95706666D01*
X185852857Y-95659047D01*
X185995714Y-95659047D01*
X186090952Y-95706666D01*
X186138571Y-95754285D01*
X186186190Y-95849523D01*
X186186190Y-96230476D01*
X186662380Y-95087619D02*
X186614761Y-95182857D01*
X186567142Y-95230476D01*
X186471904Y-95278095D01*
X186186190Y-95278095D01*
X186090952Y-95230476D01*
X186043333Y-95182857D01*
X185995714Y-95087619D01*
X185995714Y-94944761D01*
X186043333Y-94849523D01*
X186090952Y-94801904D01*
X186186190Y-94754285D01*
X186471904Y-94754285D01*
X186567142Y-94801904D01*
X186614761Y-94849523D01*
X186662380Y-94944761D01*
X186662380Y-95087619D01*
X185995714Y-94420952D02*
X186662380Y-94230476D01*
X186186190Y-94040000D01*
X186662380Y-93849523D01*
X185995714Y-93659047D01*
X186614761Y-92897142D02*
X186662380Y-92992380D01*
X186662380Y-93182857D01*
X186614761Y-93278095D01*
X186519523Y-93325714D01*
X186138571Y-93325714D01*
X186043333Y-93278095D01*
X185995714Y-93182857D01*
X185995714Y-92992380D01*
X186043333Y-92897142D01*
X186138571Y-92849523D01*
X186233809Y-92849523D01*
X186329047Y-93325714D01*
X186662380Y-92420952D02*
X185995714Y-92420952D01*
X186186190Y-92420952D02*
X186090952Y-92373333D01*
X186043333Y-92325714D01*
X185995714Y-92230476D01*
X185995714Y-92135238D01*
X153122380Y-111473809D02*
X153122380Y-111950000D01*
X153598571Y-111997619D01*
X153550952Y-111950000D01*
X153503333Y-111854761D01*
X153503333Y-111616666D01*
X153550952Y-111521428D01*
X153598571Y-111473809D01*
X153693809Y-111426190D01*
X153931904Y-111426190D01*
X154027142Y-111473809D01*
X154074761Y-111521428D01*
X154122380Y-111616666D01*
X154122380Y-111854761D01*
X154074761Y-111950000D01*
X154027142Y-111997619D01*
X153122380Y-111140476D02*
X154122380Y-110807142D01*
X153122380Y-110473809D01*
X154122380Y-109378571D02*
X153122380Y-109378571D01*
X153217619Y-108950000D02*
X153170000Y-108902380D01*
X153122380Y-108807142D01*
X153122380Y-108569047D01*
X153170000Y-108473809D01*
X153217619Y-108426190D01*
X153312857Y-108378571D01*
X153408095Y-108378571D01*
X153550952Y-108426190D01*
X154122380Y-108997619D01*
X154122380Y-108378571D01*
X154027142Y-107378571D02*
X154074761Y-107426190D01*
X154122380Y-107569047D01*
X154122380Y-107664285D01*
X154074761Y-107807142D01*
X153979523Y-107902380D01*
X153884285Y-107950000D01*
X153693809Y-107997619D01*
X153550952Y-107997619D01*
X153360476Y-107950000D01*
X153265238Y-107902380D01*
X153170000Y-107807142D01*
X153122380Y-107664285D01*
X153122380Y-107569047D01*
X153170000Y-107426190D01*
X153217619Y-107378571D01*
X153598571Y-105854761D02*
X153646190Y-105711904D01*
X153693809Y-105664285D01*
X153789047Y-105616666D01*
X153931904Y-105616666D01*
X154027142Y-105664285D01*
X154074761Y-105711904D01*
X154122380Y-105807142D01*
X154122380Y-106188095D01*
X153122380Y-106188095D01*
X153122380Y-105854761D01*
X153170000Y-105759523D01*
X153217619Y-105711904D01*
X153312857Y-105664285D01*
X153408095Y-105664285D01*
X153503333Y-105711904D01*
X153550952Y-105759523D01*
X153598571Y-105854761D01*
X153598571Y-106188095D01*
X153455714Y-104759523D02*
X154122380Y-104759523D01*
X153455714Y-105188095D02*
X153979523Y-105188095D01*
X154074761Y-105140476D01*
X154122380Y-105045238D01*
X154122380Y-104902380D01*
X154074761Y-104807142D01*
X154027142Y-104759523D01*
X154074761Y-104330952D02*
X154122380Y-104235714D01*
X154122380Y-104045238D01*
X154074761Y-103950000D01*
X153979523Y-103902380D01*
X153931904Y-103902380D01*
X153836666Y-103950000D01*
X153789047Y-104045238D01*
X153789047Y-104188095D01*
X153741428Y-104283333D01*
X153646190Y-104330952D01*
X153598571Y-104330952D01*
X153503333Y-104283333D01*
X153455714Y-104188095D01*
X153455714Y-104045238D01*
X153503333Y-103950000D01*
X161742380Y-94670666D02*
X161266190Y-95004000D01*
X161742380Y-95242095D02*
X160742380Y-95242095D01*
X160742380Y-94861142D01*
X160790000Y-94765904D01*
X160837619Y-94718285D01*
X160932857Y-94670666D01*
X161075714Y-94670666D01*
X161170952Y-94718285D01*
X161218571Y-94765904D01*
X161266190Y-94861142D01*
X161266190Y-95242095D01*
X161742380Y-93718285D02*
X161742380Y-94289714D01*
X161742380Y-94004000D02*
X160742380Y-94004000D01*
X160885238Y-94099238D01*
X160980476Y-94194476D01*
X161028095Y-94289714D01*
X169362380Y-94670666D02*
X168886190Y-95004000D01*
X169362380Y-95242095D02*
X168362380Y-95242095D01*
X168362380Y-94861142D01*
X168410000Y-94765904D01*
X168457619Y-94718285D01*
X168552857Y-94670666D01*
X168695714Y-94670666D01*
X168790952Y-94718285D01*
X168838571Y-94765904D01*
X168886190Y-94861142D01*
X168886190Y-95242095D01*
X168362380Y-94337333D02*
X168362380Y-93718285D01*
X168743333Y-94051619D01*
X168743333Y-93908761D01*
X168790952Y-93813523D01*
X168838571Y-93765904D01*
X168933809Y-93718285D01*
X169171904Y-93718285D01*
X169267142Y-93765904D01*
X169314761Y-93813523D01*
X169362380Y-93908761D01*
X169362380Y-94194476D01*
X169314761Y-94289714D01*
X169267142Y-94337333D01*
X173172380Y-94670666D02*
X172696190Y-95004000D01*
X173172380Y-95242095D02*
X172172380Y-95242095D01*
X172172380Y-94861142D01*
X172220000Y-94765904D01*
X172267619Y-94718285D01*
X172362857Y-94670666D01*
X172505714Y-94670666D01*
X172600952Y-94718285D01*
X172648571Y-94765904D01*
X172696190Y-94861142D01*
X172696190Y-95242095D01*
X172505714Y-93813523D02*
X173172380Y-93813523D01*
X172124761Y-94051619D02*
X172839047Y-94289714D01*
X172839047Y-93670666D01*
X181403809Y-84392380D02*
X182022857Y-84392380D01*
X181689523Y-84773333D01*
X181832380Y-84773333D01*
X181927619Y-84820952D01*
X181975238Y-84868571D01*
X182022857Y-84963809D01*
X182022857Y-85201904D01*
X181975238Y-85297142D01*
X181927619Y-85344761D01*
X181832380Y-85392380D01*
X181546666Y-85392380D01*
X181451428Y-85344761D01*
X181403809Y-85297142D01*
X182451428Y-85297142D02*
X182499047Y-85344761D01*
X182451428Y-85392380D01*
X182403809Y-85344761D01*
X182451428Y-85297142D01*
X182451428Y-85392380D01*
X182832380Y-84392380D02*
X183451428Y-84392380D01*
X183118095Y-84773333D01*
X183260952Y-84773333D01*
X183356190Y-84820952D01*
X183403809Y-84868571D01*
X183451428Y-84963809D01*
X183451428Y-85201904D01*
X183403809Y-85297142D01*
X183356190Y-85344761D01*
X183260952Y-85392380D01*
X182975238Y-85392380D01*
X182880000Y-85344761D01*
X182832380Y-85297142D01*
X183737142Y-84392380D02*
X184070476Y-85392380D01*
X184403809Y-84392380D01*
X150939523Y-84392380D02*
X150463333Y-84392380D01*
X150415714Y-84868571D01*
X150463333Y-84820952D01*
X150558571Y-84773333D01*
X150796666Y-84773333D01*
X150891904Y-84820952D01*
X150939523Y-84868571D01*
X150987142Y-84963809D01*
X150987142Y-85201904D01*
X150939523Y-85297142D01*
X150891904Y-85344761D01*
X150796666Y-85392380D01*
X150558571Y-85392380D01*
X150463333Y-85344761D01*
X150415714Y-85297142D01*
X151272857Y-84392380D02*
X151606190Y-85392380D01*
X151939523Y-84392380D01*
X176982380Y-94670666D02*
X176506190Y-95004000D01*
X176982380Y-95242095D02*
X175982380Y-95242095D01*
X175982380Y-94861142D01*
X176030000Y-94765904D01*
X176077619Y-94718285D01*
X176172857Y-94670666D01*
X176315714Y-94670666D01*
X176410952Y-94718285D01*
X176458571Y-94765904D01*
X176506190Y-94861142D01*
X176506190Y-95242095D01*
X175982380Y-93813523D02*
X175982380Y-94004000D01*
X176030000Y-94099238D01*
X176077619Y-94146857D01*
X176220476Y-94242095D01*
X176410952Y-94289714D01*
X176791904Y-94289714D01*
X176887142Y-94242095D01*
X176934761Y-94194476D01*
X176982380Y-94099238D01*
X176982380Y-93908761D01*
X176934761Y-93813523D01*
X176887142Y-93765904D01*
X176791904Y-93718285D01*
X176553809Y-93718285D01*
X176458571Y-93765904D01*
X176410952Y-93813523D01*
X176363333Y-93908761D01*
X176363333Y-94099238D01*
X176410952Y-94194476D01*
X176458571Y-94242095D01*
X176553809Y-94289714D01*
M02*
