M48
; DRILL file {KiCad (5.1.5)-3} date 9/02/2020 11:05:03 AM
; FORMAT={-:-/ absolute / inch / decimal}
; #@! TF.CreationDate,2020-02-09T11:05:03+11:00
; #@! TF.GenerationSoftware,Kicad,Pcbnew,(5.1.5)-3
; #@! TF.FileFunction,Plated,1,2,PTH
FMAT,2
INCH
T1C0.0315
T2C0.0354
T3C0.0374
T4C0.0394
T5C0.0400
%
G90
G05
T1
X5.2Y-3.4516
X5.2Y-3.55
X5.25Y-4.0
X5.25Y-4.4
X5.4443Y-3.512
X5.4443Y-3.612
X5.4443Y-3.712
X5.4443Y-3.812
X5.4443Y-3.912
X5.4443Y-4.012
X5.4443Y-4.112
X5.4443Y-4.212
X5.4443Y-4.312
X5.4443Y-4.412
X5.7443Y-3.512
X5.7443Y-3.612
X5.7443Y-3.712
X5.7443Y-3.812
X5.7443Y-3.912
X5.7443Y-4.012
X5.7443Y-4.112
X5.7443Y-4.212
X5.7443Y-4.312
X5.7443Y-4.412
X5.0Y-3.4516
X5.0Y-3.55
X5.05Y-4.0
X5.05Y-4.4
X5.0079Y-3.75
X5.2Y-3.75
T2
X5.25Y-4.55
X5.25Y-4.65
X5.05Y-4.55
X5.05Y-4.65
T3
X6.0Y-3.5047
X6.0Y-3.6031
X6.0Y-3.7016
X6.0Y-3.8
X6.0Y-4.1047
X6.0Y-4.2031
X6.0Y-4.3016
X6.0Y-4.4
T4
X5.5516Y-3.2
X5.65Y-3.2
T5
X6.45Y-3.3
X6.45Y-3.4
X6.45Y-3.5
X6.45Y-3.6
X6.45Y-3.7
X6.55Y-3.3
X6.55Y-3.4
X6.55Y-3.5
X6.55Y-3.6
X6.55Y-3.7
T0
M30
