G04 #@! TF.GenerationSoftware,KiCad,Pcbnew,(5.1.5)-3*
G04 #@! TF.CreationDate,2020-02-09T11:05:27+11:00*
G04 #@! TF.ProjectId,US_Board1,55535f42-6f61-4726-9431-2e6b69636164,rev?*
G04 #@! TF.SameCoordinates,Original*
G04 #@! TF.FileFunction,Copper,L1,Top*
G04 #@! TF.FilePolarity,Positive*
%FSLAX46Y46*%
G04 Gerber Fmt 4.6, Leading zero omitted, Abs format (unit mm)*
G04 Created by KiCad (PCBNEW (5.1.5)-3) date 2020-02-09 11:05:27*
%MOMM*%
%LPD*%
G04 APERTURE LIST*
%ADD10O,1.600000X1.600000*%
%ADD11C,1.600000*%
%ADD12C,1.500000*%
%ADD13C,0.100000*%
%ADD14O,1.950000X1.700000*%
%ADD15R,1.727200X1.727200*%
%ADD16O,1.727200X1.727200*%
%ADD17R,1.800000X1.800000*%
%ADD18C,1.800000*%
%ADD19O,1.700000X2.000000*%
%ADD20R,1.600000X1.600000*%
%ADD21C,0.300000*%
%ADD22C,0.250000*%
%ADD23C,0.500000*%
G04 APERTURE END LIST*
D10*
X128270000Y-101600000D03*
D11*
X128270000Y-111760000D03*
X133350000Y-111760000D03*
D10*
X133350000Y-101600000D03*
D12*
X127200000Y-95250000D03*
X132080000Y-95250000D03*
D11*
X127000000Y-90170000D03*
X127000000Y-87670000D03*
X132080000Y-87670000D03*
X132080000Y-90170000D03*
G04 #@! TA.AperFunction,ComponentPad*
D13*
G36*
X153149504Y-95671204D02*
G01*
X153173773Y-95674804D01*
X153197571Y-95680765D01*
X153220671Y-95689030D01*
X153242849Y-95699520D01*
X153263893Y-95712133D01*
X153283598Y-95726747D01*
X153301777Y-95743223D01*
X153318253Y-95761402D01*
X153332867Y-95781107D01*
X153345480Y-95802151D01*
X153355970Y-95824329D01*
X153364235Y-95847429D01*
X153370196Y-95871227D01*
X153373796Y-95895496D01*
X153375000Y-95920000D01*
X153375000Y-97120000D01*
X153373796Y-97144504D01*
X153370196Y-97168773D01*
X153364235Y-97192571D01*
X153355970Y-97215671D01*
X153345480Y-97237849D01*
X153332867Y-97258893D01*
X153318253Y-97278598D01*
X153301777Y-97296777D01*
X153283598Y-97313253D01*
X153263893Y-97327867D01*
X153242849Y-97340480D01*
X153220671Y-97350970D01*
X153197571Y-97359235D01*
X153173773Y-97365196D01*
X153149504Y-97368796D01*
X153125000Y-97370000D01*
X151675000Y-97370000D01*
X151650496Y-97368796D01*
X151626227Y-97365196D01*
X151602429Y-97359235D01*
X151579329Y-97350970D01*
X151557151Y-97340480D01*
X151536107Y-97327867D01*
X151516402Y-97313253D01*
X151498223Y-97296777D01*
X151481747Y-97278598D01*
X151467133Y-97258893D01*
X151454520Y-97237849D01*
X151444030Y-97215671D01*
X151435765Y-97192571D01*
X151429804Y-97168773D01*
X151426204Y-97144504D01*
X151425000Y-97120000D01*
X151425000Y-95920000D01*
X151426204Y-95895496D01*
X151429804Y-95871227D01*
X151435765Y-95847429D01*
X151444030Y-95824329D01*
X151454520Y-95802151D01*
X151467133Y-95781107D01*
X151481747Y-95761402D01*
X151498223Y-95743223D01*
X151516402Y-95726747D01*
X151536107Y-95712133D01*
X151557151Y-95699520D01*
X151579329Y-95689030D01*
X151602429Y-95680765D01*
X151626227Y-95674804D01*
X151650496Y-95671204D01*
X151675000Y-95670000D01*
X153125000Y-95670000D01*
X153149504Y-95671204D01*
G37*
G04 #@! TD.AperFunction*
D14*
X152400000Y-94020000D03*
X152400000Y-91520000D03*
X152400000Y-89020000D03*
D15*
X163830000Y-83820000D03*
D16*
X166370000Y-83820000D03*
X163830000Y-86360000D03*
X166370000Y-86360000D03*
X163830000Y-88900000D03*
X166370000Y-88900000D03*
X163830000Y-91440000D03*
X166370000Y-91440000D03*
X163830000Y-93980000D03*
X166370000Y-93980000D03*
D17*
X133350000Y-118110000D03*
D18*
X133350000Y-115570000D03*
G04 #@! TA.AperFunction,ComponentPad*
D13*
G36*
X144134504Y-80281204D02*
G01*
X144158773Y-80284804D01*
X144182571Y-80290765D01*
X144205671Y-80299030D01*
X144227849Y-80309520D01*
X144248893Y-80322133D01*
X144268598Y-80336747D01*
X144286777Y-80353223D01*
X144303253Y-80371402D01*
X144317867Y-80391107D01*
X144330480Y-80412151D01*
X144340970Y-80434329D01*
X144349235Y-80457429D01*
X144355196Y-80481227D01*
X144358796Y-80505496D01*
X144360000Y-80530000D01*
X144360000Y-82030000D01*
X144358796Y-82054504D01*
X144355196Y-82078773D01*
X144349235Y-82102571D01*
X144340970Y-82125671D01*
X144330480Y-82147849D01*
X144317867Y-82168893D01*
X144303253Y-82188598D01*
X144286777Y-82206777D01*
X144268598Y-82223253D01*
X144248893Y-82237867D01*
X144227849Y-82250480D01*
X144205671Y-82260970D01*
X144182571Y-82269235D01*
X144158773Y-82275196D01*
X144134504Y-82278796D01*
X144110000Y-82280000D01*
X142910000Y-82280000D01*
X142885496Y-82278796D01*
X142861227Y-82275196D01*
X142837429Y-82269235D01*
X142814329Y-82260970D01*
X142792151Y-82250480D01*
X142771107Y-82237867D01*
X142751402Y-82223253D01*
X142733223Y-82206777D01*
X142716747Y-82188598D01*
X142702133Y-82168893D01*
X142689520Y-82147849D01*
X142679030Y-82125671D01*
X142670765Y-82102571D01*
X142664804Y-82078773D01*
X142661204Y-82054504D01*
X142660000Y-82030000D01*
X142660000Y-80530000D01*
X142661204Y-80505496D01*
X142664804Y-80481227D01*
X142670765Y-80457429D01*
X142679030Y-80434329D01*
X142689520Y-80412151D01*
X142702133Y-80391107D01*
X142716747Y-80371402D01*
X142733223Y-80353223D01*
X142751402Y-80336747D01*
X142771107Y-80322133D01*
X142792151Y-80309520D01*
X142814329Y-80299030D01*
X142837429Y-80290765D01*
X142861227Y-80284804D01*
X142885496Y-80281204D01*
X142910000Y-80280000D01*
X144110000Y-80280000D01*
X144134504Y-80281204D01*
G37*
G04 #@! TD.AperFunction*
D19*
X141010000Y-81280000D03*
D18*
X128270000Y-115570000D03*
D17*
X128270000Y-118110000D03*
D20*
X138285001Y-89205001D03*
D10*
X145905001Y-112065001D03*
X138285001Y-91745001D03*
X145905001Y-109525001D03*
X138285001Y-94285001D03*
X145905001Y-106985001D03*
X138285001Y-96825001D03*
X145905001Y-104445001D03*
X138285001Y-99365001D03*
X145905001Y-101905001D03*
X138285001Y-101905001D03*
X145905001Y-99365001D03*
X138285001Y-104445001D03*
X145905001Y-96825001D03*
X138285001Y-106985001D03*
X145905001Y-94285001D03*
X138285001Y-109525001D03*
X145905001Y-91745001D03*
X138285001Y-112065001D03*
X145905001Y-89205001D03*
D14*
X152400000Y-104260000D03*
X152400000Y-106760000D03*
X152400000Y-109260000D03*
G04 #@! TA.AperFunction,ComponentPad*
D13*
G36*
X153149504Y-110911204D02*
G01*
X153173773Y-110914804D01*
X153197571Y-110920765D01*
X153220671Y-110929030D01*
X153242849Y-110939520D01*
X153263893Y-110952133D01*
X153283598Y-110966747D01*
X153301777Y-110983223D01*
X153318253Y-111001402D01*
X153332867Y-111021107D01*
X153345480Y-111042151D01*
X153355970Y-111064329D01*
X153364235Y-111087429D01*
X153370196Y-111111227D01*
X153373796Y-111135496D01*
X153375000Y-111160000D01*
X153375000Y-112360000D01*
X153373796Y-112384504D01*
X153370196Y-112408773D01*
X153364235Y-112432571D01*
X153355970Y-112455671D01*
X153345480Y-112477849D01*
X153332867Y-112498893D01*
X153318253Y-112518598D01*
X153301777Y-112536777D01*
X153283598Y-112553253D01*
X153263893Y-112567867D01*
X153242849Y-112580480D01*
X153220671Y-112590970D01*
X153197571Y-112599235D01*
X153173773Y-112605196D01*
X153149504Y-112608796D01*
X153125000Y-112610000D01*
X151675000Y-112610000D01*
X151650496Y-112608796D01*
X151626227Y-112605196D01*
X151602429Y-112599235D01*
X151579329Y-112590970D01*
X151557151Y-112580480D01*
X151536107Y-112567867D01*
X151516402Y-112553253D01*
X151498223Y-112536777D01*
X151481747Y-112518598D01*
X151467133Y-112498893D01*
X151454520Y-112477849D01*
X151444030Y-112455671D01*
X151435765Y-112432571D01*
X151429804Y-112408773D01*
X151426204Y-112384504D01*
X151425000Y-112360000D01*
X151425000Y-111160000D01*
X151426204Y-111135496D01*
X151429804Y-111111227D01*
X151435765Y-111087429D01*
X151444030Y-111064329D01*
X151454520Y-111042151D01*
X151467133Y-111021107D01*
X151481747Y-111001402D01*
X151498223Y-110983223D01*
X151516402Y-110966747D01*
X151536107Y-110952133D01*
X151557151Y-110939520D01*
X151579329Y-110929030D01*
X151602429Y-110920765D01*
X151626227Y-110914804D01*
X151650496Y-110911204D01*
X151675000Y-110910000D01*
X153125000Y-110910000D01*
X153149504Y-110911204D01*
G37*
G04 #@! TD.AperFunction*
D21*
X133350000Y-111760000D02*
X133350000Y-115570000D01*
X136195001Y-104445001D02*
X133350000Y-101600000D01*
X138285001Y-104445001D02*
X136195001Y-104445001D01*
X133655001Y-106985001D02*
X128270000Y-101600000D01*
X138285001Y-106985001D02*
X133655001Y-106985001D01*
X128270000Y-111760000D02*
X128270000Y-115570000D01*
X127000000Y-95050000D02*
X127200000Y-95250000D01*
X127000000Y-90170000D02*
X127000000Y-95050000D01*
X131315001Y-99365001D02*
X127200000Y-95250000D01*
X138285001Y-99365001D02*
X131315001Y-99365001D01*
X132080000Y-90170000D02*
X132080000Y-95250000D01*
X133655001Y-96825001D02*
X132080000Y-95250000D01*
X138285001Y-96825001D02*
X133655001Y-96825001D01*
D22*
X152094999Y-96825001D02*
X152400000Y-96520000D01*
X145905001Y-96825001D02*
X152094999Y-96825001D01*
X153375000Y-96520000D02*
X152400000Y-96520000D01*
X148180000Y-94020000D02*
X152400000Y-94020000D01*
X145905001Y-91745001D02*
X148180000Y-94020000D01*
X161250000Y-94020000D02*
X163830000Y-91440000D01*
X152400000Y-94020000D02*
X161250000Y-94020000D01*
D21*
X141010000Y-81280000D02*
X140970000Y-81280000D01*
D23*
X141010000Y-82780000D02*
X141010000Y-81280000D01*
X136120000Y-87670000D02*
X141010000Y-82780000D01*
X132080000Y-87670000D02*
X136120000Y-87670000D01*
X132080000Y-87670000D02*
X127000000Y-87670000D01*
X127000000Y-87670000D02*
X125690000Y-87670000D01*
X125690000Y-87670000D02*
X124460000Y-88900000D01*
X126870000Y-118110000D02*
X128270000Y-118110000D01*
X124460000Y-115700000D02*
X126870000Y-118110000D01*
X124460000Y-88900000D02*
X124460000Y-115700000D01*
X128270000Y-118110000D02*
X133350000Y-118110000D01*
X152400000Y-112610000D02*
X152400000Y-111760000D01*
X146900000Y-118110000D02*
X152400000Y-112610000D01*
X138285001Y-112065001D02*
X138285001Y-117965001D01*
X138285001Y-117965001D02*
X138430000Y-118110000D01*
X133350000Y-118110000D02*
X138430000Y-118110000D01*
X138430000Y-118110000D02*
X146900000Y-118110000D01*
X166370000Y-95201314D02*
X166370000Y-93980000D01*
X166370000Y-98765000D02*
X166370000Y-95201314D01*
X153375000Y-111760000D02*
X166370000Y-98765000D01*
X152400000Y-111760000D02*
X153375000Y-111760000D01*
X166370000Y-93980000D02*
X166370000Y-91440000D01*
X166370000Y-91440000D02*
X166370000Y-88900000D01*
X166370000Y-88900000D02*
X166370000Y-86360000D01*
X163830000Y-81280000D02*
X166370000Y-83820000D01*
X143510000Y-81280000D02*
X163830000Y-81280000D01*
D22*
X139335001Y-89205001D02*
X143450002Y-85090000D01*
X138285001Y-89205001D02*
X139335001Y-89205001D01*
X160020000Y-85090000D02*
X163830000Y-88900000D01*
X143450002Y-85090000D02*
X157480000Y-85090000D01*
X160020000Y-85090000D02*
X157480000Y-85090000D01*
X148710002Y-109260000D02*
X152400000Y-109260000D01*
X145905001Y-112065001D02*
X148710002Y-109260000D01*
X148220000Y-106760000D02*
X152400000Y-106760000D01*
X145905001Y-104445001D02*
X148220000Y-106760000D01*
M02*
