G04 #@! TF.GenerationSoftware,KiCad,Pcbnew,(5.1.5)-3*
G04 #@! TF.CreationDate,2020-02-09T11:05:27+11:00*
G04 #@! TF.ProjectId,US_Board1,55535f42-6f61-4726-9431-2e6b69636164,rev?*
G04 #@! TF.SameCoordinates,Original*
G04 #@! TF.FileFunction,Soldermask,Top*
G04 #@! TF.FilePolarity,Negative*
%FSLAX46Y46*%
G04 Gerber Fmt 4.6, Leading zero omitted, Abs format (unit mm)*
G04 Created by KiCad (PCBNEW (5.1.5)-3) date 2020-02-09 11:05:27*
%MOMM*%
%LPD*%
G04 APERTURE LIST*
%ADD10C,0.100000*%
G04 APERTURE END LIST*
D10*
G36*
X134301000Y-119061000D02*
G01*
X132399000Y-119061000D01*
X132399000Y-117159000D01*
X134301000Y-117159000D01*
X134301000Y-119061000D01*
G37*
G36*
X129221000Y-119061000D02*
G01*
X127319000Y-119061000D01*
X127319000Y-117159000D01*
X129221000Y-117159000D01*
X129221000Y-119061000D01*
G37*
G36*
X164205256Y-113961298D02*
G01*
X164311579Y-113982447D01*
X164612042Y-114106903D01*
X164882451Y-114287585D01*
X165112415Y-114517549D01*
X165293097Y-114787958D01*
X165417553Y-115088421D01*
X165423742Y-115119534D01*
X165481000Y-115407389D01*
X165481000Y-115732611D01*
X165438702Y-115945256D01*
X165417553Y-116051579D01*
X165293097Y-116352042D01*
X165112415Y-116622451D01*
X164882451Y-116852415D01*
X164612042Y-117033097D01*
X164311579Y-117157553D01*
X164205256Y-117178702D01*
X163992611Y-117221000D01*
X163667389Y-117221000D01*
X163454744Y-117178702D01*
X163348421Y-117157553D01*
X163047958Y-117033097D01*
X162777549Y-116852415D01*
X162547585Y-116622451D01*
X162366903Y-116352042D01*
X162242447Y-116051579D01*
X162221298Y-115945256D01*
X162179000Y-115732611D01*
X162179000Y-115407389D01*
X162236258Y-115119534D01*
X162242447Y-115088421D01*
X162366903Y-114787958D01*
X162547585Y-114517549D01*
X162777549Y-114287585D01*
X163047958Y-114106903D01*
X163348421Y-113982447D01*
X163454744Y-113961298D01*
X163667389Y-113919000D01*
X163992611Y-113919000D01*
X164205256Y-113961298D01*
G37*
G36*
X128547395Y-114655546D02*
G01*
X128720466Y-114727234D01*
X128720467Y-114727235D01*
X128876227Y-114831310D01*
X129008690Y-114963773D01*
X129008691Y-114963775D01*
X129112766Y-115119534D01*
X129184454Y-115292605D01*
X129221000Y-115476333D01*
X129221000Y-115663667D01*
X129184454Y-115847395D01*
X129112766Y-116020466D01*
X129091977Y-116051579D01*
X129008690Y-116176227D01*
X128876227Y-116308690D01*
X128811349Y-116352040D01*
X128720466Y-116412766D01*
X128547395Y-116484454D01*
X128363667Y-116521000D01*
X128176333Y-116521000D01*
X127992605Y-116484454D01*
X127819534Y-116412766D01*
X127728651Y-116352040D01*
X127663773Y-116308690D01*
X127531310Y-116176227D01*
X127448023Y-116051579D01*
X127427234Y-116020466D01*
X127355546Y-115847395D01*
X127319000Y-115663667D01*
X127319000Y-115476333D01*
X127355546Y-115292605D01*
X127427234Y-115119534D01*
X127531309Y-114963775D01*
X127531310Y-114963773D01*
X127663773Y-114831310D01*
X127819533Y-114727235D01*
X127819534Y-114727234D01*
X127992605Y-114655546D01*
X128176333Y-114619000D01*
X128363667Y-114619000D01*
X128547395Y-114655546D01*
G37*
G36*
X133627395Y-114655546D02*
G01*
X133800466Y-114727234D01*
X133800467Y-114727235D01*
X133956227Y-114831310D01*
X134088690Y-114963773D01*
X134088691Y-114963775D01*
X134192766Y-115119534D01*
X134264454Y-115292605D01*
X134301000Y-115476333D01*
X134301000Y-115663667D01*
X134264454Y-115847395D01*
X134192766Y-116020466D01*
X134171977Y-116051579D01*
X134088690Y-116176227D01*
X133956227Y-116308690D01*
X133891349Y-116352040D01*
X133800466Y-116412766D01*
X133627395Y-116484454D01*
X133443667Y-116521000D01*
X133256333Y-116521000D01*
X133072605Y-116484454D01*
X132899534Y-116412766D01*
X132808651Y-116352040D01*
X132743773Y-116308690D01*
X132611310Y-116176227D01*
X132528023Y-116051579D01*
X132507234Y-116020466D01*
X132435546Y-115847395D01*
X132399000Y-115663667D01*
X132399000Y-115476333D01*
X132435546Y-115292605D01*
X132507234Y-115119534D01*
X132611309Y-114963775D01*
X132611310Y-114963773D01*
X132743773Y-114831310D01*
X132899533Y-114727235D01*
X132899534Y-114727234D01*
X133072605Y-114655546D01*
X133256333Y-114619000D01*
X133443667Y-114619000D01*
X133627395Y-114655546D01*
G37*
G36*
X138533229Y-111246704D02*
G01*
X138688101Y-111310854D01*
X138827482Y-111403986D01*
X138946016Y-111522520D01*
X139039148Y-111661901D01*
X139103298Y-111816773D01*
X139136001Y-111981185D01*
X139136001Y-112148817D01*
X139103298Y-112313229D01*
X139039148Y-112468101D01*
X138946016Y-112607482D01*
X138827482Y-112726016D01*
X138688101Y-112819148D01*
X138533229Y-112883298D01*
X138368817Y-112916001D01*
X138201185Y-112916001D01*
X138036773Y-112883298D01*
X137881901Y-112819148D01*
X137742520Y-112726016D01*
X137623986Y-112607482D01*
X137530854Y-112468101D01*
X137466704Y-112313229D01*
X137434001Y-112148817D01*
X137434001Y-111981185D01*
X137466704Y-111816773D01*
X137530854Y-111661901D01*
X137623986Y-111522520D01*
X137742520Y-111403986D01*
X137881901Y-111310854D01*
X138036773Y-111246704D01*
X138201185Y-111214001D01*
X138368817Y-111214001D01*
X138533229Y-111246704D01*
G37*
G36*
X146153229Y-111246704D02*
G01*
X146308101Y-111310854D01*
X146447482Y-111403986D01*
X146566016Y-111522520D01*
X146659148Y-111661901D01*
X146723298Y-111816773D01*
X146756001Y-111981185D01*
X146756001Y-112148817D01*
X146723298Y-112313229D01*
X146659148Y-112468101D01*
X146566016Y-112607482D01*
X146447482Y-112726016D01*
X146308101Y-112819148D01*
X146153229Y-112883298D01*
X145988817Y-112916001D01*
X145821185Y-112916001D01*
X145656773Y-112883298D01*
X145501901Y-112819148D01*
X145362520Y-112726016D01*
X145243986Y-112607482D01*
X145150854Y-112468101D01*
X145086704Y-112313229D01*
X145054001Y-112148817D01*
X145054001Y-111981185D01*
X145086704Y-111816773D01*
X145150854Y-111661901D01*
X145243986Y-111522520D01*
X145362520Y-111403986D01*
X145501901Y-111310854D01*
X145656773Y-111246704D01*
X145821185Y-111214001D01*
X145988817Y-111214001D01*
X146153229Y-111246704D01*
G37*
G36*
X153283600Y-110862989D02*
G01*
X153316652Y-110873015D01*
X153347103Y-110889292D01*
X153373799Y-110911201D01*
X153395708Y-110937897D01*
X153411985Y-110968348D01*
X153422011Y-111001400D01*
X153426000Y-111041903D01*
X153426000Y-112478097D01*
X153422011Y-112518600D01*
X153411985Y-112551652D01*
X153395708Y-112582103D01*
X153373799Y-112608799D01*
X153347103Y-112630708D01*
X153316652Y-112646985D01*
X153283600Y-112657011D01*
X153243097Y-112661000D01*
X151556903Y-112661000D01*
X151516400Y-112657011D01*
X151483348Y-112646985D01*
X151452897Y-112630708D01*
X151426201Y-112608799D01*
X151404292Y-112582103D01*
X151388015Y-112551652D01*
X151377989Y-112518600D01*
X151374000Y-112478097D01*
X151374000Y-111041903D01*
X151377989Y-111001400D01*
X151388015Y-110968348D01*
X151404292Y-110937897D01*
X151426201Y-110911201D01*
X151452897Y-110889292D01*
X151483348Y-110873015D01*
X151516400Y-110862989D01*
X151556903Y-110859000D01*
X153243097Y-110859000D01*
X153283600Y-110862989D01*
G37*
G36*
X128518228Y-110941703D02*
G01*
X128673100Y-111005853D01*
X128812481Y-111098985D01*
X128931015Y-111217519D01*
X129024147Y-111356900D01*
X129088297Y-111511772D01*
X129121000Y-111676184D01*
X129121000Y-111843816D01*
X129088297Y-112008228D01*
X129024147Y-112163100D01*
X128931015Y-112302481D01*
X128812481Y-112421015D01*
X128673100Y-112514147D01*
X128518228Y-112578297D01*
X128353816Y-112611000D01*
X128186184Y-112611000D01*
X128021772Y-112578297D01*
X127866900Y-112514147D01*
X127727519Y-112421015D01*
X127608985Y-112302481D01*
X127515853Y-112163100D01*
X127451703Y-112008228D01*
X127419000Y-111843816D01*
X127419000Y-111676184D01*
X127451703Y-111511772D01*
X127515853Y-111356900D01*
X127608985Y-111217519D01*
X127727519Y-111098985D01*
X127866900Y-111005853D01*
X128021772Y-110941703D01*
X128186184Y-110909000D01*
X128353816Y-110909000D01*
X128518228Y-110941703D01*
G37*
G36*
X133598228Y-110941703D02*
G01*
X133753100Y-111005853D01*
X133892481Y-111098985D01*
X134011015Y-111217519D01*
X134104147Y-111356900D01*
X134168297Y-111511772D01*
X134201000Y-111676184D01*
X134201000Y-111843816D01*
X134168297Y-112008228D01*
X134104147Y-112163100D01*
X134011015Y-112302481D01*
X133892481Y-112421015D01*
X133753100Y-112514147D01*
X133598228Y-112578297D01*
X133433816Y-112611000D01*
X133266184Y-112611000D01*
X133101772Y-112578297D01*
X132946900Y-112514147D01*
X132807519Y-112421015D01*
X132688985Y-112302481D01*
X132595853Y-112163100D01*
X132531703Y-112008228D01*
X132499000Y-111843816D01*
X132499000Y-111676184D01*
X132531703Y-111511772D01*
X132595853Y-111356900D01*
X132688985Y-111217519D01*
X132807519Y-111098985D01*
X132946900Y-111005853D01*
X133101772Y-110941703D01*
X133266184Y-110909000D01*
X133433816Y-110909000D01*
X133598228Y-110941703D01*
G37*
G36*
X138533229Y-108706704D02*
G01*
X138688101Y-108770854D01*
X138827482Y-108863986D01*
X138946016Y-108982520D01*
X139039148Y-109121901D01*
X139103298Y-109276773D01*
X139136001Y-109441185D01*
X139136001Y-109608817D01*
X139103298Y-109773229D01*
X139039148Y-109928101D01*
X138946016Y-110067482D01*
X138827482Y-110186016D01*
X138688101Y-110279148D01*
X138533229Y-110343298D01*
X138368817Y-110376001D01*
X138201185Y-110376001D01*
X138036773Y-110343298D01*
X137881901Y-110279148D01*
X137742520Y-110186016D01*
X137623986Y-110067482D01*
X137530854Y-109928101D01*
X137466704Y-109773229D01*
X137434001Y-109608817D01*
X137434001Y-109441185D01*
X137466704Y-109276773D01*
X137530854Y-109121901D01*
X137623986Y-108982520D01*
X137742520Y-108863986D01*
X137881901Y-108770854D01*
X138036773Y-108706704D01*
X138201185Y-108674001D01*
X138368817Y-108674001D01*
X138533229Y-108706704D01*
G37*
G36*
X146153229Y-108706704D02*
G01*
X146308101Y-108770854D01*
X146447482Y-108863986D01*
X146566016Y-108982520D01*
X146659148Y-109121901D01*
X146723298Y-109276773D01*
X146756001Y-109441185D01*
X146756001Y-109608817D01*
X146723298Y-109773229D01*
X146659148Y-109928101D01*
X146566016Y-110067482D01*
X146447482Y-110186016D01*
X146308101Y-110279148D01*
X146153229Y-110343298D01*
X145988817Y-110376001D01*
X145821185Y-110376001D01*
X145656773Y-110343298D01*
X145501901Y-110279148D01*
X145362520Y-110186016D01*
X145243986Y-110067482D01*
X145150854Y-109928101D01*
X145086704Y-109773229D01*
X145054001Y-109608817D01*
X145054001Y-109441185D01*
X145086704Y-109276773D01*
X145150854Y-109121901D01*
X145243986Y-108982520D01*
X145362520Y-108863986D01*
X145501901Y-108770854D01*
X145656773Y-108706704D01*
X145821185Y-108674001D01*
X145988817Y-108674001D01*
X146153229Y-108706704D01*
G37*
G36*
X152635443Y-108365519D02*
G01*
X152701627Y-108372037D01*
X152871466Y-108423557D01*
X153027991Y-108507222D01*
X153063729Y-108536552D01*
X153165186Y-108619814D01*
X153236495Y-108706706D01*
X153277778Y-108757009D01*
X153361443Y-108913534D01*
X153412963Y-109083373D01*
X153430359Y-109260000D01*
X153412963Y-109436627D01*
X153361443Y-109606466D01*
X153277778Y-109762991D01*
X153269375Y-109773230D01*
X153165186Y-109900186D01*
X153063729Y-109983448D01*
X153027991Y-110012778D01*
X152871466Y-110096443D01*
X152701627Y-110147963D01*
X152635442Y-110154482D01*
X152569260Y-110161000D01*
X152230740Y-110161000D01*
X152164558Y-110154482D01*
X152098373Y-110147963D01*
X151928534Y-110096443D01*
X151772009Y-110012778D01*
X151736271Y-109983448D01*
X151634814Y-109900186D01*
X151530625Y-109773230D01*
X151522222Y-109762991D01*
X151438557Y-109606466D01*
X151387037Y-109436627D01*
X151369641Y-109260000D01*
X151387037Y-109083373D01*
X151438557Y-108913534D01*
X151522222Y-108757009D01*
X151563505Y-108706706D01*
X151634814Y-108619814D01*
X151736271Y-108536552D01*
X151772009Y-108507222D01*
X151928534Y-108423557D01*
X152098373Y-108372037D01*
X152164557Y-108365519D01*
X152230740Y-108359000D01*
X152569260Y-108359000D01*
X152635443Y-108365519D01*
G37*
G36*
X146153229Y-106166704D02*
G01*
X146308101Y-106230854D01*
X146447482Y-106323986D01*
X146566016Y-106442520D01*
X146659148Y-106581901D01*
X146723298Y-106736773D01*
X146756001Y-106901185D01*
X146756001Y-107068817D01*
X146723298Y-107233229D01*
X146659148Y-107388101D01*
X146566016Y-107527482D01*
X146447482Y-107646016D01*
X146308101Y-107739148D01*
X146153229Y-107803298D01*
X145988817Y-107836001D01*
X145821185Y-107836001D01*
X145656773Y-107803298D01*
X145501901Y-107739148D01*
X145362520Y-107646016D01*
X145243986Y-107527482D01*
X145150854Y-107388101D01*
X145086704Y-107233229D01*
X145054001Y-107068817D01*
X145054001Y-106901185D01*
X145086704Y-106736773D01*
X145150854Y-106581901D01*
X145243986Y-106442520D01*
X145362520Y-106323986D01*
X145501901Y-106230854D01*
X145656773Y-106166704D01*
X145821185Y-106134001D01*
X145988817Y-106134001D01*
X146153229Y-106166704D01*
G37*
G36*
X138533229Y-106166704D02*
G01*
X138688101Y-106230854D01*
X138827482Y-106323986D01*
X138946016Y-106442520D01*
X139039148Y-106581901D01*
X139103298Y-106736773D01*
X139136001Y-106901185D01*
X139136001Y-107068817D01*
X139103298Y-107233229D01*
X139039148Y-107388101D01*
X138946016Y-107527482D01*
X138827482Y-107646016D01*
X138688101Y-107739148D01*
X138533229Y-107803298D01*
X138368817Y-107836001D01*
X138201185Y-107836001D01*
X138036773Y-107803298D01*
X137881901Y-107739148D01*
X137742520Y-107646016D01*
X137623986Y-107527482D01*
X137530854Y-107388101D01*
X137466704Y-107233229D01*
X137434001Y-107068817D01*
X137434001Y-106901185D01*
X137466704Y-106736773D01*
X137530854Y-106581901D01*
X137623986Y-106442520D01*
X137742520Y-106323986D01*
X137881901Y-106230854D01*
X138036773Y-106166704D01*
X138201185Y-106134001D01*
X138368817Y-106134001D01*
X138533229Y-106166704D01*
G37*
G36*
X152635442Y-105865518D02*
G01*
X152701627Y-105872037D01*
X152871466Y-105923557D01*
X153027991Y-106007222D01*
X153063729Y-106036552D01*
X153165186Y-106119814D01*
X153248448Y-106221271D01*
X153277778Y-106257009D01*
X153361443Y-106413534D01*
X153412963Y-106583373D01*
X153430359Y-106760000D01*
X153412963Y-106936627D01*
X153361443Y-107106466D01*
X153277778Y-107262991D01*
X153248448Y-107298729D01*
X153165186Y-107400186D01*
X153063729Y-107483448D01*
X153027991Y-107512778D01*
X152871466Y-107596443D01*
X152701627Y-107647963D01*
X152635442Y-107654482D01*
X152569260Y-107661000D01*
X152230740Y-107661000D01*
X152164558Y-107654482D01*
X152098373Y-107647963D01*
X151928534Y-107596443D01*
X151772009Y-107512778D01*
X151736271Y-107483448D01*
X151634814Y-107400186D01*
X151551552Y-107298729D01*
X151522222Y-107262991D01*
X151438557Y-107106466D01*
X151387037Y-106936627D01*
X151369641Y-106760000D01*
X151387037Y-106583373D01*
X151438557Y-106413534D01*
X151522222Y-106257009D01*
X151551552Y-106221271D01*
X151634814Y-106119814D01*
X151736271Y-106036552D01*
X151772009Y-106007222D01*
X151928534Y-105923557D01*
X152098373Y-105872037D01*
X152164558Y-105865518D01*
X152230740Y-105859000D01*
X152569260Y-105859000D01*
X152635442Y-105865518D01*
G37*
G36*
X146153229Y-103626704D02*
G01*
X146308101Y-103690854D01*
X146447482Y-103783986D01*
X146566016Y-103902520D01*
X146659148Y-104041901D01*
X146723298Y-104196773D01*
X146756001Y-104361185D01*
X146756001Y-104528817D01*
X146723298Y-104693229D01*
X146659148Y-104848101D01*
X146566016Y-104987482D01*
X146447482Y-105106016D01*
X146308101Y-105199148D01*
X146153229Y-105263298D01*
X145988817Y-105296001D01*
X145821185Y-105296001D01*
X145656773Y-105263298D01*
X145501901Y-105199148D01*
X145362520Y-105106016D01*
X145243986Y-104987482D01*
X145150854Y-104848101D01*
X145086704Y-104693229D01*
X145054001Y-104528817D01*
X145054001Y-104361185D01*
X145086704Y-104196773D01*
X145150854Y-104041901D01*
X145243986Y-103902520D01*
X145362520Y-103783986D01*
X145501901Y-103690854D01*
X145656773Y-103626704D01*
X145821185Y-103594001D01*
X145988817Y-103594001D01*
X146153229Y-103626704D01*
G37*
G36*
X138533229Y-103626704D02*
G01*
X138688101Y-103690854D01*
X138827482Y-103783986D01*
X138946016Y-103902520D01*
X139039148Y-104041901D01*
X139103298Y-104196773D01*
X139136001Y-104361185D01*
X139136001Y-104528817D01*
X139103298Y-104693229D01*
X139039148Y-104848101D01*
X138946016Y-104987482D01*
X138827482Y-105106016D01*
X138688101Y-105199148D01*
X138533229Y-105263298D01*
X138368817Y-105296001D01*
X138201185Y-105296001D01*
X138036773Y-105263298D01*
X137881901Y-105199148D01*
X137742520Y-105106016D01*
X137623986Y-104987482D01*
X137530854Y-104848101D01*
X137466704Y-104693229D01*
X137434001Y-104528817D01*
X137434001Y-104361185D01*
X137466704Y-104196773D01*
X137530854Y-104041901D01*
X137623986Y-103902520D01*
X137742520Y-103783986D01*
X137881901Y-103690854D01*
X138036773Y-103626704D01*
X138201185Y-103594001D01*
X138368817Y-103594001D01*
X138533229Y-103626704D01*
G37*
G36*
X152635443Y-103365519D02*
G01*
X152701627Y-103372037D01*
X152871466Y-103423557D01*
X153027991Y-103507222D01*
X153063729Y-103536552D01*
X153165186Y-103619814D01*
X153223485Y-103690853D01*
X153277778Y-103757009D01*
X153361443Y-103913534D01*
X153412963Y-104083373D01*
X153430359Y-104260000D01*
X153412963Y-104436627D01*
X153361443Y-104606466D01*
X153277778Y-104762991D01*
X153248448Y-104798729D01*
X153165186Y-104900186D01*
X153063729Y-104983448D01*
X153027991Y-105012778D01*
X152871466Y-105096443D01*
X152701627Y-105147963D01*
X152635442Y-105154482D01*
X152569260Y-105161000D01*
X152230740Y-105161000D01*
X152164557Y-105154481D01*
X152098373Y-105147963D01*
X151928534Y-105096443D01*
X151772009Y-105012778D01*
X151736271Y-104983448D01*
X151634814Y-104900186D01*
X151551552Y-104798729D01*
X151522222Y-104762991D01*
X151438557Y-104606466D01*
X151387037Y-104436627D01*
X151369641Y-104260000D01*
X151387037Y-104083373D01*
X151438557Y-103913534D01*
X151522222Y-103757009D01*
X151576515Y-103690853D01*
X151634814Y-103619814D01*
X151736271Y-103536552D01*
X151772009Y-103507222D01*
X151928534Y-103423557D01*
X152098373Y-103372037D01*
X152164557Y-103365519D01*
X152230740Y-103359000D01*
X152569260Y-103359000D01*
X152635443Y-103365519D01*
G37*
G36*
X146153229Y-101086704D02*
G01*
X146308101Y-101150854D01*
X146447482Y-101243986D01*
X146566016Y-101362520D01*
X146659148Y-101501901D01*
X146723298Y-101656773D01*
X146756001Y-101821185D01*
X146756001Y-101988817D01*
X146723298Y-102153229D01*
X146659148Y-102308101D01*
X146566016Y-102447482D01*
X146447482Y-102566016D01*
X146308101Y-102659148D01*
X146153229Y-102723298D01*
X145988817Y-102756001D01*
X145821185Y-102756001D01*
X145656773Y-102723298D01*
X145501901Y-102659148D01*
X145362520Y-102566016D01*
X145243986Y-102447482D01*
X145150854Y-102308101D01*
X145086704Y-102153229D01*
X145054001Y-101988817D01*
X145054001Y-101821185D01*
X145086704Y-101656773D01*
X145150854Y-101501901D01*
X145243986Y-101362520D01*
X145362520Y-101243986D01*
X145501901Y-101150854D01*
X145656773Y-101086704D01*
X145821185Y-101054001D01*
X145988817Y-101054001D01*
X146153229Y-101086704D01*
G37*
G36*
X138533229Y-101086704D02*
G01*
X138688101Y-101150854D01*
X138827482Y-101243986D01*
X138946016Y-101362520D01*
X139039148Y-101501901D01*
X139103298Y-101656773D01*
X139136001Y-101821185D01*
X139136001Y-101988817D01*
X139103298Y-102153229D01*
X139039148Y-102308101D01*
X138946016Y-102447482D01*
X138827482Y-102566016D01*
X138688101Y-102659148D01*
X138533229Y-102723298D01*
X138368817Y-102756001D01*
X138201185Y-102756001D01*
X138036773Y-102723298D01*
X137881901Y-102659148D01*
X137742520Y-102566016D01*
X137623986Y-102447482D01*
X137530854Y-102308101D01*
X137466704Y-102153229D01*
X137434001Y-101988817D01*
X137434001Y-101821185D01*
X137466704Y-101656773D01*
X137530854Y-101501901D01*
X137623986Y-101362520D01*
X137742520Y-101243986D01*
X137881901Y-101150854D01*
X138036773Y-101086704D01*
X138201185Y-101054001D01*
X138368817Y-101054001D01*
X138533229Y-101086704D01*
G37*
G36*
X128518228Y-100781703D02*
G01*
X128673100Y-100845853D01*
X128812481Y-100938985D01*
X128931015Y-101057519D01*
X129024147Y-101196900D01*
X129088297Y-101351772D01*
X129121000Y-101516184D01*
X129121000Y-101683816D01*
X129088297Y-101848228D01*
X129024147Y-102003100D01*
X128931015Y-102142481D01*
X128812481Y-102261015D01*
X128673100Y-102354147D01*
X128518228Y-102418297D01*
X128353816Y-102451000D01*
X128186184Y-102451000D01*
X128021772Y-102418297D01*
X127866900Y-102354147D01*
X127727519Y-102261015D01*
X127608985Y-102142481D01*
X127515853Y-102003100D01*
X127451703Y-101848228D01*
X127419000Y-101683816D01*
X127419000Y-101516184D01*
X127451703Y-101351772D01*
X127515853Y-101196900D01*
X127608985Y-101057519D01*
X127727519Y-100938985D01*
X127866900Y-100845853D01*
X128021772Y-100781703D01*
X128186184Y-100749000D01*
X128353816Y-100749000D01*
X128518228Y-100781703D01*
G37*
G36*
X133598228Y-100781703D02*
G01*
X133753100Y-100845853D01*
X133892481Y-100938985D01*
X134011015Y-101057519D01*
X134104147Y-101196900D01*
X134168297Y-101351772D01*
X134201000Y-101516184D01*
X134201000Y-101683816D01*
X134168297Y-101848228D01*
X134104147Y-102003100D01*
X134011015Y-102142481D01*
X133892481Y-102261015D01*
X133753100Y-102354147D01*
X133598228Y-102418297D01*
X133433816Y-102451000D01*
X133266184Y-102451000D01*
X133101772Y-102418297D01*
X132946900Y-102354147D01*
X132807519Y-102261015D01*
X132688985Y-102142481D01*
X132595853Y-102003100D01*
X132531703Y-101848228D01*
X132499000Y-101683816D01*
X132499000Y-101516184D01*
X132531703Y-101351772D01*
X132595853Y-101196900D01*
X132688985Y-101057519D01*
X132807519Y-100938985D01*
X132946900Y-100845853D01*
X133101772Y-100781703D01*
X133266184Y-100749000D01*
X133433816Y-100749000D01*
X133598228Y-100781703D01*
G37*
G36*
X146153229Y-98546704D02*
G01*
X146308101Y-98610854D01*
X146447482Y-98703986D01*
X146566016Y-98822520D01*
X146659148Y-98961901D01*
X146723298Y-99116773D01*
X146756001Y-99281185D01*
X146756001Y-99448817D01*
X146723298Y-99613229D01*
X146659148Y-99768101D01*
X146566016Y-99907482D01*
X146447482Y-100026016D01*
X146308101Y-100119148D01*
X146153229Y-100183298D01*
X145988817Y-100216001D01*
X145821185Y-100216001D01*
X145656773Y-100183298D01*
X145501901Y-100119148D01*
X145362520Y-100026016D01*
X145243986Y-99907482D01*
X145150854Y-99768101D01*
X145086704Y-99613229D01*
X145054001Y-99448817D01*
X145054001Y-99281185D01*
X145086704Y-99116773D01*
X145150854Y-98961901D01*
X145243986Y-98822520D01*
X145362520Y-98703986D01*
X145501901Y-98610854D01*
X145656773Y-98546704D01*
X145821185Y-98514001D01*
X145988817Y-98514001D01*
X146153229Y-98546704D01*
G37*
G36*
X138533229Y-98546704D02*
G01*
X138688101Y-98610854D01*
X138827482Y-98703986D01*
X138946016Y-98822520D01*
X139039148Y-98961901D01*
X139103298Y-99116773D01*
X139136001Y-99281185D01*
X139136001Y-99448817D01*
X139103298Y-99613229D01*
X139039148Y-99768101D01*
X138946016Y-99907482D01*
X138827482Y-100026016D01*
X138688101Y-100119148D01*
X138533229Y-100183298D01*
X138368817Y-100216001D01*
X138201185Y-100216001D01*
X138036773Y-100183298D01*
X137881901Y-100119148D01*
X137742520Y-100026016D01*
X137623986Y-99907482D01*
X137530854Y-99768101D01*
X137466704Y-99613229D01*
X137434001Y-99448817D01*
X137434001Y-99281185D01*
X137466704Y-99116773D01*
X137530854Y-98961901D01*
X137623986Y-98822520D01*
X137742520Y-98703986D01*
X137881901Y-98610854D01*
X138036773Y-98546704D01*
X138201185Y-98514001D01*
X138368817Y-98514001D01*
X138533229Y-98546704D01*
G37*
G36*
X146153229Y-96006704D02*
G01*
X146308101Y-96070854D01*
X146447482Y-96163986D01*
X146566016Y-96282520D01*
X146659148Y-96421901D01*
X146723298Y-96576773D01*
X146756001Y-96741185D01*
X146756001Y-96908817D01*
X146723298Y-97073229D01*
X146659148Y-97228101D01*
X146566016Y-97367482D01*
X146447482Y-97486016D01*
X146308101Y-97579148D01*
X146153229Y-97643298D01*
X145988817Y-97676001D01*
X145821185Y-97676001D01*
X145656773Y-97643298D01*
X145501901Y-97579148D01*
X145362520Y-97486016D01*
X145243986Y-97367482D01*
X145150854Y-97228101D01*
X145086704Y-97073229D01*
X145054001Y-96908817D01*
X145054001Y-96741185D01*
X145086704Y-96576773D01*
X145150854Y-96421901D01*
X145243986Y-96282520D01*
X145362520Y-96163986D01*
X145501901Y-96070854D01*
X145656773Y-96006704D01*
X145821185Y-95974001D01*
X145988817Y-95974001D01*
X146153229Y-96006704D01*
G37*
G36*
X138533229Y-96006704D02*
G01*
X138688101Y-96070854D01*
X138827482Y-96163986D01*
X138946016Y-96282520D01*
X139039148Y-96421901D01*
X139103298Y-96576773D01*
X139136001Y-96741185D01*
X139136001Y-96908817D01*
X139103298Y-97073229D01*
X139039148Y-97228101D01*
X138946016Y-97367482D01*
X138827482Y-97486016D01*
X138688101Y-97579148D01*
X138533229Y-97643298D01*
X138368817Y-97676001D01*
X138201185Y-97676001D01*
X138036773Y-97643298D01*
X137881901Y-97579148D01*
X137742520Y-97486016D01*
X137623986Y-97367482D01*
X137530854Y-97228101D01*
X137466704Y-97073229D01*
X137434001Y-96908817D01*
X137434001Y-96741185D01*
X137466704Y-96576773D01*
X137530854Y-96421901D01*
X137623986Y-96282520D01*
X137742520Y-96163986D01*
X137881901Y-96070854D01*
X138036773Y-96006704D01*
X138201185Y-95974001D01*
X138368817Y-95974001D01*
X138533229Y-96006704D01*
G37*
G36*
X153283600Y-95622989D02*
G01*
X153316652Y-95633015D01*
X153347103Y-95649292D01*
X153373799Y-95671201D01*
X153395708Y-95697897D01*
X153411985Y-95728348D01*
X153422011Y-95761400D01*
X153426000Y-95801903D01*
X153426000Y-97238097D01*
X153422011Y-97278600D01*
X153411985Y-97311652D01*
X153395708Y-97342103D01*
X153373799Y-97368799D01*
X153347103Y-97390708D01*
X153316652Y-97406985D01*
X153283600Y-97417011D01*
X153243097Y-97421000D01*
X151556903Y-97421000D01*
X151516400Y-97417011D01*
X151483348Y-97406985D01*
X151452897Y-97390708D01*
X151426201Y-97368799D01*
X151404292Y-97342103D01*
X151388015Y-97311652D01*
X151377989Y-97278600D01*
X151374000Y-97238097D01*
X151374000Y-95801903D01*
X151377989Y-95761400D01*
X151388015Y-95728348D01*
X151404292Y-95697897D01*
X151426201Y-95671201D01*
X151452897Y-95649292D01*
X151483348Y-95633015D01*
X151516400Y-95622989D01*
X151556903Y-95619000D01*
X153243097Y-95619000D01*
X153283600Y-95622989D01*
G37*
G36*
X132313642Y-94479781D02*
G01*
X132459414Y-94540162D01*
X132459416Y-94540163D01*
X132590608Y-94627822D01*
X132702178Y-94739392D01*
X132789837Y-94870584D01*
X132789838Y-94870586D01*
X132850219Y-95016358D01*
X132881000Y-95171107D01*
X132881000Y-95328893D01*
X132850219Y-95483642D01*
X132792499Y-95622989D01*
X132789837Y-95629416D01*
X132702178Y-95760608D01*
X132590608Y-95872178D01*
X132459416Y-95959837D01*
X132459415Y-95959838D01*
X132459414Y-95959838D01*
X132313642Y-96020219D01*
X132158893Y-96051000D01*
X132001107Y-96051000D01*
X131846358Y-96020219D01*
X131700586Y-95959838D01*
X131700585Y-95959838D01*
X131700584Y-95959837D01*
X131569392Y-95872178D01*
X131457822Y-95760608D01*
X131370163Y-95629416D01*
X131367501Y-95622989D01*
X131309781Y-95483642D01*
X131279000Y-95328893D01*
X131279000Y-95171107D01*
X131309781Y-95016358D01*
X131370162Y-94870586D01*
X131370163Y-94870584D01*
X131457822Y-94739392D01*
X131569392Y-94627822D01*
X131700584Y-94540163D01*
X131700586Y-94540162D01*
X131846358Y-94479781D01*
X132001107Y-94449000D01*
X132158893Y-94449000D01*
X132313642Y-94479781D01*
G37*
G36*
X127433642Y-94479781D02*
G01*
X127579414Y-94540162D01*
X127579416Y-94540163D01*
X127710608Y-94627822D01*
X127822178Y-94739392D01*
X127909837Y-94870584D01*
X127909838Y-94870586D01*
X127970219Y-95016358D01*
X128001000Y-95171107D01*
X128001000Y-95328893D01*
X127970219Y-95483642D01*
X127912499Y-95622989D01*
X127909837Y-95629416D01*
X127822178Y-95760608D01*
X127710608Y-95872178D01*
X127579416Y-95959837D01*
X127579415Y-95959838D01*
X127579414Y-95959838D01*
X127433642Y-96020219D01*
X127278893Y-96051000D01*
X127121107Y-96051000D01*
X126966358Y-96020219D01*
X126820586Y-95959838D01*
X126820585Y-95959838D01*
X126820584Y-95959837D01*
X126689392Y-95872178D01*
X126577822Y-95760608D01*
X126490163Y-95629416D01*
X126487501Y-95622989D01*
X126429781Y-95483642D01*
X126399000Y-95328893D01*
X126399000Y-95171107D01*
X126429781Y-95016358D01*
X126490162Y-94870586D01*
X126490163Y-94870584D01*
X126577822Y-94739392D01*
X126689392Y-94627822D01*
X126820584Y-94540163D01*
X126820586Y-94540162D01*
X126966358Y-94479781D01*
X127121107Y-94449000D01*
X127278893Y-94449000D01*
X127433642Y-94479781D01*
G37*
G36*
X146153229Y-93466704D02*
G01*
X146308101Y-93530854D01*
X146447482Y-93623986D01*
X146566016Y-93742520D01*
X146659148Y-93881901D01*
X146723298Y-94036773D01*
X146756001Y-94201185D01*
X146756001Y-94368817D01*
X146723298Y-94533229D01*
X146659148Y-94688101D01*
X146566016Y-94827482D01*
X146447482Y-94946016D01*
X146308101Y-95039148D01*
X146153229Y-95103298D01*
X145988817Y-95136001D01*
X145821185Y-95136001D01*
X145656773Y-95103298D01*
X145501901Y-95039148D01*
X145362520Y-94946016D01*
X145243986Y-94827482D01*
X145150854Y-94688101D01*
X145086704Y-94533229D01*
X145054001Y-94368817D01*
X145054001Y-94201185D01*
X145086704Y-94036773D01*
X145150854Y-93881901D01*
X145243986Y-93742520D01*
X145362520Y-93623986D01*
X145501901Y-93530854D01*
X145656773Y-93466704D01*
X145821185Y-93434001D01*
X145988817Y-93434001D01*
X146153229Y-93466704D01*
G37*
G36*
X138533229Y-93466704D02*
G01*
X138688101Y-93530854D01*
X138827482Y-93623986D01*
X138946016Y-93742520D01*
X139039148Y-93881901D01*
X139103298Y-94036773D01*
X139136001Y-94201185D01*
X139136001Y-94368817D01*
X139103298Y-94533229D01*
X139039148Y-94688101D01*
X138946016Y-94827482D01*
X138827482Y-94946016D01*
X138688101Y-95039148D01*
X138533229Y-95103298D01*
X138368817Y-95136001D01*
X138201185Y-95136001D01*
X138036773Y-95103298D01*
X137881901Y-95039148D01*
X137742520Y-94946016D01*
X137623986Y-94827482D01*
X137530854Y-94688101D01*
X137466704Y-94533229D01*
X137434001Y-94368817D01*
X137434001Y-94201185D01*
X137466704Y-94036773D01*
X137530854Y-93881901D01*
X137623986Y-93742520D01*
X137742520Y-93623986D01*
X137881901Y-93530854D01*
X138036773Y-93466704D01*
X138201185Y-93434001D01*
X138368817Y-93434001D01*
X138533229Y-93466704D01*
G37*
G36*
X152635443Y-93125519D02*
G01*
X152701627Y-93132037D01*
X152871466Y-93183557D01*
X153027991Y-93267222D01*
X153063729Y-93296552D01*
X153165186Y-93379814D01*
X153236495Y-93466706D01*
X153277778Y-93517009D01*
X153361443Y-93673534D01*
X153412963Y-93843373D01*
X153430359Y-94020000D01*
X153412963Y-94196627D01*
X153361443Y-94366466D01*
X153277778Y-94522991D01*
X153269375Y-94533230D01*
X153165186Y-94660186D01*
X153063729Y-94743448D01*
X153027991Y-94772778D01*
X152871466Y-94856443D01*
X152701627Y-94907963D01*
X152635442Y-94914482D01*
X152569260Y-94921000D01*
X152230740Y-94921000D01*
X152164557Y-94914481D01*
X152098373Y-94907963D01*
X151928534Y-94856443D01*
X151772009Y-94772778D01*
X151736271Y-94743448D01*
X151634814Y-94660186D01*
X151530625Y-94533230D01*
X151522222Y-94522991D01*
X151438557Y-94366466D01*
X151387037Y-94196627D01*
X151369641Y-94020000D01*
X151387037Y-93843373D01*
X151438557Y-93673534D01*
X151522222Y-93517009D01*
X151563505Y-93466706D01*
X151634814Y-93379814D01*
X151736271Y-93296552D01*
X151772009Y-93267222D01*
X151928534Y-93183557D01*
X152098373Y-93132037D01*
X152164557Y-93125519D01*
X152230740Y-93119000D01*
X152569260Y-93119000D01*
X152635443Y-93125519D01*
G37*
G36*
X166636778Y-93100547D02*
G01*
X166803224Y-93169491D01*
X166953022Y-93269583D01*
X167080417Y-93396978D01*
X167180509Y-93546776D01*
X167249453Y-93713222D01*
X167284600Y-93889918D01*
X167284600Y-94070082D01*
X167249453Y-94246778D01*
X167180509Y-94413224D01*
X167080417Y-94563022D01*
X166953022Y-94690417D01*
X166803224Y-94790509D01*
X166636778Y-94859453D01*
X166460082Y-94894600D01*
X166279918Y-94894600D01*
X166103222Y-94859453D01*
X165936776Y-94790509D01*
X165786978Y-94690417D01*
X165659583Y-94563022D01*
X165559491Y-94413224D01*
X165490547Y-94246778D01*
X165455400Y-94070082D01*
X165455400Y-93889918D01*
X165490547Y-93713222D01*
X165559491Y-93546776D01*
X165659583Y-93396978D01*
X165786978Y-93269583D01*
X165936776Y-93169491D01*
X166103222Y-93100547D01*
X166279918Y-93065400D01*
X166460082Y-93065400D01*
X166636778Y-93100547D01*
G37*
G36*
X164096778Y-93100547D02*
G01*
X164263224Y-93169491D01*
X164413022Y-93269583D01*
X164540417Y-93396978D01*
X164640509Y-93546776D01*
X164709453Y-93713222D01*
X164744600Y-93889918D01*
X164744600Y-94070082D01*
X164709453Y-94246778D01*
X164640509Y-94413224D01*
X164540417Y-94563022D01*
X164413022Y-94690417D01*
X164263224Y-94790509D01*
X164096778Y-94859453D01*
X163920082Y-94894600D01*
X163739918Y-94894600D01*
X163563222Y-94859453D01*
X163396776Y-94790509D01*
X163246978Y-94690417D01*
X163119583Y-94563022D01*
X163019491Y-94413224D01*
X162950547Y-94246778D01*
X162915400Y-94070082D01*
X162915400Y-93889918D01*
X162950547Y-93713222D01*
X163019491Y-93546776D01*
X163119583Y-93396978D01*
X163246978Y-93269583D01*
X163396776Y-93169491D01*
X163563222Y-93100547D01*
X163739918Y-93065400D01*
X163920082Y-93065400D01*
X164096778Y-93100547D01*
G37*
G36*
X138533229Y-90926704D02*
G01*
X138688101Y-90990854D01*
X138827482Y-91083986D01*
X138946016Y-91202520D01*
X139039148Y-91341901D01*
X139103298Y-91496773D01*
X139136001Y-91661185D01*
X139136001Y-91828817D01*
X139103298Y-91993229D01*
X139039148Y-92148101D01*
X138946016Y-92287482D01*
X138827482Y-92406016D01*
X138688101Y-92499148D01*
X138533229Y-92563298D01*
X138368817Y-92596001D01*
X138201185Y-92596001D01*
X138036773Y-92563298D01*
X137881901Y-92499148D01*
X137742520Y-92406016D01*
X137623986Y-92287482D01*
X137530854Y-92148101D01*
X137466704Y-91993229D01*
X137434001Y-91828817D01*
X137434001Y-91661185D01*
X137466704Y-91496773D01*
X137530854Y-91341901D01*
X137623986Y-91202520D01*
X137742520Y-91083986D01*
X137881901Y-90990854D01*
X138036773Y-90926704D01*
X138201185Y-90894001D01*
X138368817Y-90894001D01*
X138533229Y-90926704D01*
G37*
G36*
X146153229Y-90926704D02*
G01*
X146308101Y-90990854D01*
X146447482Y-91083986D01*
X146566016Y-91202520D01*
X146659148Y-91341901D01*
X146723298Y-91496773D01*
X146756001Y-91661185D01*
X146756001Y-91828817D01*
X146723298Y-91993229D01*
X146659148Y-92148101D01*
X146566016Y-92287482D01*
X146447482Y-92406016D01*
X146308101Y-92499148D01*
X146153229Y-92563298D01*
X145988817Y-92596001D01*
X145821185Y-92596001D01*
X145656773Y-92563298D01*
X145501901Y-92499148D01*
X145362520Y-92406016D01*
X145243986Y-92287482D01*
X145150854Y-92148101D01*
X145086704Y-91993229D01*
X145054001Y-91828817D01*
X145054001Y-91661185D01*
X145086704Y-91496773D01*
X145150854Y-91341901D01*
X145243986Y-91202520D01*
X145362520Y-91083986D01*
X145501901Y-90990854D01*
X145656773Y-90926704D01*
X145821185Y-90894001D01*
X145988817Y-90894001D01*
X146153229Y-90926704D01*
G37*
G36*
X152635442Y-90625518D02*
G01*
X152701627Y-90632037D01*
X152871466Y-90683557D01*
X153027991Y-90767222D01*
X153063729Y-90796552D01*
X153165186Y-90879814D01*
X153248448Y-90981271D01*
X153277778Y-91017009D01*
X153361443Y-91173534D01*
X153412963Y-91343373D01*
X153430359Y-91520000D01*
X153412963Y-91696627D01*
X153361443Y-91866466D01*
X153277778Y-92022991D01*
X153248448Y-92058729D01*
X153165186Y-92160186D01*
X153063729Y-92243448D01*
X153027991Y-92272778D01*
X152871466Y-92356443D01*
X152701627Y-92407963D01*
X152635442Y-92414482D01*
X152569260Y-92421000D01*
X152230740Y-92421000D01*
X152164557Y-92414481D01*
X152098373Y-92407963D01*
X151928534Y-92356443D01*
X151772009Y-92272778D01*
X151736271Y-92243448D01*
X151634814Y-92160186D01*
X151551552Y-92058729D01*
X151522222Y-92022991D01*
X151438557Y-91866466D01*
X151387037Y-91696627D01*
X151369641Y-91520000D01*
X151387037Y-91343373D01*
X151438557Y-91173534D01*
X151522222Y-91017009D01*
X151551552Y-90981271D01*
X151634814Y-90879814D01*
X151736271Y-90796552D01*
X151772009Y-90767222D01*
X151928534Y-90683557D01*
X152098373Y-90632037D01*
X152164558Y-90625518D01*
X152230740Y-90619000D01*
X152569260Y-90619000D01*
X152635442Y-90625518D01*
G37*
G36*
X164096778Y-90560547D02*
G01*
X164263224Y-90629491D01*
X164413022Y-90729583D01*
X164540417Y-90856978D01*
X164640509Y-91006776D01*
X164709453Y-91173222D01*
X164744600Y-91349918D01*
X164744600Y-91530082D01*
X164709453Y-91706778D01*
X164640509Y-91873224D01*
X164540417Y-92023022D01*
X164413022Y-92150417D01*
X164263224Y-92250509D01*
X164096778Y-92319453D01*
X163920082Y-92354600D01*
X163739918Y-92354600D01*
X163563222Y-92319453D01*
X163396776Y-92250509D01*
X163246978Y-92150417D01*
X163119583Y-92023022D01*
X163019491Y-91873224D01*
X162950547Y-91706778D01*
X162915400Y-91530082D01*
X162915400Y-91349918D01*
X162950547Y-91173222D01*
X163019491Y-91006776D01*
X163119583Y-90856978D01*
X163246978Y-90729583D01*
X163396776Y-90629491D01*
X163563222Y-90560547D01*
X163739918Y-90525400D01*
X163920082Y-90525400D01*
X164096778Y-90560547D01*
G37*
G36*
X166636778Y-90560547D02*
G01*
X166803224Y-90629491D01*
X166953022Y-90729583D01*
X167080417Y-90856978D01*
X167180509Y-91006776D01*
X167249453Y-91173222D01*
X167284600Y-91349918D01*
X167284600Y-91530082D01*
X167249453Y-91706778D01*
X167180509Y-91873224D01*
X167080417Y-92023022D01*
X166953022Y-92150417D01*
X166803224Y-92250509D01*
X166636778Y-92319453D01*
X166460082Y-92354600D01*
X166279918Y-92354600D01*
X166103222Y-92319453D01*
X165936776Y-92250509D01*
X165786978Y-92150417D01*
X165659583Y-92023022D01*
X165559491Y-91873224D01*
X165490547Y-91706778D01*
X165455400Y-91530082D01*
X165455400Y-91349918D01*
X165490547Y-91173222D01*
X165559491Y-91006776D01*
X165659583Y-90856978D01*
X165786978Y-90729583D01*
X165936776Y-90629491D01*
X166103222Y-90560547D01*
X166279918Y-90525400D01*
X166460082Y-90525400D01*
X166636778Y-90560547D01*
G37*
G36*
X132328228Y-89351703D02*
G01*
X132483100Y-89415853D01*
X132622481Y-89508985D01*
X132741015Y-89627519D01*
X132834147Y-89766900D01*
X132898297Y-89921772D01*
X132931000Y-90086184D01*
X132931000Y-90253816D01*
X132898297Y-90418228D01*
X132834147Y-90573100D01*
X132741015Y-90712481D01*
X132622481Y-90831015D01*
X132483100Y-90924147D01*
X132328228Y-90988297D01*
X132163816Y-91021000D01*
X131996184Y-91021000D01*
X131831772Y-90988297D01*
X131676900Y-90924147D01*
X131537519Y-90831015D01*
X131418985Y-90712481D01*
X131325853Y-90573100D01*
X131261703Y-90418228D01*
X131229000Y-90253816D01*
X131229000Y-90086184D01*
X131261703Y-89921772D01*
X131325853Y-89766900D01*
X131418985Y-89627519D01*
X131537519Y-89508985D01*
X131676900Y-89415853D01*
X131831772Y-89351703D01*
X131996184Y-89319000D01*
X132163816Y-89319000D01*
X132328228Y-89351703D01*
G37*
G36*
X127248228Y-89351703D02*
G01*
X127403100Y-89415853D01*
X127542481Y-89508985D01*
X127661015Y-89627519D01*
X127754147Y-89766900D01*
X127818297Y-89921772D01*
X127851000Y-90086184D01*
X127851000Y-90253816D01*
X127818297Y-90418228D01*
X127754147Y-90573100D01*
X127661015Y-90712481D01*
X127542481Y-90831015D01*
X127403100Y-90924147D01*
X127248228Y-90988297D01*
X127083816Y-91021000D01*
X126916184Y-91021000D01*
X126751772Y-90988297D01*
X126596900Y-90924147D01*
X126457519Y-90831015D01*
X126338985Y-90712481D01*
X126245853Y-90573100D01*
X126181703Y-90418228D01*
X126149000Y-90253816D01*
X126149000Y-90086184D01*
X126181703Y-89921772D01*
X126245853Y-89766900D01*
X126338985Y-89627519D01*
X126457519Y-89508985D01*
X126596900Y-89415853D01*
X126751772Y-89351703D01*
X126916184Y-89319000D01*
X127083816Y-89319000D01*
X127248228Y-89351703D01*
G37*
G36*
X139136001Y-90056001D02*
G01*
X137434001Y-90056001D01*
X137434001Y-88354001D01*
X139136001Y-88354001D01*
X139136001Y-90056001D01*
G37*
G36*
X146153229Y-88386704D02*
G01*
X146308101Y-88450854D01*
X146447482Y-88543986D01*
X146566016Y-88662520D01*
X146659148Y-88801901D01*
X146723298Y-88956773D01*
X146756001Y-89121185D01*
X146756001Y-89288817D01*
X146723298Y-89453229D01*
X146659148Y-89608101D01*
X146566016Y-89747482D01*
X146447482Y-89866016D01*
X146308101Y-89959148D01*
X146153229Y-90023298D01*
X145988817Y-90056001D01*
X145821185Y-90056001D01*
X145656773Y-90023298D01*
X145501901Y-89959148D01*
X145362520Y-89866016D01*
X145243986Y-89747482D01*
X145150854Y-89608101D01*
X145086704Y-89453229D01*
X145054001Y-89288817D01*
X145054001Y-89121185D01*
X145086704Y-88956773D01*
X145150854Y-88801901D01*
X145243986Y-88662520D01*
X145362520Y-88543986D01*
X145501901Y-88450854D01*
X145656773Y-88386704D01*
X145821185Y-88354001D01*
X145988817Y-88354001D01*
X146153229Y-88386704D01*
G37*
G36*
X152635442Y-88125518D02*
G01*
X152701627Y-88132037D01*
X152871466Y-88183557D01*
X153027991Y-88267222D01*
X153063729Y-88296552D01*
X153165186Y-88379814D01*
X153223485Y-88450853D01*
X153277778Y-88517009D01*
X153361443Y-88673534D01*
X153412963Y-88843373D01*
X153430359Y-89020000D01*
X153412963Y-89196627D01*
X153361443Y-89366466D01*
X153277778Y-89522991D01*
X153248448Y-89558729D01*
X153165186Y-89660186D01*
X153063729Y-89743448D01*
X153027991Y-89772778D01*
X152871466Y-89856443D01*
X152701627Y-89907963D01*
X152635443Y-89914481D01*
X152569260Y-89921000D01*
X152230740Y-89921000D01*
X152164557Y-89914481D01*
X152098373Y-89907963D01*
X151928534Y-89856443D01*
X151772009Y-89772778D01*
X151736271Y-89743448D01*
X151634814Y-89660186D01*
X151551552Y-89558729D01*
X151522222Y-89522991D01*
X151438557Y-89366466D01*
X151387037Y-89196627D01*
X151369641Y-89020000D01*
X151387037Y-88843373D01*
X151438557Y-88673534D01*
X151522222Y-88517009D01*
X151576515Y-88450853D01*
X151634814Y-88379814D01*
X151736271Y-88296552D01*
X151772009Y-88267222D01*
X151928534Y-88183557D01*
X152098373Y-88132037D01*
X152164558Y-88125518D01*
X152230740Y-88119000D01*
X152569260Y-88119000D01*
X152635442Y-88125518D01*
G37*
G36*
X164096778Y-88020547D02*
G01*
X164263224Y-88089491D01*
X164413022Y-88189583D01*
X164540417Y-88316978D01*
X164640509Y-88466776D01*
X164709453Y-88633222D01*
X164744600Y-88809918D01*
X164744600Y-88990082D01*
X164709453Y-89166778D01*
X164640509Y-89333224D01*
X164540417Y-89483022D01*
X164413022Y-89610417D01*
X164263224Y-89710509D01*
X164096778Y-89779453D01*
X163920082Y-89814600D01*
X163739918Y-89814600D01*
X163563222Y-89779453D01*
X163396776Y-89710509D01*
X163246978Y-89610417D01*
X163119583Y-89483022D01*
X163019491Y-89333224D01*
X162950547Y-89166778D01*
X162915400Y-88990082D01*
X162915400Y-88809918D01*
X162950547Y-88633222D01*
X163019491Y-88466776D01*
X163119583Y-88316978D01*
X163246978Y-88189583D01*
X163396776Y-88089491D01*
X163563222Y-88020547D01*
X163739918Y-87985400D01*
X163920082Y-87985400D01*
X164096778Y-88020547D01*
G37*
G36*
X166636778Y-88020547D02*
G01*
X166803224Y-88089491D01*
X166953022Y-88189583D01*
X167080417Y-88316978D01*
X167180509Y-88466776D01*
X167249453Y-88633222D01*
X167284600Y-88809918D01*
X167284600Y-88990082D01*
X167249453Y-89166778D01*
X167180509Y-89333224D01*
X167080417Y-89483022D01*
X166953022Y-89610417D01*
X166803224Y-89710509D01*
X166636778Y-89779453D01*
X166460082Y-89814600D01*
X166279918Y-89814600D01*
X166103222Y-89779453D01*
X165936776Y-89710509D01*
X165786978Y-89610417D01*
X165659583Y-89483022D01*
X165559491Y-89333224D01*
X165490547Y-89166778D01*
X165455400Y-88990082D01*
X165455400Y-88809918D01*
X165490547Y-88633222D01*
X165559491Y-88466776D01*
X165659583Y-88316978D01*
X165786978Y-88189583D01*
X165936776Y-88089491D01*
X166103222Y-88020547D01*
X166279918Y-87985400D01*
X166460082Y-87985400D01*
X166636778Y-88020547D01*
G37*
G36*
X132328228Y-86851703D02*
G01*
X132483100Y-86915853D01*
X132622481Y-87008985D01*
X132741015Y-87127519D01*
X132834147Y-87266900D01*
X132898297Y-87421772D01*
X132931000Y-87586184D01*
X132931000Y-87753816D01*
X132898297Y-87918228D01*
X132834147Y-88073100D01*
X132741015Y-88212481D01*
X132622481Y-88331015D01*
X132483100Y-88424147D01*
X132328228Y-88488297D01*
X132163816Y-88521000D01*
X131996184Y-88521000D01*
X131831772Y-88488297D01*
X131676900Y-88424147D01*
X131537519Y-88331015D01*
X131418985Y-88212481D01*
X131325853Y-88073100D01*
X131261703Y-87918228D01*
X131229000Y-87753816D01*
X131229000Y-87586184D01*
X131261703Y-87421772D01*
X131325853Y-87266900D01*
X131418985Y-87127519D01*
X131537519Y-87008985D01*
X131676900Y-86915853D01*
X131831772Y-86851703D01*
X131996184Y-86819000D01*
X132163816Y-86819000D01*
X132328228Y-86851703D01*
G37*
G36*
X127248228Y-86851703D02*
G01*
X127403100Y-86915853D01*
X127542481Y-87008985D01*
X127661015Y-87127519D01*
X127754147Y-87266900D01*
X127818297Y-87421772D01*
X127851000Y-87586184D01*
X127851000Y-87753816D01*
X127818297Y-87918228D01*
X127754147Y-88073100D01*
X127661015Y-88212481D01*
X127542481Y-88331015D01*
X127403100Y-88424147D01*
X127248228Y-88488297D01*
X127083816Y-88521000D01*
X126916184Y-88521000D01*
X126751772Y-88488297D01*
X126596900Y-88424147D01*
X126457519Y-88331015D01*
X126338985Y-88212481D01*
X126245853Y-88073100D01*
X126181703Y-87918228D01*
X126149000Y-87753816D01*
X126149000Y-87586184D01*
X126181703Y-87421772D01*
X126245853Y-87266900D01*
X126338985Y-87127519D01*
X126457519Y-87008985D01*
X126596900Y-86915853D01*
X126751772Y-86851703D01*
X126916184Y-86819000D01*
X127083816Y-86819000D01*
X127248228Y-86851703D01*
G37*
G36*
X164096778Y-85480547D02*
G01*
X164263224Y-85549491D01*
X164413022Y-85649583D01*
X164540417Y-85776978D01*
X164640509Y-85926776D01*
X164709453Y-86093222D01*
X164744600Y-86269918D01*
X164744600Y-86450082D01*
X164709453Y-86626778D01*
X164640509Y-86793224D01*
X164540417Y-86943022D01*
X164413022Y-87070417D01*
X164263224Y-87170509D01*
X164096778Y-87239453D01*
X163920082Y-87274600D01*
X163739918Y-87274600D01*
X163563222Y-87239453D01*
X163396776Y-87170509D01*
X163246978Y-87070417D01*
X163119583Y-86943022D01*
X163019491Y-86793224D01*
X162950547Y-86626778D01*
X162915400Y-86450082D01*
X162915400Y-86269918D01*
X162950547Y-86093222D01*
X163019491Y-85926776D01*
X163119583Y-85776978D01*
X163246978Y-85649583D01*
X163396776Y-85549491D01*
X163563222Y-85480547D01*
X163739918Y-85445400D01*
X163920082Y-85445400D01*
X164096778Y-85480547D01*
G37*
G36*
X166636778Y-85480547D02*
G01*
X166803224Y-85549491D01*
X166953022Y-85649583D01*
X167080417Y-85776978D01*
X167180509Y-85926776D01*
X167249453Y-86093222D01*
X167284600Y-86269918D01*
X167284600Y-86450082D01*
X167249453Y-86626778D01*
X167180509Y-86793224D01*
X167080417Y-86943022D01*
X166953022Y-87070417D01*
X166803224Y-87170509D01*
X166636778Y-87239453D01*
X166460082Y-87274600D01*
X166279918Y-87274600D01*
X166103222Y-87239453D01*
X165936776Y-87170509D01*
X165786978Y-87070417D01*
X165659583Y-86943022D01*
X165559491Y-86793224D01*
X165490547Y-86626778D01*
X165455400Y-86450082D01*
X165455400Y-86269918D01*
X165490547Y-86093222D01*
X165559491Y-85926776D01*
X165659583Y-85776978D01*
X165786978Y-85649583D01*
X165936776Y-85549491D01*
X166103222Y-85480547D01*
X166279918Y-85445400D01*
X166460082Y-85445400D01*
X166636778Y-85480547D01*
G37*
G36*
X166636778Y-82940547D02*
G01*
X166803224Y-83009491D01*
X166953022Y-83109583D01*
X167080417Y-83236978D01*
X167180509Y-83386776D01*
X167249453Y-83553222D01*
X167284600Y-83729918D01*
X167284600Y-83910082D01*
X167249453Y-84086778D01*
X167180509Y-84253224D01*
X167080417Y-84403022D01*
X166953022Y-84530417D01*
X166803224Y-84630509D01*
X166636778Y-84699453D01*
X166460082Y-84734600D01*
X166279918Y-84734600D01*
X166103222Y-84699453D01*
X165936776Y-84630509D01*
X165786978Y-84530417D01*
X165659583Y-84403022D01*
X165559491Y-84253224D01*
X165490547Y-84086778D01*
X165455400Y-83910082D01*
X165455400Y-83729918D01*
X165490547Y-83553222D01*
X165559491Y-83386776D01*
X165659583Y-83236978D01*
X165786978Y-83109583D01*
X165936776Y-83009491D01*
X166103222Y-82940547D01*
X166279918Y-82905400D01*
X166460082Y-82905400D01*
X166636778Y-82940547D01*
G37*
G36*
X164744600Y-84734600D02*
G01*
X162915400Y-84734600D01*
X162915400Y-82905400D01*
X164744600Y-82905400D01*
X164744600Y-84734600D01*
G37*
G36*
X141186627Y-80242037D02*
G01*
X141356466Y-80293557D01*
X141512991Y-80377222D01*
X141548729Y-80406552D01*
X141650186Y-80489814D01*
X141733448Y-80591271D01*
X141762778Y-80627009D01*
X141846443Y-80783534D01*
X141897963Y-80953374D01*
X141911000Y-81085743D01*
X141911000Y-81474258D01*
X141897963Y-81606627D01*
X141846443Y-81776466D01*
X141762778Y-81932991D01*
X141733448Y-81968729D01*
X141650186Y-82070186D01*
X141512989Y-82182779D01*
X141356467Y-82266442D01*
X141356465Y-82266443D01*
X141186626Y-82317963D01*
X141010000Y-82335359D01*
X140833373Y-82317963D01*
X140663534Y-82266443D01*
X140507009Y-82182778D01*
X140464750Y-82148097D01*
X140369814Y-82070186D01*
X140257221Y-81932989D01*
X140173558Y-81776467D01*
X140173557Y-81776465D01*
X140122037Y-81606626D01*
X140109000Y-81474257D01*
X140109000Y-81085742D01*
X140122037Y-80953373D01*
X140173557Y-80783534D01*
X140257222Y-80627009D01*
X140369815Y-80489815D01*
X140507010Y-80377222D01*
X140663535Y-80293557D01*
X140833374Y-80242037D01*
X141010000Y-80224641D01*
X141186627Y-80242037D01*
G37*
G36*
X144268600Y-80232989D02*
G01*
X144301652Y-80243015D01*
X144332103Y-80259292D01*
X144358799Y-80281201D01*
X144380708Y-80307897D01*
X144396985Y-80338348D01*
X144407011Y-80371400D01*
X144411000Y-80411903D01*
X144411000Y-82148097D01*
X144407011Y-82188600D01*
X144396985Y-82221652D01*
X144380708Y-82252103D01*
X144358799Y-82278799D01*
X144332103Y-82300708D01*
X144301652Y-82316985D01*
X144268600Y-82327011D01*
X144228097Y-82331000D01*
X142791903Y-82331000D01*
X142751400Y-82327011D01*
X142718348Y-82316985D01*
X142687897Y-82300708D01*
X142661201Y-82278799D01*
X142639292Y-82252103D01*
X142623015Y-82221652D01*
X142612989Y-82188600D01*
X142609000Y-82148097D01*
X142609000Y-80411903D01*
X142612989Y-80371400D01*
X142623015Y-80338348D01*
X142639292Y-80307897D01*
X142661201Y-80281201D01*
X142687897Y-80259292D01*
X142718348Y-80243015D01*
X142751400Y-80232989D01*
X142791903Y-80229000D01*
X144228097Y-80229000D01*
X144268600Y-80232989D01*
G37*
G36*
X129915256Y-78401298D02*
G01*
X130021579Y-78422447D01*
X130322042Y-78546903D01*
X130592451Y-78727585D01*
X130822415Y-78957549D01*
X130822416Y-78957551D01*
X131003098Y-79227960D01*
X131127553Y-79528422D01*
X131191000Y-79847389D01*
X131191000Y-80172611D01*
X131151458Y-80371400D01*
X131127553Y-80491579D01*
X131003097Y-80792042D01*
X130822415Y-81062451D01*
X130592451Y-81292415D01*
X130322042Y-81473097D01*
X130322041Y-81473098D01*
X130322040Y-81473098D01*
X130234037Y-81509550D01*
X130021579Y-81597553D01*
X129915256Y-81618702D01*
X129702611Y-81661000D01*
X129377389Y-81661000D01*
X129164744Y-81618702D01*
X129058421Y-81597553D01*
X128845963Y-81509550D01*
X128757960Y-81473098D01*
X128757959Y-81473098D01*
X128757958Y-81473097D01*
X128487549Y-81292415D01*
X128257585Y-81062451D01*
X128076903Y-80792042D01*
X127952447Y-80491579D01*
X127928542Y-80371400D01*
X127889000Y-80172611D01*
X127889000Y-79847389D01*
X127952447Y-79528422D01*
X128076902Y-79227960D01*
X128257584Y-78957551D01*
X128257585Y-78957549D01*
X128487549Y-78727585D01*
X128757958Y-78546903D01*
X129058421Y-78422447D01*
X129164744Y-78401298D01*
X129377389Y-78359000D01*
X129702611Y-78359000D01*
X129915256Y-78401298D01*
G37*
M02*
