G04 #@! TF.GenerationSoftware,KiCad,Pcbnew,(5.1.5)-3*
G04 #@! TF.CreationDate,2020-02-09T11:05:27+11:00*
G04 #@! TF.ProjectId,US_Board1,55535f42-6f61-4726-9431-2e6b69636164,rev?*
G04 #@! TF.SameCoordinates,Original*
G04 #@! TF.FileFunction,Legend,Top*
G04 #@! TF.FilePolarity,Positive*
%FSLAX46Y46*%
G04 Gerber Fmt 4.6, Leading zero omitted, Abs format (unit mm)*
G04 Created by KiCad (PCBNEW (5.1.5)-3) date 2020-02-09 11:05:27*
%MOMM*%
%LPD*%
G04 APERTURE LIST*
%ADD10C,0.300000*%
%ADD11C,0.120000*%
%ADD12C,0.150000*%
G04 APERTURE END LIST*
D10*
X148955714Y-76082857D02*
X148455714Y-76082857D01*
X148455714Y-76868571D02*
X148455714Y-75368571D01*
X149170000Y-75368571D01*
X150598571Y-76868571D02*
X150098571Y-76154285D01*
X149741428Y-76868571D02*
X149741428Y-75368571D01*
X150312857Y-75368571D01*
X150455714Y-75440000D01*
X150527142Y-75511428D01*
X150598571Y-75654285D01*
X150598571Y-75868571D01*
X150527142Y-76011428D01*
X150455714Y-76082857D01*
X150312857Y-76154285D01*
X149741428Y-76154285D01*
X152098571Y-76725714D02*
X152027142Y-76797142D01*
X151812857Y-76868571D01*
X151670000Y-76868571D01*
X151455714Y-76797142D01*
X151312857Y-76654285D01*
X151241428Y-76511428D01*
X151170000Y-76225714D01*
X151170000Y-76011428D01*
X151241428Y-75725714D01*
X151312857Y-75582857D01*
X151455714Y-75440000D01*
X151670000Y-75368571D01*
X151812857Y-75368571D01*
X152027142Y-75440000D01*
X152098571Y-75511428D01*
X154598571Y-75368571D02*
X153884285Y-75368571D01*
X153812857Y-76082857D01*
X153884285Y-76011428D01*
X154027142Y-75940000D01*
X154384285Y-75940000D01*
X154527142Y-76011428D01*
X154598571Y-76082857D01*
X154670000Y-76225714D01*
X154670000Y-76582857D01*
X154598571Y-76725714D01*
X154527142Y-76797142D01*
X154384285Y-76868571D01*
X154027142Y-76868571D01*
X153884285Y-76797142D01*
X153812857Y-76725714D01*
X155384285Y-76868571D02*
X155670000Y-76868571D01*
X155812857Y-76797142D01*
X155884285Y-76725714D01*
X156027142Y-76511428D01*
X156098571Y-76225714D01*
X156098571Y-75654285D01*
X156027142Y-75511428D01*
X155955714Y-75440000D01*
X155812857Y-75368571D01*
X155527142Y-75368571D01*
X155384285Y-75440000D01*
X155312857Y-75511428D01*
X155241428Y-75654285D01*
X155241428Y-76011428D01*
X155312857Y-76154285D01*
X155384285Y-76225714D01*
X155527142Y-76297142D01*
X155812857Y-76297142D01*
X155955714Y-76225714D01*
X156027142Y-76154285D01*
X156098571Y-76011428D01*
X156955714Y-76011428D02*
X156812857Y-75940000D01*
X156741428Y-75868571D01*
X156670000Y-75725714D01*
X156670000Y-75654285D01*
X156741428Y-75511428D01*
X156812857Y-75440000D01*
X156955714Y-75368571D01*
X157241428Y-75368571D01*
X157384285Y-75440000D01*
X157455714Y-75511428D01*
X157527142Y-75654285D01*
X157527142Y-75725714D01*
X157455714Y-75868571D01*
X157384285Y-75940000D01*
X157241428Y-76011428D01*
X156955714Y-76011428D01*
X156812857Y-76082857D01*
X156741428Y-76154285D01*
X156670000Y-76297142D01*
X156670000Y-76582857D01*
X156741428Y-76725714D01*
X156812857Y-76797142D01*
X156955714Y-76868571D01*
X157241428Y-76868571D01*
X157384285Y-76797142D01*
X157455714Y-76725714D01*
X157527142Y-76582857D01*
X157527142Y-76297142D01*
X157455714Y-76154285D01*
X157384285Y-76082857D01*
X157241428Y-76011428D01*
X158884285Y-75368571D02*
X158170000Y-75368571D01*
X158098571Y-76082857D01*
X158170000Y-76011428D01*
X158312857Y-75940000D01*
X158670000Y-75940000D01*
X158812857Y-76011428D01*
X158884285Y-76082857D01*
X158955714Y-76225714D01*
X158955714Y-76582857D01*
X158884285Y-76725714D01*
X158812857Y-76797142D01*
X158670000Y-76868571D01*
X158312857Y-76868571D01*
X158170000Y-76797142D01*
X158098571Y-76725714D01*
X148312857Y-77918571D02*
X148312857Y-79132857D01*
X148384285Y-79275714D01*
X148455714Y-79347142D01*
X148598571Y-79418571D01*
X148884285Y-79418571D01*
X149027142Y-79347142D01*
X149098571Y-79275714D01*
X149170000Y-79132857D01*
X149170000Y-77918571D01*
X150098571Y-79418571D02*
X149955714Y-79347142D01*
X149884285Y-79204285D01*
X149884285Y-77918571D01*
X150455714Y-78418571D02*
X151027142Y-78418571D01*
X150670000Y-77918571D02*
X150670000Y-79204285D01*
X150741428Y-79347142D01*
X150884285Y-79418571D01*
X151027142Y-79418571D01*
X151527142Y-79418571D02*
X151527142Y-78418571D01*
X151527142Y-78704285D02*
X151598571Y-78561428D01*
X151670000Y-78490000D01*
X151812857Y-78418571D01*
X151955714Y-78418571D01*
X153098571Y-79418571D02*
X153098571Y-78632857D01*
X153027142Y-78490000D01*
X152884285Y-78418571D01*
X152598571Y-78418571D01*
X152455714Y-78490000D01*
X153098571Y-79347142D02*
X152955714Y-79418571D01*
X152598571Y-79418571D01*
X152455714Y-79347142D01*
X152384285Y-79204285D01*
X152384285Y-79061428D01*
X152455714Y-78918571D01*
X152598571Y-78847142D01*
X152955714Y-78847142D01*
X153098571Y-78775714D01*
X153741428Y-79347142D02*
X153884285Y-79418571D01*
X154170000Y-79418571D01*
X154312857Y-79347142D01*
X154384285Y-79204285D01*
X154384285Y-79132857D01*
X154312857Y-78990000D01*
X154170000Y-78918571D01*
X153955714Y-78918571D01*
X153812857Y-78847142D01*
X153741428Y-78704285D01*
X153741428Y-78632857D01*
X153812857Y-78490000D01*
X153955714Y-78418571D01*
X154170000Y-78418571D01*
X154312857Y-78490000D01*
X155241428Y-79418571D02*
X155098571Y-79347142D01*
X155027142Y-79275714D01*
X154955714Y-79132857D01*
X154955714Y-78704285D01*
X155027142Y-78561428D01*
X155098571Y-78490000D01*
X155241428Y-78418571D01*
X155455714Y-78418571D01*
X155598571Y-78490000D01*
X155670000Y-78561428D01*
X155741428Y-78704285D01*
X155741428Y-79132857D01*
X155670000Y-79275714D01*
X155598571Y-79347142D01*
X155455714Y-79418571D01*
X155241428Y-79418571D01*
X156384285Y-78418571D02*
X156384285Y-79418571D01*
X156384285Y-78561428D02*
X156455714Y-78490000D01*
X156598571Y-78418571D01*
X156812857Y-78418571D01*
X156955714Y-78490000D01*
X157027142Y-78632857D01*
X157027142Y-79418571D01*
X157741428Y-79418571D02*
X157741428Y-78418571D01*
X157741428Y-77918571D02*
X157670000Y-77990000D01*
X157741428Y-78061428D01*
X157812857Y-77990000D01*
X157741428Y-77918571D01*
X157741428Y-78061428D01*
X159098571Y-79347142D02*
X158955714Y-79418571D01*
X158670000Y-79418571D01*
X158527142Y-79347142D01*
X158455714Y-79275714D01*
X158384285Y-79132857D01*
X158384285Y-78704285D01*
X158455714Y-78561428D01*
X158527142Y-78490000D01*
X158670000Y-78418571D01*
X158955714Y-78418571D01*
X159098571Y-78490000D01*
X147384285Y-80968571D02*
X147955714Y-80968571D01*
X147598571Y-80468571D02*
X147598571Y-81754285D01*
X147670000Y-81897142D01*
X147812857Y-81968571D01*
X147955714Y-81968571D01*
X148670000Y-81968571D02*
X148527142Y-81897142D01*
X148455714Y-81825714D01*
X148384285Y-81682857D01*
X148384285Y-81254285D01*
X148455714Y-81111428D01*
X148527142Y-81040000D01*
X148670000Y-80968571D01*
X148884285Y-80968571D01*
X149027142Y-81040000D01*
X149098571Y-81111428D01*
X149170000Y-81254285D01*
X149170000Y-81682857D01*
X149098571Y-81825714D01*
X149027142Y-81897142D01*
X148884285Y-81968571D01*
X148670000Y-81968571D01*
X150955714Y-81968571D02*
X150955714Y-80468571D01*
X151598571Y-80611428D02*
X151670000Y-80540000D01*
X151812857Y-80468571D01*
X152170000Y-80468571D01*
X152312857Y-80540000D01*
X152384285Y-80611428D01*
X152455714Y-80754285D01*
X152455714Y-80897142D01*
X152384285Y-81111428D01*
X151527142Y-81968571D01*
X152455714Y-81968571D01*
X153955714Y-81825714D02*
X153884285Y-81897142D01*
X153670000Y-81968571D01*
X153527142Y-81968571D01*
X153312857Y-81897142D01*
X153170000Y-81754285D01*
X153098571Y-81611428D01*
X153027142Y-81325714D01*
X153027142Y-81111428D01*
X153098571Y-80825714D01*
X153170000Y-80682857D01*
X153312857Y-80540000D01*
X153527142Y-80468571D01*
X153670000Y-80468571D01*
X153884285Y-80540000D01*
X153955714Y-80611428D01*
X155598571Y-80968571D02*
X155955714Y-81968571D01*
X156312857Y-80968571D01*
X157670000Y-81968571D02*
X156812857Y-81968571D01*
X157241428Y-81968571D02*
X157241428Y-80468571D01*
X157098571Y-80682857D01*
X156955714Y-80825714D01*
X156812857Y-80897142D01*
X158312857Y-81825714D02*
X158384285Y-81897142D01*
X158312857Y-81968571D01*
X158241428Y-81897142D01*
X158312857Y-81825714D01*
X158312857Y-81968571D01*
X159312857Y-80468571D02*
X159455714Y-80468571D01*
X159598571Y-80540000D01*
X159670000Y-80611428D01*
X159741428Y-80754285D01*
X159812857Y-81040000D01*
X159812857Y-81397142D01*
X159741428Y-81682857D01*
X159670000Y-81825714D01*
X159598571Y-81897142D01*
X159455714Y-81968571D01*
X159312857Y-81968571D01*
X159170000Y-81897142D01*
X159098571Y-81825714D01*
X159027142Y-81682857D01*
X158955714Y-81397142D01*
X158955714Y-81040000D01*
X159027142Y-80754285D01*
X159098571Y-80611428D01*
X159170000Y-80540000D01*
X159312857Y-80468571D01*
D11*
X128270000Y-102640000D02*
X128270000Y-103410000D01*
X128270000Y-110720000D02*
X128270000Y-109950000D01*
X126900000Y-103410000D02*
X126900000Y-109950000D01*
X129640000Y-103410000D02*
X126900000Y-103410000D01*
X129640000Y-109950000D02*
X129640000Y-103410000D01*
X126900000Y-109950000D02*
X129640000Y-109950000D01*
X131980000Y-109950000D02*
X134720000Y-109950000D01*
X134720000Y-109950000D02*
X134720000Y-103410000D01*
X134720000Y-103410000D02*
X131980000Y-103410000D01*
X131980000Y-103410000D02*
X131980000Y-109950000D01*
X133350000Y-110720000D02*
X133350000Y-109950000D01*
X133350000Y-102640000D02*
X133350000Y-103410000D01*
X126515000Y-92725000D02*
X132765000Y-92725000D01*
X126515000Y-97775000D02*
X132765000Y-97775000D01*
X126515000Y-97775000D02*
G75*
G02X126515000Y-92725000I0J2525000D01*
G01*
X132765000Y-97775000D02*
G75*
G03X132765000Y-92725000I0J2525000D01*
G01*
X125580000Y-90940000D02*
X125580000Y-86900000D01*
X128420000Y-90940000D02*
X128420000Y-86900000D01*
X125580000Y-90940000D02*
X126205000Y-90940000D01*
X127795000Y-90940000D02*
X128420000Y-90940000D01*
X125580000Y-86900000D02*
X126205000Y-86900000D01*
X127795000Y-86900000D02*
X128420000Y-86900000D01*
X132875000Y-86900000D02*
X133500000Y-86900000D01*
X130660000Y-86900000D02*
X131285000Y-86900000D01*
X132875000Y-90940000D02*
X133500000Y-90940000D01*
X130660000Y-90940000D02*
X131285000Y-90940000D01*
X133500000Y-90940000D02*
X133500000Y-86900000D01*
X130660000Y-90940000D02*
X130660000Y-86900000D01*
X149940000Y-99080000D02*
X155910000Y-99080000D01*
X155910000Y-99080000D02*
X155910000Y-86460000D01*
X155910000Y-86460000D02*
X149940000Y-86460000D01*
X149940000Y-86460000D02*
X149940000Y-99080000D01*
X149950000Y-95770000D02*
X150700000Y-95770000D01*
X150700000Y-95770000D02*
X150700000Y-89770000D01*
X150700000Y-89770000D02*
X149950000Y-89770000D01*
X149950000Y-89770000D02*
X149950000Y-95770000D01*
X149950000Y-99070000D02*
X150700000Y-99070000D01*
X150700000Y-99070000D02*
X150700000Y-97270000D01*
X150700000Y-97270000D02*
X149950000Y-97270000D01*
X149950000Y-97270000D02*
X149950000Y-99070000D01*
X149950000Y-88270000D02*
X150700000Y-88270000D01*
X150700000Y-88270000D02*
X150700000Y-86470000D01*
X150700000Y-86470000D02*
X149950000Y-86470000D01*
X149950000Y-86470000D02*
X149950000Y-88270000D01*
X152200000Y-99070000D02*
X152200000Y-98320000D01*
X152200000Y-98320000D02*
X155150000Y-98320000D01*
X155150000Y-98320000D02*
X155150000Y-92770000D01*
X152200000Y-86470000D02*
X152200000Y-87220000D01*
X152200000Y-87220000D02*
X155150000Y-87220000D01*
X155150000Y-87220000D02*
X155150000Y-92770000D01*
X149650000Y-98120000D02*
X149650000Y-99370000D01*
X149650000Y-99370000D02*
X150900000Y-99370000D01*
X169775000Y-78470000D02*
X169775000Y-99330000D01*
X169775000Y-99330000D02*
X160425000Y-99330000D01*
X160425000Y-99330000D02*
X160425000Y-78470000D01*
X160425000Y-78470000D02*
X169775000Y-78470000D01*
X160175000Y-78220000D02*
X160175000Y-80760000D01*
X160175000Y-78220000D02*
X162715000Y-78220000D01*
X132271392Y-115167665D02*
G75*
G03X132114484Y-118400000I1078608J-1672335D01*
G01*
X134428608Y-115167665D02*
G75*
G02X134585516Y-118400000I-1078608J-1672335D01*
G01*
X132270163Y-115798870D02*
G75*
G03X132270000Y-117880961I1079837J-1041130D01*
G01*
X134429837Y-115798870D02*
G75*
G02X134430000Y-117880961I-1079837J-1041130D01*
G01*
X132114000Y-118400000D02*
X132270000Y-118400000D01*
X134430000Y-118400000D02*
X134586000Y-118400000D01*
X146070000Y-83740000D02*
X146070000Y-77770000D01*
X146070000Y-77770000D02*
X138450000Y-77770000D01*
X138450000Y-77770000D02*
X138450000Y-83740000D01*
X138450000Y-83740000D02*
X146070000Y-83740000D01*
X142760000Y-83730000D02*
X142760000Y-82980000D01*
X142760000Y-82980000D02*
X141760000Y-82980000D01*
X141760000Y-82980000D02*
X141760000Y-83730000D01*
X141760000Y-83730000D02*
X142760000Y-83730000D01*
X146060000Y-83730000D02*
X146060000Y-82980000D01*
X146060000Y-82980000D02*
X144260000Y-82980000D01*
X144260000Y-82980000D02*
X144260000Y-83730000D01*
X144260000Y-83730000D02*
X146060000Y-83730000D01*
X140260000Y-83730000D02*
X140260000Y-82980000D01*
X140260000Y-82980000D02*
X138460000Y-82980000D01*
X138460000Y-82980000D02*
X138460000Y-83730000D01*
X138460000Y-83730000D02*
X140260000Y-83730000D01*
X146060000Y-81480000D02*
X145310000Y-81480000D01*
X145310000Y-81480000D02*
X145310000Y-78530000D01*
X145310000Y-78530000D02*
X142260000Y-78530000D01*
X138460000Y-81480000D02*
X139210000Y-81480000D01*
X139210000Y-81480000D02*
X139210000Y-78530000D01*
X139210000Y-78530000D02*
X142260000Y-78530000D01*
X145110000Y-84030000D02*
X146360000Y-84030000D01*
X146360000Y-84030000D02*
X146360000Y-82780000D01*
X129350000Y-118400000D02*
X129506000Y-118400000D01*
X127034000Y-118400000D02*
X127190000Y-118400000D01*
X129349837Y-115798870D02*
G75*
G02X129350000Y-117880961I-1079837J-1041130D01*
G01*
X127190163Y-115798870D02*
G75*
G03X127190000Y-117880961I1079837J-1041130D01*
G01*
X129348608Y-115167665D02*
G75*
G02X129505516Y-118400000I-1078608J-1672335D01*
G01*
X127191392Y-115167665D02*
G75*
G03X127034484Y-118400000I1078608J-1672335D01*
G01*
X143095001Y-87875001D02*
G75*
G02X141095001Y-87875001I-1000000J0D01*
G01*
X141095001Y-87875001D02*
X139445001Y-87875001D01*
X139445001Y-87875001D02*
X139445001Y-113395001D01*
X139445001Y-113395001D02*
X144745001Y-113395001D01*
X144745001Y-113395001D02*
X144745001Y-87875001D01*
X144745001Y-87875001D02*
X143095001Y-87875001D01*
X149650000Y-114610000D02*
X150900000Y-114610000D01*
X149650000Y-113360000D02*
X149650000Y-114610000D01*
X155150000Y-102460000D02*
X155150000Y-108010000D01*
X152200000Y-102460000D02*
X155150000Y-102460000D01*
X152200000Y-101710000D02*
X152200000Y-102460000D01*
X155150000Y-113560000D02*
X155150000Y-108010000D01*
X152200000Y-113560000D02*
X155150000Y-113560000D01*
X152200000Y-114310000D02*
X152200000Y-113560000D01*
X149950000Y-101710000D02*
X149950000Y-103510000D01*
X150700000Y-101710000D02*
X149950000Y-101710000D01*
X150700000Y-103510000D02*
X150700000Y-101710000D01*
X149950000Y-103510000D02*
X150700000Y-103510000D01*
X149950000Y-112510000D02*
X149950000Y-114310000D01*
X150700000Y-112510000D02*
X149950000Y-112510000D01*
X150700000Y-114310000D02*
X150700000Y-112510000D01*
X149950000Y-114310000D02*
X150700000Y-114310000D01*
X149950000Y-105010000D02*
X149950000Y-111010000D01*
X150700000Y-105010000D02*
X149950000Y-105010000D01*
X150700000Y-111010000D02*
X150700000Y-105010000D01*
X149950000Y-111010000D02*
X150700000Y-111010000D01*
X149940000Y-101700000D02*
X149940000Y-114320000D01*
X155910000Y-101700000D02*
X149940000Y-101700000D01*
X155910000Y-114320000D02*
X155910000Y-101700000D01*
X149940000Y-114320000D02*
X155910000Y-114320000D01*
D12*
X127817619Y-108894285D02*
X127770000Y-108846666D01*
X127722380Y-108751428D01*
X127722380Y-108513333D01*
X127770000Y-108418095D01*
X127817619Y-108370476D01*
X127912857Y-108322857D01*
X128008095Y-108322857D01*
X128150952Y-108370476D01*
X128722380Y-108941904D01*
X128722380Y-108322857D01*
X127722380Y-107703809D02*
X127722380Y-107608571D01*
X127770000Y-107513333D01*
X127817619Y-107465714D01*
X127912857Y-107418095D01*
X128103333Y-107370476D01*
X128341428Y-107370476D01*
X128531904Y-107418095D01*
X128627142Y-107465714D01*
X128674761Y-107513333D01*
X128722380Y-107608571D01*
X128722380Y-107703809D01*
X128674761Y-107799047D01*
X128627142Y-107846666D01*
X128531904Y-107894285D01*
X128341428Y-107941904D01*
X128103333Y-107941904D01*
X127912857Y-107894285D01*
X127817619Y-107846666D01*
X127770000Y-107799047D01*
X127722380Y-107703809D01*
X127722380Y-106751428D02*
X127722380Y-106656190D01*
X127770000Y-106560952D01*
X127817619Y-106513333D01*
X127912857Y-106465714D01*
X128103333Y-106418095D01*
X128341428Y-106418095D01*
X128531904Y-106465714D01*
X128627142Y-106513333D01*
X128674761Y-106560952D01*
X128722380Y-106656190D01*
X128722380Y-106751428D01*
X128674761Y-106846666D01*
X128627142Y-106894285D01*
X128531904Y-106941904D01*
X128341428Y-106989523D01*
X128103333Y-106989523D01*
X127912857Y-106941904D01*
X127817619Y-106894285D01*
X127770000Y-106846666D01*
X127722380Y-106751428D01*
X128722380Y-105418095D02*
X128246190Y-105751428D01*
X128722380Y-105989523D02*
X127722380Y-105989523D01*
X127722380Y-105608571D01*
X127770000Y-105513333D01*
X127817619Y-105465714D01*
X127912857Y-105418095D01*
X128055714Y-105418095D01*
X128150952Y-105465714D01*
X128198571Y-105513333D01*
X128246190Y-105608571D01*
X128246190Y-105989523D01*
X127817619Y-105037142D02*
X127770000Y-104989523D01*
X127722380Y-104894285D01*
X127722380Y-104656190D01*
X127770000Y-104560952D01*
X127817619Y-104513333D01*
X127912857Y-104465714D01*
X128008095Y-104465714D01*
X128150952Y-104513333D01*
X128722380Y-105084761D01*
X128722380Y-104465714D01*
X132897619Y-108894285D02*
X132850000Y-108846666D01*
X132802380Y-108751428D01*
X132802380Y-108513333D01*
X132850000Y-108418095D01*
X132897619Y-108370476D01*
X132992857Y-108322857D01*
X133088095Y-108322857D01*
X133230952Y-108370476D01*
X133802380Y-108941904D01*
X133802380Y-108322857D01*
X132802380Y-107703809D02*
X132802380Y-107608571D01*
X132850000Y-107513333D01*
X132897619Y-107465714D01*
X132992857Y-107418095D01*
X133183333Y-107370476D01*
X133421428Y-107370476D01*
X133611904Y-107418095D01*
X133707142Y-107465714D01*
X133754761Y-107513333D01*
X133802380Y-107608571D01*
X133802380Y-107703809D01*
X133754761Y-107799047D01*
X133707142Y-107846666D01*
X133611904Y-107894285D01*
X133421428Y-107941904D01*
X133183333Y-107941904D01*
X132992857Y-107894285D01*
X132897619Y-107846666D01*
X132850000Y-107799047D01*
X132802380Y-107703809D01*
X132802380Y-106751428D02*
X132802380Y-106656190D01*
X132850000Y-106560952D01*
X132897619Y-106513333D01*
X132992857Y-106465714D01*
X133183333Y-106418095D01*
X133421428Y-106418095D01*
X133611904Y-106465714D01*
X133707142Y-106513333D01*
X133754761Y-106560952D01*
X133802380Y-106656190D01*
X133802380Y-106751428D01*
X133754761Y-106846666D01*
X133707142Y-106894285D01*
X133611904Y-106941904D01*
X133421428Y-106989523D01*
X133183333Y-106989523D01*
X132992857Y-106941904D01*
X132897619Y-106894285D01*
X132850000Y-106846666D01*
X132802380Y-106751428D01*
X133802380Y-105418095D02*
X133326190Y-105751428D01*
X133802380Y-105989523D02*
X132802380Y-105989523D01*
X132802380Y-105608571D01*
X132850000Y-105513333D01*
X132897619Y-105465714D01*
X132992857Y-105418095D01*
X133135714Y-105418095D01*
X133230952Y-105465714D01*
X133278571Y-105513333D01*
X133326190Y-105608571D01*
X133326190Y-105989523D01*
X133802380Y-104465714D02*
X133802380Y-105037142D01*
X133802380Y-104751428D02*
X132802380Y-104751428D01*
X132945238Y-104846666D01*
X133040476Y-104941904D01*
X133088095Y-105037142D01*
X128230476Y-98845714D02*
X128230476Y-99512380D01*
X127992380Y-98464761D02*
X127754285Y-99179047D01*
X128373333Y-99179047D01*
X128754285Y-99512380D02*
X128754285Y-98512380D01*
X129087619Y-99226666D01*
X129420952Y-98512380D01*
X129420952Y-99512380D01*
X129897142Y-99512380D02*
X129897142Y-98512380D01*
X129897142Y-98988571D02*
X130468571Y-98988571D01*
X130468571Y-99512380D02*
X130468571Y-98512380D01*
X130849523Y-98845714D02*
X131373333Y-98845714D01*
X130849523Y-99512380D01*
X131373333Y-99512380D01*
X124807142Y-89086666D02*
X124854761Y-89134285D01*
X124902380Y-89277142D01*
X124902380Y-89372380D01*
X124854761Y-89515238D01*
X124759523Y-89610476D01*
X124664285Y-89658095D01*
X124473809Y-89705714D01*
X124330952Y-89705714D01*
X124140476Y-89658095D01*
X124045238Y-89610476D01*
X123950000Y-89515238D01*
X123902380Y-89372380D01*
X123902380Y-89277142D01*
X123950000Y-89134285D01*
X123997619Y-89086666D01*
X124902380Y-88134285D02*
X124902380Y-88705714D01*
X124902380Y-88420000D02*
X123902380Y-88420000D01*
X124045238Y-88515238D01*
X124140476Y-88610476D01*
X124188095Y-88705714D01*
X129887142Y-89086666D02*
X129934761Y-89134285D01*
X129982380Y-89277142D01*
X129982380Y-89372380D01*
X129934761Y-89515238D01*
X129839523Y-89610476D01*
X129744285Y-89658095D01*
X129553809Y-89705714D01*
X129410952Y-89705714D01*
X129220476Y-89658095D01*
X129125238Y-89610476D01*
X129030000Y-89515238D01*
X128982380Y-89372380D01*
X128982380Y-89277142D01*
X129030000Y-89134285D01*
X129077619Y-89086666D01*
X129077619Y-88705714D02*
X129030000Y-88658095D01*
X128982380Y-88562857D01*
X128982380Y-88324761D01*
X129030000Y-88229523D01*
X129077619Y-88181904D01*
X129172857Y-88134285D01*
X129268095Y-88134285D01*
X129410952Y-88181904D01*
X129982380Y-88753333D01*
X129982380Y-88134285D01*
X151423809Y-84907380D02*
X151423809Y-83907380D01*
X151852380Y-84002619D02*
X151900000Y-83955000D01*
X151995238Y-83907380D01*
X152233333Y-83907380D01*
X152328571Y-83955000D01*
X152376190Y-84002619D01*
X152423809Y-84097857D01*
X152423809Y-84193095D01*
X152376190Y-84335952D01*
X151804761Y-84907380D01*
X152423809Y-84907380D01*
X153423809Y-84812142D02*
X153376190Y-84859761D01*
X153233333Y-84907380D01*
X153138095Y-84907380D01*
X152995238Y-84859761D01*
X152900000Y-84764523D01*
X152852380Y-84669285D01*
X152804761Y-84478809D01*
X152804761Y-84335952D01*
X152852380Y-84145476D01*
X152900000Y-84050238D01*
X152995238Y-83955000D01*
X153138095Y-83907380D01*
X153233333Y-83907380D01*
X153376190Y-83955000D01*
X153423809Y-84002619D01*
X161719047Y-101417380D02*
X161719047Y-100417380D01*
X162147619Y-101369761D02*
X162290476Y-101417380D01*
X162528571Y-101417380D01*
X162623809Y-101369761D01*
X162671428Y-101322142D01*
X162719047Y-101226904D01*
X162719047Y-101131666D01*
X162671428Y-101036428D01*
X162623809Y-100988809D01*
X162528571Y-100941190D01*
X162338095Y-100893571D01*
X162242857Y-100845952D01*
X162195238Y-100798333D01*
X162147619Y-100703095D01*
X162147619Y-100607857D01*
X162195238Y-100512619D01*
X162242857Y-100465000D01*
X162338095Y-100417380D01*
X162576190Y-100417380D01*
X162719047Y-100465000D01*
X163147619Y-101417380D02*
X163147619Y-100417380D01*
X163528571Y-100417380D01*
X163623809Y-100465000D01*
X163671428Y-100512619D01*
X163719047Y-100607857D01*
X163719047Y-100750714D01*
X163671428Y-100845952D01*
X163623809Y-100893571D01*
X163528571Y-100941190D01*
X163147619Y-100941190D01*
X164909523Y-101417380D02*
X164909523Y-100417380D01*
X165290476Y-100417380D01*
X165385714Y-100465000D01*
X165433333Y-100512619D01*
X165480952Y-100607857D01*
X165480952Y-100750714D01*
X165433333Y-100845952D01*
X165385714Y-100893571D01*
X165290476Y-100941190D01*
X164909523Y-100941190D01*
X166480952Y-101417380D02*
X166147619Y-100941190D01*
X165909523Y-101417380D02*
X165909523Y-100417380D01*
X166290476Y-100417380D01*
X166385714Y-100465000D01*
X166433333Y-100512619D01*
X166480952Y-100607857D01*
X166480952Y-100750714D01*
X166433333Y-100845952D01*
X166385714Y-100893571D01*
X166290476Y-100941190D01*
X165909523Y-100941190D01*
X167100000Y-100417380D02*
X167290476Y-100417380D01*
X167385714Y-100465000D01*
X167480952Y-100560238D01*
X167528571Y-100750714D01*
X167528571Y-101084047D01*
X167480952Y-101274523D01*
X167385714Y-101369761D01*
X167290476Y-101417380D01*
X167100000Y-101417380D01*
X167004761Y-101369761D01*
X166909523Y-101274523D01*
X166861904Y-101084047D01*
X166861904Y-100750714D01*
X166909523Y-100560238D01*
X167004761Y-100465000D01*
X167100000Y-100417380D01*
X168480952Y-100465000D02*
X168385714Y-100417380D01*
X168242857Y-100417380D01*
X168100000Y-100465000D01*
X168004761Y-100560238D01*
X167957142Y-100655476D01*
X167909523Y-100845952D01*
X167909523Y-100988809D01*
X167957142Y-101179285D01*
X168004761Y-101274523D01*
X168100000Y-101369761D01*
X168242857Y-101417380D01*
X168338095Y-101417380D01*
X168480952Y-101369761D01*
X168528571Y-101322142D01*
X168528571Y-100988809D01*
X168338095Y-100988809D01*
X132397619Y-121102380D02*
X131921428Y-121102380D01*
X131921428Y-120102380D01*
X132730952Y-121102380D02*
X132730952Y-120102380D01*
X133207142Y-121102380D02*
X133207142Y-120102380D01*
X133778571Y-121102380D01*
X133778571Y-120102380D01*
X134254761Y-121102380D02*
X134254761Y-120102380D01*
X134826190Y-121102380D02*
X134397619Y-120530952D01*
X134826190Y-120102380D02*
X134254761Y-120673809D01*
X139950476Y-76652380D02*
X139950476Y-75652380D01*
X140331428Y-75652380D01*
X140426666Y-75700000D01*
X140474285Y-75747619D01*
X140521904Y-75842857D01*
X140521904Y-75985714D01*
X140474285Y-76080952D01*
X140426666Y-76128571D01*
X140331428Y-76176190D01*
X139950476Y-76176190D01*
X141140952Y-75652380D02*
X141331428Y-75652380D01*
X141426666Y-75700000D01*
X141521904Y-75795238D01*
X141569523Y-75985714D01*
X141569523Y-76319047D01*
X141521904Y-76509523D01*
X141426666Y-76604761D01*
X141331428Y-76652380D01*
X141140952Y-76652380D01*
X141045714Y-76604761D01*
X140950476Y-76509523D01*
X140902857Y-76319047D01*
X140902857Y-75985714D01*
X140950476Y-75795238D01*
X141045714Y-75700000D01*
X141140952Y-75652380D01*
X141902857Y-75652380D02*
X142140952Y-76652380D01*
X142331428Y-75938095D01*
X142521904Y-76652380D01*
X142760000Y-75652380D01*
X143140952Y-76128571D02*
X143474285Y-76128571D01*
X143617142Y-76652380D02*
X143140952Y-76652380D01*
X143140952Y-75652380D01*
X143617142Y-75652380D01*
X144617142Y-76652380D02*
X144283809Y-76176190D01*
X144045714Y-76652380D02*
X144045714Y-75652380D01*
X144426666Y-75652380D01*
X144521904Y-75700000D01*
X144569523Y-75747619D01*
X144617142Y-75842857D01*
X144617142Y-75985714D01*
X144569523Y-76080952D01*
X144521904Y-76128571D01*
X144426666Y-76176190D01*
X144045714Y-76176190D01*
X125960476Y-121102380D02*
X125960476Y-120102380D01*
X126341428Y-120102380D01*
X126436666Y-120150000D01*
X126484285Y-120197619D01*
X126531904Y-120292857D01*
X126531904Y-120435714D01*
X126484285Y-120530952D01*
X126436666Y-120578571D01*
X126341428Y-120626190D01*
X125960476Y-120626190D01*
X127150952Y-120102380D02*
X127341428Y-120102380D01*
X127436666Y-120150000D01*
X127531904Y-120245238D01*
X127579523Y-120435714D01*
X127579523Y-120769047D01*
X127531904Y-120959523D01*
X127436666Y-121054761D01*
X127341428Y-121102380D01*
X127150952Y-121102380D01*
X127055714Y-121054761D01*
X126960476Y-120959523D01*
X126912857Y-120769047D01*
X126912857Y-120435714D01*
X126960476Y-120245238D01*
X127055714Y-120150000D01*
X127150952Y-120102380D01*
X127912857Y-120102380D02*
X128150952Y-121102380D01*
X128341428Y-120388095D01*
X128531904Y-121102380D01*
X128770000Y-120102380D01*
X129150952Y-120578571D02*
X129484285Y-120578571D01*
X129627142Y-121102380D02*
X129150952Y-121102380D01*
X129150952Y-120102380D01*
X129627142Y-120102380D01*
X130627142Y-121102380D02*
X130293809Y-120626190D01*
X130055714Y-121102380D02*
X130055714Y-120102380D01*
X130436666Y-120102380D01*
X130531904Y-120150000D01*
X130579523Y-120197619D01*
X130627142Y-120292857D01*
X130627142Y-120435714D01*
X130579523Y-120530952D01*
X130531904Y-120578571D01*
X130436666Y-120626190D01*
X130055714Y-120626190D01*
X141333096Y-90892380D02*
X141333096Y-91701904D01*
X141380715Y-91797142D01*
X141428334Y-91844761D01*
X141523572Y-91892380D01*
X141714048Y-91892380D01*
X141809286Y-91844761D01*
X141856905Y-91797142D01*
X141904524Y-91701904D01*
X141904524Y-90892380D01*
X142904524Y-91892380D02*
X142333096Y-91892380D01*
X142618810Y-91892380D02*
X142618810Y-90892380D01*
X142523572Y-91035238D01*
X142428334Y-91130476D01*
X142333096Y-91178095D01*
X150273095Y-116609761D02*
X150415952Y-116657380D01*
X150654047Y-116657380D01*
X150749285Y-116609761D01*
X150796904Y-116562142D01*
X150844523Y-116466904D01*
X150844523Y-116371666D01*
X150796904Y-116276428D01*
X150749285Y-116228809D01*
X150654047Y-116181190D01*
X150463571Y-116133571D01*
X150368333Y-116085952D01*
X150320714Y-116038333D01*
X150273095Y-115943095D01*
X150273095Y-115847857D01*
X150320714Y-115752619D01*
X150368333Y-115705000D01*
X150463571Y-115657380D01*
X150701666Y-115657380D01*
X150844523Y-115705000D01*
X151273095Y-116133571D02*
X151606428Y-116133571D01*
X151749285Y-116657380D02*
X151273095Y-116657380D01*
X151273095Y-115657380D01*
X151749285Y-115657380D01*
X152177857Y-116657380D02*
X152177857Y-115657380D01*
X152749285Y-116657380D01*
X152749285Y-115657380D01*
X153177857Y-116609761D02*
X153320714Y-116657380D01*
X153558809Y-116657380D01*
X153654047Y-116609761D01*
X153701666Y-116562142D01*
X153749285Y-116466904D01*
X153749285Y-116371666D01*
X153701666Y-116276428D01*
X153654047Y-116228809D01*
X153558809Y-116181190D01*
X153368333Y-116133571D01*
X153273095Y-116085952D01*
X153225476Y-116038333D01*
X153177857Y-115943095D01*
X153177857Y-115847857D01*
X153225476Y-115752619D01*
X153273095Y-115705000D01*
X153368333Y-115657380D01*
X153606428Y-115657380D01*
X153749285Y-115705000D01*
X154368333Y-115657380D02*
X154558809Y-115657380D01*
X154654047Y-115705000D01*
X154749285Y-115800238D01*
X154796904Y-115990714D01*
X154796904Y-116324047D01*
X154749285Y-116514523D01*
X154654047Y-116609761D01*
X154558809Y-116657380D01*
X154368333Y-116657380D01*
X154273095Y-116609761D01*
X154177857Y-116514523D01*
X154130238Y-116324047D01*
X154130238Y-115990714D01*
X154177857Y-115800238D01*
X154273095Y-115705000D01*
X154368333Y-115657380D01*
X155796904Y-116657380D02*
X155463571Y-116181190D01*
X155225476Y-116657380D02*
X155225476Y-115657380D01*
X155606428Y-115657380D01*
X155701666Y-115705000D01*
X155749285Y-115752619D01*
X155796904Y-115847857D01*
X155796904Y-115990714D01*
X155749285Y-116085952D01*
X155701666Y-116133571D01*
X155606428Y-116181190D01*
X155225476Y-116181190D01*
M02*
