M48
; DRILL file {KiCad (5.1.5)-3} date 31/01/2021 8:42:54 PM
; FORMAT={-:-/ absolute / metric / decimal}
; #@! TF.CreationDate,2021-01-31T20:42:54+11:00
; #@! TF.GenerationSoftware,Kicad,Pcbnew,(5.1.5)-3
; #@! TF.FileFunction,Plated,1,2,PTH
FMAT,2
METRIC
T1C0.750
T2C0.800
T3C0.900
T4C0.950
T5C1.000
%
G90
G05
T1
X166.37Y-104.41
X166.37Y-105.68
X166.37Y-106.95
X173.99Y-104.41
X173.99Y-105.68
X173.99Y-106.95
T2
X165.1Y-87.9
X165.1Y-98.06
X161.29Y-87.9
X161.29Y-98.06
X168.91Y-87.9
X168.91Y-98.06
X176.53Y-87.9
X176.53Y-98.06
X157.48Y-87.9
X157.48Y-98.06
X172.72Y-87.9
X172.72Y-98.06
T3
X149.86Y-87.9
X152.4Y-87.9
X181.61Y-87.9
X184.15Y-87.9
T4
X157.48Y-104.53
X157.48Y-107.03
X157.48Y-109.53
X157.48Y-112.03
X181.61Y-104.53
X181.61Y-107.03
X181.61Y-109.53
X181.61Y-112.03
X190.0Y-104.53
X190.0Y-107.03
X190.0Y-109.53
X190.0Y-112.03
T5
X151.13Y-94.29
X151.13Y-96.79
X181.61Y-94.29
X181.61Y-96.79
T0
M30
