G04 #@! TF.GenerationSoftware,KiCad,Pcbnew,(5.1.5)-3*
G04 #@! TF.CreationDate,2021-01-31T20:42:47+11:00*
G04 #@! TF.ProjectId,I2C_Interface,4932435f-496e-4746-9572-666163652e6b,rev?*
G04 #@! TF.SameCoordinates,Original*
G04 #@! TF.FileFunction,Copper,L2,Bot*
G04 #@! TF.FilePolarity,Positive*
%FSLAX46Y46*%
G04 Gerber Fmt 4.6, Leading zero omitted, Abs format (unit mm)*
G04 Created by KiCad (PCBNEW (5.1.5)-3) date 2021-01-31 20:42:47*
%MOMM*%
%LPD*%
G04 APERTURE LIST*
%ADD10O,1.600000X1.600000*%
%ADD11C,1.600000*%
%ADD12O,1.500000X1.050000*%
%ADD13R,1.500000X1.050000*%
%ADD14C,0.100000*%
%ADD15O,2.000000X1.700000*%
%ADD16O,1.950000X1.700000*%
%ADD17C,1.800000*%
%ADD18R,1.800000X1.800000*%
%ADD19C,0.250000*%
%ADD20C,0.254000*%
G04 APERTURE END LIST*
D10*
X157480000Y-87900000D03*
D11*
X157480000Y-98060000D03*
D12*
X173990000Y-105680000D03*
X173990000Y-106950000D03*
D13*
X173990000Y-104410000D03*
G04 #@! TA.AperFunction,ComponentPad*
D14*
G36*
X151904504Y-95941204D02*
G01*
X151928773Y-95944804D01*
X151952571Y-95950765D01*
X151975671Y-95959030D01*
X151997849Y-95969520D01*
X152018893Y-95982133D01*
X152038598Y-95996747D01*
X152056777Y-96013223D01*
X152073253Y-96031402D01*
X152087867Y-96051107D01*
X152100480Y-96072151D01*
X152110970Y-96094329D01*
X152119235Y-96117429D01*
X152125196Y-96141227D01*
X152128796Y-96165496D01*
X152130000Y-96190000D01*
X152130000Y-97390000D01*
X152128796Y-97414504D01*
X152125196Y-97438773D01*
X152119235Y-97462571D01*
X152110970Y-97485671D01*
X152100480Y-97507849D01*
X152087867Y-97528893D01*
X152073253Y-97548598D01*
X152056777Y-97566777D01*
X152038598Y-97583253D01*
X152018893Y-97597867D01*
X151997849Y-97610480D01*
X151975671Y-97620970D01*
X151952571Y-97629235D01*
X151928773Y-97635196D01*
X151904504Y-97638796D01*
X151880000Y-97640000D01*
X150380000Y-97640000D01*
X150355496Y-97638796D01*
X150331227Y-97635196D01*
X150307429Y-97629235D01*
X150284329Y-97620970D01*
X150262151Y-97610480D01*
X150241107Y-97597867D01*
X150221402Y-97583253D01*
X150203223Y-97566777D01*
X150186747Y-97548598D01*
X150172133Y-97528893D01*
X150159520Y-97507849D01*
X150149030Y-97485671D01*
X150140765Y-97462571D01*
X150134804Y-97438773D01*
X150131204Y-97414504D01*
X150130000Y-97390000D01*
X150130000Y-96190000D01*
X150131204Y-96165496D01*
X150134804Y-96141227D01*
X150140765Y-96117429D01*
X150149030Y-96094329D01*
X150159520Y-96072151D01*
X150172133Y-96051107D01*
X150186747Y-96031402D01*
X150203223Y-96013223D01*
X150221402Y-95996747D01*
X150241107Y-95982133D01*
X150262151Y-95969520D01*
X150284329Y-95959030D01*
X150307429Y-95950765D01*
X150331227Y-95944804D01*
X150355496Y-95941204D01*
X150380000Y-95940000D01*
X151880000Y-95940000D01*
X151904504Y-95941204D01*
G37*
G04 #@! TD.AperFunction*
D15*
X151130000Y-94290000D03*
D13*
X166370000Y-104410000D03*
D12*
X166370000Y-106950000D03*
X166370000Y-105680000D03*
D16*
X181610000Y-104530000D03*
X181610000Y-107030000D03*
X181610000Y-109530000D03*
G04 #@! TA.AperFunction,ComponentPad*
D14*
G36*
X182359504Y-111181204D02*
G01*
X182383773Y-111184804D01*
X182407571Y-111190765D01*
X182430671Y-111199030D01*
X182452849Y-111209520D01*
X182473893Y-111222133D01*
X182493598Y-111236747D01*
X182511777Y-111253223D01*
X182528253Y-111271402D01*
X182542867Y-111291107D01*
X182555480Y-111312151D01*
X182565970Y-111334329D01*
X182574235Y-111357429D01*
X182580196Y-111381227D01*
X182583796Y-111405496D01*
X182585000Y-111430000D01*
X182585000Y-112630000D01*
X182583796Y-112654504D01*
X182580196Y-112678773D01*
X182574235Y-112702571D01*
X182565970Y-112725671D01*
X182555480Y-112747849D01*
X182542867Y-112768893D01*
X182528253Y-112788598D01*
X182511777Y-112806777D01*
X182493598Y-112823253D01*
X182473893Y-112837867D01*
X182452849Y-112850480D01*
X182430671Y-112860970D01*
X182407571Y-112869235D01*
X182383773Y-112875196D01*
X182359504Y-112878796D01*
X182335000Y-112880000D01*
X180885000Y-112880000D01*
X180860496Y-112878796D01*
X180836227Y-112875196D01*
X180812429Y-112869235D01*
X180789329Y-112860970D01*
X180767151Y-112850480D01*
X180746107Y-112837867D01*
X180726402Y-112823253D01*
X180708223Y-112806777D01*
X180691747Y-112788598D01*
X180677133Y-112768893D01*
X180664520Y-112747849D01*
X180654030Y-112725671D01*
X180645765Y-112702571D01*
X180639804Y-112678773D01*
X180636204Y-112654504D01*
X180635000Y-112630000D01*
X180635000Y-111430000D01*
X180636204Y-111405496D01*
X180639804Y-111381227D01*
X180645765Y-111357429D01*
X180654030Y-111334329D01*
X180664520Y-111312151D01*
X180677133Y-111291107D01*
X180691747Y-111271402D01*
X180708223Y-111253223D01*
X180726402Y-111236747D01*
X180746107Y-111222133D01*
X180767151Y-111209520D01*
X180789329Y-111199030D01*
X180812429Y-111190765D01*
X180836227Y-111184804D01*
X180860496Y-111181204D01*
X180885000Y-111180000D01*
X182335000Y-111180000D01*
X182359504Y-111181204D01*
G37*
G04 #@! TD.AperFunction*
D15*
X181610000Y-94290000D03*
G04 #@! TA.AperFunction,ComponentPad*
D14*
G36*
X182384504Y-95941204D02*
G01*
X182408773Y-95944804D01*
X182432571Y-95950765D01*
X182455671Y-95959030D01*
X182477849Y-95969520D01*
X182498893Y-95982133D01*
X182518598Y-95996747D01*
X182536777Y-96013223D01*
X182553253Y-96031402D01*
X182567867Y-96051107D01*
X182580480Y-96072151D01*
X182590970Y-96094329D01*
X182599235Y-96117429D01*
X182605196Y-96141227D01*
X182608796Y-96165496D01*
X182610000Y-96190000D01*
X182610000Y-97390000D01*
X182608796Y-97414504D01*
X182605196Y-97438773D01*
X182599235Y-97462571D01*
X182590970Y-97485671D01*
X182580480Y-97507849D01*
X182567867Y-97528893D01*
X182553253Y-97548598D01*
X182536777Y-97566777D01*
X182518598Y-97583253D01*
X182498893Y-97597867D01*
X182477849Y-97610480D01*
X182455671Y-97620970D01*
X182432571Y-97629235D01*
X182408773Y-97635196D01*
X182384504Y-97638796D01*
X182360000Y-97640000D01*
X180860000Y-97640000D01*
X180835496Y-97638796D01*
X180811227Y-97635196D01*
X180787429Y-97629235D01*
X180764329Y-97620970D01*
X180742151Y-97610480D01*
X180721107Y-97597867D01*
X180701402Y-97583253D01*
X180683223Y-97566777D01*
X180666747Y-97548598D01*
X180652133Y-97528893D01*
X180639520Y-97507849D01*
X180629030Y-97485671D01*
X180620765Y-97462571D01*
X180614804Y-97438773D01*
X180611204Y-97414504D01*
X180610000Y-97390000D01*
X180610000Y-96190000D01*
X180611204Y-96165496D01*
X180614804Y-96141227D01*
X180620765Y-96117429D01*
X180629030Y-96094329D01*
X180639520Y-96072151D01*
X180652133Y-96051107D01*
X180666747Y-96031402D01*
X180683223Y-96013223D01*
X180701402Y-95996747D01*
X180721107Y-95982133D01*
X180742151Y-95969520D01*
X180764329Y-95959030D01*
X180787429Y-95950765D01*
X180811227Y-95944804D01*
X180835496Y-95941204D01*
X180860000Y-95940000D01*
X182360000Y-95940000D01*
X182384504Y-95941204D01*
G37*
G04 #@! TD.AperFunction*
G04 #@! TA.AperFunction,ComponentPad*
G36*
X190749504Y-111181204D02*
G01*
X190773773Y-111184804D01*
X190797571Y-111190765D01*
X190820671Y-111199030D01*
X190842849Y-111209520D01*
X190863893Y-111222133D01*
X190883598Y-111236747D01*
X190901777Y-111253223D01*
X190918253Y-111271402D01*
X190932867Y-111291107D01*
X190945480Y-111312151D01*
X190955970Y-111334329D01*
X190964235Y-111357429D01*
X190970196Y-111381227D01*
X190973796Y-111405496D01*
X190975000Y-111430000D01*
X190975000Y-112630000D01*
X190973796Y-112654504D01*
X190970196Y-112678773D01*
X190964235Y-112702571D01*
X190955970Y-112725671D01*
X190945480Y-112747849D01*
X190932867Y-112768893D01*
X190918253Y-112788598D01*
X190901777Y-112806777D01*
X190883598Y-112823253D01*
X190863893Y-112837867D01*
X190842849Y-112850480D01*
X190820671Y-112860970D01*
X190797571Y-112869235D01*
X190773773Y-112875196D01*
X190749504Y-112878796D01*
X190725000Y-112880000D01*
X189275000Y-112880000D01*
X189250496Y-112878796D01*
X189226227Y-112875196D01*
X189202429Y-112869235D01*
X189179329Y-112860970D01*
X189157151Y-112850480D01*
X189136107Y-112837867D01*
X189116402Y-112823253D01*
X189098223Y-112806777D01*
X189081747Y-112788598D01*
X189067133Y-112768893D01*
X189054520Y-112747849D01*
X189044030Y-112725671D01*
X189035765Y-112702571D01*
X189029804Y-112678773D01*
X189026204Y-112654504D01*
X189025000Y-112630000D01*
X189025000Y-111430000D01*
X189026204Y-111405496D01*
X189029804Y-111381227D01*
X189035765Y-111357429D01*
X189044030Y-111334329D01*
X189054520Y-111312151D01*
X189067133Y-111291107D01*
X189081747Y-111271402D01*
X189098223Y-111253223D01*
X189116402Y-111236747D01*
X189136107Y-111222133D01*
X189157151Y-111209520D01*
X189179329Y-111199030D01*
X189202429Y-111190765D01*
X189226227Y-111184804D01*
X189250496Y-111181204D01*
X189275000Y-111180000D01*
X190725000Y-111180000D01*
X190749504Y-111181204D01*
G37*
G04 #@! TD.AperFunction*
D16*
X190000000Y-109530000D03*
X190000000Y-107030000D03*
X190000000Y-104530000D03*
G04 #@! TA.AperFunction,ComponentPad*
D14*
G36*
X158229504Y-111181204D02*
G01*
X158253773Y-111184804D01*
X158277571Y-111190765D01*
X158300671Y-111199030D01*
X158322849Y-111209520D01*
X158343893Y-111222133D01*
X158363598Y-111236747D01*
X158381777Y-111253223D01*
X158398253Y-111271402D01*
X158412867Y-111291107D01*
X158425480Y-111312151D01*
X158435970Y-111334329D01*
X158444235Y-111357429D01*
X158450196Y-111381227D01*
X158453796Y-111405496D01*
X158455000Y-111430000D01*
X158455000Y-112630000D01*
X158453796Y-112654504D01*
X158450196Y-112678773D01*
X158444235Y-112702571D01*
X158435970Y-112725671D01*
X158425480Y-112747849D01*
X158412867Y-112768893D01*
X158398253Y-112788598D01*
X158381777Y-112806777D01*
X158363598Y-112823253D01*
X158343893Y-112837867D01*
X158322849Y-112850480D01*
X158300671Y-112860970D01*
X158277571Y-112869235D01*
X158253773Y-112875196D01*
X158229504Y-112878796D01*
X158205000Y-112880000D01*
X156755000Y-112880000D01*
X156730496Y-112878796D01*
X156706227Y-112875196D01*
X156682429Y-112869235D01*
X156659329Y-112860970D01*
X156637151Y-112850480D01*
X156616107Y-112837867D01*
X156596402Y-112823253D01*
X156578223Y-112806777D01*
X156561747Y-112788598D01*
X156547133Y-112768893D01*
X156534520Y-112747849D01*
X156524030Y-112725671D01*
X156515765Y-112702571D01*
X156509804Y-112678773D01*
X156506204Y-112654504D01*
X156505000Y-112630000D01*
X156505000Y-111430000D01*
X156506204Y-111405496D01*
X156509804Y-111381227D01*
X156515765Y-111357429D01*
X156524030Y-111334329D01*
X156534520Y-111312151D01*
X156547133Y-111291107D01*
X156561747Y-111271402D01*
X156578223Y-111253223D01*
X156596402Y-111236747D01*
X156616107Y-111222133D01*
X156637151Y-111209520D01*
X156659329Y-111199030D01*
X156682429Y-111190765D01*
X156706227Y-111184804D01*
X156730496Y-111181204D01*
X156755000Y-111180000D01*
X158205000Y-111180000D01*
X158229504Y-111181204D01*
G37*
G04 #@! TD.AperFunction*
D16*
X157480000Y-109530000D03*
X157480000Y-107030000D03*
X157480000Y-104530000D03*
D10*
X161290000Y-87900000D03*
D11*
X161290000Y-98060000D03*
X165100000Y-98060000D03*
D10*
X165100000Y-87900000D03*
X168910000Y-87900000D03*
D11*
X168910000Y-98060000D03*
X172720000Y-98060000D03*
D10*
X172720000Y-87900000D03*
D17*
X184150000Y-87900000D03*
D18*
X181610000Y-87900000D03*
X149860000Y-87900000D03*
D17*
X152400000Y-87900000D03*
D11*
X176530000Y-98060000D03*
D10*
X176530000Y-87900000D03*
D19*
X157480000Y-104530000D02*
X157480000Y-104410000D01*
X180385000Y-109530000D02*
X177800000Y-106945000D01*
X181610000Y-109530000D02*
X180385000Y-109530000D01*
X177800000Y-106945000D02*
X177800000Y-103140000D01*
X177800000Y-103140000D02*
X176530000Y-101870000D01*
X166370000Y-104410000D02*
X168910000Y-101870000D01*
X168910000Y-101870000D02*
X176530000Y-101870000D01*
X168910000Y-98060000D02*
X168910000Y-101870000D01*
X181610000Y-112030000D02*
X180635000Y-112030000D01*
X174215000Y-104410000D02*
X173990000Y-104410000D01*
X181610000Y-111805000D02*
X174215000Y-104410000D01*
X181610000Y-112030000D02*
X181610000Y-111805000D01*
X167680000Y-94290000D02*
X181610000Y-94290000D01*
X167680000Y-94290000D02*
X165100000Y-91710000D01*
X165100000Y-91710000D02*
X165100000Y-87900000D01*
X157480000Y-112030000D02*
X160020000Y-112030000D01*
X160020000Y-112030000D02*
X162560000Y-109490000D01*
X162560000Y-100600000D02*
X165100000Y-98060000D01*
X162560000Y-109490000D02*
X162560000Y-100600000D01*
X176530000Y-87900000D02*
X181610000Y-87900000D01*
X154940000Y-90440000D02*
X157480000Y-87900000D01*
X149860000Y-87900000D02*
X152400000Y-90440000D01*
X152400000Y-90440000D02*
X154940000Y-90440000D01*
D20*
G36*
X195340001Y-117340000D02*
G01*
X146660000Y-117340000D01*
X146660000Y-107779872D01*
X148765000Y-107779872D01*
X148765000Y-108220128D01*
X148850890Y-108651925D01*
X149019369Y-109058669D01*
X149263962Y-109424729D01*
X149575271Y-109736038D01*
X149941331Y-109980631D01*
X150348075Y-110149110D01*
X150779872Y-110235000D01*
X151220128Y-110235000D01*
X151651925Y-110149110D01*
X152058669Y-109980631D01*
X152424729Y-109736038D01*
X152736038Y-109424729D01*
X152980631Y-109058669D01*
X153149110Y-108651925D01*
X153235000Y-108220128D01*
X153235000Y-107779872D01*
X153149110Y-107348075D01*
X153017359Y-107030000D01*
X155862815Y-107030000D01*
X155891487Y-107321111D01*
X155976401Y-107601034D01*
X156114294Y-107859014D01*
X156299866Y-108085134D01*
X156525986Y-108270706D01*
X156543374Y-108280000D01*
X156525986Y-108289294D01*
X156299866Y-108474866D01*
X156114294Y-108700986D01*
X155976401Y-108958966D01*
X155891487Y-109238889D01*
X155862815Y-109530000D01*
X155891487Y-109821111D01*
X155976401Y-110101034D01*
X156114294Y-110359014D01*
X156299866Y-110585134D01*
X156363337Y-110637223D01*
X156261614Y-110691595D01*
X156127038Y-110802038D01*
X156016595Y-110936614D01*
X155934528Y-111090150D01*
X155883992Y-111256746D01*
X155866928Y-111430000D01*
X155866928Y-112630000D01*
X155883992Y-112803254D01*
X155934528Y-112969850D01*
X156016595Y-113123386D01*
X156127038Y-113257962D01*
X156261614Y-113368405D01*
X156415150Y-113450472D01*
X156581746Y-113501008D01*
X156755000Y-113518072D01*
X158205000Y-113518072D01*
X158245000Y-113514132D01*
X158245000Y-113751637D01*
X158292460Y-113990236D01*
X158385557Y-114214992D01*
X158520713Y-114417267D01*
X158692733Y-114589287D01*
X158895008Y-114724443D01*
X159119764Y-114817540D01*
X159358363Y-114865000D01*
X159601637Y-114865000D01*
X159840236Y-114817540D01*
X160064992Y-114724443D01*
X160267267Y-114589287D01*
X160439287Y-114417267D01*
X160574443Y-114214992D01*
X160667540Y-113990236D01*
X160715000Y-113751637D01*
X160715000Y-113508363D01*
X160667540Y-113269764D01*
X160574443Y-113045008D01*
X160439287Y-112842733D01*
X160325185Y-112728631D01*
X160444276Y-112664974D01*
X160560001Y-112570001D01*
X160583804Y-112540997D01*
X163071009Y-110053794D01*
X163100001Y-110030001D01*
X163123795Y-110001008D01*
X163123799Y-110001004D01*
X163194973Y-109914277D01*
X163194974Y-109914276D01*
X163265546Y-109782247D01*
X163309003Y-109638986D01*
X163320000Y-109527333D01*
X163320000Y-109527324D01*
X163323676Y-109490001D01*
X163320000Y-109452678D01*
X163320000Y-105680000D01*
X164979388Y-105680000D01*
X165001785Y-105907400D01*
X165068115Y-106126060D01*
X165169105Y-106315000D01*
X165068115Y-106503940D01*
X165001785Y-106722600D01*
X164979388Y-106950000D01*
X165001785Y-107177400D01*
X165068115Y-107396060D01*
X165175829Y-107597579D01*
X165320788Y-107774212D01*
X165497421Y-107919171D01*
X165698940Y-108026885D01*
X165917600Y-108093215D01*
X166088021Y-108110000D01*
X166651979Y-108110000D01*
X166822400Y-108093215D01*
X167041060Y-108026885D01*
X167242579Y-107919171D01*
X167419212Y-107774212D01*
X167564171Y-107597579D01*
X167671885Y-107396060D01*
X167738215Y-107177400D01*
X167760612Y-106950000D01*
X167738215Y-106722600D01*
X167671885Y-106503940D01*
X167570895Y-106315000D01*
X167671885Y-106126060D01*
X167738215Y-105907400D01*
X167760612Y-105680000D01*
X167738215Y-105452600D01*
X167674907Y-105243902D01*
X167709502Y-105179180D01*
X167745812Y-105059482D01*
X167758072Y-104935000D01*
X167758072Y-104096730D01*
X169224803Y-102630000D01*
X176215199Y-102630000D01*
X177040001Y-103454803D01*
X177040000Y-106160199D01*
X175378072Y-104498271D01*
X175378072Y-103885000D01*
X175365812Y-103760518D01*
X175329502Y-103640820D01*
X175270537Y-103530506D01*
X175191185Y-103433815D01*
X175094494Y-103354463D01*
X174984180Y-103295498D01*
X174864482Y-103259188D01*
X174740000Y-103246928D01*
X173240000Y-103246928D01*
X173115518Y-103259188D01*
X172995820Y-103295498D01*
X172885506Y-103354463D01*
X172788815Y-103433815D01*
X172709463Y-103530506D01*
X172650498Y-103640820D01*
X172614188Y-103760518D01*
X172601928Y-103885000D01*
X172601928Y-104935000D01*
X172614188Y-105059482D01*
X172650498Y-105179180D01*
X172685093Y-105243902D01*
X172621785Y-105452600D01*
X172599388Y-105680000D01*
X172621785Y-105907400D01*
X172688115Y-106126060D01*
X172789105Y-106315000D01*
X172688115Y-106503940D01*
X172621785Y-106722600D01*
X172599388Y-106950000D01*
X172621785Y-107177400D01*
X172688115Y-107396060D01*
X172795829Y-107597579D01*
X172940788Y-107774212D01*
X173117421Y-107919171D01*
X173318940Y-108026885D01*
X173537600Y-108093215D01*
X173708021Y-108110000D01*
X174271979Y-108110000D01*
X174442400Y-108093215D01*
X174661060Y-108026885D01*
X174862579Y-107919171D01*
X175039212Y-107774212D01*
X175184171Y-107597579D01*
X175291885Y-107396060D01*
X175358215Y-107177400D01*
X175380612Y-106950000D01*
X175358215Y-106722600D01*
X175317030Y-106586831D01*
X180011567Y-111281369D01*
X179996928Y-111430000D01*
X179996928Y-111611520D01*
X179929454Y-111737753D01*
X179885997Y-111881014D01*
X179871323Y-112030000D01*
X179885997Y-112178986D01*
X179929454Y-112322247D01*
X179996928Y-112448480D01*
X179996928Y-112630000D01*
X180013992Y-112803254D01*
X180064528Y-112969850D01*
X180146595Y-113123386D01*
X180257038Y-113257962D01*
X180391614Y-113368405D01*
X180545150Y-113450472D01*
X180711746Y-113501008D01*
X180885000Y-113518072D01*
X182335000Y-113518072D01*
X182375000Y-113514132D01*
X182375000Y-113751637D01*
X182422460Y-113990236D01*
X182515557Y-114214992D01*
X182650713Y-114417267D01*
X182822733Y-114589287D01*
X183025008Y-114724443D01*
X183249764Y-114817540D01*
X183488363Y-114865000D01*
X183731637Y-114865000D01*
X183970236Y-114817540D01*
X184194992Y-114724443D01*
X184397267Y-114589287D01*
X184569287Y-114417267D01*
X184704443Y-114214992D01*
X184797540Y-113990236D01*
X184845000Y-113751637D01*
X184845000Y-113508363D01*
X184797540Y-113269764D01*
X184704443Y-113045008D01*
X184569287Y-112842733D01*
X184397267Y-112670713D01*
X184194992Y-112535557D01*
X183970236Y-112442460D01*
X183731637Y-112395000D01*
X183488363Y-112395000D01*
X183249764Y-112442460D01*
X183223072Y-112453516D01*
X183223072Y-111430000D01*
X183206008Y-111256746D01*
X183155472Y-111090150D01*
X183073405Y-110936614D01*
X182962962Y-110802038D01*
X182828386Y-110691595D01*
X182726663Y-110637223D01*
X182790134Y-110585134D01*
X182975706Y-110359014D01*
X183113599Y-110101034D01*
X183198513Y-109821111D01*
X183227185Y-109530000D01*
X183198513Y-109238889D01*
X183113599Y-108958966D01*
X182975706Y-108700986D01*
X182790134Y-108474866D01*
X182564014Y-108289294D01*
X182546626Y-108280000D01*
X182564014Y-108270706D01*
X182790134Y-108085134D01*
X182975706Y-107859014D01*
X183113599Y-107601034D01*
X183198513Y-107321111D01*
X183227185Y-107030000D01*
X188382815Y-107030000D01*
X188411487Y-107321111D01*
X188496401Y-107601034D01*
X188634294Y-107859014D01*
X188819866Y-108085134D01*
X189045986Y-108270706D01*
X189063374Y-108280000D01*
X189045986Y-108289294D01*
X188819866Y-108474866D01*
X188634294Y-108700986D01*
X188496401Y-108958966D01*
X188411487Y-109238889D01*
X188382815Y-109530000D01*
X188411487Y-109821111D01*
X188496401Y-110101034D01*
X188634294Y-110359014D01*
X188819866Y-110585134D01*
X188883337Y-110637223D01*
X188781614Y-110691595D01*
X188647038Y-110802038D01*
X188536595Y-110936614D01*
X188454528Y-111090150D01*
X188403992Y-111256746D01*
X188386928Y-111430000D01*
X188386928Y-112630000D01*
X188403992Y-112803254D01*
X188454528Y-112969850D01*
X188536595Y-113123386D01*
X188647038Y-113257962D01*
X188781614Y-113368405D01*
X188935150Y-113450472D01*
X189101746Y-113501008D01*
X189275000Y-113518072D01*
X190725000Y-113518072D01*
X190765000Y-113514132D01*
X190765000Y-113751637D01*
X190812460Y-113990236D01*
X190905557Y-114214992D01*
X191040713Y-114417267D01*
X191212733Y-114589287D01*
X191415008Y-114724443D01*
X191639764Y-114817540D01*
X191878363Y-114865000D01*
X192121637Y-114865000D01*
X192360236Y-114817540D01*
X192584992Y-114724443D01*
X192787267Y-114589287D01*
X192959287Y-114417267D01*
X193094443Y-114214992D01*
X193187540Y-113990236D01*
X193235000Y-113751637D01*
X193235000Y-113508363D01*
X193187540Y-113269764D01*
X193094443Y-113045008D01*
X192959287Y-112842733D01*
X192787267Y-112670713D01*
X192584992Y-112535557D01*
X192360236Y-112442460D01*
X192121637Y-112395000D01*
X191878363Y-112395000D01*
X191639764Y-112442460D01*
X191613072Y-112453516D01*
X191613072Y-111430000D01*
X191596008Y-111256746D01*
X191545472Y-111090150D01*
X191463405Y-110936614D01*
X191352962Y-110802038D01*
X191218386Y-110691595D01*
X191116663Y-110637223D01*
X191180134Y-110585134D01*
X191365706Y-110359014D01*
X191503599Y-110101034D01*
X191588513Y-109821111D01*
X191617185Y-109530000D01*
X191588513Y-109238889D01*
X191503599Y-108958966D01*
X191365706Y-108700986D01*
X191180134Y-108474866D01*
X190954014Y-108289294D01*
X190936626Y-108280000D01*
X190954014Y-108270706D01*
X191180134Y-108085134D01*
X191365706Y-107859014D01*
X191503599Y-107601034D01*
X191588513Y-107321111D01*
X191617185Y-107030000D01*
X191588513Y-106738889D01*
X191503599Y-106458966D01*
X191365706Y-106200986D01*
X191180134Y-105974866D01*
X190954014Y-105789294D01*
X190928278Y-105775538D01*
X191134429Y-105619049D01*
X191327496Y-105401193D01*
X191474352Y-105149858D01*
X191566476Y-104886890D01*
X191445155Y-104657000D01*
X190127000Y-104657000D01*
X190127000Y-104677000D01*
X189873000Y-104677000D01*
X189873000Y-104657000D01*
X188554845Y-104657000D01*
X188433524Y-104886890D01*
X188525648Y-105149858D01*
X188672504Y-105401193D01*
X188865571Y-105619049D01*
X189071722Y-105775538D01*
X189045986Y-105789294D01*
X188819866Y-105974866D01*
X188634294Y-106200986D01*
X188496401Y-106458966D01*
X188411487Y-106738889D01*
X188382815Y-107030000D01*
X183227185Y-107030000D01*
X183198513Y-106738889D01*
X183113599Y-106458966D01*
X182975706Y-106200986D01*
X182790134Y-105974866D01*
X182564014Y-105789294D01*
X182538278Y-105775538D01*
X182744429Y-105619049D01*
X182937496Y-105401193D01*
X183084352Y-105149858D01*
X183176476Y-104886890D01*
X183055155Y-104657000D01*
X181737000Y-104657000D01*
X181737000Y-104677000D01*
X181483000Y-104677000D01*
X181483000Y-104657000D01*
X180164845Y-104657000D01*
X180043524Y-104886890D01*
X180135648Y-105149858D01*
X180282504Y-105401193D01*
X180475571Y-105619049D01*
X180681722Y-105775538D01*
X180655986Y-105789294D01*
X180429866Y-105974866D01*
X180244294Y-106200986D01*
X180106401Y-106458966D01*
X180021487Y-106738889D01*
X179992815Y-107030000D01*
X180021487Y-107321111D01*
X180106401Y-107601034D01*
X180244294Y-107859014D01*
X180429866Y-108085134D01*
X180655986Y-108270706D01*
X180673374Y-108280000D01*
X180655986Y-108289294D01*
X180429866Y-108474866D01*
X180418508Y-108488706D01*
X178560000Y-106630199D01*
X178560000Y-104173110D01*
X180043524Y-104173110D01*
X180164845Y-104403000D01*
X181483000Y-104403000D01*
X181483000Y-103203835D01*
X181737000Y-103203835D01*
X181737000Y-104403000D01*
X183055155Y-104403000D01*
X183176476Y-104173110D01*
X188433524Y-104173110D01*
X188554845Y-104403000D01*
X189873000Y-104403000D01*
X189873000Y-103203835D01*
X190127000Y-103203835D01*
X190127000Y-104403000D01*
X191445155Y-104403000D01*
X191566476Y-104173110D01*
X191474352Y-103910142D01*
X191327496Y-103658807D01*
X191134429Y-103440951D01*
X190902570Y-103264947D01*
X190640830Y-103137558D01*
X190359267Y-103063680D01*
X190127000Y-103203835D01*
X189873000Y-103203835D01*
X189640733Y-103063680D01*
X189359170Y-103137558D01*
X189097430Y-103264947D01*
X188865571Y-103440951D01*
X188672504Y-103658807D01*
X188525648Y-103910142D01*
X188433524Y-104173110D01*
X183176476Y-104173110D01*
X183084352Y-103910142D01*
X182937496Y-103658807D01*
X182744429Y-103440951D01*
X182512570Y-103264947D01*
X182250830Y-103137558D01*
X181969267Y-103063680D01*
X181737000Y-103203835D01*
X181483000Y-103203835D01*
X181250733Y-103063680D01*
X180969170Y-103137558D01*
X180707430Y-103264947D01*
X180475571Y-103440951D01*
X180282504Y-103658807D01*
X180135648Y-103910142D01*
X180043524Y-104173110D01*
X178560000Y-104173110D01*
X178560000Y-103177322D01*
X178563676Y-103139999D01*
X178560000Y-103102676D01*
X178560000Y-103102667D01*
X178549003Y-102991014D01*
X178505546Y-102847753D01*
X178434974Y-102715724D01*
X178340001Y-102599999D01*
X178311003Y-102576201D01*
X177093804Y-101359003D01*
X177070001Y-101329999D01*
X176954276Y-101235026D01*
X176822247Y-101164454D01*
X176678986Y-101120997D01*
X176567333Y-101110000D01*
X176567322Y-101110000D01*
X176530000Y-101106324D01*
X176492678Y-101110000D01*
X169670000Y-101110000D01*
X169670000Y-99278043D01*
X169824759Y-99174637D01*
X170024637Y-98974759D01*
X170181680Y-98739727D01*
X170289853Y-98478574D01*
X170345000Y-98201335D01*
X170345000Y-97918665D01*
X171285000Y-97918665D01*
X171285000Y-98201335D01*
X171340147Y-98478574D01*
X171448320Y-98739727D01*
X171605363Y-98974759D01*
X171805241Y-99174637D01*
X172040273Y-99331680D01*
X172301426Y-99439853D01*
X172578665Y-99495000D01*
X172861335Y-99495000D01*
X173138574Y-99439853D01*
X173399727Y-99331680D01*
X173634759Y-99174637D01*
X173756694Y-99052702D01*
X175716903Y-99052702D01*
X175788486Y-99296671D01*
X176043996Y-99417571D01*
X176318184Y-99486300D01*
X176600512Y-99500217D01*
X176880130Y-99458787D01*
X177146292Y-99363603D01*
X177271514Y-99296671D01*
X177343097Y-99052702D01*
X176530000Y-98239605D01*
X175716903Y-99052702D01*
X173756694Y-99052702D01*
X173834637Y-98974759D01*
X173991680Y-98739727D01*
X174099853Y-98478574D01*
X174155000Y-98201335D01*
X174155000Y-98130512D01*
X175089783Y-98130512D01*
X175131213Y-98410130D01*
X175226397Y-98676292D01*
X175293329Y-98801514D01*
X175537298Y-98873097D01*
X176350395Y-98060000D01*
X176709605Y-98060000D01*
X177522702Y-98873097D01*
X177766671Y-98801514D01*
X177887571Y-98546004D01*
X177956300Y-98271816D01*
X177970217Y-97989488D01*
X177928787Y-97709870D01*
X177903801Y-97640000D01*
X179971928Y-97640000D01*
X179984188Y-97764482D01*
X180020498Y-97884180D01*
X180079463Y-97994494D01*
X180158815Y-98091185D01*
X180255506Y-98170537D01*
X180365820Y-98229502D01*
X180485518Y-98265812D01*
X180610000Y-98278072D01*
X181324250Y-98275000D01*
X181483000Y-98116250D01*
X181483000Y-96917000D01*
X181737000Y-96917000D01*
X181737000Y-98116250D01*
X181895750Y-98275000D01*
X182375000Y-98277061D01*
X182375000Y-98511637D01*
X182422460Y-98750236D01*
X182515557Y-98974992D01*
X182650713Y-99177267D01*
X182822733Y-99349287D01*
X183025008Y-99484443D01*
X183249764Y-99577540D01*
X183488363Y-99625000D01*
X183731637Y-99625000D01*
X183970236Y-99577540D01*
X184194992Y-99484443D01*
X184397267Y-99349287D01*
X184569287Y-99177267D01*
X184704443Y-98974992D01*
X184797540Y-98750236D01*
X184845000Y-98511637D01*
X184845000Y-98268363D01*
X184797540Y-98029764D01*
X184704443Y-97805008D01*
X184569287Y-97602733D01*
X184397267Y-97430713D01*
X184194992Y-97295557D01*
X183970236Y-97202460D01*
X183731637Y-97155000D01*
X183488363Y-97155000D01*
X183249764Y-97202460D01*
X183245699Y-97204144D01*
X183245000Y-97075750D01*
X183086250Y-96917000D01*
X181737000Y-96917000D01*
X181483000Y-96917000D01*
X180133750Y-96917000D01*
X179975000Y-97075750D01*
X179971928Y-97640000D01*
X177903801Y-97640000D01*
X177833603Y-97443708D01*
X177766671Y-97318486D01*
X177522702Y-97246903D01*
X176709605Y-98060000D01*
X176350395Y-98060000D01*
X175537298Y-97246903D01*
X175293329Y-97318486D01*
X175172429Y-97573996D01*
X175103700Y-97848184D01*
X175089783Y-98130512D01*
X174155000Y-98130512D01*
X174155000Y-97918665D01*
X174099853Y-97641426D01*
X173991680Y-97380273D01*
X173834637Y-97145241D01*
X173756694Y-97067298D01*
X175716903Y-97067298D01*
X176530000Y-97880395D01*
X177343097Y-97067298D01*
X177271514Y-96823329D01*
X177016004Y-96702429D01*
X176741816Y-96633700D01*
X176459488Y-96619783D01*
X176179870Y-96661213D01*
X175913708Y-96756397D01*
X175788486Y-96823329D01*
X175716903Y-97067298D01*
X173756694Y-97067298D01*
X173634759Y-96945363D01*
X173399727Y-96788320D01*
X173138574Y-96680147D01*
X172861335Y-96625000D01*
X172578665Y-96625000D01*
X172301426Y-96680147D01*
X172040273Y-96788320D01*
X171805241Y-96945363D01*
X171605363Y-97145241D01*
X171448320Y-97380273D01*
X171340147Y-97641426D01*
X171285000Y-97918665D01*
X170345000Y-97918665D01*
X170289853Y-97641426D01*
X170181680Y-97380273D01*
X170024637Y-97145241D01*
X169824759Y-96945363D01*
X169589727Y-96788320D01*
X169328574Y-96680147D01*
X169051335Y-96625000D01*
X168768665Y-96625000D01*
X168491426Y-96680147D01*
X168230273Y-96788320D01*
X167995241Y-96945363D01*
X167795363Y-97145241D01*
X167638320Y-97380273D01*
X167530147Y-97641426D01*
X167475000Y-97918665D01*
X167475000Y-98201335D01*
X167530147Y-98478574D01*
X167638320Y-98739727D01*
X167795363Y-98974759D01*
X167995241Y-99174637D01*
X168150000Y-99278044D01*
X168150001Y-101555196D01*
X166458270Y-103246928D01*
X165620000Y-103246928D01*
X165495518Y-103259188D01*
X165375820Y-103295498D01*
X165265506Y-103354463D01*
X165168815Y-103433815D01*
X165089463Y-103530506D01*
X165030498Y-103640820D01*
X164994188Y-103760518D01*
X164981928Y-103885000D01*
X164981928Y-104935000D01*
X164994188Y-105059482D01*
X165030498Y-105179180D01*
X165065093Y-105243902D01*
X165001785Y-105452600D01*
X164979388Y-105680000D01*
X163320000Y-105680000D01*
X163320000Y-100914801D01*
X164776114Y-99458688D01*
X164958665Y-99495000D01*
X165241335Y-99495000D01*
X165518574Y-99439853D01*
X165779727Y-99331680D01*
X166014759Y-99174637D01*
X166214637Y-98974759D01*
X166371680Y-98739727D01*
X166479853Y-98478574D01*
X166535000Y-98201335D01*
X166535000Y-97918665D01*
X166479853Y-97641426D01*
X166371680Y-97380273D01*
X166214637Y-97145241D01*
X166014759Y-96945363D01*
X165779727Y-96788320D01*
X165518574Y-96680147D01*
X165241335Y-96625000D01*
X164958665Y-96625000D01*
X164681426Y-96680147D01*
X164420273Y-96788320D01*
X164185241Y-96945363D01*
X163985363Y-97145241D01*
X163828320Y-97380273D01*
X163720147Y-97641426D01*
X163665000Y-97918665D01*
X163665000Y-98201335D01*
X163701312Y-98383886D01*
X162048998Y-100036201D01*
X162020000Y-100059999D01*
X161996202Y-100088997D01*
X161996201Y-100088998D01*
X161925026Y-100175724D01*
X161854454Y-100307754D01*
X161810998Y-100451015D01*
X161796324Y-100600000D01*
X161800001Y-100637332D01*
X161800000Y-109175197D01*
X159705199Y-111270000D01*
X159077313Y-111270000D01*
X159076008Y-111256746D01*
X159025472Y-111090150D01*
X158943405Y-110936614D01*
X158832962Y-110802038D01*
X158698386Y-110691595D01*
X158596663Y-110637223D01*
X158660134Y-110585134D01*
X158845706Y-110359014D01*
X158983599Y-110101034D01*
X159068513Y-109821111D01*
X159097185Y-109530000D01*
X159068513Y-109238889D01*
X158983599Y-108958966D01*
X158845706Y-108700986D01*
X158660134Y-108474866D01*
X158434014Y-108289294D01*
X158416626Y-108280000D01*
X158434014Y-108270706D01*
X158660134Y-108085134D01*
X158845706Y-107859014D01*
X158983599Y-107601034D01*
X159068513Y-107321111D01*
X159097185Y-107030000D01*
X159068513Y-106738889D01*
X158983599Y-106458966D01*
X158845706Y-106200986D01*
X158660134Y-105974866D01*
X158434014Y-105789294D01*
X158408278Y-105775538D01*
X158614429Y-105619049D01*
X158807496Y-105401193D01*
X158954352Y-105149858D01*
X159046476Y-104886890D01*
X158925155Y-104657000D01*
X157607000Y-104657000D01*
X157607000Y-104677000D01*
X157353000Y-104677000D01*
X157353000Y-104657000D01*
X156034845Y-104657000D01*
X155913524Y-104886890D01*
X156005648Y-105149858D01*
X156152504Y-105401193D01*
X156345571Y-105619049D01*
X156551722Y-105775538D01*
X156525986Y-105789294D01*
X156299866Y-105974866D01*
X156114294Y-106200986D01*
X155976401Y-106458966D01*
X155891487Y-106738889D01*
X155862815Y-107030000D01*
X153017359Y-107030000D01*
X152980631Y-106941331D01*
X152736038Y-106575271D01*
X152424729Y-106263962D01*
X152058669Y-106019369D01*
X151651925Y-105850890D01*
X151220128Y-105765000D01*
X150779872Y-105765000D01*
X150348075Y-105850890D01*
X149941331Y-106019369D01*
X149575271Y-106263962D01*
X149263962Y-106575271D01*
X149019369Y-106941331D01*
X148850890Y-107348075D01*
X148765000Y-107779872D01*
X146660000Y-107779872D01*
X146660000Y-104173110D01*
X155913524Y-104173110D01*
X156034845Y-104403000D01*
X157353000Y-104403000D01*
X157353000Y-103203835D01*
X157607000Y-103203835D01*
X157607000Y-104403000D01*
X158925155Y-104403000D01*
X159046476Y-104173110D01*
X158954352Y-103910142D01*
X158807496Y-103658807D01*
X158614429Y-103440951D01*
X158382570Y-103264947D01*
X158120830Y-103137558D01*
X157839267Y-103063680D01*
X157607000Y-103203835D01*
X157353000Y-103203835D01*
X157120733Y-103063680D01*
X156839170Y-103137558D01*
X156577430Y-103264947D01*
X156345571Y-103440951D01*
X156152504Y-103658807D01*
X156005648Y-103910142D01*
X155913524Y-104173110D01*
X146660000Y-104173110D01*
X146660000Y-97640000D01*
X149491928Y-97640000D01*
X149504188Y-97764482D01*
X149540498Y-97884180D01*
X149599463Y-97994494D01*
X149678815Y-98091185D01*
X149775506Y-98170537D01*
X149885820Y-98229502D01*
X150005518Y-98265812D01*
X150130000Y-98278072D01*
X150844250Y-98275000D01*
X151003000Y-98116250D01*
X151003000Y-96917000D01*
X151257000Y-96917000D01*
X151257000Y-98116250D01*
X151415750Y-98275000D01*
X151895000Y-98277061D01*
X151895000Y-98511637D01*
X151942460Y-98750236D01*
X152035557Y-98974992D01*
X152170713Y-99177267D01*
X152342733Y-99349287D01*
X152545008Y-99484443D01*
X152769764Y-99577540D01*
X153008363Y-99625000D01*
X153251637Y-99625000D01*
X153490236Y-99577540D01*
X153714992Y-99484443D01*
X153917267Y-99349287D01*
X154089287Y-99177267D01*
X154172518Y-99052702D01*
X156666903Y-99052702D01*
X156738486Y-99296671D01*
X156993996Y-99417571D01*
X157268184Y-99486300D01*
X157550512Y-99500217D01*
X157830130Y-99458787D01*
X158096292Y-99363603D01*
X158221514Y-99296671D01*
X158293097Y-99052702D01*
X157480000Y-98239605D01*
X156666903Y-99052702D01*
X154172518Y-99052702D01*
X154224443Y-98974992D01*
X154317540Y-98750236D01*
X154365000Y-98511637D01*
X154365000Y-98268363D01*
X154337580Y-98130512D01*
X156039783Y-98130512D01*
X156081213Y-98410130D01*
X156176397Y-98676292D01*
X156243329Y-98801514D01*
X156487298Y-98873097D01*
X157300395Y-98060000D01*
X157659605Y-98060000D01*
X158472702Y-98873097D01*
X158716671Y-98801514D01*
X158837571Y-98546004D01*
X158906300Y-98271816D01*
X158920217Y-97989488D01*
X158909724Y-97918665D01*
X159855000Y-97918665D01*
X159855000Y-98201335D01*
X159910147Y-98478574D01*
X160018320Y-98739727D01*
X160175363Y-98974759D01*
X160375241Y-99174637D01*
X160610273Y-99331680D01*
X160871426Y-99439853D01*
X161148665Y-99495000D01*
X161431335Y-99495000D01*
X161708574Y-99439853D01*
X161969727Y-99331680D01*
X162204759Y-99174637D01*
X162404637Y-98974759D01*
X162561680Y-98739727D01*
X162669853Y-98478574D01*
X162725000Y-98201335D01*
X162725000Y-97918665D01*
X162669853Y-97641426D01*
X162561680Y-97380273D01*
X162404637Y-97145241D01*
X162204759Y-96945363D01*
X161969727Y-96788320D01*
X161708574Y-96680147D01*
X161431335Y-96625000D01*
X161148665Y-96625000D01*
X160871426Y-96680147D01*
X160610273Y-96788320D01*
X160375241Y-96945363D01*
X160175363Y-97145241D01*
X160018320Y-97380273D01*
X159910147Y-97641426D01*
X159855000Y-97918665D01*
X158909724Y-97918665D01*
X158878787Y-97709870D01*
X158783603Y-97443708D01*
X158716671Y-97318486D01*
X158472702Y-97246903D01*
X157659605Y-98060000D01*
X157300395Y-98060000D01*
X156487298Y-97246903D01*
X156243329Y-97318486D01*
X156122429Y-97573996D01*
X156053700Y-97848184D01*
X156039783Y-98130512D01*
X154337580Y-98130512D01*
X154317540Y-98029764D01*
X154224443Y-97805008D01*
X154089287Y-97602733D01*
X153917267Y-97430713D01*
X153714992Y-97295557D01*
X153490236Y-97202460D01*
X153251637Y-97155000D01*
X153008363Y-97155000D01*
X152769764Y-97202460D01*
X152765699Y-97204144D01*
X152765000Y-97075750D01*
X152756548Y-97067298D01*
X156666903Y-97067298D01*
X157480000Y-97880395D01*
X158293097Y-97067298D01*
X158221514Y-96823329D01*
X157966004Y-96702429D01*
X157691816Y-96633700D01*
X157409488Y-96619783D01*
X157129870Y-96661213D01*
X156863708Y-96756397D01*
X156738486Y-96823329D01*
X156666903Y-97067298D01*
X152756548Y-97067298D01*
X152606250Y-96917000D01*
X151257000Y-96917000D01*
X151003000Y-96917000D01*
X149653750Y-96917000D01*
X149495000Y-97075750D01*
X149491928Y-97640000D01*
X146660000Y-97640000D01*
X146660000Y-94290000D01*
X149487815Y-94290000D01*
X149516487Y-94581111D01*
X149601401Y-94861034D01*
X149739294Y-95119014D01*
X149920608Y-95339945D01*
X149885820Y-95350498D01*
X149775506Y-95409463D01*
X149678815Y-95488815D01*
X149599463Y-95585506D01*
X149540498Y-95695820D01*
X149504188Y-95815518D01*
X149491928Y-95940000D01*
X149495000Y-96504250D01*
X149653750Y-96663000D01*
X151003000Y-96663000D01*
X151003000Y-96643000D01*
X151257000Y-96643000D01*
X151257000Y-96663000D01*
X152606250Y-96663000D01*
X152765000Y-96504250D01*
X152768072Y-95940000D01*
X152755812Y-95815518D01*
X152719502Y-95695820D01*
X152660537Y-95585506D01*
X152581185Y-95488815D01*
X152484494Y-95409463D01*
X152374180Y-95350498D01*
X152339392Y-95339945D01*
X152520706Y-95119014D01*
X152658599Y-94861034D01*
X152743513Y-94581111D01*
X152772185Y-94290000D01*
X152743513Y-93998889D01*
X152658599Y-93718966D01*
X152520706Y-93460986D01*
X152335134Y-93234866D01*
X152109014Y-93049294D01*
X151851034Y-92911401D01*
X151571111Y-92826487D01*
X151352950Y-92805000D01*
X150907050Y-92805000D01*
X150688889Y-92826487D01*
X150408966Y-92911401D01*
X150150986Y-93049294D01*
X149924866Y-93234866D01*
X149739294Y-93460986D01*
X149601401Y-93718966D01*
X149516487Y-93998889D01*
X149487815Y-94290000D01*
X146660000Y-94290000D01*
X146660000Y-87000000D01*
X148321928Y-87000000D01*
X148321928Y-88800000D01*
X148334188Y-88924482D01*
X148370498Y-89044180D01*
X148429463Y-89154494D01*
X148508815Y-89251185D01*
X148605506Y-89330537D01*
X148715820Y-89389502D01*
X148835518Y-89425812D01*
X148960000Y-89438072D01*
X150323270Y-89438072D01*
X151836205Y-90951008D01*
X151859999Y-90980001D01*
X151888992Y-91003795D01*
X151888996Y-91003799D01*
X151959685Y-91061811D01*
X151975724Y-91074974D01*
X152107753Y-91145546D01*
X152251014Y-91189003D01*
X152362667Y-91200000D01*
X152362676Y-91200000D01*
X152399999Y-91203676D01*
X152437322Y-91200000D01*
X154902678Y-91200000D01*
X154940000Y-91203676D01*
X154977322Y-91200000D01*
X154977333Y-91200000D01*
X155088986Y-91189003D01*
X155232247Y-91145546D01*
X155364276Y-91074974D01*
X155480001Y-90980001D01*
X155503804Y-90950997D01*
X157156114Y-89298688D01*
X157338665Y-89335000D01*
X157621335Y-89335000D01*
X157898574Y-89279853D01*
X158159727Y-89171680D01*
X158394759Y-89014637D01*
X158594637Y-88814759D01*
X158751680Y-88579727D01*
X158859853Y-88318574D01*
X158915000Y-88041335D01*
X158915000Y-87758665D01*
X159855000Y-87758665D01*
X159855000Y-88041335D01*
X159910147Y-88318574D01*
X160018320Y-88579727D01*
X160175363Y-88814759D01*
X160375241Y-89014637D01*
X160610273Y-89171680D01*
X160871426Y-89279853D01*
X161148665Y-89335000D01*
X161431335Y-89335000D01*
X161708574Y-89279853D01*
X161969727Y-89171680D01*
X162204759Y-89014637D01*
X162404637Y-88814759D01*
X162561680Y-88579727D01*
X162669853Y-88318574D01*
X162725000Y-88041335D01*
X162725000Y-87758665D01*
X163665000Y-87758665D01*
X163665000Y-88041335D01*
X163720147Y-88318574D01*
X163828320Y-88579727D01*
X163985363Y-88814759D01*
X164185241Y-89014637D01*
X164340001Y-89118044D01*
X164340000Y-91672677D01*
X164336324Y-91710000D01*
X164340000Y-91747322D01*
X164340000Y-91747332D01*
X164350997Y-91858985D01*
X164375976Y-91941331D01*
X164394454Y-92002246D01*
X164465026Y-92134276D01*
X164504871Y-92182826D01*
X164559999Y-92250001D01*
X164589003Y-92273804D01*
X167116201Y-94801003D01*
X167139999Y-94830001D01*
X167168997Y-94853799D01*
X167255723Y-94924974D01*
X167359849Y-94980631D01*
X167387753Y-94995546D01*
X167531014Y-95039003D01*
X167642667Y-95050000D01*
X167642677Y-95050000D01*
X167680000Y-95053676D01*
X167717322Y-95050000D01*
X180182405Y-95050000D01*
X180219294Y-95119014D01*
X180400608Y-95339945D01*
X180365820Y-95350498D01*
X180255506Y-95409463D01*
X180158815Y-95488815D01*
X180079463Y-95585506D01*
X180020498Y-95695820D01*
X179984188Y-95815518D01*
X179971928Y-95940000D01*
X179975000Y-96504250D01*
X180133750Y-96663000D01*
X181483000Y-96663000D01*
X181483000Y-96643000D01*
X181737000Y-96643000D01*
X181737000Y-96663000D01*
X183086250Y-96663000D01*
X183245000Y-96504250D01*
X183248072Y-95940000D01*
X183235812Y-95815518D01*
X183199502Y-95695820D01*
X183140537Y-95585506D01*
X183061185Y-95488815D01*
X182964494Y-95409463D01*
X182854180Y-95350498D01*
X182819392Y-95339945D01*
X183000706Y-95119014D01*
X183138599Y-94861034D01*
X183223513Y-94581111D01*
X183252185Y-94290000D01*
X183223513Y-93998889D01*
X183138599Y-93718966D01*
X183000706Y-93460986D01*
X182815134Y-93234866D01*
X182589014Y-93049294D01*
X182331034Y-92911401D01*
X182051111Y-92826487D01*
X181832950Y-92805000D01*
X181387050Y-92805000D01*
X181168889Y-92826487D01*
X180888966Y-92911401D01*
X180630986Y-93049294D01*
X180404866Y-93234866D01*
X180219294Y-93460986D01*
X180182405Y-93530000D01*
X167994802Y-93530000D01*
X167244674Y-92779872D01*
X188765000Y-92779872D01*
X188765000Y-93220128D01*
X188850890Y-93651925D01*
X189019369Y-94058669D01*
X189263962Y-94424729D01*
X189575271Y-94736038D01*
X189941331Y-94980631D01*
X190348075Y-95149110D01*
X190779872Y-95235000D01*
X191220128Y-95235000D01*
X191651925Y-95149110D01*
X192058669Y-94980631D01*
X192424729Y-94736038D01*
X192736038Y-94424729D01*
X192980631Y-94058669D01*
X193149110Y-93651925D01*
X193235000Y-93220128D01*
X193235000Y-92779872D01*
X193149110Y-92348075D01*
X192980631Y-91941331D01*
X192736038Y-91575271D01*
X192424729Y-91263962D01*
X192058669Y-91019369D01*
X191651925Y-90850890D01*
X191220128Y-90765000D01*
X190779872Y-90765000D01*
X190348075Y-90850890D01*
X189941331Y-91019369D01*
X189575271Y-91263962D01*
X189263962Y-91575271D01*
X189019369Y-91941331D01*
X188850890Y-92348075D01*
X188765000Y-92779872D01*
X167244674Y-92779872D01*
X165860000Y-91395199D01*
X165860000Y-89118043D01*
X166014759Y-89014637D01*
X166214637Y-88814759D01*
X166371680Y-88579727D01*
X166479853Y-88318574D01*
X166535000Y-88041335D01*
X166535000Y-87758665D01*
X167475000Y-87758665D01*
X167475000Y-88041335D01*
X167530147Y-88318574D01*
X167638320Y-88579727D01*
X167795363Y-88814759D01*
X167995241Y-89014637D01*
X168230273Y-89171680D01*
X168491426Y-89279853D01*
X168768665Y-89335000D01*
X169051335Y-89335000D01*
X169328574Y-89279853D01*
X169589727Y-89171680D01*
X169824759Y-89014637D01*
X170024637Y-88814759D01*
X170181680Y-88579727D01*
X170289853Y-88318574D01*
X170345000Y-88041335D01*
X170345000Y-87758665D01*
X171285000Y-87758665D01*
X171285000Y-88041335D01*
X171340147Y-88318574D01*
X171448320Y-88579727D01*
X171605363Y-88814759D01*
X171805241Y-89014637D01*
X172040273Y-89171680D01*
X172301426Y-89279853D01*
X172578665Y-89335000D01*
X172861335Y-89335000D01*
X173138574Y-89279853D01*
X173399727Y-89171680D01*
X173634759Y-89014637D01*
X173834637Y-88814759D01*
X173991680Y-88579727D01*
X174099853Y-88318574D01*
X174155000Y-88041335D01*
X174155000Y-87758665D01*
X175095000Y-87758665D01*
X175095000Y-88041335D01*
X175150147Y-88318574D01*
X175258320Y-88579727D01*
X175415363Y-88814759D01*
X175615241Y-89014637D01*
X175850273Y-89171680D01*
X176111426Y-89279853D01*
X176388665Y-89335000D01*
X176671335Y-89335000D01*
X176948574Y-89279853D01*
X177209727Y-89171680D01*
X177444759Y-89014637D01*
X177644637Y-88814759D01*
X177748043Y-88660000D01*
X180071928Y-88660000D01*
X180071928Y-88800000D01*
X180084188Y-88924482D01*
X180120498Y-89044180D01*
X180179463Y-89154494D01*
X180258815Y-89251185D01*
X180355506Y-89330537D01*
X180465820Y-89389502D01*
X180585518Y-89425812D01*
X180710000Y-89438072D01*
X182510000Y-89438072D01*
X182634482Y-89425812D01*
X182754180Y-89389502D01*
X182864494Y-89330537D01*
X182961185Y-89251185D01*
X183040537Y-89154494D01*
X183099502Y-89044180D01*
X183105056Y-89025873D01*
X183171495Y-89092312D01*
X183422905Y-89260299D01*
X183702257Y-89376011D01*
X183998816Y-89435000D01*
X184301184Y-89435000D01*
X184597743Y-89376011D01*
X184877095Y-89260299D01*
X185128505Y-89092312D01*
X185342312Y-88878505D01*
X185510299Y-88627095D01*
X185626011Y-88347743D01*
X185685000Y-88051184D01*
X185685000Y-87748816D01*
X185626011Y-87452257D01*
X185510299Y-87172905D01*
X185342312Y-86921495D01*
X185128505Y-86707688D01*
X184877095Y-86539701D01*
X184597743Y-86423989D01*
X184301184Y-86365000D01*
X183998816Y-86365000D01*
X183702257Y-86423989D01*
X183422905Y-86539701D01*
X183171495Y-86707688D01*
X183105056Y-86774127D01*
X183099502Y-86755820D01*
X183040537Y-86645506D01*
X182961185Y-86548815D01*
X182864494Y-86469463D01*
X182754180Y-86410498D01*
X182634482Y-86374188D01*
X182510000Y-86361928D01*
X180710000Y-86361928D01*
X180585518Y-86374188D01*
X180465820Y-86410498D01*
X180355506Y-86469463D01*
X180258815Y-86548815D01*
X180179463Y-86645506D01*
X180120498Y-86755820D01*
X180084188Y-86875518D01*
X180071928Y-87000000D01*
X180071928Y-87140000D01*
X177748043Y-87140000D01*
X177644637Y-86985241D01*
X177444759Y-86785363D01*
X177209727Y-86628320D01*
X176948574Y-86520147D01*
X176671335Y-86465000D01*
X176388665Y-86465000D01*
X176111426Y-86520147D01*
X175850273Y-86628320D01*
X175615241Y-86785363D01*
X175415363Y-86985241D01*
X175258320Y-87220273D01*
X175150147Y-87481426D01*
X175095000Y-87758665D01*
X174155000Y-87758665D01*
X174099853Y-87481426D01*
X173991680Y-87220273D01*
X173834637Y-86985241D01*
X173634759Y-86785363D01*
X173399727Y-86628320D01*
X173138574Y-86520147D01*
X172861335Y-86465000D01*
X172578665Y-86465000D01*
X172301426Y-86520147D01*
X172040273Y-86628320D01*
X171805241Y-86785363D01*
X171605363Y-86985241D01*
X171448320Y-87220273D01*
X171340147Y-87481426D01*
X171285000Y-87758665D01*
X170345000Y-87758665D01*
X170289853Y-87481426D01*
X170181680Y-87220273D01*
X170024637Y-86985241D01*
X169824759Y-86785363D01*
X169589727Y-86628320D01*
X169328574Y-86520147D01*
X169051335Y-86465000D01*
X168768665Y-86465000D01*
X168491426Y-86520147D01*
X168230273Y-86628320D01*
X167995241Y-86785363D01*
X167795363Y-86985241D01*
X167638320Y-87220273D01*
X167530147Y-87481426D01*
X167475000Y-87758665D01*
X166535000Y-87758665D01*
X166479853Y-87481426D01*
X166371680Y-87220273D01*
X166214637Y-86985241D01*
X166014759Y-86785363D01*
X165779727Y-86628320D01*
X165518574Y-86520147D01*
X165241335Y-86465000D01*
X164958665Y-86465000D01*
X164681426Y-86520147D01*
X164420273Y-86628320D01*
X164185241Y-86785363D01*
X163985363Y-86985241D01*
X163828320Y-87220273D01*
X163720147Y-87481426D01*
X163665000Y-87758665D01*
X162725000Y-87758665D01*
X162669853Y-87481426D01*
X162561680Y-87220273D01*
X162404637Y-86985241D01*
X162204759Y-86785363D01*
X161969727Y-86628320D01*
X161708574Y-86520147D01*
X161431335Y-86465000D01*
X161148665Y-86465000D01*
X160871426Y-86520147D01*
X160610273Y-86628320D01*
X160375241Y-86785363D01*
X160175363Y-86985241D01*
X160018320Y-87220273D01*
X159910147Y-87481426D01*
X159855000Y-87758665D01*
X158915000Y-87758665D01*
X158859853Y-87481426D01*
X158751680Y-87220273D01*
X158594637Y-86985241D01*
X158394759Y-86785363D01*
X158159727Y-86628320D01*
X157898574Y-86520147D01*
X157621335Y-86465000D01*
X157338665Y-86465000D01*
X157061426Y-86520147D01*
X156800273Y-86628320D01*
X156565241Y-86785363D01*
X156365363Y-86985241D01*
X156208320Y-87220273D01*
X156100147Y-87481426D01*
X156045000Y-87758665D01*
X156045000Y-88041335D01*
X156081312Y-88223886D01*
X154625199Y-89680000D01*
X152714803Y-89680000D01*
X152469803Y-89435000D01*
X152551184Y-89435000D01*
X152847743Y-89376011D01*
X153127095Y-89260299D01*
X153378505Y-89092312D01*
X153592312Y-88878505D01*
X153760299Y-88627095D01*
X153876011Y-88347743D01*
X153935000Y-88051184D01*
X153935000Y-87748816D01*
X153876011Y-87452257D01*
X153760299Y-87172905D01*
X153592312Y-86921495D01*
X153378505Y-86707688D01*
X153127095Y-86539701D01*
X152847743Y-86423989D01*
X152551184Y-86365000D01*
X152248816Y-86365000D01*
X151952257Y-86423989D01*
X151672905Y-86539701D01*
X151421495Y-86707688D01*
X151355056Y-86774127D01*
X151349502Y-86755820D01*
X151290537Y-86645506D01*
X151211185Y-86548815D01*
X151114494Y-86469463D01*
X151004180Y-86410498D01*
X150884482Y-86374188D01*
X150760000Y-86361928D01*
X148960000Y-86361928D01*
X148835518Y-86374188D01*
X148715820Y-86410498D01*
X148605506Y-86469463D01*
X148508815Y-86548815D01*
X148429463Y-86645506D01*
X148370498Y-86755820D01*
X148334188Y-86875518D01*
X148321928Y-87000000D01*
X146660000Y-87000000D01*
X146660000Y-83660000D01*
X195340000Y-83660000D01*
X195340001Y-117340000D01*
G37*
X195340001Y-117340000D02*
X146660000Y-117340000D01*
X146660000Y-107779872D01*
X148765000Y-107779872D01*
X148765000Y-108220128D01*
X148850890Y-108651925D01*
X149019369Y-109058669D01*
X149263962Y-109424729D01*
X149575271Y-109736038D01*
X149941331Y-109980631D01*
X150348075Y-110149110D01*
X150779872Y-110235000D01*
X151220128Y-110235000D01*
X151651925Y-110149110D01*
X152058669Y-109980631D01*
X152424729Y-109736038D01*
X152736038Y-109424729D01*
X152980631Y-109058669D01*
X153149110Y-108651925D01*
X153235000Y-108220128D01*
X153235000Y-107779872D01*
X153149110Y-107348075D01*
X153017359Y-107030000D01*
X155862815Y-107030000D01*
X155891487Y-107321111D01*
X155976401Y-107601034D01*
X156114294Y-107859014D01*
X156299866Y-108085134D01*
X156525986Y-108270706D01*
X156543374Y-108280000D01*
X156525986Y-108289294D01*
X156299866Y-108474866D01*
X156114294Y-108700986D01*
X155976401Y-108958966D01*
X155891487Y-109238889D01*
X155862815Y-109530000D01*
X155891487Y-109821111D01*
X155976401Y-110101034D01*
X156114294Y-110359014D01*
X156299866Y-110585134D01*
X156363337Y-110637223D01*
X156261614Y-110691595D01*
X156127038Y-110802038D01*
X156016595Y-110936614D01*
X155934528Y-111090150D01*
X155883992Y-111256746D01*
X155866928Y-111430000D01*
X155866928Y-112630000D01*
X155883992Y-112803254D01*
X155934528Y-112969850D01*
X156016595Y-113123386D01*
X156127038Y-113257962D01*
X156261614Y-113368405D01*
X156415150Y-113450472D01*
X156581746Y-113501008D01*
X156755000Y-113518072D01*
X158205000Y-113518072D01*
X158245000Y-113514132D01*
X158245000Y-113751637D01*
X158292460Y-113990236D01*
X158385557Y-114214992D01*
X158520713Y-114417267D01*
X158692733Y-114589287D01*
X158895008Y-114724443D01*
X159119764Y-114817540D01*
X159358363Y-114865000D01*
X159601637Y-114865000D01*
X159840236Y-114817540D01*
X160064992Y-114724443D01*
X160267267Y-114589287D01*
X160439287Y-114417267D01*
X160574443Y-114214992D01*
X160667540Y-113990236D01*
X160715000Y-113751637D01*
X160715000Y-113508363D01*
X160667540Y-113269764D01*
X160574443Y-113045008D01*
X160439287Y-112842733D01*
X160325185Y-112728631D01*
X160444276Y-112664974D01*
X160560001Y-112570001D01*
X160583804Y-112540997D01*
X163071009Y-110053794D01*
X163100001Y-110030001D01*
X163123795Y-110001008D01*
X163123799Y-110001004D01*
X163194973Y-109914277D01*
X163194974Y-109914276D01*
X163265546Y-109782247D01*
X163309003Y-109638986D01*
X163320000Y-109527333D01*
X163320000Y-109527324D01*
X163323676Y-109490001D01*
X163320000Y-109452678D01*
X163320000Y-105680000D01*
X164979388Y-105680000D01*
X165001785Y-105907400D01*
X165068115Y-106126060D01*
X165169105Y-106315000D01*
X165068115Y-106503940D01*
X165001785Y-106722600D01*
X164979388Y-106950000D01*
X165001785Y-107177400D01*
X165068115Y-107396060D01*
X165175829Y-107597579D01*
X165320788Y-107774212D01*
X165497421Y-107919171D01*
X165698940Y-108026885D01*
X165917600Y-108093215D01*
X166088021Y-108110000D01*
X166651979Y-108110000D01*
X166822400Y-108093215D01*
X167041060Y-108026885D01*
X167242579Y-107919171D01*
X167419212Y-107774212D01*
X167564171Y-107597579D01*
X167671885Y-107396060D01*
X167738215Y-107177400D01*
X167760612Y-106950000D01*
X167738215Y-106722600D01*
X167671885Y-106503940D01*
X167570895Y-106315000D01*
X167671885Y-106126060D01*
X167738215Y-105907400D01*
X167760612Y-105680000D01*
X167738215Y-105452600D01*
X167674907Y-105243902D01*
X167709502Y-105179180D01*
X167745812Y-105059482D01*
X167758072Y-104935000D01*
X167758072Y-104096730D01*
X169224803Y-102630000D01*
X176215199Y-102630000D01*
X177040001Y-103454803D01*
X177040000Y-106160199D01*
X175378072Y-104498271D01*
X175378072Y-103885000D01*
X175365812Y-103760518D01*
X175329502Y-103640820D01*
X175270537Y-103530506D01*
X175191185Y-103433815D01*
X175094494Y-103354463D01*
X174984180Y-103295498D01*
X174864482Y-103259188D01*
X174740000Y-103246928D01*
X173240000Y-103246928D01*
X173115518Y-103259188D01*
X172995820Y-103295498D01*
X172885506Y-103354463D01*
X172788815Y-103433815D01*
X172709463Y-103530506D01*
X172650498Y-103640820D01*
X172614188Y-103760518D01*
X172601928Y-103885000D01*
X172601928Y-104935000D01*
X172614188Y-105059482D01*
X172650498Y-105179180D01*
X172685093Y-105243902D01*
X172621785Y-105452600D01*
X172599388Y-105680000D01*
X172621785Y-105907400D01*
X172688115Y-106126060D01*
X172789105Y-106315000D01*
X172688115Y-106503940D01*
X172621785Y-106722600D01*
X172599388Y-106950000D01*
X172621785Y-107177400D01*
X172688115Y-107396060D01*
X172795829Y-107597579D01*
X172940788Y-107774212D01*
X173117421Y-107919171D01*
X173318940Y-108026885D01*
X173537600Y-108093215D01*
X173708021Y-108110000D01*
X174271979Y-108110000D01*
X174442400Y-108093215D01*
X174661060Y-108026885D01*
X174862579Y-107919171D01*
X175039212Y-107774212D01*
X175184171Y-107597579D01*
X175291885Y-107396060D01*
X175358215Y-107177400D01*
X175380612Y-106950000D01*
X175358215Y-106722600D01*
X175317030Y-106586831D01*
X180011567Y-111281369D01*
X179996928Y-111430000D01*
X179996928Y-111611520D01*
X179929454Y-111737753D01*
X179885997Y-111881014D01*
X179871323Y-112030000D01*
X179885997Y-112178986D01*
X179929454Y-112322247D01*
X179996928Y-112448480D01*
X179996928Y-112630000D01*
X180013992Y-112803254D01*
X180064528Y-112969850D01*
X180146595Y-113123386D01*
X180257038Y-113257962D01*
X180391614Y-113368405D01*
X180545150Y-113450472D01*
X180711746Y-113501008D01*
X180885000Y-113518072D01*
X182335000Y-113518072D01*
X182375000Y-113514132D01*
X182375000Y-113751637D01*
X182422460Y-113990236D01*
X182515557Y-114214992D01*
X182650713Y-114417267D01*
X182822733Y-114589287D01*
X183025008Y-114724443D01*
X183249764Y-114817540D01*
X183488363Y-114865000D01*
X183731637Y-114865000D01*
X183970236Y-114817540D01*
X184194992Y-114724443D01*
X184397267Y-114589287D01*
X184569287Y-114417267D01*
X184704443Y-114214992D01*
X184797540Y-113990236D01*
X184845000Y-113751637D01*
X184845000Y-113508363D01*
X184797540Y-113269764D01*
X184704443Y-113045008D01*
X184569287Y-112842733D01*
X184397267Y-112670713D01*
X184194992Y-112535557D01*
X183970236Y-112442460D01*
X183731637Y-112395000D01*
X183488363Y-112395000D01*
X183249764Y-112442460D01*
X183223072Y-112453516D01*
X183223072Y-111430000D01*
X183206008Y-111256746D01*
X183155472Y-111090150D01*
X183073405Y-110936614D01*
X182962962Y-110802038D01*
X182828386Y-110691595D01*
X182726663Y-110637223D01*
X182790134Y-110585134D01*
X182975706Y-110359014D01*
X183113599Y-110101034D01*
X183198513Y-109821111D01*
X183227185Y-109530000D01*
X183198513Y-109238889D01*
X183113599Y-108958966D01*
X182975706Y-108700986D01*
X182790134Y-108474866D01*
X182564014Y-108289294D01*
X182546626Y-108280000D01*
X182564014Y-108270706D01*
X182790134Y-108085134D01*
X182975706Y-107859014D01*
X183113599Y-107601034D01*
X183198513Y-107321111D01*
X183227185Y-107030000D01*
X188382815Y-107030000D01*
X188411487Y-107321111D01*
X188496401Y-107601034D01*
X188634294Y-107859014D01*
X188819866Y-108085134D01*
X189045986Y-108270706D01*
X189063374Y-108280000D01*
X189045986Y-108289294D01*
X188819866Y-108474866D01*
X188634294Y-108700986D01*
X188496401Y-108958966D01*
X188411487Y-109238889D01*
X188382815Y-109530000D01*
X188411487Y-109821111D01*
X188496401Y-110101034D01*
X188634294Y-110359014D01*
X188819866Y-110585134D01*
X188883337Y-110637223D01*
X188781614Y-110691595D01*
X188647038Y-110802038D01*
X188536595Y-110936614D01*
X188454528Y-111090150D01*
X188403992Y-111256746D01*
X188386928Y-111430000D01*
X188386928Y-112630000D01*
X188403992Y-112803254D01*
X188454528Y-112969850D01*
X188536595Y-113123386D01*
X188647038Y-113257962D01*
X188781614Y-113368405D01*
X188935150Y-113450472D01*
X189101746Y-113501008D01*
X189275000Y-113518072D01*
X190725000Y-113518072D01*
X190765000Y-113514132D01*
X190765000Y-113751637D01*
X190812460Y-113990236D01*
X190905557Y-114214992D01*
X191040713Y-114417267D01*
X191212733Y-114589287D01*
X191415008Y-114724443D01*
X191639764Y-114817540D01*
X191878363Y-114865000D01*
X192121637Y-114865000D01*
X192360236Y-114817540D01*
X192584992Y-114724443D01*
X192787267Y-114589287D01*
X192959287Y-114417267D01*
X193094443Y-114214992D01*
X193187540Y-113990236D01*
X193235000Y-113751637D01*
X193235000Y-113508363D01*
X193187540Y-113269764D01*
X193094443Y-113045008D01*
X192959287Y-112842733D01*
X192787267Y-112670713D01*
X192584992Y-112535557D01*
X192360236Y-112442460D01*
X192121637Y-112395000D01*
X191878363Y-112395000D01*
X191639764Y-112442460D01*
X191613072Y-112453516D01*
X191613072Y-111430000D01*
X191596008Y-111256746D01*
X191545472Y-111090150D01*
X191463405Y-110936614D01*
X191352962Y-110802038D01*
X191218386Y-110691595D01*
X191116663Y-110637223D01*
X191180134Y-110585134D01*
X191365706Y-110359014D01*
X191503599Y-110101034D01*
X191588513Y-109821111D01*
X191617185Y-109530000D01*
X191588513Y-109238889D01*
X191503599Y-108958966D01*
X191365706Y-108700986D01*
X191180134Y-108474866D01*
X190954014Y-108289294D01*
X190936626Y-108280000D01*
X190954014Y-108270706D01*
X191180134Y-108085134D01*
X191365706Y-107859014D01*
X191503599Y-107601034D01*
X191588513Y-107321111D01*
X191617185Y-107030000D01*
X191588513Y-106738889D01*
X191503599Y-106458966D01*
X191365706Y-106200986D01*
X191180134Y-105974866D01*
X190954014Y-105789294D01*
X190928278Y-105775538D01*
X191134429Y-105619049D01*
X191327496Y-105401193D01*
X191474352Y-105149858D01*
X191566476Y-104886890D01*
X191445155Y-104657000D01*
X190127000Y-104657000D01*
X190127000Y-104677000D01*
X189873000Y-104677000D01*
X189873000Y-104657000D01*
X188554845Y-104657000D01*
X188433524Y-104886890D01*
X188525648Y-105149858D01*
X188672504Y-105401193D01*
X188865571Y-105619049D01*
X189071722Y-105775538D01*
X189045986Y-105789294D01*
X188819866Y-105974866D01*
X188634294Y-106200986D01*
X188496401Y-106458966D01*
X188411487Y-106738889D01*
X188382815Y-107030000D01*
X183227185Y-107030000D01*
X183198513Y-106738889D01*
X183113599Y-106458966D01*
X182975706Y-106200986D01*
X182790134Y-105974866D01*
X182564014Y-105789294D01*
X182538278Y-105775538D01*
X182744429Y-105619049D01*
X182937496Y-105401193D01*
X183084352Y-105149858D01*
X183176476Y-104886890D01*
X183055155Y-104657000D01*
X181737000Y-104657000D01*
X181737000Y-104677000D01*
X181483000Y-104677000D01*
X181483000Y-104657000D01*
X180164845Y-104657000D01*
X180043524Y-104886890D01*
X180135648Y-105149858D01*
X180282504Y-105401193D01*
X180475571Y-105619049D01*
X180681722Y-105775538D01*
X180655986Y-105789294D01*
X180429866Y-105974866D01*
X180244294Y-106200986D01*
X180106401Y-106458966D01*
X180021487Y-106738889D01*
X179992815Y-107030000D01*
X180021487Y-107321111D01*
X180106401Y-107601034D01*
X180244294Y-107859014D01*
X180429866Y-108085134D01*
X180655986Y-108270706D01*
X180673374Y-108280000D01*
X180655986Y-108289294D01*
X180429866Y-108474866D01*
X180418508Y-108488706D01*
X178560000Y-106630199D01*
X178560000Y-104173110D01*
X180043524Y-104173110D01*
X180164845Y-104403000D01*
X181483000Y-104403000D01*
X181483000Y-103203835D01*
X181737000Y-103203835D01*
X181737000Y-104403000D01*
X183055155Y-104403000D01*
X183176476Y-104173110D01*
X188433524Y-104173110D01*
X188554845Y-104403000D01*
X189873000Y-104403000D01*
X189873000Y-103203835D01*
X190127000Y-103203835D01*
X190127000Y-104403000D01*
X191445155Y-104403000D01*
X191566476Y-104173110D01*
X191474352Y-103910142D01*
X191327496Y-103658807D01*
X191134429Y-103440951D01*
X190902570Y-103264947D01*
X190640830Y-103137558D01*
X190359267Y-103063680D01*
X190127000Y-103203835D01*
X189873000Y-103203835D01*
X189640733Y-103063680D01*
X189359170Y-103137558D01*
X189097430Y-103264947D01*
X188865571Y-103440951D01*
X188672504Y-103658807D01*
X188525648Y-103910142D01*
X188433524Y-104173110D01*
X183176476Y-104173110D01*
X183084352Y-103910142D01*
X182937496Y-103658807D01*
X182744429Y-103440951D01*
X182512570Y-103264947D01*
X182250830Y-103137558D01*
X181969267Y-103063680D01*
X181737000Y-103203835D01*
X181483000Y-103203835D01*
X181250733Y-103063680D01*
X180969170Y-103137558D01*
X180707430Y-103264947D01*
X180475571Y-103440951D01*
X180282504Y-103658807D01*
X180135648Y-103910142D01*
X180043524Y-104173110D01*
X178560000Y-104173110D01*
X178560000Y-103177322D01*
X178563676Y-103139999D01*
X178560000Y-103102676D01*
X178560000Y-103102667D01*
X178549003Y-102991014D01*
X178505546Y-102847753D01*
X178434974Y-102715724D01*
X178340001Y-102599999D01*
X178311003Y-102576201D01*
X177093804Y-101359003D01*
X177070001Y-101329999D01*
X176954276Y-101235026D01*
X176822247Y-101164454D01*
X176678986Y-101120997D01*
X176567333Y-101110000D01*
X176567322Y-101110000D01*
X176530000Y-101106324D01*
X176492678Y-101110000D01*
X169670000Y-101110000D01*
X169670000Y-99278043D01*
X169824759Y-99174637D01*
X170024637Y-98974759D01*
X170181680Y-98739727D01*
X170289853Y-98478574D01*
X170345000Y-98201335D01*
X170345000Y-97918665D01*
X171285000Y-97918665D01*
X171285000Y-98201335D01*
X171340147Y-98478574D01*
X171448320Y-98739727D01*
X171605363Y-98974759D01*
X171805241Y-99174637D01*
X172040273Y-99331680D01*
X172301426Y-99439853D01*
X172578665Y-99495000D01*
X172861335Y-99495000D01*
X173138574Y-99439853D01*
X173399727Y-99331680D01*
X173634759Y-99174637D01*
X173756694Y-99052702D01*
X175716903Y-99052702D01*
X175788486Y-99296671D01*
X176043996Y-99417571D01*
X176318184Y-99486300D01*
X176600512Y-99500217D01*
X176880130Y-99458787D01*
X177146292Y-99363603D01*
X177271514Y-99296671D01*
X177343097Y-99052702D01*
X176530000Y-98239605D01*
X175716903Y-99052702D01*
X173756694Y-99052702D01*
X173834637Y-98974759D01*
X173991680Y-98739727D01*
X174099853Y-98478574D01*
X174155000Y-98201335D01*
X174155000Y-98130512D01*
X175089783Y-98130512D01*
X175131213Y-98410130D01*
X175226397Y-98676292D01*
X175293329Y-98801514D01*
X175537298Y-98873097D01*
X176350395Y-98060000D01*
X176709605Y-98060000D01*
X177522702Y-98873097D01*
X177766671Y-98801514D01*
X177887571Y-98546004D01*
X177956300Y-98271816D01*
X177970217Y-97989488D01*
X177928787Y-97709870D01*
X177903801Y-97640000D01*
X179971928Y-97640000D01*
X179984188Y-97764482D01*
X180020498Y-97884180D01*
X180079463Y-97994494D01*
X180158815Y-98091185D01*
X180255506Y-98170537D01*
X180365820Y-98229502D01*
X180485518Y-98265812D01*
X180610000Y-98278072D01*
X181324250Y-98275000D01*
X181483000Y-98116250D01*
X181483000Y-96917000D01*
X181737000Y-96917000D01*
X181737000Y-98116250D01*
X181895750Y-98275000D01*
X182375000Y-98277061D01*
X182375000Y-98511637D01*
X182422460Y-98750236D01*
X182515557Y-98974992D01*
X182650713Y-99177267D01*
X182822733Y-99349287D01*
X183025008Y-99484443D01*
X183249764Y-99577540D01*
X183488363Y-99625000D01*
X183731637Y-99625000D01*
X183970236Y-99577540D01*
X184194992Y-99484443D01*
X184397267Y-99349287D01*
X184569287Y-99177267D01*
X184704443Y-98974992D01*
X184797540Y-98750236D01*
X184845000Y-98511637D01*
X184845000Y-98268363D01*
X184797540Y-98029764D01*
X184704443Y-97805008D01*
X184569287Y-97602733D01*
X184397267Y-97430713D01*
X184194992Y-97295557D01*
X183970236Y-97202460D01*
X183731637Y-97155000D01*
X183488363Y-97155000D01*
X183249764Y-97202460D01*
X183245699Y-97204144D01*
X183245000Y-97075750D01*
X183086250Y-96917000D01*
X181737000Y-96917000D01*
X181483000Y-96917000D01*
X180133750Y-96917000D01*
X179975000Y-97075750D01*
X179971928Y-97640000D01*
X177903801Y-97640000D01*
X177833603Y-97443708D01*
X177766671Y-97318486D01*
X177522702Y-97246903D01*
X176709605Y-98060000D01*
X176350395Y-98060000D01*
X175537298Y-97246903D01*
X175293329Y-97318486D01*
X175172429Y-97573996D01*
X175103700Y-97848184D01*
X175089783Y-98130512D01*
X174155000Y-98130512D01*
X174155000Y-97918665D01*
X174099853Y-97641426D01*
X173991680Y-97380273D01*
X173834637Y-97145241D01*
X173756694Y-97067298D01*
X175716903Y-97067298D01*
X176530000Y-97880395D01*
X177343097Y-97067298D01*
X177271514Y-96823329D01*
X177016004Y-96702429D01*
X176741816Y-96633700D01*
X176459488Y-96619783D01*
X176179870Y-96661213D01*
X175913708Y-96756397D01*
X175788486Y-96823329D01*
X175716903Y-97067298D01*
X173756694Y-97067298D01*
X173634759Y-96945363D01*
X173399727Y-96788320D01*
X173138574Y-96680147D01*
X172861335Y-96625000D01*
X172578665Y-96625000D01*
X172301426Y-96680147D01*
X172040273Y-96788320D01*
X171805241Y-96945363D01*
X171605363Y-97145241D01*
X171448320Y-97380273D01*
X171340147Y-97641426D01*
X171285000Y-97918665D01*
X170345000Y-97918665D01*
X170289853Y-97641426D01*
X170181680Y-97380273D01*
X170024637Y-97145241D01*
X169824759Y-96945363D01*
X169589727Y-96788320D01*
X169328574Y-96680147D01*
X169051335Y-96625000D01*
X168768665Y-96625000D01*
X168491426Y-96680147D01*
X168230273Y-96788320D01*
X167995241Y-96945363D01*
X167795363Y-97145241D01*
X167638320Y-97380273D01*
X167530147Y-97641426D01*
X167475000Y-97918665D01*
X167475000Y-98201335D01*
X167530147Y-98478574D01*
X167638320Y-98739727D01*
X167795363Y-98974759D01*
X167995241Y-99174637D01*
X168150000Y-99278044D01*
X168150001Y-101555196D01*
X166458270Y-103246928D01*
X165620000Y-103246928D01*
X165495518Y-103259188D01*
X165375820Y-103295498D01*
X165265506Y-103354463D01*
X165168815Y-103433815D01*
X165089463Y-103530506D01*
X165030498Y-103640820D01*
X164994188Y-103760518D01*
X164981928Y-103885000D01*
X164981928Y-104935000D01*
X164994188Y-105059482D01*
X165030498Y-105179180D01*
X165065093Y-105243902D01*
X165001785Y-105452600D01*
X164979388Y-105680000D01*
X163320000Y-105680000D01*
X163320000Y-100914801D01*
X164776114Y-99458688D01*
X164958665Y-99495000D01*
X165241335Y-99495000D01*
X165518574Y-99439853D01*
X165779727Y-99331680D01*
X166014759Y-99174637D01*
X166214637Y-98974759D01*
X166371680Y-98739727D01*
X166479853Y-98478574D01*
X166535000Y-98201335D01*
X166535000Y-97918665D01*
X166479853Y-97641426D01*
X166371680Y-97380273D01*
X166214637Y-97145241D01*
X166014759Y-96945363D01*
X165779727Y-96788320D01*
X165518574Y-96680147D01*
X165241335Y-96625000D01*
X164958665Y-96625000D01*
X164681426Y-96680147D01*
X164420273Y-96788320D01*
X164185241Y-96945363D01*
X163985363Y-97145241D01*
X163828320Y-97380273D01*
X163720147Y-97641426D01*
X163665000Y-97918665D01*
X163665000Y-98201335D01*
X163701312Y-98383886D01*
X162048998Y-100036201D01*
X162020000Y-100059999D01*
X161996202Y-100088997D01*
X161996201Y-100088998D01*
X161925026Y-100175724D01*
X161854454Y-100307754D01*
X161810998Y-100451015D01*
X161796324Y-100600000D01*
X161800001Y-100637332D01*
X161800000Y-109175197D01*
X159705199Y-111270000D01*
X159077313Y-111270000D01*
X159076008Y-111256746D01*
X159025472Y-111090150D01*
X158943405Y-110936614D01*
X158832962Y-110802038D01*
X158698386Y-110691595D01*
X158596663Y-110637223D01*
X158660134Y-110585134D01*
X158845706Y-110359014D01*
X158983599Y-110101034D01*
X159068513Y-109821111D01*
X159097185Y-109530000D01*
X159068513Y-109238889D01*
X158983599Y-108958966D01*
X158845706Y-108700986D01*
X158660134Y-108474866D01*
X158434014Y-108289294D01*
X158416626Y-108280000D01*
X158434014Y-108270706D01*
X158660134Y-108085134D01*
X158845706Y-107859014D01*
X158983599Y-107601034D01*
X159068513Y-107321111D01*
X159097185Y-107030000D01*
X159068513Y-106738889D01*
X158983599Y-106458966D01*
X158845706Y-106200986D01*
X158660134Y-105974866D01*
X158434014Y-105789294D01*
X158408278Y-105775538D01*
X158614429Y-105619049D01*
X158807496Y-105401193D01*
X158954352Y-105149858D01*
X159046476Y-104886890D01*
X158925155Y-104657000D01*
X157607000Y-104657000D01*
X157607000Y-104677000D01*
X157353000Y-104677000D01*
X157353000Y-104657000D01*
X156034845Y-104657000D01*
X155913524Y-104886890D01*
X156005648Y-105149858D01*
X156152504Y-105401193D01*
X156345571Y-105619049D01*
X156551722Y-105775538D01*
X156525986Y-105789294D01*
X156299866Y-105974866D01*
X156114294Y-106200986D01*
X155976401Y-106458966D01*
X155891487Y-106738889D01*
X155862815Y-107030000D01*
X153017359Y-107030000D01*
X152980631Y-106941331D01*
X152736038Y-106575271D01*
X152424729Y-106263962D01*
X152058669Y-106019369D01*
X151651925Y-105850890D01*
X151220128Y-105765000D01*
X150779872Y-105765000D01*
X150348075Y-105850890D01*
X149941331Y-106019369D01*
X149575271Y-106263962D01*
X149263962Y-106575271D01*
X149019369Y-106941331D01*
X148850890Y-107348075D01*
X148765000Y-107779872D01*
X146660000Y-107779872D01*
X146660000Y-104173110D01*
X155913524Y-104173110D01*
X156034845Y-104403000D01*
X157353000Y-104403000D01*
X157353000Y-103203835D01*
X157607000Y-103203835D01*
X157607000Y-104403000D01*
X158925155Y-104403000D01*
X159046476Y-104173110D01*
X158954352Y-103910142D01*
X158807496Y-103658807D01*
X158614429Y-103440951D01*
X158382570Y-103264947D01*
X158120830Y-103137558D01*
X157839267Y-103063680D01*
X157607000Y-103203835D01*
X157353000Y-103203835D01*
X157120733Y-103063680D01*
X156839170Y-103137558D01*
X156577430Y-103264947D01*
X156345571Y-103440951D01*
X156152504Y-103658807D01*
X156005648Y-103910142D01*
X155913524Y-104173110D01*
X146660000Y-104173110D01*
X146660000Y-97640000D01*
X149491928Y-97640000D01*
X149504188Y-97764482D01*
X149540498Y-97884180D01*
X149599463Y-97994494D01*
X149678815Y-98091185D01*
X149775506Y-98170537D01*
X149885820Y-98229502D01*
X150005518Y-98265812D01*
X150130000Y-98278072D01*
X150844250Y-98275000D01*
X151003000Y-98116250D01*
X151003000Y-96917000D01*
X151257000Y-96917000D01*
X151257000Y-98116250D01*
X151415750Y-98275000D01*
X151895000Y-98277061D01*
X151895000Y-98511637D01*
X151942460Y-98750236D01*
X152035557Y-98974992D01*
X152170713Y-99177267D01*
X152342733Y-99349287D01*
X152545008Y-99484443D01*
X152769764Y-99577540D01*
X153008363Y-99625000D01*
X153251637Y-99625000D01*
X153490236Y-99577540D01*
X153714992Y-99484443D01*
X153917267Y-99349287D01*
X154089287Y-99177267D01*
X154172518Y-99052702D01*
X156666903Y-99052702D01*
X156738486Y-99296671D01*
X156993996Y-99417571D01*
X157268184Y-99486300D01*
X157550512Y-99500217D01*
X157830130Y-99458787D01*
X158096292Y-99363603D01*
X158221514Y-99296671D01*
X158293097Y-99052702D01*
X157480000Y-98239605D01*
X156666903Y-99052702D01*
X154172518Y-99052702D01*
X154224443Y-98974992D01*
X154317540Y-98750236D01*
X154365000Y-98511637D01*
X154365000Y-98268363D01*
X154337580Y-98130512D01*
X156039783Y-98130512D01*
X156081213Y-98410130D01*
X156176397Y-98676292D01*
X156243329Y-98801514D01*
X156487298Y-98873097D01*
X157300395Y-98060000D01*
X157659605Y-98060000D01*
X158472702Y-98873097D01*
X158716671Y-98801514D01*
X158837571Y-98546004D01*
X158906300Y-98271816D01*
X158920217Y-97989488D01*
X158909724Y-97918665D01*
X159855000Y-97918665D01*
X159855000Y-98201335D01*
X159910147Y-98478574D01*
X160018320Y-98739727D01*
X160175363Y-98974759D01*
X160375241Y-99174637D01*
X160610273Y-99331680D01*
X160871426Y-99439853D01*
X161148665Y-99495000D01*
X161431335Y-99495000D01*
X161708574Y-99439853D01*
X161969727Y-99331680D01*
X162204759Y-99174637D01*
X162404637Y-98974759D01*
X162561680Y-98739727D01*
X162669853Y-98478574D01*
X162725000Y-98201335D01*
X162725000Y-97918665D01*
X162669853Y-97641426D01*
X162561680Y-97380273D01*
X162404637Y-97145241D01*
X162204759Y-96945363D01*
X161969727Y-96788320D01*
X161708574Y-96680147D01*
X161431335Y-96625000D01*
X161148665Y-96625000D01*
X160871426Y-96680147D01*
X160610273Y-96788320D01*
X160375241Y-96945363D01*
X160175363Y-97145241D01*
X160018320Y-97380273D01*
X159910147Y-97641426D01*
X159855000Y-97918665D01*
X158909724Y-97918665D01*
X158878787Y-97709870D01*
X158783603Y-97443708D01*
X158716671Y-97318486D01*
X158472702Y-97246903D01*
X157659605Y-98060000D01*
X157300395Y-98060000D01*
X156487298Y-97246903D01*
X156243329Y-97318486D01*
X156122429Y-97573996D01*
X156053700Y-97848184D01*
X156039783Y-98130512D01*
X154337580Y-98130512D01*
X154317540Y-98029764D01*
X154224443Y-97805008D01*
X154089287Y-97602733D01*
X153917267Y-97430713D01*
X153714992Y-97295557D01*
X153490236Y-97202460D01*
X153251637Y-97155000D01*
X153008363Y-97155000D01*
X152769764Y-97202460D01*
X152765699Y-97204144D01*
X152765000Y-97075750D01*
X152756548Y-97067298D01*
X156666903Y-97067298D01*
X157480000Y-97880395D01*
X158293097Y-97067298D01*
X158221514Y-96823329D01*
X157966004Y-96702429D01*
X157691816Y-96633700D01*
X157409488Y-96619783D01*
X157129870Y-96661213D01*
X156863708Y-96756397D01*
X156738486Y-96823329D01*
X156666903Y-97067298D01*
X152756548Y-97067298D01*
X152606250Y-96917000D01*
X151257000Y-96917000D01*
X151003000Y-96917000D01*
X149653750Y-96917000D01*
X149495000Y-97075750D01*
X149491928Y-97640000D01*
X146660000Y-97640000D01*
X146660000Y-94290000D01*
X149487815Y-94290000D01*
X149516487Y-94581111D01*
X149601401Y-94861034D01*
X149739294Y-95119014D01*
X149920608Y-95339945D01*
X149885820Y-95350498D01*
X149775506Y-95409463D01*
X149678815Y-95488815D01*
X149599463Y-95585506D01*
X149540498Y-95695820D01*
X149504188Y-95815518D01*
X149491928Y-95940000D01*
X149495000Y-96504250D01*
X149653750Y-96663000D01*
X151003000Y-96663000D01*
X151003000Y-96643000D01*
X151257000Y-96643000D01*
X151257000Y-96663000D01*
X152606250Y-96663000D01*
X152765000Y-96504250D01*
X152768072Y-95940000D01*
X152755812Y-95815518D01*
X152719502Y-95695820D01*
X152660537Y-95585506D01*
X152581185Y-95488815D01*
X152484494Y-95409463D01*
X152374180Y-95350498D01*
X152339392Y-95339945D01*
X152520706Y-95119014D01*
X152658599Y-94861034D01*
X152743513Y-94581111D01*
X152772185Y-94290000D01*
X152743513Y-93998889D01*
X152658599Y-93718966D01*
X152520706Y-93460986D01*
X152335134Y-93234866D01*
X152109014Y-93049294D01*
X151851034Y-92911401D01*
X151571111Y-92826487D01*
X151352950Y-92805000D01*
X150907050Y-92805000D01*
X150688889Y-92826487D01*
X150408966Y-92911401D01*
X150150986Y-93049294D01*
X149924866Y-93234866D01*
X149739294Y-93460986D01*
X149601401Y-93718966D01*
X149516487Y-93998889D01*
X149487815Y-94290000D01*
X146660000Y-94290000D01*
X146660000Y-87000000D01*
X148321928Y-87000000D01*
X148321928Y-88800000D01*
X148334188Y-88924482D01*
X148370498Y-89044180D01*
X148429463Y-89154494D01*
X148508815Y-89251185D01*
X148605506Y-89330537D01*
X148715820Y-89389502D01*
X148835518Y-89425812D01*
X148960000Y-89438072D01*
X150323270Y-89438072D01*
X151836205Y-90951008D01*
X151859999Y-90980001D01*
X151888992Y-91003795D01*
X151888996Y-91003799D01*
X151959685Y-91061811D01*
X151975724Y-91074974D01*
X152107753Y-91145546D01*
X152251014Y-91189003D01*
X152362667Y-91200000D01*
X152362676Y-91200000D01*
X152399999Y-91203676D01*
X152437322Y-91200000D01*
X154902678Y-91200000D01*
X154940000Y-91203676D01*
X154977322Y-91200000D01*
X154977333Y-91200000D01*
X155088986Y-91189003D01*
X155232247Y-91145546D01*
X155364276Y-91074974D01*
X155480001Y-90980001D01*
X155503804Y-90950997D01*
X157156114Y-89298688D01*
X157338665Y-89335000D01*
X157621335Y-89335000D01*
X157898574Y-89279853D01*
X158159727Y-89171680D01*
X158394759Y-89014637D01*
X158594637Y-88814759D01*
X158751680Y-88579727D01*
X158859853Y-88318574D01*
X158915000Y-88041335D01*
X158915000Y-87758665D01*
X159855000Y-87758665D01*
X159855000Y-88041335D01*
X159910147Y-88318574D01*
X160018320Y-88579727D01*
X160175363Y-88814759D01*
X160375241Y-89014637D01*
X160610273Y-89171680D01*
X160871426Y-89279853D01*
X161148665Y-89335000D01*
X161431335Y-89335000D01*
X161708574Y-89279853D01*
X161969727Y-89171680D01*
X162204759Y-89014637D01*
X162404637Y-88814759D01*
X162561680Y-88579727D01*
X162669853Y-88318574D01*
X162725000Y-88041335D01*
X162725000Y-87758665D01*
X163665000Y-87758665D01*
X163665000Y-88041335D01*
X163720147Y-88318574D01*
X163828320Y-88579727D01*
X163985363Y-88814759D01*
X164185241Y-89014637D01*
X164340001Y-89118044D01*
X164340000Y-91672677D01*
X164336324Y-91710000D01*
X164340000Y-91747322D01*
X164340000Y-91747332D01*
X164350997Y-91858985D01*
X164375976Y-91941331D01*
X164394454Y-92002246D01*
X164465026Y-92134276D01*
X164504871Y-92182826D01*
X164559999Y-92250001D01*
X164589003Y-92273804D01*
X167116201Y-94801003D01*
X167139999Y-94830001D01*
X167168997Y-94853799D01*
X167255723Y-94924974D01*
X167359849Y-94980631D01*
X167387753Y-94995546D01*
X167531014Y-95039003D01*
X167642667Y-95050000D01*
X167642677Y-95050000D01*
X167680000Y-95053676D01*
X167717322Y-95050000D01*
X180182405Y-95050000D01*
X180219294Y-95119014D01*
X180400608Y-95339945D01*
X180365820Y-95350498D01*
X180255506Y-95409463D01*
X180158815Y-95488815D01*
X180079463Y-95585506D01*
X180020498Y-95695820D01*
X179984188Y-95815518D01*
X179971928Y-95940000D01*
X179975000Y-96504250D01*
X180133750Y-96663000D01*
X181483000Y-96663000D01*
X181483000Y-96643000D01*
X181737000Y-96643000D01*
X181737000Y-96663000D01*
X183086250Y-96663000D01*
X183245000Y-96504250D01*
X183248072Y-95940000D01*
X183235812Y-95815518D01*
X183199502Y-95695820D01*
X183140537Y-95585506D01*
X183061185Y-95488815D01*
X182964494Y-95409463D01*
X182854180Y-95350498D01*
X182819392Y-95339945D01*
X183000706Y-95119014D01*
X183138599Y-94861034D01*
X183223513Y-94581111D01*
X183252185Y-94290000D01*
X183223513Y-93998889D01*
X183138599Y-93718966D01*
X183000706Y-93460986D01*
X182815134Y-93234866D01*
X182589014Y-93049294D01*
X182331034Y-92911401D01*
X182051111Y-92826487D01*
X181832950Y-92805000D01*
X181387050Y-92805000D01*
X181168889Y-92826487D01*
X180888966Y-92911401D01*
X180630986Y-93049294D01*
X180404866Y-93234866D01*
X180219294Y-93460986D01*
X180182405Y-93530000D01*
X167994802Y-93530000D01*
X167244674Y-92779872D01*
X188765000Y-92779872D01*
X188765000Y-93220128D01*
X188850890Y-93651925D01*
X189019369Y-94058669D01*
X189263962Y-94424729D01*
X189575271Y-94736038D01*
X189941331Y-94980631D01*
X190348075Y-95149110D01*
X190779872Y-95235000D01*
X191220128Y-95235000D01*
X191651925Y-95149110D01*
X192058669Y-94980631D01*
X192424729Y-94736038D01*
X192736038Y-94424729D01*
X192980631Y-94058669D01*
X193149110Y-93651925D01*
X193235000Y-93220128D01*
X193235000Y-92779872D01*
X193149110Y-92348075D01*
X192980631Y-91941331D01*
X192736038Y-91575271D01*
X192424729Y-91263962D01*
X192058669Y-91019369D01*
X191651925Y-90850890D01*
X191220128Y-90765000D01*
X190779872Y-90765000D01*
X190348075Y-90850890D01*
X189941331Y-91019369D01*
X189575271Y-91263962D01*
X189263962Y-91575271D01*
X189019369Y-91941331D01*
X188850890Y-92348075D01*
X188765000Y-92779872D01*
X167244674Y-92779872D01*
X165860000Y-91395199D01*
X165860000Y-89118043D01*
X166014759Y-89014637D01*
X166214637Y-88814759D01*
X166371680Y-88579727D01*
X166479853Y-88318574D01*
X166535000Y-88041335D01*
X166535000Y-87758665D01*
X167475000Y-87758665D01*
X167475000Y-88041335D01*
X167530147Y-88318574D01*
X167638320Y-88579727D01*
X167795363Y-88814759D01*
X167995241Y-89014637D01*
X168230273Y-89171680D01*
X168491426Y-89279853D01*
X168768665Y-89335000D01*
X169051335Y-89335000D01*
X169328574Y-89279853D01*
X169589727Y-89171680D01*
X169824759Y-89014637D01*
X170024637Y-88814759D01*
X170181680Y-88579727D01*
X170289853Y-88318574D01*
X170345000Y-88041335D01*
X170345000Y-87758665D01*
X171285000Y-87758665D01*
X171285000Y-88041335D01*
X171340147Y-88318574D01*
X171448320Y-88579727D01*
X171605363Y-88814759D01*
X171805241Y-89014637D01*
X172040273Y-89171680D01*
X172301426Y-89279853D01*
X172578665Y-89335000D01*
X172861335Y-89335000D01*
X173138574Y-89279853D01*
X173399727Y-89171680D01*
X173634759Y-89014637D01*
X173834637Y-88814759D01*
X173991680Y-88579727D01*
X174099853Y-88318574D01*
X174155000Y-88041335D01*
X174155000Y-87758665D01*
X175095000Y-87758665D01*
X175095000Y-88041335D01*
X175150147Y-88318574D01*
X175258320Y-88579727D01*
X175415363Y-88814759D01*
X175615241Y-89014637D01*
X175850273Y-89171680D01*
X176111426Y-89279853D01*
X176388665Y-89335000D01*
X176671335Y-89335000D01*
X176948574Y-89279853D01*
X177209727Y-89171680D01*
X177444759Y-89014637D01*
X177644637Y-88814759D01*
X177748043Y-88660000D01*
X180071928Y-88660000D01*
X180071928Y-88800000D01*
X180084188Y-88924482D01*
X180120498Y-89044180D01*
X180179463Y-89154494D01*
X180258815Y-89251185D01*
X180355506Y-89330537D01*
X180465820Y-89389502D01*
X180585518Y-89425812D01*
X180710000Y-89438072D01*
X182510000Y-89438072D01*
X182634482Y-89425812D01*
X182754180Y-89389502D01*
X182864494Y-89330537D01*
X182961185Y-89251185D01*
X183040537Y-89154494D01*
X183099502Y-89044180D01*
X183105056Y-89025873D01*
X183171495Y-89092312D01*
X183422905Y-89260299D01*
X183702257Y-89376011D01*
X183998816Y-89435000D01*
X184301184Y-89435000D01*
X184597743Y-89376011D01*
X184877095Y-89260299D01*
X185128505Y-89092312D01*
X185342312Y-88878505D01*
X185510299Y-88627095D01*
X185626011Y-88347743D01*
X185685000Y-88051184D01*
X185685000Y-87748816D01*
X185626011Y-87452257D01*
X185510299Y-87172905D01*
X185342312Y-86921495D01*
X185128505Y-86707688D01*
X184877095Y-86539701D01*
X184597743Y-86423989D01*
X184301184Y-86365000D01*
X183998816Y-86365000D01*
X183702257Y-86423989D01*
X183422905Y-86539701D01*
X183171495Y-86707688D01*
X183105056Y-86774127D01*
X183099502Y-86755820D01*
X183040537Y-86645506D01*
X182961185Y-86548815D01*
X182864494Y-86469463D01*
X182754180Y-86410498D01*
X182634482Y-86374188D01*
X182510000Y-86361928D01*
X180710000Y-86361928D01*
X180585518Y-86374188D01*
X180465820Y-86410498D01*
X180355506Y-86469463D01*
X180258815Y-86548815D01*
X180179463Y-86645506D01*
X180120498Y-86755820D01*
X180084188Y-86875518D01*
X180071928Y-87000000D01*
X180071928Y-87140000D01*
X177748043Y-87140000D01*
X177644637Y-86985241D01*
X177444759Y-86785363D01*
X177209727Y-86628320D01*
X176948574Y-86520147D01*
X176671335Y-86465000D01*
X176388665Y-86465000D01*
X176111426Y-86520147D01*
X175850273Y-86628320D01*
X175615241Y-86785363D01*
X175415363Y-86985241D01*
X175258320Y-87220273D01*
X175150147Y-87481426D01*
X175095000Y-87758665D01*
X174155000Y-87758665D01*
X174099853Y-87481426D01*
X173991680Y-87220273D01*
X173834637Y-86985241D01*
X173634759Y-86785363D01*
X173399727Y-86628320D01*
X173138574Y-86520147D01*
X172861335Y-86465000D01*
X172578665Y-86465000D01*
X172301426Y-86520147D01*
X172040273Y-86628320D01*
X171805241Y-86785363D01*
X171605363Y-86985241D01*
X171448320Y-87220273D01*
X171340147Y-87481426D01*
X171285000Y-87758665D01*
X170345000Y-87758665D01*
X170289853Y-87481426D01*
X170181680Y-87220273D01*
X170024637Y-86985241D01*
X169824759Y-86785363D01*
X169589727Y-86628320D01*
X169328574Y-86520147D01*
X169051335Y-86465000D01*
X168768665Y-86465000D01*
X168491426Y-86520147D01*
X168230273Y-86628320D01*
X167995241Y-86785363D01*
X167795363Y-86985241D01*
X167638320Y-87220273D01*
X167530147Y-87481426D01*
X167475000Y-87758665D01*
X166535000Y-87758665D01*
X166479853Y-87481426D01*
X166371680Y-87220273D01*
X166214637Y-86985241D01*
X166014759Y-86785363D01*
X165779727Y-86628320D01*
X165518574Y-86520147D01*
X165241335Y-86465000D01*
X164958665Y-86465000D01*
X164681426Y-86520147D01*
X164420273Y-86628320D01*
X164185241Y-86785363D01*
X163985363Y-86985241D01*
X163828320Y-87220273D01*
X163720147Y-87481426D01*
X163665000Y-87758665D01*
X162725000Y-87758665D01*
X162669853Y-87481426D01*
X162561680Y-87220273D01*
X162404637Y-86985241D01*
X162204759Y-86785363D01*
X161969727Y-86628320D01*
X161708574Y-86520147D01*
X161431335Y-86465000D01*
X161148665Y-86465000D01*
X160871426Y-86520147D01*
X160610273Y-86628320D01*
X160375241Y-86785363D01*
X160175363Y-86985241D01*
X160018320Y-87220273D01*
X159910147Y-87481426D01*
X159855000Y-87758665D01*
X158915000Y-87758665D01*
X158859853Y-87481426D01*
X158751680Y-87220273D01*
X158594637Y-86985241D01*
X158394759Y-86785363D01*
X158159727Y-86628320D01*
X157898574Y-86520147D01*
X157621335Y-86465000D01*
X157338665Y-86465000D01*
X157061426Y-86520147D01*
X156800273Y-86628320D01*
X156565241Y-86785363D01*
X156365363Y-86985241D01*
X156208320Y-87220273D01*
X156100147Y-87481426D01*
X156045000Y-87758665D01*
X156045000Y-88041335D01*
X156081312Y-88223886D01*
X154625199Y-89680000D01*
X152714803Y-89680000D01*
X152469803Y-89435000D01*
X152551184Y-89435000D01*
X152847743Y-89376011D01*
X153127095Y-89260299D01*
X153378505Y-89092312D01*
X153592312Y-88878505D01*
X153760299Y-88627095D01*
X153876011Y-88347743D01*
X153935000Y-88051184D01*
X153935000Y-87748816D01*
X153876011Y-87452257D01*
X153760299Y-87172905D01*
X153592312Y-86921495D01*
X153378505Y-86707688D01*
X153127095Y-86539701D01*
X152847743Y-86423989D01*
X152551184Y-86365000D01*
X152248816Y-86365000D01*
X151952257Y-86423989D01*
X151672905Y-86539701D01*
X151421495Y-86707688D01*
X151355056Y-86774127D01*
X151349502Y-86755820D01*
X151290537Y-86645506D01*
X151211185Y-86548815D01*
X151114494Y-86469463D01*
X151004180Y-86410498D01*
X150884482Y-86374188D01*
X150760000Y-86361928D01*
X148960000Y-86361928D01*
X148835518Y-86374188D01*
X148715820Y-86410498D01*
X148605506Y-86469463D01*
X148508815Y-86548815D01*
X148429463Y-86645506D01*
X148370498Y-86755820D01*
X148334188Y-86875518D01*
X148321928Y-87000000D01*
X146660000Y-87000000D01*
X146660000Y-83660000D01*
X195340000Y-83660000D01*
X195340001Y-117340000D01*
M02*
